<svg width="400" height="160" viewBox="0 0 400 160" fill="none" xmlns="http://www.w3.org/2000/svg">
<path d="M142 89.6159H124.75L121.5 97.7319C121.25 98.7464 120.5 99 119.75 99C119.25 99 118.75 98.7464 118.5 98.4928C118 98.2391 118 97.7319 118 97.2246C118 96.971 118 96.7174 118.25 96.4638L130 67.2971C130.5 66.029 131 65.2681 131.5 64.7609C132 64.2536 132.75 64 133.5 64C134.25 64 135 64.2536 135.5 64.7609C136 65.2681 136.5 66.029 137 67.2971L148.75 96.4638C148.75 96.7174 149 96.971 149 97.2246C149 97.7319 148.75 98.2391 148.5 98.4928C148.25 98.7464 147.75 99 147.25 99C146.25 99 145.75 98.4928 145.5 97.7319L142 89.6159ZM133.5 67.8043L126 86.8261H141L133.5 67.8043Z" fill="#363C44"/>
<path d="M157.489 94.9179C157.245 94.6644 157.245 94.6644 157.245 94.411C157.245 93.9042 157.489 93.6507 157.979 93.1439C158.468 92.637 158.713 92.637 159.202 92.637C159.447 92.637 159.691 92.637 159.691 92.8905C160.67 93.9042 162.138 94.6644 163.606 95.1713C165.074 95.9316 166.787 96.185 168.745 96.185C171.191 96.185 173.149 95.6781 174.617 94.6644C176.085 93.6507 176.819 92.1302 176.819 90.1028C176.819 89.0891 176.819 88.3288 176.574 87.5685C176.33 86.8083 175.84 86.3014 175.351 85.7946C174.862 85.2877 174.128 84.7809 173.394 84.5274C172.66 84.274 171.681 83.7672 170.702 83.5137L164.585 81.4863C162.138 80.7261 160.426 79.7124 158.957 78.1918C157.734 76.9247 157 75.1507 157 72.8699C157 71.0959 157.489 69.5754 158.468 68.0548C159.447 66.7877 160.915 65.5205 162.628 65.0137C164.34 64.2534 166.298 64 168.5 64C170.702 64 172.66 64.5069 174.617 65.2671C176.574 66.0274 178.043 67.0411 179.021 67.8014C179.266 68.0548 179.511 68.5617 179.511 68.8151C179.511 69.3219 179.266 69.5754 179.021 69.8288C178.777 70.0822 178.287 70.3356 178.043 70.3356C177.798 70.3356 177.309 70.3356 177.064 70.0822C176.085 69.3219 175.106 68.8151 173.638 68.0548C172.17 67.548 170.457 67.0411 168.745 67.0411C166.298 67.0411 164.34 67.5479 162.872 68.5616C161.404 69.5754 160.67 71.0959 160.67 72.6165C160.67 74.137 161.16 75.1507 161.894 75.911C162.872 76.6713 164.096 77.4315 166.053 78.1918L172.17 80.2192C173.394 80.7261 174.617 81.2329 175.351 81.4863C176.33 81.9932 177.064 82.5 177.798 83.2603C178.532 84.0206 179.266 84.7809 179.511 85.7946C180 86.8083 180 87.822 180 89.0891C180 92.3836 179.021 94.6644 176.819 96.4384C174.617 98.2124 171.681 98.9727 167.766 98.9727C164.096 99.2261 160.426 97.7055 157.489 94.9179Z" fill="#363C44"/>
<path d="M190.511 94.9179C190.255 94.6644 190.255 94.6644 190.255 94.411C190.255 93.9042 190.511 93.6507 191.021 93.1439C191.532 92.637 191.787 92.637 192.298 92.637C192.553 92.637 192.809 92.637 192.809 92.8905C193.83 93.9042 195.362 94.6644 196.894 95.1713C198.426 95.9316 200.213 96.185 202.255 96.185C204.809 96.185 206.851 95.6781 208.383 94.6644C209.915 93.6507 210.681 92.1302 210.681 90.1028C210.681 89.0891 210.681 88.3288 210.426 87.5685C210.17 86.8083 209.66 86.3014 209.149 85.7946C208.638 85.2877 207.872 84.7809 207.106 84.5274C206.34 84.274 205.319 83.7672 204.298 83.5137L197.915 81.4863C195.362 80.7261 193.574 79.7124 192.043 78.1918C190.766 76.9247 190 75.1507 190 72.8699C190 71.0959 190.511 69.5754 191.532 68.0548C192.553 66.7877 194.085 65.5205 195.872 65.0137C197.66 64.2534 199.702 64 202 64C204.298 64 206.34 64.5069 208.383 65.2671C210.426 66.0274 211.957 67.0411 212.979 67.8014C213.234 68.0548 213.489 68.5617 213.489 68.8151C213.489 69.3219 213.234 69.5754 212.979 69.8288C212.723 70.0822 212.213 70.3356 211.957 70.3356C211.702 70.3356 211.191 70.3356 210.936 70.0822C209.915 69.3219 208.894 68.8151 207.362 68.0548C205.83 67.548 204.043 67.0411 202.255 67.0411C199.702 67.0411 197.66 67.5479 196.128 68.5616C194.596 69.5754 193.83 71.0959 193.83 72.6165C193.83 74.137 194.34 75.1507 195.106 75.911C196.128 76.6713 197.404 77.4315 199.447 78.1918L205.83 80.2192C207.106 80.7261 208.383 81.2329 209.149 81.4863C210.17 81.9932 210.936 82.5 211.702 83.2603C212.468 84.0206 213.234 84.7809 213.489 85.7946C214 86.8083 214 87.822 214 89.0891C214 92.3836 212.979 94.6644 210.681 96.4384C208.383 98.2124 205.319 98.9727 201.234 98.9727C197.404 99.2261 193.574 97.7055 190.511 94.9179Z" fill="#363C44"/>
<path d="M225.517 98.6372C225 98.124 225 97.8674 225 97.3543V65.796C225 65.2829 225.258 64.7697 225.517 64.5131C225.775 64 226.292 64 226.809 64H245.416C245.933 64 246.449 64.2566 246.708 64.5131C246.966 64.7697 247.225 65.2829 247.225 65.5394C247.225 66.0526 246.966 66.3091 246.708 66.5657C246.449 66.8223 245.933 67.0789 245.416 67.0789H228.876V79.3943H244.64C245.157 79.3943 245.674 79.6509 245.933 79.9074C246.191 80.164 246.449 80.6771 246.449 80.9337C246.449 81.4469 246.191 81.7034 245.933 81.96C245.674 82.2166 245.157 82.4731 244.64 82.4731H228.876V95.8149H246.191C246.708 95.8149 247.225 96.0714 247.483 96.328C247.742 96.5846 248 97.0977 248 97.3543C248 97.8674 247.742 98.124 247.483 98.3806C247.225 98.6372 246.708 98.8937 246.191 98.8937H227.067C226.551 99.1503 226.034 98.8937 225.517 98.6372Z" fill="#363C44"/>
<path d="M275.459 97.7226C274.946 97.4672 274.689 96.9562 274.432 96.4453L261.595 68.5985V97.4672C261.595 97.9781 261.338 98.2336 261.081 98.4891C260.824 98.7445 260.311 99 259.797 99C259.284 99 258.77 98.7445 258.514 98.4891C258.257 98.2336 258 97.9781 258 97.4672V66.8102C258 66.0438 258.257 65.2774 259.027 64.7664C259.541 64.2555 260.311 64 261.081 64C262.622 64 263.649 64.7664 264.419 66.5547L277 93.8905L289.581 66.5547C290.351 65.0219 291.378 64 292.919 64C293.689 64 294.459 64.2555 294.973 64.7664C295.486 65.2774 296 66.0438 296 66.8102V97.4672C296 97.9781 295.743 98.2336 295.486 98.4891C295.23 98.7445 294.716 99 294.203 99C293.689 99 293.176 98.7445 292.919 98.4891C292.662 98.2336 292.405 97.9781 292.405 97.4672V68.5985L279.568 96.4453C279.311 96.9562 279.054 97.4672 278.541 97.7226C278.027 97.9781 277.77 98.2336 277.257 98.2336C276.23 98.2336 275.716 97.9781 275.459 97.7226Z" fill="#363C44"/>
<path d="M307.51 98.4891C307 98.2336 307 97.7226 307 97.2117V65.7883C307 65.2774 307.255 64.7664 307.51 64.5109C308.02 64.2555 308.275 64 309.041 64H318.48C326.643 64 330.724 67.0657 330.724 72.9416C330.724 74.9854 329.959 76.7737 328.684 78.3066C327.408 79.8394 325.622 80.6058 323.327 80.8613C326.133 81.1168 328.173 81.8832 329.704 83.4161C331.235 84.9489 332 86.9927 332 89.5474C332 90.8248 331.745 91.8467 331.235 93.1241C330.724 94.146 330.214 95.1679 329.194 96.1898C328.173 97.2117 327.153 97.7226 325.622 98.2336C324.092 98.7445 322.306 99 320.265 99H308.786C308.276 99 307.765 98.7445 307.51 98.4891ZM317.969 79.3285C320.776 79.3285 323.071 78.8175 324.347 77.7956C325.878 76.7737 326.388 74.9854 326.388 72.9416C326.388 71.9197 326.133 71.1533 325.878 70.3869C325.622 69.6204 325.112 69.1095 324.602 68.5985C324.092 68.0876 323.582 67.8321 322.816 67.5766C322.051 67.3212 321.286 67.0657 320.52 67.0657C319.755 67.0657 318.99 67.0657 317.969 67.0657H310.316V79.5839L317.969 79.3285ZM319.245 95.9343C322.051 95.9343 324.347 95.4234 325.622 94.4015C326.898 93.3796 327.663 91.5912 327.663 89.0365C327.663 86.7372 326.898 84.9489 325.112 83.927C323.582 82.9051 321.031 82.3942 317.459 82.3942H310.571V95.9343H319.245Z" fill="#363C44"/>
<path d="M341.512 98.4891C341 98.2336 341 97.7226 341 97.2117V65.7883C341 65.2774 341.256 64.7664 341.512 64.5109C342.023 64.2555 342.279 64 343.047 64C343.558 64 344.07 64.2555 344.326 64.5109C344.837 64.7664 344.837 65.2774 344.837 65.7883V95.9343H361.209C361.721 95.9343 362.233 96.1898 362.488 96.4453C362.744 96.7007 363 97.2117 363 97.4672C363 97.9781 362.744 98.2336 362.488 98.4891C362.233 98.7445 361.721 99 361.209 99H343.047C342.279 99 341.767 98.7445 341.512 98.4891Z" fill="#363C44"/>
<path d="M391.774 89.6159H373.968L370.613 97.7319C370.355 98.7464 369.581 99 368.806 99C368.29 99 367.774 98.7464 367.516 98.4928C367 98.2391 367 97.7319 367 97.2246C367 96.971 367 96.7174 367.258 96.4638L379.387 67.2971C379.903 66.029 380.419 65.2681 380.935 64.7609C381.452 64.2536 382.226 64 383 64C383.774 64 384.548 64.2536 385.065 64.7609C385.581 65.2681 386.097 66.029 386.613 67.2971L398.742 96.4638C398.742 96.7174 399 96.971 399 97.2246C399 97.7319 398.742 98.2391 398.484 98.4928C398.226 98.7464 397.71 99 397.194 99C396.161 99 395.645 98.4928 395.387 97.7319L391.774 89.6159ZM383 67.8043L375.258 86.8261H390.742L383 67.8043Z" fill="#363C44"/>
<path d="M92.5316 43.8727L60.3245 25.2909C57.7684 23.7636 54.4454 23 50.6112 23C47.0326 23 43.4541 23.7636 40.898 25.2909L9.20204 43.8727C3.83418 46.9273 0 54.3091 0 60.4182V97.5818C0 103.691 3.83418 111.073 9.20204 114.127L41.1536 132.709C43.7097 134.236 47.0326 135 50.6112 135C54.1898 135 57.7684 134.236 60.0689 132.709L92.276 114.127C97.3882 111.073 101.989 103.436 101.989 97.5818V60.4182C102.245 54.3091 97.8995 46.9273 92.5316 43.8727ZM73.8719 97.5818C73.6163 97.8364 73.1051 97.8364 72.8495 97.8364C72.0826 97.8364 71.3158 97.3273 70.8046 96.5636L58.024 71.1091L45.2434 96.5636C44.7321 97.3273 43.9653 97.8364 43.1985 97.8364C42.9428 97.8364 42.4316 97.8364 42.176 97.5818C41.1536 97.0727 40.6423 95.8 41.1536 94.5273L55.4678 66.2727L50.6112 56.6L30.4179 96.8182C29.9066 97.8364 28.6286 98.3455 27.3505 97.8364C26.3281 97.3273 25.8168 96.0545 26.3281 94.7818L48.5663 50.4909C48.8219 49.7273 49.5888 49.2182 50.6112 49.2182C51.6337 49.2182 52.1449 49.7273 52.6561 50.4909L58.024 61.1818L60.5801 66.0182L74.8944 94.5273C75.4056 95.8 74.8944 97.0727 73.8719 97.5818Z" fill="#363D45"/>
</svg>
