<svg width="400" height="160" viewBox="0 0 400 160" fill="none" xmlns="http://www.w3.org/2000/svg">
<path d="M196.418 70V50.6641C196.418 49.6745 196.496 48.0794 196.652 45.8789H196.574C196.392 46.4648 196.223 46.9727 196.066 47.4023C195.923 47.832 195.786 48.1836 195.656 48.457L185.891 70H184.777L174.992 48.5938C174.706 47.9427 174.413 47.0247 174.113 45.8398H174.035C174.087 46.4388 174.12 47.1224 174.133 47.8906C174.159 48.6589 174.172 49.5117 174.172 50.4492V70H171.633V41.9922H174.699L184.211 63.0469C184.406 63.4896 184.595 63.9453 184.777 64.4141C184.973 64.8698 185.148 65.3581 185.305 65.8789H185.422C185.604 65.3581 185.767 64.8828 185.91 64.4531C186.066 64.0234 186.255 63.5612 186.477 63.0664L196.066 41.9922H198.977V70H196.418Z" fill="black"/>
<path d="M207.062 44.9414C206.581 44.9414 206.164 44.7721 205.812 44.4336C205.461 44.0951 205.285 43.6654 205.285 43.1445C205.285 42.6367 205.461 42.2201 205.812 41.8945C206.164 41.556 206.581 41.3867 207.062 41.3867C207.31 41.3867 207.544 41.4323 207.766 41.5234C207.987 41.6016 208.176 41.7188 208.332 41.875C208.501 42.0312 208.632 42.2201 208.723 42.4414C208.827 42.6497 208.879 42.8841 208.879 43.1445C208.879 43.3919 208.833 43.6263 208.742 43.8477C208.651 44.069 208.521 44.2643 208.352 44.4336C208.182 44.5898 207.987 44.7135 207.766 44.8047C207.557 44.8958 207.323 44.9414 207.062 44.9414ZM205.832 70V50H208.332V70H205.832Z" fill="black"/>
<path d="M228.078 69.1016C226.594 70 224.797 70.4622 222.688 70.4883C221.255 70.5013 219.966 70.2539 218.82 69.7461C217.674 69.2383 216.698 68.5352 215.891 67.6367C215.083 66.7253 214.465 65.6576 214.035 64.4336C213.605 63.1966 213.391 61.8555 213.391 60.4102C213.391 58.9128 213.618 57.5065 214.074 56.1914C214.53 54.8633 215.194 53.7109 216.066 52.7344C216.939 51.7448 218.007 50.9635 219.27 50.3906C220.533 49.8177 221.978 49.5312 223.605 49.5312C225.259 49.5312 226.77 49.8503 228.137 50.4883V53.1445C226.678 52.181 225.103 51.6992 223.41 51.6992C222.225 51.6992 221.171 51.9271 220.246 52.3828C219.322 52.8255 218.54 53.4375 217.902 54.2188C217.277 54.987 216.796 55.8919 216.457 56.9336C216.132 57.9622 215.969 59.056 215.969 60.2148C215.969 61.2826 216.105 62.3047 216.379 63.2812C216.665 64.2578 217.095 65.1237 217.668 65.8789C218.254 66.6211 218.99 67.2135 219.875 67.6562C220.76 68.099 221.802 68.3203 223 68.3203C224.875 68.3203 226.568 67.7604 228.078 66.6406V69.1016Z" fill="black"/>
<path d="M242.824 52.5586C242.238 52.1289 241.483 51.9141 240.559 51.9141C239.895 51.9141 239.309 52.0443 238.801 52.3047C238.293 52.5521 237.844 52.8906 237.453 53.3203C237.076 53.75 236.75 54.2513 236.477 54.8242C236.216 55.3841 236.001 55.9701 235.832 56.582C235.676 57.194 235.559 57.8125 235.48 58.4375C235.415 59.0625 235.383 59.6549 235.383 60.2148V70H232.902V50H235.383V54.2773H235.461C235.695 53.5482 235.988 52.8971 236.34 52.3242C236.704 51.7383 237.121 51.25 237.59 50.8594C238.059 50.4557 238.566 50.1497 239.113 49.9414C239.673 49.7331 240.259 49.6289 240.871 49.6289C241.275 49.6289 241.633 49.6549 241.945 49.707C242.271 49.7591 242.564 49.8372 242.824 49.9414V52.5586Z" fill="black"/>
<path d="M254.094 70.4688C252.609 70.4688 251.275 70.2214 250.09 69.7266C248.918 69.2318 247.915 68.5352 247.082 67.6367C246.249 66.7253 245.611 65.638 245.168 64.375C244.725 63.112 244.504 61.7122 244.504 60.1758C244.504 58.5091 244.738 57.0182 245.207 55.7031C245.676 54.388 246.34 53.2747 247.199 52.3633C248.072 51.4388 249.12 50.7357 250.344 50.2539C251.568 49.7721 252.935 49.5312 254.445 49.5312C255.891 49.5312 257.193 49.7721 258.352 50.2539C259.51 50.7227 260.493 51.4062 261.301 52.3047C262.108 53.2031 262.727 54.2969 263.156 55.5859C263.586 56.875 263.801 58.3398 263.801 59.9805C263.801 61.543 263.573 62.9688 263.117 64.2578C262.674 65.5339 262.036 66.6341 261.203 67.5586C260.37 68.4831 259.354 69.1992 258.156 69.707C256.958 70.2148 255.604 70.4688 254.094 70.4688ZM254.289 51.6992C253.195 51.6992 252.206 51.888 251.32 52.2656C250.435 52.6432 249.673 53.1966 249.035 53.9258C248.41 54.6419 247.928 55.5273 247.59 56.582C247.251 57.6237 247.082 58.8086 247.082 60.1367C247.082 61.3867 247.251 62.513 247.59 63.5156C247.928 64.5182 248.404 65.3776 249.016 66.0938C249.641 66.8099 250.396 67.3633 251.281 67.7539C252.167 68.1315 253.156 68.3203 254.25 68.3203C255.37 68.3203 256.359 68.138 257.219 67.7734C258.078 67.3958 258.807 66.8555 259.406 66.1523C260.005 65.4362 260.454 64.5638 260.754 63.5352C261.066 62.5065 261.223 61.3346 261.223 60.0195C261.223 57.3242 260.624 55.2669 259.426 53.8477C258.228 52.4154 256.516 51.6992 254.289 51.6992Z" fill="black"/>
<path d="M267.707 66.4062C268.085 66.7057 268.495 66.9727 268.938 67.207C269.38 67.4414 269.836 67.6432 270.305 67.8125C270.773 67.9818 271.242 68.112 271.711 68.2031C272.193 68.2812 272.648 68.3203 273.078 68.3203C276.047 68.3203 277.531 67.207 277.531 64.9805C277.531 64.4727 277.427 64.0365 277.219 63.6719C277.01 63.2943 276.711 62.9557 276.32 62.6562C275.93 62.3438 275.461 62.0573 274.914 61.7969C274.367 61.5365 273.749 61.263 273.059 60.9766C272.134 60.599 271.34 60.2148 270.676 59.8242C270.012 59.4336 269.465 59.0104 269.035 58.5547C268.605 58.0859 268.286 57.5781 268.078 57.0312C267.87 56.4714 267.766 55.8398 267.766 55.1367C267.766 54.2513 267.954 53.4635 268.332 52.7734C268.723 52.0833 269.243 51.4974 269.895 51.0156C270.546 50.5339 271.294 50.1693 272.141 49.9219C273 49.6615 273.898 49.5312 274.836 49.5312C276.568 49.5312 278.078 49.8568 279.367 50.5078V53.1445C277.87 52.181 276.255 51.6992 274.523 51.6992C273.898 51.6992 273.326 51.7773 272.805 51.9336C272.297 52.0898 271.861 52.3112 271.496 52.5977C271.132 52.8841 270.845 53.2292 270.637 53.6328C270.441 54.0234 270.344 54.4596 270.344 54.9414C270.344 55.4362 270.422 55.8724 270.578 56.25C270.734 56.6146 270.975 56.9466 271.301 57.2461C271.639 57.5456 272.069 57.832 272.59 58.1055C273.124 58.3789 273.768 58.6719 274.523 58.9844C275.487 59.375 276.32 59.7656 277.023 60.1562C277.727 60.5339 278.306 60.9505 278.762 61.4062C279.217 61.849 279.556 62.3503 279.777 62.9102C279.999 63.457 280.109 64.0951 280.109 64.8242C280.109 65.7227 279.921 66.5234 279.543 67.2266C279.178 67.9297 278.664 68.5221 278 69.0039C277.349 69.4857 276.581 69.8503 275.695 70.0977C274.81 70.3451 273.846 70.4688 272.805 70.4688C270.786 70.4688 269.087 70.0456 267.707 69.1992V66.4062Z" fill="black"/>
<path d="M293.273 70.4688C291.789 70.4688 290.454 70.2214 289.27 69.7266C288.098 69.2318 287.095 68.5352 286.262 67.6367C285.428 66.7253 284.79 65.638 284.348 64.375C283.905 63.112 283.684 61.7122 283.684 60.1758C283.684 58.5091 283.918 57.0182 284.387 55.7031C284.855 54.388 285.52 53.2747 286.379 52.3633C287.251 51.4388 288.299 50.7357 289.523 50.2539C290.747 49.7721 292.115 49.5312 293.625 49.5312C295.07 49.5312 296.372 49.7721 297.531 50.2539C298.69 50.7227 299.673 51.4062 300.48 52.3047C301.288 53.2031 301.906 54.2969 302.336 55.5859C302.766 56.875 302.98 58.3398 302.98 59.9805C302.98 61.543 302.753 62.9688 302.297 64.2578C301.854 65.5339 301.216 66.6341 300.383 67.5586C299.549 68.4831 298.534 69.1992 297.336 69.707C296.138 70.2148 294.784 70.4688 293.273 70.4688ZM293.469 51.6992C292.375 51.6992 291.385 51.888 290.5 52.2656C289.615 52.6432 288.853 53.1966 288.215 53.9258C287.59 54.6419 287.108 55.5273 286.77 56.582C286.431 57.6237 286.262 58.8086 286.262 60.1367C286.262 61.3867 286.431 62.513 286.77 63.5156C287.108 64.5182 287.583 65.3776 288.195 66.0938C288.82 66.8099 289.576 67.3633 290.461 67.7539C291.346 68.1315 292.336 68.3203 293.43 68.3203C294.549 68.3203 295.539 68.138 296.398 67.7734C297.258 67.3958 297.987 66.8555 298.586 66.1523C299.185 65.4362 299.634 64.5638 299.934 63.5352C300.246 62.5065 300.402 61.3346 300.402 60.0195C300.402 57.3242 299.803 55.2669 298.605 53.8477C297.408 52.4154 295.695 51.6992 293.469 51.6992Z" fill="black"/>
<path d="M316.594 42.7539C316.034 42.3893 315.311 42.207 314.426 42.207C312.082 42.207 310.91 43.737 310.91 46.7969V50H315.891V52.1875H310.91V70H308.41V52.1875H304.914V50H308.41V46.6406C308.41 45.638 308.534 44.7331 308.781 43.9258C309.042 43.1055 309.419 42.4089 309.914 41.8359C310.409 41.25 311.027 40.8008 311.77 40.4883C312.525 40.1758 313.391 40.0195 314.367 40.0195C315.305 40.0195 316.047 40.1432 316.594 40.3906V42.7539Z" fill="black"/>
<path d="M328.41 69.7656C327.551 70.1953 326.613 70.4102 325.598 70.4102C322.368 70.4102 320.754 68.5482 320.754 64.8242V52.1875H317.238V50H320.754V44.9609L323.254 44.1406V50H328.41V52.1875H323.254V64.4336C323.254 65.7878 323.475 66.7643 323.918 67.3633C324.361 67.9622 325.109 68.2617 326.164 68.2617C326.945 68.2617 327.694 68.0273 328.41 67.5586V69.7656Z" fill="black"/>
<path d="M171.633 123V94.9922H185.285V97.375H174.23V107.648H184.465V109.992H174.23V120.637H185.91V123H171.633Z" fill="black"/>
<path d="M198.391 113.156L204.953 123H201.945L197.883 116.379C197.727 116.132 197.564 115.878 197.395 115.617C197.238 115.357 197.076 115.077 196.906 114.777H196.828C196.763 114.908 196.659 115.083 196.516 115.305C196.385 115.513 196.223 115.78 196.027 116.105L191.652 123H188.703L195.461 113.215L188.918 103H191.828L195.988 110.012C196.197 110.363 196.379 110.682 196.535 110.969C196.691 111.242 196.822 111.47 196.926 111.652H197.004C197.173 111.405 197.329 111.158 197.473 110.91C197.616 110.65 197.766 110.389 197.922 110.129L202.336 103H205.148L198.391 113.156Z" fill="black"/>
<path d="M221.945 122.102C220.461 123 218.664 123.462 216.555 123.488C215.122 123.501 213.833 123.254 212.688 122.746C211.542 122.238 210.565 121.535 209.758 120.637C208.951 119.725 208.332 118.658 207.902 117.434C207.473 116.197 207.258 114.855 207.258 113.41C207.258 111.913 207.486 110.507 207.941 109.191C208.397 107.863 209.061 106.711 209.934 105.734C210.806 104.745 211.874 103.964 213.137 103.391C214.4 102.818 215.845 102.531 217.473 102.531C219.126 102.531 220.637 102.85 222.004 103.488V106.145C220.546 105.181 218.97 104.699 217.277 104.699C216.092 104.699 215.038 104.927 214.113 105.383C213.189 105.826 212.408 106.438 211.77 107.219C211.145 107.987 210.663 108.892 210.324 109.934C209.999 110.962 209.836 112.056 209.836 113.215C209.836 114.283 209.973 115.305 210.246 116.281C210.533 117.258 210.962 118.124 211.535 118.879C212.121 119.621 212.857 120.214 213.742 120.656C214.628 121.099 215.669 121.32 216.867 121.32C218.742 121.32 220.435 120.76 221.945 119.641V122.102Z" fill="black"/>
<path d="M227.961 113.449C227.974 114.673 228.137 115.773 228.449 116.75C228.762 117.727 229.211 118.553 229.797 119.23C230.383 119.908 231.092 120.428 231.926 120.793C232.772 121.145 233.723 121.32 234.777 121.32C237.03 121.32 239.159 120.533 241.164 118.957V121.418C239.25 122.785 236.932 123.469 234.211 123.469C232.87 123.469 231.652 123.234 230.559 122.766C229.465 122.297 228.534 121.62 227.766 120.734C226.997 119.836 226.405 118.736 225.988 117.434C225.572 116.132 225.363 114.647 225.363 112.98C225.363 111.483 225.591 110.096 226.047 108.82C226.503 107.544 227.134 106.444 227.941 105.52C228.749 104.582 229.706 103.853 230.812 103.332C231.919 102.798 233.13 102.531 234.445 102.531C235.734 102.531 236.874 102.759 237.863 103.215C238.853 103.658 239.68 104.296 240.344 105.129C241.021 105.962 241.535 106.978 241.887 108.176C242.238 109.374 242.414 110.715 242.414 112.199V113.449H227.961ZM239.836 111.262C239.797 109.178 239.302 107.564 238.352 106.418C237.401 105.272 236.079 104.699 234.387 104.699C233.54 104.699 232.753 104.849 232.023 105.148C231.307 105.448 230.676 105.884 230.129 106.457C229.582 107.017 229.126 107.707 228.762 108.527C228.41 109.335 228.163 110.246 228.02 111.262H239.836Z" fill="black"/>
<path d="M247.316 123V93.3906H249.816V123H247.316Z" fill="black"/>
<path d="M91.1214 28.3774H51.4402C50.1251 28.3774 48.8638 28.8999 47.9338 29.8298C47.0039 30.7598 46.4814 32.0211 46.4814 33.3362V54.4174L91.1214 80.4574L113.441 89.8765L135.761 80.4574V54.4174L91.1214 28.3774Z" fill="#21A366"/>
<path d="M46.4814 54.418H91.1214V80.458H46.4814V54.418Z" fill="#107C41"/>
<path d="M130.803 28.3774H91.1213V54.4174H135.761V33.3362C135.761 32.0211 135.239 30.7598 134.309 29.8298C133.379 28.8999 132.118 28.3774 130.803 28.3774Z" fill="#33C481"/>
<path d="M91.1214 80.4575H46.4814V127.579C46.4814 128.894 47.0039 130.155 47.9338 131.085C48.8638 132.015 50.1251 132.538 51.4402 132.538H130.803C132.118 132.538 133.379 132.015 134.309 131.085C135.239 130.155 135.761 128.894 135.761 127.579V106.498L91.1214 80.4575Z" fill="#185C37"/>
<path d="M91.1213 80.4575H135.761V106.498H91.1213V80.4575Z" fill="#107C41"/>
<path opacity="0.1" d="M78.7227 46.978H46.4814V117.658H78.7227C80.0366 117.654 81.2956 117.13 82.2247 116.201C83.1538 115.272 83.6775 114.013 83.6815 112.699V51.9368C83.6775 50.6229 83.1538 49.3638 82.2247 48.4348C81.2956 47.5057 80.0366 46.982 78.7227 46.978Z" fill="black"/>
<path opacity="0.2" d="M75.0027 50.6973H46.4814V121.377H75.0027C76.3166 121.373 77.5756 120.85 78.5047 119.921C79.4338 118.991 79.9575 117.732 79.9614 116.419V55.656C79.9575 54.3421 79.4338 53.0831 78.5047 52.154C77.5756 51.2249 76.3166 50.7012 75.0027 50.6973Z" fill="black"/>
<path opacity="0.2" d="M75.0027 50.6973H46.4814V113.937H75.0027C76.3166 113.933 77.5756 113.41 78.5047 112.481C79.4338 111.551 79.9575 110.292 79.9614 108.979V55.656C79.9575 54.3421 79.4338 53.0831 78.5047 52.154C77.5756 51.2249 76.3166 50.7012 75.0027 50.6973Z" fill="black"/>
<path opacity="0.2" d="M71.2827 50.6973H46.4814V113.937H71.2827C72.5966 113.933 73.8556 113.41 74.7847 112.481C75.7138 111.551 76.2375 110.292 76.2414 108.979V55.656C76.2375 54.3421 75.7138 53.0831 74.7847 52.154C73.8556 51.2249 72.5966 50.7012 71.2827 50.6973Z" fill="black"/>
<path d="M21.6802 50.6973H71.2827C72.5978 50.6973 73.8591 51.2197 74.789 52.1497C75.719 53.0796 76.2414 54.3409 76.2414 55.656V105.259C76.2414 106.574 75.719 107.835 74.789 108.765C73.8591 109.695 72.5978 110.217 71.2827 110.217H21.6802C20.3651 110.217 19.1038 109.695 18.1738 108.765C17.2439 107.835 16.7214 106.574 16.7214 105.259V55.656C16.7214 54.3409 17.2439 53.0796 18.1738 52.1497C19.1038 51.2197 20.3651 50.6973 21.6802 50.6973Z" fill="#107C41"/>
<path d="M29.8643 99.0579L41.9022 80.4058L30.8761 61.8579H39.7483L45.7673 73.7136C46.3203 74.837 46.701 75.6752 46.9093 76.2283H46.9874C47.3842 75.3305 47.7996 74.4576 48.2336 73.6094L54.6655 61.8579H62.8086L51.4998 80.3017L63.095 99.0579H54.4274L47.4747 86.0379C47.1472 85.4833 46.8696 84.9007 46.6452 84.2969H46.541C46.3381 84.8874 46.0685 85.4528 45.7375 85.9821L38.5839 99.0579H29.8643Z" fill="white"/>
</svg>
