<svg width="400" height="160" viewBox="0 0 400 160" fill="none" xmlns="http://www.w3.org/2000/svg">
<path d="M385.559 99.3295L374.135 84.5734L384.528 76.2434C384.855 76.0101 385.12 75.7001 385.3 75.3405C385.48 74.9809 385.569 74.5827 385.559 74.1807C385.57 73.8548 385.514 73.5301 385.394 73.2267C385.274 72.9233 385.094 72.6477 384.863 72.4171C384.632 72.1865 384.357 72.0058 384.054 71.8861C383.75 71.7664 383.425 71.7103 383.099 71.7214C382.774 71.7051 382.449 71.7606 382.147 71.884C381.846 72.0074 381.575 72.1956 381.354 72.4354L366.439 84.5734V57.9174C366.429 57.5839 366.353 57.2558 366.216 56.9517C366.079 56.6476 365.883 56.3735 365.64 56.1451C365.397 55.9167 365.111 55.7385 364.799 55.6206C364.487 55.5027 364.155 55.4475 363.821 55.458C363.496 55.447 363.171 55.503 362.867 55.6227C362.564 55.7424 362.288 55.9231 362.058 56.1538C361.827 56.3844 361.646 56.6599 361.527 56.9633C361.407 57.2667 361.351 57.5914 361.362 57.9174V100.916C361.372 101.25 361.448 101.578 361.585 101.882C361.723 102.186 361.918 102.46 362.161 102.688C362.405 102.917 362.69 103.095 363.002 103.213C363.314 103.331 363.647 103.386 363.98 103.375C364.306 103.387 364.631 103.33 364.934 103.211C365.238 103.091 365.513 102.91 365.744 102.68C365.974 102.449 366.155 102.174 366.275 101.87C366.394 101.567 366.45 101.242 366.439 100.916V90.5234L369.93 87.7468L381.433 102.265C381.675 102.596 381.983 102.873 382.339 103.078C382.694 103.283 383.088 103.412 383.496 103.455C383.822 103.466 384.147 103.41 384.45 103.29C384.754 103.17 385.029 102.99 385.26 102.759C385.49 102.529 385.671 102.253 385.791 101.95C385.911 101.646 385.967 101.321 385.955 100.995C386.018 100.706 386.015 100.406 385.946 100.117C385.878 99.8292 385.745 99.5599 385.559 99.3295H385.559ZM345.019 84.9701C341.211 83.6214 338.117 82.5108 338.117 79.7341C338.117 76.9574 341.608 76.2434 343.512 76.2434C344.781 76.1749 346.051 76.3723 347.24 76.8232C348.428 77.274 349.509 77.9683 350.414 78.8614C350.635 79.1012 350.906 79.2894 351.207 79.4128C351.509 79.5362 351.834 79.5917 352.159 79.5754C352.742 79.5557 353.296 79.3153 353.708 78.9029C354.121 78.4905 354.361 77.9369 354.381 77.3541C354.364 76.7805 354.17 76.2262 353.825 75.7674C352.579 74.2918 351.003 73.1286 349.226 72.371C347.449 71.6133 345.519 71.2821 343.591 71.4041C337.165 71.4041 333.199 74.7361 333.199 79.7341C333.199 86.0014 338.752 87.9055 343.591 89.6508C347.241 90.8408 350.493 91.8721 350.493 94.6488C350.493 97.4255 346.368 99.0121 343.909 99.0121C342.431 99.0871 340.954 98.8504 339.573 98.3174C338.193 97.7843 336.94 96.9669 335.896 95.9181C335.414 95.4596 334.807 95.1557 334.151 95.0455C333.568 95.0652 333.014 95.3056 332.602 95.718C332.19 96.1304 331.949 96.684 331.929 97.2668C331.946 97.8404 332.14 98.3947 332.485 98.8535C333.934 100.471 335.726 101.745 337.729 102.582C339.733 103.419 341.898 103.799 344.067 103.693C351.366 103.693 355.65 100.202 355.65 94.6488C355.65 89.0954 349.859 86.6361 345.019 84.9701ZM315.031 75.9261C320.267 75.9261 322.806 78.8614 323.044 84.5734H306.146C306.701 79.0201 309.795 75.9261 315.031 75.9261ZM328.042 84.5734C328.03 81.6195 327.177 78.7301 325.583 76.2434C324.378 74.6086 322.778 73.3068 320.932 72.4603C319.087 71.6138 317.056 71.2503 315.031 71.4041C306.225 71.4041 301.148 77.2748 301.148 87.5088C301.148 97.7428 306.146 103.772 315.745 103.772C319.621 103.908 323.4 102.544 326.297 99.9641C326.57 99.7631 326.792 99.5001 326.943 99.1966C327.095 98.8932 327.172 98.558 327.169 98.2188C327.15 97.636 326.909 97.0824 326.497 96.67C326.084 96.2576 325.531 96.0173 324.948 95.9975C324.444 96.0046 323.962 96.2031 323.599 96.5528C321.454 98.3238 318.765 99.304 315.983 99.3295C310.271 99.3295 306.622 95.5215 306.463 89.4128H325.107C328.042 89.0954 328.042 86.3188 328.042 84.5734ZM282.108 99.1708C276.237 99.1708 273.302 95.3628 273.302 87.5881C273.302 79.8134 276.237 76.0054 282.108 76.0054C283.846 76.1015 285.529 76.6498 286.99 77.596C288.451 78.5422 289.639 79.8535 290.438 81.4001V90.4441C290.359 95.8388 287.265 99.1708 282.029 99.1708H282.108ZM292.897 55.2994C292.571 55.2883 292.247 55.3444 291.943 55.464C291.64 55.5837 291.364 55.7645 291.134 55.9951C290.903 56.2257 290.722 56.5012 290.603 56.8046C290.483 57.108 290.427 57.4328 290.438 57.7587V74.7361C288.179 72.4991 285.128 71.2445 281.949 71.2454C272.958 71.2454 268.463 76.6136 268.463 87.3501C268.463 98.1395 273.302 103.613 282.346 103.613C291.39 103.613 295.674 98.6155 295.674 90.2855V57.9174C295.597 57.2086 295.265 56.552 294.739 56.0702C294.214 55.5885 293.531 55.3145 292.818 55.2994H292.897ZM250.771 71.2454C249.196 71.1765 247.626 71.4697 246.182 72.1023C244.738 72.735 243.458 73.6902 242.441 74.8947V57.9174C242.452 57.5706 242.392 57.2252 242.264 56.9026C242.137 56.58 241.944 56.287 241.699 56.0416C241.454 55.7963 241.16 55.6039 240.838 55.4762C240.515 55.3485 240.17 55.2883 239.823 55.2994C239.483 55.2863 239.144 55.3463 238.829 55.4755C238.514 55.6047 238.23 55.7999 237.997 56.0481C237.764 56.2962 237.587 56.5915 237.478 56.914C237.368 57.2365 237.329 57.5786 237.364 57.9174V100.916C237.353 101.25 237.408 101.582 237.526 101.894C237.644 102.206 237.822 102.492 238.051 102.735C238.279 102.978 238.553 103.174 238.857 103.311C239.162 103.448 239.49 103.524 239.823 103.534C240.17 103.545 240.515 103.485 240.838 103.357C241.16 103.23 241.454 103.037 241.699 102.792C241.944 102.547 242.137 102.254 242.264 101.931C242.392 101.608 242.452 101.263 242.441 100.916V84.7321C242.441 78.8614 245.218 75.9261 250.771 75.9261C256.324 75.9261 258.229 78.3854 258.229 84.2561V100.916C258.217 101.263 258.278 101.608 258.405 101.931C258.533 102.254 258.725 102.547 258.971 102.792C259.216 103.037 259.509 103.23 259.832 103.357C260.154 103.485 260.5 103.545 260.846 103.534C261.187 103.547 261.526 103.487 261.841 103.358C262.156 103.229 262.439 103.034 262.673 102.785C262.906 102.537 263.083 102.242 263.192 101.92C263.301 101.597 263.34 101.255 263.306 100.916V83.3834C263.147 75.3707 259.022 71.2454 250.692 71.2454H250.771ZM220.783 84.9701C216.975 83.6214 213.881 82.5108 213.881 79.7341C213.881 76.9574 217.372 76.2434 219.276 76.2434C220.545 76.1749 221.815 76.3723 223.003 76.8232C224.192 77.274 225.273 77.9683 226.178 78.8614C226.623 79.2975 227.221 79.5418 227.844 79.5418C228.467 79.5418 229.065 79.2975 229.51 78.8614C229.75 78.6407 229.938 78.3699 230.061 78.0683C230.185 77.7667 230.24 77.4416 230.224 77.1161C230.207 76.5425 230.013 75.9882 229.668 75.5294C228.421 74.0538 226.846 72.8906 225.069 72.1329C223.292 71.3753 221.362 71.0441 219.434 71.1661C213.008 71.1661 209.042 74.4981 209.042 79.4961C209.042 85.7634 214.595 87.6674 219.434 89.4128C223.084 90.6028 226.336 91.6341 226.336 94.4108C226.336 97.1875 222.211 98.7741 219.752 98.7741C218.274 98.8491 216.797 98.6124 215.416 98.0794C214.036 97.5463 212.783 96.7289 211.739 95.6801C211.257 95.2216 210.65 94.9177 209.994 94.8075C209.411 94.8272 208.857 95.0676 208.445 95.48C208.033 95.8924 207.792 96.4459 207.772 97.0288C207.789 97.6024 207.983 98.1567 208.328 98.6155C209.733 100.271 211.484 101.598 213.458 102.503C215.432 103.408 217.58 103.868 219.752 103.851C227.05 103.851 231.334 100.361 231.334 94.8075C231.334 89.2541 225.543 86.6361 220.704 84.9701H220.783ZM190.954 75.9261C196.19 75.9261 198.728 78.8614 198.966 84.5734H181.989C182.544 79.0201 185.638 75.9261 190.874 75.9261H190.954ZM203.726 84.5734C203.714 81.6195 202.861 78.7301 201.267 76.2434C200.063 74.6086 198.462 73.3068 196.617 72.4603C194.771 71.6138 192.74 71.2503 190.716 71.4041C181.91 71.4041 176.832 77.2748 176.832 87.5088C176.832 97.7428 181.83 103.851 191.35 103.851C195.226 103.987 199.005 102.623 201.902 100.043C202.175 99.8425 202.397 99.5794 202.548 99.2759C202.7 98.9725 202.778 98.6374 202.774 98.2981C202.755 97.7153 202.514 97.1617 202.102 96.7493C201.689 96.337 201.136 96.0966 200.553 96.0768C200.049 96.0839 199.567 96.2824 199.204 96.6321C197.059 98.4031 194.37 99.3834 191.588 99.4088C185.876 99.4088 182.227 95.6008 182.068 89.4921H200.791C203.726 89.0955 203.726 86.3188 203.726 84.5734ZM173.024 71.4041C171.354 71.3199 169.689 71.6529 168.179 72.3731C166.669 73.0933 165.363 74.178 164.377 75.5294V74.1807C164.377 73.4864 164.101 72.8205 163.61 72.3295C163.119 71.8386 162.453 71.5627 161.759 71.5627C161.065 71.5627 160.399 71.8386 159.908 72.3295C159.417 72.8205 159.141 73.4864 159.141 74.1807V100.916C159.13 101.263 159.19 101.608 159.318 101.931C159.445 102.254 159.638 102.547 159.883 102.792C160.129 103.037 160.422 103.23 160.744 103.357C161.067 103.485 161.412 103.545 161.759 103.534C162.109 103.558 162.46 103.506 162.788 103.383C163.116 103.259 163.414 103.067 163.662 102.819C163.91 102.571 164.102 102.273 164.225 101.945C164.349 101.617 164.4 101.266 164.377 100.916V86.1601C164.377 79.8928 167.709 76.2434 173.024 76.2434C173.35 76.2545 173.675 76.1984 173.978 76.0787C174.282 75.9591 174.557 75.7783 174.788 75.5477C175.019 75.3171 175.199 75.0415 175.319 74.7382C175.439 74.4348 175.495 74.11 175.484 73.7841C175.463 73.1457 175.195 72.5403 174.736 72.0961C174.277 71.6519 173.663 71.4037 173.024 71.4041ZM153.191 57.0447C144.544 57.0447 141.37 63.1534 141.37 68.8654V72.3561H139.704C139.35 72.2916 138.986 72.3058 138.637 72.3977C138.289 72.4895 137.965 72.6568 137.688 72.8876C137.412 73.1184 137.189 73.4072 137.037 73.7334C136.884 74.0597 136.805 74.4155 136.805 74.7757C136.805 75.136 136.884 75.4918 137.037 75.8181C137.189 76.1443 137.412 76.4331 137.688 76.6639C137.965 76.8947 138.289 77.062 138.637 77.1538C138.986 77.2456 139.35 77.2599 139.704 77.1954H141.45V101.154C141.439 101.501 141.499 101.846 141.626 102.169C141.754 102.492 141.946 102.785 142.192 103.03C142.437 103.275 142.73 103.468 143.053 103.595C143.375 103.723 143.721 103.783 144.068 103.772C144.417 103.796 144.768 103.744 145.096 103.621C145.425 103.497 145.723 103.305 145.971 103.057C146.219 102.809 146.411 102.511 146.534 102.183C146.657 101.855 146.709 101.504 146.686 101.154V76.9574H152.239C152.806 76.8544 153.318 76.5558 153.687 76.1136C154.056 75.6714 154.258 75.1137 154.258 74.5377C154.258 73.9618 154.056 73.4041 153.687 72.9619C153.318 72.5197 152.806 72.2211 152.239 72.1181H146.606V68.6274C146.606 65.5334 147.796 61.7254 153.35 61.7254C153.658 61.7469 153.968 61.7059 154.26 61.6049C154.553 61.5039 154.822 61.345 155.052 61.1376C155.281 60.9302 155.467 60.6787 155.597 60.398C155.727 60.1173 155.799 59.8133 155.809 59.504C155.768 58.8376 155.475 58.2117 154.988 57.7546C154.502 57.2974 153.859 57.0435 153.191 57.0447Z" fill="#4D4D4D"/>
<path d="M66.6317 26.7674H106.301C108.055 26.7514 109.794 27.085 111.418 27.7489C113.042 28.4128 114.517 29.3935 115.757 30.6339C116.997 31.8743 117.978 33.3494 118.642 34.973C119.306 36.5967 119.64 38.3363 119.624 40.0904V79.7594C119.624 86.6711 118.262 93.5151 115.617 99.9007C112.972 106.286 109.095 112.088 104.208 116.976C99.3208 121.863 93.5187 125.74 87.1331 128.385C80.7475 131.03 73.9035 132.391 66.9917 132.391H66.6917C59.7749 132.399 52.9244 131.044 46.5319 128.402C40.1394 125.761 34.3302 121.885 29.4365 116.997C24.5428 112.109 20.6606 106.304 18.0119 99.9146C15.3631 93.5251 13.9998 86.6761 13.9998 79.7594C13.9998 50.5928 37.5251 27.0675 66.6317 26.7674Z" fill="#25C16F"/>
<path d="M66.6318 50.2932C60.2174 50.2932 54.0657 52.8413 49.5301 57.377C44.9944 61.9126 42.4463 68.0643 42.4463 74.4787V90.9224C42.4922 93.0408 43.3542 95.0597 44.8525 96.558C46.3508 98.0563 48.3697 98.9183 50.4881 98.9642H57.3297V80.0599H48.0876V74.7787C48.3587 69.9882 50.4527 65.4831 53.94 62.1875C57.4274 58.892 62.0436 57.0558 66.8418 57.0558C71.64 57.0558 76.2562 58.892 79.7436 62.1875C83.2309 65.4831 85.3249 69.9882 85.596 74.7787V80.0599H76.2339V98.9642H82.4153V99.2643C82.3844 101.228 81.5904 103.103 80.2015 104.492C78.8126 105.881 76.9377 106.675 74.9736 106.706H67.592C66.9918 106.706 66.3317 107.006 66.3317 107.606C66.3464 107.936 66.4838 108.248 66.7171 108.481C66.9503 108.714 67.2624 108.852 67.592 108.866H75.0337C77.5755 108.851 80.0087 107.834 81.806 106.037C83.6034 104.239 84.6201 101.806 84.6358 99.2643V98.6641C86.4028 98.2663 87.9801 97.275 89.1049 95.8553C90.2297 94.4357 90.834 92.6735 90.8172 90.8624V74.7787C91.1173 61.1557 80.3148 50.2932 66.6318 50.2932Z" fill="white"/>
</svg>
