<svg width="400" height="160" viewBox="0 0 400 160" fill="none" xmlns="http://www.w3.org/2000/svg">
<path d="M67.479 43.3979H8.3483C6.50632 43.3979 5.01343 44.8929 5.01343 46.7349V57.8297H70.8157V46.7349C70.8158 44.8928 69.3209 43.3979 67.479 43.3979ZM21.9433 50.0739C21.0616 50.0739 20.3461 49.3584 20.3461 48.4768C20.3461 47.5951 21.0616 46.8796 21.9433 46.8796C22.8249 46.8796 23.5404 47.5951 23.5404 48.4768C23.5404 49.3584 22.8248 50.0739 21.9433 50.0739ZM54.3035 50.0739C53.4218 50.0739 52.7064 49.3584 52.7064 48.4768C52.7064 47.5951 53.4218 46.8796 54.3035 46.8796C55.1852 46.8796 55.9007 47.5951 55.9007 48.4768C55.9007 49.3584 55.185 50.0739 54.3035 50.0739Z" fill="#E6E6E6"/>
<path d="M75.7562 58.6044L70.7092 84.9232L72.7705 112.292C72.9218 114.3 71.333 116.014 69.3164 116.014H6.51065C4.49613 116.014 2.90534 114.3 3.05656 112.292L5.1201 84.9232L0.0731385 58.6044C-0.401685 56.1299 1.49568 53.832 4.01701 53.832H71.8104C74.3338 53.832 76.231 56.1299 75.7562 58.6044Z" fill="#3A5BBC"/>
<path d="M69.3167 116.014H6.51093C4.49641 116.014 2.90562 114.3 3.05683 112.292L5.12037 84.9229H41.3223H70.7097L72.771 112.292C72.9222 114.3 71.3335 116.014 69.3167 116.014Z" fill="#518EF8"/>
<path d="M36.6368 78.0559C36.6368 72.9186 32.3379 68.7393 27.054 68.7393C21.7701 68.7393 17.4712 72.9186 17.4712 78.0559H20.6655C20.6655 74.68 23.5315 71.9336 27.0542 71.9336C30.5768 71.9336 33.4428 74.68 33.4428 78.0559C33.4428 81.4318 30.5768 84.1783 27.0542 84.1783H24.0728V87.3726H27.0542C30.5768 87.3726 33.4428 90.1191 33.4428 93.495C33.4428 96.8708 30.5768 99.6173 27.0542 99.6173C23.5315 99.6173 20.6655 96.8708 20.6655 93.495H17.4712C17.4712 98.6323 21.7701 102.812 27.054 102.812C32.3379 102.812 36.6368 98.6323 36.6368 93.495C36.6368 90.2866 34.96 87.452 32.4139 85.7754C34.9601 84.099 36.6368 81.2643 36.6368 78.0559Z" fill="white"/>
<path d="M42.8451 74.1826L44.4837 76.9246L50.7983 73.1514V101.214H53.9925V67.5215L42.8451 74.1826Z" fill="white"/>
<path d="M111.348 93.6132C108.667 93.6132 106.199 92.9629 103.943 91.6625C101.687 90.362 99.8959 88.5705 98.5689 86.288C97.2419 84.0056 96.5784 81.4843 96.5784 78.7241C96.5784 75.9639 97.2419 73.4425 98.5689 71.1601C99.8959 68.8776 101.687 67.0861 103.943 65.7857C106.199 64.4852 108.667 63.835 111.348 63.835C113.445 63.835 115.409 64.2065 117.24 64.9497C119.098 65.6928 120.624 66.7411 121.818 68.0947L119.39 70.5231C118.487 69.4084 117.333 68.5591 115.926 67.9752C114.52 67.3648 113.007 67.0596 111.388 67.0596C109.371 67.0596 107.486 67.5506 105.735 68.5326C104.01 69.488 102.616 70.8549 101.555 72.6331C100.52 74.3847 100.002 76.4151 100.002 78.7241C100.002 81.0331 100.52 83.0767 101.555 84.8549C102.616 86.6065 104.023 87.9734 105.775 88.9553C107.526 89.9108 109.397 90.3885 111.388 90.3885C113.299 90.3885 114.891 90.0966 116.165 89.5127C117.466 88.9023 118.58 88.1061 119.509 87.1241C120.199 86.3809 120.757 85.4918 121.181 84.4568C121.606 83.3952 121.871 82.2274 121.977 80.9534H111.428V77.8084H125.122C125.255 78.5516 125.321 79.2416 125.321 79.8786C125.321 81.6302 125.043 83.3421 124.485 85.0141C123.928 86.6596 123.039 88.1061 121.818 89.3535C119.191 92.1933 115.701 93.6132 111.348 93.6132Z" fill="#7E7E7E"/>
<path d="M138.841 93.6132C136.85 93.6132 135.059 93.1354 133.466 92.18C131.874 91.2245 130.627 89.9241 129.724 88.2786C128.848 86.6331 128.411 84.8151 128.411 82.8245C128.411 80.834 128.848 79.016 129.724 77.3705C130.627 75.725 131.874 74.4245 133.466 73.4691C135.059 72.5136 136.85 72.0359 138.841 72.0359C140.831 72.0359 142.623 72.5136 144.215 73.4691C145.808 74.4245 147.042 75.725 147.918 77.3705C148.82 79.016 149.271 80.834 149.271 82.8245C149.271 84.8151 148.82 86.6331 147.918 88.2786C147.042 89.9241 145.808 91.2245 144.215 92.18C142.623 93.1354 140.831 93.6132 138.841 93.6132ZM138.841 90.5478C140.088 90.5478 141.243 90.2425 142.304 89.6321C143.393 88.9952 144.255 88.0928 144.892 86.925C145.556 85.7572 145.887 84.3904 145.887 82.8245C145.887 81.2587 145.556 79.8918 144.892 78.7241C144.255 77.5563 143.393 76.6672 142.304 76.0568C141.243 75.4198 140.088 75.1013 138.841 75.1013C137.593 75.1013 136.426 75.4198 135.338 76.0568C134.249 76.6672 133.374 77.5563 132.71 78.7241C132.073 79.8918 131.755 81.2587 131.755 82.8245C131.755 84.3904 132.073 85.7572 132.71 86.925C133.374 88.0928 134.249 88.9952 135.338 89.6321C136.426 90.2425 137.593 90.5478 138.841 90.5478Z" fill="#7E7E7E"/>
<path d="M162.556 93.6132C160.566 93.6132 158.774 93.1354 157.182 92.18C155.589 91.2245 154.342 89.9241 153.439 88.2786C152.564 86.6331 152.126 84.8151 152.126 82.8245C152.126 80.834 152.564 79.016 153.439 77.3705C154.342 75.725 155.589 74.4245 157.182 73.4691C158.774 72.5136 160.566 72.0359 162.556 72.0359C164.547 72.0359 166.338 72.5136 167.93 73.4691C169.523 74.4245 170.757 75.725 171.633 77.3705C172.535 79.016 172.986 80.834 172.986 82.8245C172.986 84.8151 172.535 86.6331 171.633 88.2786C170.757 89.9241 169.523 91.2245 167.93 92.18C166.338 93.1354 164.547 93.6132 162.556 93.6132ZM162.556 90.5478C163.803 90.5478 164.958 90.2425 166.02 89.6321C167.108 88.9952 167.97 88.0928 168.607 86.925C169.271 85.7572 169.603 84.3904 169.603 82.8245C169.603 81.2587 169.271 79.8918 168.607 78.7241C167.97 77.5563 167.108 76.6672 166.02 76.0568C164.958 75.4198 163.803 75.1013 162.556 75.1013C161.309 75.1013 160.141 75.4198 159.053 76.0568C157.965 76.6672 157.089 77.5563 156.425 78.7241C155.788 79.8918 155.47 81.2587 155.47 82.8245C155.47 84.3904 155.788 85.7572 156.425 86.925C157.089 88.0928 157.965 88.9952 159.053 89.6321C160.141 90.2425 161.309 90.5478 162.556 90.5478Z" fill="#7E7E7E"/>
<path d="M185.833 102.212C183.445 102.212 181.467 101.655 179.902 100.54C178.362 99.4255 177.327 98.0852 176.796 96.5193L179.862 95.2056C180.313 96.3734 181.056 97.3155 182.091 98.0321C183.153 98.7753 184.4 99.1468 185.833 99.1468C187.93 99.1468 189.549 98.5364 190.69 97.3155C191.858 96.0947 192.442 94.3696 192.442 92.1402V89.871H192.283C191.619 90.9061 190.677 91.7553 189.456 92.4189C188.262 93.0558 186.895 93.3743 185.356 93.3743C183.604 93.3743 181.998 92.9231 180.539 92.0208C179.105 91.1184 177.964 89.8577 177.115 88.2388C176.266 86.6198 175.841 84.7752 175.841 82.7051C175.841 80.6615 176.266 78.8302 177.115 77.2113C177.964 75.5658 179.105 74.2918 180.539 73.3895C181.998 72.4871 183.604 72.0359 185.356 72.0359C186.895 72.0359 188.262 72.3677 189.456 73.0312C190.677 73.6681 191.619 74.5174 192.283 75.579H192.442V72.6729H195.667V92.18C195.667 95.4444 194.764 97.926 192.959 99.6245C191.155 101.35 188.779 102.212 185.833 102.212ZM185.833 90.3089C187.054 90.3089 188.156 90.0037 189.138 89.3933C190.146 88.7828 190.942 87.907 191.526 86.7658C192.137 85.6245 192.442 84.271 192.442 82.7051C192.442 81.1127 192.137 79.7459 191.526 78.6046C190.942 77.4634 190.146 76.6008 189.138 76.017C188.156 75.4065 187.054 75.1013 185.833 75.1013C184.612 75.1013 183.498 75.4065 182.489 76.017C181.481 76.6274 180.671 77.5032 180.061 78.6444C179.477 79.7857 179.185 81.1392 179.185 82.7051C179.185 84.271 179.477 85.6378 180.061 86.8056C180.671 87.9468 181.481 88.8226 182.489 89.4331C183.498 90.017 184.612 90.3089 185.833 90.3089Z" fill="#7E7E7E"/>
<path d="M200.67 64.4719H204.054V92.9762H200.67V64.4719Z" fill="#7E7E7E"/>
<path d="M217.91 93.6132C215.973 93.6132 214.234 93.1487 212.695 92.2198C211.155 91.2909 209.948 90.017 209.072 88.398C208.223 86.7525 207.798 84.9079 207.798 82.8643C207.798 80.9004 208.196 79.0956 208.992 77.4501C209.815 75.8046 210.97 74.4909 212.456 73.5089C213.942 72.5269 215.667 72.0359 217.631 72.0359C219.622 72.0359 221.347 72.4871 222.807 73.3895C224.266 74.2653 225.381 75.4861 226.151 77.052C226.947 78.6179 227.345 80.4094 227.345 82.4264C227.345 82.8245 227.305 83.1696 227.226 83.4615H211.182C211.262 85.0008 211.633 86.3013 212.297 87.3629C212.96 88.4245 213.796 89.2207 214.805 89.7516C215.84 90.2824 216.915 90.5478 218.029 90.5478C220.63 90.5478 222.634 89.3269 224.041 86.8852L226.907 88.2786C226.031 89.9241 224.837 91.2245 223.324 92.18C221.838 93.1354 220.033 93.6132 217.91 93.6132ZM223.762 80.6748C223.709 79.8255 223.47 78.9762 223.046 78.1269C222.621 77.2776 221.944 76.561 221.015 75.9771C220.113 75.3933 218.972 75.1013 217.591 75.1013C215.999 75.1013 214.646 75.6188 213.531 76.6539C212.443 77.6625 211.726 79.0027 211.381 80.6748H223.762Z" fill="#7E7E7E"/>
<path d="M253.834 93.6132C251.073 93.6132 248.565 92.9629 246.309 91.6625C244.053 90.362 242.275 88.5838 240.975 86.3279C239.701 84.0454 239.064 81.5108 239.064 78.7241C239.064 75.9373 239.701 73.416 240.975 71.1601C242.275 68.8776 244.053 67.0861 246.309 65.7857C248.565 64.4852 251.073 63.835 253.834 63.835C255.957 63.835 257.894 64.2463 259.646 65.0691C261.424 65.8653 262.963 67.0065 264.264 68.4928L261.835 70.8416C260.747 69.5411 259.553 68.5857 258.253 67.9752C256.979 67.3648 255.506 67.0596 253.834 67.0596C251.763 67.0596 249.866 67.5506 248.141 68.5326C246.416 69.488 245.035 70.8549 244 72.6331C242.992 74.3847 242.488 76.4151 242.488 78.7241C242.488 81.0331 242.992 83.0767 244 84.8549C245.035 86.6065 246.416 87.9734 248.141 88.9553C249.866 89.9108 251.763 90.3885 253.834 90.3885C257.284 90.3885 260.217 88.9686 262.632 86.1288L265.1 88.5174C263.773 90.0833 262.141 91.3307 260.203 92.2596C258.266 93.162 256.143 93.6132 253.834 93.6132Z" fill="#7E7E7E"/>
<path d="M275 93.6132C273.514 93.6132 272.187 93.3212 271.019 92.7373C269.851 92.1535 268.949 91.3572 268.312 90.3487C267.675 89.3136 267.356 88.1459 267.356 86.8454C267.356 84.6956 268.166 83.0236 269.785 81.8293C271.404 80.6084 273.447 79.998 275.916 79.998C277.136 79.998 278.264 80.1307 279.3 80.3961C280.361 80.6615 281.171 80.9667 281.728 81.3117V80.0776C281.728 78.5648 281.197 77.3572 280.136 76.4549C279.074 75.526 277.734 75.0615 276.115 75.0615C274.973 75.0615 273.925 75.3136 272.97 75.8179C272.014 76.2956 271.258 76.9724 270.7 77.8482L268.153 75.9373C268.949 74.7165 270.037 73.761 271.417 73.071C272.824 72.3809 274.376 72.0359 276.075 72.0359C278.835 72.0359 280.998 72.7658 282.564 74.2255C284.156 75.6587 284.953 77.6226 284.953 80.1174V92.9762H281.728V90.07H281.569C280.985 91.052 280.109 91.8881 278.941 92.5781C277.773 93.2681 276.46 93.6132 275 93.6132ZM275.318 90.6274C276.46 90.6274 277.521 90.3354 278.503 89.7516C279.485 89.1677 280.268 88.3847 280.852 87.4027C281.436 86.4207 281.728 85.3459 281.728 84.1781C281.091 83.7534 280.308 83.4084 279.379 83.143C278.45 82.8776 277.468 82.7449 276.433 82.7449C274.575 82.7449 273.169 83.1298 272.213 83.8994C271.284 84.6691 270.82 85.6644 270.82 86.8852C270.82 87.9999 271.245 88.9023 272.094 89.5923C272.943 90.2824 274.018 90.6274 275.318 90.6274Z" fill="#7E7E7E"/>
<path d="M289.66 64.4719H293.044V92.9762H289.66V64.4719Z" fill="#7E7E7E"/>
<path d="M306.9 93.6132C304.963 93.6132 303.224 93.1487 301.685 92.2198C300.146 91.2909 298.938 90.017 298.062 88.398C297.213 86.7525 296.788 84.9079 296.788 82.8643C296.788 80.9004 297.187 79.0956 297.983 77.4501C298.805 75.8046 299.96 74.4909 301.446 73.5089C302.932 72.5269 304.658 72.0359 306.622 72.0359C308.612 72.0359 310.337 72.4871 311.797 73.3895C313.257 74.2653 314.371 75.4861 315.141 77.052C315.937 78.6179 316.335 80.4094 316.335 82.4264C316.335 82.8245 316.296 83.1696 316.216 83.4615H300.172C300.252 85.0008 300.623 86.3013 301.287 87.3629C301.951 88.4245 302.787 89.2207 303.795 89.7516C304.83 90.2824 305.905 90.5478 307.02 90.5478C309.621 90.5478 311.624 89.3269 313.031 86.8852L315.897 88.2786C315.022 89.9241 313.827 91.2245 312.314 92.18C310.828 93.1354 309.023 93.6132 306.9 93.6132ZM312.752 80.6748C312.699 79.8255 312.46 78.9762 312.036 78.1269C311.611 77.2776 310.934 76.561 310.005 75.9771C309.103 75.3933 307.962 75.1013 306.582 75.1013C304.989 75.1013 303.636 75.6188 302.521 76.6539C301.433 77.6625 300.716 79.0027 300.371 80.6748H312.752Z" fill="#7E7E7E"/>
<path d="M320.296 72.6729H323.52V75.6587H323.679C324.237 74.6501 325.126 73.8008 326.347 73.1108C327.568 72.3942 328.868 72.0359 330.248 72.0359C332.69 72.0359 334.548 72.7525 335.822 74.1857C337.122 75.5923 337.772 77.5165 337.772 79.9582V92.9762H334.388V80.4757C334.388 78.5914 333.937 77.2245 333.035 76.3752C332.133 75.526 330.898 75.1013 329.333 75.1013C328.244 75.1013 327.262 75.4065 326.387 76.017C325.537 76.6274 324.874 77.4369 324.396 78.4454C323.918 79.4274 323.679 80.4625 323.679 81.5506V92.9762H320.296V72.6729Z" fill="#7E7E7E"/>
<path d="M351.21 93.6132C349.405 93.6132 347.76 93.1487 346.274 92.2198C344.814 91.2909 343.659 90.017 342.81 88.398C341.961 86.7525 341.536 84.8947 341.536 82.8245C341.536 80.7809 341.961 78.9364 342.81 77.2909C343.659 75.6454 344.814 74.3582 346.274 73.4293C347.76 72.5004 349.405 72.0359 351.21 72.0359C352.776 72.0359 354.169 72.3942 355.39 73.1108C356.611 73.8008 357.54 74.6634 358.177 75.6985H358.336L358.177 72.8719V64.4719H361.561V92.9762H358.336V89.9904H358.177C357.54 90.9989 356.611 91.8615 355.39 92.5781C354.169 93.2681 352.776 93.6132 351.21 93.6132ZM351.608 90.5478C352.803 90.5478 353.904 90.2293 354.913 89.5923C355.948 88.9553 356.77 88.053 357.381 86.8852C358.018 85.7174 358.336 84.3639 358.336 82.8245C358.336 81.2852 358.018 79.9316 357.381 78.7639C356.77 77.5961 355.948 76.6937 354.913 76.0568C353.904 75.4198 352.803 75.1013 351.608 75.1013C350.441 75.1013 349.339 75.4198 348.304 76.0568C347.269 76.6937 346.433 77.6094 345.796 78.8037C345.186 79.9715 344.88 81.3117 344.88 82.8245C344.88 84.3373 345.186 85.6909 345.796 86.8852C346.433 88.053 347.269 88.9553 348.304 89.5923C349.339 90.2293 350.441 90.5478 351.608 90.5478Z" fill="#7E7E7E"/>
<path d="M372.854 93.6132C371.368 93.6132 370.041 93.3212 368.873 92.7373C367.705 92.1535 366.803 91.3572 366.166 90.3487C365.529 89.3136 365.211 88.1459 365.211 86.8454C365.211 84.6956 366.02 83.0236 367.639 81.8293C369.258 80.6084 371.302 79.998 373.77 79.998C374.991 79.998 376.119 80.1307 377.154 80.3961C378.215 80.6615 379.025 80.9667 379.582 81.3117V80.0776C379.582 78.5648 379.051 77.3572 377.99 76.4549C376.928 75.526 375.588 75.0615 373.969 75.0615C372.828 75.0615 371.779 75.3136 370.824 75.8179C369.869 76.2956 369.112 76.9724 368.555 77.8482L366.007 75.9373C366.803 74.7165 367.891 73.761 369.271 73.071C370.678 72.3809 372.231 72.0359 373.929 72.0359C376.689 72.0359 378.852 72.7658 380.418 74.2255C382.011 75.6587 382.807 77.6226 382.807 80.1174V92.9762H379.582V90.07H379.423C378.839 91.052 377.963 91.8881 376.796 92.5781C375.628 93.2681 374.314 93.6132 372.854 93.6132ZM373.173 90.6274C374.314 90.6274 375.376 90.3354 376.358 89.7516C377.34 89.1677 378.123 88.3847 378.706 87.4027C379.29 86.4207 379.582 85.3459 379.582 84.1781C378.945 83.7534 378.162 83.4084 377.233 83.143C376.305 82.8776 375.323 82.7449 374.287 82.7449C372.43 82.7449 371.023 83.1298 370.068 83.8994C369.139 84.6691 368.674 85.6644 368.674 86.8852C368.674 87.9999 369.099 88.9023 369.948 89.5923C370.797 90.2824 371.872 90.6274 373.173 90.6274Z" fill="#7E7E7E"/>
<path d="M387.514 72.6729H390.739V75.9373H390.898C391.297 74.8226 392.066 73.907 393.207 73.1904C394.349 72.4473 395.543 72.0757 396.79 72.0757C397.719 72.0757 398.515 72.2084 399.179 72.4738V76.1364C398.33 75.7117 397.374 75.4994 396.313 75.4994C395.331 75.4994 394.428 75.7781 393.605 76.3354C392.783 76.8928 392.119 77.6492 391.615 78.6046C391.137 79.5335 390.898 80.5421 390.898 81.6302V92.9762H387.514V72.6729Z" fill="#7E7E7E"/>
</svg>
