<svg width="400" height="160" viewBox="0 0 400 160" fill="none" xmlns="http://www.w3.org/2000/svg">
<path d="M265.905 54H259L259.032 106H287V99.568H265.937L265.905 54Z" fill="#8C929D"/>
<path d="M313.902 96.7644C312.791 97.9194 311.456 98.8366 309.979 99.4602C308.502 100.084 306.913 100.401 305.31 100.392C300.027 100.392 297.895 97.7828 297.895 94.3777C297.895 89.2542 301.46 86.8038 309.033 86.8038C310.674 86.8102 312.312 86.9378 313.934 87.1856V96.7644H313.902ZM306.71 65.4186C301.317 65.4019 296.09 67.2832 291.944 70.733L294.395 74.9974C297.227 73.3425 300.696 71.6877 305.692 71.6877C311.388 71.6877 313.902 74.6155 313.902 79.5163V82.0303C312.313 81.781 310.706 81.6533 309.097 81.6484C296.941 81.6484 290.767 85.9127 290.767 94.8232C290.767 102.811 295.668 106.821 303.083 106.821C308.079 106.821 312.884 104.529 314.539 100.806L315.812 105.866H320.713V79.389C320.681 71.0195 317.053 65.4186 306.71 65.4186Z" fill="#8C929D"/>
<path d="M343.097 100.628C340.488 100.628 338.196 100.31 336.478 99.5142V75.615C338.833 73.6419 341.76 72.2099 345.484 72.2099C352.198 72.2099 354.776 76.9515 354.776 84.6209C354.776 95.5045 350.607 100.628 343.097 100.628ZM346.025 65.4315C344.224 65.4204 342.442 65.792 340.796 66.5217C339.151 67.2514 337.678 68.3225 336.478 69.664V62.9748L336.446 54.1279H329.668L329.699 104.568C333.105 106 337.751 106.764 342.811 106.764C355.763 106.764 362 98.4895 362 84.2009C361.968 72.9036 356.208 65.4252 346.025 65.4252" fill="#8C929D"/>
<path d="M190.432 59.7353C196.574 59.7353 200.551 61.772 203.129 63.8405L206.121 58.6533C202.079 55.0891 196.605 53.1797 190.75 53.1797C175.984 53.1797 165.641 62.1857 165.641 80.3567C165.641 99.387 176.811 106.802 189.572 106.802C194.852 106.814 200.084 105.798 204.975 103.81L204.816 83.4754V77.0789H185.868V83.4754H197.961L198.12 98.9096C196.529 99.7052 193.792 100.342 190.069 100.342C179.822 100.342 172.948 93.8816 172.948 80.2931C172.916 66.45 180.013 59.7353 190.419 59.7353" fill="#8C929D"/>
<path d="M239.29 54.1187H232.511L232.543 62.8064V92.8156C232.543 101.185 236.171 106.786 246.513 106.786C247.912 106.79 249.308 106.662 250.682 106.404V100.326C249.64 100.484 248.586 100.558 247.532 100.549C241.835 100.549 239.321 97.6209 239.321 92.7202V72.0351H250.682V66.3706H239.331L239.299 54.1187H239.29Z" fill="#8C929D"/>
<path d="M216 106H222V66H216V106Z" fill="#8C929D"/>
<path d="M216 61H222V54H216V61Z" fill="#8C929D"/>
<path d="M145.453 87.0997L139.435 68.604L127.527 31.9182C127.39 31.5089 127.127 31.1531 126.777 30.901C126.427 30.6488 126.006 30.5132 125.574 30.5132C125.143 30.5132 124.722 30.6488 124.372 30.901C124.021 31.1531 123.759 31.5089 123.622 31.9182L111.72 68.5817H72.1512L60.243 31.9182C60.1059 31.5089 59.8436 31.1531 59.4933 30.901C59.143 30.6488 58.7222 30.5132 58.2906 30.5132C57.859 30.5132 57.4383 30.6488 57.0879 30.901C56.7376 31.1531 56.4753 31.5089 56.3383 31.9182L44.4523 68.5817L38.4313 87.0997C38.1645 87.9219 38.1642 88.8073 38.4305 89.6297C38.6968 90.4521 39.2161 91.1693 39.9143 91.679L91.9325 129.485L143.951 91.679C144.652 91.1715 145.175 90.4554 145.444 89.633C145.714 88.8105 145.717 87.9238 145.453 87.0997Z" fill="#FC6D26"/>
<path d="M91.9451 129.45L111.72 68.5786H72.1638L91.9451 129.45Z" fill="#E24329"/>
<path d="M91.9323 129.453L72.151 68.5786H44.4648L91.9323 129.453Z" fill="#FC6D26"/>
<path d="M44.4425 68.6011L38.4216 87.0967C38.1547 87.9189 38.1544 88.8044 38.4208 89.6268C38.6871 90.4492 39.2064 91.1664 39.9045 91.6761L91.9227 129.485L44.4425 68.6011Z" fill="#FCA326"/>
<path d="M44.4489 68.6008H72.1701L60.2395 31.9372C60.1025 31.528 59.8402 31.1721 59.4899 30.92C59.1395 30.6679 58.7188 30.5322 58.2872 30.5322C57.8556 30.5322 57.4348 30.6679 57.0845 30.92C56.7342 31.1721 56.4719 31.528 56.3348 31.9372L44.4489 68.6008Z" fill="#E24329"/>
<path d="M91.945 129.453L111.72 68.5786H139.438L91.945 129.453Z" fill="#FC6D26"/>
<path d="M139.428 68.6011L145.452 87.0967C145.719 87.9189 145.72 88.8044 145.453 89.6268C145.187 90.4491 144.668 91.1664 143.969 91.6761L91.9481 129.45L139.428 68.6011Z" fill="#FCA326"/>
<path d="M139.445 68.6008H111.72L123.628 31.9372C123.766 31.528 124.028 31.1721 124.378 30.92C124.728 30.6679 125.149 30.5322 125.581 30.5322C126.012 30.5322 126.433 30.6679 126.783 30.92C127.134 31.1721 127.396 31.528 127.533 31.9372L139.441 68.6008H139.445Z" fill="#E24329"/>
</svg>
