<svg width="400" height="160" viewBox="0 0 400 160" fill="none" xmlns="http://www.w3.org/2000/svg">
<path d="M117.903 44.0342C109.784 44.0342 104.053 49.605 104.053 57.9635V87.0931C104.053 95.4539 109.784 101.022 117.903 101.022C126.102 101.022 131.912 95.4539 131.912 87.0931V57.9635C131.912 49.605 126.102 44.0342 117.903 44.0342ZM126.227 87.412C126.227 92.5091 122.757 96.0916 117.903 96.0916C113.127 96.0916 109.738 92.5136 109.738 87.412V57.7244C109.738 52.5521 113.127 48.9673 117.903 48.9673C122.757 48.9673 126.227 52.5521 126.227 57.7244V87.412ZM152.235 59.4758C148.971 59.4758 146.133 60.8287 144.302 63.3749C144.063 63.6118 143.851 63.4524 143.851 63.2155V60.9084C143.851 60.4324 143.639 59.9199 143.161 59.9199H139.102C138.624 59.9199 138.164 60.4301 138.164 60.9084V115.036C138.164 115.51 138.622 115.642 139.102 115.642H143.161C143.639 115.642 143.851 115.51 143.851 115.036V97.3602C143.851 97.1256 144.063 96.9662 144.302 97.2076C146.133 99.7516 148.946 101.025 152.21 101.025C158.657 101.025 162.727 96.0916 162.966 89.0882C163.046 86.1434 163.053 83.44 163.053 80.4951C163.053 77.5503 163.055 74.6032 162.978 71.6583C162.659 64.5707 158.603 59.4758 152.235 59.4758ZM157.452 88.1271C157.532 92.9077 154.592 96.0848 150.533 96.0848C146.712 96.0848 143.851 92.9054 143.851 88.1271V72.3689C143.851 67.5929 146.734 64.4089 150.554 64.4089C154.694 64.4089 157.496 67.6704 157.496 72.3689V80.2469C157.498 82.3217 157.53 85.3485 157.452 88.1271ZM180.198 59.4758C172.637 59.4758 167.731 64.4887 167.731 71.6515V88.8445C167.731 96.1668 172.639 101.025 180.2 101.025C187.206 101.025 191.608 97.0482 192.485 90.8351C192.565 90.3568 192.258 89.9605 191.782 89.9605L187.807 89.7965C187.331 89.7965 187.097 90.0402 186.935 90.514C186.22 93.7799 183.717 96.0848 180.216 96.0848C176.237 96.0848 173.418 92.9851 173.418 88.528V82.7134C173.418 82.5586 173.646 82.6588 173.807 82.6588H191.955C192.431 82.6588 192.75 82.078 192.75 81.5997V71.6492C192.747 64.4887 187.919 59.4758 180.198 59.4758ZM187.06 77.384C187.06 77.5434 187.017 77.5457 186.858 77.5457H173.805C173.643 77.5457 173.416 77.5434 173.416 77.384V72.0523C173.416 67.5155 176.178 64.4112 180.157 64.4112C184.298 64.4112 187.06 67.5155 187.06 72.0523V77.384ZM212.186 59.5533C209.004 59.5533 205.996 60.749 203.93 63.6141C203.773 63.8532 203.552 63.7735 203.552 63.5344V60.9061C203.552 60.4301 203.253 59.9199 202.777 59.9199H198.719C198.241 59.9199 197.865 60.4301 197.865 60.9061V99.5899C197.865 100.07 198.241 100.289 198.719 100.289H202.777C203.253 100.289 203.552 100.07 203.552 99.5899V73.0863C203.552 67.7524 206.107 64.4909 210.33 64.4909C214.388 64.4909 216.629 67.5155 216.629 72.69V99.5922C216.629 100.073 217.11 100.294 217.586 100.294H221.647C222.123 100.294 222.314 100.073 222.314 99.5922V72.2095C222.307 64.2495 218.716 59.5533 212.186 59.5533ZM243.213 44.5694H230.078C229.598 44.5694 229.131 44.9065 229.131 45.387V99.5899C229.131 100.07 229.598 100.289 230.078 100.289H234.134C234.615 100.289 234.815 100.07 234.815 99.5899V75.5529C234.815 75.3935 235.091 75.2705 235.25 75.2705H243.45C251.088 75.2705 256.186 69.194 256.186 60.0384C256.186 50.8075 251.009 44.5694 243.213 44.5694ZM242.495 70.7245H235.253C235.093 70.7245 234.818 70.4603 234.818 70.2986V49.8442C234.818 49.6847 235.093 49.687 235.253 49.687H242.495C247.269 49.687 250.537 53.7979 250.537 60.2456C250.537 66.6933 247.267 70.7245 242.495 70.7245ZM277.517 60.5895C276.72 60.1135 275.683 59.7127 274.096 59.7127C270.274 59.7127 267.86 62.1792 266.507 65.7618C266.352 66.0009 266.088 66.0009 266.088 65.6821V60.9084C266.088 60.4324 265.817 59.9199 265.337 59.9199H261.28C260.8 59.9199 260.403 60.4301 260.403 60.9084V99.5899C260.403 100.07 260.8 100.289 261.28 100.289H265.337C265.817 100.289 266.088 100.07 266.088 99.5899V75.7146C266.088 70.3009 268.819 66.0829 272.636 65.8438C273.909 65.6046 275.119 65.7641 275.991 66.1626C276.551 66.3198 276.952 66.2424 277.032 65.6844L277.913 61.6258C277.993 61.225 277.915 60.8287 277.517 60.5895ZM304.749 71.6515C304.749 64.4887 299.559 59.4758 291.915 59.4758C284.277 59.4758 279.161 64.4887 279.161 71.6515V88.8445C279.161 96.1668 284.277 101.025 291.915 101.025C299.556 101.025 304.749 96.1668 304.749 88.8445V71.6515ZM299.065 88.5257C299.065 92.9828 295.981 96.0848 291.915 96.0848C287.859 96.0848 284.85 92.9828 284.85 88.5257V72.0501C284.85 67.5155 287.857 64.4112 291.915 64.4112C295.976 64.4112 299.065 67.5155 299.065 72.0501V88.5257ZM314.925 59.9222H310.867C310.391 59.9222 309.869 60.4324 309.869 60.9084V103.892C309.869 108.748 308.17 111.85 303.633 112.009C303.157 112.009 303.05 112.326 303.05 112.806V116.15C303.05 116.626 303.175 116.945 303.651 116.945C313.602 116.945 315.556 111.852 315.556 103.897V60.9061C315.554 60.4324 315.401 59.9222 314.925 59.9222ZM312.86 44.5922C310.787 44.5922 308.956 46.2639 308.956 48.7304C308.956 51.1196 310.548 52.871 312.86 52.871C315.244 52.871 316.834 51.1196 316.834 48.7304C316.834 46.2616 315.007 44.5922 312.86 44.5922ZM333.706 59.4758C326.147 59.4758 321.236 64.4887 321.236 71.6515V88.8445C321.236 96.1668 326.156 101.025 333.717 101.025C340.723 101.025 345.137 97.0482 346.007 90.8351C346.086 90.3568 345.783 89.9605 345.312 89.9605L341.34 89.7965C340.859 89.7965 340.629 90.0402 340.468 90.514C339.755 93.7799 337.231 96.0848 333.733 96.0848C329.752 96.0848 326.919 92.9851 326.919 88.528V82.7134C326.919 82.5586 327.174 82.6588 327.34 82.6588H345.49C345.97 82.6588 346.25 82.078 346.25 81.5997V71.6492C346.25 64.4887 341.427 59.4758 333.706 59.4758ZM340.568 77.384C340.568 77.5434 340.557 77.5457 340.399 77.5457H327.347C327.187 77.5457 326.926 77.5434 326.926 77.384V72.0523C326.926 67.5155 329.688 64.4112 333.665 64.4112C337.803 64.4112 340.568 67.5155 340.568 72.0523V77.384ZM363.229 59.4758C355.67 59.4758 350.801 64.5684 350.801 71.6515V88.8445C350.801 96.1668 355.67 101.025 363.229 101.025C370.87 101.025 375.817 96.1668 375.817 89.9651V89.086C375.817 88.6077 375.378 88.2888 374.902 88.2888L370.884 88.2091C370.404 88.2091 370.133 88.5325 370.133 89.0062V89.5665C370.133 92.9851 367.37 96.0871 363.229 96.0871C359.248 96.0871 356.486 92.9851 356.486 88.4483V72.0523C356.486 67.5178 359.248 64.4135 363.229 64.4135C367.37 64.4135 370.133 67.5178 370.133 70.9386V71.5763C370.133 71.9749 370.347 72.2915 370.823 72.2915L374.949 72.132C375.43 72.132 375.817 71.8155 375.817 71.3349V70.5378C375.82 64.5707 370.873 59.4758 363.229 59.4758ZM387.36 64.4682H393.407C393.883 64.4682 394.015 64.0104 394.015 63.5344V60.9061C394.015 60.4301 393.883 59.9199 393.407 59.9199H387.36C387.2 59.9199 387.191 59.9518 387.191 59.7924V50.8782C387.191 50.4021 386.724 50.2541 386.244 50.2541H382.267C381.787 50.2541 381.507 50.4021 381.507 50.8782V59.7947C381.507 59.9541 381.311 59.9222 381.154 59.9222H378.049C377.573 59.9222 377.528 60.4324 377.528 60.9084V63.5367C377.528 64.0127 377.575 64.4704 378.049 64.4704H381.154C381.311 64.4704 381.507 64.4909 381.507 64.6504V90.6802C381.507 98.7153 385.371 100.294 391.024 100.294H393.013C393.493 100.294 394.015 100.07 394.015 99.5945V96.1691C394.015 95.6931 393.493 95.1715 393.013 95.1715H392.218C388.872 95.1715 387.187 94.1011 387.187 89.0085V64.6481C387.189 64.4887 387.198 64.4682 387.36 64.4682Z" fill="black"/>
<path d="M65.9594 44H60.2747C58.408 43.9997 56.5595 44.3672 54.8349 45.0814C53.1102 45.7956 51.5431 46.8426 50.2232 48.1625C48.9032 49.4825 47.8563 51.0496 47.142 52.7742C46.4278 54.4989 46.0604 56.3474 46.0607 58.2141V75.2727H21.0443C17.2751 75.2727 13.6603 76.7701 10.9951 79.4353C8.32983 82.1005 6.83252 85.7153 6.83252 89.4845V100.856C6.83312 104.625 8.3307 108.239 10.9959 110.904C13.661 113.569 17.2755 115.066 21.0443 115.066H26.7313C30.5003 115.066 34.115 113.569 36.7805 110.904C39.446 108.239 40.9441 104.625 40.9453 100.856V89.4845C40.9453 89.2955 40.9385 89.1064 40.9317 88.9174H32.416V100.856C32.4136 102.363 31.8139 103.808 30.7483 104.873C29.6828 105.939 28.2382 106.539 26.7313 106.541H21.0443C19.5374 106.539 18.0928 105.939 17.0273 104.873C15.9617 103.808 15.362 102.363 15.3596 100.856V89.4845C15.362 87.9776 15.9617 86.5331 17.0273 85.4675C18.0928 84.4019 19.5374 83.8022 21.0443 83.7998H65.9617C69.7317 83.7998 73.3474 82.3023 76.0134 79.6367C78.6794 76.9712 80.1774 73.3558 80.178 69.5858V58.2163C80.1768 54.4459 78.6783 50.8303 76.012 48.1644C73.3457 45.4985 69.7299 44.0006 65.9594 44ZM71.6464 69.5858C71.6446 71.0935 71.0449 72.5389 69.9787 73.6051C68.9126 74.6712 67.4672 75.2709 65.9594 75.2727H54.5877V58.2163C54.5895 56.7086 55.1893 55.2631 56.2554 54.197C57.3215 53.1309 58.767 52.5312 60.2747 52.5293H65.9594C67.4672 52.5312 68.9126 53.1309 69.9787 54.197C71.0449 55.2631 71.6446 56.7086 71.6464 58.2163V69.5858Z" fill="#3393B3"/>
<path d="M46.0514 99.1503H46.0423V88.9174H54.5716V99.1503H54.5648L54.5716 99.2893C54.5716 101.567 52.6631 103.416 50.3058 103.416C47.9509 103.416 46.0423 101.567 46.0423 99.2893C46.0423 99.2437 46.0491 99.1982 46.0514 99.1503Z" fill="#3393B3"/>
</svg>
