<svg width="400" height="160" viewBox="0 0 400 160" fill="none" xmlns="http://www.w3.org/2000/svg">
<path d="M31.1043 77.5765C31.1043 67.6379 36.5031 64.0796 41.5337 64.0796C47.7301 64.0796 51.9018 69.4784 51.9018 77.4538C51.9018 86.5949 46.6258 90.7054 41.411 90.7054C34.3558 90.7054 31.1043 83.8955 31.1043 77.5765ZM44.0491 52.3618C36.6871 52.3618 32.454 55.6747 30.3681 58.006C30.1227 56.0428 28.8344 53.4661 23.7423 53.4661H12.7607V65.0612H17.2393C17.9755 65.0612 18.2209 65.3066 18.2209 66.1041V119.11H31.3497V99.233C31.3497 98.6808 31.3497 98.19 31.3497 97.7606C33.3742 99.6624 37.3006 102.239 43.4356 102.239C56.2577 102.239 65.2147 91.9937 65.2147 77.3311C65.2147 62.4232 56.6871 52.3618 44.0491 52.3618Z" fill="#26292C"/>
<path d="M82.8221 88.6197V60.5215C82.8221 55.7976 80.5521 53.4663 75.8895 53.4663H64.1718V65.0614H68.7116C69.4478 65.0614 69.6932 65.3068 69.6932 66.1044V94.0798C69.6932 98.9264 71.9018 101.135 76.5644 101.135H88.2822V89.6013H83.7423C83.0675 89.6013 82.8221 89.3559 82.8221 88.6197Z" fill="#26292C"/>
<path d="M114.356 90.7054C107.301 90.7054 104.11 83.8955 104.11 77.5765C104.11 67.6379 109.509 64.0796 114.54 64.0796C120.736 64.0796 124.908 69.4784 124.908 77.4538C124.908 86.5949 119.571 90.7054 114.356 90.7054ZM117.055 52.3618C109.693 52.3618 105.46 55.6747 103.374 58.006C103.129 56.0428 101.841 53.4661 96.8098 53.4661H85.8282V65.0612H90.3068C91.043 65.0612 91.2884 65.3066 91.2884 66.1041V119.11H104.417V99.233C104.417 98.6808 104.417 98.19 104.417 97.7606C106.442 99.6624 110.368 102.239 116.503 102.239C129.325 102.239 138.282 91.9937 138.282 77.3311C138.16 62.4232 129.693 52.3618 117.055 52.3618Z" fill="#26292C"/>
<path d="M152.945 70.3986C154.356 65.736 157.914 63.098 162.822 63.098C166.749 63.098 169.816 66.1041 170.368 70.3986H152.945ZM162.822 52.3618C148.712 52.3618 138.834 62.6072 138.834 77.2698C138.834 91.687 149.509 102.178 164.172 102.178C175.706 102.178 182.761 95.3066 183.068 94.9999L183.62 94.4477L177.914 84.8772L177.055 85.6747C176.994 85.736 171.841 90.5213 164.969 90.5213C158.405 90.5213 153.62 86.4722 152.454 80.1532H183.558L183.62 79.2943C183.62 79.1716 183.926 76.3495 183.926 74.9998C183.865 61.5029 175.399 52.3618 162.822 52.3618Z" fill="#26292C"/>
<path d="M208.159 90.7056C201.902 90.7056 197.914 85.4295 197.914 77.3314C197.914 69.4173 202.086 64.1412 208.343 64.1412C215.399 64.1412 218.589 70.7056 218.589 77.27C218.589 87.1473 213.19 90.7056 208.159 90.7056ZM231.534 88.6197V42.6075C231.534 37.8835 229.264 35.5522 224.54 35.5522H212.822V47.1473H217.362C218.098 47.1473 218.343 47.3927 218.343 48.1903V56.5338C216.38 54.7547 212.638 52.4848 206.135 52.4848C193.436 52.4848 184.54 62.7302 184.54 77.3927C184.54 92.3007 193.067 102.301 205.705 102.301C212.945 102.301 217.117 98.9265 219.141 96.5338C219.386 98.6197 220.736 101.196 225.644 101.196H236.994V89.6627H232.577C231.84 89.6013 231.534 89.3559 231.534 88.6197Z" fill="#26292C"/>
<path d="M266.135 52.8525C260.675 52.8525 255.644 56.0427 252.699 61.0734V59.9691C252.699 55.6746 250.307 53.466 245.706 53.466H234.417V65.0611H238.896C239.632 65.0611 239.877 65.3065 239.877 66.1041V101.135H253.006V82.055C253.006 79.5397 253.313 77.147 253.926 74.8771C255.89 68.3127 261.166 65.9814 265.399 65.9814C266.933 65.9814 267.976 66.1654 268.037 66.1654L269.141 66.3495V53.2206L268.344 53.0979C268.282 53.0366 267.178 52.8525 266.135 52.8525Z" fill="#26292C"/>
<path d="M287.791 88.6197V60.5215C287.791 55.7976 285.521 53.4663 280.859 53.4663H270.245V65.0614H273.62C274.356 65.0614 274.601 65.3068 274.601 66.1044V94.0798C274.601 98.9264 276.81 101.135 281.534 101.135H293.251V89.6013H288.712C288.037 89.6013 287.791 89.3559 287.791 88.6197Z" fill="#26292C"/>
<path d="M337.239 53.4663H330.245C326.135 53.4663 323.988 54.8774 322.699 58.3743L314.11 82.4847C313.804 83.405 313.558 84.3866 313.313 85.3682C313.067 84.3866 312.761 83.405 312.454 82.4847L303.926 58.3743C302.638 54.816 300.491 53.4663 296.38 53.4663H288.957V65.0614H290.859C291.902 65.0614 292.209 65.4295 292.454 66.043L305.705 101.135H320.429L333.681 66.043C333.926 65.4295 334.233 65.0614 335.276 65.0614H337.301V53.4663H337.239Z" fill="#26292C"/>
<path d="M349.939 70.3986C351.35 65.736 354.908 63.098 359.816 63.098C363.742 63.098 366.81 66.1041 367.362 70.3986H349.939ZM359.816 52.3618C345.705 52.3618 335.828 62.6072 335.828 77.2698C335.828 91.687 346.442 102.178 361.166 102.178C372.699 102.178 379.755 95.3066 380.061 94.9999L380.613 94.4477L374.908 84.8772L374.049 85.6747C373.988 85.736 368.773 90.5213 361.963 90.5213C355.399 90.5213 350.613 86.4722 349.448 80.1532H380.552L380.613 79.2943C380.613 79.1716 380.92 76.3495 380.92 74.9998C380.859 61.5029 372.393 52.3618 359.816 52.3618Z" fill="#26292C"/>
<path d="M81.9018 35.4907H70.2454V47.9447H81.9018V35.4907Z" fill="#26292C"/>
<path d="M286.871 35.4907H275.215V47.9447H286.871V35.4907Z" fill="#26292C"/>
</svg>
