<svg width="400" height="160" viewBox="0 0 400 160" fill="none" xmlns="http://www.w3.org/2000/svg">
<path fill-rule="evenodd" clip-rule="evenodd" d="M95.2185 50.0648L107.433 71.2205C109.372 70.7015 111.489 70.8541 113.414 71.7551L119.835 60.6309L109.102 42.0454L95.092 50.1366H95.0933L95.2185 50.0648Z" fill="#DE752C"/>
<path fill-rule="evenodd" clip-rule="evenodd" d="M76.8038 77.4324H101.239C101.433 76.7035 101.715 75.9889 102.109 75.3083C102.772 74.1569 103.663 73.2219 104.685 72.5086L98.2646 61.3896H76.7972V77.5707H76.8038V77.4324Z" fill="#DE752C"/>
<path fill-rule="evenodd" clip-rule="evenodd" d="M117.301 84.0801C116.636 85.2315 115.749 86.1625 114.73 86.8771L121.156 98.0039H142.616V81.9624H118.172C117.975 82.6887 117.692 83.3994 117.301 84.0801Z" fill="#DE752C"/>
<path fill-rule="evenodd" clip-rule="evenodd" d="M115.899 73.4959C117.381 74.9707 118.262 76.9084 118.439 78.94H131.278L142.011 60.3531L128.121 52.3311L115.899 73.4959Z" fill="#DE752C"/>
<path fill-rule="evenodd" clip-rule="evenodd" d="M91.2909 107.063L103.513 85.8913C102.037 84.4126 101.155 82.4815 100.974 80.4551H88.1301L77.3958 99.0341L91.403 107.129L91.2909 107.063Z" fill="#DE752C"/>
<mask id="mask0" mask-type="alpha" maskUnits="userSpaceOnUse" x="55" y="25" width="110" height="110">
<path d="M164.412 134.338H55V79.6691V25H164.412V134.338Z" fill="white"/>
</mask>
<g mask="url(#mask0)">
<path fill-rule="evenodd" clip-rule="evenodd" d="M124.198 109.325L111.985 88.1684C110.046 88.6913 107.927 88.544 106 87.6377L99.5764 98.7645L110.304 117.345L124.315 109.255L124.198 109.325Z" fill="#DE752C"/>
<path fill-rule="evenodd" clip-rule="evenodd" d="M109.709 25C79.5447 25 55 49.5382 55 79.6991C55 109.871 79.5447 134.417 109.709 134.417C139.874 134.417 164.412 109.871 164.412 79.6991C164.412 49.5382 139.874 25 109.709 25ZM109.709 36.0747C133.804 36.0747 153.335 55.6043 153.335 79.6991C153.335 103.801 133.804 123.339 109.709 123.339C85.6134 123.339 66.0786 103.801 66.0786 79.6991C66.0786 55.6043 85.6134 36.0747 109.709 36.0747Z" fill="#517A9E"/>
</g>
<path fill-rule="evenodd" clip-rule="evenodd" d="M187.991 57.7084C189.534 57.7084 190.942 57.6627 192.169 56.6195C193.349 55.6207 193.942 54.1655 193.942 52.6659C193.942 51.075 193.168 49.5768 191.897 48.7149C190.579 47.759 189.216 47.716 187.717 47.716H184.309V57.7084H187.991ZM187.536 42.0815C190.441 42.0815 193.759 42.4467 196.166 44.2161C198.891 46.2151 200.164 49.3029 200.164 52.6659C200.164 55.5294 199.074 58.3004 197.029 60.2967C194.667 62.7065 192.032 63.2972 188.762 63.2972H184.309V69.3385H187.852V74.5179H174.635V69.3385H178.133V47.2596H174.635V42.0815H187.536Z" fill="#DE752C"/>
<path fill-rule="evenodd" clip-rule="evenodd" d="M205.622 47.9416H211.164V42.0815H205.622V47.9416ZM211.164 69.3385H214.299V74.5179H202.443V69.3385H205.622V55.4368H202.486V50.2601H211.164V69.3385Z" fill="#DE752C"/>
<path fill-rule="evenodd" clip-rule="evenodd" d="M230.959 74.5181H225.145L217.697 55.437H214.744V50.2603H226.055V55.437H223.602L228.054 67.7022H228.1L232.867 55.437H230.28V50.2603H241.455V55.437H238.593L230.959 74.5181Z" fill="#DE752C"/>
<path fill-rule="evenodd" clip-rule="evenodd" d="M276.892 69.3385H281.298V74.5179H271.35V55.4368H267.534V50.2601H271.35V42.0815H276.892V50.2601H281.025V55.4368H276.892V69.3385Z" fill="#DE752C"/>
<path fill-rule="evenodd" clip-rule="evenodd" d="M303.203 62.2515C303.203 58.2549 299.887 55.0301 295.888 55.0301C291.754 55.0301 288.577 58.4348 288.577 62.5228C288.577 66.4751 291.893 69.7468 295.797 69.7468C299.976 69.7468 303.203 66.3838 303.203 62.2515ZM303.111 71.245C301.341 73.9247 298.479 75.153 295.3 75.153C288.347 75.153 282.851 69.3843 282.851 62.5228C282.851 55.4826 288.485 49.6226 295.572 49.6226C298.706 49.6226 301.432 51.0752 303.111 53.7105V50.2602H311.789V55.437H308.745V69.3386H311.789V74.518H303.111V71.245Z" fill="#DE752C"/>
<path fill-rule="evenodd" clip-rule="evenodd" d="M323.832 69.3385H326.967V74.5179H314.929V69.3385H318.29V47.2596H315.155V42.0815H323.832V69.3385Z" fill="#DE752C"/>
<path fill-rule="evenodd" clip-rule="evenodd" d="M254.409 49.5796C247.349 49.5796 241.629 55.3027 241.629 62.3598C241.629 69.4196 247.349 75.1414 254.409 75.1414C261.469 75.1414 267.192 69.4196 267.192 62.3598C267.192 55.3027 261.469 49.5796 254.409 49.5796ZM254.409 55.025C258.455 55.025 261.746 58.3149 261.746 62.3598C261.746 66.4048 258.455 69.6947 254.409 69.6947C250.364 69.6947 247.071 66.4048 247.071 62.3598C247.071 58.3149 250.364 55.025 254.409 55.025Z" fill="#DE752C"/>
<path fill-rule="evenodd" clip-rule="evenodd" d="M190.487 111.503H194.029V116.681H180.766V111.503H184.309V89.7422H179.539V94.4652H174.635V84.2446H200.161V94.4652H195.259V89.7422H190.487V111.503Z" fill="#517A9E"/>
<path fill-rule="evenodd" clip-rule="evenodd" d="M210.787 96.5567C212.193 93.6945 214.918 92.2862 218.053 92.1479V97.8267C216.281 97.918 214.648 98.3718 213.283 99.6002C211.464 101.143 211.191 103.097 211.191 105.368V111.503H214.327V116.681H202.533V111.503H205.665V97.5999H202.533V92.4231H210.787V96.5567Z" fill="#517A9E"/>
<path fill-rule="evenodd" clip-rule="evenodd" d="M239.545 104.414C239.545 100.417 236.231 97.1927 232.233 97.1927C228.1 97.1927 224.919 100.597 224.919 104.685C224.919 108.638 228.235 111.909 232.142 111.909C236.321 111.909 239.545 108.546 239.545 104.414ZM239.456 113.408C237.687 116.087 234.823 117.314 231.643 117.314C224.692 117.314 219.196 111.547 219.196 104.685C219.196 97.6452 224.829 91.7852 231.915 91.7852C235.05 91.7852 237.775 93.2378 239.456 95.8731V92.4228H248.133V97.5996H245.089V111.503H248.133V116.681H239.456V113.408Z" fill="#517A9E"/>
<path fill-rule="evenodd" clip-rule="evenodd" d="M274.513 108.504C273.018 113.636 267.793 117.315 262.474 117.315C255.435 117.315 249.666 111.636 249.666 104.55C249.666 97.8268 254.981 91.6968 261.886 91.6968C264.613 91.6968 267.018 92.7856 268.836 94.7376V92.4231H273.606V100.509H268.426C267.746 99.5076 266.839 98.69 265.838 98.0993C264.792 97.5086 263.612 97.193 262.388 97.193C258.254 97.193 255.208 100.509 255.208 104.55C255.208 108.684 258.478 111.865 262.522 111.865C264.883 111.865 267.291 110.637 268.335 108.504H274.513Z" fill="#517A9E"/>
<path fill-rule="evenodd" clip-rule="evenodd" d="M321.937 102.371C320.984 98.8739 317.895 96.648 314.307 96.648C311.035 96.648 307.901 99.192 307.219 102.371H321.937ZM326.162 109.548C324.255 114.18 319.76 117.315 314.717 117.315C307.629 117.315 301.95 111.773 301.95 104.643C301.95 97.4656 307.356 91.6968 314.579 91.6968C317.941 91.6968 321.304 93.1924 323.664 95.6009C326.074 98.1462 327.071 101.234 327.071 104.686L326.889 106.64H307.265C307.991 110.003 311.081 112.453 314.533 112.453C316.941 112.453 319.031 111.547 320.394 109.548H326.162Z" fill="#517A9E"/>
<path fill-rule="evenodd" clip-rule="evenodd" d="M336.992 96.5567C338.398 93.6945 341.126 92.2862 344.258 92.1479V97.8267C342.488 97.918 340.85 98.3718 339.49 99.6002C337.671 101.143 337.399 103.097 337.399 105.368V111.503H340.532V116.681H328.722V111.503H331.86V97.5999H328.722V92.4231H336.992V96.5567Z" fill="#517A9E"/>
<path fill-rule="evenodd" clip-rule="evenodd" d="M297.798 111.503L290.711 104.052L297.389 97.5999H300.342V92.4232H288.395V97.0549H290.894L284.673 103.277V84.2446H275.946V89.4227H279.128V111.503H275.946V116.681H284.673V105.142L290.441 111.503H288.395V116.681H301.616V111.503H297.798Z" fill="#517A9E"/>
</svg>
