<svg width="400" height="160" viewBox="0 0 400 160" fill="none" xmlns="http://www.w3.org/2000/svg">
<path d="M183.812 25.2692C190.23 18.5479 199.165 14.3791 209.047 14.3791C222.183 14.3791 233.644 21.7415 239.747 32.6712C245.051 30.2894 250.922 28.9644 257.099 28.9644C280.792 28.9644 300 48.4391 300 72.4609C300 96.4856 280.792 115.96 257.099 115.96C254.261 115.962 251.43 115.678 248.648 115.114C243.274 124.75 233.032 131.261 221.276 131.261C216.355 131.261 211.7 130.118 207.556 128.087C202.107 140.968 189.413 150 174.619 150C159.212 150 146.081 140.202 141.041 126.46C138.838 126.93 136.556 127.175 134.215 127.175C115.871 127.175 101 112.074 101 93.4429C101 80.9575 107.682 70.0561 117.609 64.2238C115.565 59.4971 114.428 54.28 114.428 48.7951C114.428 27.3688 131.734 10 153.08 10C165.613 10 176.75 15.9891 183.812 25.2692Z" fill="#00A1E0"/>
<path d="M129.045 83.3061C128.92 83.6535 129.09 83.7261 129.13 83.7864C129.505 84.0763 129.885 84.2849 130.268 84.5173C132.299 85.6649 134.217 86 136.223 86C140.308 86 142.845 83.6867 142.845 79.9626V79.8902C142.845 76.447 139.982 75.1967 137.295 74.2936L136.947 74.1729C134.921 73.4721 133.173 72.8683 133.173 71.4487V71.3733C133.173 70.1591 134.195 69.265 135.778 69.265C137.537 69.265 139.625 69.8873 140.97 70.6785C140.97 70.6785 141.364 70.9503 141.509 70.5426C141.588 70.3251 142.269 68.374 142.34 68.1627C142.416 67.933 142.28 67.7639 142.141 67.6732C140.606 66.6796 138.484 66 136.288 66L135.88 66.003C132.141 66.003 129.531 68.4071 129.531 71.8532V71.9258C129.531 75.559 132.41 76.7369 135.108 77.5584L135.542 77.7004C137.509 78.3437 139.202 78.8963 139.202 80.3703V80.4429C139.202 81.7899 138.102 82.7925 136.326 82.7925C135.636 82.7925 133.437 82.7775 131.063 81.1795C130.776 81.0013 130.609 80.8716 130.387 80.7296C130.271 80.6511 129.979 80.515 129.851 80.9259L129.045 83.3061ZM188.854 83.3061C188.729 83.6535 188.899 83.7261 188.939 83.7864C189.313 84.0763 189.693 84.2849 190.076 84.5173C192.108 85.6649 194.026 86 196.031 86C200.117 86 202.653 83.6867 202.653 79.9626V79.8902C202.653 76.447 199.791 75.1967 197.104 74.2936L196.755 74.1729C194.729 73.4721 192.981 72.8683 192.981 71.4487V71.3733C192.981 70.1591 194.003 69.265 195.586 69.265C197.345 69.265 199.433 69.8873 200.778 70.6785C200.778 70.6785 201.172 70.9503 201.317 70.5426C201.396 70.3251 202.077 68.374 202.148 68.1627C202.225 67.933 202.089 67.7639 201.95 67.6732C200.415 66.6796 198.292 66 196.097 66L195.688 66.003C191.949 66.003 189.339 68.4071 189.339 71.8532V71.9258C189.339 75.559 192.218 76.7369 194.916 77.5584L195.35 77.7004C197.317 78.3437 199.013 78.8963 199.013 80.3703V80.4429C199.013 81.7899 197.91 82.7925 196.134 82.7925C195.444 82.7925 193.246 82.7775 190.871 81.1795C190.584 81.0013 190.414 80.8775 190.199 80.7296C190.125 80.6783 189.779 80.5363 189.659 80.9259L188.854 83.3061ZM229.683 76.0117C229.683 78.1168 229.315 79.7748 228.588 80.9467C227.87 82.1066 226.784 82.6713 225.269 82.6713C223.751 82.6713 222.67 82.1096 221.964 80.9467C221.249 79.778 220.886 78.1168 220.886 76.0117C220.886 73.9097 221.249 72.2545 221.964 71.0947C222.67 69.9471 223.751 69.3883 225.269 69.3883C226.784 69.3883 227.871 69.9471 228.591 71.0947C229.315 72.2543 229.683 73.9095 229.683 76.0117ZM233.094 72.1096C232.759 70.9043 232.237 69.8412 231.542 68.9564C230.847 68.0684 229.967 67.3557 228.923 66.8362C227.882 66.3198 226.651 66.0571 225.269 66.0571C223.885 66.0571 222.653 66.3198 221.612 66.8362C220.568 67.3557 219.688 68.0686 218.991 68.9564C218.298 69.8444 217.776 70.9075 217.439 72.1096C217.107 73.3085 216.939 74.6192 216.939 76.0117C216.939 77.4041 217.107 78.7179 217.439 79.9138C217.776 81.1159 218.296 82.1792 218.994 83.0669C219.688 83.9549 220.571 84.6646 221.612 85.1689C222.656 85.6734 223.884 85.93 225.269 85.93C226.651 85.93 227.879 85.6734 228.923 85.1689C229.964 84.6646 230.847 83.9547 231.542 83.0669C232.237 82.1819 232.759 81.1189 233.094 79.9138C233.429 78.7149 233.596 77.4009 233.596 76.0117C233.596 74.6224 233.428 73.3085 233.094 72.1096ZM261.098 82.1091C260.984 81.7558 260.664 81.8886 260.664 81.8886C260.167 82.0911 259.639 82.2783 259.078 82.3719C258.507 82.4653 257.88 82.5139 257.208 82.5139C255.557 82.5139 254.246 81.9913 253.307 80.9584C252.365 79.9255 251.837 78.2554 251.843 75.9962C251.849 73.9394 252.314 72.3929 253.151 71.2152C253.982 70.0435 255.248 69.4422 256.936 69.4422C258.343 69.4422 259.415 69.6143 260.539 69.9919C260.539 69.9919 260.808 70.1156 260.936 69.7412C261.234 68.8592 261.455 68.228 261.773 67.2585C261.864 66.9837 261.642 66.8659 261.563 66.8326C261.12 66.6484 260.076 66.3496 259.287 66.2226C258.55 66.1019 257.687 66.0384 256.728 66.0384C255.295 66.0384 254.019 66.2982 252.927 66.8177C251.837 67.3341 250.912 68.0468 250.181 68.935C249.448 69.823 248.892 70.8858 248.521 72.0879C248.152 73.2868 247.965 74.6037 247.965 75.9962C247.965 79.0073 248.728 81.4414 250.235 83.2236C251.744 85.0116 254.011 85.9206 256.967 85.9206C258.715 85.9206 260.508 85.5433 261.796 85.0025C261.796 85.0025 262.043 84.8756 261.935 84.5708L261.098 82.1091ZM267.064 73.995C267.226 72.8263 267.53 71.8536 267.998 71.0957C268.704 69.945 269.782 69.3138 271.297 69.3138C272.813 69.3138 273.814 69.948 274.532 71.0957C275.008 71.8536 275.216 72.8687 275.298 73.995H267.064ZM278.546 71.4247C278.257 70.2619 277.539 69.0869 277.068 68.5493C276.325 67.6977 275.599 67.1028 274.878 66.7704C273.936 66.3415 272.807 66.0577 271.57 66.0577C270.129 66.0577 268.821 66.3145 267.76 66.846C266.696 67.3776 265.802 68.1026 265.101 69.0056C264.4 69.9055 263.873 70.9777 263.538 72.1949C263.2 73.4061 263.03 74.726 263.03 76.118C263.03 77.5347 263.206 78.8545 263.555 80.0413C263.907 81.2375 264.468 82.2914 265.229 83.1641C265.986 84.0432 266.962 84.7319 268.131 85.2118C269.292 85.6891 270.702 85.9368 272.322 85.9336C275.655 85.9215 277.411 85.1303 278.135 84.7043C278.263 84.629 278.385 84.4961 278.231 84.1156L277.477 81.8653C277.363 81.5302 277.043 81.6539 277.043 81.6539C276.217 81.9801 275.043 82.5661 272.304 82.5601C270.514 82.5572 269.186 81.9954 268.355 81.1163C267.501 80.2164 267.084 78.8934 267.01 77.027L278.554 77.0391C278.554 77.0391 278.858 77.0331 278.889 76.7188C278.901 76.5864 279.287 74.1943 278.546 71.4247ZM174.613 73.995C174.777 72.8263 175.078 71.8536 175.546 71.0957C176.252 69.945 177.331 69.3138 178.846 69.3138C180.361 69.3138 181.362 69.948 182.083 71.0957C182.556 71.8536 182.763 72.8687 182.846 73.995H174.613ZM186.091 71.4247C185.802 70.2619 185.087 69.0869 184.616 68.5493C183.873 67.6977 183.147 67.1028 182.426 66.7704C181.484 66.3415 180.355 66.0577 179.118 66.0577C177.68 66.0577 176.369 66.3145 175.308 66.846C174.244 67.3776 173.35 68.1026 172.65 69.0056C171.949 69.9055 171.421 70.9777 171.086 72.1949C170.752 73.4061 170.579 74.726 170.579 76.118C170.579 77.5347 170.754 78.8545 171.103 80.0413C171.455 81.2375 172.017 82.2914 172.777 83.1641C173.535 84.0432 174.511 84.7319 175.68 85.2118C176.84 85.6891 178.25 85.9368 179.87 85.9336C183.204 85.9215 184.96 85.1303 185.683 84.7043C185.811 84.629 185.933 84.4961 185.78 84.1156L185.028 81.8653C184.912 81.5302 184.591 81.6539 184.591 81.6539C183.766 81.9801 182.594 82.5661 179.85 82.5601C178.063 82.5572 176.735 81.9954 175.904 81.1163C175.05 80.2164 174.633 78.8934 174.559 77.027L186.103 77.0391C186.103 77.0391 186.407 77.0331 186.438 76.7188C186.449 76.5864 186.835 74.1943 186.091 71.4247ZM149.66 82.0419C149.209 81.6581 149.147 81.5616 148.993 81.3139C148.766 80.9363 148.65 80.3987 148.65 79.7162C148.65 78.6349 148.985 77.8587 149.68 77.3362C149.672 77.3394 150.673 76.4151 153.028 76.4482C154.682 76.4724 156.16 76.7322 156.16 76.7322V82.3197H156.163C156.163 82.3197 154.696 82.6548 153.045 82.7605C150.696 82.9116 149.652 82.0389 149.66 82.0419ZM154.253 73.4069C153.785 73.3706 153.178 73.3494 152.452 73.3494C151.462 73.3494 150.505 73.4823 149.609 73.7391C148.707 73.9957 147.895 74.3976 147.197 74.9289C146.501 75.4584 145.928 76.1519 145.524 76.9555C145.115 77.7649 144.908 78.7193 144.908 79.7886C144.908 80.8758 145.084 81.8211 145.436 82.5945C145.788 83.3706 146.295 84.0169 146.942 84.5154C147.583 85.0138 148.375 85.379 149.294 85.5995C150.199 85.82 151.226 85.9317 152.35 85.9317C153.533 85.9317 154.713 85.8292 155.856 85.6205C156.988 85.4151 158.378 85.116 158.764 85.0227C159.035 84.9533 159.304 84.8798 159.573 84.8022C159.859 84.7268 159.837 84.4004 159.837 84.4004L159.831 73.1622C159.831 70.6976 159.212 68.8702 157.995 67.7378C156.784 66.6083 154.999 66.0371 152.693 66.0371C151.827 66.0371 150.434 66.1643 149.6 66.3423C149.6 66.3423 147.078 66.8619 146.04 67.7257C146.04 67.7257 145.813 67.8768 145.938 68.2151L146.755 70.5528C146.857 70.8548 147.132 70.7521 147.132 70.7521C147.132 70.7521 147.22 70.7158 147.322 70.6524C149.544 69.3658 152.353 69.4051 152.353 69.4051C153.601 69.4051 154.56 69.6708 155.207 70.1992C155.836 70.7126 156.157 71.4888 156.157 73.1257V73.6453C155.164 73.4944 154.253 73.4069 154.253 73.4069ZM247.362 67.0748C247.449 66.7967 247.265 66.6639 247.188 66.6337C246.993 66.5522 246.011 66.3317 245.254 66.2804C243.804 66.1868 242.998 66.4465 242.278 66.7908C241.563 67.135 240.768 67.6907 240.326 68.322V66.8271C240.326 66.6187 240.187 66.4525 239.994 66.4525H237.035C236.842 66.4525 236.703 66.6184 236.703 66.8271V85.1568C236.703 85.3622 236.862 85.5314 237.054 85.5314H240.087C240.18 85.5308 240.269 85.4911 240.335 85.4209C240.4 85.3506 240.437 85.2557 240.436 85.1568V75.9996C240.436 74.7703 240.564 73.5442 240.819 72.7741C241.069 72.0128 241.41 71.4028 241.829 70.9648C242.252 70.5299 242.732 70.2249 243.256 70.0528C243.793 69.8775 244.385 69.8202 244.805 69.8202C245.41 69.8202 246.074 69.9862 246.074 69.9862C246.295 70.0133 246.42 69.8684 246.493 69.654C246.692 69.0922 247.254 67.4099 247.362 67.0748Z" fill="white"/>
<path d="M219.764 58.4033C219.392 58.2864 219.055 58.2074 218.614 58.1228C218.167 58.0411 217.635 58 217.032 58C214.926 58 213.266 58.6078 212.102 59.8057C210.943 60.9981 210.156 62.8126 209.761 65.2L209.618 66.0035H206.974C206.974 66.0035 206.654 65.9918 206.585 66.3484L206.153 68.8233C206.122 69.0572 206.222 69.206 206.531 69.206H209.103L206.494 84.0851C206.29 85.2832 206.056 86.268 205.795 87.0158C205.54 87.7523 205.292 88.3045 204.983 88.7077C204.685 89.0935 204.405 89.3798 203.918 89.5463C203.518 89.6837 203.054 89.7479 202.548 89.7479C202.267 89.7479 201.893 89.7009 201.615 89.6426C201.34 89.587 201.194 89.5258 200.985 89.435C200.985 89.435 200.685 89.3184 200.565 89.6251C200.47 89.8794 199.784 91.8048 199.701 92.0417C199.621 92.2783 199.735 92.4624 199.881 92.5179C200.224 92.6407 200.479 92.7224 200.945 92.8363C201.592 92.9914 202.138 93 202.65 93C203.72 93 204.699 92.8452 205.509 92.5472C206.322 92.2462 207.031 91.723 207.66 91.0161C208.339 90.2504 208.765 89.4498 209.171 88.3541C209.575 87.2729 209.921 85.9287 210.196 84.3627L212.819 69.206H216.653C216.653 69.206 216.977 69.2177 217.043 68.8584L217.477 66.3864C217.506 66.1499 217.409 66.0037 217.097 66.0037H213.374C213.394 65.9191 213.563 64.5805 213.99 63.3214C214.173 62.7867 214.516 62.3512 214.805 62.0531C215.091 61.7609 215.42 61.5535 215.781 61.4336C216.15 61.3108 216.571 61.2525 217.031 61.2525C217.38 61.2525 217.726 61.2933 217.987 61.3488C218.347 61.4278 218.488 61.4687 218.582 61.498C218.963 61.6149 219.014 61.5009 219.089 61.3141L219.979 58.8187C220.07 58.5493 219.844 58.4353 219.764 58.4033ZM167.754 84.1173C167.754 84.3161 167.614 84.4768 167.419 84.4768H164.332C164.137 84.4768 164 84.3161 164 84.1173V58.7423C164 58.5437 164.137 58.3829 164.332 58.3829H167.419C167.614 58.3829 167.754 58.5437 167.754 58.7423V84.1173Z" fill="white"/>
</svg>
