<svg width="400" height="160" viewBox="0 0 400 160" fill="none" xmlns="http://www.w3.org/2000/svg">
<path d="M177 80C177 73.0399 175.642 66.148 173.004 59.7178C170.365 53.2875 166.498 47.4448 161.623 42.5233C156.748 37.6018 150.96 33.6979 144.591 31.0344C138.221 28.3709 131.394 27 124.5 27L124.5 80H177Z" fill="black"/>
<path d="M124.5 27C117.606 27 110.779 28.3709 104.409 31.0344C98.0395 33.6979 92.252 37.6018 87.3769 42.5233C82.5018 47.4448 78.6347 53.2875 75.9963 59.7178C73.358 66.148 72 73.0399 72 80L124.5 80V27Z" fill="#FFFF00"/>
<path d="M72 80C72 86.9601 73.358 93.852 75.9963 100.282C78.6347 106.712 82.5018 112.555 87.3769 117.477C92.252 122.398 98.0395 126.302 104.409 128.966C110.779 131.629 117.606 133 124.5 133L124.5 80L72 80Z" fill="black"/>
<path d="M124.5 133C131.394 133 138.221 131.629 144.591 128.966C150.96 126.302 156.748 122.398 161.623 117.477C166.498 112.555 170.365 106.712 173.004 100.282C175.642 93.852 177 86.9601 177 80L124.5 80L124.5 133Z" fill="#FFFF00"/>
<rect x="52" y="77" width="285" height="3" fill="#C4C4C4"/>
<rect x="52" y="77" width="285" height="3" fill="#C4C4C4"/>
<rect x="122" y="12" width="3" height="136" fill="#C4C4C4"/>
<path d="M198.318 67.3108V36.1797H209.405V29H179V36.1797H190.145V67.3108H198.318Z" fill="#5A5A5A"/>
<path d="M221.829 68C226.116 68 230.459 66.6789 233.203 64.1517L230.002 59.4418C228.23 61.1649 224.973 62.1988 222.629 62.1988C217.943 62.1988 215.142 59.2695 214.685 55.7658H235.203V54.1576C235.203 45.0825 229.602 38.8792 221.372 38.8792C212.97 38.8792 207.084 45.3697 207.084 53.4109C207.084 62.3137 213.428 68 221.829 68ZM228.173 50.8262H214.571C214.914 48.0692 216.857 44.6804 221.372 44.6804C226.173 44.6804 228.002 48.1841 228.173 50.8262Z" fill="#5A5A5A"/>
<path d="M250.391 68C258.049 68 262.336 64.1517 262.336 59.0972C262.336 47.8969 245.99 51.3432 245.99 47.2077C245.99 45.6569 247.704 44.4507 250.333 44.4507C253.705 44.4507 256.849 45.8866 258.506 47.6672L261.421 42.6701C258.678 40.4875 254.963 38.8792 250.276 38.8792C243.018 38.8792 238.96 42.9573 238.96 47.6097C238.96 58.5228 255.363 54.7894 255.363 59.3844C255.363 61.1075 253.877 62.3711 250.733 62.3711C247.304 62.3711 243.189 60.4757 241.189 58.5803L238.045 63.6922C240.96 66.3918 245.59 68 250.391 68Z" fill="#5A5A5A"/>
<path d="M276.942 68C279.971 68 281.914 67.1959 283 66.2194L281.457 60.7055C281.057 61.1075 280.028 61.5096 278.942 61.5096C277.342 61.5096 276.427 60.1885 276.427 58.4654V45.944H282.028V39.5685H276.427V31.9867H269.112V39.5685H264.54V45.944H269.112V60.4183C269.112 65.3579 271.855 68 276.942 68Z" fill="#5A5A5A"/>
<path d="M262.525 130V122.894H246.213V92.0802H238V130H262.525Z" fill="#5A5A5A"/>
<path d="M272.904 99.5845C275.333 99.5845 277.3 97.6516 277.3 95.2639C277.3 92.8761 275.333 91 272.904 91C270.532 91 268.508 92.8761 268.508 95.2639C268.508 97.6516 270.532 99.5845 272.904 99.5845ZM276.605 130V102.541H269.26V130H276.605Z" fill="#5A5A5A"/>
<path d="M311.248 130V110.614C311.248 105.27 308.298 101.859 302.167 101.859C297.598 101.859 294.185 104.019 292.392 106.122V102.541H285.046V130H292.392V111.523C293.607 109.875 295.862 108.283 298.755 108.283C301.878 108.283 303.902 109.59 303.902 113.399V130H311.248Z" fill="#5A5A5A"/>
<path d="M347 130L335.605 114.991L346.653 102.541H337.63L327.045 114.764V92.0802H319.699V130H327.045V122.95L330.4 119.426L337.803 130H347Z" fill="#5A5A5A"/>
</svg>
