<svg width="400" height="160" viewBox="0 0 400 160" fill="none" xmlns="http://www.w3.org/2000/svg">
<path fill-rule="evenodd" clip-rule="evenodd" d="M267.8 14.4986C285.452 14.4986 303.11 14.7656 320.757 14.4082C333.371 14.152 346.255 23.0121 349.383 36.8313C349.846 38.8693 349.919 40.8941 349.922 42.9362C349.946 59.2206 349.75 75.5082 349.997 91.7893C350.186 104.27 340.356 119.855 321.961 120.188C316.162 120.293 312.664 122.048 309.575 126.647C305.543 132.653 300.937 138.274 296.569 144.053C296.099 144.674 295.757 145.842 294.881 145.553C293.767 145.186 294.664 144.162 294.757 143.475C295.687 136.583 296.581 129.681 297.716 122.82C298.04 120.864 297.519 120.325 295.743 120.404C294.788 120.446 293.828 120.408 292.87 120.408C266.733 120.406 240.595 120.546 214.459 120.344C201.976 120.247 192.894 114.234 187.507 102.899C185.598 98.8816 185.05 94.5066 185.024 90.1349C184.934 75.0827 184.884 60.0281 185.021 44.9767C185.14 31.9428 190.589 22.1019 202.86 16.6352C206.285 15.1098 209.858 14.4715 213.611 14.4805C231.673 14.5232 249.737 14.4994 267.8 14.4986ZM266.155 63.9505C266.155 74.3467 266.155 84.7437 266.155 95.14C266.155 101.76 266.156 101.629 272.619 101.661C275.158 101.672 275.887 100.923 275.851 98.4003C275.713 88.9635 275.791 79.5234 275.802 70.0842C275.804 68.7181 275.739 67.3283 275.956 65.9901C276.467 62.8538 278.703 61.2528 282.172 61.358C285.449 61.4574 287.236 63.0222 287.576 66.2719C287.747 67.8983 287.729 69.5494 287.731 71.1899C287.745 80.3556 287.728 89.5213 287.753 98.6853C287.757 99.8665 287.545 101.535 289.289 101.491C291.913 101.429 294.704 102.449 297.12 100.745C297.469 100.5 297.278 99.4443 297.284 98.7625C297.301 96.7122 297.293 94.6602 297.29 92.6083C297.279 83.3062 297.358 74.0017 297.222 64.7013C297.13 58.3655 294.577 54.8924 289.475 53.6356C285.211 52.5858 281.306 53.5937 277.879 56.1738C275.832 57.7165 275.778 56.7078 275.784 54.9688C275.809 47.4452 275.86 39.9207 275.776 32.3971C275.695 25.1273 277.045 26.2059 269.553 26.1278C266.216 26.0925 266.168 26.1697 266.162 29.476C266.142 40.9681 266.155 52.4593 266.155 63.9505ZM206.143 65.8061C206.143 76.7461 206.199 87.6861 206.096 98.6253C206.074 100.931 206.756 101.687 209.092 101.643C216.337 101.514 223.587 101.667 230.834 101.576C237.372 101.492 236.31 102.892 236.603 95.6476C236.713 92.9262 235.626 92.485 233.274 92.5623C228.631 92.715 223.977 92.5894 219.328 92.6165C217.859 92.6247 216.656 92.6165 216.68 90.5514C216.757 83.988 216.738 77.4247 216.687 70.8605C216.674 69.2529 217.332 68.7116 218.875 68.7395C222.292 68.8011 225.713 68.8151 229.13 68.742C235.702 68.6015 234.758 70.0826 234.97 62.8957C235.038 60.5957 234.337 59.7545 231.974 59.8441C227.742 60.0051 223.497 59.8564 219.259 59.9032C217.696 59.9205 216.655 59.6798 216.683 57.7239C216.76 52.2555 216.743 46.7839 216.686 41.3147C216.669 39.7088 217.318 39.1691 218.866 39.1921C222.831 39.2521 226.799 39.2751 230.762 39.1937C237.376 39.059 236.313 40.5319 236.598 33.3516C236.707 30.5998 235.529 30.2416 233.213 30.2745C225.42 30.387 217.624 30.3049 209.829 30.3229C206.166 30.3312 206.148 30.3566 206.143 34.2174C206.135 44.7467 206.142 55.276 206.143 65.8061ZM301.417 77.6637C301.242 83.9338 302.331 89.7094 305.236 95.1917C310.451 105.034 326.61 104.898 331.655 95.7002C333.808 91.7778 334.994 87.6443 335.498 83.2963C336.411 75.4318 335.803 67.7291 331.98 60.6088C328.924 54.9195 323.92 52.8889 317.615 53.1263C311.696 53.3489 307.474 56.0096 304.795 61.1674C302.087 66.382 301.196 72.0015 301.417 77.6637ZM248.879 77.0476C248.627 73.7372 249.3 70.49 249.798 67.2782C250.609 62.039 253.898 60.1833 259.04 61.6085C259.561 61.7531 260.062 61.9995 260.541 62.255C261.502 62.7692 262.044 62.6411 262.03 61.4204C262.015 60.1907 261.915 58.9462 262.064 57.7354C262.353 55.3729 261.302 54.2065 259.059 53.7358C249.155 51.6534 243.575 53.8097 241.037 63.244C238.37 73.1531 238.52 83.215 241.465 93.0962C243.481 99.8583 247.507 102.568 254.54 102.36C261.306 102.161 262.104 101.224 262.024 94.5107C261.997 92.2049 261.587 92.154 259.585 93.0748C254.671 95.3355 251.964 93.9907 250.357 88.759C249.187 84.9524 249.086 80.9848 248.879 77.0476Z" fill="#EB5F4B"/>
<path fill-rule="evenodd" clip-rule="evenodd" d="M49.9873 60.4386C49.9873 51.6803 50.0563 42.9213 49.9405 34.1646C49.9101 31.8629 50.5656 31.0596 52.9313 31.1302C62.0757 31.4054 60.3449 29.8808 60.4098 38.2801C60.519 52.3736 60.4385 66.4696 60.4402 80.5657C60.441 81.7962 60.418 83.03 60.4739 84.2589C60.7745 90.8436 63.9395 94.2961 69.9443 94.1261C74.9855 93.9815 79.6916 92.0996 79.6891 84.065C79.6842 68.3278 79.6636 52.5905 79.7072 36.8541C79.7253 30.3572 78.8061 31.26 85.3316 31.1746C86.0159 31.1655 86.7059 31.2329 87.3828 31.1623C89.4274 30.9495 90.2858 31.6535 90.2751 33.8853C90.1905 51.1275 90.3975 68.3729 90.1379 85.6118C89.972 96.6611 83.315 102.926 72.2304 103.236C69.2288 103.32 66.2503 103.311 63.2799 102.501C55.169 100.289 50.2115 94.3027 50.0735 85.8903C49.9347 77.408 50.0431 68.9225 50.0431 60.4386C50.0251 60.4386 50.0062 60.4386 49.9873 60.4386Z" fill="#656565"/>
<path fill-rule="evenodd" clip-rule="evenodd" d="M143.372 78.7609C140.228 78.7609 137.084 78.7864 133.94 78.7494C132.579 78.7322 131.964 79.2456 132.006 80.67C132.116 84.2589 132.765 87.7196 134.438 90.9175C135.419 92.7929 136.748 94.2575 139.149 94.3027C141.73 94.3512 143.102 92.7658 144.232 90.8001C144.5 90.3351 144.516 89.7125 144.818 89.2804C145.674 88.0564 144.77 85.7375 146.465 85.3719C148.687 84.8939 151.075 85.1329 153.391 85.1797C154.594 85.2035 154.47 86.2419 154.332 87.0042C152.783 95.5768 147.508 104.001 135.711 101.637C132.173 100.928 129.492 98.9488 127.529 95.9694C125.392 92.7272 124.074 89.1202 123.626 85.3079C122.666 77.1205 122.425 68.9241 125.927 61.1746C129.307 53.6921 136.813 50.518 144.243 53.2033C148.088 54.5915 150.592 57.3639 152.227 60.9766C154.456 65.9045 155.303 71.1026 155.236 76.5069C155.213 78.3683 154.489 78.825 152.804 78.7774C149.662 78.6878 146.516 78.7519 143.373 78.7519C143.372 78.7544 143.372 78.7577 143.372 78.7609ZM139.053 71.8279C140.829 71.8279 142.605 71.809 144.381 71.8353C145.539 71.8526 146.3 71.4304 146.065 70.1744C145.565 67.5038 145.223 64.7479 143.487 62.507C141.294 59.6796 137.296 59.6303 134.962 62.3534C133.965 63.5166 133.427 64.9105 133.015 66.3645C131.485 71.7713 131.527 71.8312 137.004 71.8345C137.687 71.8345 138.371 71.8345 139.053 71.8279Z" fill="#656565"/>
<path fill-rule="evenodd" clip-rule="evenodd" d="M103.633 101.631C102.455 101.631 101.908 101.644 101.36 101.629C94.1063 101.446 93.5009 100.771 93.6504 93.6711C93.6898 91.7776 93.7276 90.6531 95.9882 92.1243C98.2291 93.5824 100.837 93.846 103.473 93.7877C105.802 93.736 107.948 93.1059 108.921 90.8502C109.947 88.4713 109.773 85.9265 108.096 83.8614C106.729 82.1766 105.048 80.7325 103.428 79.2662C101.198 77.2463 98.8559 75.3454 97.0282 72.9238C93.9362 68.8256 92.6794 64.3142 94.8727 59.4899C97.0101 54.7879 101.325 53.0456 106.136 52.414C107.75 52.202 109.417 52.2809 111.054 52.3663C117.594 52.7113 119.478 55.2447 118.231 61.7472C117.941 63.2669 117.214 62.636 116.606 62.2039C113.975 60.3352 111.022 60.1232 107.977 60.4904C104.595 60.8987 103.017 63.2283 103.71 66.5724C104.209 68.9874 105.693 70.7043 107.502 72.2469C110.624 74.9109 113.803 77.542 116.391 80.7423C122.716 88.565 119.548 98.2301 109.906 101.007C107.603 101.673 105.314 101.561 103.633 101.631Z" fill="#656565"/>
<path fill-rule="evenodd" clip-rule="evenodd" d="M160.219 76.7838C160.218 69.9543 160.339 63.1223 160.157 56.2986C160.087 53.6831 160.991 52.8387 163.436 53.1673C164.241 53.2757 165.081 53.2593 165.89 53.1705C168.431 52.8896 170.226 53.3586 169.721 56.5442C169.649 57.0026 169.56 57.6893 170.235 57.875C170.89 58.0565 171.197 57.4363 171.52 57.0502C173.626 54.5399 176.308 53.0375 179.501 52.4468C181.035 52.1618 182.277 52.3819 182.079 54.4339C182.027 54.9753 182.071 55.5256 182.075 56.0719C182.114 61.2692 182.114 61.2692 176.875 62.1629C172.339 62.9351 170.014 65.6762 169.946 70.8062C169.836 79.0001 169.946 87.1956 169.879 95.3887C169.827 101.671 170.862 100.773 164.565 100.874C164.02 100.884 163.465 100.817 162.928 100.886C160.756 101.162 160.144 100.191 160.176 98.088C160.286 90.9874 160.219 83.8852 160.219 76.7838Z" fill="#656565"/>
<path fill-rule="evenodd" clip-rule="evenodd" d="M266.155 63.9506C266.155 52.4594 266.141 40.9682 266.163 29.477C266.17 26.1706 266.216 26.0934 269.555 26.1287C277.046 26.2068 275.698 25.1282 275.777 32.398C275.861 39.9208 275.811 47.4453 275.785 54.9697C275.78 56.7087 275.833 57.7174 277.881 56.1748C281.307 53.5946 285.212 52.5867 289.477 53.6365C294.579 54.8925 297.131 58.3664 297.224 64.7022C297.36 74.0026 297.28 83.3071 297.292 92.6092C297.294 94.6612 297.302 96.7131 297.285 98.7635C297.279 99.4453 297.471 100.501 297.122 100.746C294.706 102.45 291.915 101.43 289.29 101.492C287.546 101.536 287.758 99.8667 287.755 98.6862C287.729 89.5222 287.746 80.3565 287.733 71.1908C287.73 69.5504 287.748 67.8993 287.577 66.2728C287.237 63.0232 285.451 61.4583 282.174 61.3589C278.704 61.2538 276.469 62.8539 275.958 65.991C275.74 67.3292 275.805 68.7191 275.804 70.0851C275.792 79.5244 275.715 88.9644 275.853 98.4012C275.89 100.923 275.16 101.672 272.62 101.662C266.157 101.631 266.156 101.761 266.156 95.1409C266.155 84.7438 266.155 74.3468 266.155 63.9506Z" fill="#FEFEFE"/>
<path fill-rule="evenodd" clip-rule="evenodd" d="M206.142 65.806C206.142 55.2768 206.135 44.7466 206.146 34.2173C206.15 30.3565 206.168 30.3311 209.832 30.3229C217.626 30.3056 225.422 30.3869 233.216 30.2744C235.531 30.2415 236.709 30.5997 236.6 33.3515C236.314 40.5318 237.377 39.0589 230.764 39.1937C226.801 39.275 222.833 39.252 218.868 39.192C217.32 39.169 216.67 39.7087 216.688 41.3146C216.746 46.783 216.762 52.2547 216.685 57.7238C216.657 59.6797 217.698 59.9204 219.261 59.9031C223.5 59.8555 227.744 60.005 231.976 59.844C234.34 59.7545 235.04 60.5956 234.972 62.8957C234.759 70.0825 235.704 68.6014 229.132 68.7419C225.715 68.815 222.294 68.801 218.877 68.7394C217.334 68.7115 216.676 69.2528 216.689 70.8604C216.741 77.4246 216.76 83.9879 216.682 90.5513C216.659 92.6164 217.861 92.6238 219.33 92.6164C223.978 92.5893 228.632 92.7141 233.276 92.5622C235.627 92.485 236.715 92.9261 236.605 95.6475C236.312 102.891 237.375 101.492 230.836 101.576C223.589 101.667 216.34 101.513 209.094 101.643C206.758 101.687 206.076 100.931 206.098 98.6253C206.199 87.6861 206.142 76.7461 206.142 65.806Z" fill="#FEFEFE"/>
<path fill-rule="evenodd" clip-rule="evenodd" d="M301.417 77.6638C301.195 72.0015 302.086 66.382 304.794 61.1675C307.474 56.0096 311.695 53.349 317.614 53.1263C323.92 52.8889 328.924 54.9204 331.979 60.6089C335.802 67.7292 336.411 75.4311 335.497 83.2964C334.994 87.6443 333.807 91.777 331.654 95.7003C326.608 104.898 310.45 105.034 305.235 95.1918C302.331 89.7094 301.242 83.9339 301.417 77.6638ZM326.081 78.0515C326.081 76.1441 326.17 74.2326 326.06 72.3318C325.885 69.3212 325.252 66.3927 323.617 63.8076C321.312 60.1637 316.773 59.8786 313.96 63.1332C313.054 64.1805 312.443 65.3996 312.1 66.7262C310.334 73.55 310.258 80.4345 311.593 87.324C311.925 89.0375 312.488 90.733 313.592 92.1886C316.615 96.1709 321.508 95.9286 323.967 91.5873C324.56 90.5416 324.874 89.3266 325.242 88.1651C326.288 84.8654 326.158 81.4498 326.081 78.0515Z" fill="#FEFEFE"/>
<path fill-rule="evenodd" clip-rule="evenodd" d="M248.879 77.0476C249.086 80.9848 249.187 84.9523 250.357 88.7597C251.964 93.9915 254.671 95.3362 259.585 93.0756C261.587 92.1548 261.997 92.2057 262.024 94.5115C262.104 101.224 261.306 102.162 254.54 102.36C247.507 102.569 243.481 99.8591 241.465 93.097C238.519 83.2158 238.369 73.1531 241.037 63.2448C243.576 53.8105 249.156 51.6542 259.059 53.7366C261.302 54.2073 262.352 55.3737 262.064 57.7362C261.915 58.9478 262.015 60.1915 262.03 61.4212C262.045 62.641 261.502 62.77 260.541 62.2558C260.062 61.9995 259.561 61.7539 259.04 61.6093C253.898 60.1849 250.609 62.0398 249.797 67.2789C249.3 70.49 248.627 73.7371 248.879 77.0476Z" fill="#FEFEFE"/>
<path fill-rule="evenodd" clip-rule="evenodd" d="M326.081 78.0517C326.159 81.45 326.288 84.8655 325.242 88.1645C324.874 89.326 324.56 90.5409 323.967 91.5866C321.508 95.928 316.615 96.1703 313.593 92.1879C312.489 90.7331 311.926 89.0369 311.593 87.3233C310.258 80.4338 310.334 73.5493 312.1 66.7256C312.443 65.3989 313.054 64.1799 313.96 63.1326C316.773 59.878 321.312 60.1639 323.617 63.807C325.251 66.3912 325.886 69.3205 326.061 72.3311C326.171 74.2328 326.081 76.1443 326.081 78.0517Z" fill="#EB5F4B"/>
</svg>
