<svg width="400" height="160" viewBox="0 0 400 160" fill="none" xmlns="http://www.w3.org/2000/svg">
<path fill-rule="evenodd" clip-rule="evenodd" d="M21 75.1656V44.9852L26.9446 41.7843L42.4921 53.6735L67.1851 28.9805L82.2753 35.3824V84.3111L67.1851 90.713L42.4921 66.4773L26.9446 78.3665L21 75.1656ZM36.5476 60.0754L27.402 50.9298V69.221L36.5476 60.0754ZM67.1852 72.8792V47.2716L51.1805 59.6181L67.1852 72.8792Z" fill="#68217A"/>
<path d="M131.841 42.0766L118.591 78.3922H113.975L101 42.0766H105.666L115.572 70.8708C115.888 71.7994 116.13 72.8714 116.296 74.087H116.396C116.529 73.074 116.803 71.9851 117.219 70.8201L127.325 42.0766H131.841Z" fill="#68217A"/>
<path d="M138.017 45.8753C137.286 45.8753 136.662 45.6221 136.146 45.1156C135.63 44.6091 135.373 43.9675 135.373 43.1909C135.373 42.4143 135.63 41.7727 136.146 41.2662C136.662 40.7429 137.286 40.4812 138.017 40.4812C138.766 40.4812 139.398 40.7429 139.914 41.2662C140.446 41.7727 140.712 42.4143 140.712 43.1909C140.712 43.9338 140.446 44.5669 139.914 45.0903C139.398 45.6136 138.766 45.8753 138.017 45.8753ZM140.014 78.3922H135.921V52.4597H140.014V78.3922Z" fill="#68217A"/>
<path d="M146.24 77.4552V72.9981C148.469 74.6695 150.923 75.5052 153.601 75.5052C157.194 75.5052 158.991 74.2896 158.991 71.8584C158.991 71.1662 158.833 70.5838 158.516 70.111C158.217 69.6214 157.801 69.1909 157.269 68.8195C156.753 68.4481 156.138 68.1188 155.422 67.8318C154.724 67.5279 153.967 67.2156 153.152 66.8948C152.02 66.439 151.022 65.9831 150.157 65.5273C149.309 65.0545 148.594 64.5312 148.011 63.9571C147.446 63.3662 147.013 62.6994 146.714 61.9565C146.431 61.2136 146.29 60.3442 146.29 59.3481C146.29 58.1325 146.564 57.0604 147.113 56.1318C147.662 55.1864 148.394 54.4013 149.309 53.7766C150.224 53.1351 151.264 52.6539 152.428 52.3331C153.609 52.0123 154.823 51.8519 156.071 51.8519C158.284 51.8519 160.263 52.2403 162.01 53.0169V57.2208C160.13 55.9714 157.967 55.3468 155.522 55.3468C154.757 55.3468 154.067 55.4396 153.451 55.6253C152.836 55.7942 152.303 56.039 151.854 56.3597C151.422 56.6805 151.081 57.0688 150.831 57.5247C150.598 57.9636 150.482 58.4532 150.482 58.9935C150.482 59.6688 150.598 60.2344 150.831 60.6903C151.081 61.1461 151.438 61.5513 151.904 61.9058C152.37 62.2604 152.935 62.5812 153.601 62.8682C154.266 63.1552 155.023 63.4675 155.871 63.8052C157.003 64.2442 158.017 64.7 158.916 65.1727C159.814 65.6286 160.579 66.1519 161.211 66.7429C161.843 67.3169 162.326 67.9838 162.659 68.7435C163.008 69.5032 163.183 70.4065 163.183 71.4532C163.183 72.7364 162.9 73.8507 162.334 74.7961C161.785 75.7416 161.045 76.5266 160.113 77.1513C159.182 77.776 158.109 78.2403 156.895 78.5442C155.68 78.8481 154.408 79 153.077 79C150.448 79 148.169 78.4851 146.24 77.4552Z" fill="#68217A"/>
<path d="M189.645 78.3922H185.553V74.2896H185.453C183.756 77.4299 181.128 79 177.568 79C171.48 79 168.436 75.3195 168.436 67.9584V52.4597H172.503V67.3C172.503 72.7701 174.566 75.5052 178.691 75.5052C180.687 75.5052 182.326 74.7623 183.607 73.2766C184.904 71.774 185.553 69.8156 185.553 67.4013V52.4597H189.645V78.3922Z" fill="#68217A"/>
<path d="M215.709 78.3922H211.616V74.3403H211.516C209.737 77.4468 207.117 79 203.656 79C201.111 79 199.115 78.3162 197.668 76.9487C196.237 75.5812 195.522 73.7662 195.522 71.5039C195.522 66.6584 198.333 63.839 203.956 63.0455L211.616 61.9565C211.616 57.55 209.861 55.3468 206.351 55.3468C203.274 55.3468 200.496 56.4104 198.017 58.5377V54.2831C200.529 52.6623 203.424 51.8519 206.701 51.8519C212.706 51.8519 215.709 55.0766 215.709 61.526V78.3922ZM211.616 65.274L205.453 66.1351C203.557 66.4052 202.126 66.8864 201.161 67.5786C200.196 68.2539 199.714 69.461 199.714 71.2C199.714 72.4662 200.155 73.5045 201.036 74.3149C201.935 75.1084 203.124 75.5052 204.605 75.5052C206.634 75.5052 208.306 74.7877 209.62 73.3526C210.951 71.9007 211.616 70.0688 211.616 67.8571V65.274Z" fill="#68217A"/>
<path d="M227 78.3922H222.908V40H227V78.3922Z" fill="#68217A"/>
<path d="M241 76.9234V71.9091C241.568 72.4156 242.244 72.8714 243.029 73.2766C243.83 73.6818 244.665 74.0279 245.533 74.3149C246.418 74.5851 247.303 74.7961 248.188 74.9481C249.073 75.1 249.891 75.176 250.643 75.176C253.231 75.176 255.159 74.6948 256.429 73.7325C257.714 72.7532 258.357 71.3519 258.357 69.5286C258.357 68.5494 258.14 67.6968 257.706 66.9708C257.288 66.2448 256.704 65.5864 255.953 64.9955C255.201 64.3877 254.308 63.8136 253.273 63.2734C252.254 62.7162 251.152 62.1338 249.967 61.526C248.714 60.8844 247.545 60.2344 246.46 59.576C245.375 58.9175 244.431 58.1916 243.63 57.3981C242.828 56.6045 242.194 55.7097 241.726 54.7136C241.276 53.7006 241.05 52.5188 241.05 51.1682C241.05 49.5136 241.409 48.0786 242.127 46.863C242.845 45.6305 243.788 44.6175 244.957 43.824C246.126 43.0305 247.454 42.4396 248.94 42.0513C250.442 41.663 251.97 41.4688 253.523 41.4688C257.063 41.4688 259.643 41.8994 261.262 42.7604V47.5468C259.142 46.061 256.42 45.3182 253.097 45.3182C252.179 45.3182 251.261 45.4195 250.342 45.6221C249.424 45.8078 248.606 46.1201 247.888 46.5591C247.17 46.9981 246.585 47.5636 246.134 48.2558C245.684 48.9481 245.458 49.7922 245.458 50.7883C245.458 51.7169 245.625 52.5188 245.959 53.1942C246.31 53.8695 246.819 54.4857 247.487 55.0429C248.155 55.6 248.965 56.1403 249.916 56.6636C250.885 57.187 251.995 57.761 253.248 58.3857C254.533 59.0273 255.752 59.7026 256.904 60.4117C258.057 61.1208 259.067 61.9058 259.935 62.7669C260.803 63.6279 261.488 64.5818 261.989 65.6286C262.506 66.6753 262.765 67.874 262.765 69.2247C262.765 71.0143 262.415 72.5338 261.713 73.7831C261.029 75.0156 260.094 76.0201 258.908 76.7968C257.739 77.5734 256.387 78.1305 254.851 78.4682C253.314 78.8227 251.695 79 249.992 79C249.424 79 248.723 78.9494 247.888 78.8481C247.053 78.7636 246.201 78.6286 245.333 78.4429C244.465 78.274 243.638 78.063 242.853 77.8097C242.085 77.5396 241.468 77.2442 241 76.9234Z" fill="#68217A"/>
<path d="M279.365 78.139C278.396 78.6792 277.119 78.9494 275.533 78.9494C271.041 78.9494 268.795 76.4169 268.795 71.3519V56.0052H264.387V52.4597H268.795V46.1286L272.903 44.7864V52.4597H279.365V56.0052H272.903V70.6175C272.903 72.3565 273.195 73.5974 273.78 74.3403C274.364 75.0831 275.332 75.4545 276.685 75.4545C277.72 75.4545 278.614 75.1675 279.365 74.5935V78.139Z" fill="#68217A"/>
<path d="M305.332 78.3922H301.224V74.2896H301.124C299.421 77.4299 296.783 79 293.209 79C287.098 79 284.043 75.3195 284.043 67.9584V52.4597H288.125V67.3C288.125 72.7701 290.196 75.5052 294.337 75.5052C296.34 75.5052 297.985 74.7623 299.271 73.2766C300.573 71.774 301.224 69.8156 301.224 67.4013V52.4597H305.332V78.3922Z" fill="#68217A"/>
<path d="M335.281 78.3922H331.174V73.9857H331.073C329.17 77.3286 326.231 79 322.257 79C319.035 79 316.455 77.8435 314.518 75.5305C312.598 73.2006 311.638 70.0351 311.638 66.0338C311.638 61.7455 312.706 58.3097 314.843 55.7266C316.981 53.1435 319.828 51.8519 323.384 51.8519C326.907 51.8519 329.47 53.2532 331.073 56.0558H331.174V40H335.281V78.3922ZM331.174 66.6669V62.8429C331.174 60.7494 330.489 58.9766 329.12 57.5247C327.751 56.0727 326.014 55.3468 323.91 55.3468C321.406 55.3468 319.435 56.2753 317.999 58.1325C316.563 59.9896 315.845 62.5558 315.845 65.8312C315.845 68.8195 316.53 71.1831 317.899 72.9221C319.285 74.6442 321.138 75.5052 323.459 75.5052C325.747 75.5052 327.6 74.6695 329.02 72.9981C330.456 71.3266 331.174 69.2162 331.174 66.6669Z" fill="#68217A"/>
<path d="M345.444 45.8753C344.709 45.8753 344.083 45.6221 343.566 45.1156C343.048 44.6091 342.789 43.9675 342.789 43.1909C342.789 42.4143 343.048 41.7727 343.566 41.2662C344.083 40.7429 344.709 40.4812 345.444 40.4812C346.195 40.4812 346.83 40.7429 347.348 41.2662C347.882 41.7727 348.149 42.4143 348.149 43.1909C348.149 43.9338 347.882 44.5669 347.348 45.0903C346.83 45.6136 346.195 45.8753 345.444 45.8753ZM347.448 78.3922H343.34V52.4597H347.448V78.3922Z" fill="#68217A"/>
<path d="M366.226 79C362.436 79 359.405 77.7929 357.135 75.3786C354.88 72.9474 353.753 69.7312 353.753 65.7299C353.753 61.374 354.931 57.9721 357.285 55.524C359.639 53.076 362.82 51.8519 366.828 51.8519C370.651 51.8519 373.632 53.0422 375.769 55.4227C377.923 57.8032 379 61.1039 379 65.3247C379 69.461 377.84 72.7786 375.519 75.2773C373.214 77.7591 370.117 79 366.226 79ZM366.527 55.3468C363.889 55.3468 361.802 56.2584 360.265 58.0818C358.729 59.8883 357.961 62.387 357.961 65.5779C357.961 68.6507 358.738 71.0734 360.29 72.8461C361.843 74.6188 363.922 75.5052 366.527 75.5052C369.182 75.5052 371.219 74.6357 372.638 72.8968C374.074 71.1578 374.792 68.6844 374.792 65.4766C374.792 62.2351 374.074 59.7364 372.638 57.9805C371.219 56.2247 369.182 55.3468 366.527 55.3468Z" fill="#68217A"/>
<path d="M30.9185 107.031V130.562H29.2114V107.031H22V105.437H38.1299V107.031H30.9185Z" fill="#68217A"/>
<path d="M36.6451 121.661C36.6451 124.126 37.2083 126.053 38.3348 127.443C39.4728 128.833 41.0289 129.528 43.003 129.528C45.0004 129.528 46.9513 128.787 48.8558 127.303V129.02C47.0094 130.34 44.9481 131 42.6721 131C40.3728 131 38.5148 130.171 37.098 128.512C35.6813 126.853 34.9729 124.511 34.9729 121.486C34.9729 118.87 35.7103 116.668 37.1851 114.881C38.6715 113.082 40.5992 112.182 42.9682 112.182C45.1862 112.182 46.8875 112.965 48.0719 114.53C49.2564 116.095 49.8487 118.233 49.8487 120.943V121.661H36.6451ZM48.1765 120.189C48.1068 118.122 47.6132 116.516 46.6958 115.371C45.7784 114.226 44.5127 113.654 42.8985 113.654C41.2263 113.654 39.8386 114.221 38.7354 115.354C37.6438 116.475 36.9703 118.087 36.7148 120.189H48.1765Z" fill="#68217A"/>
<path d="M64.7551 130.562V126.97H64.6854C64.1164 128.197 63.2861 129.178 62.1945 129.914C61.1145 130.638 59.9126 131 58.5888 131C56.8933 131 55.5521 130.521 54.565 129.563C53.5779 128.605 53.0844 127.396 53.0844 125.936C53.0844 122.806 55.1456 120.914 59.2681 120.26L64.7551 119.436C64.7551 115.581 63.3151 113.654 60.4352 113.654C58.4727 113.654 56.5624 114.448 54.7044 116.037V114.092C55.3663 113.567 56.2605 113.117 57.3869 112.743C58.5249 112.369 59.5933 112.182 60.592 112.182C62.4268 112.182 63.8435 112.755 64.8422 113.899C65.8525 115.044 66.3576 116.709 66.3576 118.893V130.562H64.7551ZM59.8429 121.626C57.9733 121.895 56.6611 122.333 55.9063 122.94C55.1515 123.536 54.774 124.511 54.774 125.866C54.774 126.929 55.1224 127.805 55.8192 128.494C56.5275 129.184 57.5088 129.528 58.763 129.528C60.4816 129.528 61.91 128.892 63.048 127.618C64.1861 126.334 64.7551 124.681 64.7551 122.66V120.908L59.8429 121.626Z" fill="#68217A"/>
<path d="M93.9102 130.562V119.769C93.9102 117.515 93.556 115.932 92.8476 115.021C92.1509 114.11 91.0418 113.654 89.5206 113.654C88.1155 113.654 86.902 114.262 85.88 115.476C84.8581 116.691 84.3472 118.215 84.3472 120.049V130.562H82.7446V119.646C82.7446 115.652 81.235 113.654 78.2157 113.654C76.7641 113.654 75.5564 114.267 74.5926 115.494C73.6287 116.709 73.1468 118.286 73.1468 120.225V130.562H71.5443V112.62H73.1468V115.599H73.2165C74.459 113.321 76.2764 112.182 78.6686 112.182C79.9692 112.182 81.0782 112.562 81.9956 113.321C82.9246 114.069 83.5517 115.056 83.8769 116.282C84.4343 114.986 85.2297 113.981 86.2633 113.269C87.3084 112.544 88.4406 112.182 89.66 112.182C93.5618 112.182 95.5127 114.612 95.5127 119.471V130.562H93.9102Z" fill="#68217A"/>
<path d="M112.383 107.031V117.281H121.615V118.858H112.383V130.562H110.659V105.437H122.329V107.031H112.383Z" fill="#68217A"/>
<path d="M133.874 131C131.273 131 129.212 130.141 127.69 128.424C126.181 126.696 125.426 124.453 125.426 121.696C125.426 118.718 126.216 116.387 127.795 114.705C129.386 113.023 131.476 112.182 134.066 112.182C136.609 112.182 138.618 113.018 140.093 114.688C141.567 116.358 142.305 118.671 142.305 121.626C142.305 124.418 141.55 126.678 140.04 128.407C138.542 130.136 136.487 131 133.874 131ZM133.996 113.654C131.894 113.654 130.216 114.367 128.962 115.792C127.719 117.217 127.098 119.197 127.098 121.731C127.098 124.079 127.708 125.966 128.927 127.391C130.146 128.816 131.813 129.528 133.926 129.528C136.075 129.528 137.729 128.827 138.891 127.426C140.052 126.024 140.633 124.079 140.633 121.591C140.633 119.033 140.052 117.071 138.891 115.704C137.741 114.337 136.109 113.654 133.996 113.654Z" fill="#68217A"/>
<path d="M158.343 130.562V127.303H158.274C157.031 129.768 155.115 131 152.526 131C148.31 131 146.202 128.331 146.202 122.993V112.62H147.822V122.59C147.822 125.019 148.217 126.783 149.007 127.881C149.808 128.979 151.062 129.528 152.769 129.528C154.43 129.528 155.771 128.915 156.793 127.689C157.827 126.462 158.343 124.827 158.343 122.783V112.62H159.946V130.562H158.343Z" fill="#68217A"/>
<path d="M177.605 130.562V120.119C177.605 115.809 176.06 113.654 172.971 113.654C171.252 113.654 169.842 114.291 168.738 115.564C167.635 116.825 167.084 118.391 167.084 120.26V130.562H165.481V112.62H167.084V115.879H167.153C168.454 113.415 170.486 112.182 173.25 112.182C175.178 112.182 176.652 112.831 177.674 114.127C178.696 115.412 179.207 117.252 179.207 119.646V130.562H177.605Z" fill="#68217A"/>
<path d="M197.057 130.562V127.303H196.988C196.407 128.436 195.548 129.335 194.41 130.001C193.272 130.667 191.988 131 190.56 131C188.365 131 186.571 130.194 185.178 128.582C183.796 126.97 183.105 124.745 183.105 121.907C183.105 119.01 183.86 116.668 185.369 114.881C186.89 113.082 188.859 112.182 191.274 112.182C193.945 112.182 195.85 113.286 196.988 115.494H197.057V104H198.66V130.562H197.057ZM197.057 119.646C197.057 117.976 196.529 116.563 195.472 115.406C194.427 114.238 193.016 113.654 191.239 113.654C189.37 113.654 187.825 114.378 186.606 115.827C185.387 117.263 184.777 119.243 184.777 121.766C184.777 124.243 185.323 126.158 186.414 127.513C187.518 128.857 188.934 129.528 190.665 129.528C192.697 129.528 194.27 128.897 195.385 127.636C196.5 126.363 197.057 124.815 197.057 122.993V119.646Z" fill="#68217A"/>
<path d="M214.873 130.562V126.97H214.803C214.234 128.197 213.404 129.178 212.312 129.914C211.232 130.638 210.03 131 208.706 131C207.011 131 205.67 130.521 204.683 129.563C203.696 128.605 203.202 127.396 203.202 125.936C203.202 122.806 205.263 120.914 209.386 120.26L214.873 119.436C214.873 115.581 213.433 113.654 210.553 113.654C208.59 113.654 206.68 114.448 204.822 116.037V114.092C205.484 113.567 206.378 113.117 207.504 112.743C208.643 112.369 209.711 112.182 210.71 112.182C212.544 112.182 213.961 112.755 214.96 113.899C215.97 115.044 216.475 116.709 216.475 118.893V130.562H214.873ZM209.961 121.626C208.091 121.895 206.779 122.333 206.024 122.94C205.269 123.536 204.892 124.511 204.892 125.866C204.892 126.929 205.24 127.805 205.937 128.494C206.645 129.184 207.626 129.528 208.881 129.528C210.599 129.528 212.028 128.892 213.166 127.618C214.304 126.334 214.873 124.681 214.873 122.66V120.908L209.961 121.626Z" fill="#68217A"/>
<path d="M228.717 130.317C227.88 130.714 227.097 130.912 226.365 130.912C223.729 130.912 222.411 129.324 222.411 126.147V114.092H219.206V112.62H222.411V107.96C222.666 107.866 222.933 107.773 223.212 107.679C223.491 107.598 223.758 107.51 224.013 107.417V112.62H228.717V114.092H224.013V125.936C224.013 127.175 224.205 128.074 224.588 128.635C224.983 129.184 225.645 129.458 226.574 129.458C227.236 129.458 227.95 129.242 228.717 128.81V130.317Z" fill="#68217A"/>
<path d="M232.858 108.1C232.51 108.1 232.202 107.971 231.935 107.714C231.668 107.457 231.534 107.13 231.534 106.733C231.534 106.348 231.668 106.038 231.935 105.805C232.214 105.559 232.521 105.437 232.858 105.437C233.218 105.437 233.532 105.554 233.799 105.787C234.077 106.021 234.217 106.336 234.217 106.733C234.217 107.107 234.083 107.428 233.816 107.697C233.549 107.966 233.23 108.1 232.858 108.1ZM232.074 130.562V112.62H233.677V130.562H232.074Z" fill="#68217A"/>
<path d="M246.371 131C243.77 131 241.708 130.141 240.187 128.424C238.678 126.696 237.923 124.453 237.923 121.696C237.923 118.718 238.712 116.387 240.292 114.705C241.883 113.023 243.973 112.182 246.563 112.182C249.106 112.182 251.115 113.018 252.59 114.688C254.064 116.358 254.802 118.671 254.802 121.626C254.802 124.418 254.047 126.678 252.537 128.407C251.039 130.136 248.984 131 246.371 131ZM246.493 113.654C244.391 113.654 242.713 114.367 241.459 115.792C240.216 117.217 239.595 119.197 239.595 121.731C239.595 124.079 240.205 125.966 241.424 127.391C242.643 128.816 244.31 129.528 246.423 129.528C248.572 129.528 250.226 128.827 251.388 127.426C252.549 126.024 253.13 124.079 253.13 121.591C253.13 119.033 252.549 117.071 251.388 115.704C250.238 114.337 248.606 113.654 246.493 113.654Z" fill="#68217A"/>
<path d="M271.189 130.562V120.119C271.189 115.809 269.644 113.654 266.555 113.654C264.837 113.654 263.426 114.291 262.323 115.564C261.219 116.825 260.668 118.391 260.668 120.26V130.562H259.065V112.62H260.668V115.879H260.737C262.038 113.415 264.07 112.182 266.834 112.182C268.762 112.182 270.236 112.831 271.258 114.127C272.28 115.412 272.791 117.252 272.791 119.646V130.562H271.189Z" fill="#68217A"/>
<path d="M287.154 129.668V127.689C288.942 128.833 290.753 129.406 292.588 129.406C294.539 129.406 296.02 129.003 297.03 128.197C298.04 127.379 298.546 126.24 298.546 124.78C298.546 123.495 298.203 122.473 297.518 121.714C296.844 120.943 295.375 119.897 293.111 118.578C290.579 117.094 288.977 115.856 288.303 114.863C287.63 113.859 287.293 112.702 287.293 111.394C287.293 109.618 287.978 108.112 289.348 106.873C290.719 105.635 292.548 105.016 294.835 105.016C296.322 105.016 297.808 105.267 299.295 105.77V107.592C297.831 106.926 296.269 106.593 294.609 106.593C292.913 106.593 291.566 107.025 290.568 107.89C289.581 108.754 289.087 109.852 289.087 111.184C289.087 112.469 289.424 113.491 290.097 114.25C290.782 115.009 292.251 116.043 294.504 117.351C296.838 118.683 298.389 119.868 299.155 120.908C299.933 121.936 300.322 123.121 300.322 124.465C300.322 126.392 299.655 127.963 298.319 129.178C296.995 130.393 295.12 131 292.693 131C291.833 131 290.841 130.866 289.714 130.597C288.599 130.328 287.746 130.019 287.154 129.668Z" fill="#68217A"/>
<path d="M305.526 121.661C305.526 124.126 306.09 126.053 307.216 127.443C308.354 128.833 309.91 129.528 311.884 129.528C313.882 129.528 315.832 128.787 317.737 127.303V129.02C315.891 130.34 313.829 131 311.553 131C309.254 131 307.396 130.171 305.979 128.512C304.562 126.853 303.854 124.511 303.854 121.486C303.854 118.87 304.591 116.668 306.066 114.881C307.553 113.082 309.48 112.182 311.849 112.182C314.067 112.182 315.769 112.965 316.953 114.53C318.138 116.095 318.73 118.233 318.73 120.943V121.661H305.526ZM317.058 120.189C316.988 118.122 316.494 116.516 315.577 115.371C314.66 114.226 313.394 113.654 311.78 113.654C310.107 113.654 308.72 114.221 307.617 115.354C306.525 116.475 305.851 118.087 305.596 120.189H317.058Z" fill="#68217A"/>
<path d="M331.389 114.302C330.855 113.917 330.228 113.724 329.508 113.724C328.103 113.724 326.924 114.454 325.972 115.914C325.02 117.374 324.544 119.448 324.544 122.134V130.562H322.976V112.62H324.544V116.598H324.613C325.02 115.231 325.664 114.168 326.547 113.409C327.429 112.65 328.451 112.27 329.612 112.27C330.274 112.27 330.867 112.375 331.389 112.585V114.302Z" fill="#68217A"/>
<path d="M342.62 130.562H341.157L334.259 112.62H336.053L341.366 126.9C341.622 127.589 341.802 128.214 341.906 128.775H341.976C342.127 128.039 342.295 127.437 342.481 126.97L347.968 112.62H349.71L342.62 130.562Z" fill="#68217A"/>
<path d="M353.137 121.661C353.137 124.126 353.7 126.053 354.827 127.443C355.965 128.833 357.521 129.528 359.495 129.528C361.492 129.528 363.443 128.787 365.348 127.303V129.02C363.501 130.34 361.44 131 359.164 131C356.865 131 355.007 130.171 353.59 128.512C352.173 126.853 351.465 124.511 351.465 121.486C351.465 118.87 352.202 116.668 353.677 114.881C355.163 113.082 357.091 112.182 359.46 112.182C361.678 112.182 363.379 112.965 364.564 114.53C365.748 116.095 366.341 118.233 366.341 120.943V121.661H353.137ZM364.668 120.189C364.599 118.122 364.105 116.516 363.188 115.371C362.27 114.226 361.005 113.654 359.39 113.654C357.718 113.654 356.331 114.221 355.227 115.354C354.136 116.475 353.462 118.087 353.207 120.189H364.668Z" fill="#68217A"/>
<path d="M379 114.302C378.466 113.917 377.839 113.724 377.119 113.724C375.714 113.724 374.535 114.454 373.583 115.914C372.63 117.374 372.154 119.448 372.154 122.134V130.562H370.587V112.62H372.154V116.598H372.224C372.63 115.231 373.275 114.168 374.158 113.409C375.04 112.65 376.062 112.27 377.223 112.27C377.885 112.27 378.477 112.375 379 112.585V114.302Z" fill="#68217A"/>
</svg>
