<svg width="400" height="160" viewBox="0 0 400 160" fill="none" xmlns="http://www.w3.org/2000/svg">
<path d="M83.5461 123.932L59 52.1367H75.7188L90.7573 100.337L107.252 52H118.958L135.565 100.337L150.603 52.205H167L142.356 124H129.082L113.105 76.3736L96.8063 123.932H83.5461Z" fill="#647883"/>
<path d="M168 124V72.077H182.899V83.5039C187.506 70.1121 203 72.1048 203 72.1048V86.4443C203 86.4443 182.899 85.0507 182.899 101.035V123.944L168 124Z" fill="#647883"/>
<path d="M208 124V92.7075L225 79V124H208Z" fill="#647883"/>
<path d="M236 124V67.4477L250.91 53V91.5271L269.111 72.7314H287.397L264.429 95.8202L291 123.945H271.792L250.938 101.929V123.945L236 124Z" fill="#647883"/>
<path d="M296.199 117.552C290.777 112.626 288.01 106.04 288.01 97.9332C287.913 94.4156 288.515 90.9135 289.78 87.6316C291.045 84.3495 292.948 81.3531 295.378 78.8171C300.3 73.5846 306.75 71.0172 314.633 71.0172C317.99 70.8838 321.332 71.528 324.402 72.9001C327.47 74.2721 330.184 76.335 332.33 78.9287C336.811 84.3039 339.179 91.1371 338.989 98.1425V101.938H302.343C303.873 108.914 310.434 112.626 319.443 112.626C325.203 112.591 330.853 111.032 335.82 108.105V119.756C331.204 123.245 324.698 124.989 316.357 124.989C308.936 125.196 301.719 122.534 296.199 117.552ZM324.754 92.6867C324.734 91.2998 324.439 89.9308 323.886 88.6598C323.333 87.3889 322.532 86.2416 321.531 85.2852C320.53 84.3287 319.348 83.5823 318.057 83.0899C316.765 82.5974 315.389 82.3687 314.007 82.4171C311.113 82.2662 308.275 83.2551 306.097 85.1733C303.918 87.0913 302.571 89.7871 302.343 92.6867H324.754Z" fill="#647883"/>
<path d="M240.242 34L207 66.3776L216.879 76L260 34H240.242Z" fill="#00A651"/>
<path d="M209.884 52H191L215.558 76L225 66.7723L209.884 52Z" fill="#A6CE39"/>
</svg>
