<svg width="400" height="160" viewBox="0 0 400 160" fill="none" xmlns="http://www.w3.org/2000/svg">
<path d="M92.4957 86.4873L70.2886 51.4448H85.1612L98.9473 74.6027L113.005 51.4448H127.47L105.263 86.2156V109.238H92.5636V86.4873H92.4957Z" fill="black"/>
<path d="M113.005 87.3703V87.2345C113.005 74.535 123.26 64.2124 137.046 64.2124C150.764 64.2124 160.883 74.3312 160.883 87.0986V87.2345C160.883 99.934 150.628 110.257 136.842 110.257C123.192 110.257 113.005 100.07 113.005 87.3703ZM148.523 87.3703V87.2345C148.523 80.715 143.837 75.0104 136.91 75.0104C129.711 75.0104 125.433 80.5112 125.433 87.0307V87.1666C125.433 93.6861 130.119 99.3907 137.046 99.3907C144.245 99.3907 148.523 93.8898 148.523 87.3703Z" fill="black"/>
<path d="M162.716 93.6182V65.0273H175.212V89.6793C175.212 95.5876 177.996 98.6436 182.818 98.6436C187.572 98.6436 190.628 95.5876 190.628 89.6793V65.0273H203.192V109.238H190.628V102.99C187.708 106.725 184.041 110.053 177.657 110.053C168.217 110.053 162.716 103.805 162.716 93.6182Z" fill="black"/>
<path d="M220.917 63.1936H203.328V51.4448H251.205V63.1936H233.616V109.238H220.917V63.1936Z" fill="black"/>
<path d="M248.489 65.0272H261.053V73.9236C263.633 67.8116 267.708 63.8727 275.178 64.2122V77.3192H274.499C266.146 77.3192 261.053 82.3447 261.053 92.9389V109.306H248.489V65.0272Z" fill="black"/>
<path d="M272.462 96.5382V96.4024C272.462 86.7589 279.796 82.2767 290.255 82.2767C294.737 82.2767 297.929 83.0237 301.052 84.1103V83.3633C301.052 78.1341 297.861 75.2818 291.545 75.2818C286.791 75.2818 283.395 76.1647 279.321 77.6587L276.197 68.0832C281.086 65.91 285.84 64.5518 293.378 64.5518C300.238 64.5518 305.195 66.3854 308.319 69.5093C311.647 72.837 313.073 77.6587 313.073 83.635V109.306H300.917V104.552C297.861 107.947 293.65 110.188 287.538 110.188C279.253 110.053 272.462 105.299 272.462 96.5382ZM301.256 93.618V91.3769C299.083 90.3582 296.299 89.747 293.243 89.747C287.878 89.747 284.55 91.9202 284.55 95.8591V95.9949C284.55 99.3905 287.334 101.36 291.409 101.36C297.249 101.428 301.256 98.1681 301.256 93.618Z" fill="black"/>
<path d="M314.839 87.3703V87.2345C314.839 74.6029 324.482 64.2124 337.997 64.2124C346.35 64.2124 351.511 66.9968 355.654 71.6148L347.98 79.9C345.195 76.9119 342.343 75.0104 337.929 75.0104C331.681 75.0104 327.199 80.5112 327.199 87.0307V87.1666C327.199 93.9577 331.545 99.3907 338.404 99.3907C342.615 99.3907 345.535 97.5571 348.523 94.7048L355.857 102.107C351.579 106.793 346.621 110.189 337.793 110.189C324.55 110.257 314.839 100.002 314.839 87.3703Z" fill="black"/>
<path d="M357.148 49H369.711V81.1222L384.38 65.0272H399.389L382.547 82.4126L400 109.238H385.467L374.194 91.1053L369.711 95.7912V109.238H357.148V49Z" fill="black"/>
<path d="M57.725 51.5127H0V109.238H57.725V51.5127Z" fill="black"/>
<path d="M27.0968 98.4395H5.43298V102.039H27.0968V98.4395Z" fill="white"/>
<path d="M10.3905 67.472L4.88965 58.7114H8.55688L12.0204 64.4839L15.4839 58.7114H19.0832L13.5823 67.4041V73.1087H10.3905V67.472Z" fill="white"/>
<path d="M25.0594 61.6316H20.713V58.7114H32.5976V61.6316H28.2512V73.1087H25.0594V61.6316Z" fill="white"/>
</svg>
