<svg width="162" height="49" viewBox="0 0 162 49" fill="none" xmlns="http://www.w3.org/2000/svg">
<g filter="url(#filter0_d)">
<path d="M24 46C36.1503 46 46 36.1503 46 24C46 11.8497 36.1503 2 24 2C11.8497 2 2 11.8497 2 24C2 36.1503 11.8497 46 24 46Z" fill="white"/>
</g>
<path d="M29.7923 31.6529C28.182 32.8739 26.1752 33.5996 23.9982 33.5996C21.8102 33.5996 19.7944 32.8665 18.18 31.6338L13.3005 36.4597C16.1751 38.9297 19.9108 40.4263 23.9982 40.4263C28.0668 40.4263 31.787 38.9439 34.6562 36.494L29.7923 31.6529Z" fill="#00B2FF"/>
<path d="M33.3172 21.6861C33.5005 22.4272 33.5992 23.2011 33.5992 23.9984C33.5992 26.1596 32.8848 28.1536 31.6797 29.7579L36.5429 34.5986C39.0378 31.6459 40.4265 27.8931 40.4265 23.9984C40.4265 21.3431 39.779 18.7505 38.5742 16.4297L33.3172 21.6861Z" fill="#FF4F42"/>
<path d="M16.2982 29.7362C15.1039 28.1359 14.3972 26.1517 14.3972 24.0012C14.3972 18.6993 18.6952 14.4012 23.9971 14.4012C25.5303 14.4012 26.9781 14.7623 28.2638 15.4016L33.2217 10.4432C30.5848 8.63651 27.4054 7.57422 23.9971 7.57422C14.9854 7.57422 7.57031 14.9897 7.57031 24.0012C7.57031 27.8771 8.94548 31.6134 11.42 34.5608L16.2982 29.7362Z" fill="#17C22E"/>
<path d="M23.0533 27.9503C22.626 27.9503 22.1981 27.7872 21.8722 27.4609L18.6457 24.2346C17.9931 23.5823 17.9931 22.5247 18.6457 21.8726C19.2974 21.2201 20.3557 21.2201 21.0078 21.8726L23.0533 23.9177L36.1058 10.8654C36.7577 10.2128 37.8161 10.2128 38.4681 10.8654C39.1206 11.5175 39.1206 12.5754 38.4681 13.2277L24.2343 27.4609C23.9083 27.7872 23.4807 27.9503 23.0533 27.9503Z" fill="#34393D"/>
<path d="M60.7465 23.3676H64.4733V12.1957H69.4424V8.50772L55.7773 8.47173V12.1957H60.7465V23.3676Z" fill="#212529"/>
<path d="M79.3807 20.8849L75.6539 15.9444V23.3676H71.927V8.47173L74.4116 8.50772L79.3807 14.6783L84.3498 8.50772L86.8344 8.47173V23.3676H83.1075V15.9444L79.3807 20.8849Z" fill="#212529"/>
<path d="M100.5 17.161H94.2881V20.2111H102.984V23.4035L90.5612 23.4035V8.47173H102.984V11.575H94.2881V14.6783H100.5V17.161Z" fill="#212529"/>
<path fill-rule="evenodd" clip-rule="evenodd" d="M127.83 19.6436H125.345V23.4035H121.618V8.47173H128.451C132.178 8.47173 134.662 10.3275 134.662 14.0577C134.662 16.5341 132.799 18.4023 131.557 19.0229L135.283 23.3676H130.935L127.83 19.6436ZM130.935 14.0577C130.935 12.1957 129.693 11.575 127.83 11.575H125.345V16.5118L127.83 16.5403C129.693 16.5403 130.935 15.9196 130.935 14.0577Z" fill="#212529"/>
<path d="M139.01 23.3676V8.47173H142.737V23.3676H139.01Z" fill="#212529"/>
<path d="M114.165 23.4035L110.438 23.4035V12.2317H105.469V8.50772H119.134V12.2317H114.165V23.4035Z" fill="#212529"/>
<path d="M160.767 21.0962C159.286 22.8052 157.082 23.8889 154.621 23.8889C150.163 23.8889 146.548 20.332 146.548 15.9444C146.548 11.5568 150.163 8 154.621 8C157.081 8 159.284 9.08278 160.765 10.7905L157.9 13.123C157.121 12.1381 155.942 11.5104 154.622 11.5104C152.275 11.5104 150.373 13.4956 150.373 15.9445C150.373 18.3934 152.275 20.3786 154.622 20.3786C155.943 20.3786 157.123 19.7499 157.902 18.7636L160.767 21.0962Z" fill="#212529"/>
<path d="M57.5712 41H63.6612V39.796H58.8872V36.562H62.8212V35.358H58.8872V32.404H63.6612V31.2H57.5712V41ZM69.7559 41H71.2119L68.7059 37.43L71.0719 34H69.6719L67.9219 36.534L66.1999 34H64.7719L67.1379 37.416L64.6319 41H66.0599L67.9219 38.326L69.7559 41ZM71.9053 35.148H73.1653V38.942C73.1653 40.258 73.9073 41 75.2233 41H76.3853V39.852H75.4053C74.7613 39.852 74.4253 39.516 74.4253 38.802V35.148H76.2453V34H74.4253V32.04H73.1653V34H71.9053V35.148ZM80.5202 41.112C82.4102 41.112 83.3202 40.202 83.6002 38.83H82.3122C82.0322 39.558 81.6262 39.964 80.5202 39.964C79.4702 39.964 78.7282 39.264 78.6862 37.906H83.6702V37.234C83.6702 35.176 82.3822 33.888 80.5202 33.888C78.6722 33.888 77.3702 35.19 77.3702 37.234V37.766C77.3702 39.838 78.6442 41.112 80.5202 41.112ZM80.5202 35.036C81.5702 35.036 82.2142 35.582 82.3262 36.814H78.7002C78.8262 35.624 79.5262 35.036 80.5202 35.036ZM85.3508 41H86.6108V36.8C86.6388 35.792 87.3668 35.092 88.5008 35.092C89.5228 35.092 90.1108 35.68 90.1108 36.87V41H91.3708V36.87C91.3708 34.938 90.3208 33.888 88.7108 33.888C87.7308 33.888 86.9468 34.28 86.4568 34.966L86.3308 34H85.3508V41ZM95.7835 41.112C97.7295 41.112 98.5835 40.258 98.5835 39.04C98.5835 36.17 94.4395 37.388 94.4395 35.89C94.4395 35.344 94.7755 35.008 95.7835 35.008C96.6655 35.008 96.9875 35.344 97.1275 36.03H98.4435C98.3035 34.728 97.4495 33.888 95.7835 33.888C93.9775 33.888 93.1235 34.742 93.1235 35.89C93.1235 38.564 97.2675 37.346 97.2675 39.04C97.2675 39.656 96.9315 39.992 95.7835 39.992C94.7615 39.992 94.4395 39.656 94.2995 38.83H92.9835C93.1235 40.258 93.9775 41.112 95.7835 41.112ZM100.379 41H101.639V34H100.379V41ZM101.009 32.936C101.485 32.936 101.849 32.572 101.849 32.096C101.849 31.62 101.485 31.256 101.009 31.256C100.533 31.256 100.169 31.62 100.169 32.096C100.169 32.572 100.533 32.936 101.009 32.936ZM106.649 41.112C108.595 41.112 109.869 39.838 109.869 37.766V37.234C109.869 35.148 108.609 33.888 106.649 33.888C104.703 33.888 103.429 35.162 103.429 37.234V37.766C103.429 39.852 104.689 41.112 106.649 41.112ZM106.649 39.908C105.487 39.908 104.745 39.166 104.745 37.766V37.234C104.745 35.82 105.473 35.092 106.649 35.092C107.811 35.092 108.553 35.834 108.553 37.234V37.766C108.553 39.18 107.825 39.908 106.649 39.908ZM111.546 41H112.806V36.8C112.834 35.792 113.562 35.092 114.696 35.092C115.718 35.092 116.306 35.68 116.306 36.87V41H117.566V36.87C117.566 34.938 116.516 33.888 114.906 33.888C113.926 33.888 113.142 34.28 112.652 34.966L112.526 34H111.546V41Z" fill="#34393D"/>
<defs>
<filter id="filter0_d" x="0" y="0.5" width="48" height="48" filterUnits="userSpaceOnUse" color-interpolation-filters="sRGB">
<feFlood flood-opacity="0" result="BackgroundImageFix"/>
<feColorMatrix in="SourceAlpha" type="matrix" values="0 0 0 0 0 0 0 0 0 0 0 0 0 0 0 0 0 0 127 0"/>
<feOffset dy="0.5"/>
<feGaussianBlur stdDeviation="1"/>
<feColorMatrix type="matrix" values="0 0 0 0 0.0578824 0 0 0 0 0.109333 0 0 0 0 0.160784 0 0 0 0.32 0"/>
<feBlend mode="normal" in2="BackgroundImageFix" result="effect1_dropShadow"/>
<feBlend mode="normal" in="SourceGraphic" in2="effect1_dropShadow" result="shape"/>
</filter>
</defs>
</svg>
