<svg width="44" height="44" viewBox="0 0 44 44" fill="none" xmlns="http://www.w3.org/2000/svg">
<g filter="url(#filter0_d)">
<path d="M22 39C31.9411 39 40 30.9411 40 21C40 11.0589 31.9411 3 22 3C12.0589 3 4 11.0589 4 21C4 30.9411 12.0589 39 22 39Z" fill="white"/>
</g>
<path d="M26.7406 27.2619C25.4231 28.2609 23.7812 28.8547 22 28.8547C20.2098 28.8547 18.5605 28.2548 17.2396 27.2463L13.2473 31.1948C15.5992 33.2157 18.6558 34.4401 22 34.4401C25.3288 34.4401 28.3726 33.2273 30.7201 31.2228L26.7406 27.2619Z" fill="#00B2FF"/>
<path d="M29.6237 19.1082C29.7736 19.7145 29.8544 20.3477 29.8544 21C29.8544 22.7683 29.2699 24.3997 28.2839 25.7123L32.2629 29.6729C34.3041 27.257 35.4404 24.1866 35.4404 21C35.4404 18.8275 34.9106 16.7063 33.9248 14.8074L29.6237 19.1082Z" fill="#FF4F42"/>
<path d="M15.7008 25.6923C14.7238 24.383 14.1455 22.7595 14.1455 21C14.1455 16.6621 17.6621 13.1455 22 13.1455C23.2544 13.1455 24.439 13.4409 25.4909 13.964L29.5473 9.90712C27.3899 8.4289 24.7886 7.55975 22 7.55975C14.6268 7.55975 8.55988 13.627 8.55988 21C8.55988 24.1712 9.68502 27.2282 11.7097 29.6397L15.7008 25.6923Z" fill="#17C22E"/>
<path d="M21.2266 24.2333C20.8769 24.2333 20.5269 24.0998 20.2602 23.8328L17.6203 21.1931C17.0864 20.6594 17.0864 19.7941 17.6203 19.2606C18.1536 18.7267 19.0194 18.7267 19.553 19.2606L21.2266 20.9338L31.9059 10.2547C32.4392 9.72077 33.3052 9.72077 33.8386 10.2547C34.3726 10.7882 34.3726 11.6538 33.8386 12.1875L22.1928 23.8328C21.9261 24.0998 21.5762 24.2333 21.2266 24.2333Z" fill="#37474F"/>
<defs>
<filter id="filter0_d" x="0" y="0" width="44" height="44" filterUnits="userSpaceOnUse" color-interpolation-filters="sRGB">
<feFlood flood-opacity="0" result="BackgroundImageFix"/>
<feColorMatrix in="SourceAlpha" type="matrix" values="0 0 0 0 0 0 0 0 0 0 0 0 0 0 0 0 0 0 127 0"/>
<feOffset dy="1"/>
<feGaussianBlur stdDeviation="2"/>
<feColorMatrix type="matrix" values="0 0 0 0 0.0578824 0 0 0 0 0.109333 0 0 0 0 0.160784 0 0 0 0.32 0"/>
<feBlend mode="normal" in2="BackgroundImageFix" result="effect1_dropShadow"/>
<feBlend mode="normal" in="SourceGraphic" in2="effect1_dropShadow" result="shape"/>
</filter>
</defs>
</svg>
