<svg width="400" height="160" viewBox="0 0 400 160" fill="none" xmlns="http://www.w3.org/2000/svg">
<path fill-rule="evenodd" clip-rule="evenodd" d="M388.027 96.3193C392.802 96.3193 395.929 92.6124 395.929 88.0896C395.929 83.541 392.755 79.8824 388.027 79.8824C383.373 79.8824 380.126 83.4201 380.126 88.0896C380.126 92.7816 383.373 96.3193 388.027 96.3193ZM388.488 76.1777C394.935 76.1777 400 81.1834 400 88.0896C400 94.9952 394.935 100.001 388.488 100.001C384.826 100.001 382.189 98.6049 380.37 96.4632V98.1241C380.37 98.895 379.742 99.5202 378.965 99.5202H377.825C377.05 99.5202 376.42 98.895 376.42 98.1241V66.2613C376.42 65.4926 377.05 64.8674 377.825 64.8674H378.965C379.742 64.8674 380.37 65.4926 380.37 66.2613V79.7148C382.189 77.5738 384.826 76.1777 388.488 76.1777ZM370.917 78.0542V98.1244C370.917 98.8952 370.289 99.5205 369.513 99.5205H368.348C367.572 99.5205 366.944 98.8952 366.944 98.1244V96.463C365.103 98.6051 362.436 100.001 358.824 100.001C352.328 100.001 347.31 94.9949 347.31 88.0893C347.31 81.1837 352.328 76.1774 358.824 76.1774C362.436 76.1774 365.103 77.5499 366.944 79.7387V78.0542C366.944 77.2834 367.572 76.6582 368.348 76.6582H369.513C370.289 76.6582 370.917 77.2834 370.917 78.0542ZM367.183 88.0893C367.183 83.4204 363.936 79.8821 359.283 79.8821C354.485 79.8821 351.359 83.5412 351.359 88.0893C351.359 92.6121 354.536 96.319 359.283 96.319C363.936 96.319 367.183 92.7813 367.183 88.0893ZM343.166 66.2613V98.1241C343.166 98.895 342.536 99.5202 341.76 99.5202H340.618C339.844 99.5202 339.215 98.895 339.215 98.1241V66.2613C339.215 65.4926 339.844 64.8674 340.618 64.8674H341.76C342.536 64.8674 343.166 65.4926 343.166 66.2613ZM333.321 66.2613V98.1241C333.321 98.895 332.694 99.5202 331.917 99.5202H330.776C330.001 99.5202 329.372 98.895 329.372 98.1241V66.2613C329.372 65.4926 330.001 64.8674 330.776 64.8674H331.917C332.694 64.8674 333.321 65.4926 333.321 66.2613ZM313.268 76.1774C320.247 76.1774 325.457 81.2787 325.457 88.0893C325.457 94.8999 320.247 100.001 313.268 100.001C306.287 100.001 301.101 94.8999 301.101 88.0893C301.101 81.2787 306.287 76.1774 313.268 76.1774ZM321.386 88.0893C321.386 83.2995 317.87 79.8821 313.268 79.8821C308.639 79.8821 305.148 83.2995 305.148 88.0893C305.148 92.8769 308.639 96.319 313.268 96.319C317.87 96.319 321.386 92.8769 321.386 88.0893ZM299.147 71.0864C299.647 71.7187 299.488 72.644 298.816 73.0934L297.537 73.9483C296.941 74.3455 296.139 74.234 295.678 73.6873C293.421 71.0061 290.076 69.3903 286.111 69.3903C278.646 69.3903 272.999 74.7581 272.999 82.6747C272.999 90.5912 278.646 95.9573 286.111 95.9573C289.994 95.9573 293.359 94.3937 295.623 91.7241C296.098 91.1637 296.929 91.062 297.525 91.495L298.751 92.3823C299.402 92.8537 299.529 93.7784 299.014 94.3915C295.253 98.8775 288.66 101.091 281.613 99.522C274.518 97.9391 269.351 91.962 268.646 84.7773C267.547 73.5884 275.24 65.3252 286.111 65.3252C291.47 65.3252 296.298 67.4805 299.147 71.0864ZM263.465 88.0172V88.1013C263.457 88.8677 262.822 89.4853 262.049 89.4853H245.288C245.872 94.2262 249.144 96.5585 253.117 96.5585C255.372 96.5585 257.426 95.8618 259.182 94.647C259.79 94.2262 260.626 94.3624 261.08 94.9448L261.498 95.4761C261.975 96.0854 261.869 96.9716 261.249 97.437C258.667 99.372 255.828 100.001 252.875 100.001C246.019 100.001 241.193 95.2113 241.193 88.0892C241.193 81.0627 246.043 76.1779 252.631 76.1779C258.933 76.1779 263.394 81.0138 263.465 88.0172ZM245.339 86.308H259.42C258.91 82.2659 256.317 79.6667 252.56 79.6667C248.511 79.6667 245.921 82.4099 245.339 86.308ZM238.192 76.6583C239.196 76.6583 239.875 77.6731 239.488 78.5923L231.019 98.6872C230.799 99.2047 230.29 99.5432 229.723 99.5432H226.939C226.372 99.5432 225.862 99.2064 225.642 98.6888L217.13 78.5934C216.74 77.6747 217.42 76.6583 218.424 76.6583H219.677C220.248 76.6583 220.762 77.0028 220.978 77.5286L228.354 95.5484L235.753 77.5269C235.968 77.0012 236.482 76.6583 237.053 76.6583H238.192ZM213.807 67.5308C213.883 69.0378 212.638 70.3482 211.123 70.4223C209.501 70.502 208.187 69.2971 208.187 67.6824C208.187 66.094 209.421 64.8672 210.972 64.8672C212.499 64.8672 213.731 66.0182 213.807 67.5308ZM212.985 78.0544V98.124C212.985 98.8954 212.358 99.5201 211.582 99.5201H210.44C209.664 99.5201 209.036 98.8954 209.036 98.124V78.0544C209.036 77.2836 209.664 76.6583 210.44 76.6583H211.582C212.358 76.6583 212.985 77.2836 212.985 78.0544ZM204.737 96.5704C205.162 97.2478 204.931 98.1395 204.229 98.5307C202.666 99.3993 200.778 100.001 198.566 100.001C193.597 100.001 190.593 97.2813 190.593 91.4575V80.2445H187.079C186.303 80.2445 185.673 79.6198 185.673 78.849V78.0545C185.673 77.2837 186.303 76.6584 187.079 76.6584H190.593V70.8835C190.593 70.1127 191.223 69.4875 191.999 69.4875H193.162C193.939 69.4875 194.568 70.1127 194.568 70.8835V76.6584H202.833C203.609 76.6584 204.239 77.2837 204.239 78.0545V78.849C204.239 79.6198 203.609 80.2445 202.833 80.2445H194.568V91.385C194.568 94.826 196.409 96.3193 198.907 96.3193C200.176 96.3193 201.407 95.9644 202.501 95.4194C203.153 95.0963 203.943 95.3106 204.329 95.9237L204.737 96.5704ZM183.808 95.4179C184.337 96.0075 184.269 96.9112 183.661 97.4211C181.649 99.1073 179.035 100.001 176.148 100.001C169.024 100.001 164.199 94.8998 164.199 88.0893C164.199 81.2787 169.024 76.1774 176.148 76.1774C179.027 76.1774 181.666 77.0498 183.661 78.7497C184.27 79.2689 184.32 80.1903 183.768 80.7705L183.078 81.4924C182.584 82.0144 181.772 82.0732 181.2 81.6369C179.719 80.5117 178.056 79.8826 176.05 79.8826C171.617 79.8826 168.248 83.2994 168.248 88.0893C168.248 92.8769 171.617 96.3195 176.05 96.3195C178.031 96.3195 179.802 95.6124 181.264 94.5279C181.853 94.0922 182.676 94.162 183.164 94.7053L183.808 95.4179ZM162.494 97.5985C162.868 98.5155 162.189 99.5204 161.192 99.5204H159.65C159.077 99.5204 158.562 99.1737 158.346 98.6457L154.968 90.3259H138.514L135.157 98.644C134.943 99.1715 134.427 99.5204 133.852 99.5204H132.456C131.46 99.5204 130.78 98.5155 131.157 97.5985L143.804 66.6999C144.02 66.1741 144.533 65.8296 145.106 65.8296H148.522C149.092 65.8296 149.606 66.1741 149.822 66.6999L162.494 97.5985ZM153.346 86.308L146.753 70.0173L140.135 86.308H153.346Z" fill="#5542FA"/>
<path fill-rule="evenodd" clip-rule="evenodd" d="M30.9307 57.0137L25.8184 67.1115C29.9211 69.847 33.5409 73.1806 36.6061 76.5143L42.1472 65.5232C42.6014 64.5896 43.5367 63.9993 44.5607 63.9993H46.7893C47.8141 63.9993 48.7495 64.5896 49.2036 65.5232L54.6165 76.25C57.9239 72.8039 61.5969 69.7621 65.5544 67.1741L60.41 57.0137C56.8805 50.0436 53.6077 48.3549 48.8027 47.6779C47.9602 47.5595 46.6433 47.4736 45.6699 47.4736C44.6974 47.4736 43.3805 47.5595 42.5381 47.6779C36.3098 48.5565 33.6531 51.6362 30.9307 57.0137ZM45.5864 88.233C47.1396 85.5661 48.8643 83.0347 50.7535 80.6605L45.675 70.2126L40.4318 80.9994C42.5921 83.7281 44.3277 86.2611 45.5864 88.233ZM20.9365 70.4777L19.8315 69.8282C19.2077 69.4618 18.9772 68.662 19.3064 68.0108L26.1425 54.509H26.1434C29.4306 48.0159 33.3509 43.4467 41.7994 42.2566C42.8884 42.103 44.4434 42 45.6699 42C46.8974 42 48.4523 42.103 49.5413 42.2566C57.9898 43.4467 61.9101 48.0159 65.1973 54.509L70.2109 64.4094C78.4264 59.9998 87.6278 57.4281 97.2058 57.1038C98.8595 57.048 100.231 58.5359 99.9519 60.2993C99.7425 61.6147 98.5624 62.532 97.2522 62.5792C76.7785 63.3222 58.1848 75.2666 48.7014 93.7804C48.6811 93.8207 48.6558 93.8559 48.633 93.8928C48.6355 93.8945 48.6364 93.8954 48.638 93.8971C48.6152 93.9374 48.5866 93.9726 48.5621 94.0112C48.5308 94.0601 48.5004 94.109 48.4667 94.1545C47.826 95.0701 46.7868 95.6287 45.6758 95.6287H45.6649C44.6434 95.6287 43.6777 95.1525 43.0446 94.3381L42.7018 93.8962C40.5399 90.1353 32.581 77.3277 20.9365 70.4777ZM97.1669 76.7827C98.8375 76.7004 100.218 78.1754 99.9594 79.9473C99.7669 81.2653 98.5978 82.1869 97.2884 82.2572C91.8883 82.5456 86.5599 84.109 81.6822 86.6626C81.781 86.8479 81.8857 87.047 82.0056 87.2718C83.5284 90.1472 86.1699 95.1738 89.8564 102.211C91.8098 105.942 91.8368 109.773 89.929 113.001C88.1224 116.061 84.7196 118.116 81.4628 118.116C81.4628 118.116 76.331 118.12 76.1377 118.12C72.1591 118.12 66.5125 117.752 63.1079 109.288L62.2308 107.112C60.9772 109.003 59.6232 110.871 58.367 112.566C54.3403 117.997 49.7092 118.12 45.9349 118.12H45.4022C41.6313 118.12 37.0002 117.998 32.9743 112.566C31.6507 110.78 30.4241 108.94 29.2414 107.122L28.2056 109.357C24.7977 117.754 19.1713 118.12 15.2028 118.12C15.0095 118.12 9.87779 118.116 9.87779 118.116C6.62097 118.116 3.21812 116.061 1.41159 113.001C-0.495398 109.773 -0.469228 105.942 1.48419 102.211L6.4361 92.7592L11.4387 83.2097C11.7915 82.5361 12.618 82.2761 13.2747 82.6468C18.3009 85.4845 25.8521 91.5682 32.7101 102.521C34.1984 104.899 35.6664 107.104 37.2746 109.272C39.7792 112.651 42.2484 112.649 45.6682 112.646C49.0887 112.648 51.5622 112.65 54.0668 109.272C56.0625 106.579 58.3139 103.445 59.8714 100.622C67.4486 86.8848 82.0883 77.5267 97.1669 76.7827ZM85.1028 104.783C80.421 95.8457 78.1553 91.5459 77.0587 89.4779C72.5837 92.6193 68.6803 96.6523 65.7274 101.35L68.0911 107.215C70.2868 112.673 72.9695 112.662 76.6805 112.644L81.4628 112.642C82.6252 112.642 84.3692 111.78 85.313 110.183C86.234 108.625 86.1631 106.808 85.1028 104.783ZM23.2495 107.217C23.263 107.182 25.04 103.345 25.7626 101.788C22.6923 97.2169 19.3612 92.9308 14.3443 89.3089L11.1896 95.3308L6.23772 104.784C5.17744 106.808 5.10653 108.625 6.02752 110.183C6.97131 111.78 8.71537 112.642 9.87779 112.642L14.66 112.644C18.3752 112.662 21.0538 112.673 23.2495 107.217Z" fill="#5542FA"/>
<g opacity="0.2">
<path opacity="0.2" d="M27.2499 111.378C19.4427 101.773 12.4385 95.6718 6.23737 93.0756C6.22735 93.0714 7.32072 90.9835 9.51749 86.812C11.5885 87.6661 13.1583 88.4876 14.2268 89.2764C19.8911 93.4579 24.1452 98.8327 29.1733 107.203C29.2112 107.266 28.57 108.658 27.2499 111.378Z" fill="black"/>
<path opacity="0.2" d="M64.0173 111.446C71.865 101.81 78.8894 95.6937 85.0905 93.0975C85.1005 93.0933 83.9659 90.9478 81.6866 86.6611C79.6882 87.764 78.1502 88.7028 77.0728 89.4775C71.8173 93.2563 69.4768 95.853 65.7276 101.344C64.3816 103.315 63.3812 104.987 62.2338 107.12C62.1988 107.185 62.7933 108.627 64.0173 111.446Z" fill="black"/>
</g>
</svg>
