<svg width="400" height="160" viewBox="0 0 400 160" fill="none" xmlns="http://www.w3.org/2000/svg">
<path d="M100.913 151.949C92.8726 151.949 86.3551 145.257 86.3551 137C86.3551 128.743 92.8726 122.05 100.914 122.05C108.955 122.05 115.471 128.743 115.471 137C115.471 145.257 108.955 151.949 100.914 151.949H100.913ZM115.518 153.845C115.518 155.214 117.853 159.06 120.714 159.06H122.567C123.286 159.06 123.873 158.469 123.873 157.748V116.836H123.866C123.848 116.502 123.704 116.187 123.462 115.956C123.221 115.726 122.9 115.597 122.567 115.595H116.826C116.131 115.595 115.564 116.148 115.525 116.836H115.518V120.161C112.001 115.808 106.454 114.001 100.891 114.001C88.248 114.001 78 124.298 78 137C78 149.703 88.248 160 100.891 160C106.454 160 112.516 157.832 115.518 153.84V153.847V153.845ZM137.592 147.987C141.425 150.653 145.609 151.949 149.629 151.949C153.461 151.949 157.419 149.953 157.419 146.481C157.419 141.847 148.79 141.125 143.37 139.274C137.947 137.423 133.276 133.595 133.276 127.398C133.276 117.916 141.687 114 149.537 114C154.51 114 159.641 115.647 162.968 118.008C164.115 118.88 163.416 119.882 163.416 119.882L160.24 124.438C159.884 124.952 159.144 125.361 158.364 124.84C156.224 123.419 153.841 122.049 149.536 122.049C144.207 122.049 141.863 124.272 141.863 127.026C141.863 130.329 145.612 131.367 150.003 132.493C157.656 134.564 166.006 137.057 166.006 146.482C166.006 154.837 158.226 160 149.629 160C143.115 160 137.567 158.134 132.915 154.705C131.947 153.73 132.624 152.825 132.624 152.825L135.783 148.292C136.427 147.444 137.237 147.74 137.592 147.987ZM209.067 153.846C209.067 155.214 211.401 159.06 214.262 159.06H216.115C216.834 159.06 217.422 158.469 217.422 157.748V116.836H217.415C217.396 116.502 217.251 116.188 217.01 115.957C216.769 115.726 216.449 115.597 216.115 115.595H210.374C209.678 115.595 209.112 116.148 209.074 116.836H209.067V120.161C205.549 115.808 200.002 114.001 194.44 114.001C181.797 114.001 171.547 124.298 171.547 137C171.547 149.701 181.797 159.999 194.44 159.999C200.002 159.999 206.064 157.831 209.066 153.839V153.846H209.067ZM194.462 151.95C186.421 151.95 179.903 145.257 179.903 137C179.903 128.743 186.421 122.05 194.462 122.05C202.502 122.05 209.02 128.743 209.02 137C209.02 145.257 202.502 151.949 194.462 151.949V151.95ZM268.866 155.251L268.864 134.083C268.864 122.15 261.371 114.099 249.42 114.099C243.717 114.099 239.05 117.413 237.399 120.26V120.219L237.389 120.252C237.385 117.372 235.06 115.694 232.193 115.694H230.349C229.63 115.694 229.043 116.286 229.043 117.008V157.92H229.05C229.087 158.61 229.656 159.162 230.349 159.162H236.091C236.179 159.162 236.265 159.152 236.348 159.136C236.387 159.128 236.422 159.112 236.459 159.102C236.503 159.089 236.547 159.079 236.587 159.062C236.639 159.041 236.685 159.012 236.732 158.985C236.755 158.971 236.78 158.961 236.803 158.947C236.859 158.908 236.913 158.865 236.963 158.818C236.972 158.81 236.982 158.804 236.99 158.796C237.23 158.567 237.373 158.253 237.39 157.92H237.399V133.754C237.399 127.345 242.57 122.149 248.951 122.149C255.33 122.149 260.502 127.345 260.502 133.754L260.506 153.955L260.508 153.947C260.508 153.965 260.512 153.985 260.512 154.003V157.92H260.52C260.558 158.61 261.124 159.162 261.819 159.162H267.56C267.649 159.162 267.734 159.152 267.818 159.136C267.852 159.129 267.883 159.114 267.916 159.107C267.964 159.092 268.011 159.08 268.057 159.062C268.104 159.042 268.147 159.015 268.19 158.99C268.218 158.975 268.247 158.964 268.272 158.947C268.326 158.91 268.374 158.869 268.422 158.827C268.434 158.817 268.448 158.808 268.46 158.795C268.513 158.744 268.561 158.686 268.606 158.627C268.757 158.422 268.845 158.178 268.859 157.924L268.86 157.92H268.867V155.251H268.866ZM313.645 153.846C313.645 155.214 315.977 159.06 318.839 159.06H320.693C321.411 159.06 322 158.469 322 157.748V116.836H321.993C321.975 116.502 321.83 116.187 321.588 115.957C321.347 115.726 321.027 115.597 320.693 115.595H314.953C314.619 115.596 314.299 115.725 314.057 115.956C313.815 116.187 313.671 116.502 313.653 116.836H313.645V120.161C310.125 115.808 304.58 114.001 299.016 114.001C286.375 114.001 276.125 124.298 276.125 137C276.125 149.701 286.375 159.999 299.016 159.999C304.58 159.999 310.641 157.831 313.642 153.839L313.645 153.846ZM299.041 151.95C291 151.95 284.482 145.257 284.482 137C284.482 128.743 291 122.05 299.041 122.05C307.079 122.05 313.596 128.743 313.596 137C313.596 145.257 307.079 151.949 299.041 151.949V151.95Z" fill="#283343"/>
<path d="M226.21 44.9995C215.278 44.9995 206.418 53.9532 206.418 64.9983C206.418 76.0444 215.278 85 226.21 85C237.14 85 246 76.0444 246 64.9983C246 53.9532 237.14 44.9995 226.21 44.9995ZM174.791 45.0004C163.861 45.0014 155 53.9532 155 64.9993C155 76.0444 163.861 84.9991 174.791 84.9991C185.722 84.9991 194.583 76.0444 194.583 64.9993C194.583 53.9532 185.722 45.0004 174.79 45.0004H174.791ZM220.291 19.9998C220.291 31.0449 211.431 40.0015 200.501 40.0015C189.569 40.0015 180.709 31.0449 180.709 19.9998C180.709 8.95467 189.569 0 200.501 0C211.431 0 220.29 8.95467 220.29 19.9998H220.291Z" fill="url(#paint0_radial)"/>
<defs>
<radialGradient id="paint0_radial" cx="0" cy="0" r="1" gradientUnits="userSpaceOnUse" gradientTransform="translate(200.5 46.4542) scale(60.2993 56.3235)">
<stop stop-color="#FFB900"/>
<stop offset="0.6" stop-color="#F95D8F"/>
<stop offset="0.9991" stop-color="#F95353"/>
</radialGradient>
</defs>
</svg>
