<svg width="400" height="160" viewBox="0 0 400 160" fill="none" xmlns="http://www.w3.org/2000/svg">
<path d="M391.59 79.4596V100.231C391.59 102.206 391.908 103.48 392.545 104.117C393.182 104.754 394.52 105.073 396.432 105.073C397.069 105.073 397.706 105.073 398.28 105.009C398.853 104.945 399.426 104.882 400 104.754V113.674C399.044 113.866 397.961 113.929 396.75 113.993C395.54 114.057 394.393 114.057 393.246 114.057C391.462 114.057 389.742 113.929 388.149 113.674C386.556 113.42 385.154 112.974 383.944 112.273C382.733 111.572 381.778 110.552 381.077 109.278C380.376 108.004 379.994 106.283 379.994 104.181V79.4596H365.913V113.738H354.38V79.4596H347.499V71.7502H354.38V68.5007C354.38 64.7416 355.527 61.6833 357.885 59.3258C360.242 56.9684 363.746 55.7578 368.461 55.7578C369.481 55.7578 370.5 55.8215 371.519 55.8852C372.539 55.949 373.558 56.0127 374.514 56.0764V64.6779C373.176 64.4867 371.774 64.423 370.309 64.423C368.716 64.423 367.633 64.8053 366.932 65.5061C366.231 66.207 365.913 67.4813 365.913 69.2016V71.6865H379.994V59.1347H391.526V71.7502H400V79.4596H391.59Z" fill="#0A0A0A"/>
<path d="M304.619 83.665C305.639 80.9253 307.104 78.6315 309.016 76.6564C310.927 74.745 313.157 73.2158 315.833 72.1964C318.509 71.1132 321.44 70.6035 324.753 70.6035C328.066 70.6035 331.061 71.1132 333.737 72.1964C336.413 73.2795 338.707 74.745 340.618 76.6564C342.53 78.5678 343.995 80.9253 345.014 83.665C346.034 86.4047 346.544 89.463 346.544 92.7762C346.544 96.1531 346.034 99.1476 345.014 101.887C343.995 104.627 342.53 106.921 340.618 108.832C338.707 110.744 336.413 112.209 333.737 113.229C331.061 114.248 328.066 114.758 324.753 114.758C321.44 114.758 318.445 114.248 315.833 113.229C313.157 112.209 310.927 110.744 309.016 108.832C307.104 106.921 305.639 104.627 304.619 101.887C303.6 99.2114 303.09 96.1531 303.09 92.7762C303.09 89.463 303.6 86.4047 304.619 83.665ZM315.069 97.6822C315.387 99.2751 315.961 100.741 316.725 102.015C317.49 103.289 318.573 104.309 319.847 105.073C321.121 105.838 322.778 106.22 324.689 106.22C326.665 106.22 328.257 105.838 329.595 105.073C330.933 104.309 331.953 103.289 332.781 102.015C333.546 100.741 334.119 99.3388 334.438 97.6822C334.756 96.0893 334.947 94.4328 334.947 92.7762C334.947 91.1196 334.756 89.463 334.438 87.8064C334.119 86.2136 333.546 84.7482 332.781 83.4739C332.017 82.1996 330.933 81.2438 329.595 80.4156C328.257 79.651 326.601 79.2687 324.689 79.2687C322.714 79.2687 321.121 79.651 319.847 80.4156C318.573 81.1801 317.49 82.1996 316.725 83.4739C315.961 84.7482 315.387 86.1499 315.069 87.8064C314.75 89.3993 314.559 91.0559 314.559 92.7762C314.623 94.4965 314.75 96.0893 315.069 97.6822Z" fill="#0A0A0A"/>
<path d="M272.507 103.289C273.017 104.181 273.654 104.882 274.482 105.455C275.311 106.029 276.203 106.475 277.286 106.73C278.369 106.985 279.452 107.112 280.599 107.112C281.427 107.112 282.255 107.048 283.147 106.857C284.039 106.666 284.868 106.347 285.569 105.965C286.269 105.583 286.907 105.009 287.416 104.372C287.926 103.671 288.117 102.843 288.117 101.824C288.117 100.103 286.97 98.7654 284.677 97.9371C282.383 97.0451 279.197 96.2168 275.056 95.3248C273.399 94.9425 271.743 94.4965 270.15 93.9868C268.557 93.4771 267.155 92.7762 265.881 91.9479C264.607 91.1196 263.651 90.0365 262.886 88.7622C262.122 87.4879 261.739 85.9587 261.739 84.111C261.739 81.435 262.249 79.205 263.332 77.421C264.415 75.7007 265.753 74.299 267.537 73.3432C269.258 72.3238 271.233 71.6229 273.399 71.2407C275.565 70.8584 277.795 70.6035 280.089 70.6035C282.383 70.6035 284.549 70.7947 286.715 71.2407C288.882 71.6867 290.793 72.3875 292.45 73.407C294.106 74.4264 295.508 75.8281 296.655 77.4847C297.738 79.205 298.439 81.3713 298.63 83.9199H287.671C287.48 81.6899 286.652 80.2244 285.123 79.3961C283.593 78.6316 281.809 78.2493 279.771 78.2493C279.133 78.2493 278.433 78.313 277.668 78.3767C276.903 78.4404 276.203 78.6316 275.565 78.8864C274.928 79.1413 274.419 79.5236 273.973 80.0333C273.527 80.543 273.335 81.2439 273.335 82.1359C273.335 83.1553 273.718 83.9836 274.482 84.6844C275.247 85.3216 276.203 85.8313 277.477 86.2773C278.687 86.6596 280.089 87.0419 281.682 87.3605C283.275 87.679 284.868 88.0613 286.461 88.4436C288.117 88.8259 289.774 89.2719 291.367 89.8453C292.959 90.4188 294.361 91.1196 295.635 92.0116C296.91 92.9036 297.865 93.9868 298.63 95.3248C299.395 96.6628 299.777 98.3194 299.777 100.231C299.777 102.971 299.203 105.328 298.12 107.176C297.037 109.023 295.572 110.553 293.788 111.699C292.004 112.846 289.965 113.611 287.671 114.121C285.377 114.567 283.02 114.821 280.663 114.821C278.241 114.821 275.82 114.567 273.527 114.121C271.169 113.611 269.13 112.846 267.283 111.699C265.499 110.553 263.969 109.087 262.823 107.176C261.676 105.328 261.039 102.971 260.911 100.167H271.87C271.743 101.378 271.997 102.397 272.507 103.289Z" fill="#0A0A0A"/>
<path d="M215.037 84.4929C216.056 81.8169 217.522 79.5232 219.369 77.6117C221.217 75.7003 223.511 74.2349 226.123 73.2154C228.735 72.196 231.666 71.6226 234.916 71.6226C238.165 71.6226 241.096 72.1323 243.772 73.2154C246.384 74.2349 248.678 75.7003 250.526 77.6117C252.373 79.5232 253.839 81.8169 254.858 84.4929C255.878 87.1689 256.387 90.1635 256.387 93.4767C256.387 96.7898 255.878 99.7844 254.858 102.46C253.839 105.136 252.373 107.43 250.526 109.278C248.678 111.189 246.384 112.655 243.772 113.61C241.16 114.63 238.165 115.14 234.916 115.14C231.666 115.14 228.735 114.63 226.123 113.61C223.511 112.591 221.281 111.126 219.369 109.278C217.522 107.366 216.056 105.073 215.037 102.46C214.017 99.7844 213.508 96.7898 213.508 93.4767C213.508 90.1635 214.017 87.1689 215.037 84.4929ZM225.358 98.319C225.677 99.9118 226.25 101.314 227.015 102.588C227.78 103.862 228.799 104.818 230.073 105.582C231.348 106.347 232.94 106.729 234.852 106.729C236.763 106.729 238.356 106.347 239.694 105.582C241.032 104.818 242.052 103.862 242.816 102.588C243.581 101.314 244.154 99.9118 244.473 98.319C244.791 96.7261 244.982 95.1332 244.982 93.4767C244.982 91.8201 244.791 90.1635 244.473 88.5706C244.154 86.9778 243.581 85.576 242.816 84.3018C242.052 83.0912 241.032 82.0717 239.694 81.3072C238.356 80.5426 236.763 80.1603 234.852 80.1603C232.94 80.1603 231.348 80.5426 230.073 81.3072C228.799 82.0717 227.78 83.0912 227.015 84.3018C226.25 85.5123 225.677 86.9141 225.358 88.5706C225.04 90.2272 224.849 91.8201 224.849 93.4767C224.849 95.1332 225.04 96.7898 225.358 98.319Z" fill="#0A0A0A"/>
<path d="M199.427 91.056L215.164 113.738H202.039L193.119 100.103C190.188 104.5 187.321 109.024 184.581 113.547L184.454 113.738H171.52C175.725 105.71 180.758 98.2558 186.556 91.3746L172.858 71.7505H186.047L193.947 83.4103C202.549 74.8088 212.424 67.4816 223.192 61.6836C214.718 71.0496 206.754 80.8617 199.427 91.056Z" fill="#0A0A0A"/>
<path d="M130.551 77.9307C131.762 76.1467 133.227 74.6813 135.075 73.5981C136.923 72.515 138.961 71.7504 141.319 71.3044C143.613 70.8584 145.906 70.6035 148.264 70.6035C150.366 70.6035 152.533 70.7309 154.699 71.0495C156.865 71.3681 158.84 71.9415 160.624 72.7698C162.408 73.6618 163.874 74.8724 165.021 76.4015C166.168 77.9307 166.741 79.9696 166.741 82.5181V104.372C166.741 106.284 166.868 108.068 167.06 109.788C167.251 111.508 167.633 112.846 168.206 113.675H156.483C156.292 113.037 156.101 112.337 155.973 111.699C155.846 110.999 155.718 110.361 155.718 109.597C153.871 111.508 151.704 112.846 149.219 113.547C146.735 114.312 144.186 114.694 141.574 114.694C139.599 114.694 137.687 114.439 135.967 113.993C134.247 113.483 132.717 112.719 131.443 111.699C130.169 110.68 129.149 109.342 128.385 107.813C127.684 106.22 127.302 104.372 127.302 102.206C127.302 99.8485 127.748 97.8734 128.576 96.3442C129.404 94.8151 130.487 93.5408 131.825 92.6488C133.163 91.7568 134.693 91.0559 136.349 90.5462C138.069 90.1002 139.79 89.7179 141.51 89.463C143.23 89.2082 144.951 88.9533 146.607 88.8259C148.264 88.6347 149.793 88.4436 151.067 88.125C152.341 87.8065 153.425 87.2967 154.125 86.7233C154.89 86.0862 155.209 85.1942 155.209 83.9836C155.209 82.7093 155.017 81.7536 154.571 80.989C154.189 80.2881 153.616 79.7147 152.979 79.2687C152.278 78.8864 151.513 78.5678 150.621 78.4404C149.729 78.313 148.773 78.2493 147.754 78.2493C145.46 78.2493 143.676 78.759 142.402 79.7147C141.128 80.6704 140.363 82.327 140.108 84.557H128.576C128.703 81.9447 129.404 79.7147 130.551 77.9307ZM153.361 94.2416C152.66 94.4965 151.832 94.6876 151.003 94.8788C150.175 95.0699 149.283 95.1974 148.391 95.2611C147.499 95.3885 146.543 95.5159 145.651 95.6434C144.759 95.8345 143.931 96.0256 143.103 96.2805C142.275 96.5354 141.51 96.9176 140.937 97.3636C140.299 97.8096 139.79 98.3831 139.407 99.0839C139.025 99.7848 138.834 100.677 138.834 101.76C138.834 102.779 139.025 103.671 139.407 104.372C139.79 105.073 140.299 105.647 140.937 106.029C141.574 106.411 142.338 106.73 143.23 106.857C144.122 107.048 145.014 107.112 145.906 107.112C148.2 107.112 149.92 106.73 151.195 105.965C152.469 105.201 153.361 104.309 153.934 103.225C154.508 102.142 154.89 101.123 155.017 100.04C155.145 98.9565 155.209 98.0645 155.209 97.4274V93.0948C154.699 93.6045 154.062 93.9868 153.361 94.2416Z" fill="#0A0A0A"/>
<path fill-rule="evenodd" clip-rule="evenodd" d="M129.277 31.9922C129.277 31.9922 101.242 34.5408 82.3192 48.3031C60.9748 63.7858 60.274 84.3019 62.8863 98.5102C70.086 83.8559 80.7901 70.7307 93.9153 61.8743C94.4887 61.492 95.0621 62.2566 94.5524 62.7026C80.4715 74.9995 69.3852 92.2025 64.6703 111.126C64.4154 112.081 63.2049 112.336 62.5677 111.635C56.6423 104.818 46.1294 98.7014 36.9545 97.2996C36.381 97.2359 36.381 96.3439 36.9545 96.2802C42.6888 95.7068 51.7999 97.8093 57.4068 100.103C55.4317 93.0308 48.3594 84.1744 31.2201 84.5567C13.8898 84.8753 0 93.9228 0 93.9228C0 93.9228 10.9589 117.051 33.705 118.453C49.3788 119.409 56.0688 110.616 57.0245 110.871C57.9165 111.126 64.8614 119.409 66.1357 128.265C66.1994 128.647 66.7092 128.838 66.964 128.583L72.3798 123.805C73.0806 123.168 72.762 123.168 72.6346 122.785C70.2135 116.287 72.1886 109.724 72.1886 109.724C72.1886 109.724 92.3861 116.032 111.564 97.8093C135.967 74.681 129.277 31.9922 129.277 31.9922Z" fill="#8AC732"/>
</svg>
