<svg width="400" height="160" viewBox="0 0 400 160" fill="none" xmlns="http://www.w3.org/2000/svg">
<path d="M96.8838 50.6086L97.0642 50.7427V110.595L24.2621 99.5226L54.7732 136V121.334L96.5555 136L123.838 112.815V45.6274L96.8838 50.6086Z" fill="#0078D4"/>
<path d="M24.2526 64.0396L96.8836 50.6086L62.1082 25V36.9325L24.2526 51.936L13 66.6019V97.8021L24.2619 99.5226L24.2526 99.5134V64.0396Z" fill="#0078D4"/>
<path d="M176.718 93H173.176L170.281 85.3447H158.703L155.98 93H152.419L162.893 65.6924H166.206L176.718 93ZM169.234 82.4692L164.949 70.834C164.81 70.4531 164.67 69.8438 164.53 69.0059H164.454C164.327 69.7803 164.181 70.3896 164.016 70.834L159.77 82.4692H169.234Z" fill="#0078D7"/>
<path d="M193.653 74.395L182.113 90.334H193.538V93H177.523V92.0288L189.063 76.166H178.609V73.5H193.653V74.395Z" fill="#0078D7"/>
<path d="M213.177 93H210.054V89.915H209.978C208.683 92.2764 206.677 93.457 203.961 93.457C199.314 93.457 196.991 90.6895 196.991 85.1543V73.5H200.095V84.6592C200.095 88.7725 201.669 90.8291 204.817 90.8291C206.341 90.8291 207.591 90.2705 208.569 89.1533C209.559 88.0234 210.054 86.5508 210.054 84.7354V73.5H213.177V93Z" fill="#0078D7"/>
<path d="M229.389 76.6611C228.843 76.2422 228.056 76.0327 227.027 76.0327C225.694 76.0327 224.577 76.6611 223.676 77.918C222.787 79.1748 222.343 80.8887 222.343 83.0596V93H219.22V73.5H222.343V77.5181H222.419C222.863 76.147 223.542 75.0806 224.456 74.3188C225.37 73.5444 226.392 73.1572 227.522 73.1572C228.335 73.1572 228.957 73.2461 229.389 73.4238V76.6611Z" fill="#0078D7"/>
<path d="M248.171 84.0308H234.402C234.453 86.2017 235.037 87.8774 236.154 89.0581C237.272 90.2388 238.808 90.8291 240.763 90.8291C242.959 90.8291 244.978 90.1055 246.818 88.6582V91.5908C245.105 92.835 242.838 93.457 240.02 93.457C237.265 93.457 235.101 92.5747 233.526 90.8101C231.952 89.0327 231.165 86.5381 231.165 83.3262C231.165 80.292 232.022 77.8228 233.736 75.9185C235.463 74.0015 237.602 73.043 240.153 73.043C242.705 73.043 244.679 73.8682 246.076 75.5186C247.472 77.1689 248.171 79.4604 248.171 82.3931V84.0308ZM244.971 81.3838C244.959 79.5811 244.521 78.1782 243.657 77.1753C242.807 76.1724 241.62 75.6709 240.096 75.6709C238.624 75.6709 237.373 76.1978 236.345 77.2515C235.317 78.3052 234.682 79.6826 234.441 81.3838H244.971Z" fill="#0078D7"/>
<path d="M263.473 93V65.6924H271.014C280.637 65.6924 285.449 70.1294 285.449 79.0034C285.449 83.2183 284.11 86.6079 281.431 89.1724C278.765 91.7241 275.191 93 270.71 93H263.473ZM266.673 68.5869V90.1055H270.748C274.328 90.1055 277.114 89.147 279.108 87.23C281.101 85.313 282.097 82.5962 282.097 79.0796C282.097 72.0845 278.378 68.5869 270.938 68.5869H266.673Z" fill="#0078D7"/>
<path d="M305.792 84.0308H292.024C292.075 86.2017 292.659 87.8774 293.776 89.0581C294.894 90.2388 296.43 90.8291 298.385 90.8291C300.581 90.8291 302.6 90.1055 304.44 88.6582V91.5908C302.727 92.835 300.46 93.457 297.642 93.457C294.887 93.457 292.723 92.5747 291.148 90.8101C289.574 89.0327 288.787 86.5381 288.787 83.3262C288.787 80.292 289.644 77.8228 291.358 75.9185C293.084 74.0015 295.224 73.043 297.775 73.043C300.327 73.043 302.301 73.8682 303.698 75.5186C305.094 77.1689 305.792 79.4604 305.792 82.3931V84.0308ZM302.593 81.3838C302.581 79.5811 302.143 78.1782 301.279 77.1753C300.429 76.1724 299.242 75.6709 297.718 75.6709C296.246 75.6709 294.995 76.1978 293.967 77.2515C292.938 78.3052 292.304 79.6826 292.062 81.3838H302.593Z" fill="#0078D7"/>
<path d="M325.584 73.5L317.814 93H314.748L307.36 73.5H310.787L315.739 87.668C316.107 88.709 316.335 89.6167 316.424 90.3911H316.5C316.627 89.4136 316.83 88.5312 317.11 87.7441L322.289 73.5H325.584Z" fill="#0078D7"/>
<path d="M340.1 93.457C336.228 93.457 333.124 92.1812 330.788 89.6294C328.465 87.0776 327.303 83.7578 327.303 79.6699C327.303 75.2773 328.49 71.7734 330.864 69.1582C333.238 66.543 336.469 65.2354 340.557 65.2354C344.328 65.2354 347.362 66.5049 349.66 69.0439C351.97 71.583 353.126 74.9028 353.126 79.0034C353.126 83.4595 351.945 86.9824 349.584 89.5723C347.222 92.1621 344.061 93.457 340.1 93.457ZM340.329 68.1299C337.459 68.1299 335.13 69.1646 333.34 71.2339C331.55 73.3032 330.655 76.02 330.655 79.3843C330.655 82.7485 331.524 85.459 333.264 87.5156C335.016 89.5596 337.294 90.5815 340.1 90.5815C343.096 90.5815 345.458 89.604 347.184 87.6489C348.911 85.6938 349.774 82.958 349.774 79.4414C349.774 75.8359 348.936 73.0493 347.26 71.0815C345.584 69.1138 343.274 68.1299 340.329 68.1299Z" fill="#0078D7"/>
<path d="M360.996 90.1816H360.92V101.969H357.797V73.5H360.92V76.9277H360.996C362.532 74.3379 364.779 73.043 367.737 73.043C370.251 73.043 372.212 73.9189 373.621 75.6709C375.031 77.4102 375.735 79.7461 375.735 82.6787C375.735 85.9414 374.942 88.5566 373.355 90.5244C371.768 92.4795 369.597 93.457 366.842 93.457C364.316 93.457 362.367 92.3652 360.996 90.1816ZM360.92 82.3169V85.04C360.92 86.6523 361.44 88.0234 362.481 89.1533C363.535 90.2705 364.868 90.8291 366.48 90.8291C368.372 90.8291 369.851 90.1055 370.917 88.6582C371.996 87.2109 372.536 85.1987 372.536 82.6216C372.536 80.4507 372.034 78.7495 371.032 77.5181C370.029 76.2866 368.67 75.6709 366.956 75.6709C365.141 75.6709 363.681 76.3057 362.576 77.5752C361.472 78.832 360.92 80.4126 360.92 82.3169Z" fill="#0078D7"/>
<path d="M379.264 92.2954V88.9438C380.965 90.2007 382.837 90.8291 384.881 90.8291C387.624 90.8291 388.995 89.915 388.995 88.0869C388.995 87.5664 388.874 87.1284 388.633 86.7729C388.404 86.4048 388.087 86.0811 387.681 85.8018C387.287 85.5225 386.817 85.2749 386.272 85.0591C385.738 84.8306 385.161 84.5957 384.539 84.3545C383.675 84.0117 382.914 83.6689 382.253 83.3262C381.606 82.9707 381.06 82.5771 380.616 82.1455C380.184 81.7012 379.854 81.1997 379.626 80.6411C379.41 80.0825 379.302 79.4287 379.302 78.6797C379.302 77.7656 379.511 76.9595 379.93 76.2612C380.349 75.5503 380.908 74.96 381.606 74.4902C382.304 74.0078 383.098 73.646 383.986 73.4048C384.888 73.1636 385.815 73.043 386.767 73.043C388.455 73.043 389.966 73.335 391.299 73.9189V77.0801C389.864 76.1406 388.214 75.6709 386.348 75.6709C385.764 75.6709 385.237 75.7407 384.767 75.8804C384.297 76.0073 383.891 76.1914 383.548 76.4326C383.218 76.6738 382.958 76.9658 382.768 77.3086C382.59 77.6387 382.501 78.0068 382.501 78.4131C382.501 78.9209 382.59 79.3462 382.768 79.689C382.958 80.0317 383.231 80.3364 383.587 80.603C383.942 80.8696 384.374 81.1108 384.881 81.3267C385.389 81.5425 385.967 81.7773 386.614 82.0312C387.478 82.3613 388.252 82.7041 388.938 83.0596C389.623 83.4023 390.207 83.7959 390.69 84.2402C391.172 84.6719 391.54 85.1733 391.794 85.7446C392.061 86.3159 392.194 86.9951 392.194 87.7822C392.194 88.7471 391.978 89.585 391.546 90.2959C391.128 91.0068 390.563 91.5972 389.852 92.0669C389.141 92.5366 388.322 92.8857 387.395 93.1143C386.468 93.3428 385.497 93.457 384.482 93.457C382.476 93.457 380.736 93.0698 379.264 92.2954Z" fill="#0078D7"/>
</svg>
