<svg width="400" height="160" viewBox="0 0 400 160" fill="none" xmlns="http://www.w3.org/2000/svg">
<path d="M143.338 103.727H130.231V57.9993H143.565C153.845 57.9993 158.752 62.6661 158.752 69.873C158.752 74.6465 156.085 77.7666 152.118 79.42C157.225 81.0134 160.605 84.3268 160.605 90.427C160.605 99.414 154.105 103.727 143.338 103.727ZM143.098 64.6662H138.671V76.7999H142.671C147.845 76.7999 150.565 74.4798 150.565 70.5664C150.592 66.9196 148.405 64.6662 143.098 64.6662ZM143.232 83.0334H138.671V97.0339H143.338C148.912 97.0339 152.158 94.7138 152.158 90.1403C152.158 85.5669 149.065 83.0334 143.232 83.0334Z" fill="black"/>
<path d="M184.346 103.727L183.679 99.5472C181.093 102.267 177.779 104.387 173.012 104.387C167.572 104.387 163.925 101.054 163.925 95.5004C163.925 87.7402 170.292 84.3601 183.219 83.1V82.1733C183.219 78.7266 181.219 77.3998 177.713 77.3998C173.999 77.3998 170.486 78.4599 167.046 79.9866L166.052 73.6197C170.085 71.9262 174.412 71.047 178.786 71.033C187.073 71.033 191.186 74.0864 191.186 81.78V103.727H184.346ZM183.219 87.7268C174.006 88.8736 171.812 91.5936 171.812 94.6671C171.812 96.9872 173.272 98.3805 175.726 98.3805C178.446 98.3805 181.059 97.1205 183.219 94.9338V87.7268Z" fill="black"/>
<path d="M208.614 104.328C204.272 104.275 200.003 103.209 196.147 101.214L197.207 94.5806C200.653 96.834 204.9 98.3607 208.88 98.3607C212.327 98.3607 214.214 97.1007 214.214 95.0273C214.214 92.7739 212.82 91.8405 207.714 90.5871C199.953 88.587 196.707 86.3403 196.707 80.5068C196.707 74.9999 201.08 71.0865 208.507 71.0865C212.351 71.0319 216.163 71.7978 219.687 73.3332L218.627 80.0001C215.534 78.2132 212.05 77.2107 208.48 77.08C205.494 77.08 204.04 78.2067 204.04 80.0001C204.04 81.7935 205.234 82.6669 210.04 83.9136C218.294 86.0003 221.541 88.2737 221.541 94.3072C221.541 100.607 217.034 104.328 208.614 104.328Z" fill="black"/>
<path d="M253.175 89.2672H232.615C233.015 95.5007 236.328 98.2208 241.235 98.2208C245.348 98.2208 248.728 96.6941 252.242 94.2207L253.169 100.454C249.415 103.063 244.939 104.432 240.368 104.368C231.415 104.368 224.721 99.2609 224.721 87.7005C224.721 77.2868 230.955 70.9866 239.308 70.9866C248.922 70.9866 253.235 78.2135 253.235 87.3004C253.242 88.0005 253.175 88.8072 253.175 89.2672ZM239.115 76.5334C235.928 76.5334 233.341 79.0535 232.748 84.2937H245.482C244.948 79.3335 242.962 76.5401 239.115 76.5401V76.5334Z" fill="black"/>
<path d="M271.702 104.327C262.815 104.327 256.515 98.3272 256.515 87.8802C256.515 76.7399 263.475 71.033 271.962 71.033C275.49 70.9468 278.965 71.8922 281.963 73.7531L280.836 80.9133C278.46 78.9718 275.484 77.916 272.416 77.9266C267.842 77.9266 264.522 81.3067 264.522 87.6736C264.522 94.3071 268.102 97.4872 272.942 97.4872C275.729 97.4872 278.276 96.7539 281.229 94.4338L282.289 101.201C279.189 103.356 275.476 104.453 271.702 104.327Z" fill="black"/>
<path d="M304.677 103.727L304.01 99.5472C301.423 102.267 298.11 104.387 293.343 104.387C287.903 104.387 284.256 101.054 284.256 95.5004C284.256 87.7402 290.623 84.3601 303.55 83.1V82.1733C303.55 78.7266 301.55 77.3998 298.043 77.3998C294.33 77.3998 290.816 78.4599 287.376 79.9866L286.383 73.6197C290.415 71.9262 294.743 71.047 299.117 71.033C307.404 71.033 311.517 74.0864 311.517 81.78V103.727H304.677ZM303.55 87.7268C294.33 88.8535 292.143 91.5736 292.143 94.6204C292.143 96.9405 293.603 98.3339 296.057 98.3339C298.777 98.3339 301.39 97.0738 303.55 94.8871V87.7268Z" fill="black"/>
<path d="M356.119 103.728V82.7737C356.119 79.987 355.125 78.0669 352.205 78.0669C349.752 78.0669 347.432 79.6603 345.112 82.067V103.754H337.151V82.7737C337.151 79.987 336.091 78.0669 333.151 78.0669C330.698 78.0669 328.378 79.6603 326.058 82.067V103.754H318.117V71.7534H324.878L325.611 76.2602C328.598 73.4067 331.844 71.0867 336.151 71.0867C340.725 71.0867 343.178 73.1401 344.378 76.2602C347.232 73.4067 350.745 71.0867 355.045 71.0867C361.079 71.0867 364.066 74.7335 364.066 80.7003V103.774L356.119 103.728Z" fill="black"/>
<path d="M386.013 104.061C383.481 104.097 380.964 103.67 378.586 102.801V114.868L370.626 116.061V71.6996H377.386L378.119 76.0731C380.373 73.4864 383.493 71.033 387.933 71.033C394.6 71.033 400 76.0731 400 86.8135C400.013 98.7539 393.38 104.061 386.013 104.061ZM385.813 78.0599C382.96 78.0599 380.706 79.8533 378.586 82.5667V96.3005C380.488 97.2871 382.612 97.767 384.753 97.6938C388.866 97.6938 391.98 94.3137 391.98 87.2802C392.013 81.1133 389.406 78.0665 385.82 78.0665L385.813 78.0599Z" fill="black"/>
<path d="M54.9018 33.9985C25.3342 33.9985 2.19341 71.5998 0 103.334C9.27364 119.435 31.6411 125.482 54.9018 125.482C78.1626 125.482 100.537 119.461 109.804 103.334C107.617 71.5998 84.4628 33.9985 54.9018 33.9985Z" fill="#B3DCFF"/>
<path d="M89.1229 73.4796C82.636 65.1127 74.3624 56.259 69.5689 56.259C64.7754 56.259 51.335 79.9998 45.2148 79.9998C39.0946 79.9998 35.8811 69.1995 28.3075 69.2395C18.0072 69.2995 7.90686 99.5871 7.90686 99.5871C7.90686 99.5871 12.0803 118.101 55.7685 118.101C99.4566 118.101 102.943 99.8938 102.943 99.8938C102.943 99.8938 98.4499 85.5067 89.1229 73.4796Z" fill="#5ECC62"/>
<path d="M31.4944 96.994C31.4944 95.8995 31.8189 94.8297 32.4269 93.9197C33.035 93.0097 33.8992 92.3005 34.9103 91.8817C35.9214 91.4628 37.034 91.3533 38.1074 91.5668C39.1808 91.7803 40.1668 92.3073 40.9407 93.0812C41.7146 93.8551 42.2416 94.841 42.4551 95.9144C42.6686 96.9878 42.559 98.1004 42.1402 99.1116C41.7214 100.123 41.0121 100.987 40.1022 101.595C39.1922 102.203 38.1223 102.527 37.0279 102.527C35.5603 102.527 34.1528 101.944 33.1151 100.907C32.0774 99.869 31.4944 98.4616 31.4944 96.994ZM67.2489 96.994C67.2489 98.0884 67.5734 99.1582 68.1815 100.068C68.7895 100.978 69.6537 101.687 70.6648 102.106C71.676 102.525 72.7886 102.635 73.862 102.421C74.9354 102.208 75.9213 101.681 76.6952 100.907C77.4691 100.133 77.9961 99.1469 78.2096 98.0735C78.4231 97.0001 78.3135 95.8875 77.8947 94.8764C77.4759 93.8653 76.7667 93.001 75.8567 92.393C74.9467 91.785 73.8768 91.4605 72.7824 91.4605C71.3148 91.4605 69.9074 92.0434 68.8696 93.0812C67.8319 94.1189 67.2489 95.5264 67.2489 96.994ZM66.2555 105.028C66.4651 104.627 66.5069 104.16 66.3719 103.728C66.2369 103.297 65.936 102.937 65.5355 102.727C65.135 102.518 64.6677 102.476 64.2364 102.611C63.805 102.746 63.445 103.047 63.2354 103.448C63.1421 103.621 60.922 107.614 55.0418 107.614C53.3787 107.653 51.7315 107.284 50.2447 106.537C48.758 105.791 47.4772 104.691 46.5149 103.334C46.2797 102.949 45.9011 102.672 45.4622 102.566C45.0234 102.46 44.5603 102.532 44.1748 102.768C43.7893 103.003 43.5131 103.381 43.4068 103.82C43.3005 104.259 43.373 104.722 43.6081 105.108C44.8769 106.958 46.5849 108.465 48.5792 109.494C50.5734 110.522 52.7916 111.04 55.0352 111.001C63.0488 111.028 66.1222 105.274 66.2489 105.034L66.2555 105.028Z" fill="black"/>
<path d="M45.8948 90.127C39.1079 90.127 35.6345 83.4601 33.7477 79.3C32.0477 75.5798 31.7477 69.6997 26.9475 69.5396C27.3698 69.3586 27.8218 69.2569 28.2809 69.2396C35.8678 69.2396 39.0612 80 45.2148 80C51.3683 80 64.7688 56.2659 69.5689 56.2659C70.6332 56.3214 71.6697 56.625 72.5957 57.1526C72.1212 57.064 71.6325 57.0885 71.1691 57.224C70.7058 57.3595 70.281 57.6023 69.9289 57.9326C68.3689 59.4726 54.2951 90.127 45.8948 90.127Z" fill="#00AD45"/>
</svg>
