<svg width="400" height="160" viewBox="0 0 400 160" fill="none" xmlns="http://www.w3.org/2000/svg">
<path d="M105.441 55.1328C116.075 55.1328 121.235 60.3735 121.235 68.7892C121.235 75.1032 118.375 78.9458 112.503 80.38C120.207 81.6518 124.013 85.8552 124.013 93.2336C124.013 101.568 118.375 107.287 106.713 107.287H85.1997V55.1328H105.441ZM92.3436 61.961V77.5116H104.485C111.232 77.5116 114.01 74.4177 114.01 69.3935C114.01 64.3694 110.997 61.9339 104.485 61.9339L92.3436 61.961ZM92.3436 83.8707V100.107H106.947C113.775 100.107 116.869 97.6444 116.869 92.4037C116.869 86.8474 113.929 83.8347 106.794 83.8347L92.3436 83.8707Z" fill="#253858"/>
<path d="M135.685 52.3549C136.322 52.3093 136.962 52.4012 137.56 52.6244C138.159 52.8476 138.702 53.1969 139.154 53.6486C139.605 54.1003 139.955 54.6438 140.178 55.2423C140.401 55.8408 140.493 56.4803 140.447 57.1175C140.447 58.3806 139.946 59.592 139.053 60.4851C138.159 61.3783 136.948 61.8801 135.685 61.8801C134.422 61.8801 133.21 61.3783 132.317 60.4851C131.424 59.592 130.922 58.3806 130.922 57.1175C130.877 56.4803 130.969 55.8408 131.192 55.2423C131.415 54.6438 131.764 54.1003 132.216 53.6486C132.668 53.1969 133.211 52.8476 133.81 52.6244C134.408 52.4012 135.048 52.3093 135.685 52.3549ZM132.194 67.5988H139.022V107.287H132.194V67.5988Z" fill="#253858"/>
<path d="M165.09 100.612C166.534 100.569 167.969 100.382 169.375 100.053V106.638C167.879 107.065 166.33 107.278 164.775 107.269C156.278 107.269 152.147 102.272 152.147 94.8845V73.9399H145.715V67.6259H152.147V59.1741H158.776V67.5898H169.33V73.9038H158.776V94.7402C158.776 98.231 160.842 100.612 165.09 100.612Z" fill="#253858"/>
<path d="M197.518 108.072C191.727 108.072 187.28 105.456 184.889 100.296V107.278H178.061V51.0017H184.935V74.7335C187.478 69.4928 192.241 66.7958 198.347 66.7958C208.901 66.7958 214.223 75.7618 214.223 87.4338C214.187 98.6276 208.63 108.072 197.518 108.072ZM196.48 73.146C190.347 73.146 184.935 77.0336 184.935 85.8462V89.0213C184.935 97.8339 189.932 101.722 195.759 101.722C203.462 101.722 207.431 96.6432 207.431 87.4338C207.358 77.9086 203.552 73.146 196.48 73.146Z" fill="#253858"/>
<path d="M221.331 67.5896H228.159V91.592C228.159 98.7359 231.018 101.911 237.522 101.911C243.836 101.911 248.237 97.7076 248.237 89.6888V67.5896H255.066V107.278H248.237V100.765C247.022 103.019 245.208 104.893 242.996 106.182C240.784 107.471 238.259 108.125 235.7 108.072C226.571 108.072 221.331 101.758 221.331 90.8433V67.5896Z" fill="#253858"/>
<path d="M293.401 106.25C291.02 107.522 287.367 108.054 283.713 108.054C269.588 108.054 262.967 99.4847 262.967 87.3076C262.967 75.32 269.552 66.7509 283.713 66.7509C286.976 66.6555 290.216 67.3226 293.175 68.6992V75.0133C290.355 73.6975 287.266 73.0581 284.155 73.1461C273.836 73.1461 269.633 79.6496 269.633 87.3527C269.633 95.0559 273.918 101.559 284.318 101.559C287.386 101.641 290.444 101.158 293.338 100.134L293.401 106.25Z" fill="#253858"/>
<path d="M301.185 107.278V51.0017H308.014V86.18L325.079 67.6076H333.973L315.311 87.082L334.758 107.278H325.467L308.004 88.7056V107.278H301.185Z" fill="#253858"/>
<path d="M357.38 108.072C342.533 108.072 336.03 99.5026 336.03 87.3255C336.03 75.3379 342.695 66.7688 354.764 66.7688C366.986 66.7688 371.902 75.2657 371.902 87.3255V90.4194H342.93C343.886 97.1664 348.252 101.532 357.615 101.532C361.732 101.531 365.817 100.808 369.683 99.3944V105.708C366.427 107.44 361.43 108.072 357.38 108.072ZM342.858 84.6195H365.002C364.605 77.2411 361.268 73.0287 354.448 73.0287C347.214 72.9926 343.57 77.6741 342.858 84.5744V84.6195Z" fill="#253858"/>
<path d="M395.715 100.612C397.159 100.569 398.594 100.382 400 100.053V106.638C398.504 107.065 396.955 107.278 395.4 107.269C386.903 107.269 382.772 102.272 382.772 94.8845V73.9399H376.34V67.6259H382.772V59.1741H389.437V67.5898H399.991V73.9038H389.437V94.7402C389.446 98.231 391.494 100.612 395.715 100.612Z" fill="#253858"/>
<path d="M1.82728 56.6486C1.564 56.6452 1.30317 56.6995 1.06311 56.8076C0.82304 56.9157 0.609553 57.0751 0.437636 57.2745C0.265718 57.474 0.139538 57.7086 0.0679532 57.962C-0.00363117 58.2154 -0.018884 58.4813 0.0232655 58.7412L7.6813 105.231C7.77672 105.8 8.06953 106.317 8.50832 106.691C8.94711 107.066 9.50381 107.273 10.0806 107.278H46.8194C47.2518 107.284 47.6718 107.134 48.0029 106.856C48.334 106.578 48.5542 106.19 48.6234 105.763L56.2814 58.7503C56.3236 58.4904 56.3083 58.2244 56.2367 57.971C56.1651 57.7176 56.039 57.483 55.867 57.2836C55.6951 57.0841 55.4816 56.9248 55.2416 56.8166C55.0015 56.7085 54.7407 56.6542 54.4774 56.6576L1.82728 56.6486ZM34.074 90.2483H22.3479L19.1729 73.6604H36.9153L34.074 90.2483Z" fill="#2684FF"/>
<path d="M53.8459 73.6602H36.9153L34.074 90.2481H22.3479L8.50208 106.683C8.94093 107.062 9.50044 107.273 10.0806 107.278H46.8283C47.2607 107.283 47.6808 107.134 48.0119 106.855C48.343 106.577 48.5632 106.189 48.6323 105.763L53.8459 73.6602Z" fill="url(#paint0_linear)"/>
<defs>
<linearGradient id="paint0_linear" x1="57.7606" y1="78.3055" x2="29.7804" y2="100.143" gradientUnits="userSpaceOnUse">
<stop offset="0.18" stop-color="#0052CC"/>
<stop offset="1" stop-color="#2684FF"/>
</linearGradient>
</defs>
</svg>
