<svg width="400" height="160" viewBox="0 0 400 160" fill="none" xmlns="http://www.w3.org/2000/svg">
<path d="M241.858 113.387H280.704V104.87H254.945C258.477 90.7439 280.081 87.6279 280.081 71.8403C280.081 63.3233 274.264 57.0913 262.216 57.0913C254.53 57.0913 248.09 59.3764 243.52 61.6614L246.22 69.5552C250.375 67.6857 254.945 65.8161 260.554 65.8161C265.124 65.8161 269.279 67.6857 269.279 72.879C269.486 84.512 244.143 85.3429 241.858 113.387Z" fill="#00629A"/>
<path d="M358.396 101.546C346.555 101.546 336.792 91.7828 336.792 79.942C336.792 68.1013 346.555 58.3379 358.396 58.3379C370.237 58.3379 380 68.1013 380 79.942C380 91.7828 370.237 101.546 358.396 101.546ZM358.396 62.2848C348.632 62.2848 340.739 70.1786 340.739 79.942C340.739 89.7055 348.632 97.5993 358.396 97.5993C368.159 97.5993 376.053 89.7055 376.053 79.942C376.053 70.1786 368.159 62.2848 358.396 62.2848Z" fill="#00629A"/>
<path d="M370.652 79.9427H359.85V69.1406H356.942V82.851H370.652V79.9427Z" fill="#00629A"/>
<path d="M20 49.4058H38.6959C52.4062 49.4058 58.6382 57.2996 58.6382 65.6089C58.6382 71.2176 55.9377 76.2032 50.9521 78.9037V79.1115C58.4305 80.9811 63.0006 87.0053 63.0006 94.4837C63.0006 104.455 55.5222 113.387 40.5655 113.387H20V49.4058ZM37.2418 76.2032C43.6815 76.2032 47.2129 72.6718 47.2129 67.6862C47.2129 62.9084 44.0969 59.1692 37.2418 59.1692H31.8407V76.2032H37.2418ZM39.1114 103.832C46.7975 103.832 51.1598 100.923 51.1598 94.4837C51.1598 89.0826 47.0052 85.7589 40.5655 85.7589H31.8407V103.832H39.1114Z" fill="#3FC0F0"/>
<path d="M71.7252 53.1449C71.7252 49.198 74.8412 46.082 78.7881 46.082C82.735 46.082 86.0588 48.9903 86.0588 53.1449C86.0588 56.8841 82.9428 60.0001 78.7881 60.0001C74.6335 60.0001 71.7252 57.0918 71.7252 53.1449ZM72.9716 67.4785H84.6046V113.387H72.9716V67.4785Z" fill="#3FC0F0"/>
<path d="M100.185 102.17V76.6188H91.8754V67.4786H100.185V56.8843L111.818 53.5605V67.4786H125.736L122.828 76.6188H111.818V99.2616C111.818 103.624 113.272 105.078 116.388 105.078C119.088 105.078 121.581 104.039 123.451 102.793L126.982 110.687C123.658 112.972 118.05 114.218 113.48 114.218C105.17 114.426 100.185 109.856 100.185 102.17Z" fill="#3FC0F0"/>
<path d="M133.214 67.4781H142.977L144.224 72.6714C148.378 68.5168 152.118 66.4395 156.895 66.4395C158.973 66.4395 161.466 67.0626 163.335 68.309L159.18 78.0725C157.103 76.8261 155.234 76.6183 153.987 76.6183C150.871 76.6183 148.378 77.8647 144.639 81.1884V113.595H133.006V67.4781H133.214Z" fill="#3FC0F0"/>
<path d="M167.905 53.1449C167.905 49.198 171.021 46.082 174.968 46.082C178.915 46.082 182.031 49.198 182.031 53.1449C182.031 56.8841 178.915 60.0001 174.761 60.0001C170.606 60.0001 167.905 57.0918 167.905 53.1449ZM169.152 67.4785H180.785V113.387H169.152V67.4785Z" fill="#3FC0F0"/>
<path d="M204.259 90.3286L187.64 67.478H199.689L210.491 82.4348L221.5 67.478H233.549L216.723 90.3286L233.757 113.387H221.708L210.698 98.0147L199.481 113.387H187.432L204.259 90.3286Z" fill="#3FC0F0"/>
<path d="M316.85 91.5749V57.0913H309.579L281.951 93.029V99.8842H306.879V113.594H316.85V99.8842H325.159V91.5749H316.85ZM306.879 83.4733V91.3671H300.231C298.154 91.3671 294.415 91.5749 293.168 91.5749L307.294 72.4635C307.294 74.1254 306.879 79.1109 306.879 83.4733Z" fill="#00629A"/>
</svg>
