<svg width="400" height="160" viewBox="0 0 400 160" fill="none" xmlns="http://www.w3.org/2000/svg">
<path d="M98.0899 48H16.9101C15.8552 48 15 48.8351 15 49.8652V129.135C15 130.165 15.8552 131 16.9101 131H98.0899C99.1448 131 100 130.165 100 129.135V49.8652C100 48.8351 99.1448 48 98.0899 48Z" fill="url(#paint0_linear)" stroke="#625874" stroke-width="0.988889"/>
<path d="M45.3617 106C24.0115 106 22.1607 126.877 22 131H66.9951C67.0827 126.212 66.2324 106 45.3617 106Z" fill="#363433"/>
<path d="M83.9979 71.0891C84.2015 82.4386 69.2498 66.1526 71.1704 59.3189C72.4361 58.1492 73.7112 57.1329 75.8978 57C77.697 57.1589 82.5188 64.5944 83.9979 71.0891Z" fill="#F6DAAA" stroke="#363433" stroke-width="1.3" stroke-linecap="square"/>
<path d="M53.0361 61C61.7584 40.4417 57.8631 20.9189 50 19" stroke="#6D6E6E" stroke-width="0.5" stroke-linecap="square"/>
<path d="M52.7173 60C41.2286 61.4315 39.2417 71.404 40.2179 75.0323C43.4484 86.4614 44.9645 94.2264 45.0674 107.267C47.0257 109.332 52.4831 111.664 55.8501 108.311C54.8177 100.549 61.317 98.3261 71.1658 99.046C82.8816 99.9024 98 97.1402 98 86.0622C97.0771 79.0811 88.984 73.9043 76.4187 66.7125" fill="url(#paint1_linear)"/>
<path d="M52.7173 60C41.2286 61.4315 39.2417 71.404 40.2179 75.0323C43.4484 86.4614 44.9645 94.2264 45.0674 107.267C47.0257 109.332 52.4831 111.664 55.8501 108.311C54.8177 100.549 61.317 98.3261 71.1658 99.046C82.8816 99.9024 98 97.1402 98 86.0622C97.0771 79.0811 88.984 73.9043 76.4187 66.7125" stroke="#363433" stroke-width="1.3" stroke-linecap="square"/>
<path d="M56.0062 59C55.5871 49.3035 76.6858 31.4374 84 40.4818" stroke="#6D6E6E" stroke-width="0.5" stroke-linecap="square"/>
<path d="M48 66.0317C59.5911 51.0503 70.1707 49.1743 78 74L48 66.0317Z" fill="#F6DAAA"/>
<path d="M85.9713 73C83.0603 74.1799 81 77.1892 81 80.7369C81 85.3042 84.4029 89 88.6437 89C92.1225 89 95.0572 86.5047 96 83.089C94.9762 80.9822 93.3074 78.9671 91.0287 76.9304C89.5805 75.6359 87.8752 74.3405 85.9713 73Z" fill="url(#paint2_radial)"/>
<path d="M53.6071 97.1742C53.1407 97.1742 52.6025 97.9881 53.4326 97.9222C57.6218 97.5898 61.6626 97.6721 65.1501 100L65.4699 99.9446L65.906 99.4182L66 99.2782C62.1831 96.9611 57.9719 96.7548 53.6071 97.1742Z" fill="#363433"/>
<path d="M58.2384 78.9229C57.3642 78.052 52.3733 62.5701 60.9387 60.1383C66.4267 58.5802 73 70.5961 73 75.6053C73 80.6146 62.7367 83.0145 58.2384 78.9229Z" fill="white" stroke="url(#paint3_linear)" stroke-width="0.75" stroke-linecap="square"/>
<path d="M66.6984 67.471C66.4451 68.8866 65.8039 70.1701 64.9158 71.0392C64.0276 71.9083 62.9654 72.2918 61.9626 72.1053C60.9598 71.9189 60.0987 71.1777 59.5687 70.0449C59.0387 68.9121 58.8832 67.4805 59.1364 66.0649C59.3896 64.6494 60.0308 63.3658 60.919 62.4967C61.8071 61.6276 62.8694 61.2441 63.8722 61.4306C64.875 61.617 65.7361 62.3582 66.2661 63.491C66.7961 64.6238 66.9516 66.0554 66.6984 67.471Z" fill="#343231"/>
<path d="M63.6405 65.4532C63.5291 65.6818 63.3917 65.8952 63.2361 66.0812C63.0805 66.2672 62.9098 66.4222 62.7337 66.5372C62.5575 66.6522 62.3795 66.7251 62.2096 66.7517C62.0398 66.7783 61.8815 66.758 61.7438 66.6921C61.6061 66.6261 61.4918 66.5158 61.4072 66.3674C61.3227 66.2189 61.2696 66.0353 61.2511 65.8271C61.2326 65.6188 61.2489 65.3899 61.2992 65.1534C61.3495 64.917 61.4328 64.6777 61.5443 64.4491C61.6556 64.2205 61.793 64.0071 61.9486 63.8211C62.1042 63.6351 62.275 63.4802 62.4511 63.3652C62.6272 63.2501 62.8053 63.1772 62.9751 63.1506C63.145 63.1241 63.3033 63.1443 63.4409 63.2103C63.5786 63.2762 63.693 63.3866 63.7775 63.535C63.8621 63.6834 63.9151 63.867 63.9337 64.0753C63.9522 64.2836 63.9358 64.5125 63.8855 64.7489C63.8352 64.9853 63.752 65.2247 63.6405 65.4532Z" fill="white"/>
<path d="M62.1572 69.8607C62.2023 69.9255 62.2623 69.9845 62.3338 70.0343C62.4054 70.0841 62.487 70.1238 62.5741 70.1511C62.6612 70.1784 62.7521 70.1928 62.8415 70.1934C62.9309 70.194 63.0171 70.1808 63.0952 70.1547C63.1732 70.1285 63.2417 70.0898 63.2966 70.0409C63.3514 69.9919 63.3917 69.9336 63.415 69.8693C63.4382 69.805 63.4442 69.7359 63.4323 69.6661C63.4205 69.5962 63.3912 69.527 63.3461 69.4622C63.301 69.3974 63.241 69.3385 63.1694 69.2886C63.0979 69.2388 63.0162 69.1991 62.9291 69.1718C62.842 69.1445 62.7512 69.1301 62.6618 69.1295C62.5724 69.1289 62.4862 69.1421 62.4081 69.1682C62.33 69.1944 62.2616 69.2331 62.2067 69.2821C62.1518 69.331 62.1116 69.3893 62.0883 69.4536C62.065 69.5179 62.0591 69.587 62.0709 69.6568C62.0827 69.7267 62.112 69.796 62.1572 69.8607Z" fill="white"/>
<path d="M52.9732 61L52.6673 61.0299C52.1246 61.4829 52.094 61.3122 52.1472 61.0896C52.0432 61.1038 51.9436 61.1336 51.8413 61.1493C51.7363 61.2661 51.6145 61.3917 51.4436 61.597L51.1376 61.9553L50.8317 62.0747L51.1376 61.7165C51.3827 61.422 51.4711 61.2911 51.5048 61.209C51.4227 61.2229 51.341 61.224 51.26 61.2388C50.9557 61.4382 50.6991 61.6521 51.0459 61.2985C46.2128 62.2435 43.3609 64.7461 41.7456 67.4779C39.9859 70.4542 39.7587 73.7694 40.1854 75.3589C40.1873 75.3659 40.1835 75.3819 40.1854 75.3888C43.4641 86.7584 45.0409 94.6328 45.172 107.54C46.0879 108.428 47.8022 109.458 49.6692 109.838C50.9008 110.089 52.1388 110.069 53.2791 109.629C53.9598 108.951 54.4344 107.944 54.9312 106.823C55.117 103.922 56.5637 101.795 58.9694 100.554C58.9809 100.548 58.9884 100.53 59 100.524L52.9732 61Z" fill="url(#paint4_radial)"/>
<path d="M51 18.5C51.0002 18.6969 50.9615 18.892 50.8862 19.0739C50.8109 19.2559 50.7004 19.4213 50.5611 19.5606C50.4218 19.6999 50.2564 19.8104 50.0743 19.8858C49.8922 19.9612 49.6971 20 49.5 20C49.3029 20 49.1078 19.9612 48.9257 19.8858C48.7436 19.8104 48.5782 19.6999 48.4389 19.5606C48.2996 19.4213 48.1891 19.2559 48.1138 19.0739C48.0385 18.892 47.9998 18.6969 48 18.5C47.9998 18.3031 48.0385 18.108 48.1138 17.9261C48.1891 17.7441 48.2996 17.5787 48.4389 17.4394C48.5782 17.3001 48.7436 17.1896 48.9257 17.1142C49.1078 17.0388 49.3029 17 49.5 17C49.6971 17 49.8922 17.0388 50.0743 17.1142C50.2564 17.1896 50.4218 17.3001 50.5611 17.4394C50.7004 17.5787 50.8109 17.7441 50.8862 17.9261C50.9615 18.108 51.0002 18.3031 51 18.5Z" fill="#413F3E"/>
<path d="M86 40.5C86.0002 40.6969 85.9615 40.892 85.8862 41.0739C85.8109 41.2559 85.7004 41.4213 85.5611 41.5606C85.4218 41.6999 85.2564 41.8104 85.0743 41.8858C84.8922 41.9612 84.6971 42 84.5 42C84.3029 42 84.1078 41.9612 83.9257 41.8858C83.7436 41.8104 83.5782 41.6999 83.4389 41.5606C83.2996 41.4213 83.1891 41.2559 83.1138 41.0739C83.0385 40.892 82.9998 40.6969 83 40.5C82.9998 40.3031 83.0385 40.108 83.1138 39.9261C83.1891 39.7441 83.2996 39.5787 83.4389 39.4394C83.5782 39.3001 83.7436 39.1896 83.9257 39.1142C84.1078 39.0388 84.3029 39 84.5 39C84.6971 39 84.8922 39.0388 85.0743 39.1142C85.2564 39.1896 85.4218 39.3001 85.5611 39.4394C85.7004 39.5787 85.8109 39.7441 85.8862 39.9261C85.9615 40.108 86.0002 40.3031 86 40.5Z" fill="#413F3E"/>
<path d="M43.9961 107.006C33.2291 106.714 26.2825 117.591 27.0591 117.982C28.3491 118.266 29.7295 115.206 35.1444 110.644C37.5993 108.576 44.0941 107.877 43.999 107.151C43.9973 107.101 43.9989 107.054 43.9961 107.006Z" fill="white"/>
<path d="M44.5093 110C32.6742 115.062 29.1104 123.121 29 131H66C65.9968 124.887 65.6336 116.793 56.5621 110.469C54.414 112.311 51.6375 112.61 49.3184 112.138C47.4458 111.757 45.7796 110.96 44.5093 110Z" fill="#E67E71"/>
<path d="M78 74C76.4844 67.8493 74.3372 63.3084 72.0146 60.2426C69.692 57.1768 67.1491 55.4827 64.4709 55.091C61.7926 54.6993 59.0324 55.587 56.2282 57.4732C53.4239 59.3594 49.8817 63.465 48 66.2279C51.111 63.0658 54.041 60.0814 56.7233 58.2772C59.4056 56.473 61.9618 55.6939 64.3544 56.0439C66.7469 56.3938 69.0335 57.873 71.2573 60.8084C73.4811 63.7437 75.9081 68.0475 78 74Z" fill="#363433"/>
<path d="M315 71H305V79H309V123C309 125 311 127 313 127H323V119H319V75C319 73 317 71 315 71Z" fill="black"/>
<path d="M334.444 71H325V79H328.778V123C328.778 125 330.667 127 332.556 127H342V119H338.222V75C338.222 73 336.333 71 334.444 71Z" fill="black"/>
<path fill-rule="evenodd" clip-rule="evenodd" d="M378.064 126.899H384V118.984H382.021V101.176C382.021 97.2187 379.053 87.3252 364.213 87.3252C350.172 87.3252 350.301 95.2958 350.356 98.6684C350.359 98.8604 350.362 99.0375 350.362 99.1974H358.277C358.277 97.5485 359.464 94.2507 364.213 94.2507C370.149 94.2507 372.128 98.2081 372.128 103.155H361.245C355.309 103.155 346.405 106.123 346.405 115.027C346.405 123.931 353.33 126.899 359.266 126.899C365.202 126.899 372.128 122.942 374.107 118.984V122.942C374.107 124.921 376.085 126.899 378.064 126.899ZM372.128 109.091H363.224C359.266 109.091 356.298 112.059 356.298 115.027C356.298 117.995 358.277 118.985 361.245 118.985C367.181 118.985 370.149 115.027 372.128 111.07V109.091Z" fill="black"/>
<path d="M281 115H273C273 117 273 119 271 119H257L279 93V87H249C247 87 245 89 245 91V99H253C253 97 255 95 257 95H267L245 121V127H277C279 127 281 125 281 123V115Z" fill="black"/>
<path fill-rule="evenodd" clip-rule="evenodd" d="M130.726 71.4954H108.96V79.4102H112.918V120.963C112.918 124.92 114.896 126.899 118.854 126.899H132.705C143.587 126.899 150.513 120.963 150.513 111.069C150.513 103.155 145.566 100.187 140.619 98.2079C145.566 96.2292 148.534 91.2824 148.534 85.3463C148.534 79.4102 142.598 71.4954 130.726 71.4954ZM122.811 79.4103H133.641C136.402 79.4103 138.641 81.6488 138.641 84.4103V90.2399C138.641 93.0013 136.402 95.2399 133.641 95.2399H122.811V79.4103ZM135.619 103.155H122.811V118.984H135.619C138.381 118.984 140.619 116.746 140.619 113.984V108.155C140.619 105.393 138.381 103.155 135.619 103.155Z" fill="black"/>
<path d="M162 87H152V95H156V115C156 121 161 127 170 127C177.2 127 182.333 121.667 184 119C184 121 186 127 190 127H198V119H194V87H184V107C184 118 174 119 172 119C170 119 166 117 166 113V91C166 89 164 87 162 87Z" fill="black"/>
<path fill-rule="evenodd" clip-rule="evenodd" d="M243.512 95.24V87.3252H235.597C231.64 87.3252 229.661 91.2826 229.661 93.2613C228.672 90.2933 224.121 87.3252 217.789 87.3252C209.874 87.3252 199.981 91.2826 199.981 107.112C199.981 122.942 211.853 126.899 217.789 126.899C223.725 126.899 228.672 122.942 229.661 120.963V126.899C229.661 131.846 222.736 134.814 216.8 134.814C212.051 134.814 208.225 132.835 206.906 131.846L203.938 138.772C205.917 140.75 210.863 142.729 217.789 142.729C224.714 142.729 239.555 139.761 239.555 124.921V95.24H243.512ZM219.768 118.985C225.232 118.985 229.661 113.669 229.661 107.112C229.661 100.555 225.232 95.2401 219.768 95.2401C214.304 95.2401 209.874 100.555 209.874 107.112C209.874 113.669 214.304 118.985 219.768 118.985Z" fill="black"/>
<rect x="289" y="71" width="8" height="8" fill="black"/>
<path d="M293 87H283V95H287V123C287 125 289 127 291 127H301V119H297V91C297 89 295 87 293 87Z" fill="black"/>
<defs>
<linearGradient id="paint0_linear" x1="100.478" y1="47.5337" x2="100.478" y2="131.466" gradientUnits="userSpaceOnUse">
<stop stop-color="#8A7AB9"/>
<stop offset="1" stop-color="#B888B6"/>
</linearGradient>
<linearGradient id="paint1_linear" x1="52.4328" y1="99.4965" x2="45.7549" y2="106.974" gradientUnits="userSpaceOnUse">
<stop stop-color="#F6DAAA"/>
<stop offset="1" stop-color="#E4BC98"/>
</linearGradient>
<radialGradient id="paint2_radial" cx="0" cy="0" r="1" gradientUnits="userSpaceOnUse" gradientTransform="translate(88.6629 80.742) scale(7.67863 8.26975)">
<stop stop-color="white"/>
<stop offset="1" stop-color="white" stop-opacity="0"/>
</radialGradient>
<linearGradient id="paint3_linear" x1="62.7779" y1="64.8568" x2="59.9613" y2="64.543" gradientUnits="userSpaceOnUse">
<stop stop-color="#363433"/>
<stop offset="1" stop-color="#363433" stop-opacity="0"/>
</linearGradient>
<radialGradient id="paint4_radial" cx="0" cy="0" r="1" gradientUnits="userSpaceOnUse" gradientTransform="translate(42.4174 69.8185) rotate(26.028) scale(6.25566 25.0704)">
<stop stop-color="#E4BC98"/>
<stop offset="1" stop-color="#F6DAAA" stop-opacity="0"/>
</radialGradient>
</defs>
</svg>
