<svg width="400" height="160" viewBox="0 0 400 160" fill="none" xmlns="http://www.w3.org/2000/svg">
<path fill-rule="evenodd" clip-rule="evenodd" d="M343.21 76.2602C343.21 76.5497 343.175 76.8001 343.113 77.0183V86.8006C343.113 92.8152 341.576 96.7827 338.436 98.701C335.295 100.486 331.819 101.412 328.01 101.412C324.334 101.412 321.061 100.419 317.987 98.4368C314.915 96.5162 313.376 92.6842 313.376 86.7983V65.7727H318.517C320.631 65.8875 322.239 67.1511 322.262 68.8695V88.5811C322.262 92.4843 324.268 94.4003 328.279 94.4003C332.288 94.4003 334.294 92.4843 334.294 88.5834V72.3478L334.34 71.7734C334.562 69.4301 335.631 66.7812 338.259 65.242C341.553 63.3145 351.873 64.0175 351.873 64.0175C346.642 66.3148 343.212 71.5873 343.212 76.2625L343.21 76.2602ZM363.293 72.8509C358.216 72.8509 355.809 76.3544 355.875 83.428C356.144 90.1709 358.616 93.5434 363.427 93.5434C368.24 93.5434 370.709 90.1709 370.912 83.428C370.912 76.3521 368.373 72.8509 363.293 72.8509ZM365.899 101.412C361.488 101.412 358.147 99.6269 355.875 95.9901V110.073C355.875 112.982 354.405 114.436 351.464 114.436H346.989V80.9813C347.458 70.5351 352.935 65.3798 363.56 65.3798C374.518 65.3798 380 71.2611 380 83.0306C380 94.931 375.323 101.081 365.899 101.41V101.412ZM180.67 93.0334C182.765 93.0334 184.589 92.1673 186.078 90.5017C186.472 90.0949 186.944 89.7727 187.467 89.5546C187.99 89.3366 188.551 89.2273 189.117 89.2335H195.876C194.254 96.4335 188.984 101.033 180.67 100.833C169.858 100.833 164.317 94.699 164.046 82.5688C164.046 70.503 169.521 64.4356 180.537 64.2357C189.186 64.2357 194.321 68.0356 195.876 75.7019H186.078C184.996 73.3012 183.103 72.0353 180.265 72.0353C175.533 72.0353 173.169 75.5687 173.169 82.5688C173.169 89.5667 175.668 93.1 180.67 93.0334ZM202.297 54.7039H206.961C209.327 54.7039 211.285 56.7026 211.285 59.0367V100.034H202.297V54.7039ZM219.392 54.7039H224.056C227.031 54.7039 228.448 56.1696 228.382 59.0367V61.6374H219.392V54.7039ZM219.392 94.8621V64.7687H224.056C226.962 64.7687 228.382 66.1701 228.382 69.0349V90.5155C228.382 98.4277 234.537 101.267 234.537 101.267L224.497 100.44C221.692 100.155 219.443 97.6879 219.392 94.8621ZM251.494 93.0334C253.589 93.0334 255.413 92.1673 256.899 90.5017C257.294 90.0947 257.767 89.7724 258.29 89.5544C258.813 89.3363 259.374 89.2272 259.941 89.2335H266.698C265.076 96.4335 259.805 101.033 251.494 100.833C240.68 100.833 235.139 94.699 234.867 82.5688C234.867 70.503 240.342 64.4356 251.358 64.2357C260.008 64.2357 265.145 68.0356 266.698 75.7019H256.899C255.82 73.3012 253.926 72.0353 251.087 72.0353C246.357 72.0353 243.993 75.5687 243.993 82.5688C243.993 89.5667 246.492 93.1 251.494 93.0334ZM301.618 95.4916C303.456 98.7677 307.524 102.03 313.378 104.968C313.378 104.968 298.753 107.204 293.354 99.002C292.676 97.9705 292.153 97.4352 291.686 96.5323L291.307 95.9258L286.972 88.434C285.823 86.4353 284.675 85.4337 283.526 85.4337C282.579 85.6335 282.106 86.2332 282.106 87.1682V100.034H273.119V54.7039H277.783C280.147 54.7039 282.106 56.7026 282.106 59.0367V78.5691L293.189 66.0369H304.003L291.633 79.1021L301.618 95.4916ZM70.5999 135.112C92.51 135.112 111.362 122.925 119.874 105.407C120.475 103.889 120.881 102.301 121.085 100.681C120.903 91.2414 115.468 86.5226 113.304 85.0178L112.424 84.5698C112.364 106.101 93.6265 123.602 70.5999 123.602H70.485C47.4583 123.602 28.7186 106.101 28.6611 84.5698L27.7812 85.0178C25.6171 86.5226 20.1815 91.2437 20 100.681C20.1378 101.837 20.4618 103.486 21.2107 105.405C29.7225 122.925 48.5726 135.112 70.485 135.112H70.5999ZM71.0433 41.7466L121.521 77.6777C121.68 75.1965 121.305 64.7273 106.308 51.2739L76.4996 26.7378C75.808 26.2117 73.807 24.8953 71.1007 24.8379H70.8962C68.1922 24.8953 66.1912 26.2117 65.4974 26.7378L35.6911 51.2739C20.6961 64.7273 20.3216 75.1942 20.4802 77.6777L70.9606 41.7466H71.0433Z" fill="#7D69EE"/>
</svg>
