<svg width="400" height="160" viewBox="0 0 400 160" fill="none" xmlns="http://www.w3.org/2000/svg">
<path fill-rule="evenodd" clip-rule="evenodd" d="M25.9795 100.157L38.4552 90.3799C45.0802 99.2292 52.1157 103.307 59.9555 103.307C67.7518 103.307 74.594 99.2762 80.9221 90.4969L93.5696 100.04C84.4457 112.698 73.0943 119.385 59.9555 119.385C46.8602 119.385 35.4036 112.745 25.9795 100.157Z" fill="url(#paint0_linear_1868_48827)"/>
<path fill-rule="evenodd" clip-rule="evenodd" d="M59.9156 57.6657L37.7108 77.2413L27.4526 65.0615L59.9597 36.4033L92.2142 65.0838L81.9055 77.219L59.9156 57.6657Z" fill="url(#paint1_linear_1868_48827)"/>
<path d="M178.731 52.9297H166.159V106.523H178.731V52.9297Z" fill="black"/>
<path fill-rule="evenodd" clip-rule="evenodd" d="M140.751 106.759C133.34 106.759 127.164 104.302 122.155 99.3876C117.145 94.4029 114.675 88.0141 114.675 80.221C114.675 72.3579 117.214 65.8988 122.223 60.844C127.301 55.7188 133.477 53.1914 140.82 53.1914C149.877 53.1914 157.906 57.1932 162.572 63.4416L154.406 72.2175C150.495 67.9349 146.241 65.7585 141.643 65.7585C137.732 65.7585 134.506 67.0924 131.83 69.8305C129.223 72.5686 127.919 76.0087 127.919 80.1509C127.919 84.1527 129.223 87.5226 131.83 90.2607C134.506 92.9286 137.732 94.2625 141.575 94.2625C146.584 94.2625 150.975 92.0158 154.612 87.5928L163.122 95.9475C160.789 99.1067 157.632 101.704 153.72 103.74C149.81 105.776 145.486 106.759 140.751 106.759Z" fill="black"/>
<path fill-rule="evenodd" clip-rule="evenodd" d="M197.587 57.2171C197.587 61.065 194.539 64.1842 190.778 64.1842C187.017 64.1842 183.968 61.065 183.968 57.2171C183.968 53.3693 187.017 50.25 190.778 50.25C194.539 50.25 197.587 53.3693 197.587 57.2171ZM197.063 67.3997H184.492V106.523H197.063V67.3997Z" fill="black"/>
<path fill-rule="evenodd" clip-rule="evenodd" d="M221.365 106.83C215.395 106.83 210.591 104.934 206.818 101.143C203.112 97.3516 201.258 92.5074 201.258 86.5398C201.258 80.5722 203.112 75.7278 206.885 71.9368C210.66 68.1456 215.532 66.25 221.571 66.25C229.463 66.25 236.393 70.1815 239.618 77.5533L229.942 82.7486C228.021 79.4489 225.345 77.7639 221.845 77.7639C219.307 77.7639 217.247 78.6064 215.601 80.2913C214.022 81.9763 213.199 84.0825 213.199 86.5398C213.199 91.6648 216.836 95.456 221.709 95.456C225.207 95.456 228.433 93.4902 229.805 90.4713L239.481 96.3688C236.187 102.828 229.394 106.83 221.365 106.83Z" fill="black"/>
<path fill-rule="evenodd" clip-rule="evenodd" d="M255.21 52.9297H242.638V106.523H255.21V92.8793L256.683 91.4738L268.175 106.523H282.799L265.143 83.402L281.916 67.3997H266.554L255.21 78.2235V52.9297Z" fill="black"/>
<path fill-rule="evenodd" clip-rule="evenodd" d="M285.067 86.271V52.9297H298.164V85.5244C298.164 91.3517 301.483 94.1599 306.283 94.1599C311.013 94.1599 314.402 91.2112 314.402 85.5244V52.9297H327.497V86.271C327.497 101.576 316.995 107.333 306.283 107.333C295.64 107.333 285.067 101.576 285.067 86.271Z" fill="black"/>
<path fill-rule="evenodd" clip-rule="evenodd" d="M355.785 107.595C365.91 107.595 374.119 98.4772 374.119 87.2296C374.119 75.9821 365.91 66.8643 355.785 66.8643C351.657 66.8643 347.849 68.3792 344.784 70.9356V67.4003H332.736V122.601H344.784V103.524C347.849 106.08 351.657 107.595 355.785 107.595ZM344.784 87.2505V87.2086C344.795 82.1865 348.66 78.1188 353.427 78.1188C358.201 78.1188 362.071 82.1978 362.071 87.2296C362.071 92.2613 358.201 96.3404 353.427 96.3404C348.66 96.3404 344.795 92.2727 344.784 87.2505Z" fill="black"/>
<defs>
<linearGradient id="paint0_linear_1868_48827" x1="25.9795" y1="124.608" x2="93.5696" y2="124.608" gradientUnits="userSpaceOnUse">
<stop stop-color="#8930FD"/>
<stop offset="1" stop-color="#49CCF9"/>
</linearGradient>
<linearGradient id="paint1_linear_1868_48827" x1="27.4526" y1="84.5946" x2="92.2142" y2="84.5946" gradientUnits="userSpaceOnUse">
<stop stop-color="#FF02F0"/>
<stop offset="1" stop-color="#FFC800"/>
</linearGradient>
</defs>
</svg>
