<svg width="400" height="160" viewBox="0 0 400 160" fill="none" xmlns="http://www.w3.org/2000/svg">
<path d="M228.18 93.9536H239.394C239.367 112.505 239.422 131.084 239.367 149.636C235.628 149.636 231.862 149.636 228.124 149.664C228.152 148.632 228.18 147.599 228.208 146.567C225.641 148.576 222.656 150.138 219.392 150.64H216.268C211.274 150.194 206.448 147.767 203.547 143.638C198.609 136.608 198.135 126.956 201.259 119.089C203.91 112.533 210.661 107.846 217.802 108.153C221.68 108.014 225.195 109.883 228.152 112.226C228.124 106.117 228.18 100.035 228.18 93.9536ZM216.575 118.698C209.824 121.795 209.043 131.67 213.143 137.222C216.631 142.132 225.279 141.825 227.985 136.329C228.347 131.698 228.347 127.067 227.985 122.464C226.115 118.28 220.508 116.857 216.575 118.698ZM125.101 116.048C131.21 107.595 144.043 105.726 152.747 111.11C152.719 114.542 152.691 117.945 152.775 121.376C149.929 119.34 146.665 117.638 143.066 117.833C138.826 117.582 134.697 120.232 133.135 124.194C130.931 129.606 132.438 137.138 138.101 139.76C142.983 142.048 148.562 140.29 152.719 137.305C152.663 140.709 152.663 144.14 152.691 147.571C149.845 149.022 146.86 150.25 143.68 150.584H140.109C135.227 150.194 130.345 148.325 126.914 144.726C123.315 141.155 121.474 136.162 121 131.196V127.653C121.363 123.552 122.59 119.423 125.101 116.048ZM164.659 111.584C170.405 107.567 178.3 107.093 184.689 109.855C190.073 112.198 194.034 117.22 195.373 122.883C197.131 130.136 195.987 138.505 190.938 144.252C187.59 148.241 182.485 150.277 177.38 150.612H174.757C171.187 150.25 167.588 149.273 164.659 147.153C153.416 139.035 153.333 119.647 164.659 111.584ZM174.06 117.889C170.322 118.726 168.146 122.576 167.672 126.119C167.03 130.582 167.476 135.883 170.935 139.147C173.893 141.769 178.886 141.629 181.648 138.812C186 133.818 185.972 125.449 182.066 120.177C180.197 117.889 176.877 117.192 174.06 117.889ZM248.433 111.222C255.742 107.79 264.808 106.675 272.229 110.329C277.027 112.617 279.566 117.973 279.566 123.134C279.705 131.921 279.566 140.737 279.622 149.524C275.967 149.524 272.313 149.524 268.658 149.524C268.686 149.05 268.742 148.074 268.77 147.599C262.186 151.561 252.59 151.477 247.066 145.73C242.296 140.848 242.937 131.865 248.433 127.737C254.18 123.134 262.493 123.245 268.854 126.453C268.826 123.775 268.463 120.595 265.757 119.228C260.233 116.494 253.538 118.057 248.405 120.986C248.461 117.722 248.433 114.486 248.433 111.222ZM257.527 132.953C254.57 133.762 252.952 137.78 255.268 140.095C258.392 142.857 263.442 142.829 266.901 140.653C268.881 139.649 269.133 136.887 268.24 135.102C265.701 132.005 261.042 131.754 257.527 132.953Z" fill="#101010"/>
<path d="M212.307 29.281C216.352 29.281 220.285 30.7596 223.298 33.4656C225.167 35.0557 228.068 33.7445 228.068 31.1501V14.942C228.068 11.7618 225.474 9 222.126 9H163.515C160.195 9 157.573 11.5944 157.573 14.942V78.4912C157.573 81.6714 160.167 84.2937 163.515 84.2937H222.266C225.446 84.2937 228.208 81.6993 228.208 78.3517V62.1436C228.208 59.6887 225.307 58.238 223.438 59.8281C220.397 62.4226 216.631 64.0127 212.446 64.0127C202.905 64.0127 195.234 56.2015 195.234 46.6329C195.234 37.0643 202.905 29.281 212.307 29.281Z" fill="#EE5A29"/>
</svg>
