<svg width="400" height="160" viewBox="0 0 400 160" fill="none" xmlns="http://www.w3.org/2000/svg">
<path fill-rule="evenodd" clip-rule="evenodd" d="M231.067 49.292C232.407 49.292 233.479 50.2962 233.426 51.5647V106.745C233.426 108.33 232.729 109.07 230.907 109.334C225.547 110.286 220.027 110.709 213.971 110.709C200.359 110.709 192.909 103.415 192.909 90.2012V85.2329C192.909 71.9136 200.198 64.884 213.971 64.884C216.437 64.884 220.456 65.0954 223.993 65.5711V51.5647C223.993 50.2962 225.119 49.292 226.458 49.292H231.067ZM223.647 73.5515C220.909 73.1803 216.802 73.1272 213.8 73.0212C206.007 73.0212 202.689 76.8398 202.689 85.803V90.7885C202.689 99.9639 205.902 103.729 213.8 103.729C216.644 103.729 220.698 103.517 223.647 103.305V73.5515ZM251.733 66.042C253.225 66.042 254.385 67.0979 254.385 68.3651V108.386C254.385 109.653 253.17 110.709 251.733 110.709H247.257C245.765 110.709 244.605 109.653 244.605 108.386V68.3651C244.605 67.0979 245.821 66.042 247.257 66.042H251.733ZM251.806 49.292C253.203 49.292 254.331 50.3776 254.385 51.6804V56.6744C254.385 57.9772 253.203 59.0628 251.806 59.0628H247.184C245.733 59.0628 244.605 57.9772 244.605 56.6744V51.6804C244.605 50.3776 245.787 49.292 247.184 49.292H251.806ZM291.038 87.5052L306.951 107.703C307.32 108.125 307.478 108.599 307.478 109.127C307.478 109.865 306.951 110.709 305.581 110.709H299.469C298.626 110.709 298.152 110.498 297.625 109.812L285.506 94.1498L273.387 109.654C272.702 110.498 272.333 110.709 271.279 110.709H265.957C264.745 110.709 264.165 109.918 264.165 109.179C264.165 108.916 264.218 108.283 264.798 107.65L280.395 87.9798L265.641 69.2061C265.325 68.7315 265.061 68.2569 265.061 67.7295C265.061 66.7275 265.904 66.042 267.116 66.042H272.912C273.913 66.042 274.546 66.4639 275.283 67.4658L285.874 81.3879L296.676 67.4131C297.572 66.3057 298.046 66.042 299.153 66.042H304.317C305.423 66.042 306.213 66.7803 306.213 67.7295C306.213 68.2569 305.897 68.7315 305.634 69.1534L291.038 87.5052ZM332.622 64.6462C344.804 64.6462 350.948 69.959 350.788 80.4785V106.724C350.788 108.318 350.093 109.062 348.277 109.327C342.934 110.284 337.484 110.709 331.607 110.709H329.63C318.623 110.709 313.067 106.086 313.067 96.9484V96.3639C313.067 86.7477 319.799 82.6036 335.507 82.6036H341.438V80.5316C341.438 74.3156 339.194 72.1904 332.568 72.1904C326.851 72.1904 322.631 72.5092 318.891 72.828H318.356C316.166 72.828 316.005 71.2872 316.005 70.8091V67.9933C316.005 67.0901 316.486 65.9744 318.57 65.7087C322.15 65.1774 326.317 64.6462 332.622 64.6462ZM322.847 96.9375V97.0979C322.847 101.911 324.791 103.729 330.061 103.729H331.545H331.647C334.359 103.729 338.145 103.516 341.01 103.302V89.7712H335.331C324.689 89.7712 322.847 92.0708 322.847 96.9375Z" fill="#5A43E0"/>
<mask id="mask0_1868_48827" style="mask-type:alpha" maskUnits="userSpaceOnUse" x="49" y="13" width="126" height="134">
<path d="M129.816 82.2757L116.391 90.0124C115.218 90.6862 113.722 90.2859 113.044 89.1189L97.5236 62.2978C96.8479 61.1284 97.2494 59.6343 98.4222 58.9605L111.869 51.2457C120.465 46.2897 131.432 49.2193 136.402 57.7886C138.042 60.5962 138.801 63.6967 138.801 66.7241C138.801 72.9252 135.594 78.9554 129.816 82.2757ZM167.521 39.8688C152.635 14.1611 119.679 5.37209 93.8975 20.2157L51.452 44.6295C49.1088 45.9772 48.3033 48.9654 49.6573 51.2994L86.447 114.827C87.233 116.184 87.6468 117.722 87.6468 119.285V145.722C87.6468 146.706 88.7118 147.319 89.5663 146.826L101.12 140.161L109.031 135.62L147.787 113.306C165.073 103.345 174.746 85.2761 174.746 66.6996C174.746 57.5689 172.418 48.3404 167.521 39.8688Z" fill="white"/>
</mask>
<g mask="url(#mask0_1868_48827)">
<path d="M129.816 82.2757L116.391 90.0124C115.218 90.6862 113.722 90.2859 113.044 89.1189L97.5236 62.2978C96.8479 61.1284 97.2494 59.6343 98.4222 58.9605L111.869 51.2457C120.465 46.2897 131.432 49.2193 136.402 57.7886C138.042 60.5962 138.801 63.6967 138.801 66.7241C138.801 72.9252 135.594 78.9554 129.816 82.2757ZM167.521 39.8688C152.635 14.1611 119.679 5.37209 93.8975 20.2157L51.452 44.6295C49.1088 45.9772 48.3033 48.9654 49.6573 51.2994L86.447 114.827C87.233 116.184 87.6468 117.722 87.6468 119.285V145.722C87.6468 146.706 88.7118 147.319 89.5663 146.826L101.12 140.161L109.031 135.62L147.787 113.306C165.073 103.345 174.746 85.2761 174.746 66.6996C174.746 57.5689 172.418 48.3404 167.521 39.8688Z" fill="#5A43E0"/>
</g>
</svg>
