<?xml version="1.0" encoding="UTF-8"?>
<svg width="242px" height="124px" viewBox="0 0 242 124" version="1.1" xmlns="http://www.w3.org/2000/svg" xmlns:xlink="http://www.w3.org/1999/xlink">
    <!-- Generator: Sketch 50.2 (55047) - http://www.bohemiancoding.com/sketch -->
    <title>Horizontal logo primary</title>
    <desc>Created with Sketch.</desc>
    <defs>
        <path d="M60.8419037,52.6303328 L51.2335531,58.1730754 C50.3941586,58.6558134 49.3234487,58.3689691 48.8380369,57.5329227 L37.729641,38.3178486 C37.2459816,37.4800532 37.5333734,36.409634 38.3727679,35.926896 L47.99689,30.3998949 C54.1495289,26.8493214 61.9984807,28.9481825 65.555831,35.0873515 C66.7299318,37.0987601 67.2731725,39.3200548 67.2731725,41.4888781 C67.2731725,45.9314675 64.9775425,50.2516235 60.8419037,52.6303328 Z M87.8286991,22.2493173 C77.1741721,3.83181049 53.5870119,-2.46477304 35.1343525,8.16945692 L4.75493133,25.6599667 C3.07789475,26.6254428 2.50135867,28.7662812 3.47042996,30.438374 L29.8018318,75.9504295 C30.3643488,76.9229018 30.6605026,78.024804 30.6605026,79.1441966 L30.6605026,98.0846696 C30.6605026,98.7895372 31.4227919,99.228549 32.0343758,98.8752407 L40.3039009,94.1003315 L45.9658708,90.8470967 L73.7044413,74.8607707 C86.0763098,67.7246427 93,54.7799165 93,41.4713876 C93,34.9299369 91.3334778,28.3185242 87.8286991,22.2493173 Z" id="path-1"></path>
    </defs>
    <g id="Horizontal-logo-primary" stroke="none" stroke-width="1" fill="none" fill-rule="evenodd">
        <g id="Group" transform="translate(13.000000, 14.000000)">
            <path d="M130.310871,26 C131.26982,26 132.03698,26.7194492 131.998622,27.6282272 L131.998622,67.1600688 C131.998622,68.2960413 131.499968,68.8261618 130.195797,69.0154905 C126.360001,69.697074 122.40913,70 118.07468,70 C108.331757,70 103,64.7745267 103,55.3080895 L103,51.7487091 C103,42.2065404 108.216683,37.1703959 118.07468,37.1703959 C119.839147,37.1703959 122.715994,37.3218589 125.24762,37.6626506 L125.24762,27.6282272 C125.24762,26.7194492 126.053137,26 127.012086,26 L130.310871,26 Z M125,43.3799655 C123.040201,43.1139896 120.100503,43.0759931 117.952261,43 C112.374372,43 110,45.7357513 110,52.1571675 L110,55.7288428 C110,62.3022453 112.298995,65 117.952261,65 C119.987437,65 122.889447,64.8480138 125,64.6960276 L125,43.3799655 Z M145.101695,38 C146.169492,38 147,38.7565012 147,39.6643026 L147,68.3356974 C147,69.2434988 146.129944,70 145.101695,70 L141.898305,70 C140.830508,70 140,69.2434988 140,68.3356974 L140,39.6643026 C140,38.7565012 140.870056,38 141.898305,38 L145.101695,38 Z M145.153846,26 C146.153846,26 146.961538,26.7777778 147,27.7111111 L147,31.2888889 C147,32.2222222 146.153846,33 145.153846,33 L141.846154,33 C140.807692,33 140,32.2222222 140,31.2888889 L140,27.7111111 C140,26.7777778 140.846154,26 141.846154,26 L145.153846,26 Z M173.233577,53.3766234 L184.622871,67.8465171 C184.886861,68.1487603 185,68.4887839 185,68.866588 C185,69.3955136 184.622871,70 183.642336,70 L179.26764,70 C178.664234,70 178.324818,69.8488784 177.947689,69.3577332 L169.273723,58.136954 L160.599757,69.244392 C160.109489,69.8488784 159.845499,70 159.091241,70 L155.282238,70 C154.414842,70 154,69.433294 154,68.9043684 C154,68.7154664 154.037713,68.2621015 154.452555,67.8087367 L165.615572,53.716647 L155.055961,40.2668241 C154.829684,39.9268005 154.641119,39.5867769 154.641119,39.2089728 C154.641119,38.4911452 155.244526,38 156.111922,38 L160.260341,38 C160.976886,38 161.42944,38.3022432 161.957421,39.0200708 L169.537713,48.9940968 L177.268856,38.9822904 C177.909976,38.188902 178.249392,38 179.041363,38 L182.737226,38 C183.529197,38 184.094891,38.5289256 184.094891,39.2089728 C184.094891,39.5867769 183.868613,39.9268005 183.680049,40.2290437 L173.233577,53.3766234 Z M202.996033,37 C211.714873,37 216.112534,40.8062284 215.997812,48.3425606 L215.997812,67.1453287 C215.997812,68.2871972 215.500685,68.8200692 214.200507,69.0103806 C210.376455,69.6955017 206.475921,70 202.269463,70 L200.854563,70 C192.977015,70 189,66.6885813 189,60.1418685 L189,59.7231834 C189,52.83391 193.818306,49.8650519 205.061021,49.8650519 L209.30572,49.8650519 L209.30572,48.3806228 C209.30572,43.9273356 207.699618,42.4048443 202.957792,42.4048443 C198.866056,42.4048443 195.845054,42.633218 193.168217,42.8615917 L192.785812,42.8615917 C191.217951,42.8615917 191.103229,41.7577855 191.103229,41.4152249 L191.103229,39.3979239 C191.103229,38.7508651 191.447394,37.9515571 192.938774,37.7612457 C195.50089,37.3806228 198.483651,37 202.996033,37 Z M196,60.1340996 L196,60.2490421 C196,63.697318 197.391549,65 201.16338,65 L202.225352,65 L202.298592,65 C204.239437,65 206.949296,64.8467433 209,64.6934866 L209,55 L204.935211,55 C197.31831,55 196,56.6475096 196,60.1340996 Z" id="Combined-Shape" fill="#5A43E0"></path>
            <g id="D-mark-primary" transform="translate(-3.000000, -3.000000)">
                <mask id="mask-2" fill="white">
                    <use xlink:href="#path-1"></use>
                </mask>
                <use id="Mask" fill="#5A43E0" fill-rule="evenodd" xlink:href="#path-1"></use>
            </g>
        </g>
    </g>
</svg>