<svg width="400" height="160" viewBox="0 0 400 160" fill="none" xmlns="http://www.w3.org/2000/svg">
<path d="M133.084 52.0324V111.555H153.502C171.198 111.555 181.593 100.541 181.593 81.7728C181.593 63.0458 171.157 52.0324 153.502 52.0324H133.084ZM140.509 58.7147H153.007C166.537 58.7147 174.003 66.9645 174.003 81.8553C174.003 96.6224 166.496 104.872 153.007 104.872H140.509V58.7147Z" fill="black"/>
<path d="M208.24 111.967C220.738 111.967 228.74 103.099 228.74 89.3214C228.74 75.503 220.738 66.6757 208.24 66.6757C195.741 66.6757 187.739 75.503 187.739 89.3214C187.739 103.099 195.741 111.967 208.24 111.967ZM208.24 105.573C199.99 105.573 195.04 99.5099 195.04 89.3214C195.04 79.1329 199.949 73.0693 208.24 73.0693C216.531 73.0693 221.439 79.0917 221.439 89.3214C221.439 99.5099 216.531 105.573 208.24 105.573Z" fill="black"/>
<path d="M236.701 111.555H243.879V67.0882H236.701V111.555ZM240.29 59.9109C242.806 59.9109 244.827 57.8485 244.827 55.3736C244.827 52.8574 242.806 50.8362 240.29 50.8362C237.815 50.8362 235.753 52.8574 235.753 55.3736C235.753 57.8485 237.815 59.9109 240.29 59.9109Z" fill="black"/>
<path d="M256.377 57.0648V67.0882H250.19V73.0281H256.377V100.005C256.377 108.543 259.512 111.885 267.556 111.885C269.247 111.885 271.309 111.72 272.175 111.513V105.45C271.68 105.532 269.948 105.656 269.082 105.656C265.287 105.656 263.554 103.8 263.554 99.7161V73.0281H272.217V67.0882H263.554V57.0648H256.377Z" fill="black"/>
<path d="M286.035 111.967C288.716 111.967 290.737 109.905 290.737 107.265C290.737 104.583 288.716 102.562 286.035 102.562C283.395 102.562 281.333 104.583 281.333 107.265C281.333 109.905 283.395 111.967 286.035 111.967Z" fill="black"/>
<path d="M302.04 111.555H309.217V67.0882H302.04V111.555ZM305.628 59.9109C308.144 59.9109 310.166 57.8485 310.166 55.3736C310.166 52.8574 308.144 50.8362 305.628 50.8362C303.153 50.8362 301.091 52.8574 301.091 55.3736C301.091 57.8485 303.153 59.9109 305.628 59.9109Z" fill="black"/>
<path d="M319.364 111.555H326.541V83.959C326.541 77.7304 330.914 73.0693 336.854 73.0693C342.422 73.0693 346.093 76.6167 346.093 81.9791V111.555H353.271V83.5878C353.271 77.483 357.519 73.0693 363.459 73.0693C369.399 73.0693 372.823 76.6992 372.823 82.8453V111.555H380V81.1954C380 72.3681 374.308 66.6757 365.522 66.6757C359.293 66.6757 354.054 69.8107 351.538 75.0905H351.373C349.435 69.7282 344.938 66.6757 338.916 66.6757C333.141 66.6757 328.398 69.5632 326.294 74.3068H326.129V67.0882H319.364V111.555Z" fill="black"/>
<path fill-rule="evenodd" clip-rule="evenodd" d="M70.23 47.6254C63.6531 47.6254 60.9532 48.7152 58.6993 50.9691L49.052 60.6164L49.0489 60.6196L49.0459 60.6226L49.0376 60.6308L49.0305 60.6379L49.0265 60.642L49.0229 60.6455L49.0206 60.6478L49.0186 60.6499L49.0168 60.6516L49.015 60.6534L49.0132 60.6552L48.3439 61.3245H35.9823C29.6774 61.3245 24.5664 66.4356 24.5664 72.7404V100.139C24.5664 106.443 29.6774 111.555 35.9823 111.555H77.0795C83.3844 111.555 88.4954 106.443 88.4954 100.139V62.4325C88.4954 54.5944 81.5265 47.6254 73.6884 47.6254H70.23ZM46.4524 56.7582H35.9823C27.1555 56.7582 20 63.9137 20 72.7404V100.139C20 108.965 27.1555 116.121 35.9823 116.121H77.0795C85.9063 116.121 93.0618 108.965 93.0618 100.139V62.4325C93.0618 52.0724 84.0484 43.0591 73.6884 43.0591H70.23C63.1078 43.0591 58.9581 44.2525 55.4704 47.7402L46.4524 56.7582Z" fill="#007AFF"/>
<path d="M49.6814 86.4395C47.3982 84.1563 38.2655 79.59 33.6991 79.59V81.8731L33.6991 81.8732C40.5486 88.7227 47.3982 95.5722 50.823 102.422H53.1061C59.9557 89.8643 73.6548 76.1652 81.6459 69.3157V67.0325C72.5132 68.1741 56.9114 81.4926 50.823 87.5811L49.6814 86.4395Z" fill="#007AFF"/>
</svg>
