<svg width="400" height="160" viewBox="0 0 400 160" fill="none" xmlns="http://www.w3.org/2000/svg">
<path d="M96.8201 98.1857L99.3045 97.6742C101.497 97.0896 102.081 96.7973 102.081 92.4129V57.9956C102.081 53.6112 101.424 53.2458 99.3045 52.7343L96.8201 52.2228V50.1768H136.426L137.156 64.7183H134.891C133.064 60.6993 131.895 58.5802 130.799 56.9725C128.461 53.6112 126.926 53.3189 121.884 53.3189C118.157 53.3189 116.331 53.7573 115.234 54.0496V72.6832H117.207C122.323 72.6832 123.492 72.0987 124.369 70.491C125.392 68.6642 125.976 67.2758 126.634 64.9375H128.826V83.7903H126.634C125.976 81.5251 125.392 80.0636 124.369 77.9445C123.492 76.1177 122.542 75.7523 117.207 75.7523H115.234V89.7823C115.234 96.2858 115.454 97.0165 122.542 97.0165C128.388 97.0165 129.557 96.2858 131.968 92.7052C133.283 90.7323 134.672 87.6632 136.572 83.0596H138.91L137.887 100.232H96.8931L96.8201 98.1857ZM145.048 70.7833C143.368 66.6913 142.564 65.6682 140.737 65.0836L139.349 64.6452V62.7453H161.051V64.6452L159.078 65.1567C157.544 65.5952 156.813 66.3259 156.813 68.0796C156.813 69.1027 157.178 70.3449 157.763 71.9525L163.828 88.6131H164.193L170.039 71.9525C170.697 70.1988 170.989 68.9565 170.989 67.9335C170.989 66.3259 170.258 65.5221 168.724 65.1567L166.751 64.6452V62.7453H180.123V64.6452L178.735 65.0836C176.835 65.7413 176.031 66.8374 174.277 71.5871L163.097 100.232H156.959L145.048 70.7833ZM178.443 81.3058C178.443 68.7373 187.723 61.7954 197.295 61.7954C207.233 61.7954 213.445 66.7643 213.664 79.8444H189.769C189.988 91.6822 194.446 94.8974 201.899 94.8974C206.356 94.8974 209.791 93.5821 212.495 92.1937V94.6051C209.937 97.3819 204.457 101.182 197.222 101.182C184.654 101.036 178.443 93.5821 178.443 81.3058ZM189.769 77.0676L202.118 76.41C202.118 67.7143 200.949 64.4991 196.638 64.4991C192.984 64.4991 190.061 68.0066 189.769 77.0676ZM232.663 67.3489C234.709 65.1567 238.874 61.5761 243.697 61.5761C246.766 61.5761 249.323 64.0606 249.323 67.2028C249.323 70.3449 246.839 72.8294 243.697 72.8294C241.431 72.8294 239.385 71.441 238.582 69.468C238.143 68.6642 237.193 68.445 236.536 68.445C235.22 68.445 233.686 69.395 232.736 70.2718V93.6552C232.736 97.0165 233.028 97.3819 235.22 97.7473L237.632 98.2588V100.232H216.806V98.2588L218.706 97.7473C221.117 97.0896 221.41 96.7242 221.41 93.6552V71.2218C221.41 68.1527 221.044 67.9335 218.998 66.5451L216.587 64.9375V63.476L231.786 61.7223L232.59 62.3069L232.444 67.2758L232.663 67.3489ZM251.516 98.2588L253.415 97.7473C255.827 97.0896 256.119 96.7242 256.119 93.6552V71.2218C256.119 68.1527 255.754 67.9335 253.708 66.5451L251.296 64.9375V63.476L266.496 61.7223L267.299 62.2338L267.153 66.8374H267.445C271.245 64.1337 275.995 61.7223 281.256 61.7223C287.394 61.7223 290.683 64.8644 290.683 71.3679V93.5821C290.683 96.7242 290.975 97.0896 293.313 97.6742L295.213 98.1857V100.159H275.118V98.1857L276.872 97.7473C279.064 97.1627 279.283 96.9435 279.283 93.5821V74.2178C279.283 69.8334 277.676 68.445 274.314 68.445C271.757 68.445 269.199 69.0296 267.592 69.395V93.6552C267.592 97.0896 267.811 97.2358 270.003 97.8203L271.757 98.2588V100.232H251.662V98.2588H251.516ZM296.602 81.5251C296.602 67.7143 306.393 61.7954 316.112 61.7954C326.562 61.7954 335.696 68.0796 335.696 81.1597C335.696 94.9705 326.05 101.036 316.112 101.036C305.663 101.036 296.602 94.7513 296.602 81.5251ZM323.566 81.8904C323.566 67.3489 320.789 64.5721 315.82 64.5721C311.289 64.5721 308.586 67.8604 308.586 80.2828C308.586 95.0436 310.997 98.2588 316.258 98.2588C320.57 98.2588 323.566 95.7012 323.566 81.8904ZM341.907 91.0976V66.9835H337.376V65.2298C343.003 63.0376 347.314 58.8724 349.36 53.0997H353.452V62.7453H363.025L362.075 66.9835H353.452V90.3669C353.452 93.9475 354.548 95.4089 358.129 95.4089C359.883 95.4089 362.002 95.0436 363.317 94.7513V96.7973C361.563 98.4049 357.983 101.036 351.918 101.036C345.414 101.036 341.907 98.1857 341.907 91.0976ZM364.779 81.3058C364.779 68.7373 374.059 61.7954 383.632 61.7954C393.569 61.7954 399.781 66.7643 400 79.8444H376.178C376.397 91.6822 380.855 94.8974 388.308 94.8974C392.766 94.8974 396.2 93.5821 398.904 92.1937V94.6051C396.346 97.3819 390.866 101.182 383.632 101.182C370.99 101.036 364.779 93.5821 364.779 81.3058ZM376.105 77.0676L388.454 76.41C388.454 67.7143 387.285 64.4991 382.974 64.4991C379.32 64.4991 376.397 68.0066 376.105 77.0676Z" fill="black"/>
<path d="M23.6026 55.8028C23.6026 56.6797 23.5295 58.1411 22.6526 59.0911C21.7027 59.9679 20.2412 60.041 19.3643 60.041H10.011C7.3073 60.041 5.69969 60.041 4.6036 60.1872C4.01901 60.2602 3.28828 60.5525 2.92292 60.6987C2.77677 60.7717 2.77677 60.6987 2.84985 60.6256L24.1872 38.9229C24.2602 38.8498 24.3333 38.8498 24.2602 38.996C24.1141 39.3614 23.8218 40.0921 23.7487 40.6767C23.6026 41.7728 23.6026 43.3804 23.6026 46.0841V55.8028ZM43.4784 121.422C40.9939 119.815 39.6786 117.696 39.1671 116.38C38.6556 115.138 38.3633 113.75 38.3633 112.361C38.3633 106.296 43.3323 101.327 49.4704 101.327C51.2972 101.327 52.7587 102.789 52.7587 104.616C52.7587 105.858 52.101 106.881 51.078 107.465C50.7126 107.685 50.2011 107.831 49.8358 107.904C49.4704 107.977 48.082 108.123 47.4244 108.708C46.6936 109.292 46.109 110.242 46.109 111.265C46.109 112.361 46.5475 113.384 47.2782 114.115C48.5935 115.43 50.3473 116.161 52.2472 116.161C57.2161 116.161 61.2352 112.142 61.2352 107.173C61.2352 102.716 58.2392 98.7697 54.2932 97.0159C53.7086 96.7236 52.7587 96.5044 51.8818 96.2852C50.7857 96.066 49.7627 95.9198 49.6896 95.9198C46.6206 95.5545 38.9479 93.1431 38.4364 86.3473C38.4364 86.3473 36.1711 96.5775 31.6406 99.3543C31.2022 99.5735 30.6176 99.7927 29.9599 99.9389C29.3023 100.085 28.5715 100.158 28.3523 100.158C20.9719 100.597 13.1531 98.2582 7.74574 92.7046C7.74574 92.7046 4.09209 89.7086 2.19219 81.3052C1.75375 79.2592 0.876876 75.6056 0.365365 72.1711C0.146146 70.9289 0.073073 69.9789 0 69.1021C0 65.5215 2.19219 63.1101 4.96896 62.7447C5.04204 62.7447 5.26125 62.7447 5.4074 62.7447C7.08808 62.7447 19.8759 62.7447 19.8759 62.7447C22.4334 62.7447 23.8949 62.0871 24.8448 61.2102C26.0871 60.041 26.3793 58.3603 26.3793 56.3874C26.3793 56.3874 26.3793 43.0881 26.3793 41.4074C26.3793 41.3343 26.3793 41.042 26.3793 40.969C26.7447 38.2653 29.1561 36 32.7367 36C32.7367 36 33.8328 36 34.4904 36C35.2212 36 36.098 36.0731 36.9019 36.1461C37.4864 36.2192 37.9979 36.3654 38.8748 36.5846C43.3323 37.6807 44.2822 42.2112 44.2822 42.2112C44.2822 42.2112 52.6856 43.6727 56.9239 44.4034C60.9429 45.1341 70.8808 45.7918 72.7807 55.8028C77.2381 79.6246 74.5344 102.716 74.3152 102.716C71.1731 125.222 52.4664 124.126 52.4664 124.126C48.4474 124.126 45.4514 122.811 43.4784 121.422ZM60.2852 73.5595C57.8738 73.3403 55.8278 74.2902 55.097 76.1171C54.9509 76.4824 54.8047 76.9209 54.8778 77.1401C54.9509 77.3593 55.097 77.4324 55.2432 77.5055C56.12 77.9439 57.5815 78.1631 59.7006 78.3823C61.8197 78.6015 63.2812 78.7477 64.2311 78.6015C64.3773 78.6015 64.5234 78.5285 64.6696 78.3093C64.8157 78.09 64.7427 77.6516 64.7427 77.2862C64.4504 75.2402 62.6966 73.8518 60.2852 73.5595Z" fill="#00A82D"/>
</svg>
