<svg width="400" height="160" viewBox="0 0 400 160" fill="none" xmlns="http://www.w3.org/2000/svg">
<path d="M64.5 147C76.9187 147 87 136.919 87 124.5V102H64.5C52.0813 102 42 112.081 42 124.5C42 136.919 52.0813 147 64.5 147Z" fill="#0ACF83"/>
<path d="M42 79.9885C42 67.8521 52.0813 58 64.5 58H87V102H64.5C52.0813 102 42 92.1479 42 80.0115V79.9885Z" fill="#A259FF"/>
<path d="M42 35.4882C42 23.076 52.0813 13 64.5 13H87V58H64.5C52.0813 58 42 47.924 42 35.5118V35.4882Z" fill="#F24E1E"/>
<path d="M86 13H108.5C120.919 13 131 23.0813 131 35.5C131 47.9187 120.919 58 108.5 58H86V13Z" fill="#FF7262"/>
<path d="M132 80C132 92.1427 121.748 102 109.12 102C96.4917 102 86 92.1427 86 80C86 67.8573 96.2516 58 108.88 58C121.508 58 131.76 67.8573 131.76 80H132Z" fill="#1ABCFE"/>
<path d="M161 44V99.459H168.212V72.9786H185.553V66.0948H168.212V50.9393H190.744V44H161ZM203.792 55.2695C206.402 55.2695 208.506 53.1877 208.506 50.6062C208.506 48.0248 206.374 46.2206 203.792 46.2206C201.211 46.2206 199.078 48.3024 199.078 50.8838C199.078 52.1329 199.583 53.2987 200.481 54.2147C201.379 55.1307 202.557 55.6025 203.848 55.6025L203.792 55.2695ZM200.144 62.2643V99.459H207.075V62.2643H199.92H200.144ZM234.154 61.154C224.557 61.154 217.878 69.4812 217.878 78.6966C217.878 87.912 224.613 96.1837 234.154 96.1837C236.139 96.218 238.109 95.8434 239.94 95.0836C241.771 94.3238 243.422 93.1954 244.788 91.7703V96.7111C244.768 99.6796 243.604 102.529 241.533 104.677C240.487 105.733 239.239 106.572 237.86 107.144C236.482 107.716 235.003 108.01 233.508 108.008C231.213 107.937 228.99 107.203 227.11 105.899L223.463 112.089C226.264 113.871 229.499 114.873 232.828 114.989C236.156 115.105 239.455 114.331 242.376 112.748C245.298 111.165 247.733 108.833 249.427 105.996C251.121 103.159 252.009 99.9225 252 96.6278V62.2088H244.788V65.5396C243.422 64.1145 241.771 62.9861 239.94 62.2263C238.109 61.4665 236.139 61.0919 234.154 61.1262V61.154ZM225.118 78.6966C224.954 76.892 225.303 75.0779 226.126 73.4593C226.949 71.8406 228.213 70.4819 229.776 69.5367C232.975 67.5937 236.988 67.5937 240.158 69.5367C243.329 71.4797 245.125 75.0326 244.816 78.6966C244.981 80.5012 244.632 82.3153 243.809 83.9339C242.985 85.5526 241.721 86.9113 240.158 87.8565C236.96 89.7995 232.947 89.7995 229.776 87.8565C226.605 85.9135 224.809 82.3606 225.118 78.6966Z" fill="black"/>
<path d="M278.885 68.2962C276.832 68.3035 274.866 69.1241 273.414 70.5788C271.963 72.0336 271.144 74.0046 271.137 76.0619V99.6653H264V62.3675H271.137V65.5128C273.303 62.618 276.746 60.948 280.356 61.0036C284.911 60.8923 289.159 63.3417 291.409 67.322C294.186 63.4252 298.185 61.0593 302.517 61.0036C310.653 61.0036 315.707 67.5725 315.735 75.7001V99.4427H308.598V75.7836C308.808 74.3098 308.591 72.8068 307.975 71.4524C307.359 70.0979 306.368 68.9487 305.121 68.1406C303.874 67.3325 302.422 66.8994 300.937 66.8924C299.451 66.8855 297.995 67.305 296.741 68.1014C295.493 68.9168 294.505 70.0742 293.894 71.4361C293.284 72.798 293.077 74.307 293.297 75.7836V99.387H286.438V75.8114C286.431 73.7541 285.612 71.7831 284.161 70.3283C282.709 68.8736 280.743 68.053 278.69 68.0457L278.885 68.2962ZM353.863 66.3478C352.239 64.6488 350.285 63.3007 348.121 62.3865C345.958 61.4722 343.631 61.0111 341.283 61.0315C330.648 61.0315 323.233 70.0498 323.233 80.5154C323.233 90.9811 330.731 99.9994 341.283 99.9994C343.631 100.02 345.958 99.5586 348.121 98.6443C350.285 97.7301 352.239 96.382 353.863 94.683V98.9138H361V61.616H353.863V66.3478ZM330.259 80.8216C329.898 76.3681 332.064 72.0817 335.868 69.7436C339.673 67.4055 344.199 67.4055 348.254 69.7436C350.111 70.8988 351.616 72.5426 352.605 74.496C353.594 76.4493 354.029 78.6373 353.863 80.8216C354.224 85.2751 352.058 89.5615 348.254 91.8996C344.449 94.2377 339.923 94.2377 335.868 91.8996C334.011 90.7444 332.506 89.1006 331.517 87.1472C330.528 85.1938 330.093 83.0058 330.259 80.8216Z" fill="black"/>
</svg>
