<svg width="400" height="160" viewBox="0 0 400 160" fill="none" xmlns="http://www.w3.org/2000/svg">
<path d="M62.25 60.75H23.75V99.25H62.25V60.75Z" fill="white"/>
<path d="M45.9399 74.6099L47.7039 77.1299L50.4759 75.1139V89.7299H53.4999V70.5779H50.9799L45.9399 74.6099Z" fill="#1E88E5"/>
<path d="M41.1503 79.5537C42.244 78.5492 42.923 77.1562 42.923 75.618C42.923 72.5607 40.2402 70.074 36.9432 70.074C34.1397 70.074 31.7422 71.8397 31.1157 74.3667L34.0155 75.1035C34.3042 73.9415 35.5345 73.098 36.9432 73.098C38.5917 73.098 39.934 74.2285 39.934 75.618C39.934 77.0075 38.5917 78.138 36.9432 78.138H35.1985V81.162H36.9432C38.835 81.162 40.431 82.4762 40.431 84.032C40.431 85.614 38.9155 86.902 37.0518 86.902C35.3682 86.902 33.9298 85.8345 33.7023 84.4205L30.75 84.9035C31.2085 87.7665 33.9175 89.926 37.05 89.926C40.5623 89.926 43.42 87.2817 43.42 84.032C43.42 82.2417 42.538 80.6352 41.1503 79.5537Z" fill="#1E88E5"/>
<path d="M60.5 111.5H25.5L23.75 104.5L25.5 97.5H60.5L62.25 104.5L60.5 111.5Z" fill="#FBC02D"/>
<path d="M67.5 99.25L74.5 97.5V62.5L67.5 60.75L60.5 62.5V97.5L67.5 99.25Z" fill="#4CAF50"/>
<path d="M60.5 62.5L62.25 55.5L60.5 48.5H16.75C13.8503 48.5 11.5 50.8503 11.5 53.75V97.5L18.5 99.25L25.5 97.5V62.5H60.5Z" fill="#1E88E5"/>
<path d="M60.5 97.5V111.5L74.5 97.5H60.5Z" fill="#E53935"/>
<path d="M69.25 48.5H60.5V62.5H74.5V53.75C74.5 50.8503 72.1497 48.5 69.25 48.5Z" fill="#1565C0"/>
<path d="M16.75 111.5H25.5V97.5H11.5V106.25C11.5 109.15 13.8503 111.5 16.75 111.5Z" fill="#1565C0"/>
<path d="M111.77 90.7783C109.089 90.7783 106.621 90.128 104.365 88.8273C102.109 87.527 100.318 85.7357 98.9907 83.453C97.6637 81.1707 97 78.6493 97 75.889C97 73.129 97.6637 70.6077 98.9907 68.325C100.318 66.0427 102.109 64.251 104.365 62.9507C106.621 61.6503 109.089 61 111.77 61C113.866 61 115.83 61.3717 117.662 62.1147C119.52 62.8577 121.046 63.906 122.24 65.2597L119.811 67.688C118.909 66.5733 117.755 65.724 116.348 65.1403C114.941 64.5297 113.429 64.2247 111.81 64.2247C109.793 64.2247 107.908 64.7157 106.157 65.6977C104.431 66.653 103.038 68.02 101.976 69.798C100.941 71.5497 100.424 73.58 100.424 75.889C100.424 78.198 100.941 80.2417 101.976 82.02C103.038 83.7717 104.445 85.1383 106.196 86.1203C107.948 87.0757 109.819 87.5537 111.81 87.5537C113.72 87.5537 115.313 87.2617 116.587 86.6777C117.887 86.0673 119.002 85.271 119.931 84.289C120.621 83.546 121.178 82.657 121.603 81.6217C122.028 80.56 122.293 79.3923 122.399 78.1183H111.849V74.9733H125.544C125.677 75.7167 125.743 76.4067 125.743 77.0437C125.743 78.7953 125.465 80.507 124.907 82.179C124.35 83.8247 123.461 85.271 122.24 86.5183C119.612 89.3583 116.122 90.7783 111.77 90.7783Z" fill="#7E7E7E"/>
<path d="M139.262 90.7783C137.272 90.7783 135.48 90.3003 133.888 89.3449C132.295 88.3896 131.048 87.0889 130.146 85.4436C129.27 83.7979 128.832 81.9799 128.832 79.9896C128.832 77.9989 129.27 76.1809 130.146 74.5356C131.048 72.8899 132.295 71.5896 133.888 70.6339C135.48 69.6786 137.272 69.2009 139.262 69.2009C141.253 69.2009 143.044 69.6786 144.637 70.6339C146.229 71.5896 147.463 72.8899 148.339 74.5356C149.241 76.1809 149.693 77.9989 149.693 79.9896C149.693 81.9799 149.241 83.7979 148.339 85.4436C147.463 87.0889 146.229 88.3896 144.637 89.3449C143.044 90.3003 141.253 90.7783 139.262 90.7783ZM139.262 87.7126C140.51 87.7126 141.664 87.4076 142.726 86.7969C143.814 86.1599 144.676 85.2576 145.313 84.0899C145.977 82.9223 146.309 81.5553 146.309 79.9896C146.309 78.4236 145.977 77.0569 145.313 75.8889C144.676 74.7213 143.814 73.8323 142.726 73.2216C141.664 72.5846 140.51 72.2663 139.262 72.2663C138.015 72.2663 136.847 72.5846 135.759 73.2216C134.671 73.8323 133.795 74.7213 133.131 75.8889C132.495 77.0569 132.176 78.4236 132.176 79.9896C132.176 81.5553 132.495 82.9223 133.131 84.0899C133.795 85.2576 134.671 86.1599 135.759 86.7969C136.847 87.4076 138.015 87.7126 139.262 87.7126Z" fill="#7E7E7E"/>
<path d="M162.977 90.7783C160.987 90.7783 159.195 90.3003 157.603 89.3449C156.011 88.3896 154.763 87.0889 153.861 85.4436C152.985 83.7979 152.547 81.9799 152.547 79.9896C152.547 77.9989 152.985 76.1809 153.861 74.5356C154.763 72.8899 156.011 71.5896 157.603 70.6339C159.195 69.6786 160.987 69.2009 162.977 69.2009C164.968 69.2009 166.759 69.6786 168.352 70.6339C169.944 71.5896 171.178 72.8899 172.054 74.5356C172.957 76.1809 173.408 77.9989 173.408 79.9896C173.408 81.9799 172.957 83.7979 172.054 85.4436C171.178 87.0889 169.944 88.3896 168.352 89.3449C166.759 90.3003 164.968 90.7783 162.977 90.7783ZM162.977 87.7126C164.225 87.7126 165.379 87.4076 166.441 86.7969C167.529 86.1599 168.392 85.2576 169.029 84.0899C169.692 82.9223 170.024 81.5553 170.024 79.9896C170.024 78.4236 169.692 77.0569 169.029 75.8889C168.392 74.7213 167.529 73.8323 166.441 73.2216C165.379 72.5846 164.225 72.2663 162.977 72.2663C161.73 72.2663 160.562 72.5846 159.474 73.2216C158.386 73.8323 157.51 74.7213 156.847 75.8889C156.21 77.0569 155.891 78.4236 155.891 79.9896C155.891 81.5553 156.21 82.9223 156.847 84.0899C157.51 85.2576 158.386 86.1599 159.474 86.7969C160.562 87.4076 161.73 87.7126 162.977 87.7126Z" fill="#7E7E7E"/>
<path d="M186.255 99.3773C183.866 99.3773 181.889 98.8199 180.323 97.7053C178.784 96.5903 177.749 95.2503 177.218 93.6843L180.284 92.3706C180.735 93.5383 181.478 94.4806 182.513 95.1969C183.575 95.9403 184.822 96.3116 186.255 96.3116C188.352 96.3116 189.971 95.7013 191.112 94.4806C192.28 93.2596 192.864 91.5346 192.864 89.3053V87.0359H192.704C192.041 88.0709 191.099 88.9203 189.878 89.5839C188.684 90.2206 187.317 90.5393 185.777 90.5393C184.026 90.5393 182.42 90.0879 180.96 89.1856C179.527 88.2833 178.386 87.0226 177.537 85.4036C176.687 83.7846 176.263 81.9403 176.263 79.8699C176.263 77.8266 176.687 75.9953 177.537 74.3763C178.386 72.7306 179.527 71.4569 180.96 70.5543C182.42 69.6519 184.026 69.2009 185.777 69.2009C187.317 69.2009 188.684 69.5326 189.878 70.1963C191.099 70.8329 192.041 71.6823 192.704 72.7439H192.864V69.8379H196.088V89.3449C196.088 92.6093 195.186 95.0909 193.381 96.7896C191.576 98.5146 189.201 99.3773 186.255 99.3773ZM186.255 87.4739C187.476 87.4739 188.577 87.1686 189.559 86.5583C190.568 85.9479 191.364 85.0719 191.948 83.9306C192.558 82.7896 192.864 81.4359 192.864 79.8699C192.864 78.2776 192.558 76.9109 191.948 75.7696C191.364 74.6283 190.568 73.7659 189.559 73.1819C188.577 72.5716 187.476 72.2663 186.255 72.2663C185.034 72.2663 183.92 72.5716 182.911 73.1819C181.902 73.7923 181.093 74.6683 180.483 75.8093C179.899 76.9506 179.607 78.3043 179.607 79.8699C179.607 81.4359 179.899 82.8026 180.483 83.9706C181.093 85.1116 181.902 85.9876 182.911 86.5979C183.92 87.1819 185.034 87.4739 186.255 87.4739Z" fill="#7E7E7E"/>
<path d="M201.091 61.637H204.475V90.1413H201.091V61.637Z" fill="#7E7E7E"/>
<path d="M218.331 90.7783C216.394 90.7783 214.656 90.3136 213.116 89.3846C211.577 88.4559 210.369 87.1819 209.493 85.5629C208.644 83.9176 208.22 82.0729 208.22 80.0293C208.22 78.0653 208.618 76.2606 209.414 74.6149C210.237 72.9696 211.391 71.6559 212.877 70.6739C214.364 69.6919 216.089 69.2009 218.053 69.2009C220.043 69.2009 221.768 69.6519 223.228 70.5543C224.688 71.4303 225.802 72.6509 226.572 74.2169C227.368 75.7829 227.766 77.5743 227.766 79.5913C227.766 79.9896 227.727 80.3346 227.647 80.6266H211.603C211.683 82.1659 212.055 83.4663 212.718 84.5279C213.382 85.5896 214.218 86.3856 215.226 86.9166C216.261 87.4473 217.336 87.7126 218.451 87.7126C221.052 87.7126 223.056 86.4919 224.462 84.0503L227.329 85.4436C226.453 87.0889 225.258 88.3896 223.746 89.3449C222.259 90.3003 220.455 90.7783 218.331 90.7783ZM224.184 77.8396C224.13 76.9903 223.892 76.1413 223.467 75.2919C223.042 74.4426 222.365 73.7259 221.437 73.1419C220.534 72.5583 219.393 72.2663 218.013 72.2663C216.42 72.2663 215.067 72.7839 213.952 73.8189C212.864 74.8273 212.147 76.1676 211.802 77.8396H224.184Z" fill="#7E7E7E"/>
<path d="M254.255 90.7783C251.495 90.7783 248.987 90.128 246.731 88.8273C244.475 87.527 242.697 85.7487 241.396 83.493C240.122 81.2103 239.485 78.6757 239.485 75.889C239.485 73.1023 240.122 70.581 241.396 68.325C242.697 66.0427 244.475 64.251 246.731 62.9507C248.987 61.6503 251.495 61 254.255 61C256.378 61 258.316 61.4113 260.067 62.234C261.846 63.0303 263.385 64.1717 264.685 65.6577L262.257 68.0067C261.169 66.706 259.974 65.7507 258.674 65.1403C257.4 64.5297 255.927 64.2247 254.255 64.2247C252.185 64.2247 250.287 64.7157 248.562 65.6977C246.837 66.653 245.457 68.02 244.422 69.798C243.413 71.5497 242.909 73.58 242.909 75.889C242.909 78.198 243.413 80.2417 244.422 82.02C245.457 83.7717 246.837 85.1383 248.562 86.1203C250.287 87.0757 252.185 87.5537 254.255 87.5537C257.705 87.5537 260.638 86.1337 263.053 83.2937L265.521 85.6823C264.194 87.2483 262.562 88.4957 260.625 89.4247C258.687 90.327 256.564 90.7783 254.255 90.7783Z" fill="#7E7E7E"/>
<path d="M275.421 90.7783C273.935 90.7783 272.608 90.4863 271.44 89.9023C270.272 89.3183 269.37 88.5223 268.733 87.5136C268.096 86.4786 267.777 85.3109 267.777 84.0103C267.777 81.8606 268.587 80.1886 270.206 78.9943C271.825 77.7733 273.868 77.1629 276.337 77.1629C277.558 77.1629 278.686 77.2956 279.721 77.5609C280.782 77.8266 281.592 78.1316 282.149 78.4766V77.2426C282.149 75.7296 281.618 74.5223 280.557 73.6199C279.495 72.6909 278.155 72.2266 276.536 72.2266C275.395 72.2266 274.346 72.4786 273.391 72.9829C272.435 73.4606 271.679 74.1373 271.122 75.0133L268.574 73.1023C269.37 71.8813 270.458 70.9259 271.838 70.2359C273.245 69.5459 274.797 69.2009 276.496 69.2009C279.256 69.2009 281.419 69.9306 282.985 71.3903C284.577 72.8236 285.374 74.7876 285.374 77.2823V90.1413H282.149V87.2349H281.99C281.406 88.2169 280.53 89.0529 279.362 89.7429C278.195 90.4329 276.881 90.7783 275.421 90.7783ZM275.74 87.7923C276.881 87.7923 277.942 87.5003 278.924 86.9166C279.906 86.3326 280.689 85.5496 281.273 84.5676C281.857 83.5856 282.149 82.5109 282.149 81.3429C281.512 80.9183 280.729 80.5733 279.8 80.3079C278.871 80.0426 277.889 79.9099 276.854 79.9099C274.996 79.9099 273.59 80.2946 272.634 81.0643C271.705 81.8339 271.241 82.8293 271.241 84.0503C271.241 85.1649 271.666 86.0673 272.515 86.7573C273.364 87.4473 274.439 87.7923 275.74 87.7923Z" fill="#7E7E7E"/>
<path d="M290.082 61.637H293.465V90.1413H290.082V61.637Z" fill="#7E7E7E"/>
<path d="M307.321 90.7783C305.384 90.7783 303.645 90.3136 302.106 89.3846C300.567 88.4559 299.359 87.1819 298.483 85.5629C297.634 83.9176 297.209 82.0729 297.209 80.0293C297.209 78.0653 297.608 76.2606 298.404 74.6149C299.227 72.9696 300.381 71.6559 301.867 70.6739C303.354 69.6919 305.079 69.2009 307.043 69.2009C309.033 69.2009 310.758 69.6519 312.218 70.5543C313.678 71.4303 314.792 72.6509 315.562 74.2169C316.358 75.7829 316.756 77.5743 316.756 79.5913C316.756 79.9896 316.717 80.3346 316.637 80.6266H300.593C300.673 82.1659 301.045 83.4663 301.708 84.5279C302.372 85.5896 303.208 86.3856 304.216 86.9166C305.251 87.4473 306.326 87.7126 307.441 87.7126C310.042 87.7126 312.045 86.4919 313.452 84.0503L316.318 85.4436C315.443 87.0889 314.248 88.3896 312.736 89.3449C311.249 90.3003 309.445 90.7783 307.321 90.7783ZM313.173 77.8396C313.12 76.9903 312.882 76.1413 312.457 75.2919C312.032 74.4426 311.355 73.7259 310.427 73.1419C309.524 72.5583 308.383 72.2663 307.003 72.2663C305.41 72.2663 304.057 72.7839 302.942 73.8189C301.854 74.8273 301.137 76.1676 300.792 77.8396H313.173Z" fill="#7E7E7E"/>
<path d="M320.717 69.8379H323.941V72.8236H324.101C324.658 71.8149 325.547 70.9659 326.768 70.2756C327.989 69.5593 329.289 69.2009 330.669 69.2009C333.111 69.2009 334.967 69.9176 336.244 71.3506C337.544 72.7573 338.194 74.6813 338.194 77.1233V90.1413H334.811V77.6406C334.811 75.7563 334.357 74.3896 333.456 73.5403C332.554 72.6909 331.319 72.2663 329.754 72.2663C328.665 72.2663 327.683 72.5716 326.808 73.1819C325.958 73.7923 325.295 74.6019 324.817 75.6103C324.339 76.5923 324.101 77.6273 324.101 78.7156V90.1413H320.717V69.8379Z" fill="#7E7E7E"/>
<path d="M351.631 90.7783C349.828 90.7783 348.181 90.3136 346.694 89.3846C345.234 88.456 344.081 87.182 343.231 85.563C342.381 83.9176 341.958 82.0596 341.958 79.9896C341.958 77.946 342.381 76.1013 343.231 74.456C344.081 72.8103 345.234 71.5233 346.694 70.5943C348.181 69.6653 349.828 69.201 351.631 69.201C353.198 69.201 354.591 69.5593 355.811 70.2756C357.031 70.966 357.961 71.8283 358.598 72.8633H358.758L358.598 70.037V61.637H361.981V90.1413H358.758V87.1553H358.598C357.961 88.164 357.031 89.0266 355.811 89.743C354.591 90.433 353.198 90.7783 351.631 90.7783ZM352.031 87.7126C353.224 87.7126 354.324 87.3943 355.334 86.7573C356.368 86.1203 357.191 85.218 357.801 84.0503C358.438 82.8823 358.758 81.529 358.758 79.9896C358.758 78.4503 358.438 77.0966 357.801 75.929C357.191 74.761 356.368 73.8586 355.334 73.2216C354.324 72.5846 353.224 72.2663 352.031 72.2663C350.861 72.2663 349.761 72.5846 348.724 73.2216C347.691 73.8586 346.854 74.7743 346.218 75.9686C345.608 77.1363 345.301 78.4766 345.301 79.9896C345.301 81.5023 345.608 82.856 346.218 84.0503C346.854 85.218 347.691 86.1203 348.724 86.7573C349.761 87.3943 350.861 87.7126 352.031 87.7126Z" fill="#7E7E7E"/>
<path d="M373.274 90.7783C371.791 90.7783 370.461 90.4863 369.294 89.9023C368.128 89.3183 367.224 88.5223 366.588 87.5136C365.951 86.4786 365.631 85.3109 365.631 84.0103C365.631 81.8606 366.441 80.1886 368.061 78.9943C369.681 77.7733 371.724 77.1629 374.191 77.1629C375.411 77.1629 376.541 77.2956 377.574 77.5609C378.638 77.8266 379.448 78.1316 380.004 78.4766V77.2426C380.004 75.7296 379.474 74.5223 378.411 73.6199C377.351 72.6909 376.011 72.2266 374.391 72.2266C373.248 72.2266 372.201 72.4786 371.244 72.9829C370.291 73.4606 369.534 74.1373 368.978 75.0133L366.428 73.1023C367.224 71.8813 368.314 70.9259 369.694 70.2359C371.101 69.5459 372.651 69.2009 374.351 69.2009C377.111 69.2009 379.274 69.9306 380.841 71.3903C382.431 72.8236 383.228 74.7876 383.228 77.2823V90.1413H380.004V87.2349H379.844C379.261 88.2169 378.384 89.0529 377.218 89.7429C376.048 90.4329 374.734 90.7783 373.274 90.7783ZM373.594 87.7923C374.734 87.7923 375.798 87.5003 376.778 86.9166C377.761 86.3326 378.544 85.5496 379.128 84.5676C379.711 83.5856 380.004 82.5109 380.004 81.3429C379.368 80.9183 378.584 80.5733 377.654 80.3079C376.724 80.0426 375.744 79.9099 374.708 79.9099C372.851 79.9099 371.444 80.2946 370.488 81.0643C369.561 81.8339 369.094 82.8293 369.094 84.0503C369.094 85.1649 369.521 86.0673 370.371 86.7573C371.218 87.4473 372.294 87.7923 373.594 87.7923Z" fill="#7E7E7E"/>
<path d="M387.934 69.8381H391.161V73.1024H391.321C391.717 71.9877 392.487 71.0721 393.627 70.3554C394.771 69.6124 395.964 69.2407 397.211 69.2407C398.141 69.2407 398.937 69.3734 399.601 69.6387V73.3014C398.751 72.8767 397.794 72.6644 396.734 72.6644C395.751 72.6644 394.851 72.9431 394.027 73.5004C393.204 74.0577 392.541 74.8144 392.037 75.7697C391.557 76.6987 391.321 77.7071 391.321 78.7954V90.1414H387.934V69.8381Z" fill="#7E7E7E"/>
</svg>
