<svg width="400" height="160" viewBox="0 0 400 160" fill="none" xmlns="http://www.w3.org/2000/svg">
<path d="M104.014 60.8463V116.039C104.014 119.007 101.607 121.412 98.6409 121.412H48.9752C46.0071 121.412 43.6018 119.007 43.6018 116.039V43.3734C43.6016 40.4053 46.0069 38 48.9752 38H81.168L104.014 60.8463Z" fill="#518EF8"/>
<path d="M89.2537 79.8779H58.3608V83.3107H89.2537V79.8779Z" fill="white"/>
<path d="M89.2537 87.5439H58.3608V90.9767H89.2537V87.5439Z" fill="white"/>
<path d="M89.2537 95.2109H58.3608V98.6437H89.2537V95.2109Z" fill="white"/>
<path d="M80.3307 102.877H58.3608V106.31H80.3307V102.877Z" fill="white"/>
<path d="M84.2852 60.3503L104.014 68.4783V60.8467L92.8286 57.5439L84.2852 60.3503Z" fill="#3A5BBC"/>
<path d="M104.014 60.8463H86.5414C83.5731 60.8463 81.168 58.4411 81.168 55.4729V38L104.014 60.8463Z" fill="#ACD1FC"/>
<path d="M137.763 93.6132C135.082 93.6132 132.614 92.9629 130.358 91.6625C128.102 90.362 126.311 88.5705 124.984 86.288C123.657 84.0056 122.993 81.4843 122.993 78.7241C122.993 75.9639 123.657 73.4425 124.984 71.1601C126.311 68.8776 128.102 67.0861 130.358 65.7857C132.614 64.4852 135.082 63.835 137.763 63.835C139.86 63.835 141.823 64.2065 143.655 64.9497C145.513 65.6928 147.039 66.7411 148.233 68.0947L145.805 70.5231C144.902 69.4084 143.748 68.5591 142.341 67.9752C140.934 67.3648 139.422 67.0596 137.803 67.0596C135.786 67.0596 133.901 67.5506 132.15 68.5326C130.424 69.488 129.031 70.8549 127.969 72.6331C126.934 74.3847 126.417 76.4151 126.417 78.7241C126.417 81.0331 126.934 83.0767 127.969 84.8549C129.031 86.6065 130.438 87.9734 132.189 88.9553C133.941 89.9108 135.812 90.3885 137.803 90.3885C139.714 90.3885 141.306 90.0966 142.58 89.5127C143.88 88.9023 144.995 88.1061 145.924 87.1241C146.614 86.3809 147.171 85.4918 147.596 84.4568C148.021 83.3952 148.286 82.2274 148.392 80.9534H137.842V77.8084H151.537C151.67 78.5516 151.736 79.2416 151.736 79.8786C151.736 81.6302 151.458 83.3421 150.9 85.0141C150.343 86.6596 149.454 88.1061 148.233 89.3535C145.605 92.1933 142.115 93.6132 137.763 93.6132Z" fill="#7E7E7E"/>
<path d="M165.256 93.6132C163.265 93.6132 161.474 93.1354 159.881 92.18C158.289 91.2245 157.041 89.9241 156.139 88.2786C155.263 86.6331 154.825 84.8151 154.825 82.8245C154.825 80.834 155.263 79.016 156.139 77.3705C157.041 75.725 158.289 74.4245 159.881 73.4691C161.474 72.5136 163.265 72.0359 165.256 72.0359C167.246 72.0359 169.038 72.5136 170.63 73.4691C172.222 74.4245 173.457 75.725 174.332 77.3705C175.235 79.016 175.686 80.834 175.686 82.8245C175.686 84.8151 175.235 86.6331 174.332 88.2786C173.457 89.9241 172.222 91.2245 170.63 92.18C169.038 93.1354 167.246 93.6132 165.256 93.6132ZM165.256 90.5478C166.503 90.5478 167.658 90.2425 168.719 89.6321C169.807 88.9952 170.67 88.0928 171.307 86.925C171.97 85.7572 172.302 84.3904 172.302 82.8245C172.302 81.2587 171.97 79.8918 171.307 78.7241C170.67 77.5563 169.807 76.6672 168.719 76.0568C167.658 75.4198 166.503 75.1013 165.256 75.1013C164.008 75.1013 162.84 75.4198 161.752 76.0568C160.664 76.6672 159.788 77.5563 159.125 78.7241C158.488 79.8918 158.169 81.2587 158.169 82.8245C158.169 84.3904 158.488 85.7572 159.125 86.925C159.788 88.0928 160.664 88.9952 161.752 89.6321C162.84 90.2425 164.008 90.5478 165.256 90.5478Z" fill="#7E7E7E"/>
<path d="M188.971 93.6132C186.98 93.6132 185.189 93.1354 183.596 92.18C182.004 91.2245 180.757 89.9241 179.854 88.2786C178.978 86.6331 178.541 84.8151 178.541 82.8245C178.541 80.834 178.978 79.016 179.854 77.3705C180.757 75.725 182.004 74.4245 183.596 73.4691C185.189 72.5136 186.98 72.0359 188.971 72.0359C190.961 72.0359 192.753 72.5136 194.345 73.4691C195.938 74.4245 197.172 75.725 198.048 77.3705C198.95 79.016 199.401 80.834 199.401 82.8245C199.401 84.8151 198.95 86.6331 198.048 88.2786C197.172 89.9241 195.938 91.2245 194.345 92.18C192.753 93.1354 190.961 93.6132 188.971 93.6132ZM188.971 90.5478C190.218 90.5478 191.373 90.2425 192.434 89.6321C193.523 88.9952 194.385 88.0928 195.022 86.925C195.686 85.7572 196.017 84.3904 196.017 82.8245C196.017 81.2587 195.686 79.8918 195.022 78.7241C194.385 77.5563 193.523 76.6672 192.434 76.0568C191.373 75.4198 190.218 75.1013 188.971 75.1013C187.723 75.1013 186.556 75.4198 185.468 76.0568C184.379 76.6672 183.504 77.5563 182.84 78.7241C182.203 79.8918 181.885 81.2587 181.885 82.8245C181.885 84.3904 182.203 85.7572 182.84 86.925C183.504 88.0928 184.379 88.9952 185.468 89.6321C186.556 90.2425 187.723 90.5478 188.971 90.5478Z" fill="#7E7E7E"/>
<path d="M212.248 102.212C209.86 102.212 207.882 101.655 206.316 100.54C204.777 99.4255 203.742 98.0852 203.211 96.5193L206.277 95.2056C206.728 96.3734 207.471 97.3155 208.506 98.0321C209.568 98.7753 210.815 99.1468 212.248 99.1468C214.345 99.1468 215.964 98.5364 217.105 97.3155C218.273 96.0947 218.857 94.3696 218.857 92.1402V89.871H218.697C218.034 90.9061 217.092 91.7553 215.871 92.4189C214.677 93.0558 213.31 93.3743 211.77 93.3743C210.019 93.3743 208.413 92.9231 206.953 92.0208C205.52 91.1184 204.379 89.8577 203.53 88.2388C202.68 86.6198 202.256 84.7752 202.256 82.7051C202.256 80.6615 202.68 78.8302 203.53 77.2113C204.379 75.5658 205.52 74.2918 206.953 73.3895C208.413 72.4871 210.019 72.0359 211.77 72.0359C213.31 72.0359 214.677 72.3677 215.871 73.0312C217.092 73.6681 218.034 74.5174 218.697 75.579H218.857V72.6729H222.081V92.18C222.081 95.4444 221.179 97.926 219.374 99.6245C217.569 101.35 215.194 102.212 212.248 102.212ZM212.248 90.3089C213.469 90.3089 214.57 90.0037 215.552 89.3933C216.561 88.7828 217.357 87.907 217.941 86.7658C218.551 85.6245 218.857 84.271 218.857 82.7051C218.857 81.1127 218.551 79.7459 217.941 78.6046C217.357 77.4634 216.561 76.6008 215.552 76.017C214.57 75.4065 213.469 75.1013 212.248 75.1013C211.027 75.1013 209.913 75.4065 208.904 76.017C207.896 76.6274 207.086 77.5032 206.476 78.6444C205.892 79.7857 205.6 81.1392 205.6 82.7051C205.6 84.271 205.892 85.6378 206.476 86.8056C207.086 87.9468 207.896 88.8226 208.904 89.4331C209.913 90.017 211.027 90.3089 212.248 90.3089Z" fill="#7E7E7E"/>
<path d="M227.085 64.4719H230.469V92.9762H227.085V64.4719Z" fill="#7E7E7E"/>
<path d="M244.325 93.6132C242.387 93.6132 240.649 93.1487 239.11 92.2198C237.57 91.2909 236.363 90.017 235.487 88.398C234.638 86.7525 234.213 84.9079 234.213 82.8643C234.213 80.9004 234.611 79.0956 235.407 77.4501C236.23 75.8046 237.384 74.4909 238.871 73.5089C240.357 72.5269 242.082 72.0359 244.046 72.0359C246.037 72.0359 247.762 72.4871 249.221 73.3895C250.681 74.2653 251.796 75.4861 252.566 77.052C253.362 78.6179 253.76 80.4094 253.76 82.4264C253.76 82.8245 253.72 83.1696 253.64 83.4615H237.597C237.676 85.0008 238.048 86.3013 238.712 87.3629C239.375 88.4245 240.211 89.2207 241.22 89.7516C242.255 90.2824 243.33 90.5478 244.444 90.5478C247.045 90.5478 249.049 89.3269 250.456 86.8852L253.322 88.2786C252.446 89.9241 251.252 91.2245 249.739 92.18C248.253 93.1354 246.448 93.6132 244.325 93.6132ZM250.177 80.6748C250.124 79.8255 249.885 78.9762 249.46 78.1269C249.036 77.2776 248.359 76.561 247.43 75.9771C246.528 75.3933 245.386 75.1013 244.006 75.1013C242.414 75.1013 241.06 75.6188 239.946 76.6539C238.857 77.6625 238.141 79.0027 237.796 80.6748H250.177Z" fill="#7E7E7E"/>
<path d="M267.65 64.4719H276.249C279.168 64.4719 281.716 65.0824 283.892 66.3032C286.069 67.4975 287.741 69.1696 288.908 71.3193C290.076 73.4691 290.66 75.9373 290.66 78.7241C290.66 81.5108 290.076 83.979 288.908 86.1288C287.741 88.2786 286.069 89.9639 283.892 91.1847C281.716 92.379 279.168 92.9762 276.249 92.9762H267.65V64.4719ZM276.249 89.7516C279.619 89.7516 282.287 88.7828 284.251 86.8454C286.241 84.9079 287.236 82.2008 287.236 78.7241C287.236 75.2473 286.241 72.5402 284.251 70.6027C282.287 68.6653 279.619 67.6966 276.249 67.6966H270.994V89.7516H276.249Z" fill="#7E7E7E"/>
<path d="M303.737 93.6132C301.746 93.6132 299.955 93.1354 298.362 92.18C296.77 91.2245 295.523 89.9241 294.62 88.2786C293.744 86.6331 293.307 84.8151 293.307 82.8245C293.307 80.834 293.744 79.016 294.62 77.3705C295.523 75.725 296.77 74.4245 298.362 73.4691C299.955 72.5136 301.746 72.0359 303.737 72.0359C305.727 72.0359 307.519 72.5136 309.111 73.4691C310.704 74.4245 311.938 75.725 312.814 77.3705C313.716 79.016 314.167 80.834 314.167 82.8245C314.167 84.8151 313.716 86.6331 312.814 88.2786C311.938 89.9241 310.704 91.2245 309.111 92.18C307.519 93.1354 305.727 93.6132 303.737 93.6132ZM303.737 90.5478C304.984 90.5478 306.139 90.2425 307.2 89.6321C308.289 88.9952 309.151 88.0928 309.788 86.925C310.452 85.7572 310.783 84.3904 310.783 82.8245C310.783 81.2587 310.452 79.8918 309.788 78.7241C309.151 77.5563 308.289 76.6672 307.2 76.0568C306.139 75.4198 304.984 75.1013 303.737 75.1013C302.489 75.1013 301.322 75.4198 300.234 76.0568C299.145 76.6672 298.27 77.5563 297.606 78.7241C296.969 79.8918 296.651 81.2587 296.651 82.8245C296.651 84.3904 296.969 85.7572 297.606 86.925C298.27 88.0928 299.145 88.9952 300.234 89.6321C301.322 90.2425 302.489 90.5478 303.737 90.5478Z" fill="#7E7E7E"/>
<path d="M327.293 93.6132C325.329 93.6132 323.564 93.1487 321.998 92.2198C320.432 91.2644 319.211 89.9771 318.335 88.3582C317.46 86.7127 317.022 84.8681 317.022 82.8245C317.022 80.7809 317.46 78.9364 318.335 77.2909C319.211 75.6454 320.432 74.3582 321.998 73.4293C323.564 72.5004 325.329 72.0359 327.293 72.0359C329.496 72.0359 331.34 72.5534 332.826 73.5885C334.339 74.597 335.414 75.9506 336.051 77.6492L332.986 78.9231C332.481 77.6757 331.725 76.7335 330.717 76.0966C329.735 75.4331 328.54 75.1013 327.134 75.1013C325.939 75.1013 324.825 75.4331 323.789 76.0966C322.754 76.7335 321.918 77.6359 321.281 78.8037C320.671 79.9715 320.366 81.3117 320.366 82.8245C320.366 84.3373 320.671 85.6776 321.281 86.8454C321.918 88.0132 322.754 88.9288 323.789 89.5923C324.825 90.2293 325.939 90.5478 327.134 90.5478C328.567 90.5478 329.801 90.216 330.836 89.5525C331.871 88.889 332.641 87.9468 333.145 86.726L336.171 87.9999C335.48 89.6719 334.366 91.0255 332.826 92.0606C331.314 93.0956 329.469 93.6132 327.293 93.6132Z" fill="#7E7E7E"/>
<path d="M346.915 93.6132C344.739 93.6132 342.921 93.1089 341.461 92.1004C340.002 91.0653 338.966 89.7516 338.356 88.1591L341.382 86.8056C341.886 88.0264 342.629 88.9686 343.611 89.6321C344.62 90.2956 345.721 90.6274 346.915 90.6274C348.189 90.6274 349.277 90.3752 350.18 89.871C351.082 89.3402 351.533 88.5971 351.533 87.6416C351.533 86.7923 351.175 86.1155 350.458 85.6113C349.742 85.0805 348.614 84.6293 347.075 84.2577L344.606 83.6207C342.987 83.2226 341.66 82.5459 340.625 81.5904C339.59 80.635 339.073 79.4008 339.073 77.888C339.073 76.7203 339.418 75.6985 340.108 74.8226C340.824 73.9203 341.766 73.2302 342.934 72.7525C344.102 72.2748 345.363 72.0359 346.716 72.0359C348.494 72.0359 350.074 72.4207 351.454 73.1904C352.86 73.9601 353.856 75.035 354.439 76.4151L351.493 77.7686C350.591 75.9639 348.985 75.0615 346.676 75.0615C345.562 75.0615 344.58 75.3269 343.73 75.8577C342.908 76.362 342.496 77.0122 342.496 77.8084C342.496 78.5516 342.788 79.162 343.372 79.6397C343.956 80.0909 344.832 80.4625 346 80.7544L348.946 81.5108C350.936 82.0151 352.436 82.7715 353.444 83.78C354.453 84.762 354.957 85.9696 354.957 87.4027C354.957 88.6501 354.599 89.7516 353.882 90.707C353.166 91.6359 352.197 92.3525 350.976 92.8568C349.755 93.361 348.402 93.6132 346.915 93.6132Z" fill="#7E7E7E"/>
</svg>
