<svg width="400" height="160" viewBox="0 0 400 160" fill="none" xmlns="http://www.w3.org/2000/svg">
<path d="M50.125 43.272C50.125 40.1654 52.6326 37.647 55.7393 37.647C63.9479 37.647 79.4558 37.647 90.5754 37.647C95.973 43.0238 101.577 48.6063 101.577 48.6063L112 58.9889V116.728C112 119.834 109.482 122.353 106.375 122.353H55.75C52.6434 122.353 50.125 119.834 50.125 116.728V43.272Z" fill="#0086F9"/>
<path d="M112 58.9889L90.6579 58.8234L90.5752 37.647L112 58.9889Z" fill="#0067D9"/>
<rect x="63.6914" y="70.4043" width="34.9081" height="4.79779" fill="white"/>
<rect x="63.6914" y="81.9854" width="34.9081" height="4.79779" fill="white"/>
<rect x="63.6914" y="93.4006" width="25.1471" height="4.79779" fill="white"/>
<path d="M150.77 90.7782C148.089 90.7782 145.621 90.1279 143.365 88.8275C141.109 87.527 139.318 85.7355 137.991 83.453C136.664 81.1706 136 78.6493 136 75.8891C136 73.1289 136.664 70.6075 137.991 68.3251C139.318 66.0426 141.109 64.2511 143.365 62.9507C145.621 61.6502 148.089 61 150.77 61C152.867 61 154.83 61.3715 156.662 62.1147C158.52 62.8578 160.046 63.9061 161.24 65.2597L158.812 67.6881C157.909 66.5734 156.755 65.7241 155.348 65.1402C153.941 64.5298 152.429 64.2246 150.81 64.2246C148.793 64.2246 146.908 64.7156 145.157 65.6976C143.431 66.653 142.038 68.0199 140.976 69.7981C139.941 71.5497 139.424 73.5801 139.424 75.8891C139.424 78.1981 139.941 80.2417 140.976 82.0199C142.038 83.7715 143.445 85.1384 145.196 86.1203C146.948 87.0758 148.819 87.5535 150.81 87.5535C152.721 87.5535 154.313 87.2616 155.587 86.6777C156.887 86.0673 158.002 85.2711 158.931 84.2891C159.621 83.5459 160.178 82.6568 160.603 81.6218C161.028 80.5602 161.293 79.3924 161.399 78.1184H150.849V74.9734H164.544C164.677 75.7166 164.743 76.4066 164.743 77.0436C164.743 78.7952 164.465 80.5071 163.907 82.1791C163.35 83.8246 162.461 85.2711 161.24 86.5185C158.612 89.3583 155.122 90.7782 150.77 90.7782Z" fill="#7E7E7E"/>
<path d="M178.263 90.7782C176.272 90.7782 174.481 90.3004 172.888 89.345C171.296 88.3895 170.048 87.0891 169.146 85.4436C168.27 83.7981 167.832 81.9801 167.832 79.9895C167.832 77.999 168.27 76.181 169.146 74.5355C170.048 72.89 171.296 71.5895 172.888 70.6341C174.481 69.6786 176.272 69.2009 178.263 69.2009C180.253 69.2009 182.045 69.6786 183.637 70.6341C185.229 71.5895 186.464 72.89 187.339 74.5355C188.242 76.181 188.693 77.999 188.693 79.9895C188.693 81.9801 188.242 83.7981 187.339 85.4436C186.464 87.0891 185.229 88.3895 183.637 89.345C182.045 90.3004 180.253 90.7782 178.263 90.7782ZM178.263 87.7128C179.51 87.7128 180.665 87.4075 181.726 86.7971C182.814 86.1602 183.677 85.2578 184.314 84.09C184.977 82.9222 185.309 81.5554 185.309 79.9895C185.309 78.4237 184.977 77.0568 184.314 75.8891C183.677 74.7213 182.814 73.8322 181.726 73.2218C180.665 72.5848 179.51 72.2663 178.263 72.2663C177.015 72.2663 175.847 72.5848 174.759 73.2218C173.671 73.8322 172.795 74.7213 172.132 75.8891C171.495 77.0568 171.176 78.4237 171.176 79.9895C171.176 81.5554 171.495 82.9222 172.132 84.09C172.795 85.2578 173.671 86.1602 174.759 86.7971C175.847 87.4075 177.015 87.7128 178.263 87.7128Z" fill="#7E7E7E"/>
<path d="M201.978 90.7782C199.987 90.7782 198.196 90.3004 196.603 89.345C195.011 88.3895 193.764 87.0891 192.861 85.4436C191.985 83.7981 191.548 81.9801 191.548 79.9895C191.548 77.999 191.985 76.181 192.861 74.5355C193.764 72.89 195.011 71.5895 196.603 70.6341C198.196 69.6786 199.987 69.2009 201.978 69.2009C203.968 69.2009 205.76 69.6786 207.352 70.6341C208.945 71.5895 210.179 72.89 211.055 74.5355C211.957 76.181 212.408 77.999 212.408 79.9895C212.408 81.9801 211.957 83.7981 211.055 85.4436C210.179 87.0891 208.945 88.3895 207.352 89.345C205.76 90.3004 203.968 90.7782 201.978 90.7782ZM201.978 87.7128C203.225 87.7128 204.38 87.4075 205.441 86.7971C206.53 86.1602 207.392 85.2578 208.029 84.09C208.693 82.9222 209.024 81.5554 209.024 79.9895C209.024 78.4237 208.693 77.0568 208.029 75.8891C207.392 74.7213 206.53 73.8322 205.441 73.2218C204.38 72.5848 203.225 72.2663 201.978 72.2663C200.73 72.2663 199.563 72.5848 198.475 73.2218C197.386 73.8322 196.511 74.7213 195.847 75.8891C195.21 77.0568 194.892 78.4237 194.892 79.9895C194.892 81.5554 195.21 82.9222 195.847 84.09C196.511 85.2578 197.386 86.1602 198.475 86.7971C199.563 87.4075 200.73 87.7128 201.978 87.7128Z" fill="#7E7E7E"/>
<path d="M225.255 99.377C222.867 99.377 220.889 98.82 219.323 97.705C217.784 96.5905 216.749 95.2502 216.218 93.6843L219.284 92.3706C219.735 93.5384 220.478 94.4805 221.513 95.1971C222.575 95.9403 223.822 96.3118 225.255 96.3118C227.352 96.3118 228.971 95.7014 230.112 94.4805C231.28 93.2597 231.864 91.5346 231.864 89.3052V87.036H231.704C231.041 88.0711 230.099 88.9203 228.878 89.5839C227.684 90.2208 226.317 90.5393 224.777 90.5393C223.026 90.5393 221.42 90.0881 219.96 89.1857C218.527 88.2834 217.386 87.0227 216.537 85.4038C215.687 83.7848 215.263 81.9402 215.263 79.8701C215.263 77.8265 215.687 75.9952 216.537 74.3763C217.386 72.7308 218.527 71.4568 219.96 70.5545C221.42 69.6521 223.026 69.2009 224.777 69.2009C226.317 69.2009 227.684 69.5327 228.878 70.1962C230.099 70.8331 231.041 71.6824 231.704 72.744H231.864V69.8379H235.088V89.345C235.088 92.6094 234.186 95.091 232.381 96.7895C230.576 98.515 228.201 99.377 225.255 99.377ZM225.255 87.4739C226.476 87.4739 227.577 87.1687 228.559 86.5583C229.568 85.9478 230.364 85.072 230.948 83.9308C231.558 82.7895 231.864 81.436 231.864 79.8701C231.864 78.2777 231.558 76.9109 230.948 75.7696C230.364 74.6284 229.568 73.7658 228.559 73.182C227.577 72.5715 226.476 72.2663 225.255 72.2663C224.034 72.2663 222.92 72.5715 221.911 73.182C220.903 73.7924 220.093 74.6682 219.483 75.8094C218.899 76.9507 218.607 78.3042 218.607 79.8701C218.607 81.436 218.899 82.8028 219.483 83.9706C220.093 85.1118 220.903 85.9876 221.911 86.5981C222.92 87.182 224.034 87.4739 225.255 87.4739Z" fill="#7E7E7E"/>
<path d="M240.092 61.637H243.476V90.1413H240.092V61.637Z" fill="#7E7E7E"/>
<path d="M257.332 90.7782C255.394 90.7782 253.656 90.3137 252.117 89.3848C250.577 88.4559 249.37 87.182 248.494 85.563C247.645 83.9175 247.22 82.0729 247.22 80.0293C247.22 78.0654 247.618 76.2606 248.414 74.6151C249.237 72.9696 250.391 71.6559 251.878 70.6739C253.364 69.6919 255.089 69.2009 257.053 69.2009C259.044 69.2009 260.769 69.6521 262.228 70.5545C263.688 71.4303 264.803 72.6511 265.573 74.217C266.369 75.7829 266.767 77.5744 266.767 79.5914C266.767 79.9895 266.727 80.3346 266.647 80.6265H250.604C250.683 82.1658 251.055 83.4663 251.719 84.5279C252.382 85.5895 253.218 86.3857 254.227 86.9166C255.262 87.4474 256.337 87.7128 257.451 87.7128C260.052 87.7128 262.056 86.4919 263.463 84.0502L266.329 85.4436C265.453 87.0891 264.259 88.3895 262.746 89.345C261.26 90.3004 259.455 90.7782 257.332 90.7782ZM263.184 77.8398C263.131 76.9905 262.892 76.1412 262.467 75.2919C262.043 74.4426 261.366 73.726 260.437 73.1421C259.535 72.5583 258.393 72.2663 257.013 72.2663C255.421 72.2663 254.067 72.7838 252.953 73.8189C251.864 74.8275 251.148 76.1677 250.803 77.8398H263.184Z" fill="#7E7E7E"/>
<path d="M280.657 61.637H289.256C292.175 61.637 294.723 62.2475 296.899 63.4683C299.076 64.6626 300.748 66.3347 301.915 68.4844C303.083 70.6342 303.667 73.1024 303.667 75.8892C303.667 78.6759 303.083 81.1441 301.915 83.2939C300.748 85.4437 299.076 87.129 296.899 88.3498C294.723 89.5441 292.175 90.1413 289.256 90.1413H280.657V61.637ZM289.256 86.9167C292.626 86.9167 295.294 85.9479 297.258 84.0105C299.248 82.073 300.243 79.3659 300.243 75.8892C300.243 72.4124 299.248 69.7053 297.258 67.7678C295.294 65.8304 292.626 64.8617 289.256 64.8617H284.001V86.9167H289.256Z" fill="#7E7E7E"/>
<path d="M316.744 90.7782C314.753 90.7782 312.962 90.3004 311.369 89.345C309.777 88.3895 308.53 87.0891 307.627 85.4436C306.751 83.7981 306.314 81.9801 306.314 79.9895C306.314 77.999 306.751 76.181 307.627 74.5355C308.53 72.89 309.777 71.5895 311.369 70.6341C312.962 69.6786 314.753 69.2009 316.744 69.2009C318.734 69.2009 320.526 69.6786 322.118 70.6341C323.711 71.5895 324.945 72.89 325.821 74.5355C326.723 76.181 327.174 77.999 327.174 79.9895C327.174 81.9801 326.723 83.7981 325.821 85.4436C324.945 87.0891 323.711 88.3895 322.118 89.345C320.526 90.3004 318.734 90.7782 316.744 90.7782ZM316.744 87.7128C317.991 87.7128 319.146 87.4075 320.207 86.7971C321.296 86.1602 322.158 85.2578 322.795 84.09C323.459 82.9222 323.79 81.5554 323.79 79.9895C323.79 78.4237 323.459 77.0568 322.795 75.8891C322.158 74.7213 321.296 73.8322 320.207 73.2218C319.146 72.5848 317.991 72.2663 316.744 72.2663C315.496 72.2663 314.329 72.5848 313.241 73.2218C312.152 73.8322 311.277 74.7213 310.613 75.8891C309.976 77.0568 309.658 78.4237 309.658 79.9895C309.658 81.5554 309.976 82.9222 310.613 84.09C311.277 85.2578 312.152 86.1602 313.241 86.7971C314.329 87.4075 315.496 87.7128 316.744 87.7128Z" fill="#7E7E7E"/>
<path d="M340.3 90.7782C338.336 90.7782 336.571 90.3137 335.005 89.3848C333.439 88.4294 332.218 87.1421 331.342 85.5232C330.467 83.8777 330.029 82.0331 330.029 79.9895C330.029 77.9459 330.467 76.1014 331.342 74.4559C332.218 72.8104 333.439 71.5232 335.005 70.5943C336.571 69.6654 338.336 69.2009 340.3 69.2009C342.503 69.2009 344.347 69.7184 345.833 70.7535C347.346 71.762 348.421 73.1156 349.058 74.8142L345.993 76.0881C345.488 74.8407 344.732 73.8985 343.724 73.2616C342.742 72.5981 341.547 72.2663 340.141 72.2663C338.946 72.2663 337.832 72.5981 336.796 73.2616C335.761 73.8985 334.925 74.8009 334.288 75.9687C333.678 77.1365 333.373 78.4767 333.373 79.9895C333.373 81.5023 333.678 82.8426 334.288 84.0104C334.925 85.1782 335.761 86.0938 336.796 86.7573C337.832 87.3943 338.946 87.7128 340.141 87.7128C341.574 87.7128 342.808 87.381 343.843 86.7175C344.878 86.054 345.648 85.1118 346.152 83.891L349.178 85.1649C348.487 86.8369 347.373 88.1905 345.833 89.2256C344.321 90.2606 342.476 90.7782 340.3 90.7782Z" fill="#7E7E7E"/>
<path d="M359.922 90.7782C357.746 90.7782 355.928 90.2739 354.468 89.2654C353.009 88.2303 351.973 86.9166 351.363 85.3241L354.389 83.9706C354.893 85.1914 355.636 86.1336 356.618 86.7971C357.627 87.4606 358.728 87.7924 359.922 87.7924C361.196 87.7924 362.284 87.5403 363.187 87.036C364.089 86.5052 364.54 85.7621 364.54 84.8066C364.54 83.9573 364.182 83.2805 363.465 82.7763C362.749 82.2455 361.621 81.7943 360.082 81.4227L357.613 80.7857C355.994 80.3876 354.667 79.7109 353.632 78.7554C352.597 77.8 352.08 76.5658 352.08 75.053C352.08 73.8853 352.425 72.8635 353.115 71.9876C353.831 71.0853 354.773 70.3952 355.941 69.9175C357.109 69.4398 358.37 69.2009 359.723 69.2009C361.501 69.2009 363.081 69.5857 364.461 70.3554C365.867 71.1251 366.863 72.2 367.446 73.5801L364.5 74.9336C363.598 73.1289 361.992 72.2265 359.683 72.2265C358.569 72.2265 357.587 72.4919 356.737 73.0227C355.915 73.527 355.503 74.1772 355.503 74.9734C355.503 75.7166 355.795 76.327 356.379 76.8047C356.963 77.2559 357.839 77.6275 359.007 77.9194L361.953 78.6758C363.943 79.1801 365.443 79.9365 366.451 80.945C367.46 81.927 367.964 83.1346 367.964 84.5677C367.964 85.8151 367.606 86.9166 366.889 87.872C366.173 88.8009 365.204 89.5175 363.983 90.0218C362.762 90.526 361.409 90.7782 359.922 90.7782Z" fill="#7E7E7E"/>
</svg>
