<svg width="120" height="48" viewBox="0 0 120 48" fill="none" xmlns="http://www.w3.org/2000/svg">
<path fill-rule="evenodd" clip-rule="evenodd" d="M11 6H9V9.58579L6.46447 7.05025L5.05025 8.46447L7.58579 11H4V13H7.58579L5.05025 15.5355L6.46447 16.9497L9 14.4142V18H11V14.4142L13.5355 16.9497L14.9497 15.5355L12.4142 13H16V11H12.4142L14.9497 8.46447L13.5355 7.05025L11 9.58579V6Z" fill="#FFAC05"/>
<path fill-rule="evenodd" clip-rule="evenodd" d="M24 6L25 6C27.2091 6 29 7.79086 29 10C29 10.9224 28.6866 11.7744 28.161 12.4513C28.0988 12.5315 28.0596 12.5986 28.0355 12.6518C28.0637 12.7012 28.1143 12.7536 28.2055 12.8094C28.3841 12.9188 28.6684 13 29 13L33.875 13C35.0708 13 36.1513 13.2996 36.9259 14.0741C37.7004 14.8487 38 15.9292 38 17.125L38 22C38 22.6175 37.856 23.2824 37.5149 23.8392C37.1622 24.4149 36.5737 24.9012 35.7525 24.987L35.6436 24.9983L35.5347 24.9859C34.9937 24.9238 34.5485 24.67 34.2249 24.4188C33.8863 24.156 33.4628 24 33 24C31.8954 24 31 24.8954 31 26L31 27C31 28.1046 31.8954 29 33 29C33.4628 29 33.8863 28.844 34.2249 28.5812L34.8381 29.3711L34.2249 28.5812C34.5485 28.33 34.9937 28.0762 35.5347 28.0141L35.6436 28.0017L35.7525 28.013C36.5735 28.0988 37.162 28.5849 37.5147 29.1605C37.8558 29.7171 37.9999 30.3818 38 30.9992L38 30.9994L38 35.875C38 37.0708 37.7004 38.1513 36.9259 38.9259C36.1513 39.7004 35.0708 40 33.875 40L29 40C28.3825 40 27.7176 39.856 27.1608 39.5149C26.5851 39.1622 26.0988 38.5737 26.013 37.7525L26.0017 37.6436L26.0141 37.5347C26.0762 36.9937 26.33 36.5485 26.5812 36.2249L27.3711 36.8381L26.5812 36.2249C26.844 35.8863 27 35.4628 27 35C27 33.8954 26.1046 33 25 33L24 33C22.8954 33 22 33.8954 22 35C22 35.4628 22.156 35.8863 22.4188 36.2249C22.67 36.5485 22.9238 36.9937 22.9859 37.5347L22.9983 37.6436L22.987 37.7525C22.9012 38.5737 22.4149 39.1622 21.8392 39.5149C21.2824 39.856 20.6175 40 20 40L15.125 40C13.9292 40 12.8487 39.7004 12.0741 38.9259C11.2996 38.1513 11 37.0708 11 35.875L11 31C11 30.6684 10.9188 30.3841 10.8094 30.2055C10.7536 30.1143 10.7012 30.0637 10.6518 30.0355C10.5986 30.0596 10.5315 30.0988 10.4513 30.161C9.77437 30.6866 8.92238 31 8 31C5.79086 31 4 29.2091 4 27L4 26C4 23.7909 5.79086 22 8 22C8.92238 22 9.77437 22.3134 10.4513 22.839C10.5315 22.9012 10.5986 22.9404 10.6518 22.9645C10.7012 22.9363 10.7536 22.8856 10.8094 22.7945C10.9188 22.6159 11 22.3316 11 22L11 20L13 20L13 22C13 22.6175 12.856 23.2824 12.5149 23.8392C12.1622 24.4149 11.5737 24.9012 10.7525 24.987L10.6436 24.9983L10.5347 24.9859C9.99365 24.9238 9.54852 24.67 9.22488 24.4188C8.88632 24.156 8.46278 24 8 24C6.89543 24 6 24.8954 6 26L6 27C6 28.1046 6.89543 29 8 29C8.46278 29 8.88632 28.844 9.22488 28.5812C9.54852 28.33 9.99365 28.0762 10.5347 28.0141L10.6436 28.0017L10.7525 28.013C11.5737 28.0988 12.1622 28.5851 12.5149 29.1608C12.856 29.7176 13 30.3825 13 31L13 35.875C13 36.7625 13.2212 37.2445 13.4884 37.5116C13.7555 37.7788 14.2375 38 15.125 38L20 38C20.3316 38 20.6159 37.9188 20.7945 37.8094C20.8857 37.7536 20.9363 37.7012 20.9645 37.6518C20.9404 37.5986 20.9012 37.5315 20.839 37.4513C20.3134 36.7744 20 35.9224 20 35C20 32.7909 21.7909 31 24 31L25 31C27.2091 31 29 32.7909 29 35C29 35.9224 28.6866 36.7744 28.161 37.4513C28.0988 37.5315 28.0596 37.5986 28.0355 37.6518C28.0637 37.7012 28.1143 37.7536 28.2055 37.8094C28.3841 37.9188 28.6684 38 29 38L33.875 38C34.7625 38 35.2445 37.7788 35.5117 37.5116C35.7788 37.2445 36 36.7625 36 35.875L36 30.9996L36 30.9994C35.9999 30.6679 35.9187 30.3838 35.8094 30.2054C35.7536 30.1143 35.7012 30.0637 35.6518 30.0355C35.5986 30.0596 35.5315 30.0988 35.4513 30.161C34.7744 30.6866 33.9224 31 33 31C30.7909 31 29 29.2091 29 27L29 26C29 23.7909 30.7909 22 33 22C33.9224 22 34.7744 22.3134 35.4513 22.839C35.5315 22.9012 35.5986 22.9404 35.6518 22.9645C35.7012 22.9363 35.7536 22.8857 35.8094 22.7945C35.9188 22.6159 36 22.3316 36 22L36 17.125C36 16.2375 35.7788 15.7555 35.5116 15.4884C35.2445 15.2212 34.7625 15 33.875 15L29 15C28.3825 15 27.7176 14.856 27.1608 14.5149C26.5851 14.1622 26.0988 13.5737 26.013 12.7525L26.0017 12.6436L26.0141 12.5347C26.0762 11.9937 26.33 11.5485 26.5812 11.2249C26.844 10.8863 27 10.4628 27 10C27 8.89543 26.1046 8 25 8L24 8C22.8954 8 22 8.89543 22 10C22 10.4628 22.156 10.8863 22.4188 11.2249C22.67 11.5485 22.9238 11.9937 22.9859 12.5347L22.9983 12.6436L22.987 12.7525C22.9012 13.5737 22.4149 14.1622 21.8392 14.5149C21.2824 14.856 20.6175 15 20 15L18 15L18 13L20 13C20.3316 13 20.6159 12.9188 20.7945 12.8094C20.8857 12.7536 20.9363 12.7012 20.9645 12.6518C20.9404 12.5986 20.9012 12.5315 20.839 12.4513C20.3134 11.7744 20 10.9224 20 10C20 7.79086 21.7909 6 24 6Z" fill="#3070F0"/>
<path d="M52.8 23.76H58.7V24.8C58.7 26.9067 58.1933 28.5 57.18 29.58C56.1667 30.6467 54.7733 31.18 53 31.18C52.0533 31.18 51.2067 31.04 50.46 30.76C49.7133 30.4667 49.0733 30.04 48.54 29.48C48.0067 28.92 47.6 28.2267 47.32 27.4C47.04 26.5733 46.9 25.62 46.9 24.54V23.46C46.9 21.3133 47.4333 19.6733 48.5 18.54C49.5667 17.3933 51.0667 16.82 53 16.82C53.8 16.82 54.52 16.94 55.16 17.18C55.8133 17.4067 56.3733 17.7267 56.84 18.14C57.32 18.54 57.7067 19.0133 58 19.56C58.2933 20.1067 58.4933 20.6867 58.6 21.3H56C55.8 20.66 55.4533 20.1267 54.96 19.7C54.48 19.2733 53.8267 19.06 53 19.06C51.84 19.06 50.9533 19.4133 50.34 20.12C49.7267 20.8133 49.42 21.9267 49.42 23.46V24.54C49.42 26.02 49.7467 27.1267 50.4 27.86C51.0667 28.58 51.9333 28.94 53 28.94C54.0133 28.94 54.8 28.7 55.36 28.22C55.9333 27.74 56.28 26.9333 56.4 25.8H52.8V23.76ZM64.9938 31.18C64.2738 31.18 63.6271 31.0733 63.0538 30.86C62.4804 30.6333 61.9871 30.3133 61.5738 29.9C61.1604 29.4733 60.8404 28.96 60.6138 28.36C60.4004 27.76 60.2938 27.08 60.2938 26.32V25.68C60.2938 24.92 60.4004 24.24 60.6138 23.64C60.8404 23.04 61.1604 22.5333 61.5738 22.12C61.9871 21.6933 62.4804 21.3733 63.0538 21.16C63.6271 20.9333 64.2738 20.82 64.9938 20.82C66.4471 20.82 67.5938 21.2667 68.4338 22.16C69.2738 23.0533 69.6937 24.3333 69.6937 26V26.78H62.6138C62.6804 27.62 62.9138 28.2267 63.3138 28.6C63.7138 28.96 64.2738 29.14 64.9938 29.14C65.7004 29.14 66.2138 29.02 66.5338 28.78C66.8671 28.5267 67.0871 28.2333 67.1938 27.9H69.5938C69.4871 28.3667 69.3204 28.8 69.0938 29.2C68.8671 29.6 68.5671 29.9467 68.1938 30.24C67.8204 30.5333 67.3671 30.7667 66.8338 30.94C66.3004 31.1 65.6871 31.18 64.9938 31.18ZM64.9938 22.86C64.3138 22.86 63.7804 23.0267 63.3938 23.36C63.0071 23.6933 62.7604 24.22 62.6538 24.94H67.3338C67.2404 24.1933 66.9938 23.66 66.5938 23.34C66.2071 23.02 65.6738 22.86 64.9938 22.86ZM71.6945 21H73.5145L73.6945 22.12C74.4412 21.2533 75.4745 20.82 76.7945 20.82C78.0212 20.82 78.9745 21.1867 79.6545 21.92C80.3479 22.64 80.6945 23.7333 80.6945 25.2V31H78.3745V25.2C78.3745 24.4667 78.1945 23.9133 77.8345 23.54C77.4879 23.1667 77.0079 22.98 76.3945 22.98C75.6745 22.98 75.1012 23.1733 74.6745 23.56C74.2612 23.9467 74.0412 24.46 74.0145 25.1V31H71.6945V21ZM87.2984 31.18C86.5784 31.18 85.9318 31.0733 85.3584 30.86C84.7851 30.6333 84.2918 30.3133 83.8784 29.9C83.4651 29.4733 83.1451 28.96 82.9184 28.36C82.7051 27.76 82.5984 27.08 82.5984 26.32V25.68C82.5984 24.92 82.7051 24.24 82.9184 23.64C83.1451 23.04 83.4651 22.5333 83.8784 22.12C84.2918 21.6933 84.7851 21.3733 85.3584 21.16C85.9318 20.9333 86.5784 20.82 87.2984 20.82C88.7518 20.82 89.8984 21.2667 90.7384 22.16C91.5784 23.0533 91.9984 24.3333 91.9984 26V26.78H84.9184C84.9851 27.62 85.2184 28.2267 85.6184 28.6C86.0184 28.96 86.5784 29.14 87.2984 29.14C88.0051 29.14 88.5184 29.02 88.8384 28.78C89.1718 28.5267 89.3918 28.2333 89.4984 27.9H91.8984C91.7918 28.3667 91.6251 28.8 91.3984 29.2C91.1718 29.6 90.8718 29.9467 90.4984 30.24C90.1251 30.5333 89.6718 30.7667 89.1384 30.94C88.6051 31.1 87.9918 31.18 87.2984 31.18ZM87.2984 22.86C86.6184 22.86 86.0851 23.0267 85.6984 23.36C85.3118 23.6933 85.0651 24.22 84.9584 24.94H89.6384C89.5451 24.1933 89.2984 23.66 88.8984 23.34C88.5118 23.02 87.9784 22.86 87.2984 22.86ZM93.9992 21H95.8192L95.9992 22.12C96.3459 21.6933 96.7726 21.3733 97.2792 21.16C97.7992 20.9333 98.3726 20.82 98.9992 20.82H99.9992V22.98H98.9992C98.0792 22.98 97.3992 23.18 96.9592 23.58C96.5326 23.98 96.3192 24.52 96.3192 25.2V31H93.9992V21ZM101.697 21H104.017V31H101.697V21ZM102.857 19.8C102.43 19.8 102.07 19.66 101.777 19.38C101.497 19.0867 101.357 18.7267 101.357 18.3C101.357 17.8733 101.497 17.52 101.777 17.24C102.07 16.9467 102.43 16.8 102.857 16.8C103.27 16.8 103.624 16.9467 103.917 17.24C104.21 17.52 104.357 17.8733 104.357 18.3C104.357 18.7267 104.21 19.0867 103.917 19.38C103.624 19.66 103.27 19.8 102.857 19.8ZM110.814 31.18C110.094 31.18 109.441 31.0733 108.854 30.86C108.281 30.6333 107.787 30.3133 107.374 29.9C106.974 29.4733 106.661 28.96 106.434 28.36C106.221 27.76 106.114 27.08 106.114 26.32V25.68C106.114 24.9333 106.221 24.26 106.434 23.66C106.661 23.06 106.981 22.5533 107.394 22.14C107.807 21.7133 108.301 21.3867 108.874 21.16C109.461 20.9333 110.107 20.82 110.814 20.82C112.081 20.82 113.061 21.1333 113.754 21.76C114.461 22.3867 114.914 23.2 115.114 24.2H112.634C112.527 23.84 112.307 23.5467 111.974 23.32C111.641 23.0933 111.221 22.98 110.714 22.98C110.421 22.98 110.141 23.0333 109.874 23.14C109.621 23.2333 109.394 23.3933 109.194 23.62C108.994 23.8333 108.834 24.1133 108.714 24.46C108.607 24.7933 108.554 25.2 108.554 25.68V26.32C108.554 26.7867 108.614 27.1933 108.734 27.54C108.854 27.8733 109.014 28.1533 109.214 28.38C109.414 28.5933 109.641 28.7533 109.894 28.86C110.161 28.9667 110.434 29.02 110.714 29.02C111.287 29.02 111.721 28.8933 112.014 28.64C112.321 28.3867 112.527 28.0733 112.634 27.7H115.114C114.914 28.7533 114.461 29.6 113.754 30.24C113.061 30.8667 112.081 31.18 110.814 31.18Z" fill="#274191"/>
</svg>
