<svg width="400" height="160" viewBox="0 0 400 160" fill="none" xmlns="http://www.w3.org/2000/svg">
<path d="M113.929 74.5491H90.3992C89.7921 74.5491 89.3 75.0419 89.3 75.6491V87.1528C89.3 87.7599 89.7921 88.2543 90.3992 88.2543H99.5786V102.547C99.5786 102.547 97.5177 103.249 91.8203 103.249C85.0975 103.249 75.7067 100.793 75.7067 80.1423C75.7067 59.488 85.4854 56.7703 94.6655 56.7703C102.613 56.7703 106.036 58.1696 108.215 58.8436C108.899 59.0535 109.532 58.3717 109.532 57.7646L112.157 46.6495C112.157 46.365 112.06 46.023 111.737 45.7905C110.851 45.1593 105.455 42.1392 91.8203 42.1392C76.1117 42.1392 59.9996 48.8223 59.9996 80.9477C59.9996 113.074 78.4469 117.861 93.9923 117.861C106.863 117.861 114.672 112.361 114.672 112.361C114.994 112.183 115.028 111.734 115.028 111.528V75.6491C115.028 75.0419 114.536 74.5491 113.929 74.5491Z" fill="#100E0F"/>
<path d="M235.188 45.9885C235.188 45.3767 234.703 44.8823 234.096 44.8823H220.848C220.243 44.8823 219.751 45.3767 219.751 45.9885C219.751 45.9909 219.755 71.5917 219.755 71.5917H199.104V45.9885C199.104 45.3767 198.617 44.8823 198.011 44.8823H184.763C184.159 44.8823 183.668 45.3767 183.668 45.9885V115.314C183.668 115.926 184.159 116.423 184.763 116.423H198.011C198.616 116.423 199.104 115.926 199.104 115.314V85.6608H219.755C219.755 85.6608 219.718 115.312 219.718 115.314C219.718 115.926 220.21 116.423 220.815 116.423H234.095C234.702 116.423 235.187 115.926 235.188 115.314V45.9885Z" fill="#100E0F"/>
<path d="M138.929 55.0855C138.929 50.3147 135.104 46.4604 130.385 46.4604C125.672 46.4604 121.844 50.3147 121.844 55.0855C121.844 59.8509 125.671 63.7168 130.385 63.7168C135.105 63.716 138.929 59.8509 138.929 55.0855Z" fill="#100E0F"/>
<path d="M137.982 100.689C137.982 98.913 137.982 68.6884 137.982 68.6884C137.982 68.0812 137.492 67.5845 136.886 67.5845H123.679C123.074 67.5845 122.531 68.2095 122.531 68.8166C122.531 68.8166 122.531 107.324 122.531 114.664C122.531 116.012 123.371 116.413 124.458 116.413C124.458 116.413 130.094 116.413 136.356 116.413C137.662 116.413 137.982 115.771 137.982 114.643C137.982 112.185 137.982 102.559 137.982 100.689Z" fill="#100E0F"/>
<path d="M285.537 67.6895H272.391C271.788 67.6895 271.297 68.1862 271.297 68.798V102.791C271.297 102.791 267.957 105.235 263.216 105.235C258.476 105.235 257.218 103.084 257.218 98.442C257.218 93.7948 257.218 68.7988 257.218 68.7988C257.218 68.187 256.728 67.6902 256.125 67.6902H242.782C242.18 67.6902 241.687 68.187 241.687 68.7988C241.687 68.7988 241.687 86.9009 241.687 100.687C241.687 114.474 249.37 117.847 259.94 117.847C268.612 117.847 275.604 113.056 275.604 113.056C275.604 113.056 275.937 115.581 276.087 115.879C276.237 116.178 276.63 116.48 277.054 116.48L285.543 116.442C286.144 116.442 286.638 115.945 286.638 115.335L286.633 68.7988C286.634 68.1862 286.144 67.6895 285.537 67.6895Z" fill="#100E0F"/>
<path d="M321.469 66.1313C314.003 66.1313 308.924 69.4632 308.924 69.4632V45.9885C308.924 45.3767 308.434 44.8823 307.831 44.8823H294.545C293.941 44.8823 293.45 45.3767 293.45 45.9885V115.314C293.45 115.926 293.941 116.423 294.546 116.423C294.548 116.423 303.761 116.423 303.764 116.423C304.179 116.423 304.493 116.209 304.725 115.835C304.955 115.463 305.285 112.638 305.285 112.638C305.285 112.638 310.717 117.787 321.002 117.787C333.076 117.787 340 111.663 340 90.294C340.001 68.9237 328.942 66.1313 321.469 66.1313ZM316.284 105.191C311.724 105.052 308.631 102.982 308.631 102.982V81.0291C308.631 81.0291 311.682 79.1587 315.426 78.8245C320.16 78.4008 324.722 79.8304 324.722 91.1242C324.722 103.033 322.664 105.384 316.284 105.191Z" fill="#100E0F"/>
<path d="M176.058 67.5784H166.12C166.12 67.5784 166.105 54.4522 166.105 54.4491C166.105 53.9516 165.849 53.7036 165.274 53.7036H151.732C151.206 53.7036 150.923 53.9353 150.923 54.4414V68.0083C150.923 68.0083 144.136 69.6462 143.677 69.7791C143.221 69.9113 142.884 70.3326 142.884 70.8356V79.3612C142.884 79.9745 143.374 80.4689 143.979 80.4689H150.923C150.923 80.4689 150.923 89.3863 150.923 100.979C150.923 116.214 161.609 117.709 168.819 117.709C172.114 117.709 176.055 116.651 176.706 116.411C177.1 116.267 177.328 115.859 177.328 115.417L177.339 106.039C177.339 105.427 176.823 104.932 176.241 104.932C175.662 104.932 174.18 105.167 172.655 105.167C167.774 105.167 166.119 102.898 166.119 99.9595C166.119 97.0241 166.118 80.4682 166.118 80.4682H176.057C176.663 80.4682 177.154 79.9737 177.154 79.3604V68.6815C177.154 68.0712 176.664 67.5784 176.058 67.5784Z" fill="#100E0F"/>
</svg>
