<svg width="400" height="160" viewBox="0 0 400 160" fill="none" xmlns="http://www.w3.org/2000/svg">
<path d="M41.5 119H91.3333L113 97.3333V47.5C113 45.7761 112.315 44.1228 111.096 42.9038C109.877 41.6848 108.224 41 106.5 41H41.5C39.7761 41 38.1228 41.6848 36.9038 42.9038C35.6848 44.1228 35 45.7761 35 47.5V112.5C35 114.224 35.6848 115.877 36.9038 117.096C38.1228 118.315 39.7761 119 41.5 119Z" fill="#FFC107"/>
<path d="M91.3334 119V97.3335H113L91.3334 119Z" fill="#FFECB3"/>
<path d="M91.3333 71.3333C91.3333 66.7362 89.5071 62.3274 86.2565 59.0768C83.0058 55.8262 78.597 54 74 54C69.4029 54 64.9941 55.8262 61.7434 59.0768C58.4928 62.3274 56.6666 66.7362 56.6666 71.3333C56.6682 74.7851 57.7 78.1579 59.63 81.0197C61.56 83.8815 64.3003 86.102 67.5 87.397V103.833H80.5V87.397C83.6996 86.102 86.4399 83.8815 88.3699 81.0197C90.2999 78.1579 91.3318 74.7851 91.3333 71.3333Z" stroke="white" stroke-width="2" stroke-miterlimit="10"/>
<path d="M69.6666 103.833H78.3333V110.333H69.6666V103.833Z" fill="white"/>
<path d="M67.5 95.1665H80.5" stroke="white" stroke-width="2" stroke-miterlimit="10"/>
<path d="M147.557 93.6366C144.877 93.6366 142.409 92.9865 140.154 91.6864C137.899 90.3863 136.108 88.5953 134.781 86.3134C133.454 84.0315 132.791 81.5109 132.791 78.7514C132.791 75.9919 133.454 73.4713 134.781 71.1894C136.108 68.9075 137.899 67.1165 140.154 65.8164C142.409 64.5163 144.877 63.8662 147.557 63.8662C149.653 63.8662 151.616 64.2377 153.447 64.9806C155.305 65.7235 156.83 66.7716 158.024 68.1248L155.596 70.5526C154.694 69.4382 153.54 68.5891 152.134 68.0054C150.728 67.3951 149.215 67.09 147.597 67.09C145.58 67.09 143.696 67.5809 141.945 68.5626C140.22 69.5178 138.827 70.8843 137.766 72.662C136.731 74.4132 136.214 76.443 136.214 78.7514C136.214 81.0598 136.731 83.1029 137.766 84.8806C138.827 86.6318 140.234 87.9983 141.985 88.98C143.736 89.9352 145.607 90.4128 147.597 90.4128C149.507 90.4128 151.099 90.1209 152.373 89.5372C153.673 88.9269 154.787 88.1309 155.716 87.1492C156.406 86.4063 156.963 85.5174 157.387 84.4826C157.812 83.4213 158.077 82.2538 158.183 80.9802H147.636V77.836H161.328C161.46 78.5789 161.527 79.2688 161.527 79.9056C161.527 81.6568 161.248 83.3682 160.691 85.0398C160.134 86.6849 159.245 88.1309 158.024 89.378C155.397 92.2171 151.908 93.6366 147.557 93.6366Z" fill="#7E7E7E"/>
<path d="M175.042 93.6366C173.052 93.6366 171.261 93.159 169.669 92.2038C168.077 91.2486 166.83 89.9485 165.928 88.3034C165.053 86.6583 164.615 84.8408 164.615 82.8508C164.615 80.8608 165.053 79.0433 165.928 77.3982C166.83 75.7531 168.077 74.453 169.669 73.4978C171.261 72.5426 173.052 72.065 175.042 72.065C177.032 72.065 178.823 72.5426 180.415 73.4978C182.007 74.453 183.241 75.7531 184.117 77.3982C185.019 79.0433 185.47 80.8608 185.47 82.8508C185.47 84.8408 185.019 86.6583 184.117 88.3034C183.241 89.9485 182.007 91.2486 180.415 92.2038C178.823 93.159 177.032 93.6366 175.042 93.6366ZM175.042 90.572C176.29 90.572 177.444 90.2669 178.505 89.6566C179.593 89.0198 180.455 88.1177 181.092 86.9502C181.755 85.7827 182.087 84.4163 182.087 82.8508C182.087 81.2853 181.755 79.9189 181.092 78.7514C180.455 77.5839 179.593 76.6951 178.505 76.0848C177.444 75.448 176.29 75.1296 175.042 75.1296C173.795 75.1296 172.628 75.448 171.54 76.0848C170.452 76.6951 169.577 77.5839 168.913 78.7514C168.276 79.9189 167.958 81.2853 167.958 82.8508C167.958 84.4163 168.276 85.7827 168.913 86.9502C169.577 88.1177 170.452 89.0198 171.54 89.6566C172.628 90.2669 173.795 90.572 175.042 90.572Z" fill="#7E7E7E"/>
<path d="M198.751 93.6366C196.761 93.6366 194.97 93.159 193.378 92.2038C191.786 91.2486 190.539 89.9485 189.637 88.3034C188.762 86.6583 188.324 84.8408 188.324 82.8508C188.324 80.8608 188.762 79.0433 189.637 77.3982C190.539 75.7531 191.786 74.453 193.378 73.4978C194.97 72.5426 196.761 72.065 198.751 72.065C200.741 72.065 202.532 72.5426 204.124 73.4978C205.716 74.453 206.95 75.7531 207.826 77.3982C208.728 79.0433 209.179 80.8608 209.179 82.8508C209.179 84.8408 208.728 86.6583 207.826 88.3034C206.95 89.9485 205.716 91.2486 204.124 92.2038C202.532 93.159 200.741 93.6366 198.751 93.6366ZM198.751 90.572C199.998 90.572 201.153 90.2669 202.214 89.6566C203.302 89.0198 204.164 88.1177 204.801 86.9502C205.464 85.7827 205.796 84.4163 205.796 82.8508C205.796 81.2853 205.464 79.9189 204.801 78.7514C204.164 77.5839 203.302 76.6951 202.214 76.0848C201.153 75.448 199.998 75.1296 198.751 75.1296C197.504 75.1296 196.337 75.448 195.249 76.0848C194.161 76.6951 193.286 77.5839 192.622 78.7514C191.985 79.9189 191.667 81.2853 191.667 82.8508C191.667 84.4163 191.985 85.7827 192.622 86.9502C193.286 88.1177 194.161 89.0198 195.249 89.6566C196.337 90.2669 197.504 90.572 198.751 90.572Z" fill="#7E7E7E"/>
<path d="M222.023 102.233C219.635 102.233 217.658 101.676 216.092 100.562C214.553 99.4474 213.519 98.1075 212.988 96.542L216.053 95.2286C216.504 96.3961 217.247 97.338 218.281 98.0544C219.343 98.7973 220.59 99.1688 222.023 99.1688C224.119 99.1688 225.737 98.5585 226.878 97.338C228.046 96.1175 228.629 94.3928 228.629 92.164V89.8954H228.47C227.807 90.9302 226.865 91.7793 225.644 92.4426C224.45 93.0794 223.084 93.3978 221.545 93.3978C219.794 93.3978 218.189 92.9467 216.729 92.0446C215.296 91.1425 214.155 89.8821 213.306 88.2636C212.457 86.6451 212.033 84.801 212.033 82.7314C212.033 80.6883 212.457 78.8575 213.306 77.239C214.155 75.5939 215.296 74.3203 216.729 73.4182C218.189 72.5161 219.794 72.065 221.545 72.065C223.084 72.065 224.45 72.3967 225.644 73.06C226.865 73.6968 227.807 74.5459 228.47 75.6072H228.629V72.7018H231.853V92.2038C231.853 95.4674 230.951 97.9483 229.147 99.6464C227.343 101.371 224.968 102.233 222.023 102.233ZM222.023 90.3332C223.243 90.3332 224.344 90.0281 225.326 89.4178C226.334 88.8075 227.13 87.9319 227.714 86.791C228.324 85.6501 228.629 84.2969 228.629 82.7314C228.629 81.1394 228.324 79.7729 227.714 78.632C227.13 77.4911 226.334 76.6287 225.326 76.045C224.344 75.4347 223.243 75.1296 222.023 75.1296C220.802 75.1296 219.688 75.4347 218.679 76.045C217.671 76.6553 216.862 77.5309 216.252 78.6718C215.668 79.8127 215.376 81.1659 215.376 82.7314C215.376 84.2969 215.668 85.6633 216.252 86.8308C216.862 87.9717 217.671 88.8473 218.679 89.4576C219.688 90.0413 220.802 90.3332 222.023 90.3332Z" fill="#7E7E7E"/>
<path d="M236.855 64.503H240.238V92.9998H236.855V64.503Z" fill="#7E7E7E"/>
<path d="M254.091 93.6366C252.154 93.6366 250.416 93.1723 248.877 92.2436C247.338 91.3149 246.131 90.0413 245.255 88.4228C244.406 86.7777 243.982 84.9337 243.982 82.8906C243.982 80.9271 244.38 79.1229 245.176 77.4778C245.998 75.8327 247.152 74.5193 248.638 73.5376C250.124 72.5559 251.849 72.065 253.812 72.065C255.802 72.065 257.527 72.5161 258.986 73.4182C260.446 74.2938 261.56 75.5143 262.329 77.0798C263.125 78.6453 263.523 80.4363 263.523 82.4528C263.523 82.8508 263.484 83.1957 263.404 83.4876H247.365C247.444 85.0265 247.816 86.3267 248.479 87.388C249.142 88.4493 249.978 89.2453 250.986 89.776C252.021 90.3067 253.096 90.572 254.21 90.572C256.811 90.572 258.814 89.3515 260.22 86.9104L263.086 88.3034C262.21 89.9485 261.016 91.2486 259.504 92.2038C258.018 93.159 256.214 93.6366 254.091 93.6366ZM259.941 80.7016C259.888 79.8525 259.65 79.0035 259.225 78.1544C258.801 77.3053 258.124 76.5889 257.195 76.0052C256.293 75.4215 255.152 75.1296 253.772 75.1296C252.18 75.1296 250.827 75.647 249.713 76.6818C248.625 77.6901 247.909 79.03 247.564 80.7016H259.941Z" fill="#7E7E7E"/>
<path d="M277.41 64.503H280.753V79.5076H280.912L293.767 64.503H298.106V64.6622L287.559 76.841L298.862 92.8406V92.9998H294.762L285.29 79.428L280.753 84.6418V92.9998H277.41V64.503Z" fill="#7E7E7E"/>
<path d="M309.865 93.6366C307.928 93.6366 306.19 93.1723 304.651 92.2436C303.113 91.3149 301.905 90.0413 301.03 88.4228C300.181 86.7777 299.756 84.9337 299.756 82.8906C299.756 80.9271 300.154 79.1229 300.95 77.4778C301.773 75.8327 302.927 74.5193 304.413 73.5376C305.899 72.5559 307.623 72.065 309.587 72.065C311.577 72.065 313.301 72.5161 314.761 73.4182C316.22 74.2938 317.334 75.5143 318.104 77.0798C318.9 78.6453 319.298 80.4363 319.298 82.4528C319.298 82.8508 319.258 83.1957 319.178 83.4876H303.139C303.219 85.0265 303.59 86.3267 304.253 87.388C304.917 88.4493 305.753 89.2453 306.761 89.776C307.796 90.3067 308.87 90.572 309.985 90.572C312.585 90.572 314.588 89.3515 315.994 86.9104L318.86 88.3034C317.984 89.9485 316.79 91.2486 315.278 92.2038C313.792 93.159 311.988 93.6366 309.865 93.6366ZM315.716 80.7016C315.663 79.8525 315.424 79.0035 314.999 78.1544C314.575 77.3053 313.898 76.5889 312.97 76.0052C312.068 75.4215 310.927 75.1296 309.547 75.1296C307.955 75.1296 306.602 75.647 305.487 76.6818C304.399 77.6901 303.683 79.03 303.338 80.7016H315.716Z" fill="#7E7E7E"/>
<path d="M332.486 93.6366C330.549 93.6366 328.811 93.1723 327.272 92.2436C325.733 91.3149 324.526 90.0413 323.65 88.4228C322.801 86.7777 322.377 84.9337 322.377 82.8906C322.377 80.9271 322.775 79.1229 323.571 77.4778C324.393 75.8327 325.547 74.5193 327.033 73.5376C328.519 72.5559 330.244 72.065 332.207 72.065C334.197 72.065 335.922 72.5161 337.381 73.4182C338.841 74.2938 339.955 75.5143 340.725 77.0798C341.521 78.6453 341.919 80.4363 341.919 82.4528C341.919 82.8508 341.879 83.1957 341.799 83.4876H325.76C325.839 85.0265 326.211 86.3267 326.874 87.388C327.537 88.4493 328.373 89.2453 329.382 89.776C330.416 90.3067 331.491 90.572 332.605 90.572C335.206 90.572 337.209 89.3515 338.615 86.9104L341.481 88.3034C340.605 89.9485 339.411 91.2486 337.899 92.2038C336.413 93.159 334.609 93.6366 332.486 93.6366ZM338.337 80.7016C338.283 79.8525 338.045 79.0035 337.62 78.1544C337.196 77.3053 336.519 76.5889 335.59 76.0052C334.688 75.4215 333.547 75.1296 332.168 75.1296C330.576 75.1296 329.222 75.647 328.108 76.6818C327.02 77.6901 326.304 79.03 325.959 80.7016H338.337Z" fill="#7E7E7E"/>
<path d="M345.719 72.7018H348.942V75.7266H349.102C349.712 74.6918 350.627 73.8295 351.848 73.1396C353.095 72.4232 354.488 72.065 356.027 72.065C357.831 72.065 359.476 72.5293 360.962 73.458C362.448 74.3867 363.615 75.6735 364.464 77.3186C365.313 78.9637 365.738 80.8077 365.738 82.8508C365.738 84.9204 365.313 86.7777 364.464 88.4228C363.615 90.0413 362.448 91.3149 360.962 92.2436C359.476 93.1723 357.831 93.6366 356.027 93.6366C354.488 93.6366 353.095 93.2917 351.848 92.6018C350.627 91.8854 349.712 91.0231 349.102 90.0148H348.942L349.102 92.8008V101.597H345.719V72.7018ZM355.629 90.572C356.796 90.572 357.897 90.2536 358.932 89.6168C359.967 88.98 360.789 88.0779 361.4 86.9104C362.037 85.7164 362.355 84.3632 362.355 82.8508C362.355 81.3384 362.037 79.9985 361.4 78.831C360.789 77.637 359.967 76.7216 358.932 76.0848C357.897 75.448 356.796 75.1296 355.629 75.1296C354.461 75.1296 353.36 75.448 352.325 76.0848C351.291 76.7216 350.468 77.6237 349.858 78.7912C349.247 79.9587 348.942 81.3119 348.942 82.8508C348.942 84.3897 349.247 85.7429 349.858 86.9104C350.468 88.0779 351.291 88.98 352.325 89.6168C353.36 90.2536 354.461 90.572 355.629 90.572Z" fill="#7E7E7E"/>
</svg>
