<svg width="400" height="160" viewBox="0 0 400 160" fill="none" xmlns="http://www.w3.org/2000/svg">
<g clip-path="url(#clip0_922_1272)">
<path d="M84.6877 58.3125L96.3757 60.5213L106 58.3125L84.6877 37L81.7476 47.1041L84.6877 58.3125Z" fill="#F29900"/>
<path d="M84.6875 58.3125V37H49.8125C46.6011 37 44 39.6011 44 42.8125V116.438C44 119.649 46.6011 122.25 49.8125 122.25H100.188C103.399 122.25 106 119.649 106 116.438V58.3125H84.6875Z" fill="#FBBC04"/>
<path d="M81.7812 99H68.2188V94.1562H81.7812V99ZM81.7086 89.3125H68.2914C64.7555 87.0844 62.4062 83.1464 62.4062 78.6562C62.4062 71.7006 68.0444 66.0625 75 66.0625C81.9556 66.0625 87.5938 71.7006 87.5938 78.6562C87.5938 83.1464 85.2445 87.0844 81.7086 89.3125Z" fill="white"/>
</g>
<path d="M155.557 90.7704C152.877 90.7704 150.409 90.1203 148.154 88.8202C145.899 87.5201 144.108 85.7291 142.781 83.4472C141.454 81.1653 140.791 78.6447 140.791 75.8852C140.791 73.1257 141.454 70.6051 142.781 68.3232C144.108 66.0413 145.899 64.2503 148.154 62.9502C150.409 61.6501 152.877 61 155.557 61C157.653 61 159.616 61.3715 161.447 62.1144C163.305 62.8573 164.83 63.9054 166.024 65.2586L163.596 67.6864C162.694 66.572 161.54 65.7229 160.134 65.1392C158.728 64.5289 157.215 64.2238 155.597 64.2238C153.58 64.2238 151.696 64.7147 149.945 65.6964C148.22 66.6516 146.827 68.0181 145.766 69.7958C144.731 71.547 144.214 73.5768 144.214 75.8852C144.214 78.1936 144.731 80.2367 145.766 82.0144C146.827 83.7656 148.234 85.1321 149.985 86.1138C151.736 87.069 153.607 87.5466 155.597 87.5466C157.507 87.5466 159.099 87.2547 160.373 86.671C161.673 86.0607 162.787 85.2647 163.716 84.283C164.406 83.5401 164.963 82.6512 165.387 81.6164C165.812 80.5551 166.077 79.3876 166.183 78.114H155.636V74.9698H169.328C169.46 75.7127 169.527 76.4026 169.527 77.0394C169.527 78.7906 169.248 80.502 168.691 82.1736C168.134 83.8187 167.245 85.2647 166.024 86.5118C163.397 89.3509 159.908 90.7704 155.557 90.7704Z" fill="#7E7E7E"/>
<path d="M183.042 90.7703C181.052 90.7703 179.261 90.2927 177.669 89.3375C176.077 88.3823 174.83 87.0822 173.928 85.4371C173.053 83.792 172.615 81.9745 172.615 79.9845C172.615 77.9945 173.053 76.177 173.928 74.5319C174.83 72.8868 176.077 71.5867 177.669 70.6315C179.261 69.6763 181.052 69.1987 183.042 69.1987C185.032 69.1987 186.823 69.6763 188.415 70.6315C190.007 71.5867 191.241 72.8868 192.117 74.5319C193.019 76.177 193.47 77.9945 193.47 79.9845C193.47 81.9745 193.019 83.792 192.117 85.4371C191.241 87.0822 190.007 88.3823 188.415 89.3375C186.823 90.2927 185.032 90.7703 183.042 90.7703ZM183.042 87.7057C184.29 87.7057 185.444 87.4006 186.505 86.7903C187.593 86.1535 188.455 85.2514 189.092 84.0839C189.755 82.9164 190.087 81.55 190.087 79.9845C190.087 78.419 189.755 77.0526 189.092 75.8851C188.455 74.7176 187.593 73.8288 186.505 73.2185C185.444 72.5817 184.29 72.2633 183.042 72.2633C181.795 72.2633 180.628 72.5817 179.54 73.2185C178.452 73.8288 177.577 74.7176 176.913 75.8851C176.276 77.0526 175.958 78.419 175.958 79.9845C175.958 81.55 176.276 82.9164 176.913 84.0839C177.577 85.2514 178.452 86.1535 179.54 86.7903C180.628 87.4006 181.795 87.7057 183.042 87.7057Z" fill="#7E7E7E"/>
<path d="M206.751 90.7703C204.761 90.7703 202.97 90.2927 201.378 89.3375C199.786 88.3823 198.539 87.0822 197.637 85.4371C196.762 83.792 196.324 81.9745 196.324 79.9845C196.324 77.9945 196.762 76.177 197.637 74.5319C198.539 72.8868 199.786 71.5867 201.378 70.6315C202.97 69.6763 204.761 69.1987 206.751 69.1987C208.741 69.1987 210.532 69.6763 212.124 70.6315C213.716 71.5867 214.95 72.8868 215.826 74.5319C216.728 76.177 217.179 77.9945 217.179 79.9845C217.179 81.9745 216.728 83.792 215.826 85.4371C214.95 87.0822 213.716 88.3823 212.124 89.3375C210.532 90.2927 208.741 90.7703 206.751 90.7703ZM206.751 87.7057C207.998 87.7057 209.153 87.4006 210.214 86.7903C211.302 86.1535 212.164 85.2514 212.801 84.0839C213.464 82.9164 213.796 81.55 213.796 79.9845C213.796 78.419 213.464 77.0526 212.801 75.8851C212.164 74.7176 211.302 73.8288 210.214 73.2185C209.153 72.5817 207.998 72.2633 206.751 72.2633C205.504 72.2633 204.337 72.5817 203.249 73.2185C202.161 73.8288 201.286 74.7176 200.622 75.8851C199.985 77.0526 199.667 78.419 199.667 79.9845C199.667 81.55 199.985 82.9164 200.622 84.0839C201.286 85.2514 202.161 86.1535 203.249 86.7903C204.337 87.4006 205.504 87.7057 206.751 87.7057Z" fill="#7E7E7E"/>
<path d="M230.023 99.3667C227.635 99.3667 225.658 98.8097 224.092 97.6957C222.553 96.5811 221.519 95.2412 220.988 93.6757L224.053 92.3623C224.504 93.5298 225.247 94.4717 226.281 95.1881C227.343 95.931 228.59 96.3025 230.023 96.3025C232.119 96.3025 233.737 95.6922 234.878 94.4717C236.046 93.2512 236.629 91.5265 236.629 89.2977V87.0291H236.47C235.807 88.0639 234.865 88.913 233.644 89.5763C232.45 90.2131 231.084 90.5315 229.545 90.5315C227.794 90.5315 226.189 90.0804 224.729 89.1783C223.296 88.2762 222.155 87.0158 221.306 85.3973C220.457 83.7788 220.033 81.9347 220.033 79.8651C220.033 77.822 220.457 75.9912 221.306 74.3727C222.155 72.7276 223.296 71.454 224.729 70.5519C226.189 69.6498 227.794 69.1987 229.545 69.1987C231.084 69.1987 232.45 69.5304 233.644 70.1937C234.865 70.8305 235.807 71.6796 236.47 72.7409H236.629V69.8355H239.853V89.3375C239.853 92.6011 238.951 95.082 237.147 96.7801C235.343 98.5047 232.968 99.3667 230.023 99.3667ZM230.023 87.4669C231.243 87.4669 232.344 87.1618 233.326 86.5515C234.334 85.9412 235.13 85.0656 235.714 83.9247C236.324 82.7838 236.629 81.4306 236.629 79.8651C236.629 78.2731 236.324 76.9066 235.714 75.7657C235.13 74.6248 234.334 73.7624 233.326 73.1787C232.344 72.5684 231.243 72.2633 230.023 72.2633C228.802 72.2633 227.688 72.5684 226.679 73.1787C225.671 73.789 224.862 74.6646 224.252 75.8055C223.668 76.9464 223.376 78.2996 223.376 79.8651C223.376 81.4306 223.668 82.797 224.252 83.9645C224.862 85.1054 225.671 85.981 226.679 86.5913C227.688 87.175 228.802 87.4669 230.023 87.4669Z" fill="#7E7E7E"/>
<path d="M244.855 61.6367H248.238V90.1335H244.855V61.6367Z" fill="#7E7E7E"/>
<path d="M262.091 90.7703C260.154 90.7703 258.416 90.306 256.877 89.3773C255.338 88.4486 254.131 87.175 253.255 85.5565C252.406 83.9114 251.982 82.0674 251.982 80.0243C251.982 78.0608 252.38 76.2566 253.176 74.6115C253.998 72.9664 255.152 71.653 256.638 70.6713C258.124 69.6896 259.849 69.1987 261.812 69.1987C263.802 69.1987 265.527 69.6498 266.986 70.5519C268.446 71.4275 269.56 72.648 270.329 74.2135C271.125 75.779 271.523 77.57 271.523 79.5865C271.523 79.9845 271.484 80.3294 271.404 80.6213H255.365C255.444 82.1602 255.816 83.4604 256.479 84.5217C257.142 85.583 257.978 86.379 258.986 86.9097C260.021 87.4404 261.096 87.7057 262.21 87.7057C264.811 87.7057 266.814 86.4852 268.22 84.0441L271.086 85.4371C270.21 87.0822 269.016 88.3823 267.504 89.3375C266.018 90.2927 264.214 90.7703 262.091 90.7703ZM267.941 77.8353C267.888 76.9862 267.65 76.1372 267.225 75.2881C266.801 74.439 266.124 73.7226 265.195 73.1389C264.293 72.5552 263.152 72.2633 261.772 72.2633C260.18 72.2633 258.827 72.7807 257.713 73.8155C256.625 74.8238 255.909 76.1637 255.564 77.8353H267.941Z" fill="#7E7E7E"/>
<path d="M285.41 61.6367H288.753V76.6413H288.912L301.767 61.6367H306.106V61.7959L295.559 73.9747L306.862 89.9743V90.1335H302.762L293.29 76.5617L288.753 81.7755V90.1335H285.41V61.6367Z" fill="#7E7E7E"/>
<path d="M317.865 90.7703C315.928 90.7703 314.19 90.306 312.651 89.3773C311.113 88.4486 309.905 87.175 309.03 85.5565C308.181 83.9114 307.756 82.0674 307.756 80.0243C307.756 78.0608 308.154 76.2566 308.95 74.6115C309.773 72.9664 310.927 71.653 312.413 70.6713C313.899 69.6896 315.623 69.1987 317.587 69.1987C319.577 69.1987 321.301 69.6498 322.761 70.5519C324.22 71.4275 325.334 72.648 326.104 74.2135C326.9 75.779 327.298 77.57 327.298 79.5865C327.298 79.9845 327.258 80.3294 327.178 80.6213H311.139C311.219 82.1602 311.59 83.4604 312.253 84.5217C312.917 85.583 313.753 86.379 314.761 86.9097C315.796 87.4404 316.87 87.7057 317.985 87.7057C320.585 87.7057 322.588 86.4852 323.994 84.0441L326.86 85.4371C325.984 87.0822 324.79 88.3823 323.278 89.3375C321.792 90.2927 319.988 90.7703 317.865 90.7703ZM323.716 77.8353C323.663 76.9862 323.424 76.1372 322.999 75.2881C322.575 74.439 321.898 73.7226 320.97 73.1389C320.068 72.5552 318.927 72.2633 317.547 72.2633C315.955 72.2633 314.602 72.7807 313.487 73.8155C312.399 74.8238 311.683 76.1637 311.338 77.8353H323.716Z" fill="#7E7E7E"/>
<path d="M340.486 90.7703C338.549 90.7703 336.811 90.306 335.272 89.3773C333.733 88.4486 332.526 87.175 331.65 85.5565C330.801 83.9114 330.377 82.0674 330.377 80.0243C330.377 78.0608 330.775 76.2566 331.571 74.6115C332.393 72.9664 333.547 71.653 335.033 70.6713C336.519 69.6896 338.244 69.1987 340.207 69.1987C342.197 69.1987 343.922 69.6498 345.381 70.5519C346.841 71.4275 347.955 72.648 348.725 74.2135C349.521 75.779 349.919 77.57 349.919 79.5865C349.919 79.9845 349.879 80.3294 349.799 80.6213H333.76C333.839 82.1602 334.211 83.4604 334.874 84.5217C335.537 85.583 336.373 86.379 337.382 86.9097C338.416 87.4404 339.491 87.7057 340.605 87.7057C343.206 87.7057 345.209 86.4852 346.615 84.0441L349.481 85.4371C348.605 87.0822 347.411 88.3823 345.899 89.3375C344.413 90.2927 342.609 90.7703 340.486 90.7703ZM346.337 77.8353C346.283 76.9862 346.045 76.1372 345.62 75.2881C345.196 74.439 344.519 73.7226 343.59 73.1389C342.688 72.5552 341.547 72.2633 340.168 72.2633C338.576 72.2633 337.222 72.7807 336.108 73.8155C335.02 74.8238 334.304 76.1637 333.959 77.8353H346.337Z" fill="#7E7E7E"/>
<path d="M353.719 69.8355H356.942V72.8603H357.102C357.712 71.8255 358.627 70.9632 359.848 70.2733C361.095 69.5569 362.488 69.1987 364.027 69.1987C365.831 69.1987 367.476 69.663 368.962 70.5917C370.448 71.5204 371.615 72.8072 372.464 74.4523C373.313 76.0974 373.738 77.9414 373.738 79.9845C373.738 82.0541 373.313 83.9114 372.464 85.5565C371.615 87.175 370.448 88.4486 368.962 89.3773C367.476 90.306 365.831 90.7703 364.027 90.7703C362.488 90.7703 361.095 90.4254 359.848 89.7355C358.627 89.0191 357.712 88.1568 357.102 87.1485H356.942L357.102 89.9345V98.7307H353.719V69.8355ZM363.629 87.7057C364.796 87.7057 365.897 87.3873 366.932 86.7505C367.967 86.1137 368.789 85.2116 369.4 84.0441C370.037 82.8501 370.355 81.4969 370.355 79.9845C370.355 78.4721 370.037 77.1322 369.4 75.9647C368.789 74.7707 367.967 73.8553 366.932 73.2185C365.897 72.5817 364.796 72.2633 363.629 72.2633C362.461 72.2633 361.36 72.5817 360.325 73.2185C359.291 73.8553 358.468 74.7574 357.858 75.9249C357.247 77.0924 356.942 78.4456 356.942 79.9845C356.942 81.5234 357.247 82.8766 357.858 84.0441C358.468 85.2116 359.291 86.1137 360.325 86.7505C361.36 87.3873 362.461 87.7057 363.629 87.7057Z" fill="#7E7E7E"/>
<defs>
<clipPath id="clip0_922_1272">
<rect width="62" height="85.25" fill="white" transform="translate(44 37)"/>
</clipPath>
</defs>
</svg>
