<svg width="400" height="160" viewBox="0 0 400 160" fill="none" xmlns="http://www.w3.org/2000/svg">
<g clip-path="url(#clip0_921_1295)">
<path d="M83 109H97V75.5152L77 60.7424V103.091C77 106.361 79.69 109 83 109Z" fill="#4285F4"/>
<path d="M145 109H159C162.32 109 165 106.351 165 103.091V60.7424L145 75.5152" fill="#34A853"/>
<path d="M145 49.909V75.5151L165 60.7423V52.8636C165 45.556 156.53 41.3901 150.6 45.7726" fill="#FBBC04"/>
<path d="M97 75.5152V49.9092L121 67.6365L145 49.9092V75.5152L121 93.2425" fill="#EA4335"/>
<path d="M77 52.8636V60.7423L97 75.5151V49.909L91.4 45.7726C85.46 41.3901 77 45.556 77 52.8636Z" fill="#C5221F"/>
</g>
<path d="M231.539 78.4733C231.539 83.5535 230.001 87.6007 226.925 90.615C223.468 94.205 218.922 96 213.288 96C207.896 96 203.333 94.1711 199.6 90.5134C195.867 86.8556 194 82.3512 194 77C194 71.6488 195.867 67.1444 199.6 63.4866C203.333 59.8289 207.896 58 213.288 58C216.019 58 218.594 58.4742 221.014 59.4225C223.433 60.3708 225.421 61.7086 226.977 63.4358L223.554 66.7888C222.414 65.434 220.927 64.3841 219.095 63.639C217.298 62.8601 215.362 62.4706 213.288 62.4706C209.244 62.4706 205.822 63.8422 203.022 66.5856C200.257 69.3627 198.874 72.8342 198.874 77C198.874 81.1658 200.257 84.6373 203.022 87.4144C205.822 90.1578 209.244 91.5294 213.288 91.5294C216.987 91.5294 220.063 90.5134 222.517 88.4813C224.972 86.4492 226.389 83.6551 226.769 80.0989H213.288V75.7299H231.28C231.453 76.6783 231.539 77.5927 231.539 78.4733Z" fill="#7E7E7E"/>
<path d="M241.276 95.1872H236.506V70.2941H241.068V73.7487H241.276C242.002 72.5294 243.108 71.5134 244.594 70.7005C246.115 69.8877 247.619 69.4813 249.105 69.4813C250.972 69.4813 252.614 69.9046 254.031 70.7513C255.448 71.598 256.485 72.7665 257.142 74.2567C259.25 71.0731 262.171 69.4813 265.904 69.4813C268.843 69.4813 271.107 70.3619 272.697 72.123C274.287 73.8841 275.082 76.3904 275.082 79.6417V95.1872H270.312V80.3529C270.312 78.016 269.88 76.3396 269.015 75.3235C268.151 74.2736 266.699 73.7487 264.66 73.7487C262.828 73.7487 261.29 74.5107 260.045 76.0348C258.801 77.5588 258.179 79.3538 258.179 81.4198V95.1872H253.409V80.3529C253.409 78.016 252.977 76.3396 252.112 75.3235C251.248 74.2736 249.796 73.7487 247.757 73.7487C245.925 73.7487 244.387 74.5107 243.142 76.0348C241.898 77.5588 241.276 79.3538 241.276 81.4198V95.1872Z" fill="#7E7E7E"/>
<path d="M283.88 87.5668C283.88 88.7861 284.398 89.8021 285.435 90.615C286.507 91.4278 287.751 91.8342 289.168 91.8342C291.173 91.8342 292.953 91.1061 294.509 89.6497C296.099 88.1934 296.894 86.4831 296.894 84.5187C295.408 83.3672 293.334 82.7914 290.672 82.7914C288.736 82.7914 287.112 83.2487 285.798 84.1631C284.519 85.0775 283.88 86.2121 283.88 87.5668ZM290.05 69.4813C293.576 69.4813 296.358 70.4127 298.398 72.2754C300.437 74.1043 301.457 76.6275 301.457 79.8449V95.1872H296.894V91.7326H296.687C294.716 94.5775 292.089 96 288.805 96C286.006 96 283.655 95.1872 281.754 93.5615C279.887 91.9358 278.954 89.9037 278.954 87.4652C278.954 84.8913 279.939 82.8422 281.909 81.3182C283.914 79.7941 286.576 79.0321 289.894 79.0321C292.729 79.0321 295.062 79.5401 296.894 80.5561V79.4893C296.894 77.8636 296.237 76.492 294.924 75.3743C293.61 74.2228 292.072 73.6471 290.309 73.6471C287.647 73.6471 285.539 74.7478 283.983 76.9492L279.784 74.3583C282.1 71.107 285.522 69.4813 290.05 69.4813Z" fill="#7E7E7E"/>
<path d="M313.007 61.7086C313.007 62.623 312.679 63.402 312.022 64.0455C311.365 64.6889 310.57 65.0107 309.637 65.0107C308.704 65.0107 307.909 64.6889 307.252 64.0455C306.595 63.402 306.267 62.623 306.267 61.7086C306.267 60.7941 306.595 60.0152 307.252 59.3717C307.909 58.7282 308.704 58.4064 309.637 58.4064C310.57 58.4064 311.365 58.7282 312.022 59.3717C312.679 60.0152 313.007 60.7941 313.007 61.7086ZM312.022 70.2941V95.1872H307.252V70.2941H312.022Z" fill="#7E7E7E"/>
<path d="M323 58.8128V95.1872H318.23V58.8128H323Z" fill="#7E7E7E"/>
<defs>
<clipPath id="clip0_921_1295">
<rect width="88" height="65" fill="white" transform="translate(77 44)"/>
</clipPath>
</defs>
</svg>
