<svg width="400" height="160" viewBox="0 0 400 160" fill="none" xmlns="http://www.w3.org/2000/svg">
<path d="M120.75 112H47.25C44.3503 112 42 109.65 42 106.75V54.25C42 51.3503 44.3503 49 47.25 49H120.75C123.65 49 126 51.3503 126 54.25V106.75C126 109.65 123.65 112 120.75 112Z" fill="#EAEAEA"/>
<path d="M53 112H47.5C44.4622 112 42 109.65 42 106.75V54.25C42 51.3503 44.4622 49 47.5 49C50.5378 49 53 51.3503 53 54.25V112Z" fill="#D54C3F"/>
<path d="M116 112H121C123.762 112 126 109.65 126 106.75V54.25C126 51.3503 123.762 49 121 49C118.238 49 116 51.3503 116 54.25V112Z" fill="#B63524"/>
<path d="M123.757 58.4309C125.113 57.493 126 55.9402 126 54.1818C126 51.3197 123.65 49 120.75 49C119.632 49 118.594 49.3455 117.743 49.9327L84.0035 74.1785L84 74.1802L83.9965 74.1785L50.2565 49.9327C49.406 49.3455 48.3682 49 47.25 49C44.3503 49 42 51.3197 42 54.1818C42 55.9402 42.8872 57.493 44.2435 58.4309L44.1035 58.329L84 87" fill="#DE5145"/>
<path d="M121 49C119.874 49 118.829 49.343 117.973 49.9261L84.0035 73.9983L84 74L83.9965 73.9983L50.027 49.9261C49.1707 49.343 48.1259 49 47 49H121Z" fill="#EFEFEF"/>
<path d="M52.9982 65.9429L44.0036 58L44 58.0063C44.1886 58.1649 44.3896 58.3109 44.6031 58.4441L44.4608 58.3505L53 63.8937L52.9982 66" fill="#C64132"/>
<path d="M78 91.2057L53 111L53.0017 66L77.9949 91.1988" fill="#E3E3E3"/>
<path d="M78.2612 92L84 87.3776L53 64V66.0819L78.2561 91.9929L78.2612 92Z" fill="url(#paint0_linear)"/>
<path d="M98.2975 112H116V64L83.94 87.2075L78 91.7888L98.2975 112Z" fill="url(#paint1_linear)"/>
<path d="M160.557 92.6366C157.877 92.6366 155.409 91.9865 153.154 90.6864C150.899 89.3863 149.108 87.5953 147.781 85.3134C146.454 83.0315 145.791 80.5109 145.791 77.7514C145.791 74.9919 146.454 72.4713 147.781 70.1894C149.108 67.9075 150.899 66.1165 153.154 64.8164C155.409 63.5163 157.877 62.8662 160.557 62.8662C162.653 62.8662 164.616 63.2377 166.447 63.9806C168.305 64.7235 169.83 65.7716 171.024 67.1248L168.596 69.5526C167.694 68.4382 166.54 67.5891 165.134 67.0054C163.728 66.3951 162.215 66.09 160.597 66.09C158.58 66.09 156.696 66.5809 154.945 67.5626C153.22 68.5178 151.827 69.8843 150.766 71.662C149.731 73.4132 149.214 75.443 149.214 77.7514C149.214 80.0598 149.731 82.1029 150.766 83.8806C151.827 85.6318 153.234 86.9983 154.985 87.98C156.736 88.9352 158.607 89.4128 160.597 89.4128C162.507 89.4128 164.099 89.1209 165.373 88.5372C166.673 87.9269 167.787 87.1309 168.716 86.1492C169.406 85.4063 169.963 84.5174 170.387 83.4826C170.812 82.4213 171.077 81.2538 171.183 79.9802H160.636V76.836H174.328C174.46 77.5789 174.527 78.2688 174.527 78.9056C174.527 80.6568 174.248 82.3682 173.691 84.0398C173.134 85.6849 172.245 87.1309 171.024 88.378C168.397 91.2171 164.908 92.6366 160.557 92.6366Z" fill="#7E7E7E"/>
<path d="M188.042 92.6366C186.052 92.6366 184.261 92.159 182.669 91.2038C181.077 90.2486 179.83 88.9485 178.928 87.3034C178.053 85.6583 177.615 83.8408 177.615 81.8508C177.615 79.8608 178.053 78.0433 178.928 76.3982C179.83 74.7531 181.077 73.453 182.669 72.4978C184.261 71.5426 186.052 71.065 188.042 71.065C190.032 71.065 191.823 71.5426 193.415 72.4978C195.007 73.453 196.241 74.7531 197.117 76.3982C198.019 78.0433 198.47 79.8608 198.47 81.8508C198.47 83.8408 198.019 85.6583 197.117 87.3034C196.241 88.9485 195.007 90.2486 193.415 91.2038C191.823 92.159 190.032 92.6366 188.042 92.6366ZM188.042 89.572C189.29 89.572 190.444 89.2669 191.505 88.6566C192.593 88.0198 193.455 87.1177 194.092 85.9502C194.755 84.7827 195.087 83.4163 195.087 81.8508C195.087 80.2853 194.755 78.9189 194.092 77.7514C193.455 76.5839 192.593 75.6951 191.505 75.0848C190.444 74.448 189.29 74.1296 188.042 74.1296C186.795 74.1296 185.628 74.448 184.54 75.0848C183.452 75.6951 182.577 76.5839 181.913 77.7514C181.276 78.9189 180.958 80.2853 180.958 81.8508C180.958 83.4163 181.276 84.7827 181.913 85.9502C182.577 87.1177 183.452 88.0198 184.54 88.6566C185.628 89.2669 186.795 89.572 188.042 89.572Z" fill="#7E7E7E"/>
<path d="M211.751 92.6366C209.761 92.6366 207.97 92.159 206.378 91.2038C204.786 90.2486 203.539 88.9485 202.637 87.3034C201.762 85.6583 201.324 83.8408 201.324 81.8508C201.324 79.8608 201.762 78.0433 202.637 76.3982C203.539 74.7531 204.786 73.453 206.378 72.4978C207.97 71.5426 209.761 71.065 211.751 71.065C213.741 71.065 215.532 71.5426 217.124 72.4978C218.716 73.453 219.95 74.7531 220.826 76.3982C221.728 78.0433 222.179 79.8608 222.179 81.8508C222.179 83.8408 221.728 85.6583 220.826 87.3034C219.95 88.9485 218.716 90.2486 217.124 91.2038C215.532 92.159 213.741 92.6366 211.751 92.6366ZM211.751 89.572C212.998 89.572 214.153 89.2669 215.214 88.6566C216.302 88.0198 217.164 87.1177 217.801 85.9502C218.464 84.7827 218.796 83.4163 218.796 81.8508C218.796 80.2853 218.464 78.9189 217.801 77.7514C217.164 76.5839 216.302 75.6951 215.214 75.0848C214.153 74.448 212.998 74.1296 211.751 74.1296C210.504 74.1296 209.337 74.448 208.249 75.0848C207.161 75.6951 206.286 76.5839 205.622 77.7514C204.985 78.9189 204.667 80.2853 204.667 81.8508C204.667 83.4163 204.985 84.7827 205.622 85.9502C206.286 87.1177 207.161 88.0198 208.249 88.6566C209.337 89.2669 210.504 89.572 211.751 89.572Z" fill="#7E7E7E"/>
<path d="M235.023 101.233C232.635 101.233 230.658 100.676 229.092 99.5618C227.553 98.4474 226.519 97.1075 225.988 95.542L229.053 94.2286C229.504 95.3961 230.247 96.338 231.281 97.0544C232.343 97.7973 233.59 98.1688 235.023 98.1688C237.119 98.1688 238.737 97.5585 239.878 96.338C241.046 95.1175 241.629 93.3928 241.629 91.164V88.8954H241.47C240.807 89.9302 239.865 90.7793 238.644 91.4426C237.45 92.0794 236.084 92.3978 234.545 92.3978C232.794 92.3978 231.189 91.9467 229.729 91.0446C228.296 90.1425 227.155 88.8821 226.306 87.2636C225.457 85.6451 225.033 83.801 225.033 81.7314C225.033 79.6883 225.457 77.8575 226.306 76.239C227.155 74.5939 228.296 73.3203 229.729 72.4182C231.189 71.5161 232.794 71.065 234.545 71.065C236.084 71.065 237.45 71.3967 238.644 72.06C239.865 72.6968 240.807 73.5459 241.47 74.6072H241.629V71.7018H244.853V91.2038C244.853 94.4674 243.951 96.9483 242.147 98.6464C240.343 100.371 237.968 101.233 235.023 101.233ZM235.023 89.3332C236.243 89.3332 237.344 89.0281 238.326 88.4178C239.334 87.8075 240.13 86.9319 240.714 85.791C241.324 84.6501 241.629 83.2969 241.629 81.7314C241.629 80.1394 241.324 78.7729 240.714 77.632C240.13 76.4911 239.334 75.6287 238.326 75.045C237.344 74.4347 236.243 74.1296 235.023 74.1296C233.802 74.1296 232.688 74.4347 231.679 75.045C230.671 75.6553 229.862 76.5309 229.252 77.6718C228.668 78.8127 228.376 80.1659 228.376 81.7314C228.376 83.2969 228.668 84.6633 229.252 85.8308C229.862 86.9717 230.671 87.8473 231.679 88.4576C232.688 89.0413 233.802 89.3332 235.023 89.3332Z" fill="#7E7E7E"/>
<path d="M249.855 63.503H253.238V91.9998H249.855V63.503Z" fill="#7E7E7E"/>
<path d="M267.091 92.6366C265.154 92.6366 263.416 92.1723 261.877 91.2436C260.338 90.3149 259.131 89.0413 258.255 87.4228C257.406 85.7777 256.982 83.9337 256.982 81.8906C256.982 79.9271 257.38 78.1229 258.176 76.4778C258.998 74.8327 260.152 73.5193 261.638 72.5376C263.124 71.5559 264.849 71.065 266.812 71.065C268.802 71.065 270.527 71.5161 271.986 72.4182C273.446 73.2938 274.56 74.5143 275.329 76.0798C276.125 77.6453 276.523 79.4363 276.523 81.4528C276.523 81.8508 276.484 82.1957 276.404 82.4876H260.365C260.444 84.0265 260.816 85.3267 261.479 86.388C262.142 87.4493 262.978 88.2453 263.986 88.776C265.021 89.3067 266.096 89.572 267.21 89.572C269.811 89.572 271.814 88.3515 273.22 85.9104L276.086 87.3034C275.21 88.9485 274.016 90.2486 272.504 91.2038C271.018 92.159 269.214 92.6366 267.091 92.6366ZM272.941 79.7016C272.888 78.8525 272.65 78.0035 272.225 77.1544C271.801 76.3053 271.124 75.5889 270.195 75.0052C269.293 74.4215 268.152 74.1296 266.772 74.1296C265.18 74.1296 263.827 74.647 262.713 75.6818C261.625 76.6901 260.909 78.03 260.564 79.7016H272.941Z" fill="#7E7E7E"/>
<path d="M290.41 63.503H295.305L304.379 86.8656H304.539L313.613 63.503H318.508V91.9998H315.165V73.8908L315.324 68.478H315.165L305.852 91.9998H303.066L293.753 68.478H293.594L293.753 73.8908V91.9998H290.41V63.503Z" fill="#7E7E7E"/>
<path d="M330.113 92.6366C328.627 92.6366 327.3 92.3447 326.133 91.761C324.965 91.1773 324.063 90.3813 323.426 89.373C322.789 88.3382 322.471 87.1707 322.471 85.8706C322.471 83.7214 323.28 82.0498 324.899 80.8558C326.517 79.6353 328.56 79.025 331.028 79.025C332.249 79.025 333.376 79.1577 334.411 79.423C335.472 79.6883 336.282 79.9935 336.839 80.3384V79.1046C336.839 77.5922 336.308 76.3849 335.247 75.4828C334.185 74.5541 332.846 74.0898 331.227 74.0898C330.086 74.0898 329.038 74.3419 328.083 74.846C327.128 75.3236 326.371 76.0002 325.814 76.8758L323.267 74.9654C324.063 73.7449 325.151 72.7897 326.531 72.0998C327.937 71.4099 329.489 71.065 331.187 71.065C333.947 71.065 336.109 71.7947 337.675 73.254C339.267 74.6868 340.063 76.6503 340.063 79.1444V91.9998H336.839V89.0944H336.68C336.096 90.0761 335.22 90.9119 334.053 91.6018C332.885 92.2917 331.572 92.6366 330.113 92.6366ZM330.431 89.6516C331.572 89.6516 332.633 89.3597 333.615 88.776C334.597 88.1923 335.379 87.4095 335.963 86.4278C336.547 85.4461 336.839 84.3715 336.839 83.204C336.202 82.7795 335.419 82.4345 334.491 82.1692C333.562 81.9039 332.58 81.7712 331.545 81.7712C329.688 81.7712 328.282 82.1559 327.327 82.9254C326.398 83.6949 325.934 84.6899 325.934 85.9104C325.934 87.0248 326.358 87.9269 327.207 88.6168C328.056 89.3067 329.131 89.6516 330.431 89.6516Z" fill="#7E7E7E"/>
<path d="M346.759 67.9606C346.096 67.9606 345.525 67.7218 345.048 67.2442C344.57 66.7666 344.331 66.1961 344.331 65.5328C344.331 64.8695 344.57 64.3123 345.048 63.8612C345.525 63.3836 346.096 63.1448 346.759 63.1448C347.422 63.1448 347.993 63.3836 348.47 63.8612C348.948 64.3123 349.187 64.8695 349.187 65.5328C349.187 66.1961 348.948 66.7666 348.47 67.2442C348.019 67.7218 347.449 67.9606 346.759 67.9606ZM345.087 71.7018H348.431V91.9998H345.087V71.7018Z" fill="#7E7E7E"/>
<path d="M353.747 63.503H357.13V91.9998H353.747V63.503Z" fill="#7E7E7E"/>
<defs>
<linearGradient id="paint0_linear" x1="52.9991" y1="78.0002" x2="84" y2="78.0002" gradientUnits="userSpaceOnUse">
<stop stop-color="#C8C8C8"/>
<stop offset="1" stop-color="#CDCDCD"/>
</linearGradient>
<linearGradient id="paint1_linear" x1="77.9991" y1="87.9998" x2="116" y2="87.9998" gradientUnits="userSpaceOnUse">
<stop stop-color="#D9D9D9"/>
<stop offset="1" stop-color="#E2E2E2"/>
</linearGradient>
</defs>
</svg>
