<svg width="400" height="160" viewBox="0 0 400 160" fill="none" xmlns="http://www.w3.org/2000/svg">
<path d="M41 51.1521H52.0633V75.7316H75.3966V51.1521H86.4742V111.487H75.3966V86.3915H52.0633V111.487H41V51.1521ZM121.523 91.8352C121.523 96.886 117.408 100.996 112.358 100.996C107.307 100.996 103.194 96.886 103.194 91.8352V65.8588H92.7024V91.8352C92.7024 102.672 101.521 111.487 112.358 111.487C123.194 111.487 132.011 102.672 132.011 91.8352V65.8588H121.523V91.8352ZM161.3 66.1631C156.096 66.1631 152.463 67.6734 148.955 71.1172V51.1521H138.429V88.1528C138.429 102.002 148.442 111.487 159.692 111.487C172.199 111.487 183.157 101.833 183.157 88.8258C183.157 75.9833 173.052 66.1631 161.3 66.1631ZM161.562 101.75C154.43 101.75 148.975 95.7928 148.975 88.8258C148.975 81.8576 154.43 75.899 161.562 75.899C167.606 75.899 173.063 81.8576 173.063 88.8258C173.063 95.7928 167.606 101.75 161.562 101.75ZM200.836 68.8149C200.836 63.5237 204.361 61.8461 208.221 61.8461C211.328 61.8461 215.44 64.1961 218.124 67.0505L225.004 58.9935C221.566 54.3778 214.601 51.1874 208.893 51.1874C197.477 51.1874 189.251 57.8185 189.251 68.8149C189.251 89.2101 214.348 82.7451 214.348 94.1629C214.348 97.6842 210.908 100.793 206.966 100.793C200.752 100.793 198.737 97.7709 195.884 94.5806L188.245 102.469C193.116 108.429 199.157 111.452 206.376 111.452C217.203 111.452 225.932 104.737 225.932 94.2441C225.932 71.5832 200.836 78.6344 200.836 68.8149ZM253.643 65.5719C242.394 65.5719 232.379 75.0512 232.379 88.9039V126H242.905V105.94C246.414 109.381 250.044 110.894 255.251 110.894C267.002 110.894 277.108 101.075 277.108 88.2327C277.108 75.2235 266.147 65.5719 253.643 65.5719ZM255.513 101.16C248.381 101.16 242.926 95.1947 242.926 88.2327C242.926 81.2646 248.381 75.3059 255.513 75.3059C261.555 75.3059 267.013 81.2646 267.013 88.2327C267.013 95.1947 261.555 101.16 255.513 101.16ZM354.587 101.75C348.378 101.75 346.616 99.0649 346.616 94.9506V76.7381H356.266V67.5067H346.616V55.3352L335.959 60.1183V97.2169C335.959 106.702 342.504 111.487 351.481 111.487C352.823 111.487 354.672 111.401 355.68 111.152L358.283 101.585C357.108 101.666 355.765 101.75 354.587 101.75Z" fill="#45535E"/>
<path d="M326.828 77.2748C324.811 73.8031 321.972 71.0199 318.424 68.9246C315.772 67.3809 313.022 66.4011 309.924 65.9803V54.9492C313.022 53.6335 314.945 50.7214 314.945 47.3241C314.945 42.6935 311.232 38.9411 306.605 38.9411C301.974 38.9411 298.196 42.6935 298.196 47.3241C298.196 50.7214 300.008 53.6335 303.107 54.9492V65.9853C300.628 66.3435 298.057 67.1163 295.71 68.3037C290.915 64.6621 275.192 52.7157 265.995 45.7382C266.213 44.9518 266.381 44.1412 266.381 43.286C266.381 38.1571 262.228 34 257.097 34C251.966 34 247.815 38.1571 247.815 43.286C247.815 48.4142 251.971 52.5725 257.101 52.5725C258.851 52.5725 260.47 52.0607 261.867 51.2191L263.808 52.6915L290.478 71.908C289.069 73.2026 287.755 74.6751 286.705 76.3272C284.576 79.6954 283.275 83.4014 283.275 87.4439V88.2873C283.275 91.125 283.815 93.8041 284.733 96.3208C285.542 98.5184 286.724 100.516 288.189 102.323L279.337 111.196C278.054 110.719 276.661 110.621 275.324 110.914C273.987 111.207 272.763 111.879 271.797 112.85C271.129 113.515 270.599 114.306 270.239 115.177C269.879 116.048 269.695 116.982 269.698 117.925C269.698 119.842 270.445 121.643 271.801 122.999C272.466 123.668 273.257 124.198 274.128 124.559C274.999 124.92 275.933 125.105 276.875 125.102C277.819 125.105 278.753 124.92 279.624 124.559C280.496 124.198 281.287 123.668 281.952 122.999C282.62 122.334 283.149 121.543 283.51 120.672C283.87 119.801 284.055 118.868 284.053 117.925C284.053 117.183 283.938 116.459 283.722 115.772L292.871 106.621C294.126 107.488 295.48 108.217 296.937 108.846C299.809 110.088 302.98 110.845 306.449 110.845H307.085C310.921 110.845 314.54 109.944 317.942 108.101C321.526 106.153 324.332 103.489 326.451 100.089C328.582 96.679 329.755 92.9117 329.755 88.767V88.56C329.755 84.4828 328.811 80.7211 326.828 77.2748ZM315.65 96.4696C313.167 99.2292 310.312 100.929 307.085 100.929H306.554C304.71 100.929 302.908 100.42 301.143 99.4932C299.153 98.4731 297.641 97.018 296.404 95.1756C295.125 93.3672 294.43 91.3928 294.43 89.2993V88.6635C294.43 86.6054 294.825 84.6539 295.82 82.8108C296.885 80.7961 298.322 79.2294 300.233 77.9838C302.109 76.7468 304.114 76.1401 306.346 76.1401H306.554C308.578 76.1401 310.494 76.5392 312.302 77.4644C314.145 78.451 315.65 79.7989 316.817 81.572C317.95 83.3456 318.625 85.2587 318.841 87.3429C318.876 87.776 318.893 88.2198 318.893 88.6437C318.893 91.4721 317.812 94.0917 315.65 96.4696Z" fill="#F8761F"/>
</svg>
