<svg width="400" height="160" viewBox="0 0 400 160" fill="none" xmlns="http://www.w3.org/2000/svg">
<path d="M380.392 95.0173C380.392 92.3439 378.845 90.8845 377.426 90.8845C374.076 90.8845 374.203 96.5982 366.985 102.436C365.959 95.5091 365.399 88.5213 365.309 81.5195C365.309 68.9941 368.146 59.7519 368.146 55.7378C368.198 55.1264 368.123 54.5109 367.927 53.9294C367.731 53.3479 367.418 52.8127 367.007 52.3569C366.597 51.9011 366.097 51.5343 365.539 51.2793C364.981 51.0242 364.376 50.8862 363.763 50.8739C361.205 51.2623 358.767 52.2172 356.626 53.6687C354.485 55.1202 352.695 57.0317 351.388 59.2636C349.327 63.1563 348.036 79.9386 348.036 89.5463C348.036 93.5578 347.133 97.9362 343.652 97.9362C340.174 97.9362 338.625 94.0461 338.625 81.5194C338.625 68.9941 341.591 59.7518 341.591 55.7378C341.627 55.1085 341.533 54.4786 341.315 53.8871C341.097 53.2957 340.76 52.7553 340.325 52.2993C339.889 51.8433 339.365 51.4816 338.785 51.2364C338.204 50.9912 337.579 50.8678 336.949 50.8739C334.397 51.2789 331.966 52.2405 329.828 53.6904C327.69 55.1404 325.897 57.0431 324.577 59.2637C322.771 63.1564 321.481 79.9387 321.481 89.5465C321.494 91.2628 321.605 92.977 321.813 94.6807C321.829 94.8199 321.842 94.9311 321.856 95.0431C322.042 96.7823 320.28 97.9363 318.776 97.9363C315.812 97.9363 314.392 94.0462 314.392 81.5195C314.392 68.9942 321.869 23.8781 321.869 19.864C321.894 19.2373 321.793 18.612 321.572 18.0252C321.351 17.4384 321.013 16.9021 320.581 16.4483C320.148 15.9944 319.628 15.6324 319.052 15.3836C318.476 15.1348 317.857 15.0044 317.229 15.0001C314.687 15.388 312.261 16.3296 310.123 17.7583C307.984 19.1871 306.186 21.0682 304.854 23.2685C302.92 27.2826 297.248 79.9387 297.248 89.5465C297.248 90.1302 297.266 90.7058 297.29 91.2782C297.105 93.2013 296.175 94.9755 294.697 96.2202C293.22 97.4649 291.313 98.081 289.387 97.9363C286.164 97.9363 283.586 94.0462 283.586 81.5195C283.586 76.4102 284.618 66.9251 285.776 57.44C291.062 56.5902 294.414 55.6164 296.605 53.5499C298.486 50.6776 299.595 47.3692 299.827 43.9435C299.827 42.7268 299.442 41.2674 298.022 41.2674C295.187 41.2674 291.062 43.6981 287.452 44.6719C288.613 36.6463 289.516 30.2015 289.516 28.6206C289.551 27.9913 289.457 27.3615 289.239 26.77C289.021 26.1786 288.684 25.6381 288.249 25.1822C287.814 24.7262 287.29 24.3644 286.709 24.1193C286.129 23.8741 285.504 23.7507 284.873 23.7567C282.337 24.1605 279.917 25.1086 277.782 26.5359C275.646 27.9632 273.845 29.8357 272.501 32.0251C271.054 38.0169 270.105 44.1183 269.664 50.2668C265.025 52.0904 261.673 53.9141 261.673 55.2521C261.673 58.171 265.025 58.778 268.762 58.8994C267.345 71.6675 266.442 84.9253 266.442 89.6678C266.442 89.8644 266.456 90.0559 266.459 90.2513C266.459 90.2781 266.446 90.2857 266.447 90.3139C266.587 94.4816 266.434 97.9362 263.734 97.9362C261.414 97.9362 259.221 95.1387 259.221 86.5061C259.221 78.722 260.641 72.6414 260.641 66.318C260.641 58.0496 258.448 50.8738 248.522 50.8738C245.516 51.066 242.594 51.9442 239.98 53.4411C237.366 54.9379 235.129 57.0137 233.442 59.509C235.247 42.484 238.47 22.4186 238.47 19.8639C238.51 19.2547 238.428 18.6435 238.229 18.0665C238.029 17.4896 237.715 16.9586 237.306 16.5051C236.898 16.0515 236.402 15.6846 235.849 15.4261C235.296 15.1675 234.696 15.0227 234.086 15C231.544 15.3879 229.118 16.3295 226.979 17.7583C224.841 19.187 223.042 21.0681 221.711 23.2684C219.702 27.1757 215.255 77.1583 215.019 96.5271C215.028 100.401 212.925 101.138 210.753 102.436C209.694 95.513 209.134 88.5228 209.078 81.5195C209.078 68.9942 212.173 59.7519 212.173 55.7379C212.198 55.1111 212.097 54.4856 211.875 53.8988C211.654 53.3119 211.316 52.7756 210.883 52.3218C210.45 51.868 209.93 51.506 209.354 51.2572C208.778 51.0085 208.158 50.8782 207.531 50.874C204.037 51.3448 200.785 52.9216 198.251 55.3736C197.091 53.0617 194.512 50.874 188.325 50.874C178.528 50.874 163.703 59.3878 163.703 84.5612C163.704 88.1758 164.209 91.7726 165.202 95.2481C164.369 96.6904 163.389 97.9364 161.657 97.9364C158.693 97.9364 157.275 94.0463 157.275 81.5196C157.275 68.9943 160.24 59.752 160.24 55.738C160.275 55.1088 160.181 54.479 159.963 53.8876C159.745 53.2963 159.409 52.7559 158.974 52.2999C158.539 51.844 158.015 51.4822 157.434 51.2369C156.853 50.9917 156.229 50.8682 155.599 50.8741C153.067 51.2889 150.658 52.2555 148.542 53.7053C146.426 55.1552 144.654 57.0527 143.353 59.2636C141.419 63.1563 140.129 79.9386 140.129 89.6677C140.129 100.855 144.254 109.855 156.372 109.855C158.855 109.882 161.308 109.305 163.518 108.174C165.728 107.042 167.631 105.39 169.06 103.36C170.457 105.394 172.334 107.051 174.526 108.184C176.717 109.317 179.155 109.891 181.621 109.855C186.388 109.852 190.984 108.075 194.512 104.869C194.899 106.45 195.415 108.274 195.672 109.976C180.848 115.204 166.024 118.854 166.024 130.891C166.024 137.581 172.211 145 186.133 145C209.207 145 213.076 130.406 213.076 122.744C212.929 118.747 212.497 114.765 211.785 110.828C213.242 109.983 214.645 109.05 215.988 108.035C216.138 108.551 216.449 109.006 216.876 109.333C217.302 109.66 217.822 109.843 218.359 109.855C230.476 109.855 232.795 104.626 232.795 101.341C232.795 96.8437 232.669 94.5318 232.669 92.3439C232.669 80.6671 233.698 62.9136 241.563 62.9136C243.882 62.9136 244.526 65.1015 244.526 68.3845C244.526 74.2223 242.336 83.4659 242.336 89.6679C242.336 100.855 246.59 109.855 258.448 109.855C260.802 109.898 263.134 109.4 265.264 108.397C267.395 107.395 269.266 105.916 270.733 104.075C272.377 106.022 274.454 107.559 276.797 108.563C279.14 109.566 281.685 110.008 284.23 109.855C287.277 109.81 290.265 108.995 292.913 107.486C295.562 105.977 297.786 103.823 299.378 101.224C300.532 103.959 302.514 106.263 305.046 107.811C307.578 109.359 310.532 110.074 313.492 109.855C315.766 109.884 318.018 109.397 320.077 108.432C322.136 107.467 323.951 106.049 325.384 104.283C326.827 106.151 328.708 107.636 330.86 108.607C333.011 109.579 335.369 110.007 337.725 109.855C340.211 109.9 342.669 109.323 344.875 108.177C347.081 107.03 348.965 105.349 350.356 103.288L351.902 109.976C337.078 115.204 322.254 118.854 322.254 130.891C322.254 137.581 328.443 145 342.364 145C365.438 145 369.305 130.406 369.305 122.744C369.159 118.747 368.728 114.765 368.017 110.828C378.457 104.748 380.392 98.4244 380.392 95.0173ZM194.316 83.2967C194.104 86.3209 193.168 89.2498 191.587 91.8365C190.873 92.9826 189.911 93.9532 188.77 94.6761C187.63 95.399 186.342 95.8555 185.001 96.0118C182.963 96.228 177.569 96.3577 177.569 81.3104C177.418 78.016 178.069 74.7342 179.466 71.747C180.863 68.7597 182.965 66.1563 185.59 64.1606L185.587 64.1523C197.446 56.6395 194.9 77.7728 194.316 83.2967ZM188.582 134.662C187.692 134.721 186.8 134.593 185.963 134.287C185.125 133.981 184.361 133.504 183.718 132.886C183.075 132.269 182.568 131.523 182.229 130.699C181.891 129.874 181.728 128.988 181.751 128.096C181.751 123.475 189.871 120.068 197.091 117.394C197.431 119.567 197.603 121.762 197.605 123.961C197.605 129.067 194.126 134.662 188.582 134.662ZM344.814 134.662C343.924 134.721 343.032 134.593 342.194 134.287C341.356 133.982 340.592 133.505 339.949 132.887C339.306 132.269 338.799 131.524 338.46 130.699C338.121 129.874 337.958 128.988 337.981 128.096C337.981 123.475 346.102 120.068 353.322 117.394C353.662 119.567 353.834 121.762 353.837 123.961C353.837 129.067 350.356 134.662 344.814 134.662ZM153.767 47.4105C150.046 47.4105 146.327 45.9863 146.327 37.4924C146.327 29.9687 153.902 26.4528 158.383 26.4528C162.496 26.4528 166.085 28.2716 166.085 33.0009C166.334 36.5388 165.182 40.0329 162.878 42.7288C160.573 45.4247 157.301 47.1063 153.767 47.4105ZM25.1286 37.4897C25.1286 29.966 32.7036 26.4501 37.1951 26.4501C41.3056 26.4501 44.8972 28.2689 44.8972 32.9982C45.1448 36.5365 43.9916 40.0303 41.6863 42.726C39.3811 45.4217 36.1086 47.1032 32.5747 47.4078C28.8541 47.4074 25.1286 45.9823 25.1286 37.4897ZM137.5 94.7722C137.5 105.57 128.569 110.912 115.613 110.912C109.773 110.993 104.058 109.217 99.2928 105.841C96.4028 108.493 92.6026 109.93 88.681 109.855C78.3818 109.855 72.7177 103.176 72.7177 92.2452C72.7177 86.0512 74.6484 77.6683 74.6484 72.2044C74.6484 69.0469 73.8761 66.8592 71.6871 66.8592C66.5383 66.8592 62.0325 81.9198 62.0325 101.352C62.0325 104.633 59.7143 109.855 47.6137 109.855C45.896 109.855 45.1009 108.65 44.8029 106.595C42.0883 108.753 38.7102 109.905 35.2426 109.855C23.125 109.855 19 100.855 19 89.6678C19 79.9386 20.2892 63.1563 22.2237 59.2636C23.5247 57.0527 25.2961 55.1551 27.4123 53.7052C29.5286 52.2553 31.9378 51.2887 34.4693 50.8738C35.0995 50.8679 35.7242 50.9914 36.3047 51.2366C36.8852 51.4819 37.4092 51.8437 37.8442 52.2996C38.2793 52.7556 38.6161 53.296 38.8339 53.8873C39.0516 54.4787 39.1457 55.1085 39.1102 55.7377C39.1102 59.7518 36.1452 68.9941 36.1452 81.5193C36.1452 94.046 37.5637 97.9361 40.5274 97.9361C41.6375 98.0874 42.763 97.8035 43.6685 97.1439C44.574 96.4843 45.1894 95.5 45.3858 94.3971C45.6995 91.2057 46.0086 87.7834 46.0678 84.3512C46.197 64.4317 46.5831 62.244 47.3554 59.4528C48.5138 53.7438 57.7836 49.8561 61.9033 49.8561C62.4901 49.781 63.0862 49.8435 63.6446 50.0387C64.2031 50.2339 64.7084 50.5563 65.1206 50.9806C65.5328 51.4048 65.8406 51.9192 66.0197 52.483C66.1987 53.0468 66.2441 53.6445 66.1522 54.2288C66.1522 56.7803 64.3493 60.3015 63.577 65.2804C66.5383 58.9653 74.2622 50.9499 81.3431 50.9499C89.324 50.9499 91.3839 56.659 91.3839 63.8229C91.3839 71.4745 89.324 79.126 89.324 87.5089C89.324 94.861 90.7909 97.5448 93.3827 97.883C93.2044 97.2165 93.1084 96.5308 93.0967 95.841C93.0967 88.8387 100.77 83.142 104.167 83.142C106.556 83.142 107.311 85.1611 107.562 88.4833C107.6 88.9917 107.664 89.5305 107.743 90.0805C108.463 95.0501 110.97 101.298 116.746 101.298C117.449 101.4 118.167 101.347 118.847 101.141C119.527 100.935 120.154 100.581 120.682 100.105C121.211 99.6296 121.628 99.0433 121.904 98.3882C122.18 97.7331 122.309 97.0251 122.28 96.3148C122.019 93.6332 120.779 91.142 118.796 89.3178C114.342 85.0962 109.614 81.1737 104.642 77.5761C102.54 76.1087 100.814 74.1667 99.6032 71.9077C98.3924 69.6486 97.7309 67.136 97.6724 64.5736C97.6613 62.4692 98.1241 60.3892 99.0266 58.4881C101.8 52.7885 108.65 50 117.622 50.0785C120.436 50.0965 123.229 50.5599 125.898 51.4515C129.928 52.6928 133.463 55.1742 136 58.5423C137.173 60.1087 137.834 61.9985 137.894 63.9543C137.628 66.6869 136.506 69.2657 134.688 71.3227C132.87 73.3796 130.448 74.8094 127.768 75.4082C125.604 75.3892 124.937 73.5482 124.735 70.5268C124.656 69.3646 124.482 68.2109 124.216 67.0769C123.27 63.034 121 58.8462 116.52 58.807C115.882 58.7094 115.231 58.7535 114.613 58.9362C113.994 59.1188 113.423 59.4355 112.941 59.8637C112.459 60.2919 112.077 60.8211 111.822 61.4137C111.568 62.0062 111.447 62.6476 111.468 63.2922C111.568 64.9139 112.137 66.4717 113.107 67.7753C115.012 70.5855 117.446 72.9977 120.274 74.8772C127.866 80.0402 137.5 85.3815 137.5 94.7722V94.7722Z" fill="#FF5621"/>
</svg>
