<svg width="400" height="160" viewBox="0 0 400 160" fill="none" xmlns="http://www.w3.org/2000/svg">
<g clip-path="url(#clip0)">
<path d="M74.8922 60.0771H80.3199V87.627C80.3199 94.9259 77.1263 99.963 69.6426 99.963C67.4294 99.9964 65.2271 99.6486 63.132 98.935V93.6579C64.9191 94.3509 66.8213 94.6997 68.738 94.6859C73.3228 94.6859 74.9059 91.9447 74.9059 87.9903L74.8922 60.0771Z" fill="#253858"/>
<path d="M90.2093 57.9593C90.6934 57.9247 91.1792 57.9945 91.6339 58.1641C92.0887 58.3337 92.5017 58.5991 92.8448 58.9423C93.1879 59.2854 93.4534 59.6984 93.6231 60.1531C93.7926 60.6078 93.8625 61.0937 93.8277 61.5778C93.8277 62.5375 93.4466 63.4579 92.7679 64.1365C92.0893 64.815 91.1689 65.1964 90.2093 65.1964C89.2497 65.1964 88.3293 64.815 87.6506 64.1365C86.972 63.4579 86.5908 62.5375 86.5908 61.5778C86.5561 61.0937 86.626 60.6078 86.7955 60.1531C86.9652 59.6984 87.2306 59.2854 87.5737 58.9423C87.9168 58.5991 88.3299 58.3337 88.7846 58.1641C89.2394 57.9945 89.7252 57.9247 90.2093 57.9593ZM87.557 69.5412H92.745V99.6954H87.557V69.5412Z" fill="#253858"/>
<path d="M100.578 69.5347H105.643V74.8391C107.39 71.2822 110.44 68.7465 116.32 69.1098V74.1743C109.686 73.489 105.643 75.5038 105.643 81.891V99.7094H100.578V69.5347Z" fill="#253858"/>
<path d="M140.622 94.2607C138.689 98.2424 135.071 100.292 130.431 100.292C122.413 100.292 118.369 93.4795 118.369 84.6113C118.369 76.1065 122.591 68.9312 131.034 68.9312C135.434 68.9312 138.812 70.9185 140.628 74.8387V69.5343H145.816V99.6884H140.628L140.622 94.2607ZM131.815 95.4669C136.462 95.4669 140.622 92.5131 140.622 85.8176V83.3778C140.622 76.6822 136.825 73.7284 132.398 73.7284C126.545 73.7284 123.53 77.5869 123.53 84.584C123.557 91.8484 126.449 95.4669 131.822 95.4669H131.815Z" fill="#253858"/>
<path d="M176.505 100.292C168.843 100.292 165.286 98.7842 162.209 97.2149V91.6706C165.889 93.6032 171.557 94.9875 176.8 94.9875C182.769 94.9875 185.023 92.6368 185.023 89.1349C185.023 85.6329 182.851 83.7689 175.313 81.9595C166.403 79.7871 162.408 76.71 162.408 70.1993C162.408 64.0315 167.109 59.4673 176.341 59.4673C182.07 59.4673 185.75 60.8379 188.464 62.3593V67.7871C184.691 65.7083 180.434 64.6677 176.128 64.7718C170.94 64.7718 167.863 66.5809 167.863 70.1993C167.863 73.4547 170.399 75.0858 177.389 76.8333C185.77 78.9442 190.479 81.6306 190.479 88.7718C190.438 95.6456 186.339 100.292 176.505 100.292Z" fill="#253858"/>
<path d="M195.023 84.5496C195.023 75.5034 200.326 68.9312 209.373 68.9312C218.419 68.9312 223.608 75.5034 223.608 84.5496C223.608 93.596 218.357 100.312 209.373 100.312C200.388 100.312 195.023 93.596 195.023 84.5496ZM200.087 84.5496C200.087 90.2789 202.924 95.4669 209.373 95.4669C215.821 95.4669 218.544 90.2789 218.544 84.5496C218.544 78.8203 215.767 73.7832 209.373 73.7832C202.979 73.7832 200.115 78.8203 200.115 84.5496H200.087Z" fill="#253858"/>
<path d="M236.814 69.5347H244.592V74.332H236.814V99.6888H231.75V74.332H226.843V69.5347H231.728V66.2452C231.728 60.6392 234.868 56.8356 241.322 56.8356C242.505 56.829 243.682 56.9906 244.818 57.3154V62.1126C243.746 61.9086 242.654 61.8076 241.563 61.8111C238.369 61.8111 236.765 63.682 236.765 66.3958L236.814 69.5347Z" fill="#253858"/>
<path d="M262.144 94.6239C263.239 94.5911 264.33 94.4488 265.398 94.1989V99.2018C264.262 99.527 263.086 99.6886 261.903 99.6816C255.447 99.6816 252.309 95.8849 252.309 90.2721V74.3589H247.402V69.5616H252.288V63.1401H257.354V69.5342H265.371V74.3315H257.354V90.1624C257.381 92.8146 258.95 94.6239 262.144 94.6239Z" fill="#253858"/>
<path d="M266.851 69.5342H272.581L281.264 95.1035L290.062 69.5342H295.012L303.818 95.1035L312.507 69.5342H318.237L307.142 99.6884H300.507L295.32 85.0979L292.579 75.8117L289.837 85.0979L284.581 99.6884H277.946L266.851 69.5342Z" fill="#253858"/>
<path d="M341.928 94.2607C339.996 98.2424 336.377 100.292 331.738 100.292C323.719 100.292 319.676 93.4795 319.676 84.6113C319.676 76.1065 323.897 68.9312 332.34 68.9312C336.74 68.9312 340.119 70.9185 341.936 74.8387V69.5343H347.122V99.6884H341.936L341.928 94.2607ZM333.122 95.4669C337.769 95.4669 341.928 92.5131 341.928 85.8176V83.3778C341.928 76.6822 338.132 73.7284 333.705 73.7284C327.88 73.7832 324.843 77.6143 324.843 84.6113C324.843 91.8484 327.755 95.4669 333.128 95.4669H333.122Z" fill="#253858"/>
<path d="M354.955 69.5347H360.021V74.8391C361.769 71.2822 364.818 68.7465 370.699 69.1098V74.1743C364.064 73.489 360.021 75.5038 360.021 81.891V99.7094H354.955V69.5347Z" fill="#253858"/>
<path d="M388.969 100.292C377.689 100.292 372.748 93.7816 372.748 84.5296C372.748 75.4218 377.812 68.9111 386.981 68.9111C396.268 68.9111 400.002 75.3669 400.002 84.5296V86.8803H377.996C378.722 92.0065 382.041 95.3236 389.154 95.3236C392.282 95.3207 395.387 94.7686 398.324 93.6925V98.4898C395.849 99.8261 392.047 100.292 388.969 100.292ZM377.936 82.4737H394.746C394.445 76.8678 391.909 73.6673 386.728 73.6673C381.253 73.6399 378.476 77.2104 377.936 82.4395V82.4737Z" fill="#253858"/>
<path d="M49.6175 78.4163L27.276 56.0748L25.1103 53.9092L8.29254 70.727L0.603228 78.4163C0.218212 78.8017 0.00195312 79.3245 0.00195313 79.8691C0.00195312 80.414 0.218212 80.9367 0.603228 81.3221L15.9682 96.687L25.1103 105.829L41.9282 89.0115L42.1886 88.7511L49.6175 81.3221C50.0026 80.9367 50.2187 80.414 50.2187 79.8691C50.2187 79.3245 50.0026 78.8017 49.6175 78.4163ZM25.1103 87.5449L17.4348 79.8691L25.1103 72.1936L32.7861 79.8691L25.1103 87.5449Z" fill="#2684FF"/>
<path d="M25.1104 72.1934C22.6962 69.7791 21.3354 66.5076 21.3251 63.0934C21.3148 59.6792 22.656 56.3996 25.0554 53.9707L8.25818 70.7612L17.4004 79.9033L25.1104 72.1934Z" fill="url(#paint0_linear)"/>
<path d="M32.8066 79.8486L25.1105 87.5448C26.3114 88.7449 27.2643 90.1702 27.9142 91.7389C28.5643 93.3075 28.8988 94.9888 28.8988 96.6869C28.8988 98.3849 28.5643 100.066 27.9142 101.635C27.2643 103.204 26.3114 104.629 25.1105 105.829L41.9487 88.9908L32.8066 79.8486Z" fill="url(#paint1_linear)"/>
</g>
<defs>
<linearGradient id="paint0_linear" x1="23.7397" y1="64.4288" x2="13.0212" y2="75.1472" gradientUnits="userSpaceOnUse">
<stop offset="0.18" stop-color="#0052CC"/>
<stop offset="1" stop-color="#2684FF"/>
</linearGradient>
<linearGradient id="paint1_linear" x1="678.103" y1="1645.96" x2="1048.3" y2="1406.03" gradientUnits="userSpaceOnUse">
<stop offset="0.18" stop-color="#0052CC"/>
<stop offset="1" stop-color="#2684FF"/>
</linearGradient>
<clipPath id="clip0">
<path d="M0 0H400V160H0V0Z" fill="white"/>
</clipPath>
</defs>
</svg>
