<svg width="400" height="160" viewBox="0 0 400 160" fill="none" xmlns="http://www.w3.org/2000/svg">
<path fill-rule="evenodd" clip-rule="evenodd" d="M124.488 50.4571C124.488 50.025 124.704 49.8076 125.132 49.8076H134.588C135.016 49.8076 135.23 50.025 135.23 50.4571V80.5239H138.447C138.985 80.5239 139.415 80.2985 139.737 79.8545L150.301 65.407C150.433 65.2347 150.608 65.1445 150.823 65.1445H162.534C162.799 65.1445 162.994 65.2599 163.114 65.4892C163.233 65.733 163.215 65.9623 163.055 66.1784L149.19 85.1484L163.839 105.212C163.998 105.431 164.019 105.653 163.9 105.884C163.781 106.126 163.593 106.248 163.337 106.248H153.458C152.009 106.248 150.856 105.66 149.999 104.486L139.395 89.9585C139.072 89.5251 138.643 89.309 138.107 89.309H135.23V105.599C135.23 106.032 135.014 106.248 134.586 106.248H125.133C124.704 106.248 124.488 106.032 124.488 105.599V50.4571ZM204.868 65.1459H206.235C206.665 65.1459 206.88 65.3619 206.88 65.7953V105.599C206.88 106.032 206.665 106.248 206.235 106.248H204.868C202.092 106.248 199.831 105.152 198.088 102.961C194.708 106.072 190.599 107.627 185.756 107.627C179.759 107.627 174.635 105.484 170.383 101.198C166.131 96.9092 164.005 91.7426 164.005 85.6972C164.005 79.6398 166.131 74.4652 170.383 70.176C174.635 65.904 179.759 63.7674 185.756 63.7674C190.598 63.7674 194.708 65.3208 198.089 68.433C199.833 66.242 202.095 65.1459 204.87 65.1459H204.868ZM177.967 77.8464C180.115 75.682 182.71 74.5991 185.756 74.5991C188.799 74.5991 191.396 75.682 193.541 77.8464C195.689 79.9963 196.762 82.6128 196.762 85.6972C196.762 88.7669 195.689 91.3834 193.541 93.5479C191.394 95.7123 188.799 96.7952 185.756 96.7952C182.71 96.7952 180.115 95.7123 177.969 93.5479C175.824 91.3847 174.752 88.7669 174.752 85.6972C174.752 82.6128 175.825 79.9977 177.97 77.8464H177.967ZM233.61 117.69C232.632 119.907 231.023 121.463 228.783 122.355C226.53 123.236 224.303 123.188 222.103 122.214L220.835 121.666C220.446 121.491 220.338 121.2 220.513 120.794L227.453 104.869L210.554 66.0618C210.458 65.8444 210.472 65.6336 210.594 65.4322C210.726 65.2426 210.908 65.1472 211.137 65.1472H219.405C221.042 65.1472 222.189 65.8987 222.846 67.4005L233.308 91.4404L244.596 65.5329C244.702 65.2744 244.897 65.1459 245.179 65.1459H255.478C255.707 65.1459 255.889 65.2413 256.021 65.4308C256.144 65.6323 256.156 65.8417 256.064 66.0604L233.61 117.69ZM296.273 65.1459H297.642C298.07 65.1459 298.283 65.3619 298.283 65.7953V105.599C298.283 106.032 298.071 106.248 297.641 106.248H296.27C293.495 106.248 291.233 105.152 289.49 102.961C286.11 106.072 282.002 107.627 277.158 107.627C271.162 107.627 266.038 105.484 261.786 101.198C257.535 96.9092 255.407 91.7426 255.407 85.6972C255.407 79.6398 257.535 74.4652 261.786 70.176C266.038 65.904 271.162 63.7674 277.158 63.7674C282 63.7674 286.11 65.3208 289.492 68.433C291.236 66.242 293.497 65.1459 296.273 65.1459ZM269.372 77.8464C271.52 75.682 274.115 74.5991 277.161 74.5991C280.204 74.5991 282.799 75.682 284.948 77.8464C287.095 79.9963 288.169 82.6128 288.169 85.6972C288.169 88.7669 287.095 91.3834 284.948 93.5479C282.801 95.7123 280.205 96.7952 277.162 96.7952C274.116 96.7952 271.521 95.7123 269.375 93.5479C267.231 91.3847 266.158 88.7669 266.158 85.6972C266.158 82.6128 267.232 79.9977 269.376 77.8464H269.372ZM306.984 50.4571C306.984 50.025 307.2 49.8076 307.628 49.8076H317.085C317.513 49.8076 317.728 50.025 317.728 50.4571V80.5239H320.946C321.486 80.5239 321.914 80.2985 322.237 79.8545L332.801 65.407C332.934 65.2347 333.109 65.1445 333.322 65.1445H345.034C345.302 65.1445 345.495 65.2599 345.617 65.4892C345.736 65.733 345.716 65.9623 345.556 66.1784L331.692 85.1484L346.339 105.212C346.499 105.431 346.518 105.653 346.399 105.884C346.277 106.126 346.09 106.248 345.834 106.248H335.954C334.506 106.248 333.353 105.66 332.495 104.486L321.891 89.9585C321.568 89.5251 321.14 89.309 320.606 89.309H317.725V105.599C317.725 106.032 317.511 106.248 317.083 106.248H307.625C307.197 106.248 306.981 106.032 306.981 105.599V50.4571H306.984ZM383.622 70.1773C387.877 74.4652 390 79.6385 390 85.6985C390 91.7426 387.874 96.9092 383.622 101.197C379.367 105.485 374.246 107.63 368.249 107.63C362.254 107.63 357.129 105.485 352.878 101.198C348.626 96.9119 346.5 91.7452 346.5 85.6998C346.5 79.6424 348.627 74.4678 352.879 70.1786C357.131 65.9067 362.256 63.77 368.251 63.77C374.247 63.77 379.371 65.9067 383.623 70.18L383.622 70.1773ZM360.466 77.8464C358.319 79.9963 357.245 82.6128 357.245 85.6972C357.245 88.7669 358.319 91.3834 360.466 93.5479C362.611 95.7123 365.205 96.7952 368.251 96.7952C371.295 96.7952 373.89 95.7123 376.038 93.5479C378.185 91.3847 379.259 88.7669 379.259 85.6972C379.259 82.6128 378.185 79.9977 376.038 77.8464C373.89 75.682 371.295 74.5991 368.251 74.5991C365.205 74.5991 362.611 75.682 360.465 77.8464H360.466Z" fill="#40364D"/>
<path fill-rule="evenodd" clip-rule="evenodd" d="M10 106.272C10.1657 106.206 11.1863 106.816 11.1863 106.816L33.4766 95.2417C33.4766 95.2417 33.6356 94.3006 33.9299 94.1151C33.6303 93.7519 34.2308 93.4855 33.9299 93.1263C30.3273 88.853 26.3085 84.3994 22.2764 80.5384C22.1545 80.4191 21.3088 80.6046 21.1856 80.4854C20.947 80.7147 19.9595 80.5384 19.9595 80.5384L10.6336 88.845C10.6336 88.845 10.2439 89.9677 10 90.1599V106.272Z" fill="#FA8176"/>
<path fill-rule="evenodd" clip-rule="evenodd" d="M81.6922 122.723C84.4002 122.723 85.4009 120.805 84.4002 119.083C75.9119 104.487 65.0524 91.4734 52.377 80.5384C51.9051 80.4854 50.9124 80.4854 50.9124 80.4854L33.9305 93.125C33.9305 93.125 33.8735 93.6817 33.9305 94.1124C34.0763 94.2914 33.8735 95.0734 33.8735 95.0734L51.7938 122.501C51.7938 122.501 52.2126 122.451 52.3505 122.723H81.6909H81.6922Z" fill="#F37036"/>
<path fill-rule="evenodd" clip-rule="evenodd" d="M10 119.203C10 121.284 11.2154 122.722 13.2805 122.722H52.3512C47.1076 112.384 41.2372 102.953 33.9299 94.1123C26.3695 98.8442 18.3782 102.936 10 106.271V119.203Z" fill="#F15713"/>
<path fill-rule="evenodd" clip-rule="evenodd" d="M84.7848 41.3322C85.633 39.8556 84.5462 38 82.8496 38H52.8093C52.6701 38.2757 51.8019 38.6442 51.8019 38.6442L34.0169 65.2383C34.0169 65.2383 34.0567 66.7029 33.8711 66.9256C34.1826 67.1204 34.0169 68.0747 34.0169 68.0747C34.0169 68.0747 45.8003 76.1866 50.9126 80.4864C51.3791 80.88 51.9146 80.1417 52.3759 80.5394C65.2421 69.436 76.2408 56.1959 84.7834 41.3322" fill="#85B8C1"/>
<path fill-rule="evenodd" clip-rule="evenodd" d="M10 70.8162C11.8623 75.1969 16.7373 79.547 21.1869 80.4881C21.4361 80.2495 22.0272 80.7797 22.2764 80.5411C26.16 76.7993 29.7573 73.0231 33.238 68.8956C33.5296 68.551 33.5826 67.2786 33.8742 66.9273C28.8613 59.3059 15.5921 54.3354 10 54.8073V70.8149" fill="#F39D90"/>
<path fill-rule="evenodd" clip-rule="evenodd" d="M10 42.105V54.8055C18.357 58.1298 26.3297 62.2096 33.8716 66.9242C41.204 58.0675 47.553 48.3651 52.8098 38H14.0718C11.8225 38 10 39.8371 10 42.1036" fill="#69AAB5"/>
<path fill-rule="evenodd" clip-rule="evenodd" d="M33.9286 94.1127C40.4208 90.0501 46.5948 85.5237 52.3764 80.5373C46.5775 75.5363 40.381 70.9966 33.873 66.9248C29.9178 71.7031 25.6684 76.2189 21.1843 80.4843C25.6909 84.7735 29.9589 89.3119 33.9286 94.1127Z" fill="#FFB1A2"/>
<path fill-rule="evenodd" clip-rule="evenodd" d="M10 90.1615C13.881 87.113 17.6121 83.8881 21.1869 80.4883C17.6121 77.0898 13.881 73.861 10 70.8164V90.1615Z" fill="#F76F6D"/>
</svg>
