<?xml version="1.0" encoding="utf-8"?>
<!-- Generator: Adobe Illustrator 27.2.0, SVG Export Plug-In . SVG Version: 6.00 Build 0)  -->
<svg version="1.1" id="Layer_1" xmlns="http://www.w3.org/2000/svg" xmlns:xlink="http://www.w3.org/1999/xlink" x="0px" y="0px"
	 viewBox="0 0 170 28" style="enable-background:new 0 0 170 28;" xml:space="preserve">
<style type="text/css">
	.st0{fill:#1F80FF;}
	.st1{fill:#4AA147;}
	.st2{fill:#CF2C91;}
	.st3{fill:#F58220;}
	.st4{fill:#414042;}
</style>
<g>
	<ellipse transform="matrix(0.7094 -0.7048 0.7048 0.7094 1.7107 19.7608)" class="st0" cx="24.8" cy="7.8" rx="8.2" ry="4.9"/>
	<ellipse transform="matrix(0.7045 -0.7097 0.7097 0.7045 -8.5977 22.7054)" class="st1" cx="23" cy="21.7" rx="3.7" ry="5.9"/>
	<ellipse transform="matrix(0.7048 -0.7094 0.7094 0.7048 -2.9004 8.6233)" class="st2" cx="8.9" cy="7.8" rx="4.9" ry="8.2"/>
	<ellipse transform="matrix(0.7097 -0.7045 0.7045 0.7097 -12.1462 13.8822)" class="st3" cx="10.8" cy="21.7" rx="5.9" ry="3.7"/>
	<g>
		<path class="st4" d="M56.2,25.3c0,0.9-0.7,1.6-1.7,1.6c-0.5,0-0.9-0.2-1.2-0.5l-6.9-7.5L44,21.2V25c0,1-0.8,1.9-1.9,1.9
			c-1,0-1.9-0.8-1.9-1.9V3.6c0-1,0.8-1.9,1.9-1.9c1,0,1.9,0.8,1.9,1.9v13.3L51.9,9c0.3-0.3,0.8-0.5,1.3-0.5c0.9,0,1.7,0.8,1.7,1.7
			c0,0.5-0.2,0.9-0.5,1.2l-5.6,5.4l7,7.4C56,24.4,56.2,24.9,56.2,25.3L56.2,25.3z"/>
		<path class="st4" d="M59.2,3.2c0-1,0.9-1.9,1.9-1.9S63,2.2,63,3.2s-0.9,1.9-1.9,1.9C60.1,5.1,59.2,4.2,59.2,3.2z M63,10.3v14.8
			c0,1.1-0.8,1.9-1.9,1.9c-1,0-1.9-0.8-1.9-1.9V10.3c0-1.1,0.8-1.9,1.9-1.9C62.1,8.4,63,9.2,63,10.3L63,10.3z"/>
		<path class="st4" d="M79.1,11c0.2,0.3,0.5,0.7,0.5,1.3c0,0.9-0.7,1.4-1.5,1.4c-0.6,0-1.1-0.2-1.6-0.9c-0.7-0.9-1.7-1.5-3.1-1.5
			c-1.8,0-2.8,0.9-2.8,2.1c0,0.9,0.5,1.7,2.4,2.2l2.2,0.6c3,0.8,5.2,2.1,5.2,5.1c0,3.7-3.5,5.5-7.1,5.5c-3.1,0-5.2-1.3-6.1-2.8
			c-0.2-0.2-0.7-0.9-0.7-1.8c0-0.7,0.5-1.5,1.4-1.5c0.8,0,1.2,0.5,1.6,1c0.9,1.5,2.3,2,3.8,2c2,0,3.4-0.8,3.4-2.2
			c0-1.1-0.7-1.8-2.5-2.3l-2.4-0.6c-3.4-0.9-4.9-2.8-4.9-5.2c0-3.3,3-5.2,6.4-5.2C75.8,8.3,78,9.3,79.1,11L79.1,11z"/>
		<path class="st4" d="M95.5,11c0.2,0.3,0.5,0.7,0.5,1.3c0,0.9-0.7,1.4-1.5,1.4c-0.6,0-1.1-0.2-1.6-0.9c-0.7-0.9-1.7-1.5-3.1-1.5
			c-1.8,0-2.8,0.9-2.8,2.1c0,0.9,0.5,1.7,2.4,2.2l2.2,0.6c3,0.8,5.2,2.1,5.2,5.1c0,3.7-3.5,5.5-7.1,5.5c-3.1,0-5.2-1.3-6.1-2.8
			c-0.2-0.2-0.7-0.9-0.7-1.8c0-0.7,0.5-1.5,1.4-1.5c0.8,0,1.2,0.5,1.6,1c0.9,1.5,2.3,2,3.8,2c2,0,3.4-0.8,3.4-2.2
			c0-1.1-0.7-1.8-2.5-2.3l-2.4-0.6c-3.4-0.9-4.9-2.8-4.9-5.2c0-3.3,3-5.2,6.4-5.2C92.2,8.3,94.4,9.3,95.5,11L95.5,11z"/>
		<path class="st4" d="M111.9,3.8c0,0.8-0.6,1.4-1.4,1.4c-0.3,0-0.8-0.1-1.3-0.3c-0.5-0.2-0.9-0.4-1.7-0.4c-2,0-2.6,1.5-2.6,2.9v1.2
			h3.5c0.9,0,1.5,0.6,1.5,1.5s-0.6,1.5-1.5,1.5H105v13.6c0,1-0.8,1.9-1.8,1.9s-1.9-0.8-1.9-1.9V11.5h-1.2c-0.9,0-1.5-0.6-1.5-1.5
			s0.6-1.5,1.5-1.5h1.2V7.2c0-4.8,3.5-5.9,5.8-5.9c1.6,0,2.9,0.4,3.9,1.1C111.6,2.7,112,3.2,111.9,3.8L111.9,3.8z M117.5,3.6v21.5
			c0,1-0.8,1.9-1.9,1.9s-1.9-0.8-1.9-1.9V3.6c0-1,0.8-1.9,1.9-1.9C116.6,1.7,117.5,2.5,117.5,3.6L117.5,3.6z"/>
		<path class="st4" d="M139.5,17.7c0,6.3-5.2,9.3-9.3,9.3c-4,0-9.2-3.1-9.2-9.3s5.2-9.4,9.2-9.4S139.5,11.4,139.5,17.7z M124.7,17.7
			c0,4,2.8,6.1,5.5,6.1s5.6-2.1,5.6-6.1s-2.8-6.1-5.6-6.1C127.5,11.5,124.7,13.7,124.7,17.7z"/>
		<path class="st4" d="M167.9,10.2c0,0.3-0.1,0.5-0.2,0.8l-4.9,14.4c-0.3,0.9-1,1.4-1.8,1.4s-1.4-0.5-1.8-1.4l-4.7-11.6l-4.8,11.6
			c-0.3,0.9-1,1.4-1.8,1.4s-1.4-0.5-1.8-1.4l-5-14.4c-0.1-0.3-0.2-0.6-0.2-0.8c0-1,0.8-1.8,1.8-1.8c0.7,0,1.4,0.4,1.6,1l3.9,11.9
			l4.6-11.8c0.3-0.7,0.9-1.2,1.7-1.2s1.4,0.4,1.7,1.2l4.6,11.8l3.9-11.9c0.2-0.6,0.9-1,1.6-1C167.1,8.4,167.9,9.2,167.9,10.2
			L167.9,10.2z"/>
	</g>
</g>
</svg>
