<?xml version="1.0" encoding="UTF-8"?>
<svg version="1.1" xmlns="http://www.w3.org/2000/svg" width="337" height="137">
<path d="M0 0 C8.12259831 6.67692485 13.13888421 14.55530492 15.94140625 24.6875 C16.00328125 25.698125 16.06515625 26.70875 16.12890625 27.75 C16.22171875 29.03970703 16.22171875 29.03970703 16.31640625 30.35546875 C16.84908247 43.22292865 12.55094912 53.10010283 4.12890625 62.75 C3.13890625 63.41 2.14890625 64.07 1.12890625 64.75 C-18.01109375 45.61 -37.15109375 26.47 -56.87109375 6.75 C-50.09386732 -1.15676417 -50.09386732 -1.15676417 -43.80859375 -4.125 C-42.62136719 -4.69992188 -41.43414062 -5.27484375 -40.2109375 -5.8671875 C-26.53164062 -11.53089639 -11.75431303 -8.41095744 0 0 Z " fill="#5D69D2" transform="translate(70.87109375,36.25)"/>
<path d="M0 0 C2.32600149 1.87476794 3.35855234 3.68190906 4.69140625 6.36328125 C5.03198242 9.59301758 5.03198242 9.59301758 4.984375 13.1953125 C4.96987305 15.13374023 4.96987305 15.13374023 4.95507812 17.11132812 C4.9300161 18.46615195 4.90462131 19.82096966 4.87890625 21.17578125 C4.86384638 22.5501157 4.85016026 23.92446593 4.83789062 25.29882812 C4.80257253 28.65404757 4.75324476 32.00846291 4.69140625 35.36328125 C1.39140625 35.36328125 -1.90859375 35.36328125 -5.30859375 35.36328125 C-5.63859375 34.04328125 -5.96859375 32.72328125 -6.30859375 31.36328125 C-6.92734375 32.02328125 -7.54609375 32.68328125 -8.18359375 33.36328125 C-12.55435585 36.16056899 -16.24470631 36.18838751 -21.30859375 35.36328125 C-24.41608354 34.02793423 -26.75762279 32.46522317 -28.30859375 29.36328125 C-28.58203125 27.15625 -28.58203125 27.15625 -28.68359375 24.55078125 C-28.73257812 23.69871094 -28.7815625 22.84664062 -28.83203125 21.96875 C-28.04876341 18.06994665 -26.45698614 16.74387214 -23.30859375 14.36328125 C-20.41047642 13.3895957 -17.521093 12.94887419 -14.49609375 12.55078125 C-13.70783203 12.43025391 -12.91957031 12.30972656 -12.10742188 12.18554688 C-10.17717368 11.89308503 -8.24316452 11.62563208 -6.30859375 11.36328125 C-6.96859375 9.71328125 -7.62859375 8.06328125 -8.30859375 6.36328125 C-11.18310358 6.11279489 -11.18310358 6.11279489 -14.30859375 6.36328125 C-14.77265625 6.85828125 -15.23671875 7.35328125 -15.71484375 7.86328125 C-17.30859375 9.36328125 -17.30859375 9.36328125 -19.5703125 9.65625 C-20.37082031 9.62144531 -21.17132813 9.58664063 -21.99609375 9.55078125 C-23.20845703 9.51017578 -23.20845703 9.51017578 -24.4453125 9.46875 C-25.06019531 9.43394531 -25.67507813 9.39914063 -26.30859375 9.36328125 C-26.63859375 8.37328125 -26.96859375 7.38328125 -27.30859375 6.36328125 C-25.1604416 2.06697695 -22.96688999 -0.51640724 -18.359375 -2.1640625 C-11.70047818 -3.69877967 -6.0690038 -3.07884744 0 0 Z M-12.30859375 19.30078125 C-13.36046875 19.56181641 -13.36046875 19.56181641 -14.43359375 19.828125 C-16.37629035 20.32022997 -16.37629035 20.32022997 -18.30859375 21.36328125 C-18.55890352 23.77947948 -18.55890352 23.77947948 -18.30859375 26.36328125 C-15.4915118 28.6786572 -15.4915118 28.6786572 -12.30859375 28.17578125 C-8.60246446 27.19878345 -8.60246446 27.19878345 -6.30859375 24.36328125 C-6.05810739 21.23779108 -6.05810739 21.23779108 -6.30859375 18.36328125 C-8.47337458 18.36328125 -10.21120991 18.77257981 -12.30859375 19.30078125 Z " fill="#1C1D1E" transform="translate(290.30859375,56.63671875)"/>
<path d="M0 0 C0.33 1.32 0.66 2.64 1 4 C1.433125 3.525625 1.86625 3.05125 2.3125 2.5625 C5.39988634 -0.29619105 8.86077675 -0.34837727 12.9375 -0.2734375 C16.47142275 0.19507499 18.39570066 1.63796106 21 4 C24.95619661 10.6434245 24.34183439 17.39094396 24.1875 24.9375 C24.16719727 26.82178711 24.16719727 26.82178711 24.14648438 28.74414062 C24.11128591 31.82987279 24.06204305 34.91471024 24 38 C22.35425434 38.02688151 20.70838587 38.04634123 19.0625 38.0625 C18.14597656 38.07410156 17.22945312 38.08570313 16.28515625 38.09765625 C14 38 14 38 13 37 C12.86656519 35.25577625 12.79655641 33.50661274 12.75390625 31.7578125 C12.72103516 30.69175781 12.68816406 29.62570313 12.65429688 28.52734375 C12.59331235 26.2670237 12.5359946 24.00660161 12.48242188 21.74609375 C12.44826172 20.67746094 12.41410156 19.60882813 12.37890625 18.5078125 C12.3538501 17.52441895 12.32879395 16.54102539 12.30297852 15.52783203 C12.1638575 12.75640137 12.1638575 12.75640137 10 10 C6.94974324 9.61060552 4.92097394 9.35435621 2.34057617 11.16333008 C0.4729693 13.72206374 0.56819303 15.61319463 0.48828125 18.76171875 C0.45283203 19.87998047 0.41738281 20.99824219 0.38085938 22.15039062 C0.34702148 23.90125977 0.34702148 23.90125977 0.3125 25.6875 C0.27833984 26.86634766 0.24417969 28.04519531 0.20898438 29.25976562 C0.12642075 32.17308225 0.05729678 35.08609466 0 38 C-1.64574566 38.02688151 -3.29161413 38.04634123 -4.9375 38.0625 C-5.85402344 38.07410156 -6.77054688 38.08570313 -7.71484375 38.09765625 C-10 38 -10 38 -11 37 C-11.10036349 34.68273946 -11.13081533 32.36240084 -11.1328125 30.04296875 C-11.13376923 29.34359695 -11.13472595 28.64422516 -11.13571167 27.92366028 C-11.13639359 26.43990998 -11.13453847 24.95615671 -11.13037109 23.47241211 C-11.1250469 21.20745057 -11.13030315 18.94268951 -11.13671875 16.67773438 C-11.1360575 15.23697873 -11.13477537 13.79622321 -11.1328125 12.35546875 C-11.13168457 11.04215576 -11.13055664 9.72884277 -11.12939453 8.37573242 C-11.02641206 5.68905565 -10.81059863 3.53925858 -10 1 C-6.56484998 0.37542727 -3.50935186 0 0 0 Z " fill="#1B1C1E" transform="translate(192,54)"/>
<path d="M0 0 C4.98714462 2.85380696 7.60545046 5.78738841 9.70703125 11.12890625 C9.70703125 14.42890625 9.70703125 17.72890625 9.70703125 21.12890625 C1.45703125 21.12890625 -6.79296875 21.12890625 -15.29296875 21.12890625 C-13.12630208 26.96223958 -13.12630208 26.96223958 -10.29296875 28.12890625 C-8.75272879 28.19841166 -7.20961887 28.21342982 -5.66796875 28.19140625 C-4.85070312 28.18238281 -4.0334375 28.17335938 -3.19140625 28.1640625 C-2.56492188 28.15246094 -1.9384375 28.14085938 -1.29296875 28.12890625 C-0.96296875 27.13890625 -0.63296875 26.14890625 -0.29296875 25.12890625 C2.67703125 25.12890625 5.64703125 25.12890625 8.70703125 25.12890625 C9.20203125 26.61390625 9.20203125 26.61390625 9.70703125 28.12890625 C8.6328125 29.8828125 8.6328125 29.8828125 7.01953125 31.69140625 C6.50003906 32.29082031 5.98054688 32.89023438 5.4453125 33.5078125 C0.78066608 37.85798838 -3.95389612 37.54849548 -10.08984375 37.4453125 C-15.78074875 36.88316213 -18.76719474 34.7751361 -22.66796875 30.56640625 C-26.3911594 24.98162027 -25.83626363 18.60253258 -25.29296875 12.12890625 C-23.98404308 7.35693722 -22.09760722 4.76933278 -18.23046875 1.69140625 C-12.48900595 -1.36256333 -6.2121432 -2.35997944 0 0 Z M-14.29296875 10.12890625 C-14.62296875 11.44890625 -14.95296875 12.76890625 -15.29296875 14.12890625 C-10.34296875 14.12890625 -5.39296875 14.12890625 -0.29296875 14.12890625 C-0.90709693 10.21465554 -0.90709693 10.21465554 -3.04296875 8.37890625 C-7.46476065 5.92235519 -10.75673115 6.59266865 -14.29296875 10.12890625 Z " fill="#1C1D1E" transform="translate(247.29296875,54.87109375)"/>
<path d="M0 0 C3.63 0 7.26 0 11 0 C11 13.53 11 27.06 11 41 C17.93 41 24.86 41 32 41 C32 43.97 32 46.94 32 50 C21.44 50 10.88 50 0 50 C0 33.5 0 17 0 0 Z " fill="#1C1D1E" transform="translate(125,42)"/>
<path d="M0 0 C0.80308594 -0.02578125 1.60617187 -0.0515625 2.43359375 -0.078125 C3.48740234 0.08429687 3.48740234 0.08429687 4.5625 0.25 C5.2225 1.24 5.8825 2.23 6.5625 3.25 C7.078125 2.755 7.59375 2.26 8.125 1.75 C11.36930017 -0.24649241 13.82467334 0.03435615 17.5625 0.25 C17.5625 3.55 17.5625 6.85 17.5625 10.25 C16.49 10.1675 15.4175 10.085 14.3125 10 C10.60373757 9.90240468 10.60373757 9.90240468 8.36621094 11.91308594 C6.1584205 14.77353126 6.02933775 16.30862575 5.953125 19.890625 C5.92089844 20.96054688 5.88867188 22.03046875 5.85546875 23.1328125 C5.83419922 24.79957031 5.83419922 24.79957031 5.8125 26.5 C5.78285156 27.62664062 5.75320313 28.75328125 5.72265625 29.9140625 C5.6520225 32.69232338 5.60498981 35.4711662 5.5625 38.25 C1.9325 38.25 -1.6975 38.25 -5.4375 38.25 C-5.46214928 32.99894558 -5.48033568 27.74792455 -5.49243164 22.49682617 C-5.49747218 20.70905979 -5.50430454 18.92129755 -5.51293945 17.13354492 C-5.5250173 14.56948832 -5.53073094 12.00548603 -5.53515625 9.44140625 C-5.54031754 8.6372377 -5.54547882 7.83306915 -5.55079651 7.00453186 C-5.55099215 5.08598285 -5.49951983 3.16754632 -5.4375 1.25 C-3.84882134 -0.33867866 -2.19060484 0.04205961 0 0 Z " fill="#1C1D1E" transform="translate(307.4375,53.75)"/>
<path d="M0 0 C3.85308766 1.57523746 6.44743914 4.17747444 9.31933594 7.09228516 C9.83685928 7.60951645 10.35438263 8.12674774 10.8875885 8.65965271 C12.59130289 10.36475671 14.28782978 12.07682768 15.984375 13.7890625 C17.16649407 14.974913 18.34905645 16.16032174 19.53204346 17.3453064 C22.64028728 20.46117638 25.74247737 23.58300634 28.84344482 26.70611572 C32.01048502 29.89363619 35.18321387 33.0754832 38.35546875 36.2578125 C44.57589403 42.49966976 50.78993537 48.74783485 57 55 C56.67 55.99 56.34 56.98 56 58 C53.84054565 58.79202271 53.84054565 58.79202271 51 59 C48.37991333 57.14181519 48.37991333 57.14181519 45.55126953 54.32763672 C45.03199387 53.81887497 44.5127182 53.31011322 43.97770691 52.78593445 C42.26399531 51.09864883 40.57318538 49.39033113 38.8828125 47.6796875 C37.70016689 46.50108271 36.51663174 45.32336988 35.33224487 44.14651489 C32.85288619 41.6760063 30.38471511 39.19495953 27.92382812 36.70605469 C24.7662323 33.5142732 21.58246407 30.35018564 18.38983345 27.1934948 C15.94089474 24.76622304 13.50641007 22.32485882 11.07607651 19.8789711 C9.90747542 18.70636349 8.73438974 17.5382078 7.55682755 16.37459946 C5.9137206 14.74670913 4.29104402 13.10086237 2.67236328 11.44873047 C1.74368439 10.51527802 0.81500549 9.58182556 -0.14181519 8.62008667 C-2 6 -2 6 -1.85452271 3.22195435 C-1 1 -1 1 0 0 Z " fill="#5F6BD2" transform="translate(10,48)"/>
<path d="M0 0 C3.60373037 1.52758291 5.91849407 3.66513479 8.67675781 6.41796875 C9.59741028 7.33231689 10.51806274 8.24666504 11.46661377 9.1887207 C12.46237326 10.18805904 13.45787087 11.18765838 14.453125 12.1875 C15.47844703 13.2114745 16.50406577 14.23515198 17.52996826 15.25854492 C19.67493952 17.4005717 21.81626131 19.54616444 23.95507812 21.69433594 C26.7012777 24.45195846 29.45639659 27.20046722 32.21428299 29.94639587 C34.33163883 32.05653945 36.44422622 34.17140501 38.55538177 36.28775024 C39.5698426 37.30354783 40.58579835 38.31785467 41.6032486 39.33065796 C43.02060124 40.74295287 44.43089711 42.16231931 45.84082031 43.58203125 C46.64594055 44.38874268 47.45106079 45.1954541 48.28057861 46.02661133 C50 48 50 48 50 50 C47.16755965 51.07210097 45.93410576 51.46180472 43 51 C39.1097555 48.38959603 35.92456567 45.05099446 32.65625 41.71875 C31.67853376 40.74642582 30.69963282 39.77529159 29.71960449 38.80529785 C27.67251886 36.76999302 25.64056545 34.72095851 23.61816406 32.66113281 C21.02771322 30.02509622 18.40298638 27.42662149 15.76584625 24.83739471 C13.7386497 22.83914319 11.73093998 20.82218073 9.7285614 18.79908752 C8.76798637 17.83318559 7.80145961 16.87316435 6.82893372 15.91929626 C-0.7750138 8.4294642 -0.7750138 8.4294642 -1.34594727 4.80200195 C-1.08007812 2.85351562 -1.08007812 2.85351562 0 0 Z " fill="#5E6AD2" transform="translate(5,60)"/>
<path d="M0 0 C3.63 0 7.26 0 11 0 C11 12.54 11 25.08 11 38 C7.37 38 3.74 38 0 38 C0 25.46 0 12.92 0 0 Z " fill="#1B1C1D" transform="translate(163,54)"/>
<path d="M0 0 C4.64803779 3.89125935 9.08082699 7.92182258 13.37109375 12.203125 C13.93828629 12.76698914 14.50547882 13.33085327 15.08985901 13.9118042 C16.2733624 15.09029114 17.45555781 16.27009302 18.63647461 17.45117188 C20.45213321 19.26461536 22.27568287 21.06987686 24.09960938 22.875 C25.25309172 24.02555308 26.40610411 25.17657755 27.55859375 26.328125 C28.10535263 26.86769836 28.65211151 27.40727173 29.21543884 27.9631958 C33 31.77114042 33 31.77114042 33 34 C30.36 33.67 27.72 33.34 25 33 C25 32.34 25 31.68 25 31 C24.195625 30.814375 23.39125 30.62875 22.5625 30.4375 C12.93955581 26.55455761 6.35305393 18.95669197 1.90234375 9.72265625 C0.52620511 6.28550997 0 3.73167045 0 0 Z " fill="#5D69D1" transform="translate(5,76)"/>
<path d="M0 0 C2.25 1.25 2.25 1.25 3.25 2.25 C2.96269945 4.58944736 2.63063221 6.9239143 2.25 9.25 C-4.375 10.5 -4.375 10.5 -7.75 8.25 C-8.25 5.3125 -8.25 5.3125 -7.75 2.25 C-4.93014202 -0.32815587 -3.73790549 -1.01942877 0 0 Z " fill="#1B1C1D" transform="translate(170.75,39.75)"/>
<path d="M0 0 C2.64 0 5.28 0 8 0 C8 0.33 8 0.66 8 1 C5.36 1 2.72 1 0 1 C0 0.67 0 0.34 0 0 Z " fill="#3D3D3E" transform="translate(275,52)"/>
<path d="M0 0 C2.31 0 4.62 0 7 0 C7 0.33 7 0.66 7 1 C4.69 1 2.38 1 0 1 C0 0.67 0 0.34 0 0 Z " fill="#383838" transform="translate(236,52)"/>
<path d="M0 0 C2.31 0 4.62 0 7 0 C7 0.33 7 0.66 7 1 C4.69 1 2.38 1 0 1 C0 0.67 0 0.34 0 0 Z " fill="#383838" transform="translate(199,52)"/>
<path d="M0 0 C1.98 0 3.96 0 6 0 C6 0.33 6 0.66 6 1 C4.02 1 2.04 1 0 1 C0 0.67 0 0.34 0 0 Z " fill="#2C2B30" transform="translate(237,67)"/>
<path d="M0 0 C1.98 0 3.96 0 6 0 C6 0.33 6 0.66 6 1 C4.02 1 2.04 1 0 1 C0 0.67 0 0.34 0 0 Z " fill="#323134" transform="translate(318,52)"/>
<path d="M0 0 C1 4 1 4 1 4 Z " fill="#28262E" transform="translate(326,58)"/>
<path d="M0 0 C3 1 3 1 3 1 Z " fill="#212026" transform="translate(198,64)"/>
<path d="M0 0 C3 1 3 1 3 1 Z " fill="#222132" transform="translate(245,53)"/>
<path d="M0 0 C2 1 2 1 2 1 Z " fill="#212024" transform="translate(271,68)"/>
<path d="" fill="#6769B4" transform="translate(0,0)"/>
<path d="" fill="#6769B4" transform="translate(0,0)"/>
<path d="" fill="#534FD9" transform="translate(0,0)"/>
<path d="" fill="#6769B4" transform="translate(0,0)"/>
<path d="" fill="#534FD9" transform="translate(0,0)"/>
<path d="" fill="#6769B4" transform="translate(0,0)"/>
<path d="" fill="#6769B4" transform="translate(0,0)"/>
<path d="" fill="#6769B4" transform="translate(0,0)"/>
<path d="" fill="#6769B4" transform="translate(0,0)"/>
<path d="" fill="#534FD9" transform="translate(0,0)"/>
<path d="" fill="#534FD9" transform="translate(0,0)"/>
<path d="" fill="#6769B4" transform="translate(0,0)"/>
<path d="" fill="#534FD9" transform="translate(0,0)"/>
<path d="" fill="#534FD9" transform="translate(0,0)"/>
<path d="" fill="#6769B4" transform="translate(0,0)"/>
<path d="" fill="#6769B4" transform="translate(0,0)"/>
<path d="" fill="#6769B4" transform="translate(0,0)"/>
<path d="" fill="#6769B4" transform="translate(0,0)"/>
<path d="" fill="#22202A" transform="translate(0,0)"/>
<path d="" fill="#534FD9" transform="translate(0,0)"/>
<path d="" fill="#6F4967" transform="translate(0,0)"/>
<path d="" fill="#534FD9" transform="translate(0,0)"/>
<path d="" fill="#534FD9" transform="translate(0,0)"/>
<path d="" fill="#534FD9" transform="translate(0,0)"/>
</svg>
