<svg width="400" height="160" viewBox="0 0 400 160" fill="none" xmlns="http://www.w3.org/2000/svg">
<path d="M15.3514 109.782C15.2305 109.782 15.1112 109.755 15.0018 109.703C14.5817 109.512 13.9262 110.202 14.1212 109.782L23.2136 89.8763C23.3023 89.6819 23.4623 89.529 23.6606 89.4494L27.6304 87.8444C27.8366 87.7626 28.0669 87.7656 28.2709 87.8529C28.4749 87.9402 28.636 88.1047 28.7192 88.3104C28.8025 88.5161 28.8009 88.7463 28.715 88.9509C28.6291 89.1555 28.4658 89.3177 28.2606 89.4023L24.5968 90.8847L16.1178 109.291C16.0502 109.438 15.942 109.561 15.8061 109.648C15.6702 109.734 15.5124 109.78 15.3514 109.779V109.782Z" fill="black"/>
<path d="M27.8623 89.5367L27.395 88.3687L113.472 53.0493L20.0404 79.7653L19.6841 78.5552L120.363 50.6729L27.8623 89.5367Z" fill="black"/>
<path d="M85.6135 93.12C85.4415 93.1204 85.2736 93.068 85.1324 92.9699C84.9912 92.8719 84.8834 92.7328 84.8237 92.5716C84.764 92.4104 84.7551 92.2347 84.7984 92.0683C84.8416 91.9019 84.9349 91.7528 85.0656 91.641L140.487 43.6914H25.5126L2.22187 64.6494L20.9614 78.3032C21.0242 78.3508 21.0806 78.4061 21.1294 78.4679L28.6084 88.1083C28.724 88.2856 28.7687 88.4998 28.7337 88.7086C28.6987 88.9173 28.5865 89.1053 28.4194 89.2352C28.2523 89.3651 28.0424 89.4274 27.8315 89.4098C27.6206 89.3922 27.424 89.296 27.2807 89.1402L19.8757 79.594L0.396661 65.3956C0.295777 65.322 0.212593 65.2267 0.153165 65.1168C0.0937365 65.0069 0.0595586 64.8852 0.0531191 64.7604C0.0466795 64.6356 0.0681403 64.511 0.115939 64.3956C0.163738 64.2801 0.236673 64.1768 0.329434 64.0931L24.6252 42.2225C24.7801 42.0845 24.9808 42.009 25.1883 42.0108H142.857C143.21 42.0108 143.422 42.2293 143.546 42.557C143.606 42.7181 143.614 42.8935 143.571 43.0597C143.528 43.2258 143.435 43.3748 143.304 43.4864L86.1614 92.915C86.0085 93.0463 85.8133 93.1179 85.6118 93.1167L85.6135 93.12ZM14.3647 109.254L9.71431 119.318H55.9378L67.2269 109.238" fill="black"/>
<path d="M107.424 109.237V74.1163L87.2338 91.8592L76.6623 73.5819H67.2271V109.237H75.0792V86.3298L83.6539 102.071H91.217L99.5699 86.4743V109.237H107.424ZM399.81 109.167V73.5819H391.738V87.3398H374.235V73.5835H366.098V109.168H374.237V94.6877H391.74V109.168H399.812L399.81 109.167ZM279.222 93.244C278.936 98.6474 278.646 100.16 277.854 101.241C276.99 102.177 275.983 102.753 274.469 102.753C273.891 102.753 272.738 102.681 272.738 102.681V109.521C273.604 109.595 275.187 109.736 276.197 109.736C279.155 109.736 281.743 109.306 283.402 107.794C285.057 106.284 286.788 104.336 287.217 97.0609C287.368 94.3953 287.869 80.9264 287.869 80.9264H301.92V109.237H310.054V73.5819H279.731C279.656 76.1029 279.513 88.0575 279.222 93.2457V93.244ZM219.508 99.6575V73.797C218.209 73.5819 213.098 72.8609 205.531 72.8609C191.272 72.8609 183.78 80.8558 183.78 92.8155C183.78 98.6474 185.293 102.826 187.888 105.706C190.837 108.95 195.377 110.244 198.906 110.244C208.2 110.244 211.511 104.553 211.511 104.553L211.8 104.698C211.8 104.698 211.728 105.057 211.728 105.632C211.728 109.31 215.476 110.17 218.713 110.17C222.246 110.17 224.188 109.881 224.188 109.881V102.97C223.756 103.037 223.398 103.037 222.605 103.037C220.951 103.037 219.513 102.752 219.513 99.6558L219.508 99.6575ZM211.368 93.0995C211.368 97.8558 206.83 103.042 200.995 103.042C197.681 103.042 195.592 101.602 194.081 99.7264C193 98.1466 192.207 95.481 192.207 92.5264C192.207 88.7785 193.288 85.1819 195.592 82.9466C197.395 81.1449 200.849 79.8491 205.246 79.8491C208.128 79.8491 211.37 80.4256 211.37 80.4256V93.1012L211.368 93.0995ZM156.908 73.5819V109.237H165.121V80.9281H180.824V73.5835H156.908V73.5819ZM232.404 73.5819V109.237H240.538V80.9281H258.261V109.237H266.476V73.5819H232.404ZM132.921 72.644C127.807 72.644 124.064 73.8709 120.531 77.1819C116.857 80.5684 114.841 85.3936 114.841 91.518C114.841 96.9919 116.713 102.036 119.955 105.131C123.484 108.59 128.96 110.318 136.235 110.318C140.051 110.318 143.798 109.668 146.753 108.738V102.326C145.096 102.612 140.846 103.335 136.308 103.335C132.056 103.335 128.96 102.684 126.943 101.103C125.434 99.9499 123.704 98.1482 123.128 94.7667H148.699C148.985 93.1802 149.13 90.8037 149.13 88.2121C149.13 79.2709 143.012 72.644 132.925 72.644H132.921ZM123.269 87.913C123.703 85.3197 124.709 83.1567 126.224 81.644C127.664 80.2054 130.039 79.3415 132.851 79.3415C135.59 79.3415 137.388 80.2054 138.901 81.644C140.271 83.1567 140.918 85.6777 140.918 87.913H123.271H123.269ZM353.126 99.6575V73.797C351.832 73.5819 346.72 72.8609 339.155 72.8609C324.893 72.8609 317.402 80.8558 317.402 92.8155C317.402 98.6474 318.914 102.826 321.509 105.706C324.462 108.95 328.999 110.244 332.531 110.244C341.822 110.244 345.136 104.553 345.136 104.553L345.425 104.698C345.425 104.698 345.353 105.057 345.353 105.632C345.353 109.31 349.101 110.17 352.338 110.17C355.872 110.17 357.817 109.881 357.817 109.881V102.97C357.38 103.037 357.024 103.037 356.232 103.037C354.572 103.037 353.13 102.752 353.13 99.6558L353.126 99.6575ZM344.992 93.0995C344.992 97.8558 340.454 103.042 334.622 103.042C331.304 103.042 329.215 101.602 327.703 99.7264C326.62 98.1466 325.834 95.481 325.834 92.5264C325.834 88.7785 326.987 85.2491 329.22 82.9466C331.093 81.2155 334.481 79.8491 338.872 79.8491C341.755 79.8491 344.999 80.4256 344.999 80.4256V93.1012H344.993L344.992 93.0995Z" fill="black"/>
</svg>
