<svg width="400" height="160" viewBox="0 0 400 160" fill="none" xmlns="http://www.w3.org/2000/svg">
<g clip-path="url(#clip0)">
<path d="M17.6472 123.748C14.4941 123.743 11.3997 122.895 8.68494 121.291C5.97018 119.687 3.73386 117.386 2.20786 114.627C0.68187 111.868 -0.0782361 108.751 0.00636479 105.599C0.0909657 102.447 1.0172 99.3749 2.68901 96.7015L34.4869 45.9208C36.9743 41.9488 40.9377 39.1276 45.5052 38.0779C47.7668 37.5581 50.1086 37.4889 52.3969 37.8741C54.6853 38.2594 56.8753 39.0916 58.842 40.3233C60.8088 41.5549 62.5136 43.1619 63.8593 45.0524C65.205 46.9429 66.1651 49.08 66.6849 51.3415C67.2047 53.6031 67.2739 55.9449 66.8887 58.2333C66.5034 60.5216 65.6712 62.7117 64.4395 64.6784L32.6344 115.459C31.045 117.999 28.8353 120.093 26.2133 121.543C23.5914 122.993 20.6434 123.752 17.6472 123.748Z" fill="#FF3D57"/>
<path d="M72.4452 123.748C69.2897 123.748 66.1916 122.903 63.4728 121.302C60.7539 119.7 58.5134 117.4 56.9839 114.64C55.4545 111.879 54.6918 108.76 54.7752 105.606C54.8586 102.451 55.7849 99.3766 57.458 96.7011L89.2777 45.9204C90.4575 43.85 92.0439 42.0397 93.9415 40.5984C95.8391 39.1571 98.0087 38.1145 100.32 37.5334C102.631 36.9523 105.035 36.8447 107.389 37.217C109.743 37.5894 111.997 38.434 114.015 39.7001C116.034 40.9661 117.776 42.6275 119.136 44.5842C120.496 46.5409 121.446 48.7525 121.929 51.0859C122.412 53.4193 122.418 55.8264 121.947 58.1622C121.476 60.4981 120.537 62.7145 119.187 64.678L87.4252 115.459C85.8358 117.999 83.6261 120.092 81.0041 121.543C78.3822 122.993 75.4342 123.752 72.438 123.748H72.4452Z" fill="#FFCB00"/>
<path d="M127.229 123.739C137.003 123.739 144.926 116.014 144.926 106.485C144.926 96.9562 137.003 89.2314 127.229 89.2314C117.455 89.2314 109.532 96.9562 109.532 106.485C109.532 116.014 117.455 123.739 127.229 123.739Z" fill="#00D647"/>
<path fill-rule="evenodd" clip-rule="evenodd" d="M400 65.0937H389.746L382.557 83.5068L375.419 65.0937H365.143L377.618 94.1297L369.863 113.329H380.05L400 65.0937ZM338.408 81.2405C338.408 85.8792 342.498 88.9351 346.553 88.9351C350.504 88.9351 354.378 86.0952 354.378 81.2405C354.378 76.3859 350.501 73.546 346.553 73.546C342.53 73.546 338.408 76.5983 338.408 81.2405ZM354.343 97.4582V93.7862C352.264 96.9023 347.413 98.085 344.924 98.085C342.729 98.0845 340.555 97.646 338.532 96.7952C336.508 95.9443 334.675 94.6982 333.139 93.1299C331.603 91.5615 330.395 89.7025 329.586 87.6615C328.778 85.6206 328.385 83.4389 328.43 81.2441C328.385 79.0493 328.778 76.8676 329.586 74.8266C330.395 72.7857 331.603 70.9266 333.139 69.3583C334.675 67.7899 336.508 66.5439 338.532 65.693C340.555 64.8422 342.729 64.4037 344.924 64.4032C347.002 64.4032 351.853 65.0937 354.343 68.7019V65.1078H363.903V97.4653L354.343 97.4582ZM325.703 97.4582H316.143V93.4392C314.549 96.4207 310.668 98.1487 306.646 98.1487C298.324 98.1487 290.98 91.5625 290.98 81.3716C290.98 70.9859 298.328 64.3926 306.646 64.3926C310.665 64.3926 314.549 66.0568 316.143 69.0312V47.4844H325.703V97.4582ZM315.93 81.1768C315.93 76.3257 312.396 73.4823 308.445 73.4823C304.355 73.4823 300.959 76.5275 300.959 81.1768C300.959 85.9713 304.358 89.0024 308.445 89.0024C312.464 89.0024 315.93 85.8155 315.93 81.1768ZM267.334 80.3411C267.334 75.3838 269.897 73.7549 273.293 73.7549C276.551 73.7549 278.906 75.9043 278.906 80.1995V97.4582H288.537V78.1245C288.537 68.9073 283.962 64.4032 276.686 64.4032C272.875 64.4032 269.062 66.5526 267.33 69.8067V65.0972H257.699V97.4547H267.33L267.334 80.3411ZM238.138 98.0106C228.989 98.0106 221.361 91.3607 221.361 81.1697C221.361 70.9788 228.985 64.3926 238.138 64.3926C247.292 64.3926 254.979 70.9788 254.979 81.1697C254.979 91.3607 247.285 98.0106 238.138 98.0106ZM238.138 88.5916C242.157 88.5916 245.486 85.6809 245.486 81.1768C245.486 76.8108 242.157 73.8293 238.138 73.8293C237.172 73.8132 236.213 73.9928 235.318 74.3572C234.423 74.7216 233.611 75.2633 232.931 75.9497C232.25 76.6362 231.716 77.4531 231.36 78.3514C231.004 79.2497 230.833 80.2108 230.858 81.1768C230.858 85.6739 234.187 88.5916 238.138 88.5916ZM204.074 73.7549C206.914 73.7549 209.41 75.9716 209.41 80.1995V97.4582H218.971V79.0451C218.971 69.272 214.177 64.3501 206.496 64.3501C204.212 64.3501 199.91 65.0406 196.794 70.1042C194.988 66.3613 191.529 64.4209 186.408 64.4209C184.636 64.4085 182.898 64.9047 181.4 65.8505C179.902 66.7964 178.707 68.1522 177.956 69.7571V65.0583H168.339V97.4158H177.97V80.3376C177.97 75.3802 180.675 73.7514 183.583 73.7514C186.355 73.7514 188.848 75.9007 188.919 79.9835V97.4476H198.55V80.3376C198.554 75.6281 201.047 73.7514 204.074 73.7514V73.7549Z" fill="#333333"/>
</g>
<defs>
<clipPath id="clip0">
<path d="M0 0H400V160H0V0Z" fill="white"/>
</clipPath>
</defs>
</svg>
