<svg width="400" height="160" viewBox="0 0 400 160" fill="none" xmlns="http://www.w3.org/2000/svg">
<path d="M25 113.89V46.1468L84.9263 24L117.494 34.4221V125.614L84.9263 135.431L25 113.89L84.9263 121.101V42.2392L45.8432 51.3584V104.772L25 113.89Z" fill="#EB3C00"/>
<path d="M181.318 114.365C171.885 114.365 164.331 111.256 158.655 105.04C152.98 98.8232 150.142 90.7355 150.142 80.7761C150.142 70.0749 153.034 61.539 158.818 55.1682C164.601 48.7969 172.472 45.6113 182.431 45.6113C191.617 45.6114 199.017 48.7042 204.63 54.8897C210.243 61.0754 213.05 69.1631 213.05 79.1534C213.05 90.0092 210.174 98.5918 204.421 104.902C198.669 111.211 190.967 114.366 181.318 114.366L181.318 114.365ZM181.875 52.6617C174.885 52.6618 169.21 55.1823 164.849 60.2237C160.488 65.265 158.307 71.8838 158.307 80.0798C158.307 88.2757 160.434 94.8712 164.686 99.8662C168.939 104.861 174.483 107.359 181.318 107.359C188.617 107.359 194.37 104.977 198.576 100.214C202.782 95.4512 204.885 88.7862 204.885 80.219C204.885 71.4354 202.844 64.6465 198.762 59.8527C194.679 55.0588 189.05 52.6619 181.875 52.6617H181.875Z" fill="#EB3C00"/>
<path d="M240.772 41.8947C236.473 41.8947 232.9 43.3591 230.024 46.2508C227.147 49.1427 225.708 53.0776 225.708 58.057V65.7513H217.607V72.2651H225.708V113.26H233.28V72.2651H251.804V113.26H259.376V72.2651H270.49V65.7513H259.376V58.4233C259.376 51.7119 262.036 48.3677 267.356 48.3677C269.242 48.3678 270.919 48.754 272.404 49.589V42.7496C271.043 42.193 269.227 41.8947 266.908 41.8947C262.609 41.8947 258.996 43.3589 256.12 46.2506C253.243 49.1426 251.804 53.0775 251.804 58.0568V65.7511H233.28V58.4232C233.28 51.7118 235.94 48.3676 241.26 48.3676C243.146 48.3676 244.824 48.7539 246.308 49.5889V42.7495C244.947 42.1928 243.091 41.8946 240.771 41.8945L240.772 41.8947Z" fill="#EB3C00"/>
<path d="M281.555 53.677C280.195 53.6771 279.035 53.2131 278.076 52.2852C277.117 51.3575 276.638 50.1822 276.638 48.7594C276.638 47.3368 277.117 46.1536 278.076 45.2104C279.035 44.2671 280.195 43.7955 281.555 43.7954C282.947 43.7955 284.13 44.2671 285.104 45.2104C286.078 46.1538 286.566 47.3369 286.566 48.7594C286.566 50.1203 286.078 51.28 285.104 52.2387C284.13 53.1975 282.947 53.6769 281.555 53.6769V53.677ZM285.267 113.245H277.658V65.7388H285.267V113.245Z" fill="#EB3C00"/>
<path d="M328.492 111.064C324.842 113.259 320.512 114.357 315.501 114.357C308.728 114.357 303.262 112.154 299.102 107.746C294.942 103.339 292.862 97.625 292.862 90.6043C292.862 82.7794 295.104 76.4934 299.589 71.7456C304.073 66.9981 310.058 64.6245 317.543 64.6245C321.718 64.6246 325.398 65.3978 328.584 66.9441V74.7379C325.058 72.2638 321.285 71.0265 317.264 71.0265C312.408 71.0266 308.426 72.7664 305.318 76.2458C302.21 79.7253 300.656 84.295 300.656 89.9548C300.656 95.522 302.117 99.9138 305.04 103.13C307.962 106.347 311.883 107.955 316.8 107.955C320.945 107.955 324.842 106.579 328.491 103.826L328.492 111.064Z" fill="#EB3C00"/>
<path d="M375 91.3963H341.458C341.582 96.6851 343.004 100.767 345.726 103.644C348.448 106.52 352.19 107.958 356.953 107.958C362.304 107.958 367.221 106.195 371.706 102.669V109.814C367.531 112.845 362.01 114.36 355.144 114.36C348.433 114.36 343.159 112.203 339.324 107.889C335.489 103.574 333.571 97.5045 333.571 89.6796C333.571 82.2877 335.667 76.2645 339.857 71.6099C344.048 66.9552 349.252 64.6279 355.469 64.6279C361.685 64.628 366.495 66.6382 369.897 70.659C373.299 74.6797 375 80.2622 375 87.4066L375 91.3963ZM367.206 84.9478C367.175 80.5562 366.115 77.1386 364.028 74.6951C361.94 72.2519 359.041 71.0299 355.329 71.0299C351.742 71.03 348.695 72.3135 346.19 74.8805C343.685 77.4477 342.138 80.8034 341.551 84.9478H367.206Z" fill="#EB3C00"/>
</svg>
