<svg width="400" height="160" viewBox="0 0 400 160" fill="none" xmlns="http://www.w3.org/2000/svg">
<path d="M160.267 25.9497L144.328 41.8886C142.485 43.7316 142.485 46.7196 144.328 48.5625L182.879 87.1142C184.722 88.9572 187.71 88.9572 189.553 87.1142L205.492 71.1753C207.335 69.3324 207.335 66.3444 205.492 64.5014L166.94 25.9497C165.098 24.1068 162.11 24.1068 160.267 25.9497Z" fill="#195ABD"/>
<path d="M250.717 19.2759L234.778 3.33696C232.935 1.49401 229.947 1.49401 228.104 3.33696L166.94 64.5014C165.097 66.3444 165.097 69.3324 166.94 71.1754L182.879 87.1143C184.722 88.9572 187.71 88.9572 189.553 87.1143L250.717 25.9498C252.56 24.1068 252.56 21.1188 250.717 19.2759Z" fill="url(#paint0_linear)"/>
<path d="M67.7428 159.382V134.204C67.7428 133.594 67.8335 131.854 68.0149 128.985H67.916C67.4048 130.321 66.9761 131.351 66.6299 132.077L54.0161 159.382H53.2247L40.5615 132.225C40.1493 131.351 39.7618 130.238 39.3991 128.886H39.2754C39.3908 130.469 39.4485 132.044 39.4485 133.61V159.382H37V123.915H39.2754L52.5074 152.481C52.5899 152.646 52.6806 152.869 52.7795 153.149C52.8784 153.429 52.9856 153.71 53.101 153.99C53.2659 154.419 53.439 154.897 53.6204 155.425H53.7688L54.0409 154.633C54.0574 154.567 54.3377 153.784 54.8818 152.284L67.916 123.915H70.0924V159.382H67.7428Z" fill="black"/>
<path d="M79.8124 127.674C79.3178 127.674 78.8808 127.493 78.5016 127.13C78.1223 126.768 77.9327 126.306 77.9327 125.745C77.9327 125.201 78.1223 124.764 78.5016 124.434C78.8973 124.088 79.3342 123.915 79.8124 123.915C80.3236 123.915 80.7687 124.08 81.148 124.41C81.5437 124.739 81.7416 125.185 81.7416 125.745C81.7416 126.273 81.552 126.726 81.1727 127.106C80.7935 127.485 80.34 127.674 79.8124 127.674ZM78.6994 159.382V134.055H80.9749V159.382H78.6994Z" fill="black"/>
<path d="M105.485 158.269C103.605 159.423 101.363 160 98.7577 160C95.3116 160 92.5333 158.821 90.4228 156.463C88.3122 154.089 87.257 150.989 87.257 147.164C87.257 143.141 88.4441 139.851 90.8185 137.295C93.1928 134.723 96.2432 133.437 99.9696 133.437C101.899 133.437 103.77 133.833 105.584 134.624V137.197C103.77 136.075 101.783 135.515 99.6234 135.515C96.6554 135.515 94.2481 136.586 92.4014 138.73C90.5547 140.857 89.6313 143.619 89.6313 147.015C89.6313 150.297 90.4722 152.935 92.1541 154.93C93.8524 156.925 96.0866 157.923 98.8566 157.923C101.396 157.923 103.605 157.247 105.485 155.894V158.269Z" fill="black"/>
<path d="M123.54 136.43C122.781 135.886 121.891 135.614 120.869 135.614C118.874 135.614 117.2 136.644 115.848 138.705C114.496 140.766 113.82 143.693 113.82 147.485V159.382H111.594V134.055H113.82V139.67H113.919C114.496 137.741 115.411 136.24 116.664 135.168C117.917 134.097 119.368 133.561 121.017 133.561C121.957 133.561 122.798 133.709 123.54 134.006V136.43Z" fill="black"/>
<path d="M137.44 160C133.746 160 130.82 158.788 128.66 156.364C126.516 153.924 125.444 150.758 125.444 146.867C125.444 142.662 126.566 139.373 128.808 136.999C131.067 134.624 134.035 133.437 137.712 133.437C141.323 133.437 144.175 134.616 146.269 136.974C148.363 139.332 149.41 142.597 149.41 146.768C149.41 150.709 148.339 153.899 146.195 156.34C144.068 158.78 141.15 160 137.44 160ZM137.613 135.515C134.628 135.515 132.246 136.52 130.465 138.532C128.701 140.544 127.819 143.338 127.819 146.916C127.819 150.231 128.684 152.894 130.416 154.905C132.147 156.917 134.513 157.923 137.514 157.923C140.564 157.923 142.914 156.933 144.563 154.955C146.212 152.976 147.036 150.231 147.036 146.719C147.036 143.108 146.212 140.338 144.563 138.408C142.93 136.479 140.614 135.515 137.613 135.515Z" fill="black"/>
<path d="M154.406 158.269V155.523C155.264 156.265 156.303 156.851 157.523 157.28C158.743 157.708 159.798 157.923 160.689 157.923C164.662 157.923 166.649 156.298 166.649 153.05C166.649 151.929 166.212 150.973 165.338 150.181C164.464 149.39 163.046 148.574 161.084 147.733C158.66 146.677 156.954 145.589 155.965 144.468C154.992 143.33 154.505 141.953 154.505 140.338C154.505 138.277 155.289 136.611 156.855 135.342C158.438 134.072 160.384 133.437 162.692 133.437C164.868 133.437 166.732 133.882 168.282 134.773V137.345C166.402 136.125 164.456 135.515 162.445 135.515C160.779 135.515 159.435 135.952 158.413 136.826C157.391 137.683 156.88 138.804 156.88 140.189C156.88 141.393 157.201 142.374 157.844 143.132C158.487 143.874 159.905 144.732 162.098 145.705C164.736 146.892 166.55 147.996 167.54 149.019C168.529 150.025 169.023 151.368 169.023 153.05C169.023 155.062 168.265 156.727 166.748 158.046C165.248 159.349 163.17 160 160.515 160C158.075 160 156.039 159.423 154.406 158.269Z" fill="black"/>
<path d="M185.57 160C181.876 160 178.95 158.788 176.79 156.364C174.646 153.924 173.574 150.758 173.574 146.867C173.574 142.662 174.696 139.373 176.938 136.999C179.197 134.624 182.165 133.437 185.842 133.437C189.453 133.437 192.305 134.616 194.399 136.974C196.493 139.332 197.54 142.597 197.54 146.768C197.54 150.709 196.469 153.899 194.325 156.34C192.198 158.78 189.28 160 185.57 160ZM185.743 135.515C182.758 135.515 180.376 136.52 178.595 138.532C176.831 140.544 175.949 143.338 175.949 146.916C175.949 150.231 176.814 152.894 178.546 154.905C180.277 156.917 182.643 157.923 185.644 157.923C188.694 157.923 191.044 156.933 192.693 154.955C194.342 152.976 195.166 150.231 195.166 146.719C195.166 143.108 194.342 140.338 192.693 138.408C191.06 136.479 188.744 135.515 185.743 135.515Z" fill="black"/>
<path d="M213.542 124.286C212.932 123.808 212.009 123.569 210.772 123.569C207.656 123.569 206.098 125.663 206.098 129.851V134.055H212.8V136.133H206.098V159.382H203.822V136.133H199.272V134.055H203.822V129.653C203.822 126.982 204.49 124.954 205.826 123.569C207.178 122.184 208.86 121.491 210.871 121.491C211.943 121.491 212.833 121.648 213.542 121.961V124.286Z" fill="black"/>
<path d="M227.863 159.036C226.676 159.596 225.563 159.876 224.524 159.876C220.781 159.876 218.909 157.634 218.909 153.149V136.133H214.359V134.055H218.909V127.477C219.272 127.345 219.651 127.213 220.047 127.081C220.443 126.965 220.822 126.842 221.185 126.71V134.055H227.863V136.133H221.185V152.852C221.185 154.6 221.457 155.87 222.001 156.661C222.562 157.436 223.502 157.824 224.821 157.824C225.76 157.824 226.775 157.519 227.863 156.909V159.036Z" fill="black"/>
<path d="M256.899 126.166V159.382H254.475V126.166H244.236V123.915H267.138V126.166H256.899Z" fill="black"/>
<path d="M274.904 160C271.211 160 268.284 158.788 266.124 156.364C263.981 153.924 262.909 150.758 262.909 146.867C262.909 142.662 264.03 139.373 266.273 136.999C268.532 134.624 271.5 133.437 275.177 133.437C278.788 133.437 281.64 134.616 283.734 136.974C285.828 139.332 286.875 142.597 286.875 146.768C286.875 150.709 285.803 153.899 283.66 156.34C281.533 158.78 278.614 160 274.904 160ZM275.078 135.515C272.093 135.515 269.711 136.52 267.93 138.532C266.166 140.544 265.283 143.338 265.283 146.916C265.283 150.231 266.149 152.894 267.88 154.905C269.612 156.917 271.978 157.923 274.979 157.923C278.029 157.923 280.379 156.933 282.027 154.955C283.676 152.976 284.501 150.231 284.501 146.719C284.501 143.108 283.676 140.338 282.027 138.408C280.395 136.479 278.078 135.515 275.078 135.515Z" fill="black"/>
<path d="M307.576 159.382V123.915H316.456C322.342 123.915 326.819 125.382 329.885 128.317C332.952 131.252 334.486 135.531 334.486 141.154C334.486 146.562 332.837 150.956 329.539 154.336C326.258 157.7 321.724 159.382 315.936 159.382H307.576ZM310.025 126.166V157.156H315.59C320.85 157.156 324.889 155.796 327.709 153.075C330.528 150.338 331.938 146.397 331.938 141.253C331.938 131.195 326.654 126.166 316.085 126.166H310.025Z" fill="black"/>
<path d="M351.378 160C347.685 160 344.758 158.788 342.598 156.364C340.455 153.924 339.383 150.758 339.383 146.867C339.383 142.662 340.504 139.373 342.746 136.999C345.005 134.624 347.973 133.437 351.65 133.437C355.261 133.437 358.114 134.616 360.208 136.974C362.302 139.332 363.349 142.597 363.349 146.768C363.349 150.709 362.277 153.899 360.134 156.34C358.007 158.78 355.088 160 351.378 160ZM351.551 135.515C348.567 135.515 346.184 136.52 344.404 138.532C342.639 140.544 341.757 143.338 341.757 146.916C341.757 150.231 342.623 152.894 344.354 154.905C346.085 156.917 348.451 157.923 351.452 157.923C354.503 157.923 356.852 156.933 358.501 154.955C360.15 152.976 360.974 150.231 360.974 146.719C360.974 143.108 360.15 140.338 358.501 138.408C356.869 136.479 354.552 135.515 351.551 135.515Z" fill="black"/>
<defs>
<linearGradient id="paint0_linear" x1="174.909" y1="79.1448" x2="242.748" y2="11.3064" gradientUnits="userSpaceOnUse">
<stop stop-color="#2987E6"/>
<stop offset="0.994" stop-color="#58C1F5"/>
</linearGradient>
</defs>
</svg>
