<svg width="400" height="160" viewBox="0 0 400 160" fill="none" xmlns="http://www.w3.org/2000/svg">
<path d="M137.966 48.0339L111.534 74.4662C108.478 77.5224 108.478 82.4776 111.534 85.5338L175.466 149.466C178.522 152.522 183.477 152.522 186.534 149.466L212.966 123.034C216.022 119.978 216.022 115.022 212.966 111.966L149.034 48.0339C145.978 44.9776 141.022 44.9776 137.966 48.0339Z" fill="#195ABD"/>
<path d="M287.966 36.9661L261.534 10.5339C258.477 7.47759 253.522 7.47759 250.466 10.5338L149.034 111.966C145.977 115.022 145.977 119.977 149.034 123.034L175.466 149.466C178.522 152.522 183.477 152.522 186.534 149.466L287.966 48.0338C291.022 44.9776 291.022 40.0224 287.966 36.9661Z" fill="url(#paint0_linear)"/>
<defs>
<linearGradient id="paint0_linear" x1="162.25" y1="136.25" x2="274.75" y2="23.75" gradientUnits="userSpaceOnUse">
<stop stop-color="#2987E6"/>
<stop offset="0.994" stop-color="#58C1F5"/>
</linearGradient>
</defs>
</svg>
