<svg width="400"
  height="160"
  viewBox="0 0 400 160"
  fill="none"
  xmlns="http://www.w3.org/2000/svg">
  <path fill="#008ab6"
    d="m367.73,67.04c-2.11,1.85-3.39,4.37-3.86,7.57h23.24c-.47-3.14-1.76-5.65-3.86-7.54-2.12-1.89-4.88-2.9-7.72-2.82-3.1,0-5.7.93-7.8,2.79Zm28.9,29.54c-4.44,5.34-10.92,8.01-19.44,8.01-5.3,0-10.03-1.1-14.11-3.29-3.97-2.06-7.26-5.23-9.47-9.12-2.23-3.87-3.35-8.27-3.35-13.21-.06-4.6,1.07-9.14,3.29-13.17,2.1-3.83,5.22-7,9.02-9.16,7.9-4.33,17.45-4.39,25.4-.15,3.74,2.1,6.8,5.23,8.82,9.01,2.13,3.93,3.2,8.47,3.2,13.65,0,.19-.1,1.48-.25,3.87h-35.69c.53,2.93,2.15,5.55,4.54,7.33,2.39,1.79,5.37,2.65,8.94,2.65,2.23.05,4.45-.34,6.54-1.14.46-.19.91-.4,1.34-.64l11.22,5.35Z" />
  <path fill="#2b3749"
    d="m42.85,59.57c3.59,3.7,5.39,9.19,5.39,16.46v28.49h-13.68v-26.27c0-3.95-.82-6.89-2.46-8.83-1.64-1.94-4.01-2.91-7.11-2.91-3.45,0-6.2,1.12-8.24,3.37-2.05,2.25-3.07,5.59-3.07,10.03v24.61H0v-45.61l13.07-6.24v7.91c1.84-2.12,4.15-3.78,6.75-4.85,2.81-1.17,5.82-1.75,8.86-1.72,5.85,0,10.57,1.85,14.17,5.55Z" />
  <path fill="#2b3749"
    d="m58.42,58.93v45.6h13.68v-51.84l-13.68,6.24Z" />
  <polygon fill="#2b3749"
    points="72.1 36.81 72.1 48.51 58.42 54.75 58.42 43.06 72.1 36.81" />
  <polygon fill="#2b3749"
    points="140.57 43.07 140.57 54.77 154.24 48.5 154.24 36.8 140.57 43.07" />
  <path fill="#2b3749"
    d="m125.48,59.57c3.59,3.7,5.39,9.19,5.39,16.46v28.49h-13.68v-26.27c0-3.95-.82-6.89-2.46-8.83-1.64-1.94-4.01-2.91-7.1-2.91-3.45,0-6.2,1.12-8.24,3.37s-3.07,5.59-3.07,10.03v24.61h-13.69v-45.61l13.07-6.24v7.91c1.84-2.12,4.15-3.78,6.75-4.85,2.81-1.17,5.83-1.76,8.88-1.72,5.83,0,10.55,1.85,14.15,5.55Z" />
  <path fill="#2b3749"
    d="m154.24,52.8v51.62c0,5.81-1.56,10.39-4.69,13.74s-7.5,5.03-13.12,5.04c-4.8,0-8.45-.92-10.96-2.77l3.68-10.45c1.58,1.17,3.51,1.75,5.79,1.75,1.76,0,3.12-.59,4.12-1.8s1.49-3.01,1.49-5.41v-45.44l13.69-6.27Z" />
  <path fill="#2b3749"
    d="m212.57,58.92v45.6h-13.07v-5.74c-3.39,4.32-8.3,6.48-14.73,6.48-4.23.06-8.4-1.03-12.06-3.14-3.62-2.12-6.56-5.24-8.46-8.97-2.05-3.88-3.07-8.38-3.07-13.5,0-5.12,1.03-9.62,3.07-13.5,1.91-3.74,4.84-6.85,8.46-8.97,3.66-2.12,7.83-3.2,12.06-3.15,6.02,0,10.73,2,14.12,6.01v-7.35l13.69,6.24Zm-16.84,30.75c2.27-2.49,3.41-5.84,3.41-10.03s-1.14-7.54-3.41-10.03c-2.17-2.45-5.32-3.82-8.6-3.75-3.51,0-6.4,1.25-8.68,3.75s-3.42,5.84-3.41,10.03c0,4.2,1.14,7.54,3.41,10.03s5.17,3.74,8.68,3.75c3.28.08,6.42-1.29,8.6-3.75Z" />
  <path fill="#008ab6"
    d="m236.47,101.28c-5.03-2.81-9.19-6.96-12.02-11.98-2.89-5.08-4.34-10.8-4.34-17.15s1.45-12.07,4.34-17.17c2.83-5.02,6.99-9.16,12.02-11.97,5.12-2.9,10.86-4.34,17.24-4.35,6.37,0,12.1,1.45,17.19,4.35,5.02,2.82,9.17,6.96,12.02,11.97,2.92,5.08,4.38,10.8,4.38,17.16s-1.46,12.07-4.38,17.15c-2.84,5.01-7,9.15-12.02,11.98-5.08,2.91-10.81,4.36-17.19,4.36s-12.12-1.45-17.24-4.35Zm27.06-11.05c2.93-1.77,5.32-4.31,6.89-7.35,1.71-3.31,2.56-7,2.5-10.73.07-3.73-.79-7.42-2.5-10.73-1.57-3.04-3.96-5.59-6.89-7.36-6.08-3.51-13.57-3.51-19.65,0-2.93,1.77-5.31,4.32-6.88,7.36-1.71,3.31-2.57,7-2.5,10.73-.07,3.73.79,7.41,2.5,10.73,1.57,3.04,3.95,5.59,6.88,7.35,6.08,3.51,13.57,3.51,19.65,0h0Z" />
  <path fill="#008ab6"
    d="m337.69,59.57c3.59,3.7,5.38,9.19,5.38,16.46v28.49h-13.67v-26.27c0-3.95-.82-6.89-2.45-8.83-1.64-1.94-4-2.91-7.1-2.91-3.45,0-6.2,1.12-8.24,3.37s-3.07,5.59-3.07,10.03v24.61h-13.68v-45.61l13.07-6.24v7.91c1.84-2.12,4.16-3.78,6.76-4.85,2.81-1.17,5.82-1.75,8.86-1.72,5.84,0,10.56,1.85,14.16,5.55Z" />
</svg>
