<svg width="400" height="160" viewBox="0 0 400 160" fill="none" xmlns="http://www.w3.org/2000/svg">
<path d="M196.418 70V50.6641C196.418 49.6745 196.496 48.0794 196.652 45.8789H196.574C196.392 46.4648 196.223 46.9727 196.066 47.4023C195.923 47.832 195.786 48.1836 195.656 48.457L185.891 70H184.777L174.992 48.5938C174.706 47.9427 174.413 47.0247 174.113 45.8398H174.035C174.087 46.4388 174.12 47.1224 174.133 47.8906C174.159 48.6589 174.172 49.5117 174.172 50.4492V70H171.633V41.9922H174.699L184.211 63.0469C184.406 63.4896 184.595 63.9453 184.777 64.4141C184.973 64.8698 185.148 65.3581 185.305 65.8789H185.422C185.604 65.3581 185.767 64.8828 185.91 64.4531C186.066 64.0234 186.255 63.5612 186.477 63.0664L196.066 41.9922H198.977V70H196.418Z" fill="black"/>
<path d="M207.062 44.9414C206.581 44.9414 206.164 44.7721 205.812 44.4336C205.461 44.0951 205.285 43.6654 205.285 43.1445C205.285 42.6367 205.461 42.2201 205.812 41.8945C206.164 41.556 206.581 41.3867 207.062 41.3867C207.31 41.3867 207.544 41.4323 207.766 41.5234C207.987 41.6016 208.176 41.7188 208.332 41.875C208.501 42.0312 208.632 42.2201 208.723 42.4414C208.827 42.6497 208.879 42.8841 208.879 43.1445C208.879 43.3919 208.833 43.6263 208.742 43.8477C208.651 44.069 208.521 44.2643 208.352 44.4336C208.182 44.5898 207.987 44.7135 207.766 44.8047C207.557 44.8958 207.323 44.9414 207.062 44.9414ZM205.832 70V50H208.332V70H205.832Z" fill="black"/>
<path d="M228.078 69.1016C226.594 70 224.797 70.4622 222.688 70.4883C221.255 70.5013 219.966 70.2539 218.82 69.7461C217.674 69.2383 216.698 68.5352 215.891 67.6367C215.083 66.7253 214.465 65.6576 214.035 64.4336C213.605 63.1966 213.391 61.8555 213.391 60.4102C213.391 58.9128 213.618 57.5065 214.074 56.1914C214.53 54.8633 215.194 53.7109 216.066 52.7344C216.939 51.7448 218.007 50.9635 219.27 50.3906C220.533 49.8177 221.978 49.5312 223.605 49.5312C225.259 49.5312 226.77 49.8503 228.137 50.4883V53.1445C226.678 52.181 225.103 51.6992 223.41 51.6992C222.225 51.6992 221.171 51.9271 220.246 52.3828C219.322 52.8255 218.54 53.4375 217.902 54.2188C217.277 54.987 216.796 55.8919 216.457 56.9336C216.132 57.9622 215.969 59.056 215.969 60.2148C215.969 61.2826 216.105 62.3047 216.379 63.2812C216.665 64.2578 217.095 65.1237 217.668 65.8789C218.254 66.6211 218.99 67.2135 219.875 67.6562C220.76 68.099 221.802 68.3203 223 68.3203C224.875 68.3203 226.568 67.7604 228.078 66.6406V69.1016Z" fill="black"/>
<path d="M242.824 52.5586C242.238 52.1289 241.483 51.9141 240.559 51.9141C239.895 51.9141 239.309 52.0443 238.801 52.3047C238.293 52.5521 237.844 52.8906 237.453 53.3203C237.076 53.75 236.75 54.2513 236.477 54.8242C236.216 55.3841 236.001 55.9701 235.832 56.582C235.676 57.194 235.559 57.8125 235.48 58.4375C235.415 59.0625 235.383 59.6549 235.383 60.2148V70H232.902V50H235.383V54.2773H235.461C235.695 53.5482 235.988 52.8971 236.34 52.3242C236.704 51.7383 237.121 51.25 237.59 50.8594C238.059 50.4557 238.566 50.1497 239.113 49.9414C239.673 49.7331 240.259 49.6289 240.871 49.6289C241.275 49.6289 241.633 49.6549 241.945 49.707C242.271 49.7591 242.564 49.8372 242.824 49.9414V52.5586Z" fill="black"/>
<path d="M254.094 70.4688C252.609 70.4688 251.275 70.2214 250.09 69.7266C248.918 69.2318 247.915 68.5352 247.082 67.6367C246.249 66.7253 245.611 65.638 245.168 64.375C244.725 63.112 244.504 61.7122 244.504 60.1758C244.504 58.5091 244.738 57.0182 245.207 55.7031C245.676 54.388 246.34 53.2747 247.199 52.3633C248.072 51.4388 249.12 50.7357 250.344 50.2539C251.568 49.7721 252.935 49.5312 254.445 49.5312C255.891 49.5312 257.193 49.7721 258.352 50.2539C259.51 50.7227 260.493 51.4062 261.301 52.3047C262.108 53.2031 262.727 54.2969 263.156 55.5859C263.586 56.875 263.801 58.3398 263.801 59.9805C263.801 61.543 263.573 62.9688 263.117 64.2578C262.674 65.5339 262.036 66.6341 261.203 67.5586C260.37 68.4831 259.354 69.1992 258.156 69.707C256.958 70.2148 255.604 70.4688 254.094 70.4688ZM254.289 51.6992C253.195 51.6992 252.206 51.888 251.32 52.2656C250.435 52.6432 249.673 53.1966 249.035 53.9258C248.41 54.6419 247.928 55.5273 247.59 56.582C247.251 57.6237 247.082 58.8086 247.082 60.1367C247.082 61.3867 247.251 62.513 247.59 63.5156C247.928 64.5182 248.404 65.3776 249.016 66.0938C249.641 66.8099 250.396 67.3633 251.281 67.7539C252.167 68.1315 253.156 68.3203 254.25 68.3203C255.37 68.3203 256.359 68.138 257.219 67.7734C258.078 67.3958 258.807 66.8555 259.406 66.1523C260.005 65.4362 260.454 64.5638 260.754 63.5352C261.066 62.5065 261.223 61.3346 261.223 60.0195C261.223 57.3242 260.624 55.2669 259.426 53.8477C258.228 52.4154 256.516 51.6992 254.289 51.6992Z" fill="black"/>
<path d="M267.707 66.4062C268.085 66.7057 268.495 66.9727 268.938 67.207C269.38 67.4414 269.836 67.6432 270.305 67.8125C270.773 67.9818 271.242 68.112 271.711 68.2031C272.193 68.2812 272.648 68.3203 273.078 68.3203C276.047 68.3203 277.531 67.207 277.531 64.9805C277.531 64.4727 277.427 64.0365 277.219 63.6719C277.01 63.2943 276.711 62.9557 276.32 62.6562C275.93 62.3438 275.461 62.0573 274.914 61.7969C274.367 61.5365 273.749 61.263 273.059 60.9766C272.134 60.599 271.34 60.2148 270.676 59.8242C270.012 59.4336 269.465 59.0104 269.035 58.5547C268.605 58.0859 268.286 57.5781 268.078 57.0312C267.87 56.4714 267.766 55.8398 267.766 55.1367C267.766 54.2513 267.954 53.4635 268.332 52.7734C268.723 52.0833 269.243 51.4974 269.895 51.0156C270.546 50.5339 271.294 50.1693 272.141 49.9219C273 49.6615 273.898 49.5312 274.836 49.5312C276.568 49.5312 278.078 49.8568 279.367 50.5078V53.1445C277.87 52.181 276.255 51.6992 274.523 51.6992C273.898 51.6992 273.326 51.7773 272.805 51.9336C272.297 52.0898 271.861 52.3112 271.496 52.5977C271.132 52.8841 270.845 53.2292 270.637 53.6328C270.441 54.0234 270.344 54.4596 270.344 54.9414C270.344 55.4362 270.422 55.8724 270.578 56.25C270.734 56.6146 270.975 56.9466 271.301 57.2461C271.639 57.5456 272.069 57.832 272.59 58.1055C273.124 58.3789 273.768 58.6719 274.523 58.9844C275.487 59.375 276.32 59.7656 277.023 60.1562C277.727 60.5339 278.306 60.9505 278.762 61.4062C279.217 61.849 279.556 62.3503 279.777 62.9102C279.999 63.457 280.109 64.0951 280.109 64.8242C280.109 65.7227 279.921 66.5234 279.543 67.2266C279.178 67.9297 278.664 68.5221 278 69.0039C277.349 69.4857 276.581 69.8503 275.695 70.0977C274.81 70.3451 273.846 70.4688 272.805 70.4688C270.786 70.4688 269.087 70.0456 267.707 69.1992V66.4062Z" fill="black"/>
<path d="M293.273 70.4688C291.789 70.4688 290.454 70.2214 289.27 69.7266C288.098 69.2318 287.095 68.5352 286.262 67.6367C285.428 66.7253 284.79 65.638 284.348 64.375C283.905 63.112 283.684 61.7122 283.684 60.1758C283.684 58.5091 283.918 57.0182 284.387 55.7031C284.855 54.388 285.52 53.2747 286.379 52.3633C287.251 51.4388 288.299 50.7357 289.523 50.2539C290.747 49.7721 292.115 49.5312 293.625 49.5312C295.07 49.5312 296.372 49.7721 297.531 50.2539C298.69 50.7227 299.673 51.4062 300.48 52.3047C301.288 53.2031 301.906 54.2969 302.336 55.5859C302.766 56.875 302.98 58.3398 302.98 59.9805C302.98 61.543 302.753 62.9688 302.297 64.2578C301.854 65.5339 301.216 66.6341 300.383 67.5586C299.549 68.4831 298.534 69.1992 297.336 69.707C296.138 70.2148 294.784 70.4688 293.273 70.4688ZM293.469 51.6992C292.375 51.6992 291.385 51.888 290.5 52.2656C289.615 52.6432 288.853 53.1966 288.215 53.9258C287.59 54.6419 287.108 55.5273 286.77 56.582C286.431 57.6237 286.262 58.8086 286.262 60.1367C286.262 61.3867 286.431 62.513 286.77 63.5156C287.108 64.5182 287.583 65.3776 288.195 66.0938C288.82 66.8099 289.576 67.3633 290.461 67.7539C291.346 68.1315 292.336 68.3203 293.43 68.3203C294.549 68.3203 295.539 68.138 296.398 67.7734C297.258 67.3958 297.987 66.8555 298.586 66.1523C299.185 65.4362 299.634 64.5638 299.934 63.5352C300.246 62.5065 300.402 61.3346 300.402 60.0195C300.402 57.3242 299.803 55.2669 298.605 53.8477C297.408 52.4154 295.695 51.6992 293.469 51.6992Z" fill="black"/>
<path d="M316.594 42.7539C316.034 42.3893 315.311 42.207 314.426 42.207C312.082 42.207 310.91 43.737 310.91 46.7969V50H315.891V52.1875H310.91V70H308.41V52.1875H304.914V50H308.41V46.6406C308.41 45.638 308.534 44.7331 308.781 43.9258C309.042 43.1055 309.419 42.4089 309.914 41.8359C310.409 41.25 311.027 40.8008 311.77 40.4883C312.525 40.1758 313.391 40.0195 314.367 40.0195C315.305 40.0195 316.047 40.1432 316.594 40.3906V42.7539Z" fill="black"/>
<path d="M328.41 69.7656C327.551 70.1953 326.613 70.4102 325.598 70.4102C322.368 70.4102 320.754 68.5482 320.754 64.8242V52.1875H317.238V50H320.754V44.9609L323.254 44.1406V50H328.41V52.1875H323.254V64.4336C323.254 65.7878 323.475 66.7643 323.918 67.3633C324.361 67.9622 325.109 68.2617 326.164 68.2617C326.945 68.2617 327.694 68.0273 328.41 67.5586V69.7656Z" fill="black"/>
<path d="M183.039 123.488C181.021 123.488 179.204 123.124 177.59 122.395C175.975 121.652 174.602 120.643 173.469 119.367C172.349 118.091 171.483 116.594 170.871 114.875C170.272 113.143 169.973 111.288 169.973 109.309C169.973 107.121 170.272 105.122 170.871 103.312C171.483 101.49 172.368 99.9336 173.527 98.6445C174.686 97.3424 176.105 96.3333 177.785 95.6172C179.465 94.888 181.379 94.5234 183.527 94.5234C185.507 94.5234 187.284 94.8815 188.859 95.5977C190.435 96.3008 191.776 97.2839 192.883 98.5469C193.99 99.7969 194.836 101.281 195.422 103C196.021 104.719 196.32 106.587 196.32 108.605C196.32 110.728 196.027 112.701 195.441 114.523C194.868 116.333 194.016 117.902 192.883 119.23C191.763 120.559 190.376 121.6 188.723 122.355C187.082 123.111 185.188 123.488 183.039 123.488ZM183.254 96.8867C181.561 96.8867 180.057 97.2122 178.742 97.8633C177.44 98.5013 176.34 99.3737 175.441 100.48C174.543 101.574 173.859 102.863 173.391 104.348C172.935 105.819 172.701 107.388 172.688 109.055C172.674 110.643 172.876 112.167 173.293 113.625C173.723 115.07 174.361 116.353 175.207 117.473C176.066 118.579 177.147 119.465 178.449 120.129C179.751 120.793 181.275 121.125 183.02 121.125C184.764 121.125 186.294 120.826 187.609 120.227C188.938 119.615 190.044 118.775 190.93 117.707C191.815 116.626 192.479 115.344 192.922 113.859C193.378 112.375 193.605 110.754 193.605 108.996C193.605 107.355 193.404 105.799 193 104.328C192.609 102.857 191.991 101.574 191.145 100.48C190.311 99.3737 189.243 98.5013 187.941 97.8633C186.639 97.2122 185.077 96.8867 183.254 96.8867Z" fill="black"/>
<path d="M214.621 123V119.602H214.543C213.189 122.18 211.086 123.469 208.234 123.469C203.482 123.469 201.105 120.565 201.105 114.758V103H203.605V114.289C203.605 116.685 204.029 118.456 204.875 119.602C205.734 120.747 207.043 121.32 208.801 121.32C209.66 121.32 210.441 121.158 211.145 120.832C211.861 120.493 212.473 120.025 212.98 119.426C213.501 118.814 213.905 118.085 214.191 117.238C214.478 116.392 214.621 115.454 214.621 114.426V103H217.121V123H214.621Z" fill="black"/>
<path d="M232.16 122.766C231.301 123.195 230.363 123.41 229.348 123.41C226.118 123.41 224.504 121.548 224.504 117.824V105.188H220.988V103H224.504V97.9609L227.004 97.1406V103H232.16V105.188H227.004V117.434C227.004 118.788 227.225 119.764 227.668 120.363C228.111 120.962 228.859 121.262 229.914 121.262C230.695 121.262 231.444 121.027 232.16 120.559V122.766Z" fill="black"/>
<path d="M236.301 123V93.3906H238.801V123H236.301Z" fill="black"/>
<path d="M253.43 123.469C251.945 123.469 250.611 123.221 249.426 122.727C248.254 122.232 247.251 121.535 246.418 120.637C245.585 119.725 244.947 118.638 244.504 117.375C244.061 116.112 243.84 114.712 243.84 113.176C243.84 111.509 244.074 110.018 244.543 108.703C245.012 107.388 245.676 106.275 246.535 105.363C247.408 104.439 248.456 103.736 249.68 103.254C250.904 102.772 252.271 102.531 253.781 102.531C255.227 102.531 256.529 102.772 257.688 103.254C258.846 103.723 259.829 104.406 260.637 105.305C261.444 106.203 262.062 107.297 262.492 108.586C262.922 109.875 263.137 111.34 263.137 112.98C263.137 114.543 262.909 115.969 262.453 117.258C262.01 118.534 261.372 119.634 260.539 120.559C259.706 121.483 258.69 122.199 257.492 122.707C256.294 123.215 254.94 123.469 253.43 123.469ZM253.625 104.699C252.531 104.699 251.542 104.888 250.656 105.266C249.771 105.643 249.009 106.197 248.371 106.926C247.746 107.642 247.264 108.527 246.926 109.582C246.587 110.624 246.418 111.809 246.418 113.137C246.418 114.387 246.587 115.513 246.926 116.516C247.264 117.518 247.74 118.378 248.352 119.094C248.977 119.81 249.732 120.363 250.617 120.754C251.503 121.132 252.492 121.32 253.586 121.32C254.706 121.32 255.695 121.138 256.555 120.773C257.414 120.396 258.143 119.855 258.742 119.152C259.341 118.436 259.79 117.564 260.09 116.535C260.402 115.507 260.559 114.335 260.559 113.02C260.559 110.324 259.96 108.267 258.762 106.848C257.564 105.415 255.852 104.699 253.625 104.699Z" fill="black"/>
<path d="M276.359 123.469C274.875 123.469 273.54 123.221 272.355 122.727C271.184 122.232 270.181 121.535 269.348 120.637C268.514 119.725 267.876 118.638 267.434 117.375C266.991 116.112 266.77 114.712 266.77 113.176C266.77 111.509 267.004 110.018 267.473 108.703C267.941 107.388 268.605 106.275 269.465 105.363C270.337 104.439 271.385 103.736 272.609 103.254C273.833 102.772 275.201 102.531 276.711 102.531C278.156 102.531 279.458 102.772 280.617 103.254C281.776 103.723 282.759 104.406 283.566 105.305C284.374 106.203 284.992 107.297 285.422 108.586C285.852 109.875 286.066 111.34 286.066 112.98C286.066 114.543 285.839 115.969 285.383 117.258C284.94 118.534 284.302 119.634 283.469 120.559C282.635 121.483 281.62 122.199 280.422 122.707C279.224 123.215 277.87 123.469 276.359 123.469ZM276.555 104.699C275.461 104.699 274.471 104.888 273.586 105.266C272.701 105.643 271.939 106.197 271.301 106.926C270.676 107.642 270.194 108.527 269.855 109.582C269.517 110.624 269.348 111.809 269.348 113.137C269.348 114.387 269.517 115.513 269.855 116.516C270.194 117.518 270.669 118.378 271.281 119.094C271.906 119.81 272.661 120.363 273.547 120.754C274.432 121.132 275.422 121.32 276.516 121.32C277.635 121.32 278.625 121.138 279.484 120.773C280.344 120.396 281.073 119.855 281.672 119.152C282.271 118.436 282.72 117.564 283.02 116.535C283.332 115.507 283.488 114.335 283.488 113.02C283.488 110.324 282.889 108.267 281.691 106.848C280.493 105.415 278.781 104.699 276.555 104.699Z" fill="black"/>
<path d="M302.883 123L293.684 113.254H293.605V123H291.105V93.3906H293.605V112.316H293.684L302.414 103H305.676L296.301 112.668L306.418 123H302.883Z" fill="black"/>
<path d="M119.505 30.0029H57.6911C56.3523 30.0029 55.0683 30.5348 54.1216 31.4815C53.1749 32.4282 52.6431 33.7122 52.6431 35.051V40.7894L87.4835 51.5759L124.553 40.7894V35.051C124.553 33.7122 124.021 32.4282 123.075 31.4815C122.128 30.5348 120.844 30.0029 119.505 30.0029Z" fill="#0364B8"/>
<path d="M130.485 85.392C131.012 83.7367 131.432 82.0493 131.744 80.3404C131.743 79.9205 131.632 79.5081 131.422 79.1446C131.212 78.7811 130.91 78.4793 130.546 78.2694L130.5 78.2406L130.485 78.2334L91.5172 56.0348C91.3491 55.9257 91.1751 55.8261 90.9959 55.7364C90.2506 55.3664 89.4298 55.1738 88.5977 55.1738C87.7656 55.1738 86.9448 55.3664 86.1995 55.7364C86.0203 55.8248 85.8463 55.9233 85.6781 56.0312L46.7101 78.237L46.6957 78.2442L46.6526 78.2694C46.2883 78.4788 45.9855 78.7805 45.7747 79.144C45.5639 79.5076 45.4525 79.9201 45.4517 80.3404C45.7631 82.0493 46.1835 83.7367 46.7101 85.392L88.0296 115.612L130.485 85.392Z" fill="#0A2767"/>
<path d="M102.98 40.7896H77.8117L70.5452 51.5761L77.8117 62.3626L102.98 83.9356H124.553V62.3626L102.98 40.7896Z" fill="#28A8EA"/>
<path d="M52.6431 40.7896H77.8116V62.3626H52.6431V40.7896Z" fill="#0078D4"/>
<path d="M102.98 40.7896H124.553V62.3626H102.98V40.7896Z" fill="#50D9FF"/>
<path d="M102.98 83.9363L77.8116 62.3633H52.6431V83.9363L77.8116 105.509L116.758 111.866L102.98 83.9363Z" fill="#0364B8"/>
<path d="M77.8118 62.3633H102.98V83.9363H77.8118V62.3633Z" fill="#0078D4"/>
<path d="M52.6431 83.936H77.8116V105.509H52.6431V83.936Z" fill="#064A8C"/>
<path d="M102.98 83.936H124.553V105.509H102.98V83.936Z" fill="#0078D4"/>
<path opacity="0.5" d="M89.2806 113.483L46.8789 82.5621L48.6587 79.434C48.6587 79.434 87.2923 101.439 87.882 101.769C88.1232 101.866 88.3818 101.912 88.6415 101.904C88.9013 101.897 89.1567 101.836 89.3921 101.726L128.702 79.3262L130.485 82.4507L89.2806 113.483Z" fill="#0A2767"/>
<path d="M130.546 82.4149L130.496 82.4437L130.485 82.4509L91.517 104.65C90.7431 105.149 89.8541 105.441 88.935 105.498C88.0159 105.555 87.0975 105.376 86.2676 104.977L99.837 123.174L129.514 129.635V129.649C130.205 129.15 130.767 128.494 131.154 127.735C131.542 126.976 131.744 126.136 131.743 125.284V80.3403C131.744 80.7608 131.633 81.1739 131.423 81.5381C131.213 81.9023 130.91 82.2047 130.546 82.4149Z" fill="#1490DF"/>
<path opacity="0.05" d="M131.743 125.284V122.631L95.8496 102.18L91.517 104.65C90.7431 105.149 89.8541 105.441 88.935 105.498C88.0159 105.556 87.0975 105.376 86.2676 104.977L99.837 123.174L129.514 129.635V129.649C130.205 129.15 130.767 128.494 131.154 127.735C131.542 126.976 131.744 126.136 131.743 125.284Z" fill="black"/>
<path opacity="0.1" d="M131.564 126.661L92.2181 104.25L91.517 104.646C90.7434 105.146 89.8545 105.438 88.9354 105.496C88.0164 105.554 87.0978 105.375 86.2676 104.977L99.837 123.174L129.514 129.635V129.649C130.521 128.92 131.244 127.866 131.564 126.665V126.661Z" fill="black"/>
<path d="M46.7102 82.4617V82.4257H46.6742L46.5664 82.3538C46.2226 82.1429 45.9394 81.8466 45.744 81.4938C45.5487 81.141 45.448 80.7436 45.4518 80.3403V125.284C45.4508 125.993 45.5897 126.694 45.8604 127.349C46.1311 128.004 46.5283 128.599 47.0293 129.1C47.5303 129.601 48.1252 129.998 48.78 130.269C49.4348 130.539 50.1365 130.678 50.845 130.677H126.351C126.8 130.673 127.247 130.612 127.681 130.497C127.906 130.458 128.124 130.386 128.328 130.282C128.405 130.274 128.478 130.25 128.544 130.21C128.838 130.09 129.116 129.932 129.371 129.742C129.443 129.706 129.479 129.706 129.515 129.635L46.7102 82.4617Z" fill="#28A8EA"/>
<path opacity="0.1" d="M81.4067 111.503V52.7742C81.4029 51.5043 80.8967 50.2874 79.9987 49.3894C79.1007 48.4914 77.8838 47.9852 76.6139 47.9814H52.7505V74.7895L46.7101 78.234L46.6921 78.2412L46.649 78.2663C46.2848 78.4766 45.9825 78.779 45.7723 79.1432C45.5621 79.5074 45.4515 79.9205 45.4517 80.3409V80.3589V80.3409V116.296H76.6139C77.8838 116.292 79.1007 115.786 79.9987 114.888C80.8967 113.99 81.4029 112.773 81.4067 111.503Z" fill="black"/>
<path opacity="0.2" d="M77.8112 115.098V56.3695C77.8074 55.0995 77.3012 53.8826 76.4032 52.9846C75.5052 52.0866 74.2883 51.5805 73.0184 51.5767H52.7505V74.7892L46.7101 78.2337L46.6921 78.2409L46.649 78.2661C46.2848 78.4763 45.9825 78.7787 45.7723 79.1429C45.5621 79.5071 45.4515 79.9202 45.4517 80.3407V80.3586V80.3407V119.891H73.0184C74.2883 119.887 75.5052 119.381 76.4032 118.483C77.3012 117.585 77.8074 116.368 77.8112 115.098Z" fill="black"/>
<path opacity="0.2" d="M77.8112 107.907V56.3695C77.8074 55.0995 77.3012 53.8826 76.4032 52.9846C75.5052 52.0866 74.2883 51.5805 73.0184 51.5767H52.7505V74.7892L46.7101 78.2337L46.6921 78.2409L46.649 78.2661C46.2848 78.4763 45.9825 78.7787 45.7723 79.1429C45.5621 79.5071 45.4515 79.9202 45.4517 80.3407V80.3586V80.3407V112.7H73.0184C74.2883 112.696 75.5052 112.19 76.4032 111.292C77.3012 110.394 77.8074 109.177 77.8112 107.907Z" fill="black"/>
<path opacity="0.2" d="M74.2157 107.907V56.3695C74.2119 55.0995 73.7057 53.8826 72.8077 52.9846C71.9097 52.0866 70.6928 51.5805 69.4229 51.5767H52.7505V74.7892L46.7101 78.2337L46.6921 78.2409L46.649 78.2661C46.2848 78.4763 45.9825 78.7787 45.7723 79.1429C45.5621 79.5071 45.4515 79.9202 45.4517 80.3407V80.3586V80.3407V112.7H69.4229C70.6928 112.696 71.9097 112.19 72.8077 111.292C73.7057 110.394 74.2119 109.177 74.2157 107.907Z" fill="black"/>
<path d="M21.4803 51.5767H69.4227C70.6938 51.5767 71.9129 52.0816 72.8117 52.9804C73.7105 53.8793 74.2155 55.0983 74.2155 56.3695V104.312C74.2155 105.583 73.7105 106.802 72.8117 107.701C71.9129 108.6 70.6938 109.105 69.4227 109.105H21.4803C20.2092 109.105 18.9901 108.6 18.0913 107.701C17.1925 106.802 16.6875 105.583 16.6875 104.312V56.3695C16.6875 55.0983 17.1925 53.8793 18.0913 52.9804C18.9901 52.0816 20.2092 51.5767 21.4803 51.5767Z" fill="#0078D4"/>
<path d="M30.5921 71.2371C31.8656 68.5229 33.9216 66.2516 36.4959 64.7149C39.3479 63.0822 42.5952 62.2685 45.8801 62.3634C48.9217 62.2974 51.923 63.0686 54.5561 64.5926C57.0346 66.0689 59.0307 68.2337 60.3017 70.8236C61.6862 73.6783 62.3761 76.8199 62.3151 79.9921C62.3817 83.3055 61.6712 86.5884 60.2405 89.5777C58.942 92.2598 56.8857 94.5023 54.3259 96.028C51.5896 97.6006 48.4744 98.3928 45.3192 98.3183C42.2108 98.3924 39.1417 97.6126 36.4455 96.064C33.9472 94.5852 31.9275 92.4183 30.628 89.8222C29.234 87.0096 28.5349 83.9037 28.5894 80.7651C28.5291 77.4787 29.2138 74.2212 30.5921 71.2371ZM36.8842 86.5467C37.5626 88.2625 38.7133 89.7509 40.2028 90.8397C41.7207 91.9021 43.539 92.4502 45.3911 92.4038C47.3642 92.4805 49.3087 91.9139 50.9318 90.7894C52.4048 89.7012 53.5261 88.2048 54.157 86.4856C54.8643 84.5701 55.2129 82.5408 55.1853 80.4991C55.2072 78.438 54.8789 76.3882 54.2145 74.4371C53.6282 72.6818 52.5469 71.1335 51.1008 69.9787C49.5205 68.7976 47.5816 68.197 45.6105 68.278C43.718 68.2302 41.859 68.7827 40.2999 69.8564C38.7811 70.947 37.6039 72.4472 36.9057 74.1818C35.3613 78.1584 35.3524 82.5674 36.8806 86.5503L36.8842 86.5467Z" fill="white"/>
</svg>
