<svg width="400" height="160" viewBox="0 0 400 160" fill="none" xmlns="http://www.w3.org/2000/svg">
<path d="M122.034 38.8154C103.365 20.4784 73.0314 20.4044 54.2674 38.6042L54.0472 38.8195C35.3131 57.2327 35.319 87.1865 54.0584 105.593L83.0032 134.021C83.6031 134.612 84.3161 135.08 85.1011 135.399C85.8861 135.719 86.7275 135.882 87.5771 135.881C89.2318 135.881 90.8913 135.263 92.1541 134.021C94.6777 131.538 94.6777 127.513 92.1541 125.032L63.2049 96.6013C49.5524 83.1924 49.5087 61.3918 63.0779 47.9264L63.2101 47.7991C76.9081 34.3516 99.1924 34.3557 112.882 47.8035C124.123 58.8468 125.736 77.7452 116.627 91.7683C114.706 94.7251 115.591 98.6551 118.601 100.543C121.618 102.436 125.613 101.563 127.533 98.607C140.033 79.3666 137.72 54.2231 122.034 38.8154ZM110.45 107.051C112.975 109.533 112.978 113.559 110.45 116.038C109.851 116.63 109.139 117.099 108.355 117.42C107.57 117.74 106.729 117.904 105.88 117.903C105.029 117.904 104.186 117.74 103.4 117.42C102.614 117.101 101.9 116.632 101.298 116.041L72.3547 87.6129C63.708 79.1165 63.708 65.2891 72.3547 56.7909C76.5446 52.6791 82.1144 50.4124 88.0392 50.4124H88.0456C93.9693 50.4124 99.5399 52.682 103.727 56.8004C106.559 59.58 108.571 63.0609 109.552 66.8736C110.532 70.6863 110.443 74.6887 109.294 78.4558C108.266 81.8192 104.668 83.7343 101.242 82.7274C97.818 81.7246 95.8688 78.1826 96.8889 74.817C97.3698 73.2469 97.4086 71.5782 97.0011 69.9883C96.5936 68.3983 95.7551 66.9466 94.5747 65.7874C92.829 64.0703 90.5117 63.1254 88.0426 63.1243H88.0389C85.5693 63.1243 83.2521 64.0681 81.5052 65.7812C77.9018 69.321 77.9018 75.0824 81.5052 78.623L110.45 107.05" fill="#5191BE"/>
<path d="M196.805 67.6173C196.805 74.2103 194.646 79.2631 190.327 82.7755C186.008 86.2879 179.862 88.0441 171.887 88.0441H165.322V111.667H155.001V48.5292H173.182C181.071 48.5292 186.973 50.1415 190.888 53.366C194.833 56.5905 196.805 61.341 196.805 67.6173ZM165.322 79.3638H170.807C176.104 79.3638 179.991 78.4425 182.467 76.5999C184.943 74.7573 186.181 71.8783 186.181 67.9628C186.181 64.3352 185.073 61.6289 182.856 59.8439C180.639 58.0588 177.184 57.1663 172.491 57.1663H165.322V79.3638Z" fill="#4F5154"/>
<path d="M244.51 87.6987C244.51 95.5009 242.509 101.59 238.507 105.966C234.505 110.342 228.934 112.53 221.794 112.53C217.331 112.53 213.387 111.523 209.961 109.507C206.535 107.492 203.901 104.599 202.058 100.827C200.215 97.0556 199.294 92.6794 199.294 87.6987C199.294 79.954 201.281 73.908 205.254 69.5606C209.227 65.2133 214.827 63.0396 222.053 63.0396C228.963 63.0396 234.433 65.2709 238.464 69.7334C242.494 74.1671 244.51 80.1555 244.51 87.6987ZM209.745 87.6987C209.745 98.7254 213.819 104.239 221.967 104.239C230.028 104.239 234.059 98.7254 234.059 87.6987C234.059 76.7871 229.999 71.3313 221.88 71.3313C217.619 71.3313 214.524 72.742 212.595 75.5635C210.695 78.3849 209.745 82.43 209.745 87.6987Z" fill="#4F5154"/>
<path d="M266.13 112.53C260.17 112.53 255.521 110.371 252.181 106.053C248.841 101.734 247.171 95.6736 247.171 87.8714C247.171 80.0404 248.856 73.9512 252.224 69.6038C255.621 65.2277 260.314 63.0396 266.303 63.0396C272.579 63.0396 277.358 65.3572 280.64 69.9925H281.159C280.669 66.5664 280.425 63.8601 280.425 61.8736V44.4697H290.616V111.667H282.67L280.9 105.405H280.425C277.171 110.155 272.406 112.53 266.13 112.53ZM268.851 104.325C273.025 104.325 276.063 103.159 277.963 100.827C279.863 98.4663 280.842 94.6516 280.9 89.3829V87.9578C280.9 81.9406 279.921 77.6652 277.963 75.1316C276.005 72.598 272.939 71.3313 268.764 71.3313C265.194 71.3313 262.445 72.7852 260.516 75.693C258.587 78.5721 257.622 82.6891 257.622 88.0441C257.622 93.3416 258.558 97.3867 260.43 100.179C262.301 102.943 265.108 104.325 268.851 104.325Z" fill="#4F5154"/>
<path d="M309.084 111.667H298.936V63.9033H309.084V111.667ZM298.331 51.2499C298.331 49.4361 298.821 48.0397 299.799 47.0609C300.807 46.082 302.232 45.5926 304.075 45.5926C305.86 45.5926 307.242 46.082 308.221 47.0609C309.228 48.0397 309.732 49.4361 309.732 51.2499C309.732 52.9773 309.228 54.3449 308.221 55.3525C307.242 56.3314 305.86 56.8209 304.075 56.8209C302.232 56.8209 300.807 56.3314 299.799 55.3525C298.821 54.3449 298.331 52.9773 298.331 51.2499Z" fill="#4F5154"/>
<path d="M359.812 87.6987C359.812 95.5009 357.811 101.59 353.809 105.966C349.807 110.342 344.236 112.53 337.096 112.53C332.634 112.53 328.689 111.523 325.263 109.507C321.837 107.492 319.203 104.599 317.36 100.827C315.518 97.0556 314.597 92.6794 314.597 87.6987C314.597 79.954 316.583 73.908 320.556 69.5606C324.529 65.2133 330.129 63.0396 337.355 63.0396C344.265 63.0396 349.735 65.2709 353.766 69.7334C357.797 74.1671 359.812 80.1555 359.812 87.6987ZM325.048 87.6987C325.048 98.7254 329.121 104.239 337.269 104.239C345.33 104.239 349.361 98.7254 349.361 87.6987C349.361 76.7871 345.302 71.3313 337.183 71.3313C332.922 71.3313 329.827 72.742 327.898 75.5635C325.998 78.3849 325.048 82.43 325.048 87.6987Z" fill="#4F5154"/>
</svg>
