<svg width="400" height="160" viewBox="0 0 400 160" fill="none" xmlns="http://www.w3.org/2000/svg">
<path d="M20.3634 60.6061C17.3992 56.0603 12.7751 52.7723 7.40234 51.6867L7.21109 51.6402C6.89166 51.5859 6.57223 51.5261 6.25017 51.4854L5.91761 51.4363C5.62971 51.4062 5.33364 51.3847 5.04312 51.3519L4.69478 51.3246C4.30333 51.3016 3.91134 51.2898 3.51926 51.2891H3.49824C1.80416 51.2891 0.392716 52.5386 0.065404 54.1907C0.0210227 54.4247 0 54.6642 0 54.92C0 55.1677 0.0210227 55.4129 0.065404 55.6469C0.392716 57.3102 1.80416 58.5592 3.49824 58.5592C10.869 58.5592 16.8626 64.7949 16.8626 72.4623V80.4157C16.8626 82.3236 18.2766 83.8642 20.0752 84.0193L20.3634 84.0521C20.6201 84.0521 20.8715 84.0193 21.1071 83.965C22.6809 83.6165 23.8643 82.1575 23.8643 80.4157V72.4623C23.8643 68.0614 22.5734 63.9785 20.3739 60.5924L20.3634 60.6061Z" fill="#1D4C5D"/>
<path d="M37.226 86.0933C34.2594 81.5478 29.6353 78.2626 24.2649 77.1711L24.071 77.1305C23.7542 77.0758 23.4374 77.0242 23.1101 76.9754L22.7828 76.9289C22.4923 76.891 22.2017 76.8691 21.9057 76.8473L21.5652 76.8148C21.1702 76.7933 20.7748 76.7815 20.3792 76.7793H20.3608C19.5563 76.7791 18.7764 77.067 18.1521 77.5945C17.5279 78.1219 17.0974 78.8568 16.9332 79.6754C16.8854 79.9172 16.8617 80.1634 16.8626 80.4103C16.8626 80.6607 16.8859 80.9029 16.9332 81.1423C17.2605 82.8026 18.672 84.0467 20.3608 84.0467C27.7316 84.0467 33.7277 90.2879 33.7277 97.9526V105.906C33.7277 107.814 35.1392 109.357 36.9378 109.515L37.226 109.542C37.48 109.542 37.7311 109.51 37.9749 109.458C39.5487 109.101 40.7242 107.645 40.7242 105.906V97.9526C40.7242 93.5516 39.4412 89.4632 37.2365 86.0881L37.226 86.0936" fill="#207D9D"/>
<path d="M37.226 86.0933C40.1955 81.5478 44.8246 78.2626 50.1898 77.1711L50.3836 77.1305C50.6952 77.0758 51.0173 77.0242 51.3393 76.9754L51.6745 76.9289C51.965 76.891 52.2555 76.8691 52.5516 76.8473L52.8921 76.8148C53.2862 76.7934 53.6808 76.7815 54.0755 76.7793H54.0965C55.7906 76.7793 57.1994 78.0231 57.5241 79.6754C57.5658 79.9092 57.5947 80.1544 57.5947 80.4103C57.5947 80.6607 57.5658 80.9029 57.5241 81.1423C57.3628 81.9632 56.9334 82.7009 56.3086 83.2302C55.6838 83.7596 54.9022 84.048 54.0962 84.0467C46.7231 84.0467 40.7243 90.2879 40.7243 97.9526V105.906C40.7243 107.814 39.3128 109.357 37.5166 109.515L37.226 109.542H37.2231C36.9694 109.542 36.7232 109.51 36.4876 109.458C34.9112 109.101 33.7255 107.645 33.7255 105.906V97.9526C33.7255 93.5516 35.016 89.4632 37.2208 86.0881L37.226 86.0936" fill="#51A5CD"/>
<path d="M20.3606 60.6061C23.3301 56.0603 27.9539 52.7723 33.3296 51.6867L33.5182 51.6402C33.835 51.5859 34.1518 51.5261 34.4765 51.4854L34.8117 51.4363C35.0969 51.4062 35.3927 51.3847 35.6835 51.3519L36.0292 51.3246C36.4215 51.3018 36.8142 51.2899 37.2071 51.2891H37.2255C38.9222 51.2891 40.3336 52.5386 40.6557 54.1907C40.7027 54.4247 40.7237 54.6642 40.7237 54.92C40.7237 55.1677 40.7027 55.4129 40.6557 55.6469C40.4954 56.4694 40.0661 57.2089 39.4408 57.7397C38.8156 58.2706 38.0328 58.5601 37.2255 58.5592C29.8599 58.5592 23.8638 64.7949 23.8638 72.4623V80.4157C23.8638 82.3236 22.4471 83.8642 20.6508 84.0193L20.3603 84.0521C20.1063 84.0521 19.8575 84.0193 19.6114 83.9701C18.0428 83.6165 16.8621 82.1575 16.8621 80.4157V72.4623C16.8621 68.0614 18.1477 63.9785 20.3524 60.5979L20.3603 60.6061" fill="#1C5470"/>
<path d="M54.0963 60.6061C51.1298 56.0606 46.5054 52.7723 41.1379 51.6867L40.9466 51.6402C40.6219 51.5859 40.3078 51.5316 39.9857 51.4854L39.6479 51.4363C39.36 51.4062 39.0692 51.3847 38.7787 51.3519L38.4382 51.3246C38.0432 51.3019 37.6478 51.29 37.2522 51.2891H37.2259C35.5371 51.2891 34.1256 52.5386 33.8009 54.1907C33.7566 54.4247 33.7329 54.6642 33.7329 54.92C33.7329 55.1677 33.7563 55.4129 33.8009 55.6469C34.1256 57.3102 35.5371 58.5592 37.2259 58.5592C44.5993 58.5592 50.5981 64.7949 50.5981 72.4623V80.4157C50.5981 82.3236 52.0095 83.8642 53.8082 84.0248L54.0963 84.0521C54.3556 84.0521 54.6044 84.0193 54.8427 83.965C56.4188 83.6165 57.5972 82.1575 57.5972 80.4157V72.4623C57.5972 68.0614 56.314 63.9785 54.1016 60.5979L54.0963 60.6061Z" fill="#247EA2"/>
<path d="M54.0965 60.6061C57.068 56.0603 61.6924 52.7723 67.0603 51.6867L67.2541 51.6402C67.5736 51.5859 67.893 51.5261 68.2148 51.4854L68.5503 51.4363C68.8382 51.4062 69.1287 51.3847 69.4247 51.3519L69.7678 51.3246C70.161 51.3017 70.5548 51.2899 70.9486 51.2891H70.9696C72.6558 51.2891 74.0722 52.5386 74.3946 54.1907C74.4442 54.4247 74.4676 54.6642 74.4676 54.92C74.4676 55.1677 74.4442 55.4129 74.3946 55.6469C74.0722 57.3102 72.6558 58.5592 70.9696 58.5592C63.5988 58.5592 57.5997 64.7949 57.5997 72.4623V80.4157C57.5997 82.3236 56.1859 83.8642 54.3897 84.0193L54.0965 84.0521C53.8425 84.0521 53.5963 84.0193 53.3578 83.9701C51.779 83.6165 50.5983 82.1575 50.5983 80.4157V72.4623C50.5983 68.0614 51.8865 63.9785 54.0913 60.5979L54.0965 60.6061Z" fill="#3298B5"/>
<path d="M54.0808 84.0521C54.0311 84.0521 53.9786 84.0491 53.929 84.0467H53.9342C53.9838 84.0494 54.0335 84.0521 54.0808 84.0521ZM54.1123 84.0521H54.1202H54.1123ZM54.1225 84.0521C54.3648 84.0484 54.6062 84.0192 54.8428 83.965C55.2119 83.8836 55.5656 83.74 55.8902 83.54C55.3554 83.8715 54.7451 84.0483 54.1225 84.0521Z" fill="#3398B5"/>
<path d="M53.9291 84.047C53.7684 84.039 53.6083 84.0199 53.4499 83.9899C53.607 84.0172 53.7694 84.0385 53.9344 84.047H53.9291ZM50.6558 81.0719C50.6167 80.8595 50.5983 80.6391 50.5983 80.416V80.4785C50.5983 80.4816 50.6009 80.4867 50.6009 80.4895V80.5629C50.6009 80.5684 50.6009 80.5711 50.6035 80.5766V80.6012C50.6088 80.7347 50.6245 80.8652 50.6426 80.9957C50.6426 81.0012 50.6456 81.0067 50.6456 81.0148C50.6456 81.0148 50.6456 81.0176 50.6479 81.0176V81.034C50.6479 81.034 50.6508 81.0367 50.6508 81.0394C50.6508 81.0446 50.6508 81.0473 50.6532 81.0528V81.0637C50.6561 81.0668 50.6561 81.0692 50.6561 81.0719" fill="#007FA5"/>
<path d="M54.0965 84.0521L54.3896 84.0193C54.9072 83.9763 55.4091 83.814 55.8588 83.5443C56.3085 83.2745 56.6949 82.9041 56.9898 82.4598C56.7033 82.899 56.328 83.2677 55.8901 83.5404C55.5656 83.7403 55.2118 83.8837 54.8428 83.965C54.6121 84.0166 54.3713 84.0494 54.1225 84.0521H54.0965ZM50.6558 81.0716C50.6558 81.0688 50.6558 81.0661 50.6532 81.0634C50.6561 81.0664 50.6561 81.0688 50.6561 81.0716H50.6558ZM50.6532 81.0524C50.6505 81.047 50.6505 81.0442 50.6505 81.0391C50.6505 81.0442 50.6505 81.047 50.6534 81.0524H50.6532ZM50.6479 81.0336V81.0172V81.0336ZM50.6453 81.0145C50.6453 81.0063 50.6426 81.0008 50.6426 80.9954C50.6426 81.0008 50.6456 81.0063 50.6456 81.0145H50.6453ZM50.6035 80.5978V80.5817V80.5981V80.5978ZM50.6035 80.5762C50.6006 80.5707 50.6006 80.568 50.6006 80.5626C50.6006 80.568 50.6006 80.5707 50.6035 80.5762ZM50.6006 80.5544V80.5407V80.5544ZM50.6006 80.5328V80.5219V80.5328ZM50.6006 80.511V80.5V80.511ZM50.6006 80.4891C50.6006 80.4864 50.5983 80.4809 50.5983 80.4782C50.5983 80.4812 50.6009 80.4864 50.6009 80.4891H50.6006ZM50.5983 80.4672V80.4563V80.4672ZM50.5983 80.443V80.4375V80.443Z" fill="#00698B"/>
<path d="M54.0965 84.0522H54.0807C53.8692 84.0481 53.6583 84.0272 53.4498 83.9897C52.7672 83.8552 52.1386 83.5126 51.6439 83.0056C51.1492 82.4987 50.8107 81.8502 50.6716 81.1427C50.6663 81.1208 50.661 81.0962 50.6558 81.0717C50.6558 81.0689 50.6558 81.0662 50.6532 81.0635V81.0525C50.6505 81.0471 50.6505 81.0443 50.6505 81.0392C50.6505 81.0361 50.6479 81.0337 50.6479 81.0337V81.0173C50.6453 81.0173 50.6453 81.0143 50.6453 81.0143C50.6453 81.0064 50.6426 81.0009 50.6426 80.9955C50.6245 80.865 50.6088 80.7344 50.6035 80.6009V80.5763C50.6006 80.5709 50.6006 80.5681 50.6006 80.5627V80.4892C50.6006 80.4865 50.5983 80.481 50.5983 80.4783V77.0977C50.8494 77.0597 51.0905 77.0133 51.3393 76.9754L51.6745 76.9289C51.965 76.891 52.2556 76.8691 52.5516 76.8473L52.8921 76.8148C53.2862 76.7934 53.6808 76.7815 54.0755 76.7793H54.0965L54.5103 76.8203L54.6542 76.8309L54.5103 76.8203L54.6907 76.8364L54.7666 76.8527L55.2484 76.9863L55.3351 77.0136C55.4817 77.0734 55.6256 77.1441 55.7643 77.223L55.8455 77.2637L55.7643 77.223C55.8037 77.2473 55.8455 77.2719 55.8849 77.2965L55.8455 77.2692L55.8849 77.2965C56.0262 77.3836 56.1597 77.4786 56.2855 77.5824L56.3798 77.6719L56.6806 77.9743L56.7725 78.0805L57.0841 78.5157C57.2915 78.8742 57.4402 79.266 57.5241 79.6752C57.5685 79.9149 57.5948 80.1653 57.5948 80.4158C57.5948 80.6662 57.5685 80.9084 57.5241 81.1424C57.4322 81.6141 57.2505 82.0619 56.9898 82.4596C56.695 82.904 56.3087 83.2746 55.8589 83.5444C55.4092 83.8142 54.9073 83.9766 54.3897 84.0197L54.0965 84.0522ZM56.6677 77.9579L56.3953 77.6829L56.6677 77.9579Z" fill="#007A97"/>
<path d="M20.3608 84.0525H20.3605H20.3608ZM20.345 84.0525H20.3372H20.345ZM20.416 84.0494C20.4525 84.0494 20.489 84.0494 20.5258 84.047H20.531C20.4916 84.0497 20.4551 84.0497 20.4157 84.0497L20.416 84.0494ZM17.2293 82.0383C17.093 81.7548 16.9935 81.4537 16.9332 81.1429C16.8882 80.9099 16.8645 80.6729 16.8625 80.4351V80.4433C16.8652 80.4488 16.8652 80.454 16.8652 80.4567V80.552C16.8652 80.5575 16.8678 80.5629 16.8678 80.5684V80.593C16.8678 80.6203 16.8704 80.6476 16.8731 80.6746V80.6801C16.8836 80.8349 16.9046 80.9903 16.9332 81.1426C16.9647 81.3035 17.0065 81.4583 17.0564 81.6082C17.1061 81.7551 17.1636 81.8996 17.2293 82.0383ZM16.8625 80.4351V80.416V80.4351Z" fill="#217C9C"/>
<path d="M20.3634 84.0521L20.4078 84.0466H20.5258C20.489 84.0494 20.4525 84.0494 20.4157 84.0494C20.3999 84.0521 20.3818 84.0521 20.3632 84.0521H20.3634ZM16.8678 80.5735V80.568V80.5735ZM16.8652 80.5516V80.5462V80.5516ZM16.8652 80.5301V80.5219V80.5301ZM16.8652 80.5082V80.5V80.5082ZM16.8652 80.4891V80.4782V80.4891ZM16.8652 80.4672V80.4563V80.4672ZM16.8625 80.443V80.4375V80.443Z" fill="#1C3C4C"/>
<path d="M20.5313 84.0465H20.408L20.6516 84.0192C21.1948 83.9735 21.7205 83.797 22.1868 83.5036C22.6531 83.2103 23.0472 82.8081 23.3381 82.3289C22.7463 83.3168 21.7147 83.9891 20.5313 84.0465ZM17.0567 81.6077C17.0058 81.4555 16.9646 81.3 16.9334 81.1422C16.9042 80.9894 16.8842 80.8349 16.8733 80.6796C16.8943 81.0034 16.9571 81.3139 17.0567 81.6077ZM16.8733 80.6769V80.6738V80.6769Z" fill="#075C79"/>
<path d="M20.3608 84.0524H20.3372C20.1547 84.0499 19.9727 84.0335 19.7926 84.0033C18.6667 83.813 17.7239 83.0642 17.229 82.0383C17.1634 81.8985 17.1058 81.7549 17.0564 81.6082C16.9569 81.3141 16.8941 81.0039 16.8731 80.68V80.6746C16.87 80.6473 16.8682 80.62 16.8678 80.5926V80.5683C16.8678 80.5629 16.8652 80.5574 16.8652 80.5519V80.4566C16.8652 80.4539 16.8652 80.4487 16.8625 80.4433V80.4378V80.3886L16.9332 79.6754C17.0975 78.8568 17.528 78.1221 18.1523 77.5947C18.7765 77.0674 19.5564 76.7796 20.3608 76.7798H20.3792C20.7821 76.7798 21.1725 76.7959 21.5652 76.815L21.9057 76.8475C22.2015 76.8693 22.4923 76.8912 22.7828 76.9294L23.1101 76.9756C23.3668 77.0135 23.6129 77.0599 23.8643 77.0979V80.416L23.8012 81.0965L23.791 81.1371V81.1426C23.7078 81.5626 23.5544 81.9643 23.3379 82.3294C23.0471 82.8085 22.6529 83.2108 22.1867 83.5042C21.7204 83.7977 21.1949 83.9742 20.6516 84.02L20.4078 84.047L20.3634 84.0524H20.3605" fill="#1E445B"/>
<path d="M70.9692 58.5592C69.2754 58.5592 67.864 57.3099 67.5393 55.6469C67.4927 55.4077 67.4699 55.1641 67.4712 54.92C67.4712 54.6642 67.4923 54.4247 67.5393 54.1907C67.7027 53.3706 68.1331 52.6343 68.7579 52.1057C69.3828 51.5771 70.1639 51.2887 70.9695 51.2891C72.6557 51.2891 74.0721 52.5386 74.3944 54.1907C74.444 54.4247 74.4674 54.6642 74.4674 54.92C74.4674 55.1677 74.444 55.4129 74.3944 55.6469C74.0721 57.3102 72.6557 58.5592 70.9695 58.5592" fill="#007A97"/>
<path d="M37.2259 58.5592C35.5371 58.5592 34.1256 57.3099 33.8009 55.6469C33.7556 55.4075 33.7328 55.164 33.7329 54.92C33.7329 54.6642 33.7563 54.4247 33.8009 54.1907C34.1256 52.5386 35.5371 51.2891 37.2259 51.2891C38.9227 51.2891 40.3341 52.5386 40.6562 54.1907C40.7032 54.4247 40.7242 54.6642 40.7242 54.92C40.7242 55.1677 40.7032 55.4129 40.6562 55.6469C40.4958 56.4694 40.0666 57.2089 39.4413 57.7397C38.816 58.2706 38.0333 58.5601 37.2259 58.5592Z" fill="#1E455E"/>
<path d="M37.2417 109.542C37.4881 109.538 37.7335 109.51 37.9746 109.457C38.5993 109.314 39.1744 108.995 39.6377 108.537C40.1011 108.078 40.4351 107.497 40.6036 106.855V106.85C40.6036 106.847 40.6066 106.844 40.6066 106.842C40.669 106.591 40.7085 106.335 40.719 106.069C40.7216 106.061 40.7216 106.055 40.7216 106.05V105.968C40.7216 105.965 40.7242 105.963 40.7242 105.957V105.905C40.7242 106.161 40.7032 106.401 40.6562 106.638C40.3368 108.292 38.9332 109.534 37.2417 109.542ZM37.1865 109.542H37.1839H37.1868H37.1865ZM37.1737 109.542C36.5743 109.533 35.9873 109.363 35.4691 109.05C34.9509 108.737 34.5189 108.291 34.2147 107.754C34.5208 108.289 34.9533 108.734 35.471 109.047C35.9888 109.36 36.5749 109.53 37.1737 109.542Z" fill="#52A5CD"/>
<path d="M37.2262 109.542L37.5167 109.514C39.0041 109.384 40.2269 108.303 40.6039 106.856C40.4353 107.497 40.1013 108.078 39.638 108.537C39.1747 108.995 38.5997 109.314 37.9751 109.457C37.7369 109.509 37.4904 109.539 37.242 109.542H37.2262ZM40.6039 106.85C40.6039 106.847 40.6068 106.844 40.6068 106.842C40.6068 106.845 40.6039 106.847 40.6039 106.85ZM40.7218 106.05V106.047V106.05ZM40.7218 106.031V106.025V106.031ZM40.7218 106.012V106.003V106.012ZM40.7218 105.99V105.982V105.99ZM40.7218 105.968C40.7218 105.965 40.7245 105.963 40.7245 105.957C40.7245 105.963 40.7215 105.965 40.7215 105.968H40.7218ZM40.7245 105.949V105.935V105.949ZM40.7245 105.927V105.905V105.927Z" fill="#006D93"/>
<path d="M37.2259 109.542H37.1737C36.5748 109.53 35.9888 109.36 35.471 109.047C34.9532 108.734 34.5208 108.289 34.2147 107.754C34.0179 107.408 33.8781 107.031 33.8009 106.638C33.7566 106.401 33.7329 106.161 33.7329 105.905C33.7329 105.65 33.7563 105.41 33.8009 105.176C33.963 104.356 34.3924 103.62 35.0164 103.091C35.6404 102.563 36.4209 102.274 37.2259 102.274C38.9227 102.274 40.3341 103.519 40.6562 105.176C40.7032 105.41 40.7242 105.65 40.7242 105.905V105.957C40.7242 105.963 40.7213 105.965 40.7213 105.968V106.05C40.7213 106.055 40.7213 106.061 40.719 106.069C40.7085 106.335 40.6693 106.591 40.6063 106.842C40.6063 106.845 40.6036 106.847 40.6036 106.85V106.855C40.2267 108.303 39.0038 109.384 37.5165 109.515L37.2259 109.542" fill="#0086B8"/>
<path d="M3.49798 58.5592C1.80419 58.5592 0.392745 57.3099 0.0654327 55.6469C0.0209983 55.4074 -0.000906284 55.164 2.87098e-05 54.92C2.87098e-05 54.6642 0.0210514 54.4247 0.0654327 54.1907C0.392745 52.5386 1.80448 51.2891 3.49827 51.2891C5.18709 51.2891 6.60116 52.5386 6.92585 54.1907C6.9676 54.4247 6.99651 54.6642 6.99651 54.92C6.99651 55.1677 6.9676 55.4129 6.92585 55.6469C6.60116 57.3102 5.18709 58.5592 3.49798 58.5592Z" fill="#1D3C4B"/>
<path fill-rule="evenodd" clip-rule="evenodd" d="M99.0301 63.5455C101.959 63.5455 104.631 64.3016 107.021 65.821C109.41 67.2992 111.268 69.382 112.597 72.0374C113.971 74.7004 114.646 77.6887 114.646 80.9798C114.646 84.272 113.97 87.2613 112.596 89.925C111.266 92.5412 109.409 94.6194 107.027 96.135C104.64 97.6536 102.008 98.4141 99.1513 98.4141C96.8952 98.4141 94.7775 97.9137 92.8128 96.9095C91.7188 96.3504 90.7324 95.7165 89.8583 95.0058V106.071C89.8583 107.137 89.4757 108.077 88.7272 108.832C87.9923 109.616 87.0312 109.99 85.9392 109.99C84.8662 109.99 83.9215 109.603 83.1643 108.846C82.4222 108.103 82.0806 107.146 82.0806 106.071V67.9495C82.0806 66.8735 82.4218 65.9127 83.1384 65.141C83.8748 64.3478 84.8408 63.9697 85.9392 63.9697C87.0311 63.9697 87.9922 64.3434 88.7271 65.1272C89.2922 65.6973 89.6431 66.378 89.7854 67.1396C90.5977 66.4141 91.5414 65.7631 92.6083 65.1832C94.6139 64.0932 96.7594 63.5455 99.0301 63.5455ZM107.111 80.9798C107.111 82.9411 106.716 84.6828 105.945 86.225L105.94 86.2339C105.21 87.7315 104.18 88.9024 102.844 89.7687C101.52 90.6275 100.036 91.0606 98.3634 91.0606C96.641 91.0606 95.1343 90.6426 93.8141 89.8241C92.4864 88.9608 91.4365 87.7731 90.6651 86.2337C89.9317 84.6898 89.5553 82.9447 89.5553 80.9798C89.5553 79.0149 89.9317 77.2697 90.6652 75.7258C91.4365 74.1867 92.4843 73.0229 93.8059 72.2015L93.8222 72.1909C95.1425 71.3344 96.6461 70.899 98.3634 70.899C100.036 70.899 101.52 71.3321 102.844 72.1909C104.174 73.0533 105.204 74.2396 105.936 75.7777L105.943 75.7909L105.949 75.8039C106.716 77.3005 107.111 79.0181 107.111 80.9798Z" fill="#636467"/>
<path d="M138.843 64.3987C137.887 63.6991 136.768 63.3636 135.531 63.3636L135.513 63.3638C133.059 63.4076 130.843 64.112 128.895 65.4829C127.976 66.1098 127.166 66.8326 126.465 67.6492C126.388 66.7308 126.012 65.9171 125.349 65.2484C124.614 64.4647 123.653 64.0909 122.561 64.0909C121.488 64.0909 120.543 64.478 119.786 65.2352L119.773 65.2485L119.76 65.2622C119.053 66.0241 118.702 66.9602 118.702 68.0101V93.9495C118.702 95.0255 119.043 95.9863 119.76 96.758L119.773 96.7717L119.786 96.785C120.528 97.527 121.486 97.8687 122.561 97.8687C123.653 97.8687 124.614 97.4949 125.349 96.7112C126.097 95.9562 126.48 95.0162 126.48 93.9495V79.3434C126.48 77.6218 126.816 76.1005 127.467 74.76C128.175 73.3454 129.046 72.2915 130.062 71.5555L130.067 71.5519C131.142 70.764 132.169 70.4141 133.167 70.4141C133.487 70.4141 134.03 70.5142 134.847 70.7865C135.59 71.0339 136.266 71.202 136.803 71.202C137.78 71.202 138.649 70.8656 139.336 70.1789C140.103 69.4115 140.419 68.3746 140.419 67.2222C140.419 66.0322 139.829 65.0786 138.843 64.3987Z" fill="#636467"/>
<path fill-rule="evenodd" clip-rule="evenodd" d="M148.211 96.216L148.217 96.2196C150.841 97.7249 153.722 98.4747 156.841 98.4747C159.959 98.4747 162.822 97.7255 165.407 96.2178C168.03 94.7123 170.098 92.6213 171.6 89.9612C173.107 87.2904 173.851 84.2882 173.851 80.9798C173.851 77.6711 173.107 74.6515 171.603 71.9438C170.102 69.2429 168.034 67.1286 165.408 65.6207C162.822 64.1129 159.959 63.3636 156.841 63.3636C153.722 63.3636 150.841 64.1135 148.217 65.6188L148.211 65.6224C145.624 67.1315 143.578 69.246 142.079 71.9438C140.575 74.6515 139.831 77.6711 139.831 80.9798C139.831 84.2882 140.575 87.2904 142.083 89.9612C143.583 92.6181 145.628 94.7092 148.211 96.216ZM161.48 72.0317C162.879 72.8571 163.983 74.0429 164.79 75.6217L164.804 75.6468C165.642 77.1769 166.073 78.9456 166.073 80.9798C166.073 82.9701 165.643 84.7193 164.804 86.2521L164.795 86.2687C163.988 87.8094 162.88 89.0044 161.466 89.8752C160.099 90.7021 158.566 91.1212 156.841 91.1212C155.121 91.1212 153.566 90.704 152.155 89.8751C150.783 89.0052 149.672 87.8083 148.823 86.2604C148.021 84.7264 147.609 82.9739 147.609 80.9798C147.609 78.9402 148.023 77.167 148.825 75.6346C149.677 74.0427 150.788 72.8515 152.152 72.0258L152.158 72.0219C153.571 71.1528 155.124 70.7172 156.841 70.7172C158.558 70.7172 160.087 71.1527 161.453 72.0156L161.466 72.0239L161.48 72.0317Z" fill="#636467"/>
<path fill-rule="evenodd" clip-rule="evenodd" d="M201.886 96.758L201.898 96.7717L201.911 96.785C202.654 97.527 203.611 97.8687 204.686 97.8687C205.778 97.8687 206.739 97.4949 207.474 96.7112C208.223 95.9562 208.606 95.0162 208.606 93.9495V54.9192C208.606 53.8335 208.236 52.8772 207.462 52.144C206.728 51.3695 205.772 51 204.686 51C203.594 51 202.633 51.3738 201.898 52.1576C201.165 52.8979 200.828 53.8506 200.828 54.9192V66.7014C199.95 65.9713 198.958 65.3379 197.857 64.7996C195.893 63.8393 193.76 63.3636 191.474 63.3636C188.618 63.3636 185.985 64.1241 183.599 65.6428C181.211 67.1621 179.335 69.2841 177.968 71.9769L177.965 71.9826C176.634 74.6446 175.979 77.6307 175.979 80.9192C175.979 84.2129 176.656 87.2207 178.028 89.9221L178.031 89.9279C179.4 92.5802 181.276 94.6788 183.659 96.1956C186.051 97.7175 188.725 98.4747 191.656 98.4747C193.925 98.4747 196.052 97.9277 198.021 96.8351C199.109 96.243 200.074 95.5717 200.907 94.8182C201.046 95.5448 201.368 96.2008 201.886 96.758ZM199.896 86.2425C199.163 87.7806 198.133 88.9669 196.803 89.8293L196.793 89.8363C195.518 90.6858 194.04 91.1212 192.323 91.1212C190.608 91.1212 189.106 90.6869 187.787 89.8327C186.496 88.9706 185.46 87.7808 184.685 86.2336C183.953 84.6922 183.575 82.9275 183.575 80.9192C183.575 78.9524 183.952 77.2058 184.687 75.6607C185.464 74.0713 186.5 72.8648 187.787 72.0057C189.106 71.1515 190.608 70.7172 192.323 70.7172C194.04 70.7172 195.518 71.1526 196.793 72.0021L196.803 72.0091C198.127 72.8676 199.157 74.0694 199.892 75.6482L199.898 75.6612L199.904 75.674C200.675 77.2162 201.07 78.9579 201.07 80.9192C201.07 82.9241 200.674 84.6854 199.904 86.225L199.896 86.2425Z" fill="#636467"/>
<path d="M219.232 94.6575L219.238 94.6637C221.781 97.2068 225.321 98.4141 229.71 98.4141C234.135 98.4141 237.697 97.2085 240.242 94.6637C242.822 92.0835 244.053 88.5258 244.053 84.1313V68.0101C244.053 66.9435 243.67 66.0036 242.922 65.2486C242.187 64.4647 241.226 64.0909 240.134 64.0909C239.061 64.0909 238.116 64.478 237.359 65.2352L237.346 65.2485L237.333 65.2622C236.625 66.0241 236.275 66.9602 236.275 68.0101V84.1313C236.275 86.6044 235.667 88.2888 234.621 89.3675C233.574 90.4467 231.994 91.0606 229.71 91.0606C227.397 91.0606 225.844 90.448 224.855 89.3944C223.855 88.329 223.265 86.6374 223.265 84.1313V68.0101C223.265 66.9435 222.883 66.0035 222.134 65.2485C221.399 64.4647 220.438 64.0909 219.346 64.0909C218.273 64.0909 217.328 64.478 216.571 65.2352L216.558 65.2485L216.545 65.2622C215.838 66.0241 215.487 66.9602 215.487 68.0101V84.1313C215.487 88.521 216.695 92.0764 219.232 94.6575Z" fill="#636467"/>
<path d="M276.122 72.2989L276.134 72.2849L276.145 72.2705C276.722 71.536 277.027 70.6921 277.027 69.7677C277.027 67.6206 275.532 66.059 273.239 64.9767C270.961 63.8826 268.155 63.3636 264.866 63.3636C261.631 63.3636 258.72 64.1315 256.163 65.6901C253.616 67.2026 251.631 69.3214 250.215 72.0229C248.798 74.6871 248.098 77.6599 248.098 80.9192C248.098 84.1698 248.753 87.1529 250.081 89.8501L250.089 89.8673C251.464 92.5308 253.407 94.6486 255.909 96.2017L255.92 96.2083C258.439 97.7287 261.331 98.4747 264.563 98.4747C266.709 98.4747 268.724 98.2013 270.604 97.6463C272.494 97.0999 274.056 96.3875 275.239 95.4774L275.243 95.4741C276.427 94.5539 277.27 93.445 277.27 92.1313C277.27 91.1211 276.963 90.2112 276.276 89.5074C275.608 88.7374 274.687 88.3939 273.654 88.3939C273.088 88.3939 272.542 88.497 272.05 88.743L272.025 88.7555L272.001 88.7695C271.658 88.9656 271.273 89.2401 270.853 89.5749C270.401 89.9136 270.068 90.1396 269.843 90.271C268.741 90.8148 267.224 91.1212 265.229 91.1212C263.378 91.1212 261.767 90.6793 260.365 89.8165C258.952 88.9471 257.845 87.7543 257.038 86.2163C256.271 84.6788 255.876 82.9204 255.876 80.9192C255.876 78.9653 256.288 77.2296 257.094 75.6909L257.098 75.6823C257.904 74.1068 259.028 72.8967 260.476 72.0278C261.918 71.1628 263.593 70.7172 265.532 70.7172C266.187 70.7172 266.933 70.79 267.776 70.9433C268.596 71.0923 269.165 71.2662 269.528 71.4407C270.007 71.7375 270.3 71.9634 270.455 72.1183L270.519 72.1827L270.594 72.2345C271.125 72.6022 271.558 72.885 271.88 73.0689L271.904 73.0828L271.929 73.0954C272.442 73.3516 273.037 73.4444 273.654 73.4444C274.638 73.4444 275.486 73.0505 276.122 72.2989Z" fill="#636467"/>
<path d="M288.411 97.4122L288.419 97.4143C289.641 97.7198 290.957 97.8687 292.361 97.8687C293.751 97.8687 295.029 97.5186 296.169 96.8061C297.319 96.0871 298.098 95.0811 298.098 93.7677C298.098 92.8952 297.863 92.0897 297.325 91.4311C296.79 90.777 296.069 90.3939 295.21 90.3939C294.775 90.3939 294.283 90.5093 293.777 90.6754C293.342 90.7824 293.063 90.8182 292.906 90.8182C292.182 90.8182 291.816 90.6219 291.612 90.395C291.389 90.1479 291.189 89.6771 291.189 88.798V71.7475H295.21C296.203 71.7475 297.093 71.4265 297.788 70.7386C298.527 70.0491 298.886 69.1508 298.886 68.1313C298.886 67.1187 298.532 66.2257 297.803 65.5379C297.115 64.8089 296.222 64.4545 295.21 64.4545H291.189V60.3737C291.189 59.307 290.807 58.367 290.058 57.6119C289.334 56.8391 288.398 56.4545 287.331 56.4545C286.232 56.4545 285.263 56.8314 284.495 57.5989L284.482 57.6121L284.469 57.6258C283.762 58.3877 283.412 59.3238 283.412 60.3737V64.4545H280.906C279.905 64.4545 279.008 64.7792 278.282 65.4497L278.267 65.4634L278.253 65.4777C277.555 66.1754 277.23 67.0702 277.23 68.0707C277.23 69.0718 277.554 69.9688 278.225 70.6952L278.252 70.7249L278.282 70.7523C279.008 71.4228 279.905 71.7475 280.906 71.7475H283.412V89.0404C283.412 91.4756 283.847 93.4842 284.876 94.9056L284.888 94.9216L284.9 94.9372C285.887 96.1938 287.053 97.06 288.411 97.4122Z" fill="#636467"/>
<path fill-rule="evenodd" clip-rule="evenodd" d="M332.582 79.8237L332.584 79.7887L332.583 79.7536C332.541 76.6826 331.792 73.883 330.323 71.3781C328.866 68.8916 326.926 66.9272 324.51 65.5035C322.095 64.0801 319.494 63.3636 316.725 63.3636C313.912 63.3636 311.269 64.1018 308.813 65.5668L308.807 65.5709C306.375 67.047 304.419 69.1654 302.929 71.8891L302.927 71.894C301.461 74.6105 300.745 77.7505 300.745 81.2828C300.745 84.5429 301.445 87.4991 302.866 90.1271L302.873 90.1382C304.338 92.7668 306.392 94.8212 309.021 96.2864L309.027 96.2897C311.701 97.7563 314.762 98.4747 318.179 98.4747C320.338 98.4747 322.45 98.0422 324.507 97.1849C326.522 96.3453 328.189 95.2989 329.471 94.0253C330.425 93.2032 331.008 92.1832 331.008 90.9798C331.008 90.0551 330.651 89.2427 330 88.5839C329.357 87.891 328.522 87.5455 327.573 87.5455C326.784 87.5455 326.02 87.8003 325.296 88.2349L325.199 88.293L325.117 88.3711C324.271 89.1808 323.293 89.8465 322.176 90.3675C321.144 90.8492 319.729 91.1212 317.876 91.1212C315.282 91.1212 313.124 90.3145 311.343 88.7166C309.854 87.3506 308.895 85.5902 308.489 83.3838H328.664C329.665 83.3838 330.567 83.0603 331.321 82.4134L331.337 82.4003L331.351 82.3867C332.096 81.6952 332.526 80.8287 332.582 79.8237ZM311.455 72.4523L311.467 72.4427C312.932 71.2993 314.669 70.7172 316.725 70.7172C318.675 70.7172 320.39 71.3245 321.907 72.5528L321.916 72.56C323.271 73.6311 324.074 74.9382 324.361 76.5152H308.858C309.406 74.6596 310.289 73.3335 311.455 72.4523Z" fill="#636467"/>
<path fill-rule="evenodd" clip-rule="evenodd" d="M366.54 79.8237L366.542 79.7887L366.542 79.7536C366.499 76.6826 365.75 73.883 364.282 71.3781C362.824 68.8916 360.885 66.9272 358.469 65.5035C356.053 64.0801 353.452 63.3636 350.683 63.3636C347.871 63.3636 345.228 64.1018 342.772 65.5668L342.765 65.5709C340.334 67.047 338.377 69.1654 336.888 71.8891L336.885 71.894C335.419 74.6105 334.703 77.7505 334.703 81.2828C334.703 84.5429 335.403 87.4991 336.825 90.1271L336.831 90.1382C338.296 92.7668 340.351 94.8212 342.979 96.2864L342.985 96.2897C345.66 97.7563 348.72 98.4747 352.138 98.4747C354.296 98.4747 356.408 98.0422 358.465 97.1849C360.48 96.3453 362.147 95.2988 363.43 94.0252C364.383 93.2031 364.966 92.1832 364.966 90.9798C364.966 90.055 364.61 89.2425 363.958 88.5837C363.315 87.891 362.48 87.5455 361.531 87.5455C360.742 87.5455 359.978 87.8003 359.254 88.2349L359.157 88.293L359.076 88.3711C358.229 89.1808 357.251 89.8465 356.135 90.3675C355.102 90.8492 353.688 91.1212 351.835 91.1212C349.24 91.1212 347.083 90.3145 345.301 88.7166C343.813 87.3506 342.853 85.5902 342.448 83.3838H362.622C363.623 83.3838 364.525 83.0603 365.28 82.4134L365.295 82.4003L365.31 82.3867C366.054 81.6952 366.484 80.8287 366.54 79.8237ZM345.414 72.4523L345.426 72.4427C346.891 71.2993 348.627 70.7172 350.683 70.7172C352.633 70.7172 354.348 71.3245 355.866 72.5528L355.875 72.56C357.229 73.6311 358.032 74.9382 358.32 76.5152H342.816C343.364 74.6596 344.248 73.3335 345.414 72.4523Z" fill="#636467"/>
<path d="M392.024 66.217L383.8 85.3328L375.57 66.2029L375.564 66.189C375.215 65.4427 374.713 64.8312 374.032 64.426C373.381 63.9985 372.648 63.7879 371.861 63.7879C370.786 63.7879 369.828 64.1295 369.086 64.8716C368.402 65.5557 368.002 66.3887 368.002 67.3434C368.002 67.9003 368.138 68.5215 368.357 69.178L368.372 69.2224L379.906 95.4471C380.259 96.2532 380.789 96.9094 381.513 97.3552L381.527 97.3638L381.541 97.372C382.29 97.7997 383.107 97.9658 383.962 97.8638C384.673 97.8046 385.327 97.5535 385.909 97.13C386.501 96.6999 386.952 96.137 387.263 95.4638L398.786 69.2635C399.082 68.5869 399.295 67.9236 399.295 67.3434C399.295 66.3688 398.91 65.5227 398.197 64.8576C397.478 64.1453 396.576 63.7879 395.558 63.7879C394.788 63.7879 394.071 63.9903 393.449 64.4241C392.836 64.8523 392.375 65.4635 392.036 66.189L392.03 66.2029L392.024 66.217Z" fill="#636467"/>
</svg>
