<svg width="400" height="160" viewBox="0 0 400 160" fill="none" xmlns="http://www.w3.org/2000/svg">
<path d="M378.292 97.6581C378.292 96.9068 377.678 96.6336 376.995 96.6336H375.765V100.049H376.38V98.6143H376.79L377.61 100.049H378.361L377.473 98.546C377.951 98.4777 378.292 98.1362 378.292 97.6581ZM376.38 98.1362V97.18H376.927C377.268 97.18 377.61 97.2483 377.61 97.6581C377.61 98.0679 377.2 98.1362 376.858 98.1362H376.38ZM376.995 95.3359C375.287 95.3359 373.99 96.7019 373.99 98.3411C373.99 99.9802 375.356 101.346 376.995 101.346C378.634 101.346 380 100.049 380 98.3411C380 96.6336 378.634 95.3359 376.995 95.3359ZM376.995 100.936C375.561 100.936 374.468 99.7753 374.468 98.4094C374.468 96.9751 375.629 95.8823 376.995 95.8823C378.429 95.8823 379.522 97.0434 379.522 98.4094C379.522 99.7753 378.361 100.936 376.995 100.936Z" fill="black"/>
<path d="M181.594 95.8832C177.154 95.8832 174.901 91.9219 174.901 88.0972C174.901 84.2725 177.359 80.4478 181.389 80.4478C183.301 80.4478 185.692 81.404 186.58 82.7016L191.292 77.9891C189.038 75.5986 185.419 74.1643 181.389 74.1643C173.193 74.1643 167.251 80.038 167.251 88.0972C167.251 96.293 173.125 102.03 181.526 102.03C185.555 102.03 189.243 100.869 191.429 98.4785L186.853 93.5611C185.828 94.927 183.643 95.8832 181.594 95.8832ZM155.299 101.347H162.607V74.9156H155.299V101.347ZM142.049 89.3949C142.049 92.4683 140 95.8149 136.244 95.8149C133.307 95.8149 131.804 93.766 131.804 89.4632V74.9156H124.496V91.3072C124.496 96.7711 127.228 102.098 134.468 102.098C137.883 102.098 140.751 99.3664 142.254 97.3858H142.391V101.347H149.357V74.9156H142.049V89.3949ZM111.315 78.2622H111.178C110.154 77.1012 107.354 74.1643 102.846 74.1643C95.4014 74.1643 89.6643 79.9697 89.6643 88.0289C89.6643 96.1564 94.9233 102.098 102.504 102.098C105.919 102.098 109.129 100.254 110.973 98.2054H111.11V114.392H118.418V74.9156H111.383V78.2622H111.315ZM104.28 95.8832C99.7724 95.8832 97.1771 91.9219 97.1771 88.0289C97.1771 84.3408 99.4992 80.3112 104.28 80.3112C108.651 80.3112 111.315 84.3408 111.315 88.1655C111.315 91.9219 108.651 95.8832 104.28 95.8832ZM270.45 74.1643C262.118 74.1643 256.107 79.9697 256.107 88.0289C256.107 96.3613 262.254 102.167 270.45 102.167C278.646 102.167 284.793 96.293 284.793 88.0289C284.793 80.038 278.782 74.1643 270.45 74.1643ZM270.45 95.8832C265.669 95.8832 263.552 91.8536 263.552 88.0289C263.552 84.3408 265.737 80.3112 270.45 80.3112C275.231 80.3112 277.348 84.3408 277.348 88.0289C277.348 91.7853 275.231 95.8832 270.45 95.8832ZM361.696 85.0921C357.94 84.2042 356.642 83.7261 356.642 82.2236C356.642 80.1063 359.306 79.6965 360.535 79.6965C362.789 79.6965 365.385 81.0625 366.341 82.3601L370.644 78.2622C368.663 75.7352 364.77 74.301 360.604 74.301C355.345 74.301 349.813 76.9646 349.813 82.9065C349.813 88.0289 353.774 89.5315 357.735 90.4876C361.833 91.4438 363.336 92.1268 363.336 93.8343C363.336 96.293 360.535 96.7028 359.579 96.7028C357.189 96.7028 354.457 95.3368 352.954 93.5611L348.515 98.0687C350.905 100.732 355.072 102.372 359.306 102.372C366.409 102.372 370.644 98.9566 370.644 93.3562C370.507 87.7557 365.385 85.98 361.696 85.0921ZM347.9 74.9156H338.475L329.05 85.9117H328.913V60.3681H321.605V101.347H328.913V88.3021H329.05L338.817 101.347H348.447L337.109 86.9361L347.9 74.9156ZM239.647 74.1643C236.301 74.1643 233.842 75.5986 231.52 77.7842H231.452V60.2998H224.144V101.279H231.11V97.5224H231.247C232.886 100.254 236.164 102.03 239.579 102.03C247.092 102.03 252.829 96.0881 252.829 87.9606C252.761 80.038 247.092 74.1643 239.647 74.1643ZM238.213 95.8832C233.842 95.8832 231.178 91.9902 231.178 88.1655C231.178 84.4091 233.842 80.3112 238.213 80.3112C242.926 80.3112 245.316 84.3408 245.316 88.0289C245.316 91.9219 242.789 95.8832 238.213 95.8832ZM221.412 74.9156H211.987L202.561 85.9117H202.425V60.3681H195.117V101.347H202.425V88.3021H202.561L212.328 101.347H221.958L210.621 86.9361L221.412 74.9156ZM302.482 74.1643C294.149 74.1643 288.139 79.9697 288.139 88.0289C288.139 96.3613 294.286 102.167 302.482 102.167C310.678 102.167 316.824 96.293 316.824 88.0289C316.824 80.038 310.814 74.1643 302.482 74.1643ZM302.482 95.8832C297.701 95.8832 295.584 91.8536 295.584 88.0289C295.584 84.3408 297.769 80.3112 302.482 80.3112C307.263 80.3112 309.38 84.3408 309.38 88.0289C309.448 91.7853 307.263 95.8832 302.482 95.8832Z" fill="black"/>
<path d="M50.7342 106.468C67.7083 106.468 81.4685 92.7083 81.4685 75.7342C81.4685 58.7602 67.7083 45 50.7342 45C33.7602 45 20 58.7602 20 75.7342C20 92.7083 33.7602 106.468 50.7342 106.468Z" fill="#2CA01C"/>
<path d="M28.5371 75.7349C28.5371 82.3599 33.8644 87.6871 40.4893 87.6871H42.1968V83.2477H40.4893C36.3231 83.2477 32.9765 79.9011 32.9765 75.7349C32.9765 71.5687 36.3231 68.2221 40.4893 68.2221H44.5872C44.5872 68.2221 44.5872 91.0337 44.5872 91.4435C44.5872 93.9023 46.5679 95.8829 49.0266 95.8829V63.7827C49.0266 63.7827 44.4506 63.7827 40.4893 63.7827C33.8644 63.7827 28.5371 69.1783 28.5371 75.7349ZM60.9788 63.7827H59.2713V68.2221H60.9788C65.145 68.2221 68.4916 71.5687 68.4916 75.7349C68.4916 79.9011 65.145 83.2477 60.9788 83.2477H56.8809C56.8809 83.2477 56.8809 60.4361 56.8809 60.0263C56.8809 57.5676 54.9003 55.5869 52.4415 55.5869V87.6871C52.4415 87.6871 57.0175 87.6871 60.9788 87.6871C67.6037 87.6871 72.931 82.3599 72.931 75.7349C72.931 69.1783 67.5354 63.7827 60.9788 63.7827Z" fill="white"/>
<path d="M119.716 52.0344C120.809 52.0344 121.765 51.1465 121.765 49.9855C121.765 48.8927 120.877 47.9365 119.716 47.9365C118.623 47.9365 117.667 48.8244 117.667 49.9855C117.735 51.0782 118.623 52.0344 119.716 52.0344ZM107.627 53.4004C105.646 53.4004 104.076 54.6298 103.461 55.9274H103.393V53.7419H100.183V67.1967H103.529V59.8204C103.529 58.0447 104.554 56.2006 106.671 56.2006C108.856 56.2006 109.198 58.1813 109.198 59.7521V67.1967H112.545V58.796C112.613 56.064 111.11 53.4004 107.627 53.4004ZM93.4211 67.1967H96.7677V53.7419H93.4211V67.1967ZM154.548 52.0344C155.641 52.0344 156.597 51.1465 156.597 49.9855C156.597 48.8927 155.709 47.9365 154.548 47.9365C153.455 47.9365 152.499 48.8244 152.499 49.9855C152.499 51.0782 153.387 52.0344 154.548 52.0344ZM149.084 53.7419V56.747H152.841V67.1967H156.187V56.747H159.944V53.7419H149.084ZM143.347 67.1967H146.694V53.7419H143.347V67.1967ZM114.32 56.747H118.077V67.1967H121.423V56.747H125.18V53.7419H114.252V56.747H114.32ZM136.517 61.1864C136.517 62.9621 135.493 64.8062 133.376 64.8062C131.19 64.8062 130.849 62.8256 130.849 61.2547V53.8102H127.502V62.2109C127.502 64.9428 128.936 67.6747 132.488 67.6747C134.468 67.6747 136.039 66.4454 136.654 65.1477H136.722V67.3332H139.932V53.8785H136.517V61.1864Z" fill="black"/>
</svg>
