<svg width="400" height="160" viewBox="0 0 400 160" fill="none" xmlns="http://www.w3.org/2000/svg">
<path d="M43.2657 43.2245L50.8782 52.5618C51.2044 53.0063 50.7721 53.3346 50.7721 53.3346C47.7218 55.068 45.5146 57.6861 43.6258 60.6853C43.2513 61.2811 42.847 60.848 42.847 60.848L33.2006 53.2398C33.2006 53.2398 32.7861 52.983 33.1488 52.4759C35.9733 48.525 38.5397 45.7388 42.6424 43.1091C42.6424 43.1082 42.9532 42.7996 43.2657 43.2245Z" fill="#D02D1C"/>
<path d="M29.2538 58.065L40.6612 63.7357C41.2033 63.9516 40.9322 64.4594 40.9322 64.4594C39.356 68.3168 38.3959 71.5728 37.6549 75.5184C37.5308 76.1793 37.0949 75.9678 37.0949 75.9678L24.2635 70.2375C24.2635 70.2375 23.8786 70.0899 24.0392 69.5813C24.6085 67.7766 27.5111 60.5695 28.676 58.2153C28.676 58.2145 28.8808 57.857 29.2538 58.065Z" fill="#C61E05"/>
<path d="M22.6825 76.0385C25.3425 76.8562 36.5028 79.4216 36.5028 79.4216C37.1714 79.6273 36.9722 80.1279 36.9722 80.1279C36.2022 86.1784 36.3694 90.7957 36.3694 92.3912C36.3694 93.0983 35.8532 92.9947 35.8532 92.9947C32.9559 92.9947 19.567 92.9947 19.567 92.9947C18.8594 92.9947 19.0144 92.3584 19.0144 92.3584C19.1478 90.3427 19.7298 84.6078 21.9749 76.386C21.9749 76.385 22.0866 75.8553 22.6825 76.0385Z" fill="#AE1400"/>
<path d="M76.164 43.2245L68.1284 52.5618C67.7843 53.0063 68.2407 53.3346 68.2407 53.3346C71.4604 55.068 73.7902 57.6861 75.784 60.6853C76.1792 61.2811 76.6059 60.848 76.6059 60.848L86.7884 53.2398C86.7884 53.2398 87.2257 52.983 86.843 52.4759C83.8615 48.525 81.1525 45.7388 76.822 43.1091C76.8228 43.1082 76.4939 42.7996 76.164 43.2245Z" fill="#D02D1C"/>
<path d="M59.5005 50.6725C60.7979 50.6725 63.1998 50.7961 64.3328 50.9843C64.9251 51.0822 65.0713 50.6914 65.0713 50.6914L69.9228 40.5623C69.9228 40.5623 70.2467 40.1809 69.5676 39.9327C65.9465 38.609 64.0207 38 59.5005 38C55.0334 38 53.0536 38.609 49.4325 39.9327C48.7531 40.1809 49.0773 40.5623 49.0773 40.5623L53.9288 50.6914C53.9288 50.6914 54.0749 51.0822 54.6671 50.9843C55.8012 50.7961 58.2032 50.6725 59.5005 50.6725Z" fill="#D94A3A"/>
<path d="M89.7462 58.065L78.3388 63.7357C77.7968 63.9516 78.0677 64.4594 78.0677 64.4594C79.6439 68.3168 80.6042 71.5728 81.345 75.5184C81.4692 76.1793 81.905 75.9678 81.905 75.9678L94.7364 70.2375C94.7364 70.2375 95.1214 70.0899 94.9608 69.5813C94.3915 67.7766 91.4887 60.5695 90.324 58.2153C90.323 58.2145 90.1191 57.857 89.7462 58.065Z" fill="#C61E05"/>
<path d="M96.3175 76.0385C93.6577 76.8562 82.4973 79.4216 82.4973 79.4216C81.8285 79.6273 82.0278 80.1279 82.0278 80.1279C82.7979 86.1784 82.6308 90.7957 82.6308 92.3912C82.6308 93.0983 83.1469 92.9947 83.1469 92.9947C86.0441 92.9947 99.4332 92.9947 99.4332 92.9947C100.141 92.9947 99.9856 92.3584 99.9856 92.3584C99.8523 90.3427 99.2702 84.6078 97.0252 76.386C97.0252 76.385 96.9136 75.8553 96.3175 76.0385Z" fill="#AE1400"/>
<path d="M190.121 118V111.762H189V110.375H190.121V109.561C190.121 108.594 190.338 107.925 190.773 107.555C191.208 107.185 191.996 107 193.136 107C193.33 107 193.599 107.009 193.942 107.024V108.452C193.681 108.394 193.46 108.364 193.278 108.364C192.441 108.364 192.024 108.762 192.024 109.561V110.374H194V111.762H192.024V117.999H190.121V118Z" fill="#7F7F7F"/>
<path d="M196 107V118H194V107H196Z" fill="#7F7F7F"/>
<path d="M202.172 115.409H203.998V115.712C203.998 117.236 202.886 118 200.662 118C199.153 118 198.165 117.735 197.699 117.207C197.233 116.68 197 115.559 197 113.849C197 112.328 197.243 111.307 197.732 110.785C198.219 110.263 199.169 110 200.584 110C201.94 110 202.848 110.255 203.309 110.764C203.769 111.274 204 112.275 204 113.766V114.339H198.86C198.849 114.512 198.844 114.628 198.844 114.681C198.844 115.45 198.96 115.962 199.189 116.217C199.42 116.474 199.879 116.602 200.567 116.602C201.234 116.602 201.669 116.527 201.869 116.378C202.071 116.228 202.172 115.905 202.172 115.409ZM202.186 113.195L202.179 112.884C202.179 112.263 202.074 111.86 201.865 111.674C201.655 111.49 201.201 111.398 200.502 111.398C199.824 111.398 199.382 111.51 199.18 111.733C198.976 111.956 198.874 112.444 198.874 113.195H202.186Z" fill="#7F7F7F"/>
<path d="M211.734 110L209.353 113.766L212 118H209.653L208.008 115.096L206.407 118H204L206.681 113.79L204.317 110H206.655L208.008 112.537L209.396 110H211.734Z" fill="#7F7F7F"/>
<path d="M214 107V108.539H212V107H214ZM214 110.296V118H212V110.296H214Z" fill="#7F7F7F"/>
<path d="M216 117.91V107H217.797V111.363L217.836 111.38C218.144 110.576 218.927 110.173 220.182 110.173C221.26 110.173 221.998 110.441 222.399 110.977C222.8 111.512 223 112.505 223 113.954C223 115.538 222.797 116.607 222.391 117.164C221.986 117.721 221.207 118 220.056 118C218.89 118 218.123 117.568 217.757 116.704H217.717L217.796 117.911H216V117.91ZM219.57 111.619C218.403 111.619 217.821 112.357 217.821 113.833C217.821 114.99 217.92 115.731 218.118 116.06C218.317 116.387 218.768 116.551 219.468 116.551C220.201 116.551 220.67 116.4 220.873 116.1C221.077 115.799 221.18 115.11 221.18 114.034C221.18 113.032 221.078 112.379 220.878 112.076C220.675 111.772 220.24 111.619 219.57 111.619Z" fill="#7F7F7F"/>
<path d="M226 107V118H224V107H226Z" fill="#7F7F7F"/>
<path d="M232.172 115.409H233.998V115.712C233.998 117.236 232.886 118 230.662 118C229.153 118 228.165 117.735 227.699 117.207C227.233 116.68 227 115.559 227 113.849C227 112.328 227.243 111.307 227.731 110.785C228.219 110.263 229.169 110 230.584 110C231.94 110 232.848 110.255 233.309 110.764C233.769 111.274 234 112.275 234 113.766V114.339H228.86C228.849 114.512 228.844 114.628 228.844 114.681C228.844 115.45 228.96 115.962 229.189 116.217C229.42 116.474 229.879 116.602 230.567 116.602C231.234 116.602 231.669 116.527 231.869 116.378C232.071 116.228 232.172 115.905 232.172 115.409ZM232.187 113.195L232.179 112.884C232.179 112.263 232.075 111.86 231.866 111.674C231.656 111.49 231.202 111.398 230.503 111.398C229.825 111.398 229.383 111.51 229.18 111.733C228.976 111.956 228.875 112.444 228.875 113.195H232.187Z" fill="#7F7F7F"/>
<path d="M239.001 110.096H240.804L240.735 111.229L240.773 111.238C241.202 110.412 241.999 110 243.165 110C244.244 110 244.986 110.275 245.392 110.826C245.796 111.378 246 112.383 246 113.839C246 115.363 245.798 116.405 245.395 116.969C244.993 117.533 244.247 117.816 243.157 117.816C241.996 117.816 241.237 117.415 240.881 116.617H240.85V121H239V110.096H239.001ZM242.493 111.444C241.816 111.444 241.375 111.602 241.169 111.915C240.962 112.229 240.859 112.895 240.859 113.911C240.859 114.9 240.97 115.558 241.191 115.882C241.413 116.207 241.865 116.369 242.546 116.369C243.238 116.369 243.687 116.214 243.893 115.906C244.1 115.598 244.203 114.936 244.203 113.919C244.203 112.875 244.098 112.202 243.889 111.898C243.68 111.596 243.215 111.444 242.493 111.444Z" fill="#7F7F7F"/>
<path d="M247 110.124H248.882L248.767 111.228L248.808 111.237C249.258 110.413 249.965 110 250.929 110C252.31 110 253 110.874 253 112.621V113.172H251.225C251.246 112.958 251.258 112.819 251.258 112.752C251.258 111.911 250.932 111.491 250.28 111.491C249.348 111.491 248.883 112.114 248.883 113.36V118H247.001V110.124H247Z" fill="#7F7F7F"/>
<path d="M257.524 110C258.954 110 259.89 110.242 260.334 110.724C260.778 111.207 261 112.224 261 113.78C261 115.514 260.783 116.65 260.35 117.19C259.917 117.729 259.003 118 257.609 118C256.096 118 255.117 117.749 254.67 117.247C254.224 116.745 254 115.641 254 113.934C254 112.293 254.219 111.227 254.658 110.736C255.097 110.246 256.052 110 257.524 110ZM257.508 111.48C256.77 111.48 256.3 111.62 256.099 111.902C255.897 112.183 255.797 112.839 255.797 113.869C255.797 115.046 255.892 115.783 256.083 116.077C256.274 116.372 256.753 116.519 257.516 116.519C258.255 116.519 258.72 116.364 258.914 116.052C259.107 115.742 259.205 114.995 259.205 113.812C259.205 112.813 259.105 112.177 258.903 111.897C258.701 111.62 258.237 111.48 257.508 111.48Z" fill="#7F7F7F"/>
<path d="M263.991 110.14V117.796C263.991 119.265 263.23 120 261.707 120C261.491 120 261.256 119.98 261 119.939V118.686H261.206C261.696 118.686 261.941 118.341 261.941 117.65V110.14H263.991ZM264 107V108.466H261.949V107H264Z" fill="#7F7F7F"/>
<path d="M270.173 115.409H272V115.712C272 117.236 270.886 118 268.663 118C267.154 118 266.164 117.735 265.698 117.207C265.232 116.68 265 115.559 265 113.849C265 112.328 265.244 111.307 265.732 110.785C266.22 110.263 267.168 110 268.583 110C269.94 110 270.85 110.255 271.311 110.764C271.769 111.274 272 112.275 272 113.766V114.339H266.86C266.848 114.512 266.843 114.628 266.843 114.681C266.843 115.45 266.96 115.962 267.19 116.217C267.421 116.474 267.88 116.602 268.566 116.602C269.234 116.602 269.67 116.527 269.869 116.378C270.071 116.228 270.173 115.905 270.173 115.409ZM270.187 113.195L270.18 112.884C270.18 112.263 270.076 111.86 269.865 111.674C269.656 111.49 269.202 111.398 268.503 111.398C267.824 111.398 267.382 111.51 267.181 111.733C266.977 111.956 266.875 112.444 266.875 113.195H270.187Z" fill="#7F7F7F"/>
<path d="M278.171 114.924H280V115.194L279.887 116.38C279.662 117.46 278.566 118 276.597 118C275.15 118 274.189 117.734 273.713 117.202C273.238 116.671 273 115.601 273 113.992C273 112.422 273.238 111.365 273.713 110.818C274.189 110.274 275.116 110 276.491 110C277.818 110 278.718 110.198 279.188 110.593C279.659 110.988 279.895 111.74 279.895 112.846H278.073C278.073 111.937 277.556 111.481 276.523 111.481C275.79 111.481 275.329 111.626 275.143 111.915C274.954 112.204 274.861 112.912 274.861 114.041C274.861 115.131 274.964 115.816 275.17 116.098C275.376 116.378 275.881 116.519 276.685 116.519C277.315 116.519 277.72 116.423 277.899 116.229C278.08 116.034 278.171 115.6 278.171 114.924Z" fill="#7F7F7F"/>
<path d="M285.691 109.811V111.283H282.785V115.344C282.785 116.094 283.051 116.47 283.584 116.47C284.167 116.47 284.459 116.016 284.459 115.107V114.785H286V115.191C286 115.563 285.988 115.882 285.969 116.147C285.867 117.382 285.011 118 283.393 118C281.782 118 280.979 117.208 280.979 115.623V111.282H280V109.81H280.979V108H282.785V109.81H285.691V109.811Z" fill="#7F7F7F"/>
<path d="M290 110.092H291.908L291.859 111.308L291.9 111.316C292.29 110.439 293.103 110 294.335 110C295.777 110 296.577 110.489 296.737 111.465H296.771C297.145 110.489 297.963 110 299.231 110C301.078 110 302 110.921 302 112.764V118H300.09V113.177C300.09 112.058 299.626 111.498 298.696 111.498C297.535 111.498 296.954 112.124 296.954 113.375V118H295.044V113.103C295.044 112.448 294.957 112.015 294.781 111.808C294.608 111.602 294.236 111.498 293.668 111.498C292.494 111.498 291.908 112.138 291.908 113.417V118H290V110.092Z" fill="#7F7F7F"/>
<path d="M305.182 112.356H303.312C303.312 111.418 303.525 110.792 303.952 110.475C304.377 110.159 305.224 110 306.485 110C307.859 110 308.789 110.195 309.273 110.581C309.758 110.968 310 111.707 310 112.798V117.91H308.172L308.26 116.838L308.211 116.83C307.859 117.61 307.047 118 305.773 118C303.925 118 303 117.196 303 115.587C303 113.962 303.947 113.149 305.839 113.149C307.1 113.149 307.867 113.447 308.14 114.041H308.172V112.774C308.172 112.164 308.067 111.759 307.859 111.559C307.652 111.359 307.225 111.261 306.581 111.261C305.648 111.261 305.182 111.626 305.182 112.356ZM306.405 114.41C305.37 114.41 304.855 114.776 304.855 115.506C304.855 116.013 304.96 116.346 305.172 116.504C305.387 116.663 305.834 116.741 306.517 116.741C307.63 116.741 308.187 116.357 308.187 115.588C308.187 114.802 307.593 114.41 306.405 114.41Z" fill="#7F7F7F"/>
<path d="M312.002 110.091H313.842L313.77 111.422L313.81 111.431C314.175 110.477 314.985 110 316.248 110C318.083 110 319 110.873 319 112.614V118H317.14V113.235V112.937L317.101 112.383C317.011 111.793 316.558 111.498 315.737 111.498C314.485 111.498 313.86 112.102 313.86 113.309V118H312V110.091H312.002Z" fill="#7F7F7F"/>
<path d="M322.182 112.356H320.312C320.312 111.418 320.525 110.792 320.952 110.475C321.377 110.159 322.224 110 323.485 110C324.859 110 325.789 110.195 326.273 110.581C326.758 110.968 327 111.707 327 112.798V117.91H325.172L325.26 116.838L325.211 116.83C324.859 117.61 324.047 118 322.775 118C320.925 118 320 117.196 320 115.587C320 113.962 320.947 113.149 322.839 113.149C324.1 113.149 324.867 113.447 325.14 114.041H325.172V112.774C325.172 112.164 325.067 111.759 324.859 111.559C324.652 111.359 324.225 111.261 323.581 111.261C322.648 111.261 322.182 111.626 322.182 112.356ZM323.405 114.41C322.37 114.41 321.855 114.776 321.855 115.506C321.855 116.013 321.96 116.346 322.175 116.504C322.387 116.663 322.834 116.741 323.517 116.741C324.63 116.741 325.187 116.357 325.187 115.588C325.187 114.802 324.593 114.41 323.405 114.41Z" fill="#7F7F7F"/>
<path d="M335 110.088V117.778C335 119.009 334.753 119.854 334.258 120.313C333.76 120.77 332.848 121 331.517 121C330.227 121 329.364 120.826 328.927 120.479C328.492 120.132 328.276 119.444 328.276 118.419H330.02C330.02 118.907 330.112 119.222 330.297 119.362C330.481 119.5 330.89 119.57 331.524 119.57C332.641 119.57 333.198 119.107 333.198 118.18V116.483L333.16 116.475C332.84 117.281 332.105 117.683 330.957 117.683C329.818 117.683 329.043 117.408 328.625 116.854C328.209 116.302 328 115.27 328 113.758C328 112.337 328.209 111.356 328.625 110.814C329.043 110.271 329.797 110 330.895 110C332.089 110 332.874 110.445 333.246 111.334H333.285L333.198 110.087H335V110.088ZM331.452 111.43C330.76 111.43 330.316 111.571 330.119 111.852C329.924 112.134 329.823 112.774 329.823 113.775C329.823 114.838 329.922 115.517 330.119 115.812C330.316 116.108 330.77 116.254 331.476 116.254C332.185 116.254 332.643 116.103 332.852 115.801C333.064 115.499 333.167 114.828 333.167 113.791C333.167 112.797 333.064 112.155 332.852 111.864C332.643 111.574 332.175 111.43 331.452 111.43Z" fill="#7F7F7F"/>
<path d="M341.171 115.409H342.998V115.712C342.998 117.236 341.886 118 339.661 118C338.152 118 337.165 117.735 336.699 117.207C336.233 116.68 336 115.559 336 113.849C336 112.328 336.243 111.307 336.73 110.785C337.218 110.263 338.169 110 339.584 110C340.94 110 341.848 110.255 342.309 110.764C342.77 111.274 343 112.275 343 113.766V114.339H337.859C337.849 114.512 337.844 114.628 337.844 114.681C337.844 115.45 337.958 115.962 338.189 116.217C338.419 116.474 338.878 116.602 339.567 116.602C340.234 116.602 340.668 116.527 340.87 116.378C341.071 116.228 341.171 115.905 341.171 115.409ZM341.185 113.195L341.178 112.884C341.178 112.263 341.074 111.86 340.865 111.674C340.654 111.49 340.2 111.398 339.501 111.398C338.824 111.398 338.383 111.51 338.179 111.733C337.975 111.956 337.873 112.444 337.873 113.195H341.185Z" fill="#7F7F7F"/>
<path d="M344 110.092H345.908L345.86 111.308L345.9 111.316C346.29 110.439 347.103 110 348.335 110C349.777 110 350.577 110.489 350.737 111.465H350.771C351.145 110.489 351.963 110 353.231 110C355.078 110 356 110.921 356 112.764V118H354.09V113.177C354.09 112.058 353.626 111.498 352.696 111.498C351.535 111.498 350.954 112.124 350.954 113.375V118H349.044V113.103C349.044 112.448 348.957 112.015 348.781 111.808C348.608 111.602 348.236 111.498 347.668 111.498C346.494 111.498 345.908 112.138 345.908 113.417V118H344V110.092Z" fill="#7F7F7F"/>
<path d="M362.171 115.409H363.998V115.712C363.998 117.236 362.884 118 360.661 118C359.152 118 358.165 117.735 357.699 117.207C357.233 116.68 357 115.559 357 113.849C357 112.328 357.243 111.307 357.73 110.785C358.218 110.263 359.169 110 360.584 110C361.938 110 362.847 110.255 363.308 110.764C363.769 111.274 364 112.275 364 113.766V114.339H358.859C358.849 114.512 358.842 114.628 358.842 114.681C358.842 115.45 358.958 115.962 359.189 116.217C359.419 116.474 359.878 116.602 360.567 116.602C361.234 116.602 361.668 116.527 361.867 116.378C362.069 116.228 362.171 115.905 362.171 115.409ZM362.185 113.195L362.178 112.884C362.178 112.263 362.073 111.86 361.865 111.674C361.656 111.49 361.2 111.398 360.501 111.398C359.824 111.398 359.383 111.51 359.179 111.733C358.975 111.956 358.873 112.444 358.873 113.195H362.185Z" fill="#7F7F7F"/>
<path d="M365.002 110.091H366.845L366.77 111.422L366.81 111.431C367.175 110.477 367.985 110 369.248 110C371.083 110 372 110.873 372 112.614V118H370.14V113.235V112.937L370.101 112.383C370.014 111.793 369.558 111.498 368.737 111.498C367.485 111.498 366.86 112.102 366.86 113.309V118H365V110.091H365.002Z" fill="#7F7F7F"/>
<path d="M378.689 109.811V111.283H375.787V115.344C375.787 116.094 376.052 116.47 376.582 116.47C377.168 116.47 377.46 116.016 377.46 115.107V114.785H379V115.191C379 115.563 378.988 115.882 378.969 116.147C378.867 117.382 378.009 118 376.394 118C374.784 118 373.979 117.208 373.979 115.623V111.282H373V109.81H373.979V108H375.787V109.81H378.689V109.811Z" fill="#7F7F7F"/>
<path d="M275.413 93V66.0111L276.043 60.3329L264.544 92.999H257.455L245.955 60.3329L246.585 66.0111V93H238V44H248.082L259.897 77.2114C260.684 79.5447 261 81.5671 261 81.5671C261 81.5671 261.314 79.4669 262.102 77.2114L273.918 44H284V93H275.413Z" fill="#D94A3A"/>
<path d="M293 93V44H301V93H293Z" fill="#D94A3A"/>
<path d="M333.725 92.9993L318.04 58.6997C318.04 58.6997 318.591 61.8887 318.591 65.1555V93H310V44H320.089L331.124 68.7334C332.385 71.5335 333.409 75.8115 333.409 75.8115C333.409 69.5111 333.409 75.4224 333.409 44H342V93H333.725V92.9993Z" fill="#D94A3A"/>
<path d="M351 93V44H378.199V51.5438H359.72V63.6775H373.88V71.3002H359.72V85.2995H379V93H351Z" fill="#D94A3A"/>
<path d="M212.434 93H198V44H213.156C227.67 44 232 56.6004 232 68.5778C232 80.7105 226.708 93 212.434 93ZM212.834 51.3105H206.66V85.6886H212.434C221.735 85.6886 223.178 75.7327 223.178 68.7325C223.179 61.9664 222.137 51.3105 212.834 51.3105Z" fill="#AE1400"/>
<path d="M165 93V44H191.229V51.5438H173.409V63.6775H187.064V71.3002H173.409V85.2995H192V93H165Z" fill="#AE1400"/>
<path d="M152.389 93L136.466 75.5001V93H128V44H139.262C152.777 44 157.903 50.8447 157.903 59.5561C157.903 66.9443 153.243 74.489 146.097 75.1112L160 89.5775V93H152.389ZM139.262 51.3105H136.466V68.1101C136.466 68.1101 138.874 69.1214 140.893 69.1214C146.408 69.1214 149.282 64.61 149.282 59.4766C149.282 54.4217 146.33 51.3105 139.262 51.3105Z" fill="#AE1400"/>
</svg>
