<svg width="400" height="160" viewBox="0 0 400 160" fill="none" xmlns="http://www.w3.org/2000/svg">
<g clip-path="url(#clip0)">
<path d="M46.3614 33.9997C53.8587 33.9997 61.3466 33.9997 68.8439 33.9997C69.3219 33.9997 69.7998 33.9997 70.2778 34.0185C73.9702 34.1221 77.4284 35.1112 80.6616 36.9009C85.6192 39.6514 90.3425 44.7286 92.02 52.123C92.4511 54.0069 92.6479 55.9285 92.5823 57.8596C92.2636 67.5147 86.4251 75.0975 78.8154 78.4886C78.4873 78.6393 78.1593 78.7806 77.8313 78.9219C77.7282 78.969 77.7001 79.1479 77.7845 79.2327C77.9906 79.4494 78.1968 79.666 78.4124 79.8827C80.8677 82.3506 83.3325 84.828 85.7878 87.2959C87.0905 88.6052 88.2245 90.037 89.1804 91.6101C90.7923 94.2664 91.8419 97.13 92.3011 100.201C92.4979 101.51 92.6198 102.829 92.5823 104.157C92.3105 115.442 84.5321 123.872 75.2916 126.237C73.5391 126.689 71.7679 126.953 69.9592 126.971C69.5093 126.971 69.0595 126.981 68.6096 126.981C53.7181 126.981 38.8172 126.981 23.9257 126.981C23.4759 126.981 23.026 126.981 22.5762 126.971C18.3121 126.887 14.3573 125.7 10.7773 123.383C5.49169 119.982 2.10853 115.178 0.618443 109.036C0.08426 106.832 -0.093801 104.572 0.0561451 102.311C0.684045 92.9477 6.5132 85.6004 14.1136 82.3506C14.3291 82.2564 14.5541 82.1622 14.7696 82.068C14.8727 82.0209 14.9008 81.8514 14.8165 81.7572C14.6103 81.5405 14.4041 81.3239 14.1886 81.1072C11.6863 78.5922 9.18412 76.0866 6.69126 73.5621C4.42333 71.2637 2.70832 68.598 1.55561 65.5742C0.824619 63.6621 0.346666 61.6745 0.14049 59.621C0.0561451 58.7827 -8.46811e-05 57.9443 0.0186586 57.0966C0.112375 50.955 2.23036 45.6235 6.43823 41.1586C9.72767 37.6733 13.7575 35.4691 18.4339 34.4612C19.9053 34.1409 21.3954 33.9902 22.8948 33.9902C23.2228 33.9902 23.5508 33.9902 23.8882 33.9902C31.3668 33.9997 38.8641 33.9997 46.3614 33.9997ZM69.4625 118.004C70.484 117.994 71.4961 117.91 72.4989 117.684C79.7244 116.063 84.7382 109.055 83.4168 101.293C82.9389 98.4582 81.6737 95.9902 79.6963 93.9085C79.4526 93.6447 79.1902 93.3904 78.9372 93.1361C63.8676 77.9987 48.798 62.8614 33.7284 47.7146C33.541 47.5262 33.3442 47.3284 33.1568 47.14C30.617 44.6344 27.5806 43.2403 24.0194 43.0142C21.8264 42.8729 19.7178 43.2215 17.6936 44.0692C11.8644 46.5089 8.13449 52.6788 9.11851 59.3385C9.51212 61.9665 10.543 64.3026 12.2299 66.3372C12.6141 66.7988 13.0265 67.2321 13.4576 67.656C28.649 82.9252 43.8498 98.2038 59.0412 113.473C59.2942 113.727 59.5473 113.982 59.8097 114.227C62.5462 116.732 65.77 117.985 69.4625 118.004ZM70.0341 71.4333C70.2965 71.4333 70.5308 71.4615 70.7651 71.4333C71.6554 71.3296 72.5457 71.1789 73.4079 70.9246C80.1274 68.9465 84.7007 62.1832 83.4075 54.7323C82.8826 51.7368 81.5238 49.1558 79.3495 47.0364C76.8661 44.6156 73.8952 43.2591 70.4371 43.0237C69.8092 42.986 69.1813 42.9671 68.5534 42.9671C60.3439 42.9671 52.1249 42.9671 43.9154 42.9671C43.4655 42.9671 43.0157 42.9671 42.5659 42.9671C42.4159 42.9671 42.266 42.9766 42.116 42.9954C42.0692 43.0048 42.0036 43.0519 41.9755 43.099C41.9567 43.1461 41.9661 43.2215 41.9942 43.2591C42.2191 43.5041 42.444 43.749 42.6783 43.975C50.8973 52.2455 59.1256 60.5065 67.3538 68.7769C68.0755 69.5022 68.7971 70.2275 69.5187 70.9434C69.678 71.1224 69.8654 71.2731 70.0341 71.4333ZM36.0057 118.013C40.476 118.013 44.9369 118.013 49.4072 118.013C49.7071 118.013 50.007 118.013 50.3068 118.004C50.3912 118.004 50.4849 117.976 50.5599 117.938C50.5974 117.919 50.6349 117.816 50.6255 117.797C50.4099 117.552 50.1944 117.297 49.9601 117.062C41.057 108.113 32.1634 99.1646 23.2603 90.2254C23.1104 90.0747 22.9604 89.9334 22.8198 89.7733C22.6418 89.5755 22.4262 89.5189 22.1732 89.5378C21.4516 89.5849 20.7487 89.7073 20.0458 89.858C13.1577 91.3558 7.71277 98.2698 9.23097 106.455C9.9151 110.139 11.8363 113.087 14.8446 115.31C17.075 116.958 19.5866 117.853 22.3606 117.985C22.8386 118.004 23.3165 118.013 23.7945 118.013C27.8524 118.013 31.9291 118.013 36.0057 118.013Z" fill="#58B1E4"/>
<path d="M134.905 52.3867C137.201 52.415 139.45 52.7352 141.643 53.404C144.464 54.2518 147.022 55.5988 149.253 57.5393C150.743 58.8297 151.98 60.3275 152.926 62.0607C153.404 62.9367 153.779 63.8504 154.07 64.8018C154.126 64.9996 154.154 65.2068 154.182 65.4141C154.191 65.4612 154.135 65.5365 154.088 65.5554C153.985 65.6119 153.873 65.6496 153.76 65.6778C151.961 66.1582 150.171 66.6292 148.372 67.1096C147.5 67.3357 146.638 67.5712 145.766 67.7972C145.607 67.8349 145.448 67.7596 145.391 67.6277C145.335 67.4864 145.288 67.3451 145.232 67.2038C144.698 65.8191 143.836 64.6888 142.702 63.7562C141.549 62.8048 140.237 62.1549 138.813 61.731C137.51 61.3448 136.179 61.147 134.82 61.1752C133.396 61.2129 132.018 61.4767 130.716 62.0607C129.666 62.5317 128.719 63.1628 127.932 64.0105C127.22 64.7641 126.686 65.6307 126.339 66.6009C125.964 67.6559 125.927 68.7298 126.142 69.813C126.405 71.1695 127.136 72.2527 128.223 73.0911C129.047 73.7222 129.966 74.1366 130.969 74.391C132.309 74.7207 133.649 75.0315 135.008 75.2764C136.685 75.5778 138.372 75.8604 140.05 76.1807C142.065 76.5669 143.995 77.2074 145.804 78.1682C147.06 78.837 148.212 79.6377 149.243 80.6174C151.427 82.6897 152.776 85.2235 153.385 88.1719C153.648 89.4435 153.77 90.734 153.742 92.0339C153.648 96.3293 152.055 99.937 148.878 102.81C147.275 104.261 145.438 105.325 143.452 106.116C141.83 106.757 140.153 107.2 138.428 107.454C137.06 107.652 135.692 107.774 134.305 107.746C131.044 107.671 127.876 107.105 124.849 105.815C123.293 105.155 121.841 104.327 120.51 103.281C118.832 101.962 117.464 100.389 116.48 98.4864C115.815 97.1865 115.384 95.8206 115.159 94.3794C115.112 94.0874 115.112 93.7766 115.093 93.4751C115.084 93.3621 115.196 93.2302 115.299 93.2114C115.627 93.1549 115.946 93.0889 116.274 93.0418C118.645 92.6745 121.016 92.3165 123.378 91.9492C123.462 91.9397 123.556 91.9397 123.649 91.9397C123.752 91.9397 123.827 91.9963 123.855 92.081C123.93 92.2788 123.987 92.4861 124.043 92.6839C124.418 93.9932 125.149 95.0765 126.161 95.9808C126.658 96.4235 127.192 96.8097 127.773 97.13C129.338 98.006 131.006 98.5523 132.777 98.8067C133.789 98.9574 134.811 98.9856 135.823 98.9479C137.116 98.8914 138.382 98.6654 139.609 98.2226C140.659 97.8364 141.633 97.3089 142.468 96.5554C143.33 95.7735 143.967 94.841 144.304 93.7106C144.839 91.9586 144.604 90.3196 143.611 88.7842C142.908 87.6915 141.961 86.8908 140.818 86.2974C140.171 85.9677 139.497 85.7322 138.794 85.5532C137.51 85.2424 136.226 84.9315 134.942 84.6584C133.068 84.2533 131.184 83.886 129.3 83.5186C127.314 83.1324 125.439 82.4353 123.687 81.3992C121.381 80.0239 119.61 78.1588 118.457 75.7191C117.876 74.4852 117.492 73.1947 117.258 71.8477C117.089 70.8963 117.024 69.9355 116.986 68.9747C116.874 65.7343 117.764 62.786 119.601 60.1297C120.622 58.6602 121.85 57.3885 123.265 56.2959C125.964 54.2141 129.019 52.9707 132.393 52.5469C133.227 52.4338 134.071 52.4338 134.905 52.3867Z" fill="#222222"/>
<path d="M161.342 80.1649C161.342 71.6966 161.342 63.2378 161.342 54.7695C161.342 53.3001 161.145 53.4602 162.617 53.4602C164.866 53.4508 167.115 53.4602 169.364 53.4602C170.208 53.4602 170.217 53.4696 170.217 54.3174C170.226 55.2217 170.217 56.126 170.217 57.0302C170.217 62.1828 170.217 67.3353 170.217 72.4879C170.217 72.8175 170.161 73.1472 170.283 73.4675C170.292 73.5052 170.395 73.5429 170.423 73.524C170.526 73.4581 170.62 73.3827 170.695 73.298C171.089 72.8835 171.473 72.4596 171.876 72.0546C172.466 71.4517 173.113 70.9148 173.806 70.4344C175.362 69.37 177.086 68.833 178.951 68.7671C180.395 68.72 181.828 68.8236 183.244 69.0874C185.315 69.4736 187.189 70.2837 188.904 71.4988C189.785 72.1205 190.61 72.827 191.387 73.5805C192.512 74.6921 193.374 75.992 194.04 77.4237C194.724 78.9026 195.183 80.4663 195.483 82.0676C195.839 83.9986 195.998 85.9485 196.008 87.9078C196.017 93.8987 196.008 99.899 196.008 105.89C196.008 106.135 195.998 106.37 195.989 106.615C195.98 106.728 195.876 106.851 195.773 106.86C195.623 106.87 195.473 106.888 195.324 106.888C192.84 106.888 190.347 106.888 187.864 106.888C187.742 106.888 187.62 106.879 187.508 106.87C187.358 106.86 187.236 106.738 187.236 106.578C187.226 106.276 187.217 105.975 187.217 105.673C187.217 100.163 187.208 94.6428 187.217 89.1323C187.217 88.0773 187.161 87.0224 187.048 85.9768C186.917 84.7428 186.645 83.5465 186.177 82.3879C185.961 81.8604 185.708 81.3423 185.399 80.8619C184.228 79.0533 182.569 78.036 180.451 77.8005C179.617 77.7063 178.783 77.7252 177.949 77.8853C177.143 78.0454 176.393 78.3469 175.709 78.7896C174.668 79.4584 173.741 80.2685 172.916 81.1916C172.044 82.1712 171.454 83.3204 171.051 84.5638C170.498 86.2311 170.245 87.9549 170.245 89.7164C170.236 92.1561 170.245 94.5957 170.245 97.0354C170.245 99.9272 170.245 102.819 170.245 105.711C170.245 106.012 170.226 106.314 170.208 106.615C170.198 106.738 170.086 106.851 169.983 106.86C169.833 106.87 169.683 106.888 169.533 106.888C167.049 106.888 164.556 106.888 162.073 106.888C161.895 106.888 161.717 106.87 161.539 106.841C161.492 106.832 161.436 106.775 161.417 106.719C161.389 106.634 161.38 106.54 161.37 106.455C161.361 106.154 161.361 105.852 161.361 105.551C161.342 97.1014 161.342 88.6331 161.342 80.1649Z" fill="#222222"/>
<path d="M239.145 88.8222C239.155 95.7927 235.715 101.501 230.973 104.798C228.743 106.343 226.287 107.341 223.607 107.727C222.361 107.906 221.105 107.944 219.84 107.869C215.66 107.624 212.08 105.975 208.997 103.187C206.138 100.606 204.189 97.46 203.177 93.7204C202.849 92.4958 202.671 91.243 202.605 89.9808C202.53 88.5019 202.605 87.0324 202.84 85.5724C203.299 82.7277 204.367 80.1373 205.979 77.7729C207.628 75.3521 209.718 73.3928 212.249 71.9328C214.385 70.6988 216.672 69.9452 219.127 69.7192C220.468 69.5967 221.817 69.625 223.157 69.8039C224.929 70.0394 226.615 70.5198 228.227 71.264C231.029 72.5639 233.344 74.4761 235.2 76.9534C237.14 79.5532 238.349 82.4733 238.864 85.676C239.052 86.7969 239.108 87.899 239.145 88.8222ZM211.274 88.6997C211.274 89.7453 211.33 90.5836 211.499 91.4126C211.827 92.9951 212.417 94.4645 213.383 95.7644C215.285 98.3266 217.844 99.5982 221.021 99.6453C221.564 99.6547 222.098 99.5794 222.633 99.4946C224.75 99.1555 226.54 98.1947 227.937 96.5462C228.846 95.4818 229.474 94.2479 229.858 92.9103C230.58 90.3952 230.598 87.8614 229.924 85.3369C229.586 84.0464 229.043 82.8407 228.255 81.7574C227.047 80.0996 225.472 78.9598 223.495 78.3946C222.417 78.0838 221.311 78.0178 220.205 78.0932C217.994 78.2345 216.091 79.0917 214.498 80.6365C213.626 81.4843 212.942 82.4639 212.427 83.566C211.63 85.2615 211.265 87.0418 211.274 88.6997Z" fill="#222222"/>
<path d="M339.918 82.6427C339.918 79.0256 339.918 75.4179 339.918 71.8007C339.918 71.5558 339.928 71.3203 339.937 71.0754C339.937 70.9718 340.068 70.8399 340.162 70.8305C340.256 70.8211 340.34 70.8023 340.434 70.8023C340.678 70.7928 340.912 70.7928 341.156 70.7928C343.255 70.7834 345.354 70.7834 347.444 70.7834C348.503 70.7834 348.494 70.7081 348.494 71.8007C348.494 75.5969 348.512 79.393 348.512 83.1797C348.522 86.0432 348.522 88.8974 348.531 91.7609C348.531 92.571 348.559 93.3811 348.728 94.1912C348.859 94.8411 349.037 95.4817 349.309 96.0845C350.04 97.6953 351.221 98.8256 352.861 99.4756C353.535 99.7394 354.229 99.9277 354.951 99.9937C356.15 100.107 357.35 100.135 358.531 99.8618C358.934 99.7676 359.346 99.6546 359.739 99.5133C361.52 98.8539 362.776 97.6294 363.516 95.8679C363.957 94.8317 364.154 93.7391 364.219 92.6181C364.238 92.2319 364.238 91.8363 364.238 91.4407C364.228 84.9317 364.219 78.4322 364.21 71.9232C364.21 71.6218 364.219 71.3203 364.228 71.0189C364.228 70.8965 364.341 70.7834 364.444 70.774C364.566 70.7646 364.678 70.7457 364.8 70.7457C367.256 70.7363 369.711 70.7363 372.176 70.7363C372.297 70.7363 372.41 70.7552 372.532 70.7646C372.635 70.774 372.747 70.887 372.757 71.0095C372.766 71.1885 372.785 71.3674 372.785 71.5464C372.794 72.3565 372.794 73.176 372.794 73.9861C372.804 80.0994 372.813 86.2128 372.822 92.3261C372.822 94.1441 372.625 95.9338 372.129 97.6765C371.323 100.493 369.767 102.782 367.434 104.543C365.587 105.937 363.526 106.87 361.286 107.398C359.083 107.916 356.844 108.047 354.585 107.887C352.692 107.755 350.846 107.398 349.075 106.7C347.669 106.145 346.366 105.419 345.176 104.487C342.786 102.631 341.249 100.22 340.5 97.2903C340.125 95.8208 339.956 94.3325 339.956 92.8159C339.956 89.8393 339.947 86.8533 339.947 83.8767C339.947 83.4528 339.947 83.0289 339.947 82.6145C339.937 82.6427 339.928 82.6427 339.918 82.6427Z" fill="#222222"/>
<path d="M317.033 107.802C311.185 107.953 305.721 104.958 302.329 100.559C300.614 98.3355 299.433 95.8582 298.833 93.1077C298.571 91.9019 298.421 90.6774 298.421 89.434C298.421 88.5015 298.43 87.5689 298.533 86.6364C298.749 84.7336 299.227 82.9062 300.014 81.173C302.057 76.6704 305.281 73.317 309.751 71.2164C311.504 70.3875 313.35 69.8883 315.281 69.7281C316.686 69.6057 318.092 69.6434 319.498 69.8129C320.875 69.9825 322.216 70.2839 323.509 70.7549C326.058 71.678 328.307 73.0627 330.219 75.0031C331.718 76.5197 332.815 78.3 333.574 80.297C333.621 80.41 333.64 80.523 333.677 80.6455C333.705 80.7491 333.63 80.8998 333.527 80.9375C333.302 81.0317 333.087 81.1165 332.862 81.2013C331.203 81.8135 329.544 82.4164 327.885 83.0287C327.464 83.1794 327.042 83.3395 326.62 83.4902C326.48 83.5373 326.33 83.5844 326.189 83.5938C326.114 83.6033 326.002 83.5467 325.964 83.4902C325.87 83.3395 325.795 83.17 325.721 83.0098C325.449 82.4446 325.149 81.8795 324.793 81.3614C323.453 79.4115 321.625 78.1964 319.301 77.7537C317.689 77.4522 316.077 77.4522 314.484 77.8667C312.244 78.4413 310.473 79.713 309.17 81.6251C308.271 82.9345 307.718 84.3851 307.399 85.9393C307.062 87.6066 307.015 89.2927 307.24 90.9694C307.427 92.4106 307.83 93.7953 308.505 95.0858C309.648 97.2523 311.335 98.8065 313.65 99.6072C315.112 100.116 316.621 100.285 318.167 100.116C319.067 100.012 319.938 99.8521 320.791 99.5224C322.75 98.7689 324.23 97.4878 325.224 95.6321C325.308 95.472 325.383 95.3119 325.467 95.1517C325.542 95.0198 325.702 94.9633 325.852 95.0198C326.377 95.2365 326.911 95.4531 327.436 95.6604C329.076 96.3292 330.706 96.998 332.346 97.6668C332.543 97.7421 332.73 97.8363 332.918 97.9305C332.984 97.9588 333.03 98.1001 333.002 98.166C332.899 98.4203 332.805 98.6747 332.684 98.9101C331.465 101.397 329.685 103.394 327.379 104.91C325.477 106.163 323.387 106.973 321.166 107.407C319.498 107.736 318.57 107.812 317.033 107.802Z" fill="#222222"/>
<path d="M277.363 87.8517C277.363 84.9599 277.363 82.0681 277.363 79.1763C277.363 78.0742 277.428 78.1307 276.36 78.1307C275.31 78.1307 274.261 78.1307 273.211 78.1307C273.005 78.1307 272.789 78.1118 272.583 78.1024C272.48 78.093 272.415 78.0176 272.396 77.9329C272.358 77.8198 272.358 77.6974 272.358 77.5749C272.358 75.4932 272.358 73.4209 272.358 71.3391C272.358 71.2167 272.358 71.0942 272.405 70.9812C272.433 70.9058 272.518 70.821 272.583 70.8116C272.761 70.7739 272.939 70.774 273.117 70.774C274.167 70.774 275.217 70.774 276.266 70.774C276.51 70.774 276.744 70.7739 276.988 70.7645C277.25 70.7551 277.353 70.6421 277.363 70.3689C277.372 70.0957 277.372 69.8226 277.372 69.5588C277.372 67.0626 277.372 64.557 277.372 62.0608C277.372 61.7876 277.372 61.5145 277.382 61.2507C277.391 61.0529 277.494 60.921 277.71 60.8833C278.122 60.808 278.534 60.7326 278.947 60.6667C281.074 60.3087 283.201 59.9508 285.329 59.5929C285.535 59.5552 285.741 59.5458 285.957 59.5269C286.107 59.5175 286.247 59.6305 286.256 59.7907C286.266 60.0921 286.275 60.3935 286.275 60.6949C286.275 63.6433 286.275 66.6011 286.275 69.5494C286.275 69.8508 286.285 70.1523 286.294 70.4537C286.303 70.6421 286.444 70.774 286.65 70.774C286.922 70.7834 287.194 70.7834 287.456 70.7834C289.105 70.7834 290.755 70.7834 292.395 70.7834C292.667 70.7834 292.929 70.7928 293.201 70.8022C293.313 70.8022 293.435 70.9152 293.445 71.0283C293.463 71.1507 293.482 71.2638 293.482 71.3862C293.482 73.4303 293.482 75.4838 293.482 77.5278C293.482 77.6785 293.454 77.8293 293.416 77.9705C293.407 78.0176 293.341 78.0742 293.295 78.0836C293.21 78.1118 293.117 78.1307 293.032 78.1307C292.789 78.1401 292.554 78.1401 292.311 78.1401C290.689 78.1401 289.077 78.1401 287.456 78.1401C287.184 78.1401 286.912 78.1495 286.65 78.1495C286.36 78.1495 286.294 78.3285 286.275 78.5546C286.266 78.6488 286.266 78.7335 286.266 78.8277C286.266 79.0067 286.266 79.1857 286.266 79.3741C286.266 84.3382 286.266 89.3118 286.266 94.2759C286.266 94.6716 286.266 95.0578 286.303 95.444C286.435 96.6685 287.044 97.5916 288.103 98.1945C288.74 98.5524 289.424 98.7502 290.155 98.7879C290.727 98.8068 291.289 98.8162 291.861 98.835C292.254 98.8539 292.639 98.8727 293.023 98.901C293.238 98.9198 293.323 99.0234 293.332 99.2589C293.341 99.3814 293.341 99.5038 293.341 99.6169C293.341 101.783 293.341 103.95 293.341 106.116C293.341 106.295 293.341 106.474 293.304 106.653C293.295 106.729 293.21 106.813 293.145 106.842C293.032 106.879 292.91 106.879 292.789 106.879C290.783 106.861 288.777 106.861 286.763 106.823C285.863 106.804 284.973 106.672 284.11 106.408C281.327 105.57 279.378 103.78 278.244 101.096C277.859 100.173 277.616 99.2212 277.485 98.2227C277.382 97.4786 277.344 96.725 277.344 95.9715C277.372 93.2774 277.363 90.5646 277.363 87.8517Z" fill="#222222"/>
<path d="M383.9 88.1434C383.9 85.195 383.9 82.2372 383.9 79.2889C383.9 78.9875 383.881 78.6861 383.862 78.3846C383.853 78.281 383.731 78.1586 383.628 78.1586C383.384 78.1491 383.15 78.1303 382.906 78.1303C381.828 78.1303 380.751 78.1303 379.673 78.1303C379.495 78.1303 379.317 78.1209 379.139 78.0926C379.064 78.0832 378.979 78.0078 378.97 77.9042C378.961 77.7818 378.933 77.6687 378.933 77.5463C378.933 75.5022 378.933 73.4487 378.933 71.4047C378.933 71.2822 378.951 71.1692 378.961 71.0467C378.97 70.9431 379.101 70.8018 379.186 70.8018C379.392 70.7924 379.607 70.7736 379.814 70.7736C380.835 70.7736 381.847 70.7736 382.869 70.7736C383.112 70.7736 383.347 70.7641 383.59 70.7547C383.759 70.7453 383.881 70.6417 383.881 70.4816C383.89 70.2084 383.9 69.9446 383.909 69.6715C383.909 67.8064 383.909 65.9413 383.909 64.0668C383.909 63.285 383.909 62.5031 383.909 61.7213C383.909 61.5423 383.918 61.3634 383.937 61.1844C383.946 61.0525 384.04 60.9677 384.153 60.9206C384.265 60.883 384.378 60.8547 384.499 60.8264C386.945 60.412 389.401 59.9881 391.847 59.583C392.812 59.4229 392.803 59.4135 392.803 60.3837C392.803 63.4545 392.803 66.5253 392.803 69.5961C392.803 69.8975 392.821 70.199 392.831 70.5004C392.831 70.6134 392.953 70.7265 393.056 70.7359C393.178 70.7453 393.29 70.7641 393.412 70.7641C393.684 70.7641 393.955 70.7641 394.218 70.7641C395.923 70.7641 397.629 70.7641 399.344 70.7641C399.972 70.7641 400 70.8018 400 71.4235C400 73.4393 400 75.4551 400 77.4803C400 77.6028 399.991 77.7158 399.981 77.8383C399.972 77.989 399.841 78.102 399.681 78.102C399.41 78.1115 399.138 78.1115 398.875 78.1115C397.198 78.1115 395.52 78.1115 393.843 78.1115C392.746 78.1115 392.803 78.0361 392.803 79.1288C392.803 84.2436 392.803 89.3679 392.803 94.4828C392.803 94.9632 392.812 95.4436 392.934 95.9145C393.224 97.0072 393.871 97.7796 394.864 98.2695C395.464 98.5615 396.101 98.731 396.767 98.7499C397.395 98.7687 398.023 98.7781 398.651 98.8064C398.979 98.8158 399.307 98.8535 399.635 98.8817C399.756 98.8912 399.869 99.0042 399.878 99.1078C399.897 99.2868 399.916 99.4658 399.916 99.6447C399.916 101.783 399.916 103.921 399.916 106.059C399.916 106.267 399.878 106.474 399.85 106.681C399.841 106.728 399.775 106.775 399.728 106.804C399.681 106.832 399.616 106.841 399.56 106.841C399.382 106.851 399.203 106.851 399.016 106.851C397.217 106.832 395.417 106.822 393.627 106.804C392.662 106.794 391.716 106.681 390.788 106.408C387.892 105.57 385.886 103.723 384.762 100.916C384.34 99.8802 384.106 98.797 384.003 97.676C383.937 96.8942 383.909 96.1124 383.909 95.3305C383.9 92.9662 383.9 90.5548 383.9 88.1434Z" fill="#222222"/>
<path d="M254.833 74.7393C254.946 74.6075 255.068 74.4756 255.19 74.3343C256.07 73.2699 257.167 72.4975 258.413 71.9417C259.294 71.5555 260.213 71.2918 261.159 71.1128C262.874 70.7925 264.608 70.736 266.351 70.7831C266.407 70.7831 266.473 70.7925 266.529 70.8114C266.604 70.849 266.689 70.8961 266.698 70.9998C266.707 71.1222 266.735 71.2352 266.735 71.3577C266.735 73.4018 266.735 75.4552 266.735 77.4993C266.735 77.6218 266.726 77.7348 266.717 77.8572C266.707 77.9797 266.604 78.0927 266.492 78.1022C266.314 78.1116 266.136 78.1304 265.958 78.1304C265.358 78.1304 264.758 78.1304 264.158 78.1304C261.084 78.1398 258.666 79.4303 256.858 81.8888C255.827 83.2924 255.208 84.8843 254.862 86.5892C254.683 87.4464 254.618 88.313 254.618 89.1891C254.627 94.6996 254.618 100.219 254.618 105.73C254.618 106.031 254.599 106.333 254.59 106.634C254.58 106.747 254.468 106.86 254.355 106.87C254.177 106.879 253.999 106.889 253.821 106.889C251.45 106.889 249.089 106.889 246.718 106.889C246.568 106.889 246.418 106.879 246.268 106.879C246.108 106.87 245.977 106.757 245.968 106.606C245.958 106.399 245.94 106.182 245.94 105.975C245.93 104.863 245.93 103.742 245.93 102.631C245.912 92.4765 245.893 82.3222 245.893 72.1772C245.893 70.5664 245.668 70.7925 247.261 70.7831C249.36 70.7737 251.46 70.7831 253.559 70.7831C253.831 70.7831 254.093 70.8019 254.365 70.8114C254.468 70.8208 254.59 70.9432 254.599 71.0469C254.618 71.2258 254.627 71.4048 254.627 71.5838C254.627 72.3939 254.627 73.2134 254.627 74.0235C254.627 74.2307 254.655 74.4379 254.683 74.6452C254.683 74.6828 254.768 74.7017 254.833 74.7393Z" fill="#222222"/>
</g>
<defs>
<clipPath id="clip0">
<rect width="400" height="93" fill="white" transform="translate(0 34)"/>
</clipPath>
</defs>
</svg>
