<svg width="400" height="160" viewBox="0 0 400 160" fill="none" xmlns="http://www.w3.org/2000/svg">
<path d="M131.994 107.352L136.718 96.3809C141.823 100.19 148.604 102.171 155.309 102.171C160.261 102.171 163.385 100.267 163.385 97.3714C163.309 89.2951 133.747 95.619 133.518 75.3522C133.442 65.0664 142.585 57.1426 155.537 57.1426C163.232 57.1426 170.928 59.0474 176.413 63.3902L171.994 74.5903C166.966 71.3903 160.718 69.1046 154.775 69.1046C150.737 69.1046 148.07 71.0093 148.07 73.4474C148.147 81.3713 177.937 77.0284 178.242 96.3809C178.242 106.895 169.328 114.286 156.528 114.286C147.156 114.286 138.547 112.076 131.994 107.352Z" fill="black"/>
<path d="M313.252 92.419C310.89 96.5333 306.471 99.3524 301.367 99.3524C293.824 99.3524 287.728 93.2571 287.728 85.7142C287.728 78.1713 293.824 72.076 301.367 72.076C306.471 72.076 310.89 74.8951 313.252 79.0094L326.281 71.7712C321.405 63.0855 312.033 57.1426 301.367 57.1426C285.595 57.1426 272.795 69.9427 272.795 85.7142C272.795 101.486 285.595 114.286 301.367 114.286C312.109 114.286 321.405 108.419 326.281 99.6571L313.252 92.419Z" fill="black"/>
<path d="M201.102 33.4473H184.797V113.219H201.102V33.4473Z" fill="black"/>
<path d="M332.68 33.4473V113.219H348.985V89.2952L368.337 113.219H389.213L364.604 84.7999L387.385 58.2855H367.423L348.985 80.3047V33.4473H332.68Z" fill="black"/>
<path d="M249.559 92.5714C247.197 96.4571 242.321 99.3524 236.835 99.3524C229.293 99.3524 223.197 93.2571 223.197 85.7142C223.197 78.1713 229.293 72.076 236.835 72.076C242.321 72.076 247.197 75.1236 249.559 79.0856V92.5714ZM249.559 58.2854V64.7617C246.893 60.2664 240.264 57.1426 233.331 57.1426C219.007 57.1426 207.73 69.7903 207.73 85.638C207.73 101.486 219.007 114.286 233.331 114.286C240.264 114.286 246.893 111.162 249.559 106.667V113.143H265.864V58.2854H249.559Z" fill="black"/>
<path d="M31.1906 92.4952C31.1906 98.0571 26.6953 102.552 21.1334 102.552C15.5714 102.552 11.0762 98.0571 11.0762 92.4952C11.0762 86.9333 15.5714 82.438 21.1334 82.438H31.1906V92.4952Z" fill="#E01E5A"/>
<path d="M36.2188 92.4952C36.2188 86.9333 40.714 82.438 46.276 82.438C51.8379 82.438 56.3332 86.9333 56.3332 92.4952V117.638C56.3332 123.2 51.8379 127.695 46.276 127.695C40.714 127.695 36.2188 123.2 36.2188 117.638V92.4952Z" fill="#E01E5A"/>
<path d="M46.276 52.1144C40.714 52.1144 36.2188 47.6191 36.2188 42.0572C36.2188 36.4953 40.714 32 46.276 32C51.8379 32 56.3332 36.4953 56.3332 42.0572V52.1144H46.276Z" fill="#36C5F0"/>
<path d="M46.2764 57.2192C51.8383 57.2192 56.3336 61.7145 56.3336 67.2764C56.3336 72.8384 51.8383 77.3336 46.2764 77.3336H21.0572C15.4953 77.3336 11 72.8384 11 67.2764C11 61.7145 15.4953 57.2192 21.0572 57.2192H46.2764Z" fill="#36C5F0"/>
<path d="M86.5801 67.2764C86.5801 61.7145 91.0754 57.2192 96.6373 57.2192C102.199 57.2192 106.694 61.7145 106.694 67.2764C106.694 72.8384 102.199 77.3336 96.6373 77.3336H86.5801V67.2764Z" fill="#2EB67D"/>
<path d="M81.5519 67.2764C81.5519 72.8383 77.0567 77.3336 71.4947 77.3336C65.9328 77.3336 61.4375 72.8383 61.4375 67.2764V42.0572C61.4375 36.4953 65.9328 32 71.4947 32C77.0567 32 81.5519 36.4953 81.5519 42.0572V67.2764Z" fill="#2EB67D"/>
<path d="M71.4947 107.581C77.0567 107.581 81.5519 112.076 81.5519 117.638C81.5519 123.2 77.0567 127.695 71.4947 127.695C65.9328 127.695 61.4375 123.2 61.4375 117.638V107.581H71.4947Z" fill="#ECB22E"/>
<path d="M71.4947 102.552C65.9328 102.552 61.4375 98.0571 61.4375 92.4952C61.4375 86.9333 65.9328 82.438 71.4947 82.438H96.7139C102.276 82.438 106.771 86.9333 106.771 92.4952C106.771 98.0571 102.276 102.552 96.7139 102.552H71.4947Z" fill="#ECB22E"/>
</svg>
