<svg width="400" height="160" viewBox="0 0 400 160" fill="none" xmlns="http://www.w3.org/2000/svg">
<path fill-rule="evenodd" clip-rule="evenodd" d="M36.9998 103.778C37.7402 101.421 38.4922 99.067 39.2166 96.7051C39.6732 95.2165 40.0877 93.7152 40.4829 92.3525C43.3458 93.068 46.0696 93.9469 48.8622 94.3842C51.1177 94.7383 53.4575 94.6363 55.7568 94.5875C56.9638 94.5615 58.2235 94.2301 58.5771 92.8014C58.9473 91.3079 57.9885 90.4345 56.8253 89.8531C55.4282 89.1548 53.9613 88.5935 52.5165 87.9916C51.4109 87.5316 50.2704 87.1504 49.1847 86.6494C42.0141 83.3409 39.436 77.8217 41.5713 70.2449C43.8906 62.0152 49.7589 57.9719 57.8611 56.7117C62.6176 55.9718 67.3393 56.3902 72.0072 57.5003C72.276 57.564 72.5409 57.6438 72.8041 57.7269C78.0634 59.3884 79.6749 62.7462 77.6777 67.8763C77.6444 67.9616 77.6101 68.0486 77.5674 68.1296C76.8974 69.3903 76.4911 70.9526 75.4875 71.8343C74.2866 72.8889 72.8895 71.4552 71.5744 71.192C68.3912 70.5536 65.2345 69.9562 61.9787 70.5015C60.796 70.6993 59.6694 71.0285 59.4122 72.4195C59.1656 73.7551 60.044 74.5299 61.0692 75.0098C62.9435 75.8876 64.9125 76.5621 66.789 77.4355C68.788 78.3654 70.8423 79.2521 72.6662 80.4685C76.8896 83.286 78.3211 87.356 77.308 92.2733C75.5878 100.624 70.179 105.439 62.1494 107.321C53.9973 109.231 46.022 108.088 38.2822 105.047C37.8621 104.883 37.4277 104.754 36.9993 104.609C36.9998 104.332 36.9998 104.055 36.9998 103.778Z" fill="black"/>
<path fill-rule="evenodd" clip-rule="evenodd" d="M85.2685 57.5766C89.8793 57.5766 94.3449 57.5766 98.9131 57.5766C99.3149 59.6725 99.71 61.7363 100.168 64.1232C100.64 63.6028 100.923 63.2864 101.21 62.9738C104.52 59.37 108.528 57.0535 113.459 56.6744C120.834 56.1075 125.836 59.4919 128.183 66.5539C130.054 72.1833 129.823 77.9241 128.872 83.6694C128.084 88.4309 126.744 93.0246 124.255 97.207C119.784 104.72 113.144 108.277 104.424 107.925C102.219 107.836 100.321 106.934 98.7164 105.42C98.355 105.08 97.9926 104.742 97.439 104.223C96.3738 111.815 95.3392 119.187 94.289 126.673C88.0849 126.673 81.8835 126.673 75.4982 126.673C78.7524 103.659 82.0032 80.6679 85.2685 57.5766ZM110.753 78.0117C110.662 77.1715 110.611 76.0138 110.399 74.8855C109.667 70.9907 106.255 69.5016 102.892 71.6363C102.393 71.9533 101.907 72.6366 101.821 73.2108C100.853 79.6864 99.9472 86.171 99.0638 92.6588C98.7319 95.0973 99.4734 95.8066 102.007 95.6398C102.099 95.6332 102.189 95.6049 102.281 95.5988C105.421 95.3921 107.127 93.382 108.266 90.743C109.974 86.7872 110.464 82.5787 110.753 78.0117Z" fill="black"/>
<path fill-rule="evenodd" clip-rule="evenodd" d="M310.22 57.5183C315.278 56.83 320.223 56.2714 325.186 57.2573C328.177 57.8503 329.707 59.5239 329.901 62.5719C330.391 70.2568 330.86 77.9445 331.161 85.6383C331.286 88.8348 330.962 92.0491 331.029 95.3039C331.382 93.991 331.741 92.6803 332.087 91.3664C335.035 80.1624 338.881 69.256 343.058 58.4621C343.206 58.0819 343.69 57.566 344.021 57.5626C350.248 57.5089 356.476 57.5238 363 57.5238C362.783 58.3529 362.713 59.0728 362.418 59.6841C354.193 76.7536 345.962 93.8197 337.695 110.868C335.389 115.621 332.756 120.17 328.583 123.598C325.018 126.527 320.843 127.763 316.307 127.964C313.946 128.068 311.628 127.922 309.361 127.112C304.297 125.304 302.578 121.366 304.778 116.452C306.086 113.53 306.079 113.595 309.257 113.958C310.942 114.152 312.67 114.229 314.356 114.087C317.29 113.843 320.089 111.221 320.725 108.342C320.793 108.039 320.755 107.694 320.691 107.385C317.579 92.1638 314.464 76.9442 311.328 61.7279C311.049 60.3785 310.629 59.0584 310.22 57.5183Z" fill="black"/>
<path fill-rule="evenodd" clip-rule="evenodd" d="M200.232 57.5796C204.802 57.5796 209.27 57.5796 213.868 57.5796C214.207 59.993 214.546 62.401 214.922 65.081C215.332 64.5956 215.588 64.3035 215.833 64.0026C220.307 58.5062 226.033 55.9536 233.132 56.7006C238.789 57.2969 242.708 61.2804 243.719 67.3C244.41 71.4204 243.891 75.4859 243.327 79.558C242.727 83.8984 242.135 88.2399 241.541 92.5814C241.516 92.7632 241.515 92.9494 241.505 93.1334C241.35 96.0612 241.951 96.7367 245.039 96.9296C245.41 99.9914 244.599 102.7 242.288 104.747C241.114 105.788 239.628 106.596 238.149 107.146C235.137 108.266 231.979 108.255 228.87 107.553C224.56 106.58 222.083 103.394 222.176 98.6281C222.235 95.645 222.719 92.6651 223.095 89.6952C223.564 85.9888 224.185 82.3018 224.598 78.5904C224.743 77.2892 224.6 75.9148 224.347 74.6213C224.056 73.13 222.95 72.2406 221.473 71.9651C219.779 71.6498 218.253 72.1851 216.988 73.2963C216.676 73.5712 216.644 74.2207 216.576 74.71C215.144 85.0351 213.725 95.3623 212.299 105.687C212.242 106.094 212.128 106.493 212.03 106.95C205.828 106.95 199.654 106.95 193.322 106.95C195.63 90.4622 197.928 74.0428 200.232 57.5796Z" fill="black"/>
<path fill-rule="evenodd" clip-rule="evenodd" d="M305.486 96.9422C306.305 100.282 304.428 104.324 301.01 106.16C296.758 108.445 292.229 108.673 287.764 106.984C283.802 105.484 282.555 101.998 282.664 98.1348C282.759 94.787 283.307 91.4436 283.765 88.114C285.169 77.9309 286.625 67.7554 288.063 57.5773C288.946 51.3255 289.859 45.0765 290.702 38.818C290.929 37.1333 290.907 35.4159 291.091 33.7245C291.132 33.3466 291.517 32.7397 291.811 32.697C296.421 32.0315 301.04 31.4075 305.681 32.4964C308.969 33.2679 310.073 34.706 309.624 38.0128C308.619 45.4123 307.534 52.8007 306.488 60.1941C305.143 69.6868 303.804 79.1806 302.465 88.6743C302.266 90.0881 302.008 91.5007 301.913 92.9227C301.71 95.9907 302.361 96.7006 305.486 96.9422Z" fill="black"/>
<path fill-rule="evenodd" clip-rule="evenodd" d="M277.558 94.0654C277.439 96.2445 277.318 98.5344 277.187 100.824C277.131 101.79 276.948 102.763 277.012 103.72C277.095 104.965 276.544 105.456 275.416 105.829C270.088 107.595 264.677 108.481 259.071 107.668C254.088 106.946 251.32 103.913 250.922 98.8602C250.578 94.4905 251.292 90.2088 251.897 85.9139C252.635 80.6635 253.376 75.4126 254.14 69.9982C252.13 69.9982 250.219 69.9982 248.129 69.9982C248.463 67.5648 248.759 65.3015 249.092 63.0437C249.266 61.865 249.141 60.352 249.824 59.6188C250.516 58.8796 252.027 58.7377 253.202 58.6512C256.533 58.4068 258.274 56.7177 258.976 53.448C259.524 50.8959 260.565 48.4442 261.464 45.9759C261.608 45.5802 262.158 45.0648 262.526 45.0604C267.004 45.0027 271.484 45.0288 275.964 45.041C276.091 45.0415 276.219 45.1213 276.468 45.2044C275.902 49.2506 275.335 53.3006 274.748 57.5002C277.578 57.5002 280.33 57.5002 283.234 57.5002C282.632 61.707 282.053 65.7537 281.453 69.9516C278.991 69.9516 276.606 69.9915 274.223 69.9317C273.267 69.9079 272.895 70.1162 272.756 71.1764C271.934 77.4409 271.006 83.6916 270.107 89.9456C269.68 92.9221 270.65 94.0443 273.696 94.0654C274.929 94.0726 276.163 94.0654 277.558 94.0654Z" fill="black"/>
<path fill-rule="evenodd" clip-rule="evenodd" d="M136.125 57.5704C140.722 57.5704 145.189 57.5704 149.761 57.5704C150.162 59.6524 150.559 61.7185 151.017 64.0959C151.482 63.5766 151.791 63.2281 152.105 62.8822C155.959 58.6217 160.701 56.3124 166.504 56.385C169.277 56.4199 170.9 57.8779 170.852 60.6417C170.821 62.4073 170.521 64.2483 169.925 65.9059C168.932 68.6652 167.605 71.3048 166.532 73.7388C163.565 73.3763 160.889 73.0444 158.212 72.7285C157.895 72.6913 157.566 72.7274 157.244 72.7484C153.175 73.0139 152.59 73.5803 152.037 77.6158C150.744 87.0686 149.423 96.518 148.146 105.972C148.049 106.691 147.884 107.033 147.082 107.03C141.359 107.002 135.637 107.013 129.914 107.006C129.738 107.005 129.561 106.939 129.224 106.871C131.525 90.4281 133.823 74.0142 136.125 57.5704Z" fill="black"/>
<path fill-rule="evenodd" clip-rule="evenodd" d="M168.228 106.882C168.586 104.252 168.927 101.662 169.292 99.0747C170.825 88.2138 172.392 77.3573 173.884 66.4902C174.287 63.5547 174.861 60.7793 177.222 58.6862C180.047 56.1807 184.289 55.6254 187.676 57.411C191.068 59.2005 193.088 62.9174 192.584 66.5872C190.783 79.6921 188.955 92.7941 187.153 105.898C187.051 106.638 186.847 107.041 185.97 107.035C180.34 106.998 174.71 107.017 169.08 107.01C168.858 107.008 168.636 106.945 168.228 106.882Z" fill="black"/>
<path fill-rule="evenodd" clip-rule="evenodd" d="M185.21 50.0943C184.914 50.0788 184.314 50.0588 183.718 50.0139C179.383 49.6925 177.219 47.3622 177.236 43.0401C177.261 36.8165 181.103 32.8137 187.318 32.5709C188.328 32.5316 189.361 32.4972 190.351 32.6585C194.894 33.4011 197.349 37.0183 196.515 41.638C195.507 47.2236 191.729 50.127 185.21 50.0943Z" fill="black"/>
</svg>
