<svg width="400" height="160" viewBox="0 0 400 160" fill="none" xmlns="http://www.w3.org/2000/svg">
<path opacity="0.8" d="M118.727 42.4693L113.364 80.2122L75.6215 74.8498L80.9839 37.1069L118.727 42.4693Z" fill="#A295AE"/>
<path opacity="0.8" d="M32.4816 117.944L37.844 80.2012L75.5869 85.5636L70.2245 123.306L32.4816 117.944Z" fill="#5D6F6D"/>
<path opacity="0.8" d="M37.844 37.1572L75.5868 42.5196L70.2244 80.2625L32.4816 74.9001L37.844 37.1572Z" fill="#8CD592"/>
<path opacity="0.8" d="M113.32 123.311L75.5769 117.949L80.9393 80.2061L118.682 85.5685L113.32 123.311Z" fill="#665E74"/>
<path opacity="0.8" d="M71.8193 137.356L48.9229 106.876L79.4028 83.9795L102.299 114.459L71.8193 137.356Z" fill="#3C3647"/>
<path opacity="0.8" d="M132.701 83.9214L102.221 106.818L79.3247 76.3378L109.805 53.4414L132.701 83.9214Z" fill="#837193"/>
<path opacity="0.8" d="M79.3469 23.0327L102.243 53.5127L71.7633 76.4091L48.8669 45.9291L79.3469 23.0327Z" fill="#A2F4AC"/>
<path opacity="0.8" d="M18.3967 76.4403L48.8767 53.5439L71.7731 84.0239L41.2931 106.92L18.3967 76.4403Z" fill="#7EA685"/>
<path d="M75.5489 65.7012L90.0419 80.1942L75.5489 94.6871L61.0559 80.1942L75.5489 65.7012Z" fill="#3C3647"/>
<path d="M173.624 116.176H169.414V59.9023H150V55.9475H193.038V59.9023H173.624V116.176Z" fill="#4A4656"/>
<path d="M231.558 94.9189H207.281L198.943 116.176H194.324L218.357 55.7003H221.013L244.555 116.176H239.855L231.558 94.9189ZM208.793 91.1289H230.169L222.035 69.4186C221.354 67.7158 220.537 65.3539 219.583 62.3329C218.847 64.9694 218.043 67.3588 217.172 69.501L208.793 91.1289Z" fill="#4A4656"/>
<path d="M253.894 116.176V55.9475H258.063V116.176H253.894Z" fill="#4A4656"/>
<path d="M299.322 85.8146H321.352V113.292C315.575 115.764 309.076 117 301.856 117C292.428 117 285.194 114.322 280.153 108.967C275.139 103.584 272.633 95.9763 272.633 86.1442C272.633 80.0197 273.872 74.5956 276.352 69.8718C278.859 65.1205 282.428 61.454 287.06 58.8724C291.72 56.2908 297.06 55 303.082 55C309.594 55 315.439 56.2084 320.616 58.6252L318.94 62.4153C313.763 59.9984 308.395 58.79 302.837 58.79C294.962 58.79 288.709 61.2481 284.077 66.1641C279.472 71.0527 277.169 77.6578 277.169 85.9794C277.169 95.0425 279.363 101.867 283.75 106.454C288.137 111.013 294.581 113.292 303.082 113.292C308.586 113.292 313.259 112.51 317.101 110.944V89.7694H299.322V85.8146Z" fill="#4A4656"/>
<path d="M366.003 94.9189H341.725L333.387 116.176H328.769L352.801 55.7003H355.458L379 116.176H374.3L366.003 94.9189ZM343.237 91.1289H364.613L356.48 69.4186C355.799 67.7158 354.981 65.3539 354.027 62.3329C353.292 64.9694 352.488 67.3588 351.616 69.501L343.237 91.1289Z" fill="#4A4656"/>
</svg>
