<svg width="400" height="160" viewBox="0 0 400 160" fill="none" xmlns="http://www.w3.org/2000/svg">
<g clip-path="url(#clip0)">
<path d="M70.5959 61.3692C70.8639 61.9413 71.2163 62.47 71.6414 62.9374C72.0344 63.3811 72.4992 63.7557 73.0162 64.0456C73.4984 64.3174 74.0331 64.4831 74.5844 64.5317C75.0733 64.5777 75.5658 64.497 76.0144 64.2974C76.463 64.0978 76.8527 63.7861 77.1459 63.3922C77.4549 62.9767 77.6739 62.5014 77.7888 61.9965C77.9212 61.4243 77.953 60.8335 77.8829 60.2505C77.8028 59.6209 77.6265 59.0074 77.3602 58.4314C77.1093 57.8631 76.7765 57.3348 76.3722 56.8632C75.9905 56.4165 75.5385 56.0351 75.034 55.734C74.5536 55.452 74.0193 55.274 73.4658 55.2113C72.9604 55.1489 72.4474 55.2173 71.976 55.4099C71.5265 55.5991 71.1326 55.8995 70.8312 56.2829C70.5048 56.7003 70.2729 57.1837 70.1516 57.6995C70.009 58.2932 69.9754 58.9078 70.0523 59.5134C70.1352 60.1567 70.3186 60.7829 70.5959 61.3692ZM82.9953 96.3195V95.8909C82.957 95.2392 82.8995 94.591 82.8228 93.9463C82.7444 93.3033 82.6608 92.6551 82.5667 92.0017C82.4726 91.3483 82.3785 90.6948 82.2896 90.0257L81.0926 80.3707L79.8537 70.3916C79.8122 70.0535 79.7493 69.7182 79.6655 69.388C79.5895 69.0902 79.4917 68.7984 79.3727 68.515C79.2614 68.2535 79.1286 68.0017 78.9755 67.7623C78.8309 67.5355 78.6664 67.3221 78.4841 67.1245C78.2982 66.9323 78.0952 66.7573 77.8777 66.6018C77.6553 66.4373 77.4192 66.2921 77.172 66.1679C76.9141 66.0381 76.6468 65.928 76.3722 65.8386C76.0794 65.7446 75.7808 65.6695 75.4783 65.6138L75.1072 65.5511L74.7204 65.4779L74.3492 65.4204L73.9781 65.3577L73.701 65.3211L73.4553 65.2845H72.9953C72.7275 65.2618 72.4582 65.2618 72.1903 65.2845C71.9668 65.3029 71.7469 65.3521 71.5369 65.4308C71.3449 65.5 71.1676 65.6047 71.0141 65.7393C70.8623 65.8778 70.7366 66.0424 70.643 66.2254C70.5601 66.3923 70.4952 66.5675 70.4496 66.7482C70.3928 66.9504 70.3509 67.1566 70.3241 67.365C70.2926 67.6113 70.2734 67.859 70.2666 68.1073V68.9855L71.3591 80.883L71.6101 83.4079L72.1328 89.1214C72.3314 91.2123 72.5353 93.3817 72.6974 95.0911C72.8594 96.8004 72.9796 98.0759 73.0058 98.4314C73.0528 98.9541 73.1051 99.388 73.1521 99.78C73.1962 100.114 73.2154 100.452 73.2096 100.789C73.2119 101.029 73.1447 101.265 73.0162 101.468C72.8684 101.66 72.6537 101.789 72.4151 101.829H72.3576C72.2282 101.812 72.107 101.756 72.0092 101.67C71.9115 101.583 71.8417 101.469 71.8087 101.343C71.6533 100.981 71.541 100.602 71.4741 100.214C71.3905 99.8009 71.3382 99.3828 71.3069 99.0743C71.2755 98.7659 71.2598 98.5516 71.2598 98.5516C71.1605 97.6473 71.035 96.5652 70.8991 95.3368C70.7632 94.1083 70.6116 92.7231 70.4496 91.2437C70.2875 89.7644 70.115 88.1491 69.9268 86.4659C69.7387 84.7827 69.5557 83.0106 69.3623 81.1914L69.1584 79.2573L68.9964 77.3545L68.8029 75.5563C68.7402 74.9708 68.6827 74.4063 68.62 73.8626C68.5671 73.3499 68.478 72.8416 68.3534 72.3415C68.238 71.8747 68.0751 71.4211 67.8672 70.9876C67.6655 70.5702 67.4088 70.1816 67.104 69.8323C66.7854 69.4704 66.4155 69.1569 66.0063 68.9018L65.8599 68.8182L65.7136 68.7346L65.562 68.6562L65.4051 68.583C65.0668 68.4252 64.7174 68.2924 64.3597 68.1857C64.0042 68.0811 63.6487 67.9975 63.2881 67.9243C62.9274 67.8511 62.5667 67.7936 62.2008 67.7309C61.8348 67.6682 61.4689 67.6107 61.103 67.5375L60.7894 67.48L60.4809 67.4329L60.183 67.3963H59.9007C59.5789 67.3701 59.2555 67.3701 58.9336 67.3963C58.6477 67.4234 58.3655 67.4813 58.092 67.5689C57.8435 67.6476 57.6063 67.7583 57.3863 67.8982C57.1742 68.0344 56.9824 68.1998 56.8165 68.3896C56.6276 68.6064 56.4709 68.8494 56.3513 69.1109C56.2189 69.4036 56.1207 69.7106 56.0586 70.0257C55.9864 70.3909 55.9462 70.7617 55.9383 71.1339C55.9277 71.5702 55.9452 72.0067 55.9906 72.4408C56.0673 73.1796 56.1387 73.9184 56.2049 74.6572C56.2711 75.396 56.3356 76.1348 56.3983 76.8736C56.4611 77.6124 56.5203 78.3512 56.5761 79.09C56.6318 79.8288 56.6859 80.5676 56.7381 81.3064C56.7956 82.1376 56.9263 83.596 57.0988 85.3838C57.2713 87.1716 57.4961 89.2782 57.7418 91.4005C57.9875 93.5229 58.2645 95.6609 58.5311 97.5061C58.7261 98.9702 58.9948 100.424 59.3361 101.861C59.425 102.195 59.5034 102.504 59.5871 102.833C59.6707 103.162 59.77 103.518 59.9007 103.946C60.0314 104.375 60.1934 104.877 60.4234 105.514C60.6534 106.152 60.9148 106.895 61.2598 107.815C60.9828 107.71 60.6273 107.673 60.2143 107.548C59.7125 107.392 59.2566 107.116 58.8866 106.743C58.2581 106.076 57.763 105.296 57.4281 104.443C56.8003 102.908 56.3258 101.314 56.0115 99.6859C55.8808 98.8339 55.7502 97.8459 55.6195 96.7638C55.4888 95.6818 55.3633 94.5056 55.2431 93.2772C55.1229 92.0487 54.9974 90.7732 54.8824 89.4873C54.7674 88.2014 54.6524 86.9102 54.5479 85.6556L54.4433 84.422L54.3597 83.1622C54.3248 82.7509 54.2917 82.3397 54.2603 81.9285L54.161 80.6948C54.1018 79.9456 54.0408 79.1946 53.9781 78.4418C53.9153 77.6891 53.8509 76.9381 53.7847 76.1888C53.7184 75.4396 53.6505 74.6886 53.5808 73.9358C53.5111 73.1831 53.4362 72.4321 53.356 71.6828C53.3142 71.2786 53.2619 70.8987 53.1992 70.5432C53.1365 70.1878 53.0633 69.8497 52.9796 69.5291C52.8997 69.2188 52.8019 68.9134 52.6869 68.6143C52.5809 68.3433 52.4569 68.0796 52.3158 67.825C52.1072 67.4479 51.8545 67.0969 51.563 66.7795C51.2652 66.4605 50.9319 66.1763 50.5698 65.9327C50.1696 65.6638 49.7463 65.4311 49.3048 65.2374C48.794 65.0146 48.2703 64.8226 47.7366 64.6624C47.3811 64.5526 47.0413 64.4324 46.6649 64.354L45.5724 64.077C45.2065 63.9881 44.8406 63.9097 44.4694 63.8313C44.0983 63.7529 43.7272 63.6849 43.356 63.6222L43.0058 63.5647L42.666 63.5176H42.0126C41.4096 63.4686 40.803 63.4862 40.2039 63.5699C39.6935 63.6408 39.1976 63.7925 38.735 64.0195C38.304 64.2346 37.9174 64.529 37.5954 64.8872C37.2541 65.2735 36.9786 65.7132 36.7799 66.1888C36.6721 66.4409 36.5796 66.6992 36.5029 66.9625C36.4227 67.2378 36.353 67.5288 36.2938 67.8354C36.2363 68.1439 36.184 68.468 36.1474 68.813C36.1015 69.1598 36.0735 69.5087 36.0638 69.8585V71.5208C36.0586 71.7078 36.0691 71.8949 36.0952 72.0801C36.1405 72.7771 36.1805 73.4741 36.2154 74.1711C36.2502 74.868 36.2868 75.5511 36.3252 76.2202C36.36 76.9172 36.3931 77.595 36.4245 78.2536C36.4558 78.9123 36.4872 79.5884 36.5186 80.2819C36.5569 81.1636 36.597 82.0348 36.6388 82.8956C36.6806 83.7563 36.7242 84.638 36.7695 85.5406C36.8148 86.4258 36.8671 87.3127 36.9263 88.2014C36.9856 89.09 37.0465 89.9978 37.1093 90.9248C37.1877 91.9703 37.2504 93.0158 37.3184 94.0299C37.3863 95.044 37.4543 96.1209 37.5484 97.1245C37.6425 98.1282 37.7522 99.1789 37.9091 100.198C38.0621 101.217 38.2663 102.227 38.5207 103.225C38.7454 104.171 39.097 105.081 39.5661 105.933C39.9867 106.675 40.5312 107.34 41.1762 107.898C41.8078 108.437 42.5275 108.863 43.3037 109.158C44.1439 109.473 45.0233 109.672 45.9174 109.749L46.6806 109.806H48.0293L48.7036 109.759L49.4198 109.675L50.23 109.56L51.1657 109.409L52.2687 109.226C53.4083 109.033 54.459 108.865 55.447 108.703L58.2488 108.264C59.1375 108.123 60.0053 107.987 60.8625 107.841C61.7198 107.694 62.5928 107.543 63.4762 107.375C64.7761 107.131 66.0638 106.896 67.3393 106.67L71.0925 106.001L74.7517 105.342C75.9645 105.122 77.1424 104.894 78.2854 104.657C79.0037 104.522 79.6911 104.256 80.3137 103.873C80.883 103.515 81.3709 103.041 81.746 102.483C82.1526 101.877 82.4548 101.207 82.6399 100.501C82.8544 99.646 82.9737 98.7694 82.9953 97.8877V96.3195ZM57.4281 63.1099C57.7404 63.7522 58.1494 64.3428 58.6409 64.8611C59.1067 65.3581 59.6527 65.7734 60.2562 66.0895C60.8251 66.3885 61.4499 66.5665 62.091 66.6122C62.6778 66.6562 63.2665 66.5557 63.8056 66.3195C64.3112 66.0925 64.7542 65.7463 65.0967 65.3106C65.4581 64.8478 65.7166 64.3131 65.8547 63.7424C66.0112 63.0995 66.0484 62.4333 65.9645 61.7769C65.8808 61.0668 65.6831 60.3749 65.379 59.7278C65.0835 59.0988 64.6959 58.5174 64.229 58.0027C63.7776 57.5024 63.248 57.0786 62.6608 56.7482C62.0986 56.4304 61.4781 56.2295 60.8364 56.1575C60.2431 56.0883 59.6419 56.1655 59.0852 56.3822C58.5613 56.5932 58.0979 56.9309 57.7366 57.365C57.3568 57.8226 57.082 58.3579 56.9315 58.9332C56.7627 59.5972 56.7219 60.2874 56.8113 60.9667C56.8951 61.7106 57.1036 62.4352 57.4281 63.1099ZM38.9284 58.4052C39.324 59.1769 39.8372 59.8823 40.4496 60.4962C41.0426 61.0964 41.7294 61.5961 42.483 61.9755C43.2019 62.3407 43.9848 62.5626 44.7883 62.629C45.5208 62.6919 46.2579 62.5845 46.942 62.3153C47.5678 62.0648 48.1238 61.6666 48.5625 61.1548C49.0117 60.6252 49.3367 60.0019 49.5139 59.3305C49.7122 58.5753 49.7601 57.7885 49.655 57.0147C49.5478 56.1818 49.3022 55.3726 48.9284 54.6206C48.555 53.866 48.0704 53.1717 47.4909 52.561C46.9211 51.9574 46.2595 51.4475 45.5306 51.0503C44.8206 50.6637 44.0436 50.4153 43.241 50.3185C42.4982 50.2232 41.7434 50.3001 41.035 50.5432C40.3815 50.7716 39.7944 51.1576 39.3257 51.6671C38.8371 52.1956 38.4791 52.8312 38.2802 53.5229C38.0653 54.3037 38.0119 55.1201 38.1234 55.9222C38.248 56.7848 38.5203 57.6195 38.9284 58.3896V58.4052Z" fill="#3FACFF"/>
<path d="M12.5396 52.1783C12.9579 52.8772 13.4677 53.5172 14.0555 54.0811C14.5992 54.6125 15.2283 55.049 15.9165 55.3722L16.3712 55.5447C16.5228 55.6022 16.6744 55.6493 16.826 55.6911C16.9776 55.7329 17.124 55.7643 17.2756 55.7956C17.4272 55.827 17.5683 55.8427 17.7147 55.8584C18.2037 55.9081 18.6975 55.8816 19.1784 55.78C19.6325 55.6765 20.0668 55.4999 20.4643 55.2572C20.8591 55.0267 21.2125 54.7316 21.5098 54.3843C21.811 54.029 22.0512 53.6263 22.2207 53.1924V52.931C22.2573 52.816 22.2887 52.6958 22.32 52.5756C22.3507 52.4535 22.3734 52.3295 22.388 52.2044C22.388 52.079 22.4193 51.9483 22.4298 51.8176C22.4402 51.6869 22.4298 51.5562 22.4298 51.4203V50.8087C22.4298 50.6048 22.4716 50.4114 22.4716 50.2076C22.4586 50.0065 22.4271 49.807 22.3775 49.6116C22.3409 49.413 22.2939 49.2196 22.2468 49.0262C22.0884 48.4104 21.8659 47.813 21.583 47.2436C21.3067 46.6858 20.9701 46.16 20.5793 45.6754C20.1935 45.1956 19.7532 44.7623 19.2672 44.3843C18.7851 44.006 18.2584 43.6882 17.699 43.4381L17.3174 43.3126L16.9724 43.1976L16.6274 43.1088L16.2824 43.0513C16.0142 43.0111 15.7432 42.9936 15.4721 42.999C15.2088 43.0043 14.9465 43.0323 14.688 43.0826C14.4349 43.1326 14.1865 43.2043 13.9457 43.297C13.7081 43.3881 13.4789 43.5001 13.2609 43.6315L13.2087 43.6629L13.1564 43.6942L13.1041 43.7308L13.0623 43.7726L12.9578 43.8458L12.8584 43.9242L12.7591 44.0027L12.665 44.0863L12.5396 44.217L12.4037 44.3529L12.2782 44.494L12.158 44.6456L12.0796 44.7502L12.0064 44.8547L11.9332 44.9645L11.8339 45.09C11.7551 45.2237 11.6835 45.3615 11.6195 45.5029C11.4882 45.7947 11.3883 46.0996 11.3216 46.4125C11.2858 46.5851 11.2596 46.7597 11.2432 46.9352V47.5625C11.2406 48.3714 11.3569 49.1763 11.5882 49.9514C11.8122 50.7301 12.1318 51.4781 12.5396 52.1783ZM34.4946 110.521L34.1966 110.396L33.9719 110.302L33.7157 110.192L33.5694 110.124L33.2923 110.004L33.0309 109.91L32.8846 109.847C32.2089 109.58 31.5696 109.229 30.9818 108.801C30.4459 108.402 29.9857 107.91 29.6227 107.348C29.2215 106.711 28.9251 106.014 28.7445 105.283C28.516 104.381 28.3743 103.458 28.3211 102.529C28.2862 101.832 28.2531 101.135 28.2217 100.438C28.1904 99.7406 28.1608 99.0436 28.1329 98.3466C28.105 97.6496 28.0789 96.9526 28.0545 96.2557L27.9813 94.1647C27.9464 93.161 27.9133 92.1644 27.882 91.1746C27.8506 90.1849 27.8175 89.2004 27.7826 88.2212C27.7617 87.2558 27.7339 86.2957 27.699 85.3409C27.6642 84.386 27.6241 83.4294 27.5788 82.471C27.5353 82.0627 27.5353 81.6509 27.5788 81.2426C27.6101 80.9627 27.7107 80.695 27.8715 80.4637C28.0222 80.2684 28.2308 80.1257 28.4674 80.056C28.7716 79.9701 29.0874 79.933 29.4031 79.9462H32.0168C32.2866 79.9515 32.5553 79.9108 32.8114 79.826C33.0403 79.7636 33.2563 79.6609 33.4491 79.5228C33.6566 79.3498 33.8333 79.143 33.9719 78.9112C34.1237 78.6465 34.2414 78.3638 34.3221 78.0696C34.41 77.7747 34.4678 77.4717 34.4946 77.1652C34.5182 76.8792 34.5077 76.5914 34.4632 76.3079C34.418 76.027 34.3372 75.753 34.2228 75.4925C34.1008 75.2188 33.9464 74.9608 33.7628 74.724L33.7 74.6456L33.6373 74.5672L33.5694 74.4888L33.5014 74.4104C33.2983 74.1905 33.0742 73.9909 32.8323 73.8145C32.6075 73.6511 32.3677 73.5093 32.1161 73.391C31.8714 73.2769 31.6179 73.1826 31.3582 73.1088C31.0916 73.0344 30.8211 72.9751 30.5479 72.931C29.8937 72.8423 29.2483 72.6971 28.619 72.4972C28.1876 72.3672 27.8075 72.1059 27.5317 71.7496C27.262 71.3304 27.1003 70.8509 27.0613 70.3539C26.9739 69.5572 26.9338 68.756 26.941 67.9546V66.8673C26.9412 66.5665 26.9202 66.266 26.8783 65.9682C26.8417 65.6702 26.7947 65.3827 26.7372 65.0952C26.6797 64.8077 26.6065 64.5306 26.5228 64.2536C26.4392 63.9765 26.3399 63.7308 26.2353 63.4485C26.0453 63.0083 25.818 62.585 25.5558 62.1835C25.303 61.7851 25.0142 61.4107 24.6933 61.0649C24.3755 60.7202 24.0254 60.4069 23.6478 60.1292C23.2619 59.8478 22.8486 59.6061 22.4141 59.4078C21.7171 59.0802 20.9957 58.777 20.25 58.4982C19.5042 58.2194 18.7602 57.9702 18.0179 57.7507C17.2599 57.5311 16.4967 57.343 15.7178 57.1914C14.9347 57.0385 14.1443 56.9251 13.3498 56.8516H12.3043C12.0763 56.8383 11.8476 56.8383 11.6195 56.8516C11.3984 56.8675 11.1784 56.8972 10.9609 56.9404C10.5423 57.0254 10.1364 57.1642 9.75337 57.3534C9.40058 57.5286 9.07055 57.7463 8.77062 58.0016C8.61971 58.1307 8.47658 58.2686 8.34197 58.4146C8.2057 58.562 8.07827 58.7173 7.96037 58.8798C7.79644 59.1055 7.64966 59.3431 7.52127 59.5907C7.38872 59.8505 7.27516 60.1196 7.18149 60.3958C7.07511 60.6891 6.98951 60.9895 6.92535 61.2949C6.86296 61.5812 6.81757 61.8709 6.78944 62.1626C6.76853 62.4832 6.75285 62.8056 6.74239 63.1297C6.73194 63.4538 6.72323 63.7779 6.71626 64.102V66.0466C6.72303 66.324 6.71256 66.6016 6.68489 66.8777C6.65353 67.1234 6.65875 67.3377 6.63784 67.5259C6.6206 67.6917 6.5909 67.856 6.54898 68.0173C6.51798 68.1423 6.46866 68.2621 6.40261 68.3728C6.32819 68.4951 6.22148 68.5946 6.0942 68.6603C5.94169 68.7355 5.77713 68.7833 5.60805 68.8014C5.3704 68.8294 5.13116 68.8416 4.8919 68.838H3.89869C3.60064 68.8281 3.30246 68.8527 3.01003 68.9112C2.73062 68.9661 2.45866 69.0539 2.19979 69.1725C1.94663 69.2888 1.70802 69.4344 1.48886 69.6064C1.16928 69.8591 0.893727 70.1629 0.673391 70.5055C0.574672 70.5952 0.49472 70.7036 0.438158 70.8244C0.380657 70.9394 0.323156 71.0649 0.276109 71.1851C0.229063 71.3053 0.187243 71.436 0.145424 71.5719C0.109364 71.6901 0.0814192 71.8106 0.0617861 71.9326C0.0617861 72.0528 0.019967 72.1783 0.00428479 72.309C-0.00403243 72.3732 -0.00403243 72.4382 0.00428479 72.5024V73.0983C0.0363844 73.674 0.167233 74.2398 0.391112 74.7711C0.608452 75.2838 0.916583 75.7531 1.30068 76.1563C1.70482 76.575 2.17891 76.92 2.70162 77.1757C3.28227 77.4574 3.90292 77.6478 4.54166 77.7402C4.93123 77.7904 5.31049 77.9016 5.66555 78.0696C5.9469 78.2059 6.19087 78.4087 6.37647 78.6603C6.5599 78.924 6.6863 79.2231 6.74762 79.5385C6.82514 79.9325 6.85846 80.3341 6.84694 80.7355C6.84694 81.9378 6.833 83.1384 6.80512 84.3372C6.77724 85.536 6.77201 86.7418 6.78944 87.9546V99.1987C6.78944 100.051 6.82603 100.903 6.88876 101.75C6.95149 102.596 7.0299 103.433 7.15013 104.264C7.27036 105.095 7.41673 105.916 7.61014 106.726C7.79775 107.534 8.02808 108.331 8.30015 109.115C8.50457 109.714 8.77271 110.288 9.09995 110.83C9.40235 111.325 9.76396 111.781 10.1768 112.189C10.5768 112.59 11.0245 112.941 11.5098 113.234C12.0057 113.528 12.5314 113.768 13.078 113.95C13.5293 114.102 13.9903 114.222 14.458 114.311C14.9157 114.398 15.3784 114.458 15.8433 114.489C16.3047 114.513 16.7671 114.513 17.2285 114.489C17.6907 114.489 18.1522 114.452 18.6086 114.379H18.6818L19.147 114.316L19.607 114.243L20.067 114.159L20.527 114.065C21.6283 113.832 22.719 113.593 23.7994 113.349L26.9985 112.617L30.135 111.88L33.2244 111.154L33.6635 111.049L34.1026 110.945L34.5364 110.84L34.9703 110.741L34.4946 110.521Z" fill="#6EE549"/>
<path d="M106.21 92.2211C104.642 92.2211 103.774 90.9299 103.774 89.1892V76.978H109.2V70.7626H103.774V63.345H96.7434V70.7626H92.3158V76.978H96.7434V91.092C96.7434 95.9796 99.3571 98.5619 104.271 98.5619C107.203 98.5619 109.085 97.7778 110.136 96.8212L108.641 91.3742C107.967 91.9544 107.098 92.257 106.21 92.2211ZM126.132 70.0883C118.05 70.0883 112.295 76.4553 112.295 84.2963C112.295 93.0052 118.437 98.5671 126.576 98.5671C130.727 98.5671 134.94 97.276 137.59 94.8034L134.454 90.0988C132.739 91.782 129.639 92.7386 127.371 92.7386C122.833 92.7386 120.173 89.9838 119.676 86.6696H139.54V84.9759C139.53 76.1521 134.161 70.0883 126.132 70.0883ZM119.598 81.7192C119.88 79.0219 121.762 75.9325 126.132 75.9325C130.784 75.9325 132.551 79.1369 132.776 81.7192H119.598ZM156.017 70.0883C151.726 70.0004 147.558 71.5264 144.339 74.3643L147.104 79.3669C149.158 77.3442 151.916 76.1957 154.799 76.1625C158.343 76.1625 160.664 77.9608 160.664 80.7156V84.1395C158.892 82.0068 155.792 80.8254 152.196 80.8254C147.935 80.8254 142.954 83.1829 142.954 89.5917C142.954 95.6607 147.935 98.5776 152.196 98.5776C155.682 98.5776 158.84 97.2864 160.664 95.0386V97.8876H167.747V80.3706C167.747 72.5609 162.164 70.0883 156.022 70.0883H156.017ZM160.664 91.3795C159.503 92.9477 157.287 93.737 155.018 93.737C152.253 93.737 149.979 92.2786 149.979 89.691C149.979 87.1035 152.248 85.5927 155.018 85.5927C157.287 85.5927 159.503 86.4344 160.664 88.0078V91.3795ZM207.052 70.0883C205.242 70.1159 203.465 70.5735 201.867 71.4233C200.269 72.2732 198.897 73.4909 197.862 74.9759C196.921 71.944 194.375 70.0883 190.444 70.0883C186.346 70.0883 182.859 72.6706 181.699 74.2702V70.7626H174.673V97.8876H181.699V79.5917C182.744 78.1333 184.799 76.4553 187.235 76.4553C190.115 76.4553 191.218 78.2535 191.218 80.7835V97.8876H198.301V79.5917C199.3 78.1333 201.344 76.4553 203.837 76.4553C206.717 76.4553 207.82 78.2535 207.82 80.7835V97.8876H214.903V78.2901C214.914 72.7281 211.981 70.0883 207.052 70.0883ZM248.672 89.001L242.807 70.7626H236.534L230.685 89.001L225.703 70.7417H218.385L226.534 97.8876H234.062L239.707 79.4035L245.353 97.8876H252.88L261.019 70.7522H253.654L248.672 89.001ZM276.9 70.0674C268.097 70.0674 262.786 76.5859 262.786 84.2807C262.786 91.9754 268.103 98.5514 276.9 98.5514C285.698 98.5514 291.072 91.9963 291.072 84.2963C291.072 76.5964 285.755 70.0883 276.9 70.0883V70.0674ZM276.9 92.2002C272.525 92.2002 270.105 88.541 270.105 84.2807C270.105 80.0203 272.541 76.4396 276.9 76.4396C281.26 76.4396 283.764 80.0988 283.764 84.2807C283.764 88.4626 281.328 92.2211 276.9 92.2211V92.2002ZM303.356 74.3643V70.7051H296.325V97.8876H303.356V79.9733C304.517 78.2326 307.616 76.8839 309.943 76.8839C310.593 76.8682 311.244 76.9243 311.882 77.0512V70.0883C308.557 70.0883 305.275 72.0538 303.356 74.4114V74.3643ZM331.474 83.0418L342.049 70.7365H333.408L323.278 82.8379V60.4229H316.252V97.8876H323.283V90.9299L326.487 87.4328L333.57 97.8876H342.389L331.474 83.0418ZM363.691 86.9989C364.168 86.9817 364.642 87.0876 365.067 87.3064C365.492 87.5252 365.853 87.8495 366.116 88.2483L367.104 87.3439C366.71 86.7929 366.183 86.3496 365.573 86.0546C364.963 85.7597 364.289 85.6224 363.612 85.6555C360.774 85.6555 358.861 87.8667 358.861 90.7469C358.861 93.6272 360.774 95.8593 363.612 95.8593C364.289 95.8918 364.964 95.7538 365.574 95.4579C366.184 95.1619 366.71 94.7176 367.104 94.1657L366.116 93.2404C365.85 93.6375 365.489 93.9614 365.065 94.1825C364.641 94.4035 364.168 94.5145 363.691 94.5054C361.678 94.5054 360.397 92.8954 360.397 90.7417C360.397 88.588 361.678 86.9989 363.691 86.9989ZM355.782 93.6011C355.563 93.5971 355.349 93.6577 355.165 93.7752C354.981 93.8927 354.836 94.0619 354.748 94.2615C354.66 94.4612 354.632 94.6824 354.669 94.8975C354.706 95.1126 354.806 95.3119 354.956 95.4705C355.106 95.6291 355.3 95.7399 355.512 95.7889C355.725 95.838 355.947 95.8232 356.152 95.7464C356.356 95.6696 356.533 95.5341 356.66 95.3571C356.788 95.18 356.861 94.9692 356.869 94.7511C356.875 94.6037 356.852 94.4565 356.8 94.3182C356.749 94.18 356.67 94.0535 356.568 93.9462C356.467 93.839 356.345 93.7532 356.21 93.6939C356.075 93.6346 355.929 93.6031 355.782 93.6011ZM373.356 85.6502C370.455 85.6502 368.651 87.9242 368.651 90.7417C368.651 93.5593 370.465 95.8541 373.356 95.8541C376.247 95.8541 378.061 93.5593 378.061 90.7417C378.061 87.9242 376.257 85.6502 373.356 85.6502ZM373.356 94.5054C371.323 94.5054 370.22 92.7334 370.22 90.7417C370.22 88.7501 371.344 86.9989 373.356 86.9989C375.369 86.9989 376.492 88.771 376.492 90.7417C376.492 92.7125 375.384 94.5054 373.356 94.5054ZM374.83 64.7093C360.931 64.7093 349.66 76.1364 349.66 90.2347C349.66 104.333 360.931 115.755 374.83 115.755C388.73 115.755 400 104.328 400 90.2347C400 76.1416 388.73 64.7198 374.83 64.7198V64.7093ZM374.83 114.223C361.762 114.223 351.171 103.481 351.171 90.2347C351.171 76.9885 361.762 66.2409 374.83 66.2409C387.899 66.2409 398.489 76.978 398.489 90.2451C398.489 103.512 387.899 114.239 374.83 114.239V114.223ZM390.795 85.6502C390.159 85.6715 389.537 85.8443 388.982 86.1544C388.426 86.4644 387.953 86.9027 387.601 87.4328C387.455 86.8814 387.12 86.3985 386.655 86.0681C386.19 85.7377 385.624 85.5806 385.055 85.6241C384.449 85.6557 383.857 85.82 383.321 86.1055C382.786 86.3909 382.319 86.7905 381.955 87.276V85.8646H380.476V95.5875H381.955V88.5096C382.229 88.0831 382.597 87.7251 383.031 87.4632C383.466 87.2013 383.954 87.0424 384.459 86.9989C385.719 86.9989 386.215 87.783 386.215 89.0115V95.6137H387.695V88.4783C387.97 88.0501 388.342 87.6924 388.78 87.4337C389.219 87.175 389.712 87.0225 390.22 86.9885C391.464 86.9885 391.976 87.7726 391.976 89.001V95.6032H393.455V88.588C393.455 86.633 392.53 85.6502 390.795 85.6502Z" fill="#233459"/>
</g>
<defs>
<clipPath id="clip0">
<path d="M0 0H400V160H0V0Z" fill="white"/>
</clipPath>
</defs>
</svg>
