<svg width="400" height="160" viewBox="0 0 400 160" fill="none" xmlns="http://www.w3.org/2000/svg">
<path fill-rule="evenodd" clip-rule="evenodd" d="M0 44H17.7005L40.546 115.302H22.8455L0 44ZM33.8066 80.9915L43.5261 50.7431L52.4265 78.4834L42.6806 108.681L33.8085 80.9915H33.8066ZM45.6341 44H63.3346L86.1782 115.302H68.4796L45.6341 44ZM91.2645 44H109.079L88.3469 108.682L79.4749 80.9915L91.2663 44L91.2645 44Z" fill="#0CE79A"/>
<path fill-rule="evenodd" clip-rule="evenodd" d="M141.297 101.801H134.07V67.9906H122.618V61.6475H152.887V67.9887H141.297V101.801ZM165.647 97.0295C168.785 97.0295 171.033 95.803 172.055 92.1897L178.26 94.0304C176.828 100.438 171.443 102.62 165.374 102.62C156.787 102.62 150.923 96.7565 150.923 86.3944C150.923 75.7593 156.58 69.5565 165.647 69.5565C174.034 69.5565 178.396 75.2134 178.396 83.1906C178.396 84.8266 178.123 86.3944 177.852 87.4181H157.808C158.081 93.1432 160.739 97.0295 165.647 97.0295ZM158.013 82.7812H171.443C171.511 82.3717 171.511 81.9641 171.511 81.5546C171.511 77.9413 169.192 75.0105 165.308 75.0105C161.149 75.0105 158.489 77.9413 158.013 82.783V82.7812ZM199.543 92.1897V88.0987C191.771 87.8939 188.567 89.7347 188.567 93.2797C188.567 95.5982 190.135 97.3707 193.067 97.3707C196.066 97.3707 199.543 95.6665 199.543 92.1897ZM206.633 79.5091V93.6892C206.633 95.9394 207.657 96.5518 208.952 96.5518C209.7 96.5518 210.315 96.4172 210.79 96.2105V101.598C209.769 102.074 208.474 102.347 206.838 102.347C203.088 102.347 200.771 100.779 200.021 97.3044C198.453 101.257 194.908 102.62 190.749 102.62C185.226 102.62 181.408 99.4162 181.408 94.0304C181.408 87.0769 186.862 83.1224 199.543 83.7366V80.1916C199.543 76.6466 197.566 75.147 194.498 75.147C191.429 75.147 189.589 76.8513 189.386 80.0551L182.432 78.8949C182.908 72.2143 188.703 69.5565 194.974 69.5565C201.723 69.5565 206.633 72.3508 206.633 79.5091ZM239.71 76.5101C241.346 71.5338 245.3 69.5565 249.731 69.5565C254.982 69.5565 258.935 72.4191 258.935 79.1679V101.803H251.776V81.6873C251.776 77.9394 250.345 75.621 246.936 75.621C243.596 75.621 240.392 77.9394 240.392 83.9394V101.801H233.302V81.6873C233.302 77.9394 231.869 75.621 228.392 75.621C225.052 75.621 221.916 77.9394 221.916 84.0077V101.801H214.758V70.3053H220.553L221.439 76.3717C223.075 71.5338 226.825 69.5565 231.189 69.5565C235.551 69.5565 238.891 71.3954 239.71 76.5101ZM288.127 70.3053L292.284 85.3726C294.057 91.712 294.398 96.6219 294.398 96.6219H294.671C294.671 96.6219 294.876 91.7802 296.444 85.4409L300.193 70.3053H307.352L298.897 101.803H290.375L286.626 88.0987C285.058 82.4399 284.717 78.0778 284.717 78.0778H284.445C284.445 78.0778 284.104 82.3717 282.605 88.0987L279.06 101.803H270.536L261.81 70.3053H269.105L273.06 85.3726C274.764 91.712 275.173 96.6219 275.173 96.6219H275.446C275.446 96.6219 275.649 91.6437 277.285 85.3044L281.308 70.3053H288.127ZM323.247 97.0295C326.385 97.0295 328.633 95.803 329.655 92.1897L335.86 94.0304C334.428 100.438 329.043 102.62 322.976 102.62C314.385 102.62 308.523 96.7565 308.523 86.3944C308.523 75.7593 314.182 69.5565 323.247 69.5565C331.634 69.5565 335.996 75.2134 335.996 83.1906C335.996 84.8266 335.723 86.3944 335.452 87.4181H315.408C315.681 93.1432 318.339 97.0295 323.247 97.0295ZM315.613 82.7812H329.043C329.111 82.3717 329.111 81.9641 329.111 81.5546C329.111 77.9413 326.792 75.0105 322.908 75.0105C318.749 75.0105 316.089 77.9413 315.613 82.783V82.7812ZM353.869 97.0295C357.007 97.0295 359.257 95.803 360.279 92.1897L366.483 94.0304C365.052 100.438 359.666 102.62 353.598 102.62C345.008 102.62 339.145 96.7565 339.145 86.3944C339.145 75.7593 344.804 69.5565 353.871 69.5565C362.256 69.5565 366.62 75.2134 366.62 83.1906C366.62 84.8266 366.347 86.3944 366.074 87.4181H346.03C346.303 93.1432 348.963 97.0295 353.871 97.0295H353.869ZM346.235 82.7812H359.666C359.735 82.3717 359.735 81.9641 359.735 81.5546C359.735 77.9413 357.416 75.0105 353.53 75.0105C349.371 75.0105 346.713 77.9413 346.235 82.783V82.7812ZM386.279 84.9631L399.369 101.803H390.779L380.485 88.0987H378.644V101.803H371.486V56.2617H378.644V82.5082H380.212L389.892 70.3053H398.347L386.279 84.9631Z" fill="#21282C"/>
</svg>
