<svg width="400" height="160" viewBox="0 0 400 160" fill="none" xmlns="http://www.w3.org/2000/svg">
<path d="M55.9258 106.577V57.3191C55.9258 56.5529 55.266 55.8961 54.4962 55.8961H39.4297C38.6598 55.8961 38 55.2393 38 54.4731V50.423C38 49.6568 38.6598 49 39.4297 49H79.5703C80.3402 49 81 49.6568 81 50.423V54.4731C81 55.2393 80.3402 55.8961 79.5703 55.8961H64.5038C63.734 55.8961 63.0742 56.5529 63.0742 57.3191V106.577C63.0742 107.343 62.4143 108 61.6445 108H57.3555C56.4757 108 55.9258 107.343 55.9258 106.577Z" fill="#222222"/>
<path d="M114.384 94.622L117.735 94.0732C118.629 93.9634 119.523 94.5122 119.746 95.3902C120.305 97.4756 121.199 99.2317 122.539 100.439C124.215 101.976 126.673 102.744 129.801 102.744C132.929 102.744 135.275 102.085 136.727 100.659C138.291 99.3415 138.962 97.6951 138.962 95.8293C138.962 94.1829 138.291 92.8659 136.951 91.9878C136.057 91.3293 133.711 90.561 130.024 89.5732C124.997 88.2561 121.646 87.0488 119.746 86.061C117.847 85.0732 116.395 83.7561 115.389 82C114.384 80.2439 113.937 78.378 113.937 76.2927C113.937 74.4268 114.384 72.561 115.166 71.0244C115.948 69.3781 117.065 68.061 118.517 66.9634C119.635 66.0854 120.975 65.4268 122.874 64.878C124.662 64.3293 126.673 64 128.684 64C131.812 64 134.605 64.5488 136.951 65.4268C139.297 66.4146 141.084 67.7317 142.202 69.378C143.095 70.6951 143.766 72.2317 144.213 74.3171C144.436 75.3049 143.766 76.1829 142.76 76.2927L139.52 76.8415C138.738 76.9512 137.845 76.5122 137.621 75.7439C137.174 74.2073 136.392 73 135.275 72.0122C133.823 70.8049 131.812 70.1463 129.131 70.1463C126.003 70.1463 123.768 70.6951 122.428 71.7927C121.087 72.8902 120.417 74.2073 120.417 75.6341C120.417 76.622 120.64 77.3902 121.199 78.1585C121.757 78.9268 122.651 79.5854 123.768 80.1341C124.438 80.3537 126.449 81.0122 129.801 82C134.605 83.3171 137.956 84.5244 139.856 85.4024C141.755 86.2805 143.207 87.5976 144.324 89.2439C145.441 90.8902 146 92.9756 146 95.5C146 97.9146 145.33 100.22 143.989 102.305C142.648 104.5 140.749 106.146 138.291 107.244C135.834 108.341 133.041 109 129.801 109C124.662 109 120.64 107.902 117.959 105.488C115.613 103.512 114.049 100.659 113.043 96.9268C112.82 95.7195 113.49 94.8415 114.384 94.622Z" fill="#222222"/>
<path d="M165.464 103.465L165.987 106.786C166.091 107.672 165.568 108.447 164.732 108.668C163.582 108.889 162.431 109 161.385 109C159.085 109 157.307 108.557 156.052 107.782C154.797 106.897 153.961 105.79 153.438 104.462C152.915 103.133 152.706 100.255 152.706 95.8274V72.5816C152.706 71.6961 152.078 70.9212 151.137 70.9212H149.569C148.732 70.9212 148 70.257 148 69.2608V66.8255C148 65.94 148.627 65.1651 149.569 65.1651H151.137C151.974 65.1651 152.706 64.5009 152.706 63.5047V55.2026C152.706 54.6492 152.915 54.0957 153.333 53.8743L158.876 50V63.5047C158.876 64.3902 159.503 65.1651 160.444 65.1651H163.791C164.627 65.1651 165.359 65.8293 165.359 66.8255V69.2608C165.359 70.1463 164.732 70.9212 163.791 70.9212H160.444C159.608 70.9212 158.876 71.5854 158.876 72.5816V96.2702C158.876 98.3734 158.98 99.7017 159.189 100.255C159.399 100.809 159.712 101.362 160.235 101.694C160.758 102.026 161.49 102.248 162.327 102.248C162.745 102.248 163.163 102.248 163.686 102.137C164.523 102.026 165.255 102.69 165.464 103.465Z" fill="#222222"/>
<path d="M172 106.143V50.7482C172 49.7648 172.77 49 173.761 49H194.892C200.616 49 204.908 49.5463 207.439 50.6389C210.081 51.7315 212.172 53.5889 213.713 56.3204C215.254 59.0519 216.024 62.1111 216.024 65.6074C216.024 70.087 214.813 73.6926 212.502 76.5333C210.851 78.6093 208.43 80.1389 205.458 81.1222C204.137 81.5593 203.807 83.3074 204.798 84.1815C205.788 85.0556 206.779 85.9296 207.549 86.913C209.09 88.6611 211.181 91.9389 213.713 96.4185L218.775 105.269C219.436 106.47 218.555 108 217.235 108H208.32C207.659 108 207.109 107.672 206.779 107.126L199.515 95.1074C196.763 90.5185 194.782 87.6778 193.792 86.4759C192.691 85.2741 191.701 84.5093 190.49 84.0722C189.389 83.6352 187.518 83.4167 184.987 83.4167H184.657C183.666 83.4167 182.896 84.1815 182.896 85.1648V106.252C182.896 107.235 182.126 108 181.135 108H173.871C172.77 107.891 172 107.126 172 106.143ZM182.896 72.163C182.896 73.1463 183.666 73.9111 184.657 73.9111H190.93C196.103 73.9111 199.405 73.6926 200.726 73.1463C202.046 72.6 203.037 71.8352 203.807 70.6333C204.578 69.4315 204.908 68.0111 204.908 66.1537C204.908 64.187 204.358 62.5481 203.477 61.3463C202.487 60.1444 201.166 59.3796 199.405 59.0519C198.524 58.9426 195.883 58.8333 191.481 58.8333H184.657C183.666 58.8333 182.896 59.5981 182.896 60.5815V72.163Z" fill="#222222"/>
<path d="M229.48 77.8971L223.469 76.6838C222.503 76.4632 221.966 75.4706 222.288 74.4779C223.362 71.1691 224.972 68.7426 227.119 66.9779C229.588 64.9926 233.345 64 238.39 64C242.898 64 246.226 64.5515 248.48 65.7647C250.627 66.9779 252.237 68.5221 253.096 70.2868C253.955 72.1618 254.492 75.5809 254.492 80.4338L254.384 93.7794C254.384 97.5294 254.492 100.397 254.921 102.162C255.136 103.265 255.458 104.478 255.887 105.691C256.316 106.794 255.458 107.897 254.384 107.897H247.944C247.192 107.897 246.655 107.456 246.333 106.794C246.119 106.243 245.904 105.471 245.797 104.588C245.689 103.926 245.475 103.485 245.475 103.265C243.757 105.14 241.932 106.574 240 107.566C238.068 108.559 235.921 109 233.667 109C229.802 109 226.582 107.787 224.435 105.36C222.288 102.934 221 99.8456 221 96.2059C221 93.7794 221.537 91.5735 222.61 89.6985C223.684 87.8235 225.079 86.3897 227.011 85.2868C228.836 84.2941 231.52 83.4118 235.062 82.6397C238.927 81.7574 241.932 80.9853 243.757 80.3235C244.401 80.1029 244.831 79.4412 244.831 78.7794C244.831 76.5735 244.294 75.0294 243.435 74.1471C242.469 73.1544 240.644 72.7132 237.96 72.7132C236.136 72.7132 234.74 73.1544 233.774 73.9265C233.023 74.4779 232.271 75.5809 231.734 76.9044C231.09 77.6765 230.232 78.1176 229.48 77.8971ZM244.401 89.6985C244.401 88.5956 243.328 87.8235 242.362 88.0441C241.288 88.375 239.893 88.7059 238.283 89.1471C235.492 89.8088 233.667 90.4706 232.808 91.1324C231.52 92.2353 230.876 93.5588 230.876 95.1029C230.876 96.6471 231.412 98.0809 232.486 99.1838C233.559 100.287 234.847 100.949 236.458 100.949C238.283 100.949 240 100.287 241.718 98.9632C242.898 97.9706 243.757 96.6471 244.079 95.2132C244.294 94.3309 244.401 92.4559 244.401 89.6985Z" fill="#222222"/>
<path d="M264 57.757V50.7514C264 49.7662 264.745 49 265.702 49H272.298C273.255 49 274 49.7662 274 50.7514V57.757C274 58.7421 273.255 59.5084 272.298 59.5084H265.702C264.851 59.5084 264 58.6327 264 57.757ZM264 106.249V66.9518C264 65.9666 264.745 65.2004 265.702 65.2004H272.298C273.255 65.2004 274 65.9666 274 66.9518V106.249C274 107.234 273.255 108 272.298 108H265.702C264.851 108 264 107.234 264 106.249Z" fill="#222222"/>
<path d="M183.983 129.188L178.946 116.214H177.018L172 129.188H173.779L174.883 126.309H181.099L182.204 129.188H183.983ZM180.631 124.87H175.333L177.991 117.887L180.631 124.87Z" fill="#6D655A"/>
<path d="M193.067 129.188V122.594C193.067 120.551 192.075 119.559 190.184 119.559C188.836 119.559 187.6 120.376 186.964 121.154V119.793H185.559V129.188H186.964V122.322C187.488 121.563 188.536 120.863 189.641 120.863C190.858 120.863 191.663 121.388 191.663 123.041V129.188H193.067Z" fill="#6D655A"/>
<path d="M202.309 129.188V116.214H200.755V129.188H202.309Z" fill="#6D655A"/>
<path d="M213.136 129.188V116.214H211.731V121.213C211.001 120.182 209.896 119.559 208.679 119.559C206.302 119.559 204.654 121.505 204.654 124.5C204.654 127.554 206.32 129.421 208.679 129.421C209.953 129.421 211.057 128.74 211.731 127.787V129.188H213.136ZM209.016 128.118C207.2 128.118 206.114 126.581 206.114 124.5C206.114 122.419 207.2 120.863 209.016 120.863C210.14 120.863 211.226 121.563 211.731 122.38V126.64C211.226 127.457 210.14 128.118 209.016 128.118Z" fill="#6D655A"/>
<path d="M220.029 129.421C221.508 129.421 222.725 128.915 223.624 127.982L222.95 127.029C222.239 127.787 221.19 128.215 220.16 128.215C218.213 128.215 217.015 126.737 216.903 124.967H224.223V124.597C224.223 121.777 222.613 119.559 219.88 119.559C217.296 119.559 215.423 121.757 215.423 124.481C215.423 127.418 217.352 129.421 220.029 129.421ZM222.838 123.897H216.903C216.977 122.458 217.932 120.765 219.861 120.765C221.92 120.765 222.819 122.497 222.838 123.897Z" fill="#6D655A"/>
<path d="M227.902 129.188V122.535C228.314 121.777 229.493 121.038 230.355 121.038C230.579 121.038 230.748 121.057 230.916 121.096V119.598C229.681 119.598 228.632 120.318 227.902 121.31V119.793H226.498V129.188H227.902Z" fill="#6D655A"/>
<path d="M239.736 129.188V122.73C239.736 120.454 238.145 119.559 236.235 119.559C234.756 119.559 233.595 120.065 232.622 121.116L233.277 122.127C234.082 121.232 234.962 120.824 236.048 120.824C237.358 120.824 238.332 121.543 238.332 122.808V124.5C237.602 123.625 236.572 123.216 235.336 123.216C233.801 123.216 232.172 124.208 232.172 126.309C232.172 128.351 233.801 129.421 235.336 129.421C236.553 129.421 237.583 128.974 238.332 128.118V129.188H239.736ZM235.842 128.371C234.531 128.371 233.614 127.515 233.614 126.328C233.614 125.122 234.531 124.267 235.842 124.267C236.834 124.267 237.789 124.656 238.332 125.434V127.204C237.789 127.982 236.834 128.371 235.842 128.371Z" fill="#6D655A"/>
<path d="M244.442 128.721C244.442 127.787 243.881 127.243 243.263 127.243C242.701 127.243 242.27 127.729 242.27 128.293C242.27 128.876 242.645 129.285 243.169 129.285C243.263 129.285 243.394 129.265 243.431 129.246C243.356 129.888 242.813 130.646 242.214 131.055L242.907 131.658C243.768 131.016 244.442 129.907 244.442 128.721Z" fill="#6D655A"/>
<path d="M253.304 129.188V116.214H251.749V129.188H253.304Z" fill="#6D655A"/>
<path d="M263.681 129.188V122.594C263.681 120.551 262.689 119.559 260.798 119.559C259.449 119.559 258.214 120.376 257.577 121.154V119.793H256.173V129.188H257.577V122.322C258.101 121.563 259.15 120.863 260.255 120.863C261.472 120.863 262.277 121.388 262.277 123.041V129.188H263.681Z" fill="#6D655A"/>
<path d="M270.473 129.421C272.121 129.421 273.094 128.721 273.787 127.787L272.851 126.892C272.252 127.729 271.484 128.118 270.548 128.118C268.62 128.118 267.421 126.562 267.421 124.481C267.421 122.399 268.62 120.863 270.548 120.863C271.484 120.863 272.252 121.232 272.851 122.088L273.787 121.193C273.094 120.26 272.121 119.559 270.473 119.559C267.777 119.559 265.961 121.699 265.961 124.481C265.961 127.281 267.777 129.421 270.473 129.421Z" fill="#6D655A"/>
<path d="M276.504 129.382C277.066 129.382 277.534 128.896 277.534 128.312C277.534 127.729 277.066 127.243 276.504 127.243C275.943 127.243 275.475 127.729 275.475 128.312C275.475 128.896 275.943 129.382 276.504 129.382Z" fill="#6D655A"/>
<path d="M290.87 129.421C293.079 129.421 294.577 128.332 295.626 126.854L294.296 126.095C293.585 127.204 292.293 127.982 290.87 127.982C288.137 127.982 286.058 125.784 286.058 122.711C286.058 119.618 288.137 117.439 290.87 117.439C292.293 117.439 293.585 118.237 294.296 119.326L295.607 118.568C294.615 117.109 293.079 116 290.87 116C287.275 116 284.448 118.723 284.448 122.711C284.448 126.698 287.275 129.421 290.87 129.421Z" fill="#6D655A"/>
<path d="M301.501 129.421C304.253 129.421 305.976 127.204 305.976 124.481C305.976 121.757 304.253 119.559 301.501 119.559C298.748 119.559 297.026 121.757 297.026 124.481C297.026 127.204 298.748 129.421 301.501 129.421ZM301.501 128.118C299.572 128.118 298.486 126.406 298.486 124.481C298.486 122.574 299.572 120.863 301.501 120.863C303.429 120.863 304.496 122.574 304.496 124.481C304.496 126.406 303.429 128.118 301.501 128.118Z" fill="#6D655A"/>
<path d="M320.584 129.188V122.399C320.584 120.513 319.704 119.559 318.057 119.559C316.746 119.559 315.529 120.454 315.024 121.31C314.762 120.338 313.975 119.559 312.59 119.559C311.26 119.559 310.043 120.551 309.669 121.154V119.793H308.265V129.188H309.669V122.322C310.156 121.563 311.129 120.863 312.047 120.863C313.226 120.863 313.713 121.621 313.713 122.808V129.188H315.117V122.302C315.585 121.563 316.578 120.863 317.514 120.863C318.675 120.863 319.18 121.621 319.18 122.808V129.188H320.584Z" fill="#6D655A"/>
<path d="M327.842 129.421C330.22 129.421 331.867 127.515 331.867 124.481C331.867 121.427 330.22 119.559 327.842 119.559C326.569 119.559 325.445 120.24 324.79 121.193V119.793H323.386V132.767H324.79V127.768C325.52 128.818 326.606 129.421 327.842 129.421ZM327.486 128.118C326.381 128.118 325.277 127.418 324.79 126.601V122.36C325.277 121.543 326.381 120.863 327.486 120.863C329.302 120.863 330.388 122.399 330.388 124.481C330.388 126.562 329.302 128.118 327.486 128.118Z" fill="#6D655A"/>
<path d="M341.159 129.188V122.73C341.159 120.454 339.567 119.559 337.658 119.559C336.179 119.559 335.018 120.065 334.044 121.116L334.699 122.127C335.505 121.232 336.385 120.824 337.47 120.824C338.781 120.824 339.755 121.543 339.755 122.808V124.5C339.024 123.625 337.995 123.216 336.759 123.216C335.224 123.216 333.595 124.208 333.595 126.309C333.595 128.351 335.224 129.421 336.759 129.421C337.976 129.421 339.006 128.974 339.755 128.118V129.188H341.159ZM337.265 128.371C335.954 128.371 335.036 127.515 335.036 126.328C335.036 125.122 335.954 124.267 337.265 124.267C338.257 124.267 339.212 124.656 339.755 125.434V127.204C339.212 127.982 338.257 128.371 337.265 128.371Z" fill="#6D655A"/>
<path d="M351.482 129.188V122.594C351.482 120.551 350.489 119.559 348.598 119.559C347.25 119.559 346.015 120.376 345.378 121.154V119.793H343.974V129.188H345.378V122.322C345.902 121.563 346.951 120.863 348.055 120.863C349.272 120.863 350.078 121.388 350.078 123.041V129.188H351.482Z" fill="#6D655A"/>
<path d="M353.781 132.864C354.043 132.942 354.511 133 354.81 133C356.009 132.981 356.926 132.455 357.469 131.094L362 119.793H360.465L357.469 127.495L354.455 119.793H352.938L356.72 129.285L356.121 130.705C355.803 131.483 355.391 131.697 354.773 131.697C354.548 131.697 354.211 131.638 354.005 131.541L353.781 132.864Z" fill="#6D655A"/>
<path d="M282 106.361V50.5296C282 49.6556 282.702 49 283.638 49H291.362C292.298 49 293 49.6556 293 50.5296V106.47C293 107.344 292.298 108 291.362 108H283.638C282.702 107.891 282 107.235 282 106.361Z" fill="#222222"/>
<path d="M316.455 65H303.545C302.772 65 302 64.3379 302 63.4552V50.5448C302 49.7724 302.662 49 303.545 49H316.455C317.228 49 318 49.6621 318 50.5448V63.4552C317.89 64.3379 317.228 65 316.455 65Z" fill="#6ABF4B"/>
<path d="M316.322 108H303.678C302.671 108 302 107.217 302 106.322V93.6783C302 92.6713 302.783 92 303.678 92H316.322C317.329 92 318 92.7832 318 93.6783V106.322C318 107.217 317.217 108 316.322 108Z" fill="#6ABF4B"/>
<path d="M316.333 86H303.667C302.778 86 302 85.2168 302 84.3217V71.6783C302 70.7832 302.778 70 303.667 70H316.333C317.222 70 318 70.7832 318 71.6783V84.4336C318 85.3287 317.222 86 316.333 86Z" fill="#6ABF4B"/>
<path d="M338.322 108H325.678C324.671 108 324 107.217 324 106.322V93.6783C324 92.6713 324.783 92 325.678 92H338.322C339.329 92 340 92.7832 340 93.6783V106.322C340 107.217 339.329 108 338.322 108Z" fill="#6ABF4B"/>
<path d="M338.322 86H325.678C324.671 86 324 85.2168 324 84.3217V71.6783C324 70.6713 324.783 70 325.678 70H338.322C339.329 70 340 70.7832 340 71.6783V84.3217C340 85.3287 339.329 86 338.322 86Z" fill="#F5EA61"/>
<path d="M359.322 108H346.678C345.671 108 345 107.217 345 106.322V93.6783C345 92.6713 345.783 92 346.678 92H359.322C360.329 92 361 92.7832 361 93.6783V106.322C361 107.329 360.329 108 359.322 108Z" fill="#BC3B4A"/>
<path d="M103.154 69.8313C99.863 65.9804 95.5849 64 90.3194 64C84.8346 64 80.4467 65.9804 77.0461 70.0513C73.6455 74.0122 72 79.6235 72 86.8851C72 93.9267 73.6455 99.3179 77.0461 103.169C80.337 107.02 84.9442 109 90.6485 109C95.1461 109 98.9855 107.79 101.838 105.369C104.361 103.279 106.116 100.528 107.322 97.0073C107.322 96.8973 107.432 96.6773 107.432 96.4572C107.432 95.577 106.774 94.9169 106.006 94.8069L102.386 94.2567C102.386 94.2567 102.276 94.2567 102.167 94.2567C101.508 94.2567 100.85 94.6968 100.521 95.357C99.534 97.7775 98.3273 99.6479 96.9012 100.858C95.1461 102.289 93.0618 102.949 90.6485 102.949C87.3576 102.949 84.6152 101.738 82.4212 99.2078C80.5564 97.0073 79.3497 93.9267 78.9109 90.0758C78.8012 89.1956 79.4594 88.4254 80.4467 88.4254H106.335C107.322 88.4254 107.981 87.6553 107.981 86.7751C107.981 86.665 107.981 86.665 107.981 86.555C108.2 79.2934 106.555 73.7922 103.154 69.8313ZM99.3146 82.2641H81.1049C80.0079 82.2641 79.24 81.2738 79.4594 80.2836C80.337 74.4523 84.8346 69.9413 90.3194 69.9413C96.6818 69.9413 100.302 74.4523 101.179 80.2836C101.179 81.3839 100.412 82.2641 99.3146 82.2641Z" fill="#222222"/>
</svg>
