<?xml version="1.0" encoding="UTF-8"?> <svg xmlns="http://www.w3.org/2000/svg" viewBox="0 0 2188 400.01"><g fill="#617fde"><path d="m1843.22 336.09c-51.06 0-92.68-41.24-92.68-92.31s40.22-92.62 92.44-92.62v-35.03c-70.39 0-127.48 57.11-127.48 127.49 0 70.39 57.42 127.5 127.79 127.5 70.39 0 127.66-59.85 127.66-127.97h-35.03c0 52.23-41.63 92.94-92.7 92.94z"></path><path d="m1686.3 81.92v-31.79h-308.83v31.79h138.52v288.39h34.06v-288.39z"></path><path d="m1995.13 50.13h36.33v320.18h-36.33z"></path><path d="m1649.97 200h36.33v170.31h-36.33z"></path><path d="m1669.57 114.8c-13.71 0-24.82 11.11-24.82 24.82s11.11 24.82 24.82 24.82 24.84-11.11 24.84-24.82c0-13.72-11.13-24.82-24.84-24.82z"></path><path d="m2084.02 243.41 88.96-88.94-24.77-24.77-101.35 101.32c-3.28 3.28-5.13 7.74-5.13 12.39s1.85 9.1 5.13 12.38l116.37 116.35 24.77-24.77z"></path><path d="m1027.89 336.09c-51.06 0-92.63-41.24-92.63-92.31s40.29-92.62 92.52-92.62v-35.03c-70.39 0-127.55 57.11-127.55 127.49 0 70.39 57.33 127.5 127.71 127.5 70.39 0 127.66-59.85 127.66-127.97h-35.03c-.02 52.23-41.61 92.94-92.68 92.94z"></path><path d="m871.09 81.92v-31.79h-311.1v31.79h138.52v288.39h36.33v-288.39z"></path><path d="m1179.92 113.71h36.33v256.6h-36.33z"></path><path d="m837.03 200h34.06v170.31h-34.06z"></path><path d="m854.25 114.8c-13.71 0-24.82 11.11-24.82 24.82s11.11 24.82 24.82 24.82c13.7 0 24.82-11.11 24.82-24.82 0-13.72-11.12-24.82-24.82-24.82z"></path><path d="m1357.61 154.47-24.77-24.77-101.34 101.32c-3.29 3.28-5.13 7.74-5.13 12.39s1.85 9.1 5.13 12.38l116.37 116.35 24.77-24.77-103.98-103.96z"></path></g><path d="m139.8 151.33-33.36 40.61 79.01 64.79c4.72 3.88 10.62 5.97 16.68 5.97.91 0 1.82-.05 2.73-.14 6.99-.73 13.39-4.23 17.79-9.71l141.72-176.95-41.03-32.85-125.09 156.18z" fill="#ffb000"></path><path d="m200 355.01c-85.47 0-155-69.53-155-155s69.54-155.01 155-155.01v-45c-110.28 0-200 89.72-200 200s89.72 200 200 200 200-89.72 200-200h-45c.01 85.47-69.53 155.01-155 155.01z" fill="#617fde"></path></svg> 