<svg width="400" height="160" viewBox="0 0 400 160" fill="none" xmlns="http://www.w3.org/2000/svg">
<g clip-path="url(#clip0_101_19)">
<path d="M323.799 103.294C315.328 103.294 308.423 96.3861 308.423 87.8321C308.423 79.2781 315.096 72.3187 323.759 72.3187V66.4513C312.081 66.4513 302.61 76.017 302.61 87.8053C302.61 99.5954 312.136 109.161 323.811 109.161C335.489 109.161 344.99 99.1364 344.99 87.7266H339.179C339.179 96.4749 332.272 103.294 323.799 103.294Z" fill="#617FDE"/>
<path d="M297.766 60.7212V55.3965H246.529V60.7212H269.51V109.025H275.161V60.7212H297.766Z" fill="#617FDE"/>
<path d="M349.002 55.3965H355.029V109.025H349.002V55.3965Z" fill="#617FDE"/>
<path d="M291.738 80.4991H297.766V109.025H291.738V80.4991Z" fill="#617FDE"/>
<path d="M294.99 66.2285C292.715 66.2285 290.872 68.0894 290.872 70.3858C290.872 72.6821 292.715 74.543 294.99 74.543C297.264 74.543 299.111 72.6821 299.111 70.3858C299.111 68.0877 297.264 66.2285 294.99 66.2285Z" fill="#617FDE"/>
<path d="M363.749 87.7701L378.508 72.8731L374.399 68.7242L357.584 85.6949C357.04 86.2442 356.733 86.9913 356.733 87.7701C356.733 88.549 357.04 89.2943 357.584 89.8437L376.891 109.332L381 105.183L363.749 87.7701Z" fill="#617FDE"/>
<path d="M188.532 103.294C180.061 103.294 173.164 96.3861 173.164 87.8321C173.164 79.2781 179.849 72.3187 188.514 72.3187V66.4513C176.836 66.4513 167.353 76.017 167.353 87.8053C167.353 99.5954 176.864 109.161 188.54 109.161C200.218 109.161 209.72 99.1364 209.72 87.7266H203.908C203.905 96.4749 197.005 103.294 188.532 103.294Z" fill="#617FDE"/>
<path d="M162.518 60.7212V55.3965H110.905V60.7212H133.886V109.025H139.914V60.7212H162.518Z" fill="#617FDE"/>
<path d="M213.755 66.0459H219.782V109.025H213.755V66.0459Z" fill="#617FDE"/>
<path d="M156.867 80.4991H162.518V109.025H156.867V80.4991Z" fill="#617FDE"/>
<path d="M159.724 66.2285C157.45 66.2285 155.607 68.0894 155.607 70.3858C155.607 72.6821 157.45 74.543 159.724 74.543C161.997 74.543 163.842 72.6821 163.842 70.3858C163.842 68.0877 161.997 66.2285 159.724 66.2285Z" fill="#617FDE"/>
<path d="M243.234 72.8731L239.125 68.7242L222.312 85.6949C221.766 86.2442 221.461 86.9913 221.461 87.7701C221.461 88.549 221.768 89.2943 222.312 89.8437L241.618 109.332L245.728 105.183L228.477 87.7701L243.234 72.8731Z" fill="#617FDE"/>
<path d="M41.1935 72.3471L35.6589 79.1491L48.7671 90.0012C49.5502 90.6511 50.529 91.0011 51.5344 91.0011C51.6854 91.0011 51.8363 90.9928 51.9873 90.9777C53.147 90.8554 54.2088 90.2692 54.9387 89.3513L78.4508 59.7129L71.6437 54.2107L50.8907 80.3702L41.1935 72.3471Z" fill="#FFB000"/>
<path d="M51.181 106.463C37.0011 106.463 25.4657 94.8167 25.4657 80.5008C25.4657 66.185 37.0028 54.5373 51.181 54.5373V47C32.885 47 18 62.0277 18 80.4992C18 98.9706 32.885 113.998 51.181 113.998C69.477 113.998 84.362 98.9706 84.362 80.4992H76.8963C76.8979 94.815 65.3609 106.463 51.181 106.463Z" fill="#617FDE"/>
</g>
<defs>
<clipPath id="clip0_101_19">
<rect width="363" height="67" fill="white" transform="translate(18 47)"/>
</clipPath>
</defs>
</svg>
