<svg width="400" height="160" viewBox="0 0 400 160" fill="none" xmlns="http://www.w3.org/2000/svg">
<path d="M168.8 88.2003C168.8 85.4003 169.399 82.5994 170.4 80.3997C171.4 77.9995 172.8 76.0002 174.6 74.3998C176.399 72.7994 178.4 71.3994 180.999 70.5997C183.399 69.5996 185.999 69.1997 188.799 69.1997C191.599 69.1997 194.199 69.5996 196.599 70.5997C198.999 71.5998 201.198 72.7994 202.999 74.3998C204.799 75.9993 206.199 77.9995 207.199 80.3997C208.199 82.7998 208.799 85.4003 208.799 88.2003C208.799 91.0003 208.199 93.8003 207.199 96C206.199 98.4001 204.799 100.4 202.999 102.001C201.198 103.6 199.199 105 196.599 105.8C194.199 106.8 191.599 107.2 188.799 107.2C185.999 107.2 183.399 106.8 180.999 105.8C178.6 104.801 176.399 103.6 174.6 102.001C172.8 100.4 171.4 98.4001 170.4 96C169.399 93.8003 168.8 91.1997 168.8 88.2003ZM178 88.2003C178 89.6003 178.199 91.0003 178.8 92.4003C179.199 93.8003 179.999 94.8004 180.999 96C181.999 97.0001 183 97.7998 184.4 98.4001C185.8 99.0004 187.2 99.4002 188.799 99.4002C190.399 99.4002 191.999 99.0004 193.199 98.4001C194.599 97.7998 195.599 97.0001 196.599 96C197.599 94.9998 198.198 93.8003 198.798 92.4003C199.198 91.0003 199.598 89.7997 199.598 88.2003C199.598 86.8003 199.398 85.4003 198.798 84.0003C198.398 82.5994 197.599 81.6002 196.599 80.6001C195.599 79.6009 194.599 78.8002 193.199 78.2009C191.799 77.6006 190.399 77.2008 188.799 77.2008C187.199 77.2008 185.599 77.6006 184.4 78.2009C183 78.8002 181.999 79.6009 180.999 80.6001C180 81.6002 179.4 82.7998 178.8 84.0003C178.2 85.4003 178 86.8003 178 88.2003Z" fill="#E44432"/>
<path d="M243.4 101C242 103.199 240.2 104.8 238 105.799C235.799 106.799 233.399 107.399 230.8 107.399C228 107.399 225.399 106.999 223.199 105.999C221 104.999 219.199 103.599 217.6 102C215.999 100.199 214.8 98.1996 213.999 95.9989C213.199 93.5988 212.799 91.1987 212.799 88.3987C212.799 85.7991 213.199 83.1986 213.999 80.7994C214.8 78.3993 215.999 76.399 217.6 74.7996C219.199 72.9997 221 71.8001 223.199 70.8C225.399 69.7999 227.799 69.4 230.4 69.4C232.2 69.4 233.6 69.5995 235 69.9993C236.4 70.3992 237.4 70.799 238.4 71.3993C239.4 71.9996 240.2 72.5989 241 73.1992C241.8 73.7985 242.2 74.3988 242.8 74.999H243V54.5994C243 53.6002 243.799 52.6001 245 52.6001H250.2C251.4 52.6001 252.2 53.6002 252.2 54.5994V104.599C252.2 105.799 251.2 106.6 250.2 106.6H245.6C244.4 106.6 243.6 105.599 243.6 104.599V101H243.4ZM221.799 88.2002C221.799 89.6002 222 91.0002 222.599 92.4002C222.999 93.8002 223.8 94.8003 224.8 95.9999C225.799 97 226.799 97.7997 228.199 98.4C229.599 99.0002 230.999 99.4001 232.6 99.4001C234.2 99.4001 235.799 99.0002 237 98.4C238.2 97.7997 239.4 97 240.4 95.9999C241.399 94.9997 242 93.8002 242.6 92.4002C243 91.0002 243.4 89.7996 243.4 88.2002C243.4 86.8002 243.2 85.4002 242.6 84.0002C242.2 82.5992 241.399 81.6001 240.4 80.6C239.4 79.6008 238.4 78.8001 237 78.2008C235.6 77.6005 234.2 77.2006 232.6 77.2006C230.999 77.2006 229.4 77.6005 228.199 78.2008C226.799 78.8001 225.799 79.6008 224.8 80.6C223.8 81.6001 223.199 82.7997 222.599 84.0002C222.199 85.5996 221.799 86.8002 221.799 88.2002Z" fill="#E44432"/>
<path d="M258.199 88.2003C258.199 85.4003 258.8 82.5994 259.8 80.3997C260.799 77.9995 262.199 76.0002 264 74.3998C265.8 72.7994 267.8 71.3994 270.4 70.5997C272.8 69.5996 275.4 69.1997 278.2 69.1997C281 69.1997 283.6 69.5996 286 70.5997C288.4 71.5998 290.6 72.7994 292.4 74.3998C294.2 75.9993 295.6 77.9995 296.6 80.3997C297.601 82.7998 298.2 85.4003 298.2 88.2003C298.2 91.0003 297.601 93.8003 296.6 96C295.6 98.4001 294.2 100.4 292.4 102.001C290.6 103.6 288.6 105 286 105.8C283.6 106.8 281 107.2 278.2 107.2C275.4 107.2 272.8 106.8 270.4 105.8C267.999 104.801 265.8 103.6 264 102.001C262.199 100.4 260.799 98.4001 259.8 96C258.8 93.8003 258.199 91.1997 258.199 88.2003ZM267.399 88.2003C267.399 89.6003 267.6 91.0003 268.2 92.4003C268.6 93.8003 269.399 94.8004 270.4 96C271.4 97.0001 272.4 97.7998 273.8 98.4001C275.2 99.0004 276.6 99.4002 278.2 99.4002C279.8 99.4002 281.4 99.0004 282.6 98.4001C283.8 97.7998 285 97.0001 286 96C287 94.9998 287.6 93.8003 288.2 92.4003C288.6 91.0003 289 89.7997 289 88.2003C289 86.8003 288.8 85.4003 288.2 84.0003C287.8 82.5994 287 81.6002 286 80.6001C285 79.6009 284 78.8002 282.6 78.2009C281.2 77.6006 279.8 77.2008 278.2 77.2008C276.6 77.2008 274.999 77.6006 273.8 78.2009C272.4 78.8002 271.4 79.6009 270.4 80.6001C269.399 81.6002 268.8 82.7998 268.2 84.0003C267.6 85.4003 267.4 86.8003 267.399 88.2003Z" fill="#E44432"/>
<path d="M302.4 57.5998C302.4 56.1998 302.999 54.7998 303.999 53.7996C304.999 52.7995 306.399 52.2002 308.199 52.2002C309.8 52.2002 311.2 52.7995 312.399 53.7996C313.6 54.7998 314.2 56.1998 314.2 57.7992C314.2 59.3987 313.6 60.5992 312.399 61.7988C311.2 62.7989 309.8 63.3982 308.199 63.3982C306.6 63.3982 305.2 62.7989 303.999 61.7988C302.999 60.3997 302.4 59.2002 302.4 57.5998Z" fill="#E44432"/>
<path d="M340.2 80.199C339.199 80.199 338.599 79.5996 338.599 79.1988C337.799 77.1995 335.399 76.3988 333.399 76.3988C330.399 76.3988 327.999 77.7988 327.999 80.199C327.999 82.5981 330.399 82.9989 331.799 83.3988C333.399 83.7987 336.399 84.5984 337.999 84.9982C339.599 85.3991 341.199 85.9984 342.799 86.7991C347.599 89.3986 348.399 93.1988 348.399 95.5989C348.399 104.399 339.599 107.399 333.599 107.399C328.999 107.399 320.199 106.599 318.199 97.7986C317.998 96.9989 318.799 95.5989 320.199 95.5989H325.199C326.199 95.5989 326.799 96.3986 326.999 96.7985C327.599 98.5993 329.799 99.9993 333.199 99.9993C336.999 99.9993 339.199 98.5993 339.199 96.599C339.199 95.3985 338.399 94.1989 337.599 93.5986C334.799 91.5984 327.799 91.3989 323.999 89.3986C322.599 88.5989 318.998 86.7991 318.998 80.7992C318.998 72.5987 326.599 68.999 333.199 68.999C343 68.999 346.599 75.1983 346.999 77.399C347.2 78.5986 346.599 79.9985 344.999 79.9985H340.2V80.199Z" fill="#E44432"/>
<path d="M348.999 75.6003V71.8002C348.999 70.8 349.799 69.7999 351 69.7999H355.8V60.6002C355.8 59.6001 356.399 59.0008 356.999 58.8004C357.399 58.6 360 57.4004 362.2 56.6007C363.8 56.0004 365 57.2 365 58.4005V70.0003H373C374.2 70.0003 375 71.0004 375 72.0006V75.8007C375 76.8008 374 77.8 373 77.8H365V93.8002C365 95.6 365 97 365.6 98.2006C366.2 99.1997 367.199 99.6006 369 99.6006C369.599 99.6006 370 99.6005 370.4 99.4001C371.6 99.0003 372.4 99.6006 372.8 100.2C373.4 101.4 374 102.6 374.6 103.6C375.2 104.6 374.8 105.8 373.8 106.4C372.2 107.2 370.2 107.8 367.199 107.8C364.8 107.8 363.4 107.601 361.8 107C360.199 106.4 358.799 105.4 358 104.2C357.2 103.2 356.6 101.6 356.399 100C355.999 98.4 355.999 96.3997 355.999 94.2V77.9994H351.199C349.6 77.5996 348.999 76.5995 348.999 75.6003Z" fill="#E44432"/>
<path d="M140.2 75.6003V71.8002C140.2 70.8 141 69.7999 142.199 69.7999H147.799V60.6002C147.799 59.6001 148.399 59.0008 148.999 58.8004C149.399 58.6 151.998 57.4004 154.199 56.6007C155.799 56.0004 156.999 57.2 156.999 58.4005V70.0003H164.999C166.199 70.0003 166.999 71.0004 166.999 72.0006V75.8007C166.999 76.8008 165.999 77.8 164.999 77.8H156.999V93.8002C156.999 95.6 156.999 97 157.598 98.2006C158.199 99.1997 159.198 99.6006 160.999 99.6006C161.598 99.6006 161.999 99.6005 162.399 99.4001C163.598 99.0003 164.399 99.6006 164.799 100.2C165.398 101.4 165.998 102.6 166.599 103.6C167.199 104.6 166.798 105.8 165.799 106.4C164.198 107.2 162.199 107.8 159.199 107.8C156.8 107.8 155.399 107.601 153.799 107C152.2 106.4 150.8 105.4 149.999 104.2C149.199 103.2 148.599 101.6 148.4 100C148 98.4 148 96.3997 148 94.2V77.9994H142.4C140.8 77.5996 140.2 76.5995 140.2 75.6003Z" fill="#E44432"/>
<path d="M305.6 106.599H310.8C311.8 106.599 312.8 105.799 312.8 104.599V71.7991C312.8 70.799 311.999 69.7988 310.8 69.7988H305.6C304.6 69.7988 303.599 70.5985 303.599 71.7991V104.599C303.8 105.599 304.6 106.599 305.6 106.599Z" fill="#E44432"/>
<path d="M102.001 35.9995H36.0005C30.0007 35.9995 25.001 40.9992 25.001 47V112.999C25.001 119 30.0007 124 36.0005 124H102.001C108 124 113.001 119 113.001 112.999V47C113 41.0002 108.201 35.9995 102.001 35.9995Z" fill="#E44432"/>
<path d="M43.8002 77.1994C45.4006 76.3997 78.6006 57.1997 79.4003 56.7998C80.2 56.3999 80.2 54.9999 79.4003 54.6001C78.6006 54.2002 77.0001 53.2001 76.4008 52.8002C75.8006 52.4004 74.601 52.2009 73.6008 52.8002C73.201 52.9997 44.8003 69.4007 43.8002 70C42.6006 70.6003 41.2006 70.6003 40.2005 70C39.4008 69.4007 25.2004 61.2002 25.2004 61.2002V68.6C28.8001 70.7997 38.0008 75.9998 40.2005 77.2004C41.401 77.9991 42.6006 77.9991 43.8002 77.1994Z" fill="white"/>
<path d="M43.8002 92.0002C45.4006 91.1995 78.6005 72.0004 79.4003 71.6006C80.2 71.2007 80.2 69.8007 79.4003 69.4009C78.6005 69.001 77.0001 68.0009 76.4008 67.601C75.8006 67.2011 74.601 67.0017 73.6008 67.601C73.201 67.8014 44.8003 84.2014 43.8002 84.8017C42.6006 85.402 41.2006 85.402 40.2005 84.8017C39.2003 84.2014 25.001 76 25.001 76V83.3998C28.6007 85.5995 37.8013 90.7996 40.001 92.0002C41.401 92.7999 42.6006 92.7999 43.8002 92.0002Z" fill="white"/>
<path d="M43.8002 106.799C45.4006 105.999 78.6006 86.8001 79.4003 86.3993C80.2 85.9994 80.2 84.5995 79.4003 84.1996C78.6006 83.7997 77.0001 82.7996 76.4008 82.3997C75.8006 81.9999 74.601 81.7995 73.6008 82.3997C73.201 82.5992 44.8003 99.0002 43.8002 99.6005C42.6006 100.2 41.2006 100.2 40.2005 99.6005C39.4008 99.0002 25.2004 90.7997 25.2004 90.7997V98.2005C28.8001 100.4 38.0008 105.6 40.2005 106.8C41.401 107.6 42.6006 107.6 43.8002 106.799Z" fill="white"/>
</svg>
