<svg width="400" height="160" viewBox="0 0 400 160" fill="none" xmlns="http://www.w3.org/2000/svg">
<g clip-path="url(#clip0)">
<path d="M13.2765 108.947C17.1961 113.594 23.8871 118.126 28.1099 116.416C32.333 114.707 34.0445 102.205 32.5311 100.54C31.0177 98.8745 22.9311 85.3261 16.6419 87.2847C10.3528 89.2431 9.35688 104.3 13.2765 108.947Z" fill="#C00000"/>
<path d="M14.816 74.433C18.6529 80.8132 30.0397 88.8703 37.3578 86.0053C44.6758 83.1402 39.6688 73.0972 35.614 66.447C35.0283 65.4865 34.7764 61.4441 32.1757 57.9823C29.5749 54.5205 25.4477 52.2704 22.3246 53.3161C13.4686 56.2812 10.8964 69.7861 14.816 74.433Z" fill="#C00000"/>
<path d="M47.6892 71.7457C51.6088 76.3926 52.3821 81.1639 58.4454 80.9315C64.5087 80.6992 69.1596 66.3092 68.9909 60.4831C68.8222 54.657 63.25 41.5002 53.4158 44.29C43.5815 47.0799 43.201 58.994 47.6892 71.7457Z" fill="#C00000"/>
<path d="M71.6552 90.0867C72.7438 95.8146 77.2889 99.8103 84.0374 97.9602C90.7856 96.1109 92.556 78.7474 91.0421 77.0825C89.529 75.4174 86.5097 66.7142 80.2202 68.6727C73.9311 70.6313 69.2544 82.7329 71.6552 90.0867Z" fill="#C00000"/>
<path d="M37.0781 130.302C46.2387 133.935 49.4333 124.418 59.5462 121.621C69.6592 118.824 78.3213 123.39 81.2543 114.417C85.0135 102.916 75.788 104.641 68.3871 99.5397C60.9861 94.4378 62.8826 88.5958 51.4496 91.3484C39.1227 94.3164 45.3694 106.652 40.5835 111.165C33.6344 117.718 31.4268 128.06 37.0781 130.302Z" fill="#C00000"/>
<path d="M4.82258 83.5122C5.61342 85.6867 9.38981 87.7979 11.343 86.9351C13.2962 86.0724 13.2131 83.8344 12.3031 81.0942C11.3931 78.354 7.04989 74.8993 5.53829 75.5146C4.02666 76.1299 4.03174 81.3377 4.82258 83.5122Z" fill="#C00000"/>
<path d="M13.9738 47.9895C14.7646 50.1639 15.8377 54.0346 18.9022 52.8594C21.9668 51.6841 22.9141 49.5563 22.0041 46.816C21.094 44.0758 17.3877 40.0424 15.8761 40.6577C14.3645 41.273 13.183 45.815 13.9738 47.9895Z" fill="#C00000"/>
<path d="M48.3589 35.9234C49.1497 38.0979 53.1575 41.7431 55.1107 40.8804C57.0638 40.0175 58.0461 35.8811 57.1361 33.1408C56.226 30.4006 52.045 26.1009 50.5334 26.7162C49.0218 27.3315 47.568 33.749 48.3589 35.9234Z" fill="#C00000"/>
<path d="M77.7677 63.0343C78.5585 65.2087 79.9558 67.3892 81.9091 66.5264C83.8621 65.6636 86.077 63.7791 85.1674 61.0387C84.2571 58.2985 82.12 52.025 80.6076 52.6405C79.096 53.2558 76.9768 60.8598 77.7677 63.0343Z" fill="#C00000"/>
<path d="M285.166 90.0822C282.254 91.3145 278.669 92.0987 273.964 92.0987C265.226 92.0987 257.608 87.0575 257.608 76.8631C257.496 68.1251 263.881 61.8516 273.516 61.8516C278.669 61.8516 282.03 62.7478 284.382 63.8681L287.295 50.761C283.038 49.1926 277.436 48.4084 272.619 48.4084C250.55 48.4084 239.235 61.9636 239.235 77.6473C239.235 94.6753 251.222 105.878 270.267 105.878C277.436 105.878 283.934 104.646 287.519 102.965L285.166 90.0822ZM237.366 72.27C237.366 58.8269 230.533 48.4084 211.712 48.4084C200.958 48.4084 193.116 51.2091 189.083 53.5616L192.332 64.7643C196.141 62.5238 202.75 60.3953 208.688 60.3953C218.322 60.3953 219.554 64.8763 219.554 67.2289V67.789C197.821 67.789 185.05 74.8467 185.05 89.074C185.05 97.476 191.772 105.878 203.759 105.878C210.816 105.878 216.866 103.525 220.675 99.0443H221.123L222.131 104.534H238.263C237.703 101.621 237.366 96.4677 237.366 90.9784V72.27ZM220.114 83.6967C220.114 84.705 220.002 85.8252 219.778 86.7215C218.658 90.3063 214.737 93.5551 210.032 93.5551C205.551 93.5551 202.75 91.3145 202.75 87.2816C202.75 81.1201 209.696 78.7676 220.114 78.8796V83.6967ZM150.53 104.534H168.343V76.8631C168.343 75.7429 168.343 74.6226 168.567 73.6144C169.575 68.3491 173.832 64.6523 181.114 64.6523C183.242 64.6523 184.81 64.8763 186.267 65.2124V48.7445C184.81 48.4084 184.026 48.4084 182.458 48.4084C176.745 48.4084 169.239 51.8813 166.326 60.6193H165.878L165.318 49.7527H150.082C150.418 54.3458 150.53 59.387 150.53 68.3491V104.534ZM116.961 39.3343V49.7527H109.455V63.0839H116.961V84.2569C116.961 91.7626 118.529 97.2519 121.666 100.725C124.467 103.637 129.396 105.878 135.333 105.878C140.375 105.878 144.744 105.094 147.096 104.198L146.872 90.7544C145.192 91.2025 144.183 91.3145 141.383 91.3145C135.67 91.3145 134.325 87.8417 134.325 81.1201V63.0839H147.096V49.7527H134.325V34.7412L116.961 39.3343Z" fill="black"/>
<path d="M395.927 117.82V119.765H394.527V121.141H395.927V127.808C395.927 129.397 396.141 130.18 396.615 130.702C397.042 131.2 397.683 131.39 398.418 131.39C399.011 131.39 399.438 131.319 399.77 131.2L399.675 129.8C399.486 129.848 399.248 129.872 398.94 129.872C398.276 129.872 397.754 129.492 397.754 127.974V121.141H399.96V119.765H397.754V117.085L395.927 117.82ZM385.932 131.248H387.759V124.012C387.759 123.609 387.783 123.253 387.854 122.992C388.068 121.758 388.803 121.118 389.562 121.118C390.891 121.118 391.152 122.47 391.152 123.846V131.248H392.978V123.537C392.978 120.738 391.792 119.576 390.203 119.576C388.993 119.576 388.068 120.216 387.569 121.141H387.522L387.427 119.765H385.838C385.861 120.691 385.932 121.379 385.932 122.731V131.248ZM383.909 125.673C383.933 125.388 383.957 125.079 383.957 124.629C383.957 122.043 383.008 119.576 380.683 119.576C378.382 119.576 376.816 121.901 376.816 125.625C376.816 129.16 378.24 131.39 380.968 131.39C381.893 131.39 382.866 131.2 383.506 130.844L383.198 129.516C382.747 129.753 382.106 129.943 381.3 129.943C379.995 129.943 378.619 129.207 378.595 125.673H383.909ZM378.619 124.32C378.69 122.755 379.307 120.999 380.493 120.999C381.371 120.999 382.225 122.019 382.201 124.32H378.619ZM362.626 131.248H364.453V123.941C364.453 123.585 364.477 123.253 364.524 122.968C364.738 121.735 365.473 121.094 366.232 121.094C367.584 121.094 367.798 122.446 367.798 123.704V131.248H369.625V123.846C369.625 123.466 369.625 123.11 369.696 122.826C369.957 121.735 370.621 121.094 371.38 121.094C372.756 121.094 372.97 122.541 372.97 124.036V131.248H374.796V123.632C374.796 120.691 373.586 119.576 372.021 119.576C371.428 119.576 370.906 119.718 370.431 120.003C370.028 120.287 369.625 120.738 369.316 121.307H369.269C368.842 120.074 367.917 119.576 366.849 119.576C365.639 119.576 364.785 120.24 364.287 121.165H364.239L364.145 119.765H362.531C362.555 120.691 362.626 121.379 362.626 122.731V131.248ZM360.603 125.673C360.627 125.388 360.651 125.079 360.651 124.629C360.651 122.043 359.702 119.576 357.377 119.576C355.076 119.576 353.51 121.901 353.51 125.625C353.51 129.16 354.933 131.39 357.661 131.39C358.587 131.39 359.559 131.2 360.2 130.844L359.891 129.516C359.441 129.753 358.8 129.943 357.994 129.943C356.689 129.943 355.313 129.207 355.289 125.673H360.603ZM355.313 124.32C355.384 122.755 356.001 120.999 357.187 120.999C358.065 120.999 358.919 122.019 358.895 124.32H355.313ZM351.483 123.348C351.483 121.568 351.554 120.548 351.578 119.765H349.941L349.846 121.047H349.799C349.443 120.382 348.873 119.576 347.664 119.576C345.956 119.576 344.058 121.308 344.058 125.554C344.058 128.923 345.386 131.224 347.426 131.224C348.375 131.224 349.229 130.726 349.609 129.824H349.656V130.987C349.656 133.596 348.755 134.498 347.308 134.498C346.406 134.498 345.647 134.237 345.196 133.999L344.769 135.423C345.362 135.755 346.311 135.992 347.284 135.992C348.565 135.992 349.633 135.541 350.344 134.782C351.103 133.928 351.483 132.79 351.483 129.777V123.348ZM349.656 127.049C349.656 127.381 349.656 127.736 349.538 128.092C349.182 129.468 348.47 129.729 347.901 129.729C346.81 129.729 345.884 128.401 345.884 125.459C345.884 122.921 346.596 121.141 347.901 121.141C348.945 121.141 349.372 122.114 349.561 122.873C349.633 123.134 349.656 123.419 349.656 123.727V127.049ZM341.987 123.656C341.987 121.094 341.014 119.576 338.713 119.576C337.575 119.576 336.531 119.979 336.033 120.335L336.436 121.616C336.981 121.236 337.622 121.023 338.334 121.023C339.781 121.023 340.16 122.09 340.16 123.632V123.988C337.575 124.012 335.273 125.269 335.273 128.163C335.273 130.156 336.46 131.437 338.002 131.437C338.974 131.437 339.781 130.915 340.279 130.038H340.35L340.469 131.248H342.106C341.987 130.512 341.987 129.516 341.987 128.638V123.656ZM340.208 127.618C340.208 127.831 340.184 128.069 340.137 128.282C339.923 129.421 339.259 130.014 338.452 130.014C337.812 130.014 337.053 129.492 337.053 127.974C337.053 125.483 339.259 125.293 340.208 125.293V127.618ZM326.346 131.248H328.173V124.012C328.173 123.609 328.197 123.253 328.268 122.992C328.482 121.758 329.217 121.118 329.976 121.118C331.305 121.118 331.566 122.47 331.566 123.846V131.248H333.392V123.537C333.392 120.738 332.206 119.576 330.617 119.576C329.407 119.576 328.482 120.216 327.983 121.141H327.936L327.841 119.765H326.252C326.275 120.691 326.346 121.379 326.346 122.731V131.248ZM323.778 123.656C323.778 121.094 322.805 119.576 320.504 119.576C319.365 119.576 318.321 119.979 317.823 120.335L318.226 121.616C318.772 121.236 319.413 121.023 320.124 121.023C321.571 121.023 321.951 122.09 321.951 123.632V123.988C319.365 124.012 317.064 125.269 317.064 128.163C317.064 130.156 318.25 131.437 319.792 131.437C320.765 131.437 321.571 130.915 322.07 130.038H322.141L322.259 131.248H323.896C323.778 130.512 323.778 129.516 323.778 128.638V123.656ZM321.998 127.618C321.998 127.831 321.975 128.069 321.927 128.282C321.714 129.421 321.049 130.014 320.243 130.014C319.602 130.014 318.843 129.492 318.843 127.974C318.843 125.483 321.049 125.293 321.998 125.293V127.618ZM313.657 131.248H315.365L314.44 115.258H312.4L310.597 122.565C310.075 124.724 309.719 126.242 309.411 128.069H309.339C309.007 126.242 308.604 124.676 308.058 122.565L306.208 115.258H304.215L303.266 131.248H304.903L305.212 124.486C305.307 122.209 305.425 119.979 305.401 118.105H305.473C305.805 119.955 306.255 121.924 306.801 123.964L308.651 131.153H309.838L311.783 123.656C312.281 121.806 312.708 119.884 313.064 118.105H313.159C313.088 119.908 313.206 122.256 313.325 124.368L313.657 131.248ZM294.13 117.82V119.765H292.731V121.141H294.13V127.808C294.13 129.397 294.344 130.18 294.818 130.702C295.245 131.2 295.886 131.39 296.621 131.39C297.214 131.39 297.641 131.319 297.973 131.2L297.879 129.8C297.689 129.848 297.452 129.872 297.143 129.872C296.479 129.872 295.957 129.492 295.957 127.974V121.141H298.163V119.765H295.957V117.085L294.13 117.82ZM291.883 129.563C291.48 129.777 291.053 129.872 290.578 129.872C288.894 129.872 287.874 128.258 287.874 125.578C287.874 123.324 288.68 121.141 290.531 121.141C291.124 121.141 291.598 121.331 291.835 121.45L292.191 119.979C291.859 119.765 291.195 119.599 290.578 119.599C287.708 119.599 286.047 122.28 286.047 125.578C286.047 129.373 287.731 131.39 290.246 131.39C291.053 131.39 291.741 131.2 292.144 130.963L291.883 129.563ZM284.522 125.673C284.546 125.388 284.569 125.079 284.569 124.629C284.569 122.043 283.621 119.576 281.296 119.576C278.994 119.576 277.429 121.901 277.429 125.625C277.429 129.16 278.852 131.39 281.58 131.39C282.506 131.39 283.478 131.2 284.119 130.844L283.81 129.516C283.36 129.753 282.719 129.943 281.912 129.943C280.608 129.943 279.232 129.207 279.208 125.673H284.522ZM279.232 124.32C279.303 122.755 279.92 120.999 281.106 120.999C281.984 120.999 282.838 122.019 282.814 124.32H279.232ZM271.771 135.992C272.482 135.968 273.597 135.613 274.285 134.925C275.092 134.047 275.448 132.932 275.448 130.512V119.765H273.621V130.014C273.621 132.173 273.479 133.05 273.076 133.667C272.696 134.213 272.055 134.426 271.534 134.545L271.771 135.992ZM274.546 117.986C275.187 117.986 275.614 117.512 275.614 116.8C275.614 116.088 275.187 115.614 274.546 115.614C273.93 115.614 273.455 116.088 273.455 116.8C273.455 117.512 273.906 117.986 274.523 117.986H274.546ZM267.647 131.437C269.403 131.437 271.443 129.943 271.443 125.483C271.443 121.474 269.806 119.576 267.742 119.576C265.773 119.576 263.899 121.331 263.899 125.53C263.899 129.563 265.56 131.437 267.624 131.437H267.647ZM267.695 129.99C266.058 129.99 265.726 127.404 265.726 125.507C265.726 123.727 266.034 121.023 267.671 121.023C269.284 121.023 269.616 123.727 269.616 125.507C269.616 127.309 269.284 129.99 267.719 129.99H267.695ZM258.489 131.248H260.316V124.89C260.316 124.486 260.34 124.154 260.387 123.846C260.577 122.517 261.431 121.45 262.593 121.45C262.736 121.45 262.854 121.45 262.973 121.474V119.599C262.854 119.576 262.736 119.576 262.593 119.576C261.526 119.576 260.553 120.477 260.173 121.568H260.126L260.031 119.765H258.394C258.418 120.62 258.489 121.758 258.489 122.731V131.248ZM249.203 131.248H251.03V124.7C251.291 124.724 251.528 124.724 251.836 124.724C253.26 124.724 254.754 124.131 255.608 122.944C256.225 122.138 256.581 121.141 256.581 119.671C256.581 118.271 256.178 117.108 255.418 116.349C254.588 115.543 253.331 115.187 251.86 115.187C250.792 115.187 249.938 115.306 249.203 115.495V131.248ZM251.03 116.8C251.267 116.729 251.623 116.681 252.05 116.681C254.09 116.681 254.754 118.152 254.754 119.789C254.754 122.043 253.544 123.229 251.765 123.229C251.457 123.229 251.243 123.205 251.03 123.182V116.8ZM243.688 131.248C242.573 129.729 241.956 128.923 241.647 128.472C242.715 126.859 243.237 124.558 243.403 122.66H241.766C241.719 123.751 241.505 125.791 240.817 127.262C239.584 125.601 238.374 123.727 237.757 122.731V122.636C239.797 121.213 240.509 119.932 240.509 118.342C240.509 116.136 239.157 115.068 237.686 115.068C235.622 115.068 234.412 116.824 234.412 118.769C234.412 120.098 234.886 121.284 235.574 122.351V122.422C233.89 123.704 233.131 125.269 233.131 127.025C233.131 129.255 234.459 131.437 237.116 131.437C238.397 131.437 239.702 130.844 240.58 129.753C241.102 130.512 241.363 130.821 241.647 131.248H243.688ZM237.401 129.99C235.74 129.99 234.886 128.448 234.886 126.835C234.886 125.364 235.598 124.249 236.31 123.561C237.282 125.056 238.397 126.74 239.773 128.614C239.204 129.492 238.374 129.99 237.425 129.99H237.401ZM237.543 116.421C238.563 116.421 238.896 117.464 238.896 118.437C238.896 119.671 238.231 120.667 236.998 121.592C236.381 120.62 236.096 119.765 236.096 118.674C236.096 117.417 236.594 116.421 237.52 116.421H237.543ZM225.946 131.248H227.654L226.729 115.258H224.689L222.886 122.565C222.364 124.724 222.008 126.242 221.7 128.069H221.628C221.296 126.242 220.893 124.676 220.347 122.565L218.497 115.258H216.504L215.555 131.248H217.192L217.501 124.486C217.595 122.209 217.714 119.979 217.69 118.105H217.762C218.094 119.955 218.544 121.924 219.09 123.964L220.94 131.153H222.127L224.072 123.656C224.57 121.806 224.997 119.884 225.353 118.105H225.448C225.377 119.908 225.495 122.256 225.614 124.368L225.946 131.248ZM213.775 129.445C213.395 129.611 212.802 129.777 212.114 129.777C210.145 129.777 208.342 128.187 208.342 123.277C208.342 118.39 210.359 116.729 212.067 116.729C212.897 116.729 213.277 116.895 213.656 117.061L214.06 115.519C213.751 115.306 213.039 115.116 212.091 115.116C209.552 115.116 206.421 117.132 206.421 123.466C206.421 128.899 208.674 131.39 211.782 131.39C212.779 131.39 213.585 131.224 214.083 130.963L213.775 129.445ZM197.754 130.678C198.205 131.034 199.367 131.39 200.458 131.39C202.997 131.39 204.942 129.658 204.942 126.906C204.942 125.127 204.088 123.656 202.166 122.304C200.648 121.236 199.818 120.596 199.818 119.006C199.818 117.915 200.553 116.729 202.119 116.729C202.949 116.729 203.614 116.99 204.017 117.275L204.468 115.709C204.088 115.448 203.21 115.116 202.214 115.116C199.699 115.116 197.991 116.895 197.991 119.315C197.991 121.379 199.747 122.873 201.004 123.751C202.261 124.7 203.115 125.601 203.115 127.072C203.115 128.685 202.119 129.777 200.458 129.777C199.652 129.777 198.703 129.468 198.157 129.136L197.754 130.678ZM190.312 114.831V120.928H190.265C189.814 119.955 189.007 119.576 188.177 119.576C186.398 119.576 184.714 121.474 184.714 125.554C184.714 129.35 186.113 131.437 188.059 131.437C189.268 131.437 190.099 130.631 190.455 129.824H190.549L190.668 131.248H192.234C192.21 130.583 192.139 129.278 192.139 128.496V114.831H190.312ZM190.312 127.191C190.312 127.476 190.312 127.736 190.241 127.95C189.838 129.611 189.055 129.919 188.486 129.919C187.157 129.919 186.54 127.974 186.54 125.554C186.54 123.253 187.062 121.141 188.58 121.141C189.458 121.141 190.194 122.185 190.289 123.371C190.312 123.632 190.312 123.893 190.312 124.131V127.191ZM183.189 125.673C183.212 125.388 183.236 125.079 183.236 124.629C183.236 122.043 182.287 119.576 179.962 119.576C177.661 119.576 176.095 121.901 176.095 125.625C176.095 129.16 177.519 131.39 180.247 131.39C181.172 131.39 182.145 131.2 182.785 130.844L182.477 129.516C182.026 129.753 181.386 129.943 180.579 129.943C179.274 129.943 177.898 129.207 177.875 125.673H183.189ZM177.898 124.32C177.969 122.755 178.586 120.999 179.772 120.999C180.65 120.999 181.504 122.019 181.481 124.32H177.898ZM170.927 117.82V119.765H169.527V121.141H170.927V127.808C170.927 129.397 171.141 130.18 171.615 130.702C172.042 131.2 172.683 131.39 173.418 131.39C174.011 131.39 174.438 131.319 174.77 131.2L174.675 129.8C174.486 129.848 174.248 129.872 173.94 129.872C173.276 129.872 172.754 129.492 172.754 127.974V121.141H174.96V119.765H172.754V117.085L170.927 117.82ZM167.955 123.656C167.955 121.094 166.982 119.576 164.681 119.576C163.542 119.576 162.499 119.979 162 120.335L162.404 121.616C162.949 121.236 163.59 121.023 164.302 121.023C165.749 121.023 166.128 122.09 166.128 123.632V123.988C163.542 124.012 161.241 125.269 161.241 128.163C161.241 130.156 162.427 131.437 163.969 131.437C164.942 131.437 165.749 130.915 166.247 130.038H166.318L166.437 131.248H168.074C167.955 130.512 167.955 129.516 167.955 128.638V123.656ZM166.176 127.618C166.176 127.831 166.152 128.069 166.105 128.282C165.891 129.421 165.227 130.014 164.42 130.014C163.78 130.014 163.021 129.492 163.021 127.974C163.021 125.483 165.227 125.293 166.176 125.293V127.618ZM155.997 131.248H157.824V124.89C157.824 124.486 157.848 124.154 157.895 123.846C158.085 122.517 158.939 121.45 160.101 121.45C160.244 121.45 160.362 121.45 160.481 121.474V119.599C160.362 119.576 160.244 119.576 160.101 119.576C159.034 119.576 158.061 120.477 157.682 121.568H157.634L157.539 119.765H155.902C155.926 120.62 155.997 121.758 155.997 122.731V131.248ZM153.496 123.348C153.496 121.568 153.567 120.548 153.591 119.765H151.954L151.859 121.047H151.812C151.456 120.382 150.886 119.576 149.677 119.576C147.969 119.576 146.071 121.308 146.071 125.554C146.071 128.923 147.399 131.224 149.439 131.224C150.388 131.224 151.242 130.726 151.622 129.824H151.669V130.987C151.669 133.596 150.768 134.498 149.321 134.498C148.419 134.498 147.66 134.237 147.209 133.999L146.782 135.423C147.375 135.755 148.324 135.992 149.297 135.992C150.578 135.992 151.646 135.541 152.357 134.782C153.116 133.928 153.496 132.79 153.496 129.777V123.348ZM151.669 127.049C151.669 127.381 151.669 127.736 151.551 128.092C151.195 129.468 150.483 129.729 149.914 129.729C148.823 129.729 147.897 128.401 147.897 125.459C147.897 122.921 148.609 121.141 149.914 121.141C150.958 121.141 151.385 122.114 151.574 122.873C151.646 123.134 151.669 123.419 151.669 123.727V127.049ZM144.546 125.673C144.569 125.388 144.593 125.079 144.593 124.629C144.593 122.043 143.644 119.576 141.319 119.576C139.018 119.576 137.452 121.901 137.452 125.625C137.452 129.16 138.876 131.39 141.604 131.39C142.529 131.39 143.502 131.2 144.142 130.844L143.834 129.516C143.383 129.753 142.743 129.943 141.936 129.943C140.631 129.943 139.255 129.207 139.232 125.673H144.546ZM139.255 124.32C139.327 122.755 139.943 120.999 141.13 120.999C142.007 120.999 142.861 122.019 142.838 124.32H139.255ZM132.284 117.82V119.765H130.884V121.141H132.284V127.808C132.284 129.397 132.498 130.18 132.972 130.702C133.399 131.2 134.04 131.39 134.775 131.39C135.368 131.39 135.795 131.319 136.127 131.2L136.032 129.8C135.843 129.848 135.605 129.872 135.297 129.872C134.633 129.872 134.111 129.492 134.111 127.974V121.141H136.317V119.765H134.111V117.085L132.284 117.82ZM122.29 131.248H124.116V124.012C124.116 123.609 124.14 123.253 124.211 122.992C124.425 121.758 125.16 121.118 125.919 121.118C127.248 121.118 127.509 122.47 127.509 123.846V131.248H129.335V123.537C129.335 120.738 128.149 119.576 126.56 119.576C125.35 119.576 124.425 120.216 123.926 121.141H123.879L123.784 119.765H122.195C122.218 120.691 122.29 121.379 122.29 122.731V131.248ZM117.706 115.258V131.248H119.533V115.258H117.706Z" fill="black"/>
</g>
<defs>
<clipPath id="clip0">
<path d="M0 0H400V160H0V0Z" fill="white"/>
</clipPath>
</defs>
</svg>
