<svg width="400" height="160" viewBox="0 0 400 160" fill="none" xmlns="http://www.w3.org/2000/svg">
<path fill-rule="evenodd" clip-rule="evenodd" d="M309.07 95.593C304.19 97.5817 300.338 104.452 294.481 108.358C294.117 108.6 293.754 108.721 293.512 108.721C293.028 108.721 292.422 108.236 292.422 106.057C292.422 98.5505 294.844 94.9182 296.902 89.5909C304.045 71.0665 316.274 55.2057 327.171 37.892C328.018 36.5601 328.503 35.1072 328.503 33.5333C328.503 32.2014 328.018 31.1118 327.413 29.78C326.929 28.6903 324.749 27.7217 322.328 27.7217C320.996 27.7217 319.785 27.8428 318.211 27.8428C312.521 27.8428 311.31 36.1969 309.978 38.3763C300.898 53.7528 290.485 72.7615 285.158 86.2008C283.99 89.2136 282.728 92.2263 281.769 95.3184C276.504 96.8428 272.56 104.245 266.391 108.358C266.028 108.6 265.665 108.721 265.423 108.721C264.938 108.721 264.333 108.236 264.333 106.057C264.333 98.5505 266.754 94.9182 268.813 89.5909C275.956 71.0665 288.185 55.2057 299.081 37.892C299.929 36.5601 300.413 35.1072 300.413 33.5333C300.413 32.2014 299.929 31.1118 299.324 29.78C298.839 28.6903 296.66 27.7217 294.238 27.7217C292.907 27.7217 291.696 27.8428 290.122 27.8428C284.431 27.8428 283.221 36.1969 281.889 38.3763C272.808 53.7528 262.396 72.7615 257.068 86.2008C256.645 87.2931 256.209 88.3853 255.78 89.4813C255.647 89.5521 255.512 89.6289 255.373 89.712C249.199 93.3442 243.992 99.7612 236.486 104.12C235.033 104.967 230.553 108.115 226.921 108.115C226.073 108.115 225.347 107.873 224.62 107.51C223.531 107.026 222.441 104.725 222.441 103.999C222.441 103.393 222.562 103.272 223.773 102.546C234.427 96.129 243.145 86.9273 250.651 77.7256C253.436 74.3355 257.068 67.6764 257.068 62.8334C257.068 59.6854 255.979 56.0532 252.225 54.7214C249.562 53.7528 246.535 53.2685 244.113 53.2685C237.696 53.2685 232.975 56.1743 230.311 58.959C227.599 61.854 224.976 64.8266 222.539 67.9037C219.993 65.7054 216.402 64.7706 212.997 64.7706C209.002 64.7706 201.495 69.7346 197.621 72.6404C197.015 73.1247 196.652 73.3669 196.41 73.3669C196.289 73.3669 196.168 73.2458 196.168 73.0037C196.168 72.8826 196.41 71.7929 196.41 69.8557C196.41 68.1607 196.047 65.9813 194.473 63.3177C194.11 62.7123 191.93 61.3805 189.267 61.3805C185.998 61.3805 182.971 62.9545 182.971 64.6495C182.971 65.8603 184.06 66.3446 184.06 67.4342C184.06 68.0396 183.576 70.8243 182.85 73.488C180.791 81.2368 178.249 88.8645 175.585 96.4922C174.132 100.73 169.289 104.483 169.289 109.084C169.289 110.537 170.258 112.474 171.59 113.927C173.769 116.348 175.101 117.196 177.038 117.196C177.885 117.196 178.854 116.954 179.702 116.227C181.518 114.653 182.486 113.079 182.971 110.9C186.119 96.6133 195.199 86.9273 205.248 80.5103C208.639 78.331 213.239 76.0305 213.845 76.0305C214.465 76.0305 215.436 76.317 216.415 76.5961C213.605 81.178 211.329 86.0101 209.849 91.1649C209.365 92.8599 209.123 94.4339 209.123 96.129C209.123 98.9137 209.728 101.819 210.697 104.604C212.029 108.479 214.208 111.869 217.235 113.443C222.804 116.348 226.8 117.922 230.432 117.922C232.49 117.922 234.064 117.559 235.759 116.591C243.717 112.088 248.596 108.672 252.119 105.638C252.216 108.715 252.822 110.419 255.01 112.716C257.19 115.017 260.58 117.075 265.059 118.044C265.786 118.165 266.512 118.286 267.239 118.286C272.364 118.286 277.297 114.12 281.1 109.99C281.541 110.891 282.181 111.751 283.1 112.716C285.279 115.017 288.669 117.075 293.149 118.044C293.875 118.165 294.602 118.286 295.328 118.286C301.332 118.286 307.071 112.569 311.041 107.891C312.364 110.627 316.062 113.333 320.512 115.501C321.722 116.106 323.175 116.47 324.507 116.47C329.713 116.47 333.467 112.232 336.372 109.084C343.879 100.851 347.996 90.6806 351.144 77.8467C351.386 76.8781 351.749 76.5148 352.233 76.5148C353.444 76.5148 355.018 76.5148 356.713 76.2727C359.982 75.7884 362.525 74.6987 365.552 74.2144C367.368 73.8512 367.125 73.2458 368.821 72.6404C370.031 72.1561 371 71.6718 371 70.4611C371 68.4028 367.247 66.2235 361.556 66.2235C357.076 66.2235 354.413 66.5867 352.596 66.5867C349.812 66.5867 349.085 65.7392 347.269 61.0173C347.269 61.0173 349.085 65.7392 347.269 61.0173C346.906 60.0487 346.543 59.5644 345.453 58.5958C342.911 56.4164 339.763 55.69 337.22 55.69C331.166 55.69 325.96 61.8648 322.328 67.071C321.48 68.2818 320.27 69.2504 319.422 70.5822C314.435 78.0634 309.659 86.4997 309.07 95.593ZM154.276 54.3581C157.303 54.3581 158.998 54.116 159.361 54.116C159.724 54.116 159.966 54.2371 159.966 54.6003C159.966 54.8424 159.845 55.2057 158.998 57.0218C151.612 72.8826 146.527 88.9856 142.047 106.784C141.926 107.268 141.563 109.084 141.563 110.9C141.563 112.595 142.047 114.411 143.742 115.38C147.011 117.317 149.675 118.165 151.491 118.165C154.155 118.165 155.487 116.47 155.487 113.685C155.487 111.263 155.608 108.721 155.971 106.784C159.361 88.9856 164.446 75.0619 172.316 60.533C176.069 53.6317 176.554 53.2685 176.554 52.6631C176.554 52.4209 176.433 52.0577 176.19 51.6945C181.033 50.6048 186.845 49.8784 192.172 49.8784C192.778 49.8784 195.199 50.7259 195.562 51.0891C196.41 51.9366 197.257 52.7842 198.71 52.7842C199.921 52.7842 201.979 51.9366 202.706 51.4523C204.401 50.2416 205.248 48.9098 205.248 46.7304C205.248 44.6722 197.621 39.587 192.293 39.587C185.755 39.587 179.823 40.4345 174.253 41.5242C171.832 42.0085 163.114 43.3403 156.818 43.3403C150.765 43.3403 151.128 42.4928 148.585 42.4928C147.132 42.4928 146.406 43.2193 145.801 43.8246C145.195 44.43 144.832 46.8515 144.832 49.0309C144.832 50.1205 144.832 50.968 145.437 51.6945C147.254 53.8738 150.765 54.3581 154.276 54.3581C154.276 54.3581 150.765 54.3581 154.276 54.3581ZM243.992 64.1652C243.992 65.2549 243.629 65.9813 242.176 68.2817C240.723 70.5822 241.329 70.5822 239.513 73.0037C236.001 77.7256 231.643 82.4475 225.952 87.6537C224.378 89.1066 224.136 89.1066 223.894 89.1066C223.773 89.1066 223.531 88.9856 223.531 88.7434C223.531 88.3802 223.652 87.8959 224.863 85.3533C228.616 77.4834 233.217 72.2772 238.302 67.1921C241.087 64.4074 242.782 63.4388 243.387 63.4388C243.75 63.4388 243.992 63.5598 243.992 64.1652C243.992 64.1652 243.992 63.5598 243.992 64.1652ZM337.099 67.3132C337.22 67.3132 337.341 67.4342 337.462 67.6764C337.583 68.0396 337.825 68.4028 338.431 68.8871C338.915 69.2504 338.915 70.9454 338.915 72.2772C338.915 84.0215 332.256 93.7075 325.718 103.515C324.265 105.694 323.417 106.057 322.691 106.057C322.086 106.057 321.117 104.483 320.754 103.515C320.27 102.183 320.148 100.609 320.148 100.003C320.148 90.5595 329.108 76.5148 335.041 68.7661C336.009 67.4342 336.736 67.3132 337.099 67.3132C337.099 67.3132 336.736 67.3132 337.099 67.3132Z" fill="#0079BF"/>
<path d="M118.632 41.0977H61.3052C56.0284 41.0977 51.7507 45.3754 51.7507 50.6522V107.979C51.7507 113.256 56.0284 117.534 61.3052 117.534H118.632C123.909 117.534 128.187 113.256 128.187 107.979V50.6522C128.187 45.3754 123.909 41.0977 118.632 41.0977Z" fill="url(#paint0_linear)"/>
<path d="M113.664 51.0342H99.5233C96.9904 51.0342 94.9371 53.0875 94.9371 55.6203V79.8888C94.9371 82.4217 96.9904 84.475 99.5233 84.475H113.664C116.197 84.475 118.25 82.4217 118.25 79.8888V55.6203C118.25 53.0875 116.197 51.0342 113.664 51.0342Z" fill="white"/>
<path d="M80.4142 51.0342H66.2735C63.7407 51.0342 61.6874 53.0875 61.6874 55.6203V98.9979C61.6874 101.531 63.7407 103.584 66.2735 103.584H80.4142C82.9471 103.584 85.0004 101.531 85.0004 98.9979V55.6203C85.0004 53.0875 82.9471 51.0342 80.4142 51.0342Z" fill="white"/>
<defs>
<linearGradient id="paint0_linear" x1="89.9687" y1="41.0977" x2="89.9687" y2="117.534" gradientUnits="userSpaceOnUse">
<stop stop-color="#0079BF"/>
<stop offset="1" stop-color="#0079BF"/>
</linearGradient>
</defs>
</svg>
