<svg width="400" height="160" viewBox="0 0 400 160" fill="none" xmlns="http://www.w3.org/2000/svg">
<path fill-rule="evenodd" clip-rule="evenodd" d="M198.553 81.6894C198.553 93.6185 198.553 105.548 198.553 117.477C198.553 117.966 198.554 118.454 198.555 118.942C198.556 119.34 198.409 119.605 197.964 119.605C195.313 119.606 192.662 119.602 190.011 119.612C189.454 119.614 189.309 119.297 189.31 118.824C189.311 117.568 189.307 116.312 189.314 115.056C189.315 114.777 189.367 114.44 189.121 114.29C188.855 114.127 188.614 114.358 188.405 114.551C185.456 117.267 182.032 119.03 178.091 119.847C176.355 120.207 174.601 120.201 172.911 119.981C170.133 119.618 167.483 118.738 164.984 117.357C159.996 114.602 156.928 110.311 155.094 105.096C153.97 101.897 153.453 98.513 153.828 95.1161C154.397 89.9753 156.087 85.312 159.566 81.2815C162.633 77.7271 166.449 75.4882 170.866 74.5665C176.325 73.4269 181.685 74.0827 186.446 77.3762C187.126 77.8469 187.709 78.4592 188.34 79.0015C188.542 79.1749 188.707 79.4928 189.023 79.3818C189.459 79.229 189.293 78.8139 189.307 78.4948C189.325 78.0768 189.311 77.6576 189.311 77.2392C189.311 66.7052 189.311 56.1707 189.311 45.6366C189.311 45.1483 189.311 44.66 189.311 44.1717C189.31 43.6427 189.58 43.4639 190.097 43.4668C192.678 43.4832 195.259 43.4823 197.84 43.4673C198.395 43.4643 198.57 43.7244 198.556 44.227C198.542 44.7149 198.553 45.2036 198.553 45.6919C198.553 57.6909 198.553 69.6904 198.553 81.6894ZM189.311 97.2252C189.289 97.2252 189.268 97.2248 189.247 97.2248C189.247 95.8348 189.555 94.3572 189.19 93.0703C188.027 88.9681 185.672 85.8895 181.406 84.3957C179.157 83.6079 176.933 83.556 174.662 83.6343C171.148 83.7553 168.221 85.3275 166.103 88.0237C163.068 91.8851 162.352 96.4542 163.629 101.084C165.5 107.864 170.243 110.739 176.581 110.767C181.057 110.787 184.61 108.622 187.273 105.009C188.711 103.058 189.657 100.981 189.319 98.4795C189.263 98.0682 189.311 97.6436 189.311 97.2252Z" fill="#E74450"/>
<path fill-rule="evenodd" clip-rule="evenodd" d="M286.909 81.4958C286.909 69.5625 286.909 57.6292 286.909 45.6955C286.909 45.2072 286.913 44.7189 286.908 44.2302C286.903 43.7381 287.085 43.4658 287.632 43.4688C290.214 43.4813 292.796 43.4809 295.379 43.4688C295.884 43.4663 296.167 43.62 296.151 44.1715C296.135 44.7294 296.148 45.288 296.148 45.8463C296.148 61.4085 296.148 76.9706 296.148 92.5336C296.148 93.022 296.138 93.5107 296.149 93.999C296.152 94.1309 296.171 94.3274 296.256 94.3814C296.454 94.5083 296.604 94.3299 296.733 94.1942C297.021 93.8906 297.317 93.5924 297.584 93.2707C300.238 90.0765 302.88 86.8736 305.537 83.6819C307.796 80.9668 310.085 78.2756 312.322 75.5417C312.648 75.1434 312.882 74.8515 313.456 74.8561C316.806 74.8829 320.156 74.8699 323.506 74.8687C323.777 74.8687 324.1 74.8369 324.155 75.1786C324.181 75.3415 324.04 75.5656 323.916 75.7134C320.94 79.2736 317.956 82.8271 314.974 86.3827C312.704 89.0894 310.424 91.7878 308.171 94.5087C307.327 95.5276 307.322 95.624 308.163 96.7664C310.903 100.489 313.66 104.198 316.432 107.897C319.082 111.432 321.76 114.946 324.427 118.468C324.603 118.7 324.72 118.946 324.643 119.237C324.52 119.7 324.128 119.607 323.8 119.607C320.66 119.612 317.519 119.592 314.38 119.626C313.753 119.633 313.328 119.449 312.962 118.957C308.766 113.309 304.564 107.667 300.356 102.028C299.117 100.368 297.856 98.7239 296.604 97.0726C296.524 96.9675 296.421 96.7648 296.365 96.7769C296.141 96.8259 296.149 97.0404 296.149 97.2288C296.148 99.3224 296.148 101.416 296.148 103.51C296.148 108.464 296.154 113.419 296.143 118.374C296.14 119.583 296.116 119.6 294.869 119.606C292.566 119.619 290.262 119.57 287.961 119.63C287.103 119.653 286.834 119.343 286.901 118.552C286.937 118.136 286.908 117.715 286.908 117.296C286.909 105.363 286.909 93.429 286.909 81.4958Z" fill="#E74450"/>
<path fill-rule="evenodd" clip-rule="evenodd" d="M130.538 98.6876C125.099 98.6876 119.658 98.6813 114.219 98.6926C113.103 98.6947 112.994 98.7927 113.142 99.869C113.918 105.51 118.681 110.498 124.276 110.946C128.059 111.249 131.465 110.569 134.535 108.346C135.948 107.323 137.134 106.073 138.123 104.621C138.827 103.589 139.061 103.572 140.124 104.256C141.977 105.448 143.782 106.718 145.669 107.853C146.279 108.22 146.273 108.42 145.922 108.934C144.303 111.294 142.417 113.422 140.246 115.272C138.082 117.115 135.61 118.478 132.847 119.188C129.35 120.086 125.837 120.352 122.212 119.718C117.342 118.867 113.215 116.708 109.887 113.148C106.735 109.778 104.706 105.791 103.89 101.167C102.766 94.7932 104.021 88.9509 107.742 83.7452C110.691 79.6213 114.509 76.5511 119.567 75.154C121.913 74.5057 124.248 73.9566 126.656 74.0806C132.464 74.3796 137.709 76.2073 141.879 80.4229C145.103 83.6811 147.106 87.6581 147.825 92.1694C148.129 94.0737 147.873 96.0663 147.877 98.0188C147.878 98.5804 147.541 98.7043 147.066 98.6922C146.578 98.68 146.09 98.6884 145.601 98.6884C140.581 98.6876 135.559 98.6876 130.538 98.6876ZM125.705 90.2798C129.052 90.2798 132.4 90.2798 135.747 90.2802C136.166 90.2802 136.589 90.3183 137.002 90.2722C137.31 90.2379 137.491 90.0134 137.341 89.6838C136.737 88.3596 135.966 87.1337 134.871 86.1713C131.214 82.9537 126.954 82.305 122.371 83.4902C118.989 84.3646 116.598 86.6199 114.727 89.479C114.336 90.0754 114.451 90.2726 115.243 90.2751C118.73 90.2881 122.217 90.281 125.705 90.2798Z" fill="#E74450"/>
<path fill-rule="evenodd" clip-rule="evenodd" d="M231.037 98.6877C225.804 98.6877 220.57 98.6814 215.338 98.6918C213.973 98.6944 213.94 98.7203 214.074 100.096C214.281 102.208 215.214 104.104 216.413 105.744C218.056 107.992 220.145 109.783 223.007 110.509C228.095 111.799 232.637 110.878 236.601 107.405C237.644 106.491 238.575 105.456 239.339 104.28C239.617 103.854 239.927 103.592 240.529 103.988C242.598 105.347 244.708 106.642 246.812 107.948C247.215 108.199 247.195 108.462 246.946 108.79C246.154 109.833 245.42 110.927 244.56 111.911C241.456 115.464 237.792 118.144 233.119 119.326C229.363 120.276 225.593 120.407 221.857 119.525C217.551 118.508 213.769 116.402 210.756 113.117C207.68 109.764 205.663 105.87 204.824 101.332C203.617 94.7991 205.038 88.8501 208.755 83.5003C212.067 78.7327 216.788 75.7048 222.432 74.5409C228.668 73.2556 234.645 74.414 239.943 78.0304C244.455 81.1094 247.088 85.5491 248.446 90.813C249.014 93.0175 248.808 95.2242 248.801 97.4342C248.797 98.5042 248.561 98.6759 247.365 98.6814C243.527 98.699 239.689 98.6881 235.852 98.6881C234.247 98.6877 232.642 98.6877 231.037 98.6877ZM227.061 90.2798C230.195 90.2798 233.33 90.2702 236.464 90.2832C238.792 90.2932 238.631 90.3774 237.579 88.4212C237.378 88.0472 237.137 87.7281 236.886 87.4002C233.951 83.546 227.999 82.0395 223.25 83.4764C220.043 84.446 217.692 86.4311 215.896 89.1759C215.714 89.4544 215.298 89.6822 215.467 90.0503C215.636 90.4185 216.073 90.2773 216.403 90.2777C219.956 90.2823 223.508 90.2807 227.061 90.2798Z" fill="#E74450"/>
<path fill-rule="evenodd" clip-rule="evenodd" d="M68.728 88.8716C68.728 92.9172 68.8784 96.9703 68.6895 101.008C68.4554 106.008 66.8049 110.561 63.3569 114.291C60.7642 117.097 57.4967 118.849 53.7677 119.622C48.3187 120.75 43.0707 120.185 38.208 117.319C34.5653 115.171 32.1396 111.986 30.6516 108.063C29.5196 105.077 28.9995 101.981 29.0024 98.7896C29.0095 91.4652 29.0045 84.1404 29.0041 76.8156C29.0041 76.3972 29.0192 75.978 29.0011 75.5601C28.9773 74.9972 29.2922 74.8628 29.7793 74.8653C31.4532 74.8745 33.1276 74.8565 34.8015 74.8732C35.9783 74.885 37.1539 74.9356 38.3303 74.9691C38.7994 76.1732 38.5322 77.4266 38.5385 78.6533C38.5741 85.6988 38.5678 92.7442 38.5669 99.7901C38.5669 101.963 39.1721 103.977 40.0642 105.935C41.0772 108.158 42.8261 109.411 45.1027 110.173C47.9837 111.139 50.7934 110.931 53.5545 109.897C56.3722 108.843 57.9012 106.538 58.6547 103.785C59.2326 101.672 59.4818 99.4572 59.4931 97.2539C59.5279 90.4873 59.5057 83.7208 59.5057 76.9538C59.5057 76.4659 59.5023 75.9776 59.5098 75.4893C59.5165 75.0789 59.7205 74.8699 60.1456 74.8699C62.7966 74.8736 65.4472 74.8728 68.0982 74.8699C68.5119 74.8695 68.7377 75.0533 68.7402 75.478C68.7431 75.9663 68.7448 76.4546 68.7448 76.9429C68.7452 80.919 68.7452 84.8951 68.7452 88.8716C68.7393 88.8716 68.7339 88.8716 68.728 88.8716Z" fill="#E74450"/>
<path fill-rule="evenodd" clip-rule="evenodd" d="M86.1995 120.084C82.7645 120.239 79.8178 118.907 77.0885 116.897C76.0784 116.153 75.1646 115.314 74.247 114.467C73.6271 113.895 73.4927 113.275 74.0045 112.637C75.4757 110.801 76.9993 109.007 78.4844 107.182C78.9371 106.626 79.3019 106.572 79.8241 107.129C81.1613 108.558 82.7122 109.665 84.6257 110.234C86.2803 110.727 87.8483 110.499 89.1541 108.662C90.0759 107.366 89.8054 105.492 88.6193 104.087C86.8993 102.049 84.6675 100.641 82.5396 99.0989C79.9485 97.2215 77.5613 95.1702 76.1688 92.1557C73.803 87.0321 74.4626 81.97 78.2256 77.8784C79.9849 75.9661 82.3901 74.9811 84.9109 74.4626C88.8212 73.6577 92.368 74.626 95.5676 76.957C95.9018 77.2003 96.2189 77.4713 96.5216 77.7523C96.9551 78.1544 96.9484 78.5778 96.5648 79.0305C95.0898 80.7739 93.6169 82.5195 92.1594 84.2776C91.6828 84.8526 91.2804 85.0943 90.6811 84.3827C90.0378 83.6184 89.1981 83.2013 88.1457 83.1762C85.5453 83.1146 83.7596 85.4385 84.6797 87.8646C85.1693 89.1554 85.9532 90.3167 87.1037 91.1518C89.0557 92.5682 91.0391 93.9414 92.9824 95.3699C94.9553 96.8198 96.7679 98.4963 97.9288 100.646C99.3079 103.199 99.8796 105.894 99.4273 108.939C98.8075 113.112 96.7139 116.111 93.3086 118.283C91.6841 119.319 89.6713 120.269 86.1995 120.084Z" fill="#E74450"/>
<path fill-rule="evenodd" clip-rule="evenodd" d="M267.034 120.029C263.017 120.208 259.691 118.58 256.735 116.017C256.472 115.789 256.185 115.571 255.981 115.294C255.494 114.633 254.322 114.569 254.29 113.588C254.262 112.689 255.191 112.241 255.646 111.566C256.686 110.023 257.955 108.636 259.098 107.16C259.578 106.541 259.94 106.655 260.425 107.158C261.839 108.621 263.521 109.656 265.491 110.215C267.119 110.678 268.767 110.254 269.612 109.121C270.457 107.987 270.479 105.907 269.68 104.627C268.899 103.376 267.86 102.414 266.663 101.544C264.037 99.6315 261.314 97.8349 259.098 95.4012C256.821 92.9014 255.637 90.0121 255.538 86.627C255.427 82.8528 256.793 79.7373 259.631 77.3129C261.487 75.7269 263.697 74.8734 266.116 74.38C268.666 73.8603 270.983 74.4407 273.322 75.262C274.58 75.7043 275.657 76.433 276.635 77.3078C277.629 78.1965 277.678 78.4801 276.836 79.5673C275.903 80.7722 274.87 81.9004 273.877 83.0592C273.695 83.2707 273.525 83.5103 273.299 83.661C272.83 83.973 272.818 84.7813 272.218 84.8282C271.721 84.8676 271.48 84.2624 271.114 83.9575C269.762 82.8301 267.48 82.9528 266.308 83.9672C265.057 85.051 264.791 86.7966 265.642 88.5078C266.279 89.7868 267.291 90.7421 268.404 91.5772C270.497 93.1489 272.677 94.6093 274.74 96.2192C278.863 99.4359 280.965 103.697 280.159 108.899C279.222 114.955 276 118.354 269.745 119.999C268.897 120.221 267.94 120.029 267.034 120.029Z" fill="#E74450"/>
<path fill-rule="evenodd" clip-rule="evenodd" d="M335.417 44.6741C337.451 42.7053 340.038 41.7395 342.661 41.0104C344.689 40.4463 346.807 39.9777 348.952 40.1385C353.373 40.4702 357.58 41.4874 361.19 44.254C361.123 45.0229 360.496 45.3986 360.038 45.8898C358.176 47.8867 356.07 49.6502 354.372 51.8037C354.015 51.8376 353.723 51.6726 353.397 51.5491C350.783 50.5532 348.12 50.1771 345.362 50.9649C344.44 51.2283 343.66 51.8749 342.665 51.916C340.174 49.5774 337.703 47.2179 335.417 44.6741Z" fill="#E74450"/>
<path fill-rule="evenodd" clip-rule="evenodd" d="M366.544 49.5513C367.23 50.0618 367.668 50.7641 368.036 51.5129C369.371 54.2217 370.37 56.9824 370.802 60.0426C371.574 65.5134 370.011 70.3116 367.407 74.9368C367.311 75.1072 367.107 75.217 366.953 75.3552C365.211 73.783 363.47 72.2096 361.725 70.6399C360.958 69.9493 360.356 69.0765 359.438 68.5514C359.376 68.1929 359.557 67.9031 359.662 67.5768C360.162 66.0222 360.663 64.4777 360.687 62.7979C360.718 60.6804 359.957 58.7875 359.301 56.8518C361.323 54.3993 363.889 52.4565 365.811 49.9068C365.957 49.7138 366.296 49.666 366.544 49.5513Z" fill="#E74450"/>
<path fill-rule="evenodd" clip-rule="evenodd" d="M361.605 80.7245C360.324 82.285 358.433 82.8231 356.702 83.6076C354.375 84.6621 351.845 85.0281 349.35 85.2023C346.548 85.3983 343.751 84.8681 341.113 83.8693C339.278 83.1749 337.397 82.4994 335.897 81.135C338.167 78.489 340.401 75.8087 343.076 73.5463C344.739 74.1565 346.371 74.8128 348.202 74.8559C350.392 74.9074 352.371 74.203 354.358 73.4517C356.696 75.3974 358.561 77.8512 361.024 79.6633C361.374 79.9196 361.568 80.2852 361.605 80.7245Z" fill="#E74450"/>
<path fill-rule="evenodd" clip-rule="evenodd" d="M330.541 76.0263C327.929 72.3065 326.351 68.2538 326.26 63.6374C326.194 60.2941 326.634 57.1024 327.924 53.9887C328.506 52.5836 329.259 51.3209 330.074 50.0695C330.891 50.036 331.229 50.727 331.718 51.1747C333.733 53.0183 335.469 55.1559 337.644 56.8336C337.647 57.3135 337.512 57.7461 337.361 58.2097C336.843 59.8121 336.229 61.4529 336.43 63.152C336.65 65.0123 337.004 66.8806 337.984 68.5432C336.351 70.1535 334.672 71.721 333.101 73.3904C332.261 74.2824 331.652 75.3948 330.541 76.0263Z" fill="#E74450"/>
<path fill-rule="evenodd" clip-rule="evenodd" d="M361.605 80.7249C361.568 80.2855 361.374 79.9199 361.025 79.6636C358.561 77.8515 356.696 75.3973 354.358 73.452C354.359 73.1701 354.384 72.8711 354.638 72.7132C356.229 71.727 357.512 70.4408 358.5 68.8506C358.712 68.5102 359.094 68.555 359.438 68.5508C360.357 69.076 360.958 69.9487 361.726 70.6393C363.47 72.209 365.211 73.7824 366.953 75.3546C367.193 76.2332 366.531 76.7488 366.092 77.3029C364.895 78.8185 363.844 80.5636 361.605 80.7249Z" fill="#E8E5E6"/>
<path fill-rule="evenodd" clip-rule="evenodd" d="M330.541 76.0265C331.652 75.3949 332.261 74.283 333.101 73.3902C334.672 71.7208 336.351 70.1533 337.984 68.543C338.162 68.6385 338.41 68.6879 338.507 68.8357C339.647 70.5888 341.107 71.9826 342.966 72.9613C343.075 73.0191 343.042 73.3453 343.076 73.5468C340.4 75.8091 338.166 78.4895 335.897 81.1354C335.623 81.1304 335.252 81.2405 335.09 81.1032C333.424 79.6885 331.563 78.4543 330.52 76.4319C330.467 76.3276 330.531 76.163 330.541 76.0265Z" fill="#E8E5E6"/>
<path fill-rule="evenodd" clip-rule="evenodd" d="M337.644 56.8329C335.469 55.1552 333.733 53.0181 331.718 51.1741C331.229 50.7268 330.891 50.0354 330.074 50.0689C329.712 48.717 331.034 48.1935 331.562 47.3358C332.394 45.9831 333.752 45.0114 335.417 44.6743C337.704 47.2181 340.175 49.5776 342.666 51.9166C342.691 52.2856 342.576 52.6143 342.267 52.8116C340.817 53.7359 339.621 54.9018 338.709 56.3664C338.481 56.7328 338.107 56.9259 337.644 56.8329Z" fill="#E8E5E6"/>
<path fill-rule="evenodd" clip-rule="evenodd" d="M366.544 49.5511C366.295 49.6658 365.957 49.714 365.812 49.9066C363.89 52.4563 361.323 54.3991 359.302 56.8516C359.025 56.844 358.714 56.8545 358.552 56.5986C357.552 55.0189 356.287 53.7123 354.686 52.7335C354.348 52.5271 354.359 52.1547 354.373 51.8038C356.071 49.6499 358.176 47.8863 360.038 45.8899C360.496 45.3987 361.124 45.023 361.19 44.2541C362.087 43.9982 362.63 44.6959 363.164 45.1361C364.617 46.3351 366.378 47.3494 366.544 49.5511Z" fill="#E8E5E6"/>
</svg>
