<svg width="400" height="160" viewBox="0 0 400 160" fill="none" xmlns="http://www.w3.org/2000/svg">
<path d="M137.369 85.7477V61.0991C137.369 60.7387 137.585 60.5225 137.946 60.5225H143.567C143.928 60.5225 144.144 60.7387 144.144 61.0991V85.8918C144.144 94.9729 138.018 100.234 129.73 100.234C121.513 100.234 115.315 94.9729 115.315 85.8918V61.0991C115.315 60.7387 115.531 60.5225 115.892 60.5225H121.513C121.874 60.5225 122.09 60.7387 122.09 61.0991V85.7477C122.09 91.1531 125.261 94.1081 129.658 94.1081C134.198 94.1081 137.369 91.1531 137.369 85.7477ZM149.91 95.045C149.694 94.8288 149.549 94.4684 149.766 94.1801L153.297 90.072C153.513 89.7837 153.874 89.7837 154.09 90C156.612 92.018 160.36 94.1081 164.757 94.1081C169.441 94.1081 172.108 91.7297 172.108 88.4864C172.108 85.6756 170.378 83.8018 164.973 83.081L162.883 82.7927C155.315 81.7837 151.063 78.1081 151.063 71.6216C151.063 64.5585 156.252 59.8018 164.324 59.8018C169.225 59.8018 173.91 61.3873 177.009 63.6936C177.297 63.9099 177.369 64.1261 177.153 64.4864L174.414 68.7387C174.198 69.027 173.91 69.0991 173.621 68.8828C170.45 66.7927 167.495 65.8558 164.252 65.8558C160.288 65.8558 158.126 68.018 158.126 71.1171C158.126 73.7837 160 75.6576 165.333 76.3783L167.423 76.6666C174.991 77.6756 179.099 81.2792 179.099 87.9819C179.099 94.9729 174.126 100.09 164.396 100.09C158.558 100.234 152.937 97.9279 149.91 95.045ZM185.441 61.0991C185.441 60.7387 185.658 60.5225 186.018 60.5225H210.522C210.883 60.5225 211.099 60.7387 211.099 61.0991V66.072C211.099 66.4324 210.883 66.6486 210.522 66.6486H192.576C192.36 66.6486 192.216 66.7927 192.216 67.009V76.5225C192.216 76.7387 192.36 76.8828 192.576 76.8828H207.712C208.072 76.8828 208.288 77.0991 208.288 77.4594V82.4324C208.288 82.7927 208.072 83.009 207.712 83.009H192.576C192.36 83.009 192.216 83.1531 192.216 83.3693V93.2432C192.216 93.4594 192.36 93.6036 192.576 93.6036H210.522C210.883 93.6036 211.099 93.8198 211.099 94.1801V99.1531C211.099 99.5135 210.883 99.7297 210.522 99.7297H186.018C185.658 99.7297 185.441 99.5135 185.441 99.1531V61.0991ZM241.585 99.5855C241.153 99.5855 240.865 99.4414 240.721 99.009L233.225 83.8018H226.522C226.306 83.8018 226.162 83.9459 226.162 84.1621V99.081C226.162 99.4414 225.946 99.6576 225.585 99.6576H219.964C219.603 99.6576 219.387 99.4414 219.387 99.081V61.0991C219.387 60.7387 219.603 60.5225 219.964 60.5225H235.099C242.306 60.5225 247.567 65.2792 247.567 72.1981C247.567 77.3153 244.613 81.2792 240.144 82.9369L248.36 98.8648C248.576 99.2972 248.36 99.5855 247.928 99.5855H241.585ZM240.865 72.1981C240.865 68.8108 238.414 66.6486 234.883 66.6486H226.522C226.306 66.6486 226.162 66.7927 226.162 67.009V77.3873C226.162 77.6036 226.306 77.7477 226.522 77.7477H234.883C238.414 77.6756 240.865 75.5135 240.865 72.1981ZM265.225 99.5855C264.865 99.5855 264.649 99.3693 264.504 99.009L252.108 61.0991C251.964 60.7387 252.252 60.5225 252.54 60.5225H258.09C258.522 60.5225 258.739 60.6666 258.811 61.0991L267.531 88.7747H267.676L276.108 61.0991C276.252 60.6666 276.468 60.5225 276.829 60.5225H282.378C282.739 60.5225 282.955 60.7387 282.811 61.0991L270.414 99.009C270.27 99.3693 270.054 99.5855 269.694 99.5855H265.225ZM288.072 90.7927C287.279 88.3423 287.063 86.1801 287.063 80.054C287.063 73.9279 287.279 71.6936 288.072 69.3153C290.09 63.1171 295.135 59.8738 301.91 59.8738C308.685 59.8738 313.73 63.1171 315.748 69.3153C316.54 71.7657 316.757 73.9279 316.757 80.054C316.757 86.1801 316.54 88.4144 315.748 90.7927C313.73 96.9909 308.685 100.234 301.91 100.234C295.135 100.234 290.09 96.9909 288.072 90.7927ZM309.189 88.9909C309.622 87.5495 309.91 85.5315 309.91 80.054C309.91 74.5045 309.694 72.5585 309.189 71.1171C308.108 67.9459 305.802 66 301.91 66C298.09 66 295.784 67.9459 294.631 71.1171C294.198 72.5585 293.91 74.5045 293.91 80.054C293.91 85.6036 294.126 87.5495 294.631 88.9909C295.712 92.1621 298.018 94.1081 301.91 94.1081C305.73 94.1081 308.036 92.1621 309.189 88.9909ZM324.901 61.0991C324.901 60.7387 325.117 60.5225 325.477 60.5225H331.099C331.459 60.5225 331.676 60.7387 331.676 61.0991V99.009C331.676 99.3693 331.459 99.5855 331.099 99.5855H325.477C325.117 99.5855 324.901 99.3693 324.901 99.009V61.0991ZM339.892 80.054C339.892 73.8558 340.108 71.9099 340.901 69.4594C342.919 63.045 347.892 59.8738 354.45 59.8738C360.721 59.8738 365.405 63.1171 367.712 68.2342C367.856 68.5225 367.712 68.8108 367.423 68.9549L362.522 71.3333C362.162 71.4774 361.874 71.3333 361.802 71.045C360.504 68.3063 358.342 66 354.522 66C350.775 66 348.613 68.018 347.531 71.1891C347.027 72.7747 346.811 74.3603 346.811 80.1261C346.811 85.8918 346.955 87.4054 347.531 89.063C348.613 92.2342 350.775 94.2522 354.522 94.2522C358.342 94.2522 360.576 91.9459 361.802 89.2072C361.946 88.9189 362.234 88.7747 362.522 88.9189L367.423 91.2972C367.712 91.4414 367.856 91.7297 367.712 92.018C365.477 97.2072 360.721 100.378 354.45 100.378C347.82 100.378 342.919 97.1351 340.901 90.7927C340.108 88.1981 339.892 86.2522 339.892 80.054ZM374.342 61.0991C374.342 60.7387 374.558 60.5225 374.919 60.5225H399.423C399.784 60.5225 400 60.7387 400 61.0991V66.072C400 66.4324 399.784 66.6486 399.423 66.6486H381.477C381.261 66.6486 381.117 66.7927 381.117 67.009V76.5225C381.117 76.7387 381.261 76.8828 381.477 76.8828H396.612C396.973 76.8828 397.189 77.0991 397.189 77.4594V82.4324C397.189 82.7927 396.973 83.009 396.612 83.009H381.477C381.261 83.009 381.117 83.1531 381.117 83.3693V93.2432C381.117 93.4594 381.261 93.6036 381.477 93.6036H399.423C399.784 93.6036 400 93.8198 400 94.1801V99.1531C400 99.5135 399.784 99.7297 399.423 99.7297H374.919C374.558 99.7297 374.342 99.5135 374.342 99.1531V61.0991Z" fill="black"/>
<path d="M35.8198 101.892V98.4325V98.2884C35.8198 94.6848 32.2162 91.1533 32.2162 87.5497C32.2162 85.0271 33.946 82.5767 35.027 80.0542C35.5315 79.0452 35.8198 77.9641 35.8198 76.8109C35.8198 72.847 32.6487 69.6758 28.6847 69.6758C24.7207 69.6758 21.5496 72.847 21.5496 76.8109C21.5496 77.9641 21.8378 79.1172 22.3424 80.0542C23.4234 82.5767 25.1532 85.0271 25.1532 87.5497C25.1532 91.1533 21.5496 94.6848 21.5496 98.2884V101.892C21.5496 108.667 23.6397 115.009 27.3153 120.342C37.1892 123.442 44.036 116.955 44.036 116.955C38.9189 113.64 35.8198 108.09 35.8198 101.892Z" fill="url(#paint0_linear)"/>
<path d="M28.6127 64.6306C32.5533 64.6306 35.7478 61.4361 35.7478 57.4955C35.7478 53.5549 32.5533 50.3604 28.6127 50.3604C24.672 50.3604 21.4775 53.5549 21.4775 57.4955C21.4775 61.4361 24.672 64.6306 28.6127 64.6306Z" fill="#FB7028"/>
<path d="M28.6127 45.3152C32.5533 45.3152 35.7478 42.1207 35.7478 38.1801C35.7478 34.2394 32.5533 31.0449 28.6127 31.0449C24.672 31.0449 21.4775 34.2394 21.4775 38.1801C21.4775 42.1207 24.672 45.3152 28.6127 45.3152Z" fill="#FB7028"/>
<path d="M7.13513 64.6306C11.0758 64.6306 14.2703 61.4361 14.2703 57.4955C14.2703 53.5549 11.0758 50.3604 7.13513 50.3604C3.19451 50.3604 0 53.5549 0 57.4955C0 61.4361 3.19451 64.6306 7.13513 64.6306Z" fill="#FB7028"/>
<path d="M7.13513 45.3152C11.0758 45.3152 14.2703 42.1207 14.2703 38.1801C14.2703 34.2394 11.0758 31.0449 7.13513 31.0449C3.19451 31.0449 0 34.2394 0 38.1801C0 42.1207 3.19451 45.3152 7.13513 45.3152Z" fill="#FB7028"/>
<path d="M68.036 26L50.0901 37.964V101.892C50.0901 111.766 42.0901 119.766 32.2162 119.766C22.3423 119.766 14.3423 111.766 14.3423 101.892V98.5766V98.3604C14.3423 94.7568 10.7387 91.2252 10.7387 87.6216C10.7387 85.0991 12.4685 82.6486 13.5495 80.1261C14.0541 79.1171 14.3423 78.036 14.3423 76.8829C14.3423 72.9189 11.1712 69.7477 7.20721 69.7477C3.24324 69.7477 0.0720721 72.9189 0.0720721 76.8829C0.0720721 78.036 0.36036 79.1892 0.864865 80.1261C1.87387 82.5766 3.6036 85.0991 3.6036 87.5495C3.6036 91.1532 0 94.6847 0 98.2883V101.82C0 119.622 14.4865 134.108 32.2162 134.108C49.9459 134.108 64.4324 119.622 64.4324 101.892V45.6036L68.036 43.2252L71.6396 45.6036V101.171C71.6396 113.063 68.036 125.027 54.4865 133.387C68.3243 133.387 85.5496 117.82 85.982 97.6396V37.964L68.036 26Z" fill="#FB7028"/>
<defs>
<linearGradient id="paint0_linear" x1="32.7042" y1="121.143" x2="32.7042" y2="69.6808" gradientUnits="userSpaceOnUse">
<stop stop-color="#D2341B"/>
<stop offset="0.182" stop-color="#E14612"/>
<stop offset="0.46" stop-color="#F15A08"/>
<stop offset="0.735" stop-color="#FC6702"/>
<stop offset="1" stop-color="#FF6B00"/>
</linearGradient>
</defs>
</svg>
