<svg width="400" height="160" viewBox="0 0 400 160" fill="none" xmlns="http://www.w3.org/2000/svg">
<path d="M17.6572 70.5619L64.1855 26.7812L110.713 70.5626L64.1855 114.344L17.6572 70.5619Z" stroke="#FFD150" stroke-width="9.376" stroke-miterlimit="10"/>
<path d="M52.5532 103.398L99.0808 59.6172" stroke="#FFD150" stroke-width="9.376" stroke-miterlimit="10"/>
<path d="M40.9217 92.4525L87.4499 48.6719" stroke="#FFD150" stroke-width="9.376" stroke-miterlimit="10"/>
<path d="M29.2902 81.5079L75.817 37.7266" stroke="#FFD150" stroke-width="9.376" stroke-miterlimit="10"/>
<path d="M52.5532 37.7266L99.0808 81.5079" stroke="#FFD150" stroke-width="9.376" stroke-miterlimit="10"/>
<path d="M40.9217 48.6719L87.4499 92.4525" stroke="#FFD150" stroke-width="9.376" stroke-miterlimit="10"/>
<path d="M29.2895 59.6172L75.817 103.399" stroke="#FFD150" stroke-width="9.376" stroke-miterlimit="10"/>
<path d="M78.1616 147.606C78.3715 150.579 76.3521 153.013 74.1187 153.013C71.8859 153.013 69.635 150.532 70.0757 147.606C70.6843 143.575 72.6435 142.19 72.7981 134.989C73.359 108.79 72.3469 101.624 74.0984 101.624C75.8534 101.624 75.5141 108.996 76.0744 135.131C76.2262 142.256 77.9588 144.736 78.1616 147.606Z" fill="#FFD150"/>
<path d="M88.781 123.97C88.9657 125.812 87.1876 127.319 85.2221 127.319C83.2566 127.319 81.275 125.784 81.6632 123.97C82.1983 121.475 83.9232 120.615 84.0589 116.156C84.5534 99.93 83.6623 91.8154 85.2039 91.8154C86.7483 91.8154 86.4504 100.058 86.9435 116.244C87.0771 120.657 88.6026 122.192 88.781 123.97Z" fill="#FFD150"/>
<path d="M125.845 51.6396H128.585C128.934 51.6396 129.222 51.7332 129.447 51.9205C129.673 52.1077 129.823 52.3138 129.897 52.5395L139.318 81.9669C139.493 82.542 139.631 83.0918 139.731 83.6173C139.831 84.142 139.931 84.6667 140.031 85.1914C140.155 84.6667 140.294 84.142 140.443 83.6173C140.594 83.0918 140.769 82.542 140.969 81.9669L150.99 52.2768C151.165 51.7269 151.515 51.4517 152.041 51.4517H153.504C154.054 51.4517 154.417 51.7269 154.592 52.2768L164.463 81.9669C164.838 83.0918 165.138 84.179 165.364 85.2291C165.463 84.7037 165.57 84.1734 165.682 83.6361C165.795 83.0988 165.951 82.5427 166.152 81.9669L175.609 52.5395C175.809 51.9393 176.235 51.6396 176.886 51.6396H179.512L167.015 88.9399H164.388C163.987 88.9399 163.699 88.6779 163.525 88.1531L153.279 57.8621C153.153 57.4876 153.041 57.1124 152.942 56.7379C152.841 56.3628 152.754 55.9883 152.679 55.6131C152.604 55.9883 152.522 56.3628 152.434 56.7379C152.346 57.1124 152.241 57.4876 152.115 57.8621L141.757 88.1531C141.607 88.6779 141.307 88.9399 140.856 88.9399H138.342L125.845 51.6396Z" fill="#3D3D3D"/>
<path d="M125.845 51.6396H128.585C128.934 51.6396 129.222 51.7332 129.447 51.9205C129.673 52.1077 129.823 52.3138 129.897 52.5395L139.318 81.9669C139.493 82.542 139.631 83.0918 139.731 83.6173C139.831 84.142 139.931 84.6667 140.031 85.1914C140.155 84.6667 140.294 84.142 140.443 83.6173C140.594 83.0918 140.769 82.542 140.969 81.9669L150.99 52.2768C151.165 51.7269 151.515 51.4517 152.041 51.4517H153.504C154.054 51.4517 154.417 51.7269 154.592 52.2768L164.463 81.9669C164.838 83.0918 165.138 84.179 165.364 85.2291C165.463 84.7037 165.57 84.1734 165.682 83.6361C165.795 83.0988 165.951 82.5427 166.152 81.9669L175.609 52.5395C175.809 51.9393 176.235 51.6396 176.886 51.6396H179.512L167.015 88.9399H164.388C163.987 88.9399 163.699 88.6779 163.525 88.1531L153.279 57.8621C153.153 57.4876 153.041 57.1124 152.942 56.7379C152.841 56.3628 152.754 55.9883 152.679 55.6131C152.604 55.9883 152.522 56.3628 152.434 56.7379C152.346 57.1124 152.241 57.4876 152.115 57.8621L141.757 88.1531C141.607 88.6779 141.307 88.9399 140.856 88.9399H138.342L125.845 51.6396Z" stroke="#333333" stroke-miterlimit="10"/>
<path d="M210.249 88.9403C209.499 88.9403 209.036 88.591 208.861 87.8909L208.336 83.13C207.309 84.1299 206.29 85.0298 205.277 85.8291C204.264 86.6298 203.206 87.3033 202.106 87.8532C201.004 88.403 199.817 88.8223 198.54 89.1087C197.264 89.3966 195.863 89.5398 194.337 89.5398C193.061 89.5398 191.822 89.3519 190.621 88.9767C189.42 88.6029 188.357 88.0285 187.431 87.2523C186.506 86.4788 185.761 85.4853 185.198 84.2724C184.635 83.0595 184.353 81.6048 184.353 79.9049C184.353 78.33 184.805 76.8684 185.706 75.5185C186.606 74.1693 188.013 72.9948 189.928 71.995C191.841 70.9959 194.306 70.1959 197.321 69.5957C200.336 68.9962 203.957 68.6462 208.185 68.5456V64.6476C208.185 61.1981 207.441 58.5431 205.953 56.6811C204.463 54.8198 202.256 53.8884 199.328 53.8884C197.527 53.8884 195.994 54.1386 194.731 54.6381C193.468 55.1384 192.397 55.6876 191.522 56.2877C190.646 56.8872 189.933 57.4371 189.383 57.9374C188.832 58.4369 188.37 58.6864 187.994 58.6864C187.494 58.6864 187.118 58.4614 186.869 58.0121L186.231 56.925C188.182 54.9756 190.234 53.5014 192.386 52.5015C194.537 51.5017 196.977 51.0015 199.703 51.0015C201.705 51.0015 203.456 51.3201 204.958 51.9573C206.459 52.5952 207.703 53.5077 208.692 54.694C209.681 55.8811 210.425 57.3183 210.925 59.0057C211.425 60.6923 211.675 62.5732 211.675 64.6476V88.9396H210.249V88.9403ZM195.238 86.9533C196.689 86.9533 198.021 86.7974 199.235 86.4851C200.448 86.1728 201.574 85.7354 202.613 85.173C203.651 84.6098 204.621 83.9419 205.521 83.1671C206.422 82.3929 207.31 81.5545 208.186 80.6553V70.9463C204.633 71.0462 201.575 71.3152 199.01 71.7519C196.445 72.1899 194.331 72.7824 192.668 73.5328C191.003 74.2825 189.778 75.1761 188.99 76.213C188.201 77.2505 187.807 78.4313 187.807 79.7554C187.807 81.0067 188.014 82.0869 188.427 82.9987C188.84 83.9112 189.384 84.6609 190.059 85.2478C190.735 85.8354 191.523 86.2664 192.424 86.5417C193.325 86.817 194.261 86.9533 195.238 86.9533Z" fill="#3D3D3D"/>
<path d="M210.249 88.9403C209.499 88.9403 209.036 88.591 208.861 87.8909L208.336 83.13C207.309 84.1299 206.29 85.0298 205.277 85.8291C204.264 86.6298 203.206 87.3033 202.106 87.8532C201.004 88.403 199.817 88.8223 198.54 89.1087C197.264 89.3966 195.863 89.5398 194.337 89.5398C193.061 89.5398 191.822 89.3519 190.621 88.9767C189.42 88.6029 188.357 88.0285 187.431 87.2523C186.506 86.4788 185.761 85.4853 185.198 84.2724C184.635 83.0595 184.353 81.6048 184.353 79.9049C184.353 78.33 184.805 76.8684 185.706 75.5185C186.606 74.1693 188.013 72.9948 189.928 71.995C191.841 70.9959 194.306 70.1959 197.321 69.5957C200.336 68.9962 203.957 68.6462 208.185 68.5456V64.6476C208.185 61.1981 207.441 58.5431 205.953 56.6811C204.463 54.8198 202.256 53.8884 199.328 53.8884C197.527 53.8884 195.994 54.1386 194.731 54.6381C193.468 55.1384 192.397 55.6876 191.522 56.2877C190.646 56.8872 189.933 57.4371 189.383 57.9374C188.832 58.4369 188.37 58.6864 187.994 58.6864C187.494 58.6864 187.118 58.4614 186.869 58.0121L186.231 56.925C188.182 54.9756 190.234 53.5014 192.386 52.5015C194.537 51.5017 196.977 51.0015 199.703 51.0015C201.705 51.0015 203.456 51.3201 204.958 51.9573C206.459 52.5952 207.703 53.5077 208.692 54.694C209.681 55.8811 210.425 57.3183 210.925 59.0057C211.425 60.6923 211.675 62.5732 211.675 64.6476V88.9396H210.249V88.9403ZM195.238 86.9533C196.689 86.9533 198.021 86.7974 199.235 86.4851C200.448 86.1728 201.574 85.7354 202.613 85.173C203.651 84.6098 204.621 83.9419 205.521 83.1671C206.422 82.3929 207.31 81.5545 208.186 80.6553V70.9463C204.633 71.0462 201.575 71.3152 199.01 71.7519C196.445 72.1899 194.331 72.7824 192.668 73.5328C191.003 74.2825 189.778 75.1761 188.99 76.213C188.201 77.2505 187.807 78.4313 187.807 79.7554C187.807 81.0067 188.014 82.0869 188.427 82.9987C188.84 83.9112 189.384 84.6609 190.059 85.2478C190.735 85.8354 191.523 86.2664 192.424 86.5417C193.325 86.817 194.261 86.9533 195.238 86.9533Z" stroke="#333333" stroke-miterlimit="10"/>
<path d="M224.323 88.9404V55.5381L219.068 55.2014C218.342 55.1517 217.98 54.8394 217.98 54.2644V52.802H224.322V48.0782C224.322 45.9549 224.598 44.0866 225.148 42.4747C225.698 40.8614 226.474 39.5193 227.475 38.444C228.475 37.3694 229.682 36.5638 231.096 36.0258C232.51 35.4892 234.068 35.2202 235.769 35.2202C236.544 35.2202 237.327 35.2887 238.115 35.4263C238.903 35.564 239.596 35.7575 240.198 36.0076L240.085 37.732C240.06 38.082 239.822 38.2567 239.372 38.2567C239.072 38.2567 238.664 38.219 238.151 38.1442C237.64 38.0695 237.008 38.0317 236.256 38.0317C235.031 38.0317 233.898 38.2127 232.861 38.5753C231.823 38.9379 230.928 39.5193 230.177 40.3186C229.427 41.1186 228.845 42.1617 228.433 43.4487C228.019 44.7364 227.813 46.3168 227.813 48.1907V52.802H239.935V55.4634H227.888V88.9404H224.323Z" fill="#3D3D3D"/>
<path d="M224.323 88.9404V55.5381L219.068 55.2014C218.342 55.1517 217.98 54.8394 217.98 54.2644V52.802H224.322V48.0782C224.322 45.9549 224.598 44.0866 225.148 42.4747C225.698 40.8614 226.474 39.5193 227.475 38.444C228.475 37.3694 229.682 36.5638 231.096 36.0258C232.51 35.4892 234.068 35.2202 235.769 35.2202C236.544 35.2202 237.327 35.2887 238.115 35.4263C238.903 35.564 239.596 35.7575 240.198 36.0076L240.085 37.732C240.06 38.082 239.822 38.2567 239.372 38.2567C239.072 38.2567 238.664 38.219 238.151 38.1442C237.64 38.0695 237.008 38.0317 236.256 38.0317C235.031 38.0317 233.898 38.2127 232.861 38.5753C231.823 38.9379 230.928 39.5193 230.177 40.3186C229.427 41.1186 228.845 42.1617 228.433 43.4487C228.019 44.7364 227.813 46.3168 227.813 48.1907V52.802H239.935V55.4634H227.888V88.9404H224.323Z" stroke="#333333" stroke-miterlimit="10"/>
<path d="M246.24 88.9404V55.5381L240.986 55.2014C240.26 55.1517 239.897 54.8394 239.897 54.2644V52.802H246.239V48.0782C246.239 45.9549 246.515 44.0866 247.065 42.4747C247.615 40.8614 248.392 39.5193 249.392 38.444C250.392 37.3694 251.599 36.5638 253.014 36.0258C254.427 35.4892 255.984 35.2202 257.686 35.2202C258.461 35.2202 259.244 35.2887 260.032 35.4263C260.821 35.564 261.514 35.7575 262.116 36.0076L262.003 37.732C261.978 38.082 261.74 38.2567 261.29 38.2567C260.989 38.2567 260.582 38.219 260.069 38.1442C259.557 38.0695 258.926 38.0317 258.174 38.0317C256.948 38.0317 255.816 38.2127 254.778 38.5753C253.74 38.9379 252.846 39.5193 252.095 40.3186C251.345 41.1186 250.763 42.1617 250.35 43.4487C249.937 44.7364 249.731 46.3168 249.731 48.1907V52.802H261.853V55.4634H249.805V88.9404H246.24Z" fill="#3D3D3D"/>
<path d="M246.24 88.9404V55.5381L240.986 55.2014C240.26 55.1517 239.897 54.8394 239.897 54.2644V52.802H246.239V48.0782C246.239 45.9549 246.515 44.0866 247.065 42.4747C247.615 40.8614 248.392 39.5193 249.392 38.444C250.392 37.3694 251.599 36.5638 253.014 36.0258C254.427 35.4892 255.984 35.2202 257.686 35.2202C258.461 35.2202 259.244 35.2887 260.032 35.4263C260.821 35.564 261.514 35.7575 262.116 36.0076L262.003 37.732C261.978 38.082 261.74 38.2567 261.29 38.2567C260.989 38.2567 260.582 38.219 260.069 38.1442C259.557 38.0695 258.926 38.0317 258.174 38.0317C256.948 38.0317 255.816 38.2127 254.778 38.5753C253.74 38.9379 252.846 39.5193 252.095 40.3186C251.345 41.1186 250.763 42.1617 250.35 43.4487C249.937 44.7364 249.731 46.3168 249.731 48.1907V52.802H261.853V55.4634H249.805V88.9404H246.24Z" stroke="#333333" stroke-miterlimit="10"/>
<path d="M269.357 34.3955H265.79V88.9401H269.357V34.3955Z" fill="#3D3D3D"/>
<path d="M269.357 34.3955H265.79V88.9401H269.357V34.3955Z" stroke="#333333" stroke-miterlimit="10"/>
<path d="M296.64 51.0396C298.742 51.0396 300.687 51.4022 302.476 52.1267C304.265 52.852 305.816 53.9077 307.13 55.2946C308.443 56.6822 309.47 58.3877 310.207 60.4118C310.944 62.4359 311.314 64.7604 311.314 67.384C311.314 67.9346 311.232 68.3098 311.07 68.5089C310.908 68.7094 310.651 68.8093 310.301 68.8093H283.354V69.5213C283.354 72.3202 283.679 74.7824 284.33 76.9064C284.981 79.0305 285.907 80.8114 287.108 82.2486C288.309 83.6865 289.76 84.7667 291.462 85.4913C293.163 86.2165 295.064 86.5791 297.166 86.5791C299.042 86.5791 300.669 86.373 302.045 85.9601C303.421 85.5471 304.578 85.0853 305.517 84.5739C306.455 84.0617 307.199 83.5985 307.749 83.1863C308.299 82.774 308.699 82.5672 308.95 82.5672C309.276 82.5672 309.525 82.693 309.701 82.9431L310.677 84.1421C310.077 84.8918 309.282 85.5919 308.294 86.2416C307.306 86.8921 306.204 87.4483 304.991 87.9094C303.777 88.3726 302.476 88.7409 301.088 89.0161C299.7 89.2914 298.305 89.4284 296.904 89.4284C294.352 89.4284 292.025 88.9847 289.923 88.0981C287.822 87.2114 286.018 85.9175 284.514 84.2182C283.009 82.5183 281.845 80.4383 281.023 77.9754C280.202 75.5147 279.79 72.6961 279.79 69.522C279.79 66.8481 280.171 64.3803 280.935 62.118C281.698 59.857 282.799 57.907 284.239 56.2699C285.678 54.6336 287.44 53.3529 289.53 52.4271C291.617 51.5028 293.988 51.0396 296.64 51.0396ZM296.695 53.7016C294.771 53.7016 293.047 54.0013 291.524 54.6015C289.999 55.2009 288.682 56.0631 287.57 57.188C286.458 58.3122 285.559 59.6621 284.873 61.2362C284.185 62.8111 283.73 64.5732 283.504 66.5225H308.087C308.087 64.5229 307.812 62.73 307.263 61.1426C306.712 59.5559 305.939 58.213 304.94 57.1126C303.941 56.0135 302.741 55.1695 301.342 54.5819C299.943 53.995 298.394 53.7016 296.695 53.7016Z" fill="#3D3D3D"/>
<path d="M296.64 51.0396C298.742 51.0396 300.687 51.4022 302.476 52.1267C304.265 52.852 305.816 53.9077 307.13 55.2946C308.443 56.6822 309.47 58.3877 310.207 60.4118C310.944 62.4359 311.314 64.7604 311.314 67.384C311.314 67.9346 311.232 68.3098 311.07 68.5089C310.908 68.7094 310.651 68.8093 310.301 68.8093H283.354V69.5213C283.354 72.3202 283.679 74.7824 284.33 76.9064C284.981 79.0305 285.907 80.8114 287.108 82.2486C288.309 83.6865 289.76 84.7667 291.462 85.4913C293.163 86.2165 295.064 86.5791 297.166 86.5791C299.042 86.5791 300.669 86.373 302.045 85.9601C303.421 85.5471 304.578 85.0853 305.517 84.5739C306.455 84.0617 307.199 83.5985 307.749 83.1863C308.299 82.774 308.699 82.5672 308.95 82.5672C309.276 82.5672 309.525 82.693 309.701 82.9431L310.677 84.1421C310.077 84.8918 309.282 85.5919 308.294 86.2416C307.306 86.8921 306.204 87.4483 304.991 87.9094C303.777 88.3726 302.476 88.7409 301.088 89.0161C299.7 89.2914 298.305 89.4284 296.904 89.4284C294.352 89.4284 292.025 88.9847 289.923 88.0981C287.822 87.2114 286.018 85.9175 284.514 84.2182C283.009 82.5183 281.845 80.4383 281.023 77.9754C280.202 75.5147 279.79 72.6961 279.79 69.522C279.79 66.8481 280.171 64.3803 280.935 62.118C281.698 59.857 282.799 57.907 284.239 56.2699C285.678 54.6336 287.44 53.3529 289.53 52.4271C291.617 51.5028 293.988 51.0396 296.64 51.0396ZM296.695 53.7016C294.771 53.7016 293.047 54.0013 291.524 54.6015C289.999 55.2009 288.682 56.0631 287.57 57.188C286.458 58.3122 285.559 59.6621 284.873 61.2362C284.185 62.8111 283.73 64.5732 283.504 66.5225H308.087C308.087 64.5229 307.812 62.73 307.263 61.1426C306.712 59.5559 305.939 58.213 304.94 57.1126C303.941 56.0135 302.741 55.1695 301.342 54.5819C299.943 53.995 298.394 53.7016 296.695 53.7016Z" stroke="#333333" stroke-miterlimit="10"/>
<path d="M319.345 87.1411C319.345 86.4661 319.576 85.8855 320.039 85.3978C320.502 84.9108 321.071 84.667 321.747 84.667C322.422 84.667 323.004 84.9108 323.492 85.3978C323.979 85.8855 324.224 86.4661 324.224 87.1411C324.224 87.8153 323.979 88.3847 323.492 88.8466C323.004 89.3084 322.422 89.5397 321.747 89.5397C321.07 89.5397 320.502 89.3084 320.039 88.8466C319.576 88.3847 319.345 87.8153 319.345 87.1411Z" fill="#3D3D3D"/>
<path d="M319.345 87.1411C319.345 86.4661 319.576 85.8855 320.039 85.3978C320.502 84.9108 321.071 84.667 321.747 84.667C322.422 84.667 323.004 84.9108 323.492 85.3978C323.979 85.8855 324.224 86.4661 324.224 87.1411C324.224 87.8153 323.979 88.3847 323.492 88.8466C323.004 89.3084 322.422 89.5397 321.747 89.5397C321.07 89.5397 320.502 89.3084 320.039 88.8466C319.576 88.3847 319.345 87.8153 319.345 87.1411Z" stroke="#333333" stroke-miterlimit="10"/>
<path d="M339.161 38.5564C339.161 39.0818 338.942 39.5499 338.504 39.9621C338.065 40.3744 337.584 40.5812 337.059 40.5812C336.483 40.5812 335.99 40.3744 335.577 39.9621C335.164 39.5499 334.957 39.0818 334.957 38.5564C334.957 37.9814 335.164 37.4881 335.577 37.0759C335.99 36.6636 336.483 36.4575 337.059 36.4575C337.584 36.4575 338.065 36.6636 338.504 37.0759C338.942 37.4881 339.161 37.9814 339.161 38.5564ZM337.509 88.9403H336.608V52.2025H337.509V88.9403Z" fill="#3D3D3D"/>
<path d="M339.161 38.5564C339.161 39.0818 338.942 39.5499 338.504 39.9621C338.065 40.3744 337.584 40.5812 337.059 40.5812C336.483 40.5812 335.99 40.3744 335.577 39.9621C335.164 39.5499 334.957 39.0818 334.957 38.5564C334.957 37.9814 335.164 37.4881 335.577 37.0759C335.99 36.6636 336.483 36.4575 337.059 36.4575C337.584 36.4575 338.065 36.6636 338.504 37.0759C338.942 37.4881 339.161 37.9814 339.161 38.5564ZM337.509 88.9403H336.608V52.2025H337.509V88.9403Z" stroke="#333333" stroke-miterlimit="10"/>
<path d="M365.206 51.6016C367.782 51.6016 370.072 52.0578 372.074 52.9696C374.074 53.8828 375.757 55.1628 377.121 56.8124C378.484 58.462 379.517 60.4554 380.218 62.7918C380.917 65.1296 381.269 67.7217 381.269 70.5703C381.269 73.4195 380.917 76.0005 380.218 78.3118C379.517 80.6237 378.484 82.6045 377.121 84.2541C375.757 85.9023 374.075 87.1719 372.074 88.0585C370.072 88.9451 367.781 89.3888 365.206 89.3888C362.603 89.3888 360.308 88.9444 358.318 88.0585C356.329 87.1712 354.653 85.9023 353.289 84.2541C351.926 82.6045 350.894 80.6237 350.193 78.3118C349.492 76.0005 349.143 73.4195 349.143 70.5703C349.143 67.7217 349.492 65.1296 350.193 62.7918C350.894 60.4554 351.926 58.462 353.289 56.8124C354.653 55.1628 356.33 53.8828 358.318 52.9696C360.308 52.0585 362.603 51.6016 365.206 51.6016ZM365.206 88.6405C367.707 88.6405 369.909 88.2038 371.809 87.3277C373.712 86.4536 375.293 85.2288 376.557 83.654C377.822 82.0791 378.772 80.1808 379.411 77.9554C380.048 75.7315 380.367 73.27 380.367 70.5703C380.367 67.8712 380.048 65.4035 379.411 63.167C378.772 60.9305 377.822 59.0119 376.557 57.4126C375.293 55.8133 373.712 54.5696 371.809 53.6823C369.908 52.7956 367.707 52.3513 365.206 52.3513C362.678 52.3513 360.47 52.7956 358.582 53.6823C356.692 54.5696 355.115 55.8133 353.852 57.4126C352.588 59.0119 351.638 60.9305 351 63.167C350.362 65.4035 350.043 67.8712 350.043 70.5703C350.043 73.27 350.362 75.7315 351 77.9554C351.638 80.1808 352.589 82.0791 353.852 83.654C355.115 85.2288 356.692 86.4536 358.582 87.3277C360.469 88.2038 362.678 88.6405 365.206 88.6405Z" fill="#3D3D3D"/>
<path d="M365.206 51.6016C367.782 51.6016 370.072 52.0578 372.074 52.9696C374.074 53.8828 375.757 55.1628 377.121 56.8124C378.484 58.462 379.517 60.4554 380.218 62.7918C380.917 65.1296 381.269 67.7217 381.269 70.5703C381.269 73.4195 380.917 76.0005 380.218 78.3118C379.517 80.6237 378.484 82.6045 377.121 84.2541C375.757 85.9023 374.075 87.1719 372.074 88.0585C370.072 88.9451 367.781 89.3888 365.206 89.3888C362.603 89.3888 360.308 88.9444 358.318 88.0585C356.329 87.1712 354.653 85.9023 353.289 84.2541C351.926 82.6045 350.894 80.6237 350.193 78.3118C349.492 76.0005 349.143 73.4195 349.143 70.5703C349.143 67.7217 349.492 65.1296 350.193 62.7918C350.894 60.4554 351.926 58.462 353.289 56.8124C354.653 55.1628 356.33 53.8828 358.318 52.9696C360.308 52.0585 362.603 51.6016 365.206 51.6016ZM365.206 88.6405C367.707 88.6405 369.909 88.2038 371.809 87.3277C373.712 86.4536 375.293 85.2288 376.557 83.654C377.822 82.0791 378.772 80.1808 379.411 77.9554C380.048 75.7315 380.367 73.27 380.367 70.5703C380.367 67.8712 380.048 65.4035 379.411 63.167C378.772 60.9305 377.822 59.0119 376.557 57.4126C375.293 55.8133 373.712 54.5696 371.809 53.6823C369.908 52.7956 367.707 52.3513 365.206 52.3513C362.678 52.3513 360.47 52.7956 358.582 53.6823C356.692 54.5696 355.115 55.8133 353.852 57.4126C352.588 59.0119 351.638 60.9305 351 63.167C350.362 65.4035 350.043 67.8712 350.043 70.5703C350.043 73.27 350.362 75.7315 351 77.9554C351.638 80.1808 352.589 82.0791 353.852 83.654C355.115 85.2288 356.692 86.4536 358.582 87.3277C360.469 88.2038 362.678 88.6405 365.206 88.6405Z" stroke="#333333" stroke-miterlimit="10"/>
<path d="M227.875 55.3988L246.609 55.4812L246.146 53.8281L227.875 55.3988Z" fill="#3A3A3A"/>
<path d="M227.875 55.3988L246.609 55.4812L246.146 53.8281L227.875 55.3988Z" stroke="#333333" stroke-miterlimit="10"/>
</svg>
