<svg width="400" height="160" viewBox="0 0 400 160" fill="none" xmlns="http://www.w3.org/2000/svg">
<path d="M146.564 63.4215H152.428L162.041 92.7734L171.462 63.5497H178.704L165.053 103.252H159.061L149.448 74.9252L139.835 103.252H133.715L120 63.5497H127.466L136.887 92.7734L146.564 63.4215ZM199.564 73.2268H206.422V102.963H199.564V98.2849C198.584 99.7457 197.346 101.016 195.911 102.034C194.246 103.113 192.287 103.651 190.304 103.572C188.86 103.655 187.416 103.423 186.072 102.891C184.727 102.36 183.514 101.543 182.517 100.496C180.592 98.1594 179.609 95.1881 179.761 92.1646V73.2268H186.651V90.0818C186.527 92.0148 187.107 93.9272 188.285 95.4651C188.878 96.1028 189.605 96.6004 190.414 96.9219C191.224 97.2434 192.094 97.3806 192.963 97.3236C193.849 97.3506 194.73 97.1936 195.552 96.8627C196.374 96.5318 197.118 96.0341 197.738 95.401C198.389 94.665 198.888 93.8078 199.207 92.8785C199.526 91.9493 199.658 90.9662 199.596 89.9856V73.2268H199.564ZM218.79 102.963H211.933V73.2268H218.822V78.0654C219.295 77.3457 219.831 76.6701 220.425 76.0467C221.668 74.7169 223.236 73.734 224.975 73.1948C226.014 72.8853 227.096 72.7447 228.179 72.7782C229.637 72.7092 231.093 72.9602 232.444 73.5138C233.794 74.0674 235.007 74.9101 235.998 75.9826C237.91 78.3366 238.881 81.317 238.721 84.346V103.252H231.768V86.1084C231.893 84.1851 231.312 82.2824 230.134 80.7571C229.541 80.1172 228.814 79.616 228.006 79.2892C227.197 78.9624 226.326 78.8181 225.455 78.8665C224.565 78.8351 223.677 78.9899 222.849 79.3209C222.022 79.652 221.272 80.152 220.649 80.7891C219.356 82.2991 218.701 84.2525 218.822 86.2365V102.963H218.79ZM266.151 102.963V97.9965C265.051 99.5514 263.671 100.888 262.081 101.938C260.341 103.086 258.302 103.698 256.217 103.7C254.424 103.743 252.641 103.408 250.986 102.718C249.33 102.028 247.837 100.998 246.604 99.6948C245.229 98.2955 244.14 96.641 243.4 94.8242C242.57 92.7246 242.167 90.4805 242.214 88.2232C242.166 85.9347 242.569 83.659 243.4 81.5261C244.131 79.7042 245.22 78.0479 246.604 76.6555C247.846 75.3471 249.354 74.32 251.026 73.6434C252.666 72.9443 254.434 72.595 256.217 72.618C258.356 72.5355 260.473 73.0813 262.306 74.1882C263.84 75.179 265.204 76.4127 266.343 77.8411V61.8193H273.2V102.963H266.151ZM265.542 84.1537C265.114 83.0433 264.484 82.022 263.683 81.1416C262.899 80.3184 261.964 79.6547 260.928 79.187C258.875 78.343 256.572 78.343 254.519 79.187C253.491 79.6084 252.563 80.2416 251.795 81.0455C250.999 81.9289 250.369 82.9494 249.937 84.0576C249.469 85.3515 249.241 86.7196 249.264 88.0951C249.203 89.4416 249.388 90.788 249.809 92.0685C250.227 93.1834 250.858 94.2063 251.667 95.0806C252.438 95.8964 253.364 96.5501 254.391 97.0032C255.402 97.444 256.492 97.673 257.595 97.6761C258.697 97.6668 259.787 97.438 260.799 97.0032C261.849 96.5585 262.789 95.8916 263.555 95.0485C264.364 94.1743 264.995 93.1513 265.414 92.0364C266.353 89.4928 266.353 86.6973 265.414 84.1537H265.542ZM286.595 96.138C288.181 97.439 290.184 98.122 292.234 98.0606C293.748 98.145 295.26 97.8819 296.656 97.2916C298.004 96.5994 299.236 95.7021 300.309 94.632L304.283 98.0606C302.864 99.7347 301.134 101.117 299.188 102.13C296.977 103.177 294.552 103.693 292.106 103.636C290.054 103.668 288.016 103.286 286.114 102.515C284.299 101.788 282.653 100.697 281.275 99.3103C279.889 97.9196 278.799 96.2628 278.071 94.4397C277.241 92.4073 276.837 90.2259 276.885 88.031C276.871 85.9755 277.229 83.9345 277.943 82.0068C278.619 80.1828 279.642 78.507 280.955 77.0721C282.262 75.7196 283.818 74.6316 285.537 73.8677C287.394 73.0092 289.42 72.582 291.465 72.618C293.608 72.5638 295.735 73.0023 297.682 73.8998C299.405 74.723 300.925 75.9155 302.136 77.3925C303.35 78.9152 304.264 80.6552 304.827 82.5195C305.514 84.8031 305.807 87.1871 305.693 89.5691C305.693 89.8575 305.693 90.1779 305.693 90.5304H283.679C283.958 92.6923 285.004 94.6822 286.627 96.138H286.595ZM298.867 86.0122C298.778 84.914 298.53 83.8345 298.13 82.8079C297.771 81.9065 297.262 81.0723 296.624 80.3405C295.975 79.6354 295.19 79.0686 294.317 78.6743C292.951 78.0889 291.442 77.9226 289.982 78.1965C288.521 78.4703 287.175 79.172 286.114 80.2123C284.677 81.7751 283.799 83.7694 283.615 85.8841L298.867 86.0122ZM316.331 102.963H309.474V73.2268H316.363V79.924C317.193 77.821 318.55 75.967 320.304 74.5406C322.141 73.1573 324.421 72.496 326.713 72.6821V79.8919H326.329C324.929 79.8667 323.538 80.1058 322.227 80.5969C321.004 81.0789 319.907 81.8353 319.023 82.8079C318.059 83.8681 317.337 85.1256 316.908 86.4929C316.405 88.1652 316.167 89.906 316.203 91.6519L316.331 102.963ZM330.046 102.963V61.8514H336.935V102.963H330.046ZM342.863 68.6767V62.2679H350.233V68.6767H342.863ZM343.151 102.963V73.2268H350.041V102.963H343.151ZM376.22 98.2849C375.68 99.4265 374.878 100.425 373.881 101.201C372.827 101.997 371.631 102.585 370.356 102.931C368.95 103.335 367.494 103.54 366.031 103.54C363.845 103.518 361.678 103.128 359.622 102.387C357.414 101.676 355.343 100.592 353.502 99.1821L356.706 94.5679C358.218 95.6975 359.879 96.614 361.641 97.2916C363.176 97.8805 364.803 98.1951 366.447 98.2208C367.642 98.2939 368.83 97.9914 369.844 97.3557C370.228 97.1008 370.542 96.7524 370.755 96.3433C370.968 95.9341 371.073 95.4776 371.061 95.0165C371.061 94.476 370.868 93.9535 370.517 93.5425C370.102 93.0997 369.614 92.7312 369.075 92.453C368.387 92.107 367.669 91.828 366.928 91.6199L364.428 90.8508C363.339 90.5304 362.249 90.1459 361.224 89.7293C360.16 89.3384 359.157 88.799 358.244 88.1271C357.364 87.4671 356.623 86.6394 356.065 85.6918C355.482 84.5989 355.195 83.3729 355.232 82.135C355.005 80.7726 355.115 79.3754 355.552 78.0654C356.088 76.9474 356.865 75.9623 357.827 75.1815C358.775 74.39 359.862 73.7815 361.032 73.3871C362.369 72.9663 363.763 72.7502 365.165 72.7462C367.1 72.7645 369.022 73.0668 370.869 73.6434C372.719 74.2273 374.477 75.0687 376.092 76.1428L373.401 80.9814C372.037 80.1441 370.586 79.4565 369.075 78.9306C367.827 78.4329 366.507 78.1407 365.165 78.0654C364.034 77.9787 362.907 78.2719 361.961 78.8986C361.62 79.1418 361.342 79.4642 361.152 79.8381C360.963 80.2119 360.866 80.6262 360.872 81.0455C360.871 81.302 360.922 81.5561 361.021 81.7927C361.12 82.0294 361.265 82.2438 361.448 82.4234C361.877 82.8557 362.375 83.2132 362.922 83.4808C363.617 83.8275 364.334 84.1273 365.069 84.378L367.569 85.2111C368.656 85.5515 369.726 85.9472 370.773 86.3968C371.819 86.8182 372.809 87.3671 373.721 88.031C374.592 88.6875 375.332 89.5029 375.9 90.4342C376.479 91.4821 376.767 92.6661 376.733 93.8629C376.911 95.3567 376.735 96.8713 376.22 98.2849ZM388.653 93.6707C388.604 94.1869 388.664 94.7078 388.83 95.1992C388.995 95.6906 389.263 96.1416 389.615 96.5225C390.371 97.1394 391.332 97.4484 392.306 97.3877C393.775 97.3943 395.224 97.0539 396.536 96.3943V101.938C395.671 102.439 394.745 102.827 393.78 103.091C392.68 103.362 391.549 103.492 390.416 103.476C389.247 103.481 388.083 103.331 386.955 103.027C385.942 102.739 385.002 102.236 384.199 101.553C383.381 100.824 382.763 99.8976 382.405 98.8617C381.956 97.5314 381.75 96.1313 381.796 94.7281V79.0267H377.983V73.2268H381.764V65.0557H388.621V73.2268H396.632V79.0267H388.621V93.6707H388.653Z" fill="#5C5C5C"/>
<path d="M6 54.8571C6 44.4426 14.4426 36 24.8571 36H75.1429C85.5574 36 94 44.4426 94 54.8571V105.143C94 115.557 85.5574 124 75.1429 124H24.8571C14.4426 124 6 115.557 6 105.143V54.8571Z" fill="url(#paint0_linear)"/>
<path d="M16 63.3636C16 56.5354 21.5354 51 28.3636 51H71.6364C78.4646 51 84 56.5354 84 63.3636V106.636C84 113.465 78.4646 119 71.6364 119H28.3636C21.5354 119 16 113.465 16 106.636V63.3636Z" fill="url(#paint1_linear)"/>
<path d="M16 58.3636C16 51.5354 21.5354 46 28.3636 46H71.6364C78.4646 46 84 51.5354 84 58.3636V101.636C84 108.465 78.4646 114 71.6364 114H28.3636C21.5354 114 16 108.465 16 101.636V58.3636Z" fill="white"/>
<path d="M27 45C26.4477 45 26 45.4518 26 46.0091V115.99C26 116.747 26.7968 117.235 27.4626 116.884L49.5374 105.262C49.8273 105.11 50.1727 105.11 50.4626 105.262L72.5374 116.884C73.2032 117.235 74 116.747 74 115.99V46.0091C74 45.4518 73.5523 45 73 45H27Z" fill="url(#paint2_linear)"/>
<path d="M50 60L54.4903 73.8197H69.0211L57.2654 82.3607L61.7557 96.1803L50 87.6393L38.2443 96.1803L42.7346 82.3607L30.9789 73.8197H45.5097L50 60Z" fill="white"/>
<defs>
<linearGradient id="paint0_linear" x1="50" y1="36" x2="50" y2="124" gradientUnits="userSpaceOnUse">
<stop stop-color="#EAA06B"/>
<stop offset="1" stop-color="#B76B44"/>
</linearGradient>
<linearGradient id="paint1_linear" x1="50" y1="105.091" x2="50" y2="119" gradientUnits="userSpaceOnUse">
<stop stop-color="#763820"/>
<stop offset="1" stop-color="#763820" stop-opacity="0"/>
</linearGradient>
<linearGradient id="paint2_linear" x1="50" y1="45" x2="50" y2="117" gradientUnits="userSpaceOnUse">
<stop stop-color="#E84228"/>
<stop offset="0.0331492" stop-color="#FB583D"/>
<stop offset="0.187845" stop-color="#E6341B"/>
</linearGradient>
</defs>
</svg>
