<svg width="400" height="160" viewBox="0 0 400 160" fill="none" xmlns="http://www.w3.org/2000/svg">
<g clip-path="url(#clip0)">
<path fill-rule="evenodd" clip-rule="evenodd" d="M53.8276 92.9941L2.97241 111.572L73.5378 103.274L53.8276 92.9941Z" fill="#D9B42F"/>
<path fill-rule="evenodd" clip-rule="evenodd" d="M53.8271 92.9946L60.5382 108.665L14.8752 87.0103L53.8271 92.9946Z" fill="#FFE188"/>
<path fill-rule="evenodd" clip-rule="evenodd" d="M123.53 55.9102L117.926 58.1472L112.748 66.2578L123.53 55.9102Z" fill="#E83F00"/>
<path fill-rule="evenodd" clip-rule="evenodd" d="M112.745 58.1978L85.2141 65.2211L97.2225 67.7193L112.745 58.1978Z" fill="#CD2015"/>
<path fill-rule="evenodd" clip-rule="evenodd" d="M112.745 58.1978L88.5581 59.4469L95.8511 62.5015L112.745 58.1978Z" fill="#E83F00"/>
<path fill-rule="evenodd" clip-rule="evenodd" d="M98.6642 93.1899L108.342 74.7288L114.056 57.4175L53.8274 92.9911L73.2537 95.6597L98.6642 93.1899Z" fill="#EA4F86"/>
<path fill-rule="evenodd" clip-rule="evenodd" d="M70.7443 42.7925L53.8247 92.9947L64.0673 86.9508L70.7443 42.7925Z" fill="#00A2C9"/>
<path fill-rule="evenodd" clip-rule="evenodd" d="M70.7444 42.7918L44.5815 26L71.3831 56.2906L70.7444 42.7918Z" fill="#00A2C9"/>
<path fill-rule="evenodd" clip-rule="evenodd" d="M71.1278 50.5408L39.5881 40.812L71.5139 61.3653L71.1278 50.5408Z" fill="#5A8794"/>
<path fill-rule="evenodd" clip-rule="evenodd" d="M71.1276 50.5425L41.5496 65.1342L71.5136 61.367L71.1276 50.5425Z" fill="#005971"/>
<path fill-rule="evenodd" clip-rule="evenodd" d="M108.379 74.6352L122.573 52.4438L114.057 57.4175L108.379 74.6352Z" fill="#CD2015"/>
<path fill-rule="evenodd" clip-rule="evenodd" d="M72.5955 81.9488L70.7446 42.7925L64.0676 86.9508L72.5955 81.9488Z" fill="#5EB2D1"/>
<path fill-rule="evenodd" clip-rule="evenodd" d="M96.7541 67.6289L101.85 87.1432L98.6646 93.1899L87.5278 73.0823L96.7541 67.6289Z" fill="#F59B00"/>
<path fill-rule="evenodd" clip-rule="evenodd" d="M98.6641 93.1895L73.2564 95.6621L60.5383 108.664L98.6641 93.1895Z" fill="#E83F00"/>
<path fill-rule="evenodd" clip-rule="evenodd" d="M98.664 93.1906L70.7439 42.7925L73.2534 95.6633L98.664 93.1906Z" fill="#BAE2F5"/>
<path fill-rule="evenodd" clip-rule="evenodd" d="M72.5946 81.9482L73.2532 95.6627L46.7327 105.003L53.827 92.9942L72.5946 81.9482Z" fill="#F59B00"/>
<path fill-rule="evenodd" clip-rule="evenodd" d="M53.8275 92.9941L73.2537 95.6627L60.5385 108.665L0 133.144L53.8275 92.9941Z" fill="#FFD130"/>
<path fill-rule="evenodd" clip-rule="evenodd" d="M142.351 100.25V104.445H175.728V91.9829H170.184V99.2305H152.603C151.331 99.2305 150.056 99.4207 150.056 99.4207V99.2958C150.056 99.2958 151.01 98.4044 151.901 97.1326L175.086 63.6909V59.5547H142.667V71.7617H148.208V64.7725H164.832C166.107 64.7725 167.382 64.5823 167.382 64.5823V64.71C167.382 64.71 166.425 65.5986 165.534 66.8704L142.349 100.252L142.351 100.25ZM190.76 100.44C196.239 100.44 199.614 94.8445 199.614 90.0127V88.6785H198.021C195.089 88.6785 184.963 88.8034 184.963 94.9722C184.963 97.8309 187.063 100.44 190.76 100.44ZM272.604 104.443H261.589V85.1782C261.589 80.6644 260.76 77.1045 255.917 77.1045C249.867 77.1045 246.427 83.2705 246.427 89.6295V99.6762H251.46V104.445H240.246V85.1782C240.246 80.9823 239.613 77.1045 234.645 77.1045C228.53 77.1045 224.965 83.5884 224.965 89.885V99.6762H230.058V104.445H213.754V99.6762H218.785V78.3763C218.785 77.4849 218.274 77.042 217.382 77.042H213.436V72.2727H220.695C223.435 72.2727 224.772 73.4793 224.772 75.8327V77.4849C224.772 78.504 224.582 79.3301 224.582 79.3301C226.299 75.5147 230.949 71.5091 236.173 71.5091C241.331 71.5091 244.519 73.8625 245.598 79.0746C247.511 75.0719 251.968 71.5091 257.257 71.5091C264.388 71.5091 267.766 75.6425 267.766 83.8439V99.6762H277.384V78.3763C277.384 77.4849 276.873 77.042 275.982 77.042H272.036V72.2727H279.295C282.034 72.2727 283.371 73.4793 283.371 75.8327V77.4849C283.371 78.504 283.181 79.3301 283.181 79.3301H283.309C284.899 75.5147 289.549 71.5091 294.772 71.5091C299.93 71.5091 303.118 73.8625 304.197 79.0746H304.328C306.111 75.0719 310.568 71.5091 315.854 71.5091C322.988 71.5091 326.363 75.6425 326.363 83.8439V99.6762H331.459V104.445H320.189V85.1782C320.189 80.6644 319.36 77.1045 314.516 77.1045C308.467 77.1045 305.026 83.2705 305.026 89.6295V99.6762H310.059V104.445H298.849V85.1782C298.849 80.9823 298.21 77.1045 293.245 77.1045C287.13 77.1045 283.564 83.5884 283.564 89.885V99.6762H288.657V104.445H272.609L272.604 104.443ZM197.513 84.6728C192.162 84.6728 178.723 85.374 178.723 95.4832C178.723 102.095 184.074 105.212 189.425 105.212C197.261 105.212 200.062 98.4072 200.062 98.4072H200.187C200.187 98.4072 199.932 99.2333 199.932 100.505V100.951C199.932 103.052 201.079 104.448 203.946 104.448H210.379V99.679H207.131C206.24 99.679 205.729 99.2333 205.729 98.2795V83.9064C205.729 75.7702 201.4 71.5091 193.181 71.5091C185.667 71.5091 180.954 75.3245 180.954 75.3245L183.438 79.7105C183.438 79.7105 187.577 76.5963 192.673 76.5963C196.622 76.5963 199.551 78.3763 199.551 83.4635V84.67H197.513V84.6728ZM345.86 100.443C351.339 100.443 354.712 94.8473 354.712 90.0156V88.6813H353.122C350.189 88.6813 340.063 88.8062 340.063 94.975C340.063 97.8338 342.164 100.443 345.86 100.443ZM352.611 84.6728C347.26 84.6728 333.821 85.374 333.821 95.4832C333.821 102.095 339.172 105.212 344.523 105.212C352.358 105.212 355.157 98.4072 355.157 98.4072H355.285C355.285 98.4072 355.03 99.2333 355.03 100.505V100.951C355.03 103.052 356.177 104.448 359.044 104.448H365.477V99.679H362.229C361.338 99.679 360.827 99.2333 360.827 98.2795V83.9064C360.827 75.7702 356.497 71.5091 348.279 71.5091C340.764 71.5091 336.052 75.3245 336.052 75.3245L338.533 79.7105C338.533 79.7105 342.675 76.5963 347.771 76.5963C351.717 76.5963 354.649 78.3763 354.649 83.4635V84.67H352.611V84.6728ZM380.063 99.8692C384.841 99.8692 389.363 96.4342 389.363 88.4258C389.363 82.5125 386.368 76.9171 380.253 76.9171C375.095 76.9171 370.956 81.0505 370.956 88.3605C370.956 95.3554 374.712 99.8692 380.063 99.8692ZM379.296 71.5119C386.623 71.5119 389.235 76.9171 389.235 76.9171H389.363C389.363 76.9171 389.173 75.9008 389.173 74.5012V64.3268H383.821V59.5575H395.347V98.2795C395.347 99.2333 395.858 99.679 396.752 99.679H400V104.448H393.567C390.7 104.448 389.553 103.049 389.553 100.951V100.505C389.553 99.4264 389.743 98.7876 389.743 98.7876H389.618C389.618 98.7876 387.007 105.212 378.726 105.212C370.064 105.212 364.651 98.3419 364.651 88.3605C364.651 78.1236 370.635 71.5119 379.299 71.5119" fill="black"/>
</g>
<defs>
<clipPath id="clip0">
<rect width="400" height="160" fill="white"/>
</clipPath>
</defs>
</svg>
