<svg width="400" height="160" viewBox="0 0 400 160" fill="none" xmlns="http://www.w3.org/2000/svg">
<path d="M228.42 72.0117H221.465C221.322 71.4364 221.216 70.7692 221.145 70.0117C221.003 68.5375 221.003 67.0528 221.145 65.5786C221.216 64.8228 221.322 64.1562 221.465 63.5775H238.797V119.049C237.929 119.202 237.055 119.31 236.176 119.372C235.303 119.44 234.429 119.475 233.553 119.479C232.715 119.474 231.877 119.438 231.041 119.372C230.163 119.309 229.289 119.201 228.421 119.048V72.0094V72.0105L228.42 72.0117ZM288.755 85.9619C288.755 83.9427 288.487 82.0149 287.954 80.1751C287.418 78.3382 286.631 76.7347 285.6 75.3641C284.564 73.9959 283.245 72.8955 281.641 72.067C280.036 71.2379 278.128 70.8227 275.917 70.8227C271.567 70.8227 268.232 72.1583 265.915 74.8244C263.597 77.491 262.189 81.2033 261.689 85.9619H288.756H288.755ZM261.583 93.9629C261.725 100.018 263.277 104.452 266.236 107.262C269.195 110.073 273.564 111.481 279.341 111.481C284.403 111.481 289.218 110.579 293.782 108.777C294.351 109.858 294.814 111.174 295.172 112.723C295.522 114.232 295.737 115.77 295.813 117.318C293.461 118.33 290.874 119.084 288.059 119.59C285.24 120.093 282.12 120.347 278.699 120.347C273.705 120.347 269.425 119.642 265.861 118.237C262.294 116.83 259.352 114.848 257.034 112.29C254.717 109.731 253.022 106.703 251.952 103.206C250.883 99.7113 250.347 95.872 250.347 91.6911C250.347 87.5823 250.864 83.743 251.898 80.174C252.931 76.6078 254.521 73.5074 256.658 70.8763C258.799 68.2441 261.49 66.1544 264.736 64.6046C267.979 63.0547 271.812 62.2786 276.236 62.2786C280.016 62.2786 283.332 62.9283 286.185 64.2255C289.037 65.5228 291.427 67.3073 293.353 69.578C295.278 71.8492 296.74 74.5525 297.739 77.6867C298.737 80.8237 299.238 84.2292 299.238 87.9066C299.238 88.9161 299.2 89.9787 299.129 91.0955C299.07 92.0514 298.999 93.0066 298.916 93.9606H261.58L261.581 93.9623L261.583 93.9629ZM310.905 63.5775C311.649 63.4409 312.398 63.3329 313.151 63.2537C313.863 63.1833 314.613 63.1466 315.398 63.1466C316.182 63.1466 316.966 63.1833 317.751 63.2537C318.535 63.3271 319.249 63.4354 319.891 63.5775C320.103 64.6593 320.318 66.0845 320.531 67.8487C320.744 69.6152 320.853 71.1098 320.853 72.336C322.35 69.8859 324.33 67.7579 326.789 65.9554C329.25 64.1545 332.406 63.2521 336.256 63.2521C336.827 63.2521 337.415 63.2712 338.021 63.3073C338.54 63.3355 339.059 63.3886 339.573 63.4681C339.714 64.1178 339.824 64.8036 339.894 65.5233C339.964 66.2436 340 67.001 340 67.7935C340 68.6592 339.947 69.5611 339.84 70.4962C339.738 71.4 339.613 72.3012 339.467 73.1989C338.889 73.0551 338.296 72.9826 337.7 72.9829H336.255C334.33 72.9829 332.493 73.2536 330.746 73.7934C328.997 74.3348 327.429 75.2903 326.039 76.6585C324.649 78.0291 323.543 79.9038 322.724 82.2828C321.902 84.6618 321.493 87.7255 321.493 91.4734V119.048C320.626 119.2 319.751 119.309 318.872 119.371C317.91 119.444 317.036 119.479 316.252 119.479C315.377 119.475 314.503 119.439 313.63 119.371C312.717 119.304 311.806 119.196 310.902 119.048V63.5781L310.905 63.5775ZM235.823 33.958C235.823 35.2523 235.592 36.5359 235.14 37.747C233.942 38.2033 232.671 38.4371 231.391 38.4374H231.375C230.094 38.4376 228.824 38.2039 227.625 37.7476C227.173 36.5362 226.941 35.2522 226.942 33.9575V33.9405C226.942 32.6067 227.184 31.3292 227.622 30.1504C228.821 29.6935 230.092 29.4598 231.373 29.4606H231.388C232.708 29.4606 233.971 29.7054 235.138 30.1504C235.589 31.3618 235.821 32.6459 235.82 33.9405V33.9575H235.822L235.823 33.958ZM248.895 30.9575H238.529L245.858 23.5493C244.705 21.9133 243.291 20.4836 241.672 19.3192L234.342 26.7274V16.2499C233.367 16.0841 232.381 16.0006 231.392 16H231.373C230.368 16 229.383 16.0869 228.423 16.2499V26.7274L221.091 19.3186C220.284 19.8995 219.526 20.5477 218.826 21.2566L218.823 21.2599C218.122 21.9682 217.482 22.7342 216.907 23.5498L224.239 30.9575H213.871C213.871 30.9575 213.624 32.9259 213.624 33.9434V33.9558C213.624 34.9732 213.71 35.9704 213.871 36.9411H224.239L216.906 44.3482C218.06 45.9839 219.475 47.4139 221.093 48.5794L228.424 41.1717V51.6498C229.382 51.8123 230.366 51.898 231.37 51.8991H231.395C232.382 51.8982 233.368 51.8148 234.341 51.6498V41.1717L241.672 48.5811C242.48 47.9997 243.238 47.3515 243.94 46.6431H243.941C244.641 45.9341 245.282 45.1676 245.856 44.3516L238.527 36.9416H248.895C249.056 35.9715 249.141 34.9778 249.141 33.9625V33.9366C249.141 32.9383 249.058 31.9428 248.895 30.9586V30.9575H248.895ZM61 117.536L89.8845 72.12H64.4228C64.2096 70.8227 64.1031 69.3823 64.1031 67.7957C64.1031 66.2825 64.2113 64.8753 64.425 63.5769H105.611L106.147 64.9853L77.0488 110.507H104.327C104.541 111.95 104.649 113.426 104.649 114.939C104.649 116.383 104.542 117.752 104.328 119.049H61.5357L61 117.534V117.536ZM144.336 92.9888C143.266 92.8462 141.911 92.7035 140.271 92.5574C138.63 92.4147 137.24 92.3414 136.1 92.3414C131.677 92.3414 128.308 93.1704 125.991 94.8286C123.672 96.4879 122.515 99.0096 122.515 102.398C122.515 104.56 122.906 106.254 123.691 107.479C124.474 108.707 125.456 109.642 126.632 110.291C127.81 110.94 129.11 111.337 130.536 111.481C131.961 111.625 133.317 111.696 134.601 111.696C136.241 111.696 137.935 111.606 139.683 111.426C141.429 111.247 142.98 110.976 144.336 110.615V92.9888H144.336ZM144.336 82.5017C144.336 78.2468 143.266 75.2914 141.127 73.6332C138.987 71.975 135.885 71.1459 131.82 71.1459C129.322 71.1459 126.987 71.3456 124.813 71.7415C122.661 72.1319 120.535 72.6549 118.446 73.3078C117.09 70.9288 116.415 68.0834 116.415 64.7653C118.837 63.9734 121.511 63.3609 124.436 62.9283C127.36 62.4952 130.177 62.2786 132.888 62.2786C140.02 62.2786 145.439 63.9198 149.149 67.1996C152.856 70.4821 154.712 75.7257 154.712 82.9331V117.643C152.214 118.22 149.184 118.814 145.619 119.427C142.013 120.043 138.363 120.35 134.707 120.347C131.213 120.347 128.055 120.023 125.24 119.374C122.422 118.724 120.032 117.681 118.072 116.237C116.109 114.797 114.595 112.958 113.524 110.724C112.455 108.489 111.92 105.786 111.92 102.614C111.92 99.515 112.543 96.7931 113.792 94.4491C115.018 92.1331 116.758 90.135 118.874 88.6104C121.013 87.0628 123.474 85.9077 126.255 85.1519C129.037 84.3945 131.96 84.0155 135.027 84.0155C137.309 84.0155 139.181 84.0707 140.644 84.179C142.105 84.2862 143.336 84.4125 144.335 84.5569V82.5022L144.336 82.5017ZM176.856 109.964C178.207 110.469 179.605 110.831 181.029 111.046C182.455 111.263 184.308 111.371 186.592 111.371C189.159 111.371 191.512 110.958 193.651 110.128C195.792 109.301 197.627 108.02 199.161 106.289C200.694 104.56 201.906 102.381 202.798 99.7468C203.689 97.1174 204.136 94.0007 204.136 90.3944C204.136 84.628 203.082 80.0505 200.98 76.6619C198.875 73.2745 195.433 71.5802 190.657 71.5802C188.874 71.5802 187.161 71.904 185.523 72.5537C183.88 73.2023 182.42 74.1758 181.136 75.473C179.852 76.7702 178.818 78.4115 178.034 80.3934C177.247 82.3776 176.857 84.7363 176.857 87.4762V109.966V109.965L176.856 109.964ZM166.265 63.5764C166.991 63.432 167.722 63.3243 168.458 63.2526C169.223 63.1811 169.991 63.1453 170.759 63.1455C171.47 63.1455 172.218 63.1827 173.004 63.2526C173.788 63.3259 174.537 63.4348 175.251 63.5769C175.321 63.7236 175.412 64.172 175.519 64.9294C175.625 65.6869 175.732 66.4974 175.84 67.3614C175.947 68.2272 176.053 69.058 176.16 69.8487C176.268 70.6428 176.321 71.1476 176.321 71.3636C177.033 70.2114 177.889 69.0929 178.888 68.0117C179.887 66.93 181.083 65.957 182.473 65.093C183.864 64.2272 185.432 63.5431 187.18 63.0377C188.926 62.5335 190.87 62.2791 193.01 62.2791C196.218 62.2791 199.197 62.8206 201.944 63.9024C204.688 64.9853 207.04 66.6587 209.002 68.9299C210.963 71.2012 212.495 74.085 213.602 77.5801C214.707 81.0792 215.259 85.2055 215.259 89.9624C215.259 99.4772 212.709 106.922 207.609 112.291C202.509 117.663 195.29 120.347 185.947 120.347C184.378 120.347 182.774 120.238 181.133 120.022C179.492 119.805 178.067 119.516 176.853 119.158V144.569C175.95 144.717 175.04 144.825 174.127 144.893C173.163 144.963 172.289 145 171.504 145C170.63 144.996 169.756 144.96 168.884 144.893C168.006 144.83 167.131 144.722 166.264 144.569V63.5769L166.265 63.5764Z" fill="#FF4A00"/>
</svg>
