<svg width="400" height="160" viewBox="0 0 400 160" fill="none" xmlns="http://www.w3.org/2000/svg">
<path d="M196 25V95H139L196 25Z" fill="#03363D"/>
<path d="M196 0C196 7.69128 192.997 15.0675 187.653 20.5061C182.308 25.9447 175.059 29 167.5 29C159.941 29 152.692 25.9447 147.347 20.5061C142.003 15.0675 139 7.69128 139 0H196Z" fill="#03363D"/>
<path d="M205 95C205 87.0435 208.108 79.4129 213.64 73.7868C219.173 68.1607 226.676 65 234.5 65C242.324 65 249.827 68.1607 255.36 73.7868C260.892 79.4129 264 87.0435 264 95H205Z" fill="#03363D"/>
<path d="M205 70V0H264L205 70Z" fill="#03363D"/>
<path d="M237.508 154.157C240.41 154.223 243.221 153.121 245.327 151.092L249.203 155.341C246.643 158.014 243.093 160 237.574 160C228.113 160 222.003 153.63 222.003 145.004C221.964 143.028 222.318 141.065 223.043 139.231C223.769 137.398 224.85 135.731 226.223 134.331C227.596 132.931 229.233 131.826 231.036 131.082C232.839 130.338 234.771 129.971 236.717 130.002C246.112 130.002 251.437 137.261 250.972 147.328H228.765C229.55 151.509 232.442 154.176 237.502 154.176L237.508 154.157ZM244.27 142.527C243.666 138.622 241.378 135.746 236.777 135.746C232.508 135.746 229.532 138.199 228.765 142.527H244.27Z" fill="#03363D"/>
<path d="M87 154.12L105.282 135.759H87.4327V130H113.755V135.88L95.4726 154.235H114V160H87V154.12Z" fill="#03363D"/>
<path d="M134.112 154.157C137.315 154.223 140.416 153.121 142.74 151.092L147.017 155.341C144.192 158.014 140.275 160 134.185 160C123.745 160 117.003 153.63 117.003 145.004C116.961 143.028 117.351 141.065 118.151 139.231C118.952 137.398 120.145 135.731 121.66 134.331C123.175 132.931 124.982 131.826 126.971 131.082C128.96 130.338 131.092 129.971 133.239 130.002C143.606 130.002 149.482 137.261 148.969 147.328H124.465C125.331 151.509 128.522 154.176 134.105 154.176L134.112 154.157ZM141.574 142.527C140.908 138.622 138.383 135.746 133.306 135.746C128.596 135.746 125.311 138.199 124.465 142.527H141.574Z" fill="#03363D"/>
<path d="M185 144.893C185 135.618 192.067 129.781 199.846 129.781C201.713 129.757 203.564 130.134 205.268 130.887C206.971 131.64 208.486 132.751 209.707 134.14V117H216V159.425H209.707V155.411C208.51 156.858 206.997 158.022 205.28 158.816C203.563 159.61 201.686 160.015 199.789 160C192.237 160 185 154.132 185 144.893ZM210.059 144.838C210.01 143.024 209.417 141.265 208.356 139.781C207.294 138.296 205.81 137.153 204.091 136.492C202.371 135.832 200.491 135.684 198.686 136.068C196.882 136.452 195.232 137.351 193.945 138.651C192.657 139.951 191.788 141.595 191.446 143.378C191.104 145.161 191.305 147.003 192.024 148.675C192.742 150.346 193.946 151.772 195.485 152.775C197.024 153.777 198.83 154.311 200.676 154.311C206.082 154.311 210.059 150.069 210.059 144.838Z" fill="#03363D"/>
<path d="M255 153.321L260.698 150.441C261.451 151.749 262.557 152.832 263.896 153.573C265.235 154.314 266.756 154.684 268.296 154.644C271.855 154.644 273.698 152.861 273.698 150.845C273.698 148.542 270.258 148.021 266.516 147.273C261.484 146.238 256.245 144.62 256.245 138.695C256.245 134.143 260.692 129.939 267.698 130.001C273.214 130.001 277.314 132.133 279.648 135.583L274.365 138.407C273.635 137.354 272.641 136.5 271.478 135.925C270.315 135.35 269.02 135.074 267.717 135.123C264.333 135.123 262.61 136.734 262.61 138.579C262.61 140.65 265.34 141.226 269.616 142.151C274.484 143.186 280 144.743 280 150.729C280 154.7 276.44 160.055 268.013 160C261.843 160 257.509 157.579 255.013 153.321" fill="#03363D"/>
<path d="M297.441 146.926L292.381 152.348V160H286V117H292.381V145.159L305.928 130.55H313.7L301.953 143.153L314 160H306.777L297.441 146.926Z" fill="#03363D"/>
<path d="M167.012 130C159.931 130 154 134.825 154 142.822V160H160.068V143.617C160.068 138.792 162.706 135.907 167.214 135.907C171.722 135.907 173.962 138.792 173.962 143.617V160H180V142.822C180 134.825 174.045 130 166.988 130" fill="#03363D"/>
</svg>
