<svg width="400" height="160" viewBox="0 0 400 160" fill="none" xmlns="http://www.w3.org/2000/svg">
<path fill-rule="evenodd" clip-rule="evenodd" d="M85.3132 60.6836V48.6992H36.0346V60.6836H68.7124L35.3169 102.271H35.3213V114.357H86.0222V102.271H51.8125L85.3132 60.6836Z" fill="#323F48"/>
<path fill-rule="evenodd" clip-rule="evenodd" d="M110.822 63.8555C96.6871 63.8555 86.033 75.5319 86.033 89.8754C86.0352 104.12 97.1002 115.794 112.364 115.794C120.659 115.794 127.627 112.412 131.314 108.112L124.86 99.6091C121.986 102.58 117.793 104.733 112.875 104.733C105.294 104.733 100.07 99.8162 98.8391 92.9512H135.207C135.412 92.1327 135.513 90.3915 135.513 88.8542C135.512 74.7178 124.859 63.8588 110.825 63.8588L110.822 63.8555ZM99.0473 85.0596C100.484 78.8115 104.781 74.5085 111.033 74.5085C116.873 74.5085 121.278 78.0927 122.711 85.0596H99.0473Z" fill="#323F48"/>
<path fill-rule="evenodd" clip-rule="evenodd" d="M293.289 91.8194C293.289 98.989 289.09 103.805 282.84 103.805C276.59 103.805 272.391 98.9879 272.391 91.8194V65.291H272.384H259.886V92.7508C259.886 106.477 269.005 115.602 282.837 115.602C296.666 115.602 305.785 106.483 305.785 92.7508V65.291H293.289V91.8194Z" fill="#323F48"/>
<path fill-rule="evenodd" clip-rule="evenodd" d="M341.437 63.8578V63.849C335.087 63.849 330.066 66.4109 326.483 70.6121V43.8755H313.985V114.355H326.483V109.439C329.967 113.434 334.986 115.791 341.437 115.791C355.065 115.791 365 104.627 365 89.7715C365.001 74.5075 354.449 63.8534 341.437 63.8534V63.8578ZM339.493 104.011C332.015 104.011 326.483 97.7618 326.483 89.8734C326.483 81.9872 332.016 75.6329 339.493 75.6329C347.073 75.6329 352.503 81.985 352.503 89.8734C352.503 97.7629 347.073 104.011 339.493 104.011Z" fill="#323F48"/>
<path fill-rule="evenodd" clip-rule="evenodd" d="M164.35 63.7876C150.9 63.7876 142.033 72.912 142.033 86.6353V114.095H154.185V87.5558C154.185 80.3862 158.271 75.5703 164.347 75.5703C170.422 75.5703 174.506 80.384 174.506 87.5558V114.095H186.658V86.6353C186.657 72.9043 177.791 63.7876 164.343 63.7876" fill="#323F48"/>
<path fill-rule="evenodd" clip-rule="evenodd" d="M238.369 74.8112H207.129V48.6948H194.32V114.357H207.129V86.7989H238.369V114.357H251.277V48.6948H238.369V74.8112Z" fill="#323F48"/>
</svg>
