<svg width="400" height="160" viewBox="0 0 400 160" fill="none" xmlns="http://www.w3.org/2000/svg">
<path d="M349 50.8086V121.491L339.24 131.013V61.8929L349 50.8082" fill="#E79224"/>
<path d="M339.397 61.8928H274.768V131.098H339.397V61.8928Z" fill="url(#paint0_linear)"/>
<path d="M284.891 50.856L274.768 61.894H339.396L348.998 50.8094L284.889 50.856" fill="#FEF26F"/>
<path d="M204.847 53.8874L268.419 45.0503L263.1 60.2935L202.874 69.8447L203.13 58.9488L204.847 53.8874Z" fill="#91C9ED"/>
<path d="M263.1 60.2911L271.907 122.291L209.222 131.099L200.758 71.1597L204.418 68.2996L263.102 60.2928" fill="url(#paint1_linear)"/>
<path d="M268.421 45.0489L268.47 45.4232L276.714 108.909L271.909 122.292L263.102 60.2913" fill="#0B9AD6"/>
<path d="M151.189 48.3883L207.192 74.0774L182.53 131.621L125.5 106.446L151.189 48.3883Z" fill="url(#paint2_linear)"/>
<path d="M145.31 28.8641L151.152 48.5976L207.432 73.9922L202.701 55.1361L145.31 28.8641Z" fill="#98D0A0"/>
<path d="M145.31 28.8645L122.658 82.6253L125.757 106.25L151.152 48.598L145.31 28.8645Z" fill="#68BF6B"/>
<path d="M113.911 60.2023L123.187 121.212L60.99 130.965L51.0001 69.8381L113.91 60.2056" fill="url(#paint3_linear)"/>
<path d="M51.0014 69.834L55.3693 48.0514L118.169 37.985L113.913 60.2015L51.0014 69.834Z" fill="#EF463D"/>
<path d="M118.17 37.9846L127.377 99.5831L123.189 121.209L113.913 60.201L118.17 37.9846Z" fill="#761116"/>
<path d="M252.437 72.1727C252.155 70.2472 251.497 68.7781 250.431 67.8157C249.584 67.047 248.518 66.6586 247.303 66.6606C246.993 66.6606 246.674 66.6855 246.343 66.7338C244.716 66.9677 243.469 67.7216 242.705 68.9661C242.15 69.8652 241.88 70.95 241.88 72.1977C241.88 72.6754 241.92 73.179 241.998 73.707L244.285 89.8394L226.261 92.4918L223.974 76.3563C223.698 74.4806 223.049 73.0264 221.998 72.0379C221.149 71.2365 220.091 70.8268 218.897 70.8296C218.615 70.8296 218.326 70.8521 218.03 70.8956C216.334 71.1399 215.042 71.8797 214.257 73.1057C213.688 73.9888 213.414 75.0787 213.414 76.3462C213.414 76.8328 213.455 77.3472 213.534 77.8898L219.701 119.846C219.984 121.775 220.659 123.241 221.767 124.188C222.632 124.928 223.717 125.301 224.959 125.298C225.298 125.298 225.651 125.272 226.015 125.218C227.567 124.993 228.766 124.243 229.488 123C230.006 122.116 230.258 121.055 230.258 119.84C230.258 119.354 230.219 118.844 230.14 118.311L227.62 101.734L245.643 99.0855L248.164 115.661C248.441 117.565 249.11 119.023 250.203 119.983C251.072 120.747 252.146 121.131 253.363 121.129C253.676 121.129 253.996 121.105 254.327 121.056C255.948 120.821 257.19 120.078 257.931 118.844C258.465 117.963 258.723 116.895 258.723 115.664C258.723 115.177 258.684 114.665 258.605 114.127L252.437 72.1727ZM179.135 95.3793C177.014 100.374 174.215 103.801 170.751 105.7C168.895 106.717 166.993 107.22 165.025 107.221C163.315 107.221 161.553 106.839 159.733 106.068C155.794 104.389 153.34 101.69 152.278 97.8841C151.923 96.6069 151.744 95.2646 151.744 93.8539C151.744 91.0602 152.445 87.9952 153.86 84.6605C156.028 79.5472 158.859 76.0588 162.326 74.1486C164.177 73.1283 166.081 72.6215 168.055 72.6215C169.784 72.6215 171.57 73.0083 173.42 73.7936C177.334 75.4587 179.763 78.1635 180.806 81.9871C181.145 83.2373 181.316 84.553 181.316 85.9384C181.316 88.7913 180.595 91.9392 179.135 95.3793ZM185.301 70.2661C183.089 67.9341 180.403 66.0999 177.254 64.764C174.127 63.4358 170.966 62.7733 167.78 62.7733L167.633 62.7741C164.398 62.795 161.201 63.5151 158.05 64.9286V64.9274C154.752 66.3631 151.877 68.372 149.438 70.952C146.999 73.5303 145.013 76.632 143.479 80.2448C141.967 83.8157 141.127 87.3878 140.972 90.9608C140.953 91.3649 140.945 91.7694 140.945 92.1723C140.945 95.3254 141.486 98.4145 142.566 101.433C143.712 104.619 145.402 107.377 147.631 109.702C149.859 112.027 152.599 113.877 155.842 115.249V115.248C158.944 116.566 162.093 117.226 165.283 117.224H165.365C168.583 117.209 171.774 116.52 174.928 115.164L174.931 115.163L174.933 115.162C178.252 113.681 181.146 111.645 183.614 109.069C186.081 106.489 188.075 103.397 189.6 99.8044C191.124 96.2125 191.955 92.6363 192.091 89.0791C192.104 88.7362 192.11 88.394 192.11 88.0527C192.11 84.8541 191.545 81.7199 190.414 78.6537C189.217 75.3959 187.511 72.5974 185.301 70.2661ZM107.229 111.498C106.739 110.912 106.079 110.479 105.274 110.198C104.447 109.909 103.448 109.771 102.271 109.771C101.161 109.771 99.8934 109.894 98.4629 110.139L82.0464 112.945C82.2199 111.68 82.8482 110.017 83.9558 107.991C85.1931 105.721 87.0168 102.995 89.4261 99.8205L89.4273 99.8188C90.2541 98.714 90.886 97.87 91.3227 97.2872C91.6362 96.8988 92.0729 96.3276 92.6388 95.5725C96.3941 90.646 98.7185 86.6347 99.6096 83.4864C100.12 81.7014 100.43 79.9026 100.542 78.091C100.573 77.5951 100.587 77.1029 100.587 76.6143C100.587 75.3162 100.481 74.0379 100.266 72.7801C100.07 71.6338 99.7879 70.6803 99.4096 69.9151C99.0312 69.1516 98.5511 68.5708 97.9582 68.2045C97.2897 67.7976 96.349 67.625 95.1186 67.6229C94.1027 67.6229 92.8844 67.7461 91.4583 67.9892L72.4868 71.2353C70.1893 71.629 68.4928 72.3052 67.4105 73.3243C66.5504 74.1313 66.106 75.1765 66.1104 76.3764C66.1104 76.6895 66.139 77.0135 66.197 77.3488C66.4638 78.9608 67.3038 80.1429 68.6582 80.7442C69.4576 81.1049 70.4236 81.2771 71.551 81.2771C72.3189 81.2771 73.1625 81.1971 74.0843 81.0401L89.963 78.3623C89.99 78.6428 90.0085 78.923 90.0085 79.2007C90.0085 80.1928 89.8367 81.1616 89.4925 82.1155C89.0212 83.4297 87.8435 85.3085 85.9667 87.6969C85.435 88.349 84.6203 89.3649 83.5227 90.7414C79.2406 95.9287 76.1736 100.351 74.3177 104.03C74.3177 104.032 74.3177 104.032 74.3165 104.033C74.3165 104.033 74.3165 104.035 74.3161 104.035C72.9987 106.567 72.0843 109.061 71.5828 111.517C71.2905 112.949 71.1428 114.324 71.1428 115.643C71.1428 116.588 71.2185 117.502 71.3702 118.387C71.5876 119.657 71.9011 120.705 72.3233 121.535C72.7456 122.361 73.2841 122.979 73.949 123.344C74.5681 123.68 75.4777 123.813 76.7299 123.817C78.3193 123.817 80.459 123.582 83.1673 123.12L100.381 120.177C103.43 119.653 105.55 118.926 106.782 117.914C107.766 117.105 108.276 115.995 108.271 114.687C108.271 114.357 108.24 114.015 108.179 113.659C108.034 112.811 107.719 112.082 107.229 111.498ZM92.6392 95.5713L92.6404 95.5705C92.6392 95.5713 92.6392 95.5721 92.6388 95.5725H92.6376L92.6392 95.5713ZM316.249 109.595C313.773 112.588 310.438 114.073 306.134 114.078C301.8 114.073 298.452 112.592 295.962 109.615C293.479 106.635 292.223 102.539 292.221 97.2807C292.223 91.9223 293.475 87.7645 295.944 84.7615C298.419 81.7597 301.777 80.2693 306.134 80.2637C310.438 80.2693 313.772 81.7585 316.249 84.7615C318.72 87.7645 319.974 91.9223 319.974 97.2807C319.974 102.514 318.723 106.607 316.249 109.595ZM329.532 86.7897C328.252 83.5762 326.359 80.6951 323.856 78.153C321.459 75.7094 318.765 73.8652 315.792 72.6276C312.814 71.3891 309.596 70.7708 306.139 70.7717C302.658 70.7708 299.408 71.3887 296.408 72.6267C293.409 73.8648 290.717 75.7103 288.343 78.1542C285.843 80.671 283.958 83.542 282.705 86.7543C281.454 89.9698 280.827 93.4763 280.827 97.2703C280.827 101.015 281.456 104.51 282.726 107.746C283.989 110.983 285.865 113.889 288.343 116.455C290.666 118.854 293.33 120.67 296.316 121.895C299.303 123.118 302.582 123.731 306.139 123.731C309.568 123.731 312.783 123.118 315.769 121.895C318.757 120.671 321.456 118.856 323.854 116.458C326.359 113.89 328.252 110.992 329.532 107.766C330.812 104.542 331.451 101.04 331.451 97.2703C331.451 93.5005 330.812 90.0044 329.532 86.7897Z" fill="white"/>
<defs>
<linearGradient id="paint0_linear" x1="307.084" y1="62.8508" x2="307.084" y2="128.981" gradientUnits="userSpaceOnUse">
<stop stop-color="#FFE500"/>
<stop offset="1" stop-color="#FCB822"/>
</linearGradient>
<linearGradient id="paint1_linear" x1="203.969" y1="69.8463" x2="268.803" y2="121.913" gradientUnits="userSpaceOnUse">
<stop stop-color="#168CCC"/>
<stop offset="1" stop-color="#00649E"/>
</linearGradient>
<linearGradient id="paint2_linear" x1="166.594" y1="71.6656" x2="166.594" y2="129.601" gradientUnits="userSpaceOnUse">
<stop stop-color="#25A149"/>
<stop offset="1" stop-color="#008A52"/>
</linearGradient>
<linearGradient id="paint3_linear" x1="82.5512" y1="65.9942" x2="92.5146" y2="126.143" gradientUnits="userSpaceOnUse">
<stop stop-color="#D92231"/>
<stop offset="1" stop-color="#BA2234"/>
</linearGradient>
</defs>
</svg>
